<svg width="50" height="50" viewBox="0 0 50 50" fill="none" xmlns="http://www.w3.org/2000/svg">
<path d="M26.2757 3.96069C25.8705 3.96069 25.4819 4.12166 25.1954 4.40817C24.9089 4.69468 24.748 5.08328 24.748 5.48847V23.8218C24.748 24.227 24.9089 24.6156 25.1954 24.9021C25.4819 25.1886 25.8705 25.3496 26.2757 25.3496H44.6091C45.0143 25.3496 45.4029 25.1886 45.6894 24.9021C45.9759 24.6156 46.1368 24.227 46.1368 23.8218C46.1368 21.2136 45.6231 18.6309 44.625 16.2213C43.6269 13.8116 42.1639 11.6222 40.3197 9.77788C38.4754 7.9336 36.2859 6.47064 33.8762 5.47253C31.4666 4.47442 28.8839 3.96069 26.2757 3.96069ZM27.8035 22.294V7.08347C31.7173 7.44024 35.3823 9.15737 38.1612 11.9363C40.9402 14.7153 42.6573 18.3802 43.0141 22.294H27.8035ZM21.6924 11.6668C21.6924 11.4546 21.6482 11.2447 21.5626 11.0505C21.477 10.8563 21.3519 10.682 21.1952 10.5389C21.0385 10.3957 20.8537 10.2868 20.6526 10.219C20.4515 10.1512 20.2385 10.126 20.0271 10.1451C16.5574 10.4615 13.2496 11.76 10.4913 13.8886C7.73294 16.0172 5.63826 18.8877 4.4526 22.1639C3.26694 25.4401 3.03939 28.9863 3.79661 32.3872C4.55382 35.788 6.26445 38.9027 8.72811 41.3664C11.1918 43.83 14.3065 45.5407 17.7073 46.2979C21.1082 47.0551 24.6544 46.8275 27.9306 45.6419C31.2068 44.4562 34.0773 42.3615 36.2059 39.6032C38.3345 36.8449 39.633 33.5371 39.9493 30.0674C39.968 29.8565 39.9426 29.644 39.8748 29.4435C39.8069 29.243 39.6982 29.0587 39.5554 28.9024C39.4126 28.7461 39.2389 28.6212 39.0453 28.5356C38.8517 28.45 38.6424 28.4056 38.4307 28.4051H21.6924V11.6668ZM6.41462 28.4051C6.4139 24.8831 7.63007 21.4691 9.85729 18.7407C12.0845 16.0124 15.186 14.1373 18.6368 13.4329V29.9329C18.6368 30.3381 18.7978 30.7267 19.0843 31.0132C19.3708 31.2997 19.7594 31.4607 20.1646 31.4607H36.6646C35.8979 35.162 33.7868 38.448 30.7391 40.6839C27.6914 42.9197 23.9232 43.9469 20.1624 43.5671C16.4016 43.1872 12.915 41.4272 10.376 38.627C7.83696 35.8268 6.42564 32.185 6.41462 28.4051Z" fill="black"/>
</svg>
