<svg width="20" height="20" viewBox="0 0 20 20" fill="none" xmlns="http://www.w3.org/2000/svg">
<path d="M12.9734 7.19813C13.169 7.19813 13.3619 7.21244 13.553 7.23321C13.0325 4.83457 10.4405 3.052 7.48214 3.052C4.17447 3.052 1.46484 5.28311 1.46484 8.11595C1.46484 9.75088 2.36651 11.0937 3.87269 12.1352L3.27096 13.9268L5.37425 12.8827C6.12734 13.0299 6.73089 13.1817 7.48214 13.1817C7.67088 13.1817 7.85775 13.1725 8.04372 13.1578C7.92604 12.76 7.85775 12.3429 7.85775 11.9105C7.85777 9.30928 10.1152 7.19813 12.9734 7.19813ZM9.73863 5.58353C10.1918 5.58353 10.4917 5.87885 10.4917 6.32692C10.4917 6.77314 10.1918 7.07216 9.73863 7.07216C9.28732 7.07216 8.83511 6.77314 8.83511 6.32692C8.83511 5.87885 9.28734 5.58353 9.73863 5.58353ZM5.52745 7.07214C5.07614 7.07214 4.62114 6.77312 4.62114 6.3269C4.62114 5.87883 5.07614 5.58351 5.52745 5.58351C5.97826 5.58351 6.27868 5.87883 6.27868 6.3269C6.27868 6.77314 5.97826 7.07214 5.52745 7.07214ZM18.4656 11.8389C18.4656 9.45832 16.0582 7.51791 13.3546 7.51791C10.4917 7.51791 8.23707 9.45832 8.23707 11.8389C8.23707 14.223 10.4917 16.1593 13.3546 16.1593C13.9535 16.1593 14.558 16.0107 15.1597 15.8612L16.8104 16.7555L16.3577 15.2677C17.5658 14.3707 18.4656 13.1817 18.4656 11.8389ZM11.6952 11.0937C11.3957 11.0937 11.0935 10.7988 11.0935 10.498C11.0935 10.2013 11.3957 9.9027 11.6952 9.9027C12.1502 9.9027 12.4483 10.2013 12.4483 10.498C12.4483 10.7988 12.1502 11.0937 11.6952 11.0937ZM15.0047 11.0937C14.7075 11.0937 14.4071 10.7988 14.4071 10.498C14.4071 10.2013 14.7075 9.9027 15.0047 9.9027C15.456 9.9027 15.7578 10.2013 15.7578 10.498C15.7578 10.7988 15.456 11.0937 15.0047 11.0937Z" fill="black"/>
</svg>
