<svg width="56" height="56" viewBox="0 0 56 56" fill="none" xmlns="http://www.w3.org/2000/svg">
<g clip-path="url(#clip0_706_261)">
<path d="M0 28C0 35.4261 2.94999 42.548 8.20101 47.799C13.452 53.05 20.5739 56 28 56C35.4261 56 42.548 53.05 47.799 47.799C53.05 42.548 56 35.4261 56 28C56 20.5739 53.05 13.452 47.799 8.20101C42.548 2.94999 35.4261 0 28 0C20.5739 0 13.452 2.94999 8.20101 8.20101C2.94999 13.452 0 20.5739 0 28Z" fill="#738BD8"/>
<path d="M10.4404 12.8135H45.559V38.9152H10.4404V12.8135Z" fill="white"/>
<path d="M38.1805 50.9838L8.60176 47.1872C5.40637 46.777 5.57207 36.7327 5.85316 33.5233L7.2769 17.2691C7.55799 14.0597 11.3432 10.6946 14.5339 10.2493L40.0424 6.68997C43.2332 6.24482 49.7352 18.3193 49.6723 21.5403L49.1978 45.8821M28.0001 16.4267C21.7467 16.4267 17.3601 19.11 17.3601 19.11C19.7634 16.9634 23.9634 15.7267 23.9634 15.7267L23.5667 15.3301C19.6234 15.4001 16.0534 18.13 16.0534 18.13C12.0401 26.5067 12.2967 33.74 12.2967 33.74C15.5634 37.9634 20.4167 37.6601 20.4167 37.6601L22.0734 35.56C19.1567 34.93 17.3134 32.34 17.3134 32.34C17.3134 32.34 21.7001 35.3267 28.0001 35.3267C34.3001 35.3267 38.6867 32.34 38.6867 32.34C38.6867 32.34 36.8434 34.93 33.9267 35.56L35.5834 37.6601C35.5834 37.6601 40.4367 37.9634 43.7034 33.74C43.7034 33.74 43.9601 26.5067 39.9467 18.13C39.9467 18.13 36.3767 15.4001 32.4334 15.3301L32.0367 15.7267C32.0367 15.7267 36.2367 16.9634 38.6401 19.11C38.6401 19.11 34.2534 16.4267 28.0001 16.4267ZM23.1701 25.27C24.6867 25.27 25.9234 26.6 25.9001 28.2334C25.9001 29.8434 24.6867 31.1967 23.1701 31.1967C21.6767 31.1967 20.4634 29.8434 20.4634 28.2334C20.4634 26.6 21.6534 25.27 23.1701 25.27ZM32.9001 25.27C34.4167 25.27 35.6301 26.6 35.6301 28.2334C35.6301 29.8434 34.4167 31.1967 32.9001 31.1967C31.4067 31.1967 30.1934 29.8434 30.1934 28.2334C30.1934 26.6 31.3834 25.27 32.9001 25.27Z" fill="#738BD8"/>
</g>
<defs>
<clipPath id="clip0_706_261">
<rect width="56" height="56" fill="white"/>
</clipPath>
</defs>
</svg>
