<svg width="51" height="51" viewBox="0 0 51 51" fill="none" xmlns="http://www.w3.org/2000/svg">
<path d="M20.4001 30.6001C19.859 30.6001 19.3402 30.815 18.9576 31.1976C18.575 31.5802 18.3601 32.099 18.3601 32.6401C18.3601 33.1811 18.575 33.7 18.9576 34.0826C19.3402 34.4652 19.859 34.6801 20.4001 34.6801C20.9411 34.6801 21.46 34.4652 21.8426 34.0826C22.2251 33.7 22.4401 33.1811 22.4401 32.6401C22.4401 32.099 22.2251 31.5802 21.8426 31.1976C21.46 30.815 20.9411 30.6001 20.4001 30.6001ZM6.12008 28.5601C5.57904 28.5601 5.06015 28.775 4.67758 29.1576C4.29501 29.5402 4.08008 30.059 4.08008 30.6001V34.6801C4.08008 34.948 4.13284 35.2132 4.23536 35.4608C4.33788 35.7083 4.48815 35.9331 4.67758 36.1226C4.86701 36.312 5.0919 36.4623 5.3394 36.5648C5.58691 36.6673 5.85218 36.7201 6.12008 36.7201C6.38797 36.7201 6.65325 36.6673 6.90075 36.5648C7.14826 36.4623 7.37314 36.312 7.56258 36.1226C7.75201 35.9331 7.90227 35.7083 8.00479 35.4608C8.10731 35.2132 8.16008 34.948 8.16008 34.6801V30.6001C8.16008 30.059 7.94515 29.5402 7.56258 29.1576C7.18 28.775 6.66112 28.5601 6.12008 28.5601ZM46.9201 28.5601C46.379 28.5601 45.8602 28.775 45.4776 29.1576C45.095 29.5402 44.8801 30.059 44.8801 30.6001V34.6801C44.8801 35.2211 45.095 35.74 45.4776 36.1226C45.8602 36.5051 46.379 36.7201 46.9201 36.7201C47.4611 36.7201 47.98 36.5051 48.3626 36.1226C48.7452 35.74 48.9601 35.2211 48.9601 34.6801V30.6001C48.9601 30.059 48.7452 29.5402 48.3626 29.1576C47.98 28.775 47.4611 28.5601 46.9201 28.5601ZM36.7201 14.2801H28.5601V11.6689C29.1767 11.3129 29.6895 10.8017 30.0473 10.1861C30.4052 9.57059 30.5958 8.87209 30.6001 8.16008C30.6001 7.07799 30.1702 6.04023 29.4051 5.27508C28.6399 4.50993 27.6022 4.08008 26.5201 4.08008C25.438 4.08008 24.4002 4.50993 23.6351 5.27508C22.8699 6.04023 22.4401 7.07799 22.4401 8.16008C22.4444 8.87209 22.6349 9.57059 22.9928 10.1861C23.3507 10.8017 23.8634 11.3129 24.4801 11.6689V14.2801H16.3201C14.697 14.2801 13.1403 14.9249 11.9926 16.0726C10.8449 17.2203 10.2001 18.777 10.2001 20.4001V38.7601C10.2001 40.3832 10.8449 41.9398 11.9926 43.0876C13.1403 44.2353 14.697 44.8801 16.3201 44.8801H36.7201C38.3432 44.8801 39.8999 44.2353 41.0476 43.0876C42.1953 41.9398 42.8401 40.3832 42.8401 38.7601V20.4001C42.8401 18.777 42.1953 17.2203 41.0476 16.0726C39.8999 14.9249 38.3432 14.2801 36.7201 14.2801ZM30.0289 18.3601L29.0089 22.4401H24.0313L23.0113 18.3601H30.0289ZM38.7601 38.7601C38.7601 39.3011 38.5452 39.82 38.1626 40.2026C37.78 40.5851 37.2611 40.8001 36.7201 40.8001H16.3201C15.779 40.8001 15.2602 40.5851 14.8776 40.2026C14.495 39.82 14.2801 39.3011 14.2801 38.7601V20.4001C14.2801 19.859 14.495 19.3402 14.8776 18.9576C15.2602 18.575 15.779 18.3601 16.3201 18.3601H18.8089L20.4001 24.9697C20.5118 25.4223 20.7751 25.823 21.1463 26.1051C21.5175 26.3872 21.9741 26.5337 22.4401 26.5201H30.6001C31.0661 26.5337 31.5227 26.3872 31.8939 26.1051C32.265 25.823 32.5284 25.4223 32.6401 24.9697L34.2313 18.3601H36.7201C37.2611 18.3601 37.78 18.575 38.1626 18.9576C38.5452 19.3402 38.7601 19.859 38.7601 20.4001V38.7601ZM32.6401 30.6001C32.099 30.6001 31.5802 30.815 31.1976 31.1976C30.815 31.5802 30.6001 32.099 30.6001 32.6401C30.6001 33.1811 30.815 33.7 31.1976 34.0826C31.5802 34.4652 32.099 34.6801 32.6401 34.6801C33.1811 34.6801 33.7 34.4652 34.0826 34.0826C34.4652 33.7 34.6801 33.1811 34.6801 32.6401C34.6801 32.099 34.4652 31.5802 34.0826 31.1976C33.7 30.815 33.1811 30.6001 32.6401 30.6001Z" fill="#42526E"/>
</svg>
