<svg width="49" height="67" viewBox="0 0 49 67" fill="none" xmlns="http://www.w3.org/2000/svg">
<path d="M43.2772 0.405159C43.825 0.904206 44.1902 1.43977 44.2876 2.18225C44.2998 3.05863 44.1902 3.83763 43.5693 4.50708C43.1067 4.90875 43.1067 4.90875 42.778 4.90875C42.778 6.47892 42.778 8.03692 42.778 9.65578C43.618 9.6436 43.618 9.6436 44.458 9.61926C45.2615 9.60709 45.8945 9.65578 46.5154 10.2035C46.9415 10.7756 47.051 11.0434 47.0632 11.7493C47.0632 11.9076 47.0632 12.0658 47.0754 12.2362C47.0754 12.4066 47.0754 12.5892 47.0754 12.7596C47.0754 12.8448 47.0754 12.9422 47.0754 13.0274C47.0754 13.5021 47.0876 13.9646 47.0876 14.4393C47.0876 14.8288 47.0997 15.2183 47.0997 15.5956C47.1119 16.0582 47.1119 16.5329 47.1119 16.9954C47.1119 17.178 47.1119 17.3484 47.1119 17.531C47.1484 19.2472 47.1484 19.2472 46.5032 19.941C45.9432 20.3914 45.3589 20.3792 44.665 20.3792C44.5798 20.3792 44.4945 20.3792 44.4093 20.3792C44.1537 20.3792 43.8858 20.3792 43.6302 20.367C43.4476 20.367 43.2772 20.367 43.0946 20.367C42.6563 20.367 42.2302 20.3548 41.792 20.3548C41.7311 20.5253 41.7311 20.5253 41.6824 20.7078C41.1467 22.2902 39.832 23.6778 38.6998 24.8828C38.4442 25.1506 38.225 25.4062 38.0181 25.7226C38.0546 26.1487 38.2737 26.4164 38.5172 26.7572C38.9433 27.4632 39.0528 28.084 38.8702 28.8873C38.6511 29.289 38.3589 29.5568 38.0181 29.8611C37.9207 29.9584 37.8111 30.0558 37.7137 30.1532C37.0563 30.774 36.3624 31.346 35.6685 31.9059C35.352 32.1616 35.0598 32.4293 34.7677 32.7093C34.0981 33.2935 33.599 33.5491 32.7103 33.5613C32.0407 33.4518 31.5538 33.0623 31.0668 32.6119C30.9694 32.5145 30.8599 32.4293 30.7625 32.332C30.4703 32.0642 30.4703 32.0642 30.2268 31.7721C30.0077 31.553 30.0077 31.553 29.7642 31.5651C29.399 31.7477 29.0947 31.9911 28.7781 32.2468C28.1573 32.7336 27.5242 33.184 26.8547 33.6222C26.3921 33.9265 25.9295 34.2551 25.4669 34.5716C24.7851 35.0463 24.1034 35.5088 23.4217 35.9592C23.5921 36.4826 23.8599 36.8234 24.213 37.2372C24.9799 38.1258 24.9799 38.1258 25.0164 38.7952C24.9069 39.769 24.4808 40.3167 23.7382 40.9375C23.1538 41.4 22.5695 41.8382 21.973 42.2764C21.3765 42.7146 20.7921 43.1771 20.2078 43.6274C19.526 44.1265 19.0147 44.2117 18.1747 44.1143C17.14 43.7857 16.3852 42.9945 15.74 42.1668C14.1939 42.7146 13.0009 44.1995 12.2096 45.5749C12.2826 45.5749 12.3435 45.5628 12.4165 45.5628C13.1591 45.5263 13.5609 45.6236 14.1574 46.0618C14.5226 46.7921 14.5226 46.7921 14.5226 48.7396C17.9313 48.7396 21.3521 48.7396 24.8703 48.7396C24.9556 48.5814 25.0286 48.4232 25.1138 48.2528C25.3086 48.0458 25.3086 48.0458 25.5277 47.8633C25.6008 47.8024 25.6738 47.7415 25.7469 47.6807C26.3069 47.279 27.0129 47.3399 27.6703 47.4007C28.3399 47.5833 28.766 47.9363 29.1312 48.5205C29.4599 49.1413 29.5938 49.7499 29.4964 50.4437C29.2407 51.2349 28.7903 51.7461 28.0477 52.1478C27.4147 52.4277 26.8669 52.4399 26.2095 52.2695C25.6251 52.0382 25.2112 51.6974 24.8703 51.174C24.8703 51.0888 24.8703 51.0158 24.8703 50.9306C21.4617 50.9306 18.0408 50.9306 14.5226 50.9306C14.5226 52.0991 14.5226 53.2554 14.5226 54.4604C14.1696 55.1664 13.9139 55.6167 13.1835 55.8967C12.1731 56.1401 11.1992 56.0427 10.14 56.0427C10.14 57.4912 10.14 58.9397 10.14 60.4246C10.3348 60.5098 10.5418 60.5829 10.7487 60.6681C11.4913 61.4714 11.6618 61.9826 11.6496 63.0659C11.5644 63.8084 11.2113 64.2344 10.6879 64.7335C9.88438 65.269 9.15395 65.2569 8.20439 65.1716C7.54701 64.8673 7.04788 64.3318 6.73136 63.6623C6.48788 62.9442 6.51223 62.153 6.81658 61.4714C6.99919 61.1306 7.14527 61.0089 7.47396 60.7776C7.81483 60.4855 7.83918 60.4246 7.9244 59.9499C7.9244 59.7673 7.93657 59.5848 7.9244 59.4022C7.9244 59.3048 7.9244 59.2074 7.9244 59.1101C7.9244 58.8058 7.9244 58.5015 7.9244 58.1972C7.9244 57.9902 7.92439 57.7833 7.93657 57.5764C7.93657 57.0652 7.94874 56.554 7.94874 56.0549C7.8757 56.0549 7.81483 56.0549 7.74179 56.0671C7.42527 56.0793 7.10875 56.0793 6.79223 56.0914C6.68267 56.0914 6.5731 56.1036 6.46354 56.1036C5.70876 56.1158 5.16094 55.9941 4.54007 55.5802C4.07747 55.0933 4.04095 54.6308 4.02878 53.9735C4.02878 53.8153 4.02878 53.6571 4.02878 53.4988C4.02878 53.3284 4.02878 53.158 4.02878 52.9876C4.02878 52.8537 4.02878 52.8537 4.02878 52.732C4.02878 52.2816 4.02878 51.8191 4.02878 51.3688C4.02878 50.9062 4.02878 50.4315 4.0166 49.9568C4.0166 49.5917 4.0166 49.2387 4.0166 48.8735C4.0166 48.7031 4.0166 48.5327 4.0166 48.3501C4.0166 48.1067 4.0166 47.8633 4.0166 47.6198C4.0166 47.4129 4.0166 47.4129 4.0166 47.206C4.10182 46.6339 4.38182 46.2566 4.8079 45.8671C5.34355 45.5506 5.89137 45.5871 6.48788 45.5871C6.58528 45.5871 6.67049 45.5871 6.76788 45.5871C7.06006 45.5871 7.35223 45.5871 7.6444 45.5871C7.83918 45.5871 8.03396 45.5871 8.24091 45.5871C8.72787 45.5871 9.20265 45.5871 9.6896 45.5871C9.7383 45.4167 9.7383 45.4167 9.79916 45.2463C10.4322 43.4205 12.2339 41.9112 13.6339 40.6453C13.8287 40.4749 14.0113 40.2924 14.2061 40.1098C14.1574 40.0367 14.0965 39.9637 14.0478 39.8907C13.5974 39.2212 13.3904 38.6978 13.3661 37.8945C13.6583 36.9573 14.5956 36.3243 15.3504 35.7644C15.5452 35.6184 15.74 35.4723 15.9348 35.3262C16.0322 35.2532 16.1295 35.1802 16.2269 35.1071C16.7748 34.6811 17.2982 34.2429 17.8217 33.8048C18.4547 33.2814 19.0391 32.8554 19.9034 32.8919C20.6217 33.0014 21.2912 33.2449 21.766 33.8169C21.8391 33.9265 21.9121 34.036 21.9973 34.1577C23.6043 33.1596 25.1625 32.0885 26.6842 30.9687C27.1834 30.6036 27.6947 30.2506 28.206 29.8976C28.0355 29.5324 27.8408 29.2281 27.5851 28.9117C27.1469 28.3518 27.0129 27.9501 27.1103 27.2198C27.5973 26.1121 28.5468 25.4183 29.4842 24.7002C29.9103 24.3716 30.3242 24.0307 30.726 23.6778C31.4807 23.0327 32.2842 22.3389 33.3312 22.2902C34.232 22.3997 34.7798 22.6432 35.3885 23.3248C35.5468 23.483 35.6929 23.6291 35.8511 23.7873C35.985 23.9212 36.1068 24.0429 36.2407 24.1768C37.1294 23.5317 37.7868 22.6188 38.4685 21.7668C38.5294 21.6938 38.6024 21.6085 38.6633 21.5233C38.7242 21.4503 38.785 21.3773 38.8459 21.2921C38.9311 21.1947 38.9311 21.1947 39.0163 21.0852C39.1746 20.8661 39.2963 20.6348 39.4059 20.3914C39.2476 20.4035 39.0894 20.4035 38.9311 20.4157C38.2372 20.4157 37.5555 20.3305 37.0198 19.8558C36.265 18.8942 36.3624 17.8109 36.3624 16.6181C32.6616 16.6181 28.9729 16.6181 25.1625 16.6181C25.126 16.7763 25.0773 16.9346 25.0408 17.105C24.5782 17.6527 24.1277 18.03 23.3973 18.1152C22.533 18.1517 21.8634 18.0178 21.206 17.4214C20.5608 16.7033 20.4756 15.9608 20.4999 15.0357C20.5973 14.3054 20.9504 13.8672 21.5104 13.4047C22.1921 13.0517 22.8251 12.8813 23.5921 12.9665C24.1764 13.1613 24.5173 13.3925 24.8825 13.8794C25.1747 14.2202 25.3573 14.3663 25.8077 14.4028C26.0025 14.4028 26.1973 14.4028 26.3921 14.4028C26.5016 14.4028 26.6112 14.4028 26.7208 14.4028C27.0738 14.4028 27.4269 14.4028 27.7921 14.4028C28.0355 14.4028 28.2912 14.4028 28.5347 14.4028C29.1799 14.4028 29.8373 14.4028 30.4825 14.4028C31.152 14.4028 31.8094 14.4028 32.479 14.4028C33.7816 14.4028 35.0842 14.4028 36.3868 14.4028C36.3868 14.3054 36.3868 14.2081 36.3746 14.0985C36.3624 13.6481 36.3624 13.1856 36.3624 12.7353C36.3624 12.504 36.3624 12.504 36.3503 12.2606C36.3503 12.1145 36.3503 11.9563 36.3503 11.798C36.3503 11.6641 36.3503 11.5181 36.3381 11.372C36.399 10.7999 36.6546 10.4104 37.105 10.0453C37.6163 9.66795 37.9694 9.63143 38.6024 9.63143C38.712 9.63143 38.8215 9.63143 38.9311 9.63143C39.1381 9.63143 39.1381 9.63143 39.345 9.63143C39.9902 9.63143 39.9902 9.63143 40.6598 9.6436C40.6598 8.07343 40.6598 6.51544 40.6598 4.89658C40.4528 4.81137 40.2581 4.73834 40.0511 4.65314C39.8441 4.45839 39.8441 4.45839 39.6615 4.25147C39.6007 4.17844 39.5398 4.10541 39.4789 4.04455C39.0163 3.36292 38.9676 2.65695 39.0772 1.86578C39.3937 1.06244 39.9659 0.526878 40.7572 0.186066C41.5485 -0.106059 42.4737 -0.0695433 43.2772 0.405159Z" fill="#246BFE"/>
<path d="M32.7348 36.6896C33.3191 37.1278 33.733 37.5173 33.867 38.2598C33.9644 38.6737 34.0617 38.8319 34.4148 39.0632C34.5852 39.1605 34.7435 39.2457 34.9139 39.3309C36.3748 40.1708 38.1521 41.5219 38.773 43.1286C38.8704 43.1286 38.8704 43.1286 38.98 43.1286C39.6739 43.1164 40.38 43.1164 41.0739 43.1042C41.3295 43.1042 41.5973 43.092 41.853 43.092C42.2304 43.0799 42.6078 43.0799 42.973 43.0799C43.0947 43.0799 43.2043 43.0799 43.326 43.0677C44.0199 43.0677 44.4338 43.1407 44.9695 43.6154C45.4199 44.2119 45.5903 44.6257 45.6025 45.3682C45.6025 45.5629 45.6025 45.5629 45.6025 45.7699C45.6025 45.9159 45.6025 46.062 45.6025 46.208C45.6025 46.3541 45.6025 46.5002 45.6025 46.6584C45.6025 46.9749 45.6025 47.2913 45.6025 47.6078C45.6025 48.0825 45.6147 48.5694 45.6147 49.0441C45.6147 49.3484 45.6147 49.6527 45.6147 49.957C45.6147 50.103 45.6147 50.2369 45.6147 50.3952C45.6147 51.2959 45.5295 52.014 44.8964 52.6956C44.5677 52.9878 44.2878 53.146 43.8617 53.2434C43.886 53.3773 43.886 53.3773 43.9104 53.5233C43.9347 53.6451 43.9591 53.7789 43.9834 53.9007C44.0078 54.0224 44.0321 54.1441 44.0564 54.2658C44.1173 54.777 44.1173 55.2761 44.1051 55.7873C44.1904 55.7873 44.2756 55.7873 44.373 55.7751C44.7747 55.763 45.1764 55.763 45.566 55.7508C45.6999 55.7508 45.8338 55.7386 45.9799 55.7386C46.7834 55.7264 47.4773 55.7508 48.1225 56.2742C48.5729 56.8463 48.7434 57.4305 48.7555 58.1486C48.7555 58.3556 48.7555 58.3556 48.7555 58.5625C48.7555 58.7085 48.7555 58.8546 48.7555 59.0128C48.7555 59.1589 48.7555 59.3171 48.7555 59.4754C48.7555 59.7918 48.7555 60.1205 48.7555 60.437C48.7555 60.7656 48.7555 61.0942 48.7677 61.4229C48.7677 61.8976 48.7799 62.3723 48.7799 62.8348C48.7799 62.9809 48.7799 63.1269 48.7799 63.273C48.7799 64.125 48.6947 64.6849 48.2321 65.4031C47.6721 65.9508 47.1242 66.1577 46.3329 66.1699C46.199 66.1699 46.0651 66.1699 45.9312 66.1699C45.7851 66.1699 45.6512 66.1699 45.5051 66.1699C45.359 66.1699 45.213 66.1699 45.0547 66.1699C44.7382 66.1699 44.4338 66.1699 44.1173 66.1699C43.6425 66.1699 43.1678 66.1699 42.693 66.1821C42.3886 66.1821 42.0843 66.1821 41.7799 66.1821C41.573 66.1821 41.573 66.1821 41.3539 66.1821C40.3556 66.1821 39.4304 66.0482 38.6756 65.3544C37.9087 63.9911 38.2495 62.6035 38.2495 61.009C34.3904 61.009 30.5313 61.009 26.5627 61.009C26.4775 61.1673 26.4044 61.3255 26.3192 61.4959C25.5401 62.2262 24.9314 62.4088 23.8844 62.3966C23.154 62.2992 22.6549 61.9219 22.1801 61.362C21.8271 60.8021 21.7662 60.2057 21.8027 59.5484C22.0097 58.6599 22.5453 58.1243 23.2636 57.6009C23.8601 57.2966 24.7609 57.3818 25.394 57.5644C25.9053 57.8078 26.2462 58.0878 26.5505 58.5747C26.5505 58.6599 26.5505 58.7329 26.5505 58.8181C30.4096 58.8181 34.2687 58.8181 38.2374 58.8181C38.2374 58.2947 38.2374 57.7713 38.2374 57.2357C38.42 56.5906 38.6513 56.2498 39.2113 55.8968C39.5521 55.7873 39.8687 55.763 40.2217 55.763C40.3191 55.763 40.4165 55.763 40.5139 55.763C40.6113 55.763 40.7086 55.763 40.8182 55.763C40.9156 55.763 41.0252 55.763 41.1226 55.763C41.3782 55.763 41.6217 55.763 41.8773 55.763C41.8408 55.4708 41.8043 55.1787 41.7678 54.8988C41.7556 54.8135 41.7434 54.7405 41.7312 54.6553C41.6704 54.1684 41.5973 53.6937 41.5121 53.2069C41.3295 53.2069 41.3295 53.2069 41.1469 53.2069C40.6965 53.2069 40.246 53.219 39.8078 53.219C39.613 53.219 39.4182 53.219 39.2234 53.2312C36.8374 53.2677 36.8374 53.2677 36.0217 52.6348C35.9365 52.5252 35.9365 52.5252 35.8635 52.4279C35.8026 52.3548 35.7539 52.294 35.693 52.2209C35.3887 51.7341 35.2791 51.3081 35.267 50.736C35.267 50.6143 35.267 50.4804 35.267 50.3586C35.267 50.2248 35.267 50.0909 35.267 49.9448C35.267 49.7987 35.267 49.6649 35.267 49.5188C35.267 49.2267 35.267 48.9224 35.267 48.6302C35.267 48.1799 35.2669 47.7295 35.2548 47.2792C35.2548 46.987 35.2548 46.7071 35.2548 46.415C35.2548 46.2811 35.2548 46.1472 35.2548 46.0011C35.2548 45.2708 35.3035 44.7352 35.6687 44.0901C35.7661 44.0049 35.8513 43.9076 35.9365 43.8224C36.0096 43.7493 36.0826 43.6763 36.1556 43.6033C36.0826 42.9338 35.5469 42.5443 35.06 42.1426C34.4635 41.7166 33.8548 41.315 33.2339 40.9255C33.1731 40.962 33.1122 40.9985 33.0391 41.035C32.2357 41.461 31.5296 41.5949 30.6409 41.3393C30.02 41.0715 29.6426 40.682 29.3383 40.0856C29.0583 39.3309 28.9487 38.6371 29.2896 37.8825C30.0566 36.5679 31.3348 36.2515 32.7348 36.6896Z" fill="#3C3BFE"/>
<path d="M3.60299 0.101187C3.76125 0.101187 3.93168 0.101187 4.08994 0.101187C4.43081 0.101187 4.77167 0.101187 5.11254 0.101187C5.5508 0.101187 5.97688 0.101187 6.41514 0.101187C6.756 0.101187 7.0847 0.101187 7.42557 0.101187C7.65687 0.101187 7.90034 0.101187 8.13165 0.101187C8.27773 0.101187 8.42382 0.101187 8.5699 0.101187C8.69164 0.101187 8.82556 0.101187 8.95947 0.101187C9.67772 0.198562 10.189 0.551547 10.6395 1.09928C10.9195 1.59833 10.8951 2.13389 10.8951 2.69379C10.8951 2.81551 10.8951 2.92506 10.9073 3.04678C10.9073 3.3389 10.9194 3.63103 10.9194 3.91098C12.1247 3.9475 13.342 3.97184 14.5472 4.00836C15.1072 4.02053 15.6672 4.0327 16.2272 4.04487C16.7751 4.05704 17.3107 4.06922 17.8585 4.08139C18.0655 4.08139 18.2724 4.09356 18.4794 4.09356C19.575 4.17876 19.575 4.17876 20.5733 3.83795C20.7681 3.61886 20.7681 3.61886 20.902 3.37542C21.1333 2.98592 21.462 2.91289 21.8759 2.80334C22.6307 2.71814 23.3124 2.70597 23.9454 3.1685C24.5541 3.75275 24.9193 4.28831 24.968 5.14034C24.9437 5.84631 24.7367 6.47924 24.262 7.00264C23.6167 7.57471 23.0324 7.72077 22.1924 7.69643C21.6933 7.63557 21.3037 7.47734 20.902 7.17304C20.8168 7.05132 20.7316 6.9296 20.6463 6.79571C20.3785 6.46707 20.3055 6.44273 19.855 6.34535C19.6846 6.34535 19.5142 6.34535 19.3437 6.34535C19.2463 6.34535 19.1611 6.34535 19.0637 6.34535C18.7594 6.34535 18.4429 6.34535 18.1385 6.34535C17.9194 6.34535 17.7124 6.34535 17.4933 6.34535C16.9333 6.34535 16.3611 6.34535 15.8012 6.34535C15.229 6.34535 14.6446 6.34535 14.0725 6.33318C12.9403 6.32101 11.8081 6.32101 10.6881 6.32101C10.6881 6.43056 10.6881 6.43056 10.7003 6.5401C10.7125 6.86874 10.7125 7.20956 10.7247 7.5382C10.7247 7.64774 10.7368 7.76946 10.7368 7.87901C10.749 8.85276 10.5542 9.4857 9.8725 10.1917C9.00816 10.7516 8.156 10.7272 7.16992 10.6907C7.20644 10.8489 7.23078 11.0193 7.2673 11.1776C7.27948 11.2628 7.30383 11.3602 7.32817 11.4454C7.40122 11.7375 7.49861 12.0053 7.60817 12.2852C7.65687 12.4191 7.65687 12.4191 7.70556 12.553C7.74208 12.6504 7.74208 12.6504 7.77861 12.7599C7.88817 12.7599 7.88817 12.7599 7.99773 12.7599C8.77686 12.7721 9.54381 12.7721 10.3229 12.7843C10.6151 12.7843 10.8951 12.7964 11.1873 12.7964C11.6012 12.7964 12.0151 12.8086 12.429 12.8086C12.5507 12.8086 12.6847 12.8086 12.8186 12.8086C13.5977 12.8208 14.4133 12.8573 15.022 13.405C15.4846 13.9284 15.582 14.3423 15.582 15.0117C15.582 15.2186 15.582 15.2186 15.582 15.4377C15.582 15.5838 15.582 15.742 15.582 15.9003C15.582 16.0585 15.582 16.2167 15.582 16.375C15.582 16.7036 15.582 17.0444 15.582 17.3731C15.582 17.7991 15.582 18.2251 15.5942 18.6511C15.5942 19.0528 15.5942 19.4666 15.6064 19.8683C15.6064 20.0144 15.6064 20.1726 15.6064 20.3308C15.6064 21.6576 15.6064 21.6576 15.0585 22.2296C14.7907 22.4 14.7907 22.4 14.5716 22.4731C15.2655 23.5077 16.2151 24.5179 17.3716 25.0292C17.8098 25.0413 17.9924 24.8953 18.3698 24.6518C18.9177 24.3232 19.4289 24.3232 20.0498 24.4206C20.7315 24.6153 21.1333 24.9683 21.5228 25.5526C21.815 26.0881 21.815 26.6237 21.7541 27.2201C21.4985 28.0113 21.1211 28.5955 20.4029 29.0337C19.6846 29.3015 18.9055 29.265 18.1872 29.0459C17.6881 28.6807 17.262 28.1695 17.0429 27.5853C16.8116 27.2079 16.4464 27.0619 16.069 26.8549C14.8151 26.1368 12.4899 24.6518 12.0638 23.1912C12.0516 23.1182 12.0273 23.0452 12.0151 22.9599C11.8203 22.9599 11.8203 22.9599 11.6255 22.9599C11.1508 22.9721 10.676 22.9721 10.2012 22.9721C9.99424 22.9721 9.78729 22.9721 9.5925 22.9843C6.93861 23.0208 6.93861 23.0208 6.04992 22.2905C5.64819 21.7793 5.53862 21.4506 5.53862 20.7934C5.53862 20.5864 5.53862 20.5864 5.53862 20.3673C5.53862 20.2213 5.53862 20.063 5.53862 19.9048C5.53862 19.7466 5.53862 19.5883 5.53862 19.4301C5.53862 19.1015 5.53862 18.7607 5.53862 18.432C5.53862 18.006 5.53862 17.58 5.53862 17.154C5.53862 16.7523 5.53862 16.3385 5.53862 15.9368C5.53862 15.7907 5.53862 15.6325 5.53862 15.4743C5.53862 15.3282 5.53862 15.1943 5.53862 15.0482C5.53862 14.8657 5.53862 14.8657 5.53862 14.6709C5.5508 14.3179 5.5508 14.3179 5.62384 13.9163C5.68471 13.5389 5.66036 13.4416 5.45341 13.1373C5.02732 12.3704 4.94211 11.5306 4.94211 10.6664C4.85689 10.6664 4.77167 10.6664 4.68646 10.6664C4.30907 10.6785 3.91951 10.6785 3.54212 10.6785C3.40821 10.6785 3.27429 10.6907 3.14038 10.6907C2.19082 10.7029 1.47257 10.6298 0.705618 10.0213C-0.0248111 9.08402 0.0238849 8.14679 0.0482326 7.01481C0.0482326 6.85657 0.0482326 6.68617 0.0482326 6.52793C0.0482326 6.18712 0.0604053 5.84631 0.0604053 5.5055C0.0725791 5.06731 0.0725798 4.62912 0.0725798 4.20311C0.0725798 3.86229 0.0847544 3.53365 0.0847544 3.19284C0.0847544 2.9494 0.0847533 2.71814 0.0969271 2.4747C0.109101 1.87828 0.133449 1.40358 0.352578 0.843672C1.27779 0.076844 2.39778 0.0890156 3.60299 0.101187Z" fill="#0AA8FE"/>
<path d="M38.6514 11.9688C40.66 11.9688 42.6687 11.9688 44.7383 11.9688C44.7383 13.9771 44.7383 15.9855 44.7383 18.0547C42.7296 18.0547 40.7209 18.0547 38.6514 18.0547C38.6514 16.0463 38.6514 14.038 38.6514 11.9688Z" fill="#F8FDFF"/>
<path d="M6.26904 47.7539C8.2412 47.7539 10.2012 47.7539 12.2342 47.7539C12.2342 49.6771 12.2342 51.6124 12.2342 53.5964C10.2621 53.5964 8.30207 53.5964 6.26904 53.5964C6.26904 51.6732 6.26904 49.7379 6.26904 47.7539Z" fill="#F8FEFF"/>
<path d="M40.5991 58.1001C42.5713 58.1001 44.5313 58.1001 46.5643 58.1001C46.5643 59.0373 46.5643 59.9867 46.5765 60.9483C46.5765 61.2404 46.5765 61.5447 46.5765 61.849C46.5765 62.0803 46.5765 62.3237 46.5765 62.555C46.5765 62.6767 46.5765 62.7984 46.5765 62.9323C46.5765 63.1027 46.5765 63.1027 46.5765 63.2853C46.5765 63.3827 46.5765 63.4922 46.5765 63.5896C46.5643 63.8209 46.5643 63.8209 46.4426 63.9426C46.2599 63.9548 46.0773 63.9548 45.8947 63.9548C45.773 63.9548 45.6634 63.9548 45.5417 63.9548C45.42 63.9548 45.286 63.9548 45.1643 63.9548C44.9939 63.9548 44.9939 63.9548 44.8113 63.9548C44.3852 63.9548 43.9469 63.9548 43.5208 63.9548C42.5591 63.9548 41.5974 63.9548 40.6113 63.9426C40.5991 62.0194 40.5991 60.0841 40.5991 58.1001Z" fill="#F8FEFF"/>
<path d="M37.6772 45.4414C39.5642 45.4414 41.4511 45.4414 43.3989 45.4414C43.3989 47.255 43.3989 49.0564 43.3989 50.9187C41.512 50.9187 39.6251 50.9187 37.6772 50.9187C37.6772 49.1051 37.6772 47.3037 37.6772 45.4414Z" fill="#F7FCFF"/>
<path d="M7.72998 15.377C9.53171 15.377 11.3456 15.377 13.2082 15.377C13.2082 17.1419 13.2082 18.9068 13.2082 20.7326C11.3943 20.7326 9.59257 20.7326 7.72998 20.7326C7.72998 18.9677 7.72998 17.2027 7.72998 15.377Z" fill="#F7FEFF"/>
<path d="M33.173 24.5059C33.5625 24.6763 33.8304 24.8832 34.1347 25.1875C34.2199 25.2727 34.3173 25.3579 34.4025 25.4553C34.4999 25.5526 34.5851 25.6378 34.6825 25.7352C34.7678 25.8204 34.8651 25.9178 34.9504 26.003C35.2182 26.2708 35.4738 26.5386 35.7417 26.8063C35.8269 26.8915 35.9121 26.9889 35.9973 27.0741C36.0704 27.1593 36.1556 27.2445 36.2408 27.3297C36.3138 27.4028 36.3869 27.4758 36.4599 27.561C36.5938 27.7801 36.5938 27.7801 36.5695 28.0479C36.4477 28.3278 36.326 28.4495 36.0825 28.6443C35.9973 28.7173 35.9121 28.7904 35.8147 28.8634C35.7051 28.9486 35.5956 29.046 35.4982 29.1312C35.2791 29.3137 35.0721 29.4963 34.853 29.6789C34.2565 30.1901 33.6599 30.7013 33.0634 31.2004C32.1869 30.8231 31.5782 29.971 30.9817 29.2651C30.6287 28.8756 30.2391 28.5347 29.8495 28.1818C29.6547 27.914 29.6548 27.914 29.6426 27.6097C29.8008 27.2202 29.9956 27.0741 30.3243 26.8185C30.4461 26.7211 30.5678 26.6359 30.6895 26.5386C30.7504 26.4899 30.8234 26.4412 30.8965 26.3803C31.3226 26.0517 31.7486 25.6987 32.1626 25.3579C32.2478 25.2849 32.333 25.224 32.4304 25.1388C32.5156 25.0779 32.5886 25.0049 32.6739 24.944C32.7469 24.8832 32.8199 24.8223 32.893 24.7615C33.0512 24.6398 33.0512 24.6397 33.173 24.5059Z" fill="#F7FDFF"/>
<path d="M19.6602 35.2168C20.1958 35.728 20.6584 36.2757 21.121 36.8478C21.2671 37.0304 21.4132 37.213 21.5593 37.3834C21.6323 37.4686 21.6932 37.5538 21.7662 37.639C21.888 37.7972 22.0219 37.9433 22.1558 38.0894C22.3262 38.2841 22.3262 38.2841 22.5697 38.6127C22.5454 38.917 22.4967 39.0509 22.2775 39.27C22.2045 39.3187 22.1315 39.3674 22.0584 39.4283C21.9367 39.5135 21.9367 39.5135 21.8149 39.5987C21.6932 39.696 21.6932 39.696 21.5593 39.7812C21.3767 39.9151 21.2062 40.0369 21.0236 40.1707C20.9384 40.2316 20.841 40.3046 20.7558 40.3655C20.5123 40.5481 20.2689 40.7307 20.0254 40.9254C19.9523 40.9863 19.8793 41.0349 19.8063 41.0958C19.6115 41.254 19.4167 41.4001 19.2219 41.5583C18.8932 41.7774 18.8932 41.7774 18.4063 41.7774C18.175 41.534 17.9802 41.3027 17.7854 41.0349C17.6637 40.8767 17.5541 40.7185 17.4324 40.5724C17.3715 40.4872 17.3106 40.4142 17.2498 40.329C16.9454 39.9151 16.6289 39.5256 16.3124 39.124C16.2028 38.9779 16.0811 38.8318 15.9715 38.6979C15.8863 38.5884 15.8132 38.491 15.728 38.3815C16.0811 37.9068 16.4463 37.566 16.9211 37.213C16.9941 37.1643 17.055 37.1156 17.128 37.0547C17.9924 36.434 18.8202 35.8254 19.6602 35.2168Z" fill="#F7FDFF"/>
<path d="M16.9818 34.4863C17.1035 34.5472 17.1035 34.5472 17.2252 34.608C16.7383 35.1558 16.1661 35.5574 15.5696 35.9713C15.2652 36.1782 15.2652 36.1782 15.0339 36.4338C14.9122 36.519 14.8026 36.6164 14.6809 36.7016C14.1939 37.1033 13.8896 37.5293 13.707 38.1379C13.6948 38.5639 13.7679 38.8439 13.9383 39.2334C14.0235 39.2699 14.0966 39.3186 14.1818 39.3551C14.267 39.5498 14.3522 39.7567 14.4252 39.9637C14.4618 40.0489 14.5105 40.1219 14.547 40.2071C14.1696 40.5844 13.7922 40.9496 13.3905 41.3147C11.8566 42.6902 11.8566 42.6902 10.6514 44.3455C10.5905 44.4551 10.5175 44.5525 10.4566 44.662C10.274 44.942 10.274 44.942 10.2375 45.2219C10.1644 45.4532 10.1644 45.4532 9.92094 45.6601C9.30007 45.9279 8.60616 46.0374 7.96095 45.8183C7.7053 45.8427 7.46182 45.8792 7.20617 45.9035C6.52444 45.9644 5.84271 45.94 5.16097 45.94C5.16097 46.0618 5.16097 46.1835 5.16097 46.3052C5.08793 46.3052 5.01489 46.3052 4.94184 46.3174C4.5888 46.4634 4.51576 46.6582 4.38185 46.999C4.22359 47.6076 4.26011 48.2284 4.27228 48.8491C4.27228 48.9952 4.27228 49.1534 4.27228 49.3117C4.27228 49.7133 4.27228 50.115 4.28446 50.5045C4.28446 50.9062 4.28446 51.3078 4.28446 51.7217C4.28446 52.026 4.28446 52.3424 4.28446 52.6467C4.28446 52.7928 4.28446 52.9389 4.28446 53.0849C4.28446 53.7544 4.3088 54.3995 4.43054 55.0689C4.51576 55.0689 4.5888 55.0689 4.67402 55.0689C4.67402 55.1907 4.67402 55.3124 4.67402 55.4341C4.9175 55.4341 5.16097 55.4341 5.40445 55.4341C5.40445 55.5193 5.40445 55.5923 5.40445 55.6775C5.47749 55.6775 5.53836 55.6775 5.6114 55.6775C5.91575 55.6775 6.23227 55.6775 6.53661 55.6775C6.64618 55.6775 6.75574 55.6775 6.86531 55.6775C7.02357 55.6775 7.02357 55.6775 7.18183 55.6775C7.27922 55.6775 7.37661 55.6775 7.474 55.6775C7.72965 55.6897 7.72965 55.6897 8.09486 55.8114C8.28964 56.2009 8.2653 56.6269 8.28964 57.053C8.28964 57.1503 8.30182 57.2477 8.30182 57.3451C8.35051 58.258 8.35051 59.1587 8.33834 60.0716C8.33834 60.1933 8.33834 60.315 8.33834 60.4367C8.10704 60.6924 7.90008 60.8993 7.59574 61.0697C7.26704 61.374 7.20617 61.6904 7.08443 62.1165C6.99922 62.3842 6.88966 62.6277 6.75574 62.8711C6.84096 62.9076 6.914 62.9563 6.99922 62.9928C6.99922 63.2363 6.99922 63.4797 6.99922 63.7231C7.08444 63.7231 7.15748 63.7231 7.2427 63.7231C7.2427 63.7962 7.25487 63.857 7.25487 63.9301C7.4253 64.3682 7.71747 64.5508 8.09486 64.8186C8.42356 64.8551 8.42356 64.8551 8.70355 64.8186C8.74008 64.8551 8.78877 64.9038 8.82529 64.9403C9.10529 64.989 9.39746 65.0255 9.67746 65.0621C9.67746 65.0986 9.67746 65.1473 9.67746 65.1838C8.37486 65.2568 8.37486 65.2568 7.80269 64.989C7.194 64.4291 6.70705 63.8935 6.59748 63.0415C6.58531 62.2869 6.64618 61.6539 7.12096 61.0453C7.2427 60.9601 7.36443 60.8749 7.48617 60.7897C7.82704 60.4976 7.85138 60.4367 7.9366 59.962C7.9366 59.7795 7.94878 59.5969 7.9366 59.4143C7.9366 59.3169 7.9366 59.2196 7.9366 59.1222C7.9366 58.8179 7.9366 58.5136 7.9366 58.2093C7.9366 58.0024 7.9366 57.7954 7.94878 57.5885C7.94878 57.0773 7.96095 56.5661 7.96095 56.067C7.88791 56.067 7.82704 56.067 7.75399 56.0792C7.43747 56.0914 7.12096 56.0914 6.80444 56.1036C6.69487 56.1036 6.58531 56.1157 6.47574 56.1157C5.72097 56.1279 5.17315 56.0062 4.55228 55.5923C4.08968 55.1055 4.05315 54.6429 4.04098 53.9857C4.04098 53.8274 4.04098 53.6692 4.04098 53.511C4.04098 53.3405 4.04098 53.1701 4.04098 52.9997C4.04098 52.9145 4.04098 52.8293 4.04098 52.7441C4.04098 52.2938 4.04098 51.8312 4.04098 51.3809C4.04098 50.9062 4.04098 50.4436 4.02881 49.9689C4.02881 49.6038 4.02881 49.2508 4.02881 48.8856C4.02881 48.7152 4.02881 48.5448 4.02881 48.3623C4.02881 48.1188 4.02881 47.8754 4.02881 47.6319C4.02881 47.425 4.02881 47.425 4.02881 47.2181C4.11403 46.646 4.39402 46.2687 4.82011 45.8792C5.35575 45.5627 5.90358 45.5992 6.50009 45.5992C6.59748 45.5992 6.6827 45.5992 6.78009 45.5992C7.07226 45.5992 7.36443 45.5992 7.65661 45.5992C7.85139 45.5992 8.04617 45.5992 8.25312 45.5992C8.74007 45.5992 9.21485 45.5992 9.7018 45.5992C9.73833 45.4897 9.77485 45.368 9.81137 45.2584C10.4444 43.4326 12.2461 41.9233 13.6461 40.6575C13.8409 40.4871 14.0235 40.3045 14.2183 40.1219C14.1696 40.0489 14.1087 39.9758 14.06 39.9028C13.6096 39.2334 13.4026 38.71 13.3783 37.9066C13.6826 36.9329 14.6687 36.2878 15.46 35.7035C15.5574 35.6305 15.6548 35.5574 15.7522 35.4844C16.1296 35.1193 16.5557 34.8028 16.9818 34.4863Z" fill="#0695FE"/>
<path d="M41.7069 0.00350249C42.3887 0.0278462 42.973 0.137393 43.4843 0.599924C44.1173 1.30589 44.3 1.92666 44.2878 2.86389C44.2026 3.5942 43.9347 4.19062 43.3869 4.6775C43.0339 4.90876 43.0339 4.90876 42.7904 4.90876C42.7904 6.47893 42.7904 8.03693 42.7904 9.65579C43.6304 9.64362 43.6304 9.64362 44.4704 9.61928C45.2617 9.6071 45.9069 9.65579 46.5278 10.2035C46.9538 10.7878 47.0634 11.0434 47.0634 11.7615C47.0634 11.8832 47.0634 11.8832 47.0634 12.005C47.0634 12.2727 47.0634 12.5283 47.0634 12.784C47.0634 12.9665 47.0634 13.1491 47.0634 13.3317C47.0634 13.709 47.0634 14.0985 47.0634 14.4758C47.0634 14.9627 47.0634 15.4496 47.0634 15.9365C47.0634 16.3138 47.0634 16.6911 47.0634 17.0563C47.0634 17.2389 47.0634 17.4214 47.0634 17.5918C47.0634 17.8475 47.0634 18.0909 47.0634 18.3465C47.0634 18.5656 47.0634 18.5656 47.0634 18.7847C47.0147 19.1377 47.0147 19.1377 46.8321 19.3689C46.7469 19.4298 46.7469 19.4298 46.6495 19.5028C46.6738 19.4176 46.686 19.3324 46.7104 19.2472C46.7712 18.8699 46.7834 18.5291 46.7834 18.1518C46.7834 17.9327 46.7834 17.9327 46.7834 17.7136C46.7834 17.5553 46.7834 17.3971 46.7834 17.2389C46.7834 17.0685 46.7834 16.9102 46.7834 16.7398C46.7834 16.399 46.7834 16.0582 46.7834 15.7052C46.7834 15.267 46.7834 14.8288 46.7834 14.3906C46.7834 14.0498 46.7834 13.709 46.7834 13.3804C46.7834 13.1369 46.7834 12.8935 46.7834 12.6622C46.7834 12.5162 46.7834 12.3701 46.7834 12.2119C46.7834 12.078 46.7834 11.9563 46.7834 11.8224C46.7712 11.4816 46.7347 11.1894 46.6495 10.8608C46.5278 10.7999 46.5278 10.7999 46.406 10.7391C46.4425 10.6539 46.4912 10.5809 46.5278 10.4957C46.0652 10.2279 45.5782 10.1305 45.0669 10.0088C45.0669 9.92357 45.0669 9.85054 45.0669 9.76534C44.9939 9.76534 44.9208 9.76534 44.8478 9.76534C44.5191 9.76534 44.1904 9.76534 43.8617 9.77751C43.74 9.77751 43.6304 9.77751 43.5087 9.77751C43.3504 9.77751 43.3504 9.77751 43.18 9.77751C43.0339 9.77751 43.0339 9.77751 42.8756 9.77751C42.6443 9.76534 42.6443 9.76534 42.5226 9.64362C42.4982 9.3515 42.486 9.07154 42.4739 8.77942C42.4739 8.69421 42.4617 8.60901 42.4617 8.51164C42.4617 8.32906 42.4495 8.14648 42.4495 7.95173C42.4374 7.67178 42.4252 7.39182 42.4252 7.11187C42.4252 6.92929 42.413 6.75889 42.413 6.57631C42.413 6.49111 42.413 6.4059 42.4008 6.3207C42.3887 5.74862 42.4617 5.29826 42.6565 4.7627C42.8878 4.62881 42.8878 4.62881 43.1434 4.51926C43.3382 4.25148 43.3382 4.25148 43.5087 3.91067C43.5573 3.83764 43.5939 3.76461 43.6426 3.67941C43.9713 3.09516 44.0321 2.75434 43.8739 2.08489C43.8373 1.80494 43.7886 1.51281 43.7521 1.23286C43.6669 1.23286 43.5939 1.23286 43.5087 1.23286C43.4843 1.15983 43.4478 1.0868 43.4234 1.0016C43.2165 0.660783 43.0217 0.624268 42.6565 0.502549C42.5713 0.466034 42.4982 0.417346 42.413 0.380831C42.1695 0.356487 41.9139 0.332143 41.6704 0.307799C41.4756 0.295627 41.4756 0.295627 41.2687 0.283455C41.1713 0.271283 41.0617 0.271284 40.9521 0.259112C41.2443 -0.00866909 41.3174 0.00350249 41.7069 0.00350249Z" fill="#2320FE"/>
<path d="M6.26909 47.3887C6.30561 47.4739 6.35431 47.5469 6.39083 47.6321C6.46387 47.6078 6.53691 47.5956 6.60996 47.5712C7.04821 47.4739 7.49865 47.486 7.94908 47.4982C8.05864 47.4982 8.15603 47.4982 8.2656 47.4982C9.15429 47.5104 10.0308 47.5226 10.9195 47.5469C11.1143 47.5469 11.1143 47.5469 11.3091 47.5591C11.4917 47.5591 11.4917 47.5591 11.6743 47.5712C11.7838 47.5712 11.8812 47.5834 11.9908 47.5834C12.2464 47.6321 12.2464 47.6321 12.4899 47.9973C12.6969 49.0075 12.5873 50.03 12.4899 51.0402C12.5751 51.0767 12.6482 51.1254 12.7334 51.1619C12.6969 51.2837 12.6482 51.4054 12.6117 51.5271C12.5873 51.9653 12.563 52.4035 12.563 52.8417C12.5386 53.5355 12.5386 53.5355 12.3438 53.8032C12.0882 53.998 11.9543 53.998 11.6377 53.998C11.5404 53.998 11.443 53.998 11.3334 53.998C11.2238 53.998 11.1143 53.998 11.0047 53.998C10.8343 53.998 10.8343 53.998 10.6638 53.998C10.4325 53.998 10.1891 53.998 9.95776 53.998C9.60472 53.998 9.2395 53.998 8.88646 53.998C8.65516 53.998 8.42386 53.998 8.20473 53.998C8.04647 53.998 8.04647 53.998 7.88821 53.998C7.26734 53.998 6.74387 53.9371 6.1717 53.718C6.02561 53.4381 6.03779 53.2677 6.03779 52.9634C6.03779 52.8538 6.03779 52.7443 6.03779 52.6469C6.03779 52.5252 6.03779 52.4156 6.03779 52.2939C6.03779 52.1722 6.03779 52.0627 6.03779 51.9409C6.04996 50.6629 6.09866 49.397 6.1717 48.1312C6.08648 48.0946 6.01344 48.0459 5.92822 48.0094C6.01344 48.0094 6.08648 48.0094 6.1717 48.0094C6.18387 47.8025 6.2204 47.5956 6.26909 47.3887ZM6.26909 47.7538C6.26909 49.677 6.26909 51.6123 6.26909 53.5963C8.24125 53.5963 10.2012 53.5963 12.2343 53.5963C12.2343 51.6732 12.2343 49.7378 12.2343 47.7538C10.2621 47.7538 8.28995 47.7538 6.26909 47.7538Z" fill="#1092FE"/>
<path d="M39.6863 11.5789C39.8202 11.5789 39.8202 11.5789 39.9541 11.5789C40.1489 11.5789 40.3315 11.5789 40.5262 11.5789C40.8184 11.5789 41.0984 11.5789 41.3906 11.5789C44.3367 11.5911 44.3367 11.5911 44.848 11.8467C44.9819 12.5648 45.0306 13.3195 44.848 14.0376C44.9332 14.0741 45.0062 14.1228 45.0914 14.1593C45.1036 14.6949 45.1036 15.2305 45.1036 15.7539C45.1036 15.9364 45.1036 16.119 45.1036 16.3016C45.1036 16.5572 45.1036 16.825 45.1036 17.0806C45.1036 17.3119 45.1036 17.3119 45.1036 17.5553C45.0793 17.9326 45.0793 17.9326 44.8358 18.1761C44.4827 18.2126 44.4827 18.2126 44.0323 18.2247C43.9106 18.2247 43.9106 18.2247 43.7888 18.2369C43.5332 18.2369 43.2775 18.2491 43.0097 18.2491C42.6688 18.2613 42.3402 18.2613 41.9993 18.2734C41.9141 18.2734 41.841 18.2734 41.7558 18.2856C41.1715 18.2978 40.5871 18.3465 40.0028 18.4073C39.528 18.4438 39.0897 18.383 38.6271 18.3099C38.4324 18.1152 38.4811 17.8718 38.4689 17.604C38.4689 17.4823 38.4567 17.3484 38.4567 17.2266C38.4567 17.0928 38.4445 16.9589 38.4445 16.8128C38.4445 16.6667 38.4324 16.5329 38.4324 16.3868C38.4202 16.0947 38.4202 15.7904 38.408 15.4982C38.3958 15.0479 38.3837 14.5854 38.3715 14.135C38.3715 13.8429 38.3593 13.5629 38.3593 13.2708C38.3471 13.0639 38.3471 13.0639 38.3471 12.8569C38.3471 12.7352 38.3471 12.6013 38.3471 12.4796C38.3471 12.3701 38.3471 12.2605 38.335 12.1388C38.3471 12.0536 38.3593 11.9562 38.3715 11.871C38.8463 11.5546 39.175 11.5667 39.6863 11.5789ZM38.6515 11.9684C38.6515 13.9768 38.6515 15.9851 38.6515 18.0543C40.6602 18.0543 42.6688 18.0543 44.7384 18.0543C44.7384 16.046 44.7384 14.0376 44.7384 11.9684C42.7297 11.9684 40.721 11.9684 38.6515 11.9684Z" fill="#1A16FE"/>
<path d="M12.1123 23.1665C12.1488 23.2517 12.1975 23.3247 12.234 23.4099C12.3193 23.4099 12.3923 23.4099 12.4775 23.4099C12.5384 23.483 12.5993 23.5682 12.648 23.6412C12.8306 23.9212 12.8306 23.9212 13.2079 24.0185C13.2201 24.0916 13.2445 24.1646 13.2688 24.2376C13.354 24.5906 13.5123 24.7002 13.7923 24.9314C13.9262 25.041 13.9262 25.041 14.0601 25.1505C14.1453 25.2235 14.2184 25.2844 14.3036 25.3574C14.4132 25.4548 14.5105 25.54 14.6201 25.6374C14.9488 25.8687 15.2531 25.9782 15.6427 26.0878C15.6427 26.2095 15.6427 26.3312 15.6427 26.4529C15.801 26.4894 15.9592 26.5381 16.1297 26.5746C16.1297 26.6598 16.1297 26.7329 16.1297 26.8181C16.2636 26.8059 16.2636 26.8059 16.3975 26.7937C16.7384 26.8181 16.7384 26.8181 17.0184 27.0372C17.2253 27.3049 17.2253 27.3049 17.2253 27.7918C17.347 27.8527 17.347 27.8527 17.4688 27.9135C17.7488 28.157 17.834 28.2787 17.9557 28.6438C18.4792 28.9968 18.8566 29.0455 19.4775 28.936C19.6235 28.8995 19.7696 28.8508 19.9279 28.8142C20.074 28.7777 20.2201 28.7412 20.3783 28.6925C20.8166 28.4978 20.9261 28.3517 21.1209 27.9135C21.1575 27.7918 21.2061 27.6701 21.2427 27.5484C21.3279 27.5484 21.4009 27.5484 21.4861 27.5484C21.4496 26.4164 21.4496 26.4164 21.1209 25.3574C20.8166 25.2114 20.8166 25.2114 20.5122 25.114C20.4514 24.9314 20.4514 24.9314 20.3905 24.7488C20.9505 24.8949 21.1696 25.1749 21.4861 25.6252C21.7905 26.1608 21.7905 26.6963 21.7296 27.3049C21.474 28.0961 21.0966 28.6804 20.3783 29.1185C19.6601 29.3742 18.8809 29.3498 18.1627 29.1307C17.6636 28.7656 17.2375 28.2543 17.0184 27.6701C16.787 27.2928 16.4218 27.1467 16.0444 26.9398C14.5592 26.0878 13.1471 24.9071 12.1245 23.5317C12.1123 23.4099 12.1123 23.2882 12.1123 23.1665Z" fill="#0F8EFE"/>
<path d="M23.5923 2.97371C24.1767 3.39972 24.7245 3.94746 24.8949 4.6656C24.9923 5.48111 24.8462 6.15057 24.408 6.85653C23.9697 7.35558 23.4584 7.65988 22.7889 7.73291C22.0463 7.76942 21.4741 7.67205 20.8776 7.22169C20.5732 6.91739 20.2932 6.58875 20.0254 6.24794C20.1106 6.21143 20.1837 6.16274 20.2689 6.12622C20.3663 6.2236 20.4515 6.32097 20.5489 6.41835C20.8411 6.71047 21.1089 6.91739 21.4863 7.09997C21.4863 7.18517 21.4863 7.25821 21.4863 7.34341C21.6202 7.34341 21.7541 7.34341 21.888 7.33124C22.3384 7.34341 22.3384 7.34341 22.7037 7.46513C23.0932 7.3921 23.4463 7.28255 23.7993 7.09997C24.0063 6.79567 24.0063 6.79567 24.0428 6.49138C24.128 6.49138 24.201 6.49138 24.2863 6.49138C24.3228 6.33314 24.3715 6.17491 24.408 6.0045C24.4932 6.0045 24.5662 6.0045 24.6515 6.0045C24.5906 5.10379 24.5906 5.10379 24.5297 4.17872C24.3715 4.14221 24.2132 4.09352 24.0428 4.05701C24.0184 3.95963 23.9819 3.86226 23.9454 3.76488C23.7628 3.39972 23.7019 3.36321 23.3245 3.21715C22.801 3.04674 22.448 3.08326 21.9611 3.32669C21.815 3.33887 21.6811 3.35104 21.535 3.36321C21.3889 3.38755 21.255 3.4119 21.1089 3.44841C20.9506 3.66751 20.9506 3.66751 20.8654 3.93529C20.6341 4.1909 20.4637 4.28827 20.1228 4.32479C19.8063 4.32479 19.5019 4.32479 19.1976 4.31261C19.088 4.31261 18.9785 4.31261 18.8689 4.31261C18.6011 4.31261 18.3333 4.30044 18.0654 4.30044C18.0654 4.26393 18.0654 4.21524 18.0654 4.17872C18.2846 4.17872 18.2846 4.17872 18.5159 4.17872C19.575 4.21524 19.575 4.21524 20.5367 3.87443C20.7071 3.65533 20.7071 3.65533 20.8532 3.4119C21.4011 2.59638 22.7767 2.70593 23.5923 2.97371Z" fill="#0F71FE"/>
<path d="M15.6427 50.5291C15.7401 50.5291 15.8375 50.5291 15.947 50.5291C16.2757 50.5291 16.6044 50.5413 16.9331 50.5413C17.1644 50.5413 17.3957 50.5535 17.6149 50.5535C18.2235 50.5657 18.8201 50.5778 19.4166 50.59C20.0374 50.6022 20.6461 50.6143 21.267 50.6143C22.4722 50.6265 23.6774 50.6509 24.8826 50.6752C25.0044 50.9795 25.0044 50.9795 25.1261 51.2838C25.0044 51.2229 25.0044 51.2229 24.8826 51.1621C24.8826 51.0769 24.8826 51.0038 24.8826 50.9186C21.4618 50.9186 18.0531 50.9186 14.5349 50.9186C14.5349 51.9167 14.5349 52.927 14.5349 53.9616C14.4984 53.9616 14.4497 53.9616 14.4131 53.9616C14.3766 53.4626 14.3523 52.9635 14.3279 52.4645C14.3157 52.3184 14.3158 52.1845 14.3036 52.0385C14.3036 51.9046 14.2914 51.7707 14.2792 51.6246C14.2792 51.5029 14.2671 51.369 14.2549 51.2473C14.2792 50.9308 14.2792 50.9308 14.4131 50.7239C14.8027 50.4561 15.2044 50.517 15.6427 50.5291Z" fill="#257EFE"/>
<path d="M15.5212 41.5464C15.6794 41.6316 15.8377 41.7046 16.0081 41.7898C16.0081 41.9115 16.0081 42.0333 16.0081 42.155C16.1299 42.1915 16.2516 42.2402 16.3733 42.2767C16.5803 42.5323 16.5803 42.5323 16.7385 42.7636C16.6533 42.8488 16.5803 42.9218 16.4951 43.007C16.2516 42.7271 16.0081 42.4471 15.7646 42.155C14.2186 42.7027 13.0255 44.1877 12.2342 45.5631C12.3073 45.5631 12.3681 45.5509 12.4412 45.5509C13.1716 45.5144 13.5855 45.6118 14.182 46.05C14.5594 46.6464 14.5959 47.1211 14.5716 47.8027C14.5716 47.9366 14.5716 47.9366 14.5716 48.0705C14.5716 48.2896 14.5594 48.5087 14.5594 48.7278C14.6446 48.7643 14.7177 48.813 14.8029 48.8495C14.6812 48.9104 14.6812 48.9104 14.5594 48.9712C14.4377 48.886 14.316 48.813 14.1942 48.7278C14.2794 48.7278 14.3525 48.7278 14.4377 48.7278C14.4012 48.6426 14.3525 48.5696 14.316 48.4843C14.316 48.3261 14.316 48.1557 14.3281 47.9975C14.3403 47.3402 14.1577 46.7803 13.9507 46.1717C13.7681 46.2326 13.7681 46.2326 13.5855 46.2934C13.5855 46.2082 13.5855 46.1352 13.5855 46.05C13.4638 46.05 13.342 46.05 13.2203 46.05C13.2203 45.9648 13.2203 45.8917 13.2203 45.8065C12.8551 45.77 12.5021 45.7213 12.1247 45.6848C12.0881 45.5266 12.0395 45.3684 12.0029 45.1979C12.1247 45.0154 12.1247 45.0154 12.2464 44.8328C12.3316 44.8328 12.4047 44.8328 12.4899 44.8328C12.4534 44.7111 12.4047 44.5894 12.3681 44.4676C12.4899 44.4311 12.6116 44.3824 12.7334 44.3459C12.7334 44.2607 12.7334 44.1877 12.7334 44.1025C12.9038 43.9077 12.9038 43.9077 13.0986 43.7373C13.1838 43.7373 13.2568 43.7373 13.342 43.7373C13.342 43.6156 13.342 43.4939 13.342 43.3722C13.5368 43.2504 13.7438 43.1287 13.9507 43.007C14.2307 42.7392 14.4986 42.4593 14.7664 42.1793C14.9246 42.0333 14.9246 42.0333 15.1681 42.0333C15.2046 41.9481 15.2533 41.875 15.2899 41.7898C15.3751 41.8263 15.4481 41.875 15.5333 41.9115C15.5212 41.7898 15.5212 41.6681 15.5212 41.5464Z" fill="#0B8DFE"/>
<path d="M36.5817 18.7847C36.6669 18.9429 36.7399 19.1011 36.8251 19.2715C36.9469 19.2715 37.0686 19.2715 37.1903 19.2715C37.1903 19.3567 37.1903 19.4298 37.1903 19.515C37.2756 19.515 37.3486 19.515 37.4338 19.515C37.4703 19.6002 37.519 19.6732 37.5556 19.7584C37.9451 20.0019 38.286 20.0505 38.7486 20.0749C38.8703 20.0871 38.9921 20.0992 39.1138 20.0992C39.2112 20.0992 39.2964 20.1114 39.3938 20.1114C39.5277 20.3914 39.5277 20.3914 39.6373 20.72C39.4181 21.2312 39.0529 21.5599 38.6634 21.9372C37.9695 22.6553 37.9695 22.6553 37.4216 23.4952C37.1903 23.909 36.959 24.2011 36.5938 24.4933C36.4356 24.4933 36.2773 24.4933 36.1069 24.4933C36.1069 24.4081 36.1069 24.335 36.1069 24.2498C36.0217 24.2498 35.9486 24.2498 35.8634 24.2498C35.6564 24.0551 35.4495 23.8482 35.2547 23.6412C35.1695 23.6047 35.0964 23.556 35.0112 23.5195C35.0478 23.3978 35.0964 23.2761 35.133 23.1544C35.1938 23.2031 35.2425 23.2517 35.3034 23.3004C35.3764 23.3613 35.4495 23.4343 35.5347 23.4952C35.6077 23.556 35.6808 23.6291 35.766 23.6899C35.9973 23.8969 35.9973 23.8969 36.3503 24.1159C38.0669 22.3754 38.0669 22.3754 39.3938 20.3427C39.2355 20.3548 39.0773 20.3548 38.919 20.367C38.2251 20.367 37.519 20.2818 37.0077 19.7828C36.7156 19.4419 36.5817 19.2472 36.5817 18.7847Z" fill="#2B33FD"/>
<path d="M25.4063 57.5766C25.6011 57.674 25.6011 57.674 25.8689 57.8566C25.5037 57.9783 25.2602 57.9783 24.895 57.8566C24.895 57.7714 24.895 57.6983 24.895 57.6131C24.8219 57.6375 24.7611 57.6618 24.688 57.6861C24.2254 57.8444 23.8115 57.9783 23.3246 58.027C22.9472 58.0513 22.9472 58.0513 22.8011 58.2947C22.7767 58.3921 22.7402 58.4773 22.7037 58.5747C22.6428 58.6842 22.582 58.7816 22.5089 58.8912C22.2776 59.4267 22.1924 59.9379 22.2167 60.5222C22.375 60.8752 22.375 60.8752 22.582 61.1308C22.582 61.2525 22.582 61.3742 22.582 61.4959C22.7037 61.4959 22.8254 61.4959 22.9472 61.4959C22.9472 61.6177 22.9472 61.7394 22.9472 61.8611C23.0811 61.8611 23.2028 61.8489 23.3367 61.8489C23.7506 61.8611 23.9454 61.8854 24.2863 62.1045C24.0915 62.2384 24.0915 62.2384 23.7993 62.348C23.0689 62.2019 22.5941 61.7881 22.1194 61.2403C21.815 60.4978 21.7298 59.731 22.022 58.9764C22.7037 57.674 23.982 57.1384 25.4063 57.5766Z" fill="#1F5FFE"/>
<path d="M13.8165 55.0571C13.9383 55.0936 14.06 55.1423 14.1817 55.1788C13.5609 55.7996 13.1104 55.9213 12.2339 56.0309C11.5522 56.0309 10.8705 56.0309 10.1644 56.0309C10.1644 57.4793 10.1644 58.9278 10.1644 60.4127C10.3592 60.498 10.5661 60.571 10.7731 60.6562C11.6252 61.5691 11.6252 61.5691 11.6252 62.2385C11.54 62.2385 11.467 62.2385 11.3818 62.2385C11.2965 61.9221 11.2235 61.5934 11.1383 61.2648C11.0531 61.2648 10.98 61.2648 10.8948 61.2648C10.8096 61.1796 10.7365 61.1065 10.6513 61.0213C10.4931 60.8996 10.4931 60.8996 10.3348 60.7901C10.0426 60.5345 10.0426 60.5345 9.9209 60.1693C9.9209 59.8528 9.9209 59.5364 9.9209 59.2077C9.9209 59.1104 9.9209 59.0252 9.93307 58.9278C9.93307 58.733 9.94524 58.5383 9.94524 58.3314C9.95742 58.0271 9.95742 57.7228 9.96959 57.4185C9.96959 57.2237 9.98177 57.0411 9.98177 56.8464C9.98177 56.749 9.98177 56.6638 9.98177 56.5664C10.0061 55.9213 10.0061 55.9213 10.2739 55.6535C10.5174 55.6292 10.5174 55.6292 10.8096 55.6414C10.9191 55.6414 11.0287 55.6414 11.1383 55.6414C11.3696 55.6414 11.5887 55.6536 11.82 55.6657C11.9783 55.6657 11.9783 55.6657 12.1487 55.6657C12.2461 55.6657 12.3435 55.6657 12.4409 55.6779C12.7452 55.6535 12.9278 55.5562 13.2078 55.4101C13.3296 55.4101 13.4513 55.4101 13.573 55.4101C13.6461 55.3006 13.7313 55.1788 13.8165 55.0571Z" fill="#0685FE"/>
<path d="M7.97327 15.1333C9.73847 15.1333 11.5037 15.1333 13.3297 15.1333C13.4758 15.4133 13.4637 15.5715 13.4515 15.888C13.4515 15.9975 13.4515 16.0949 13.4393 16.2044C13.4393 16.3748 13.4393 16.3748 13.4271 16.5452C13.4271 16.7156 13.4271 16.7156 13.415 16.8982C13.4028 17.2634 13.3906 17.6407 13.3906 18.0059C13.3906 18.2615 13.3784 18.5049 13.3663 18.7605C13.3541 19.3813 13.3297 19.9899 13.3176 20.6106C13.2811 20.6106 13.2324 20.6106 13.1958 20.6106C13.1958 18.8822 13.1958 17.1538 13.1958 15.3767C11.4306 15.3767 9.66543 15.3767 7.83936 15.3767C7.88805 15.2915 7.92457 15.2185 7.97327 15.1333Z" fill="#3AB6FE"/>
<path d="M38.6514 24.6274C38.6514 24.9926 38.6514 24.9926 38.3349 25.3456C38.0062 25.6742 38.0062 25.6742 38.0549 25.9542C38.1766 26.2585 38.347 26.4897 38.5297 26.7575C38.9557 27.4635 39.0653 28.0843 38.8827 28.8876C38.6636 29.2893 38.3714 29.557 38.0305 29.8613C37.8844 29.9952 37.8844 29.9952 37.7262 30.1413C37.4584 30.3726 37.2027 30.616 36.9349 30.8351C36.8497 30.7986 36.7766 30.7499 36.6914 30.7134C36.6914 30.6282 36.6914 30.5551 36.6914 30.4699C36.9349 30.2995 37.1784 30.1656 37.434 30.0196C37.7018 29.8613 37.7018 29.8613 37.787 29.4962C37.9088 29.4962 38.0305 29.4962 38.1523 29.4962C38.5297 28.7172 38.6149 27.8773 38.3714 27.0496C38.2618 26.794 38.1279 26.6358 37.9453 26.4289C37.6653 26.0881 37.6653 26.0881 37.6775 25.8325C37.714 25.7594 37.7505 25.6864 37.787 25.6012C37.8236 25.516 37.8723 25.4186 37.921 25.3334C37.9575 25.2604 37.994 25.1995 38.0305 25.1143C38.1157 25.1143 38.1888 25.1143 38.274 25.1143C38.274 25.0291 38.274 24.9561 38.274 24.8709C38.4079 24.7857 38.5297 24.7126 38.6514 24.6274Z" fill="#2229FD"/>
<path d="M20.3908 24.749C20.9508 24.8951 21.17 25.175 21.4865 25.6254C21.7908 26.161 21.7908 26.6965 21.73 27.3051C21.4743 28.0963 21.0969 28.6805 20.3787 29.1187C19.8065 29.3378 19.1735 29.3378 18.5648 29.2526C18.4795 29.1674 18.4065 29.0944 18.3213 29.0092C18.4065 29.0092 18.4917 29.0092 18.5648 28.997C19.3804 28.9483 20.1717 28.8509 20.8778 28.4006C21.0847 28.1085 21.1456 27.9015 21.243 27.5486C21.3282 27.5486 21.4013 27.5486 21.4865 27.5486C21.45 26.4166 21.45 26.4166 21.1213 25.3576C20.8169 25.2116 20.8169 25.2116 20.5126 25.1142C20.4761 24.9925 20.4274 24.8707 20.3908 24.749Z" fill="#0F7BFE"/>
<path d="M26.2582 47.5471C26.3678 47.5837 26.3678 47.5837 26.4774 47.6323C26.3678 47.6689 26.2704 47.7175 26.1608 47.7662C25.7713 47.9853 25.6739 48.0949 25.4182 48.4357C25.1382 48.7643 24.9678 48.9104 24.5417 48.9591C24.3591 48.9591 24.1765 48.9591 23.9939 48.9469C23.8965 48.9469 23.7991 48.9469 23.6896 48.9469C23.3609 48.9469 23.0322 48.9347 22.7035 48.9347C22.4722 48.9347 22.2409 48.9347 22.0217 48.9347C21.4252 48.9347 20.8165 48.9226 20.22 48.9104C19.6113 48.8982 19.0026 48.8982 18.3818 48.8982C17.1766 48.886 15.9835 48.8739 14.7783 48.8617C14.7783 48.8252 14.7783 48.7765 14.7783 48.74C18.1139 48.74 21.4496 48.74 24.8826 48.74C24.9678 48.5817 25.0408 48.4235 25.1261 48.2531C25.3208 48.0462 25.3208 48.0462 25.54 47.8514C25.6495 47.7541 25.6495 47.7541 25.7591 47.6567C25.9904 47.5106 25.9904 47.5106 26.2582 47.5471Z" fill="#004CFD"/>
<path d="M39.4186 11.5547C39.5038 11.5547 39.589 11.5547 39.6742 11.5547C39.8081 11.5547 39.8081 11.5547 39.942 11.5547C40.1368 11.5547 40.3194 11.5547 40.5142 11.5547C40.8064 11.5547 41.0864 11.5669 41.3785 11.5669C44.4585 11.579 44.4585 11.579 44.8359 11.9564C42.7055 11.9564 40.5751 11.9564 38.3838 11.9564C38.7977 11.579 38.8951 11.5669 39.4186 11.5547Z" fill="#292BFE"/>
<path d="M6.15943 45.5508C6.28117 45.5508 6.40291 45.5508 6.52464 45.5508C6.70725 45.5508 6.70725 45.5508 6.90203 45.5508C7.02377 45.5508 7.14551 45.5508 7.26724 45.5508C8.03419 45.5508 8.80115 45.5995 9.5681 45.6847C9.5681 45.7212 9.5681 45.7699 9.5681 45.8064C9.37332 45.8307 9.17853 45.8551 8.98375 45.8794C8.87419 45.8916 8.76463 45.9038 8.65506 45.9159C8.35072 45.9281 8.35072 45.9281 7.9855 45.8064C7.72985 45.8307 7.48637 45.8672 7.23072 45.9038C6.54899 45.9646 5.86726 45.9403 5.18552 45.9281C5.18552 46.0498 5.18552 46.1715 5.18552 46.2933C5.07596 46.2933 5.07596 46.2933 4.96639 46.3054C4.64987 46.4028 4.64987 46.4028 4.49161 46.8532C4.44292 46.9871 4.39422 47.1331 4.34553 47.267C4.26031 47.1088 4.18727 46.9505 4.10205 46.7801C4.71074 45.7942 4.71074 45.7942 5.29509 45.6116C5.57509 45.5508 5.84291 45.5508 6.15943 45.5508Z" fill="#06A5FE"/>
<path d="M2.25151 2.47461C2.33673 2.47461 2.40977 2.47461 2.49499 2.47461C2.49499 4.39776 2.49499 6.33309 2.49499 8.3171C2.37325 8.37796 2.37325 8.37796 2.25151 8.43882C2.22716 7.86674 2.21499 7.2825 2.19064 6.71042C2.19064 6.51567 2.17847 6.32092 2.16629 6.12617C2.12977 4.89681 2.12977 3.70397 2.25151 2.47461Z" fill="#15C0FE"/>
<path d="M6.75578 55.6532C6.841 55.6532 6.92621 55.6532 7.0236 55.6532C7.41316 55.6532 7.71751 55.6654 8.0949 55.7871C8.0949 57.3086 8.0949 58.8422 8.0949 60.4124C8.05838 60.4124 8.00968 60.4124 7.97316 60.4124C7.97316 58.964 7.97316 57.5155 7.97316 56.0305C7.18186 56.0427 7.18186 56.0427 6.39057 56.0549C6.29317 56.0549 6.19579 56.0549 6.09839 56.0549C6.001 56.0549 5.89144 56.0549 5.79405 56.0549C5.5384 56.0305 5.5384 56.0305 5.29492 55.7871C5.7697 55.6289 6.25665 55.6532 6.75578 55.6532Z" fill="#17A6FE"/>
<path d="M46.5642 19.5151C46.5642 19.6369 46.5642 19.7586 46.5642 19.8803C46.0042 20.4037 45.4564 20.3793 44.7138 20.3793C44.592 20.3793 44.592 20.3793 44.4581 20.3793C44.1903 20.3793 43.9346 20.3793 43.6668 20.3793C43.4842 20.3793 43.3016 20.3793 43.1312 20.3793C42.6929 20.3793 42.2547 20.3793 41.8164 20.3672C41.7799 20.4767 41.7434 20.5984 41.7068 20.7202C41.5851 21.0731 41.4512 21.3287 41.2564 21.633C41.2077 21.7182 41.1468 21.8034 41.086 21.8887C41.0494 21.9495 41.0008 22.0104 40.9642 22.0712C40.8425 21.8278 40.8425 21.8278 40.9399 21.5478C41.086 21.2192 41.086 21.2192 41.2807 20.9149C41.439 20.6471 41.5121 20.4402 41.5729 20.1359C41.6825 20.1359 41.7799 20.1359 41.8894 20.1359C42.279 20.1359 42.6807 20.1481 43.0825 20.1481C43.2529 20.1481 43.4233 20.1481 43.5938 20.1481C45.1033 20.2333 45.1033 20.2333 46.4424 19.6855C46.479 19.6247 46.5155 19.576 46.5642 19.5151Z" fill="#1810FE"/>
<path d="M13.8167 55.0571C13.9384 55.0936 14.0602 55.1423 14.1819 55.1788C13.3663 55.9944 12.5263 56.043 11.4063 56.043C10.9924 56.043 10.5785 56.0309 10.1646 56.0309C10.2011 55.9092 10.2498 55.7874 10.2863 55.6657C10.3593 55.6657 10.4324 55.6657 10.5054 55.6657C10.8341 55.6657 11.1506 55.6779 11.4793 55.6779C11.5889 55.6779 11.6985 55.6779 11.8202 55.6901C11.9298 55.6901 12.0393 55.6901 12.1489 55.6901C12.295 55.6901 12.295 55.6901 12.4532 55.6901C12.7576 55.6657 12.9524 55.5562 13.2202 55.4223C13.3419 55.4223 13.4637 55.4223 13.5854 55.4223C13.6463 55.3006 13.7315 55.1788 13.8167 55.0571Z" fill="#1B92FE"/>
<path d="M42.7905 9.65573C43.2166 9.64356 43.6427 9.64356 44.0809 9.63138C44.2027 9.63138 44.3244 9.61921 44.4462 9.61921C45.2618 9.60704 45.8948 9.65573 46.5401 10.1913C47.0392 10.8486 47.0392 10.8486 47.0635 11.2259C46.9783 11.3111 46.9053 11.3841 46.8201 11.4693C46.8079 11.372 46.7957 11.2746 46.7714 11.1772C46.747 11.0798 46.7227 10.9703 46.6983 10.8607C46.6131 10.8242 46.5401 10.7755 46.4548 10.739C46.4914 10.6538 46.5401 10.5808 46.5766 10.4956C46.114 10.2278 45.627 10.1304 45.1157 10.0087C45.1157 9.92351 45.1157 9.85048 45.1157 9.76527C44.3488 9.76527 43.594 9.76527 42.8027 9.76527C42.7905 9.74093 42.7905 9.69224 42.7905 9.65573Z" fill="#271DFE"/>
<path d="M30.2515 37.0425C30.2515 37.5294 30.0689 37.6511 29.7645 38.0162C29.5454 38.3814 29.4967 38.6492 29.5089 39.0874C29.5089 39.1847 29.5089 39.2821 29.5089 39.3795C29.5089 39.4525 29.5089 39.5255 29.5211 39.5986C29.6063 39.6351 29.6793 39.6838 29.7645 39.7203C29.6793 39.8055 29.6063 39.8785 29.5211 39.9637C29.5211 39.8785 29.5211 39.8055 29.5211 39.7203C29.4358 39.7203 29.3628 39.7203 29.2776 39.7203C29.0706 39.0752 29.0828 38.4788 29.3628 37.8702C29.5819 37.4442 29.8132 37.2372 30.2515 37.0425Z" fill="#264EFE"/>
<path d="M14.3039 22.3145C14.4986 22.3145 14.7056 22.3145 14.9126 22.3145C14.876 22.3997 14.8273 22.4727 14.7908 22.5579C14.7056 22.5579 14.6326 22.5579 14.5473 22.5579C15.3508 23.7507 16.3369 24.5419 17.5908 25.2357C17.4325 25.2722 17.2743 25.3209 17.1038 25.3574C17.1038 25.2722 17.1038 25.1992 17.1038 25.114C16.7752 24.9801 16.4586 24.8584 16.1299 24.7488C16.1299 24.6636 16.1299 24.5906 16.1299 24.5054C16.0569 24.481 15.996 24.4445 15.923 24.408C15.1804 24.0063 14.45 23.3612 14.1821 22.5579C14.2187 22.4727 14.2552 22.3997 14.3039 22.3145Z" fill="#0B8DFE"/>
<path d="M35.3643 26.4531C35.6564 26.5505 35.6564 26.5505 35.9729 26.6966C36.0095 26.8183 36.0582 26.94 36.0947 27.0617C36.2164 27.0982 36.3382 27.1469 36.4599 27.1834C36.4964 27.3052 36.5451 27.4269 36.5816 27.5486C36.7642 27.7555 36.7642 27.7555 36.9469 27.9137C36.5938 28.6197 36.046 28.9118 35.3643 29.2527C35.4738 29.1188 35.5956 28.9849 35.7051 28.8388C35.766 28.7658 35.8269 28.6927 35.8999 28.6075C36.0947 28.4006 36.0947 28.4006 36.4599 28.1572C36.3869 27.6825 36.1677 27.439 35.839 27.0982C35.3643 26.587 35.3643 26.587 35.3643 26.4531Z" fill="#2732FE"/>
<path d="M38.6511 24.6274C38.6511 24.9926 38.6511 24.9926 38.3346 25.3456C38.0059 25.6742 38.0059 25.6742 38.0546 25.9542C38.1763 26.2585 38.3468 26.4897 38.5294 26.7575C38.9433 27.427 38.9676 27.9869 38.8824 28.7537C38.8459 28.7537 38.7972 28.7537 38.7607 28.7537C38.7485 28.5955 38.7485 28.4372 38.7363 28.279C38.6511 27.5365 38.359 26.7697 37.8233 26.2341C37.7746 26.1854 37.7137 26.1246 37.665 26.0759C37.7016 25.7107 37.8598 25.4186 38.0303 25.1021C38.1155 25.1021 38.1885 25.1021 38.2737 25.1021C38.2737 25.0169 38.2737 24.9439 38.2737 24.8587C38.4076 24.7857 38.5294 24.7126 38.6511 24.6274Z" fill="#1E22FD"/>
<path d="M36.582 18.7847C36.6672 18.9429 36.7403 19.1011 36.8255 19.2715C36.9472 19.2715 37.069 19.2715 37.1907 19.2715C37.1907 19.3567 37.1907 19.4298 37.1907 19.515C37.2759 19.515 37.349 19.515 37.4342 19.515C37.4707 19.6002 37.5194 19.6732 37.5559 19.7584C37.9455 20.0019 38.2864 20.0505 38.749 20.0749C38.8707 20.0871 38.9924 20.0992 39.1142 20.0992C39.2116 20.0992 39.2968 20.1114 39.3942 20.1114C39.3942 20.1479 39.3942 20.1966 39.3942 20.2331C38.5907 20.3792 37.9333 20.4035 37.2029 19.9897C36.9472 19.7341 36.7403 19.4663 36.5942 19.1377C36.582 19.0281 36.582 18.9064 36.582 18.7847Z" fill="#2F34FE"/>
<path d="M37.3119 10.021C37.2754 10.1427 37.2267 10.2644 37.1902 10.3862C37.0685 10.447 37.0685 10.447 36.9467 10.5079C36.5328 11.7129 36.6302 13.137 36.5815 14.4029C36.545 14.4029 36.4963 14.4029 36.4598 14.4029C36.4476 13.8795 36.4354 13.3561 36.4232 12.8205C36.4232 12.6379 36.4111 12.4675 36.4111 12.285C36.3989 12.0294 36.3989 11.7737 36.3989 11.5181C36.3989 11.3599 36.3989 11.2017 36.3867 11.0434C36.4719 10.5444 36.7398 10.021 37.3119 10.021Z" fill="#1727FE"/>
<path d="M34.2686 32.6606C34.3903 32.6972 34.512 32.7458 34.6338 32.7824C33.9764 33.3301 33.5625 33.5614 32.7225 33.5492C32.3329 33.5005 32.0408 33.3666 31.7121 33.1475C31.6755 33.0623 31.6269 32.9893 31.5903 32.9041C31.6877 32.9284 31.7851 32.9649 31.8825 32.9893C32.0164 33.0258 32.1382 33.0623 32.2721 33.0988C32.3938 33.1353 32.5277 33.1719 32.6616 33.2084C33.039 33.2814 33.2825 33.2814 33.6477 33.1597C33.6842 33.0745 33.7329 33.0015 33.7694 32.9163C33.8912 32.9163 34.0129 32.9163 34.1347 32.9163C34.1834 32.8189 34.2199 32.7458 34.2686 32.6606Z" fill="#2036FE"/>
<path d="M16.373 39.3555C16.8357 39.538 17.0791 39.8058 17.3835 40.1832C17.5174 40.3414 17.5174 40.3414 17.6513 40.4996C17.8339 40.8161 17.8339 40.8161 17.7974 41.1569C17.7487 41.2908 17.7487 41.2908 17.7122 41.4247C17.3591 41.1082 17.1887 40.9135 17.1035 40.4509C17.0183 40.3292 16.9452 40.2075 16.86 40.0858C16.7383 40.0858 16.6165 40.0858 16.4948 40.0858C16.4583 39.8423 16.4096 39.5989 16.373 39.3555Z" fill="#1185FE"/>
<path d="M20.0254 6.12598C20.3663 6.17466 20.488 6.21118 20.7071 6.47896C20.768 6.56416 20.8289 6.64937 20.8776 6.73457C21.2184 6.96584 21.2184 6.96584 21.4862 7.09973C21.4862 7.18493 21.4862 7.25796 21.4862 7.34316C21.7662 7.34316 22.0462 7.34316 22.3384 7.34316C22.3019 7.46488 22.2532 7.5866 22.2167 7.70832C21.4862 7.6718 21.0358 7.33099 20.5123 6.85629C20.3176 6.62502 20.1715 6.39376 20.0254 6.12598Z" fill="#137BFE"/>
<path d="M34.1469 30.1045C34.2321 30.141 34.3051 30.1897 34.3903 30.2262C33.9764 30.7253 33.5747 31.1756 33.0512 31.5651C32.9173 31.4556 32.7712 31.346 32.6373 31.2243C32.5643 31.1634 32.4912 31.1026 32.406 31.0417C32.199 30.8348 32.199 30.8348 31.9556 30.3479C32.2356 30.5914 32.5156 30.8348 32.8077 31.0782C33.4164 30.8957 33.7208 30.5549 34.1469 30.1045Z" fill="#1C34FD"/>
<path d="M29.521 27.792C31.4079 29.35 31.4079 29.35 31.9558 30.3481C31.4932 30.1655 31.2862 29.8856 30.9819 29.4961C30.714 29.2161 30.434 28.9361 30.1419 28.6684C30.0688 28.5953 29.9836 28.5223 29.9106 28.4371C29.8375 28.3641 29.7645 28.291 29.6914 28.218C29.521 28.0354 29.521 28.0354 29.521 27.792Z" fill="#1E40FD"/>
<path d="M7.48644 60.6562C7.52297 60.778 7.57166 60.8997 7.60818 61.0214C7.52297 61.1066 7.44992 61.1796 7.36471 61.2648C7.29166 61.4474 7.23079 61.6422 7.16992 61.8247C7.1334 61.9221 7.10906 62.0195 7.07254 62.129C7.04819 62.2021 7.02384 62.2751 6.99949 62.3603C6.87775 62.3603 6.75602 62.3603 6.63428 62.3603C6.6708 61.6178 7.03601 61.204 7.48644 60.6562Z" fill="#129FFE"/>
<path d="M20.0254 24.5054C20.1106 24.542 20.1837 24.5907 20.2689 24.6272C20.2324 24.7124 20.1837 24.7854 20.1472 24.8706C20.0133 24.8584 20.0133 24.8584 19.8793 24.8584C19.0637 24.8341 18.6133 24.895 17.9559 25.3575C17.8341 25.4183 17.8341 25.4183 17.7124 25.4792C17.8585 25.0288 18.1385 24.8219 18.5524 24.6028C19.0272 24.4324 19.5263 24.4446 20.0254 24.5054Z" fill="#1089FE"/>
<path d="M12.1123 23.1665C12.1488 23.2517 12.1975 23.3247 12.234 23.4099C12.3193 23.4099 12.3923 23.4099 12.4775 23.4099C12.5384 23.483 12.5993 23.5682 12.648 23.6412C12.8306 23.9212 12.8306 23.9212 13.2079 24.0185C13.2201 24.0916 13.2323 24.1524 13.2445 24.2376C13.3784 24.6758 13.7071 24.8462 14.0601 25.114C13.9749 25.1992 13.9019 25.2722 13.8166 25.3574C12.5262 24.0916 12.5262 24.0916 12.1123 23.5317C12.1123 23.4099 12.1123 23.2882 12.1123 23.1665Z" fill="#149CFE"/>
<path d="M38.5293 18.0545C38.8702 18.0424 39.1989 18.0424 39.5276 18.0424C39.6249 18.0424 39.7102 18.0424 39.8197 18.0302C40.6841 18.018 40.6841 18.018 41.0858 18.298C40.2458 18.3954 39.4789 18.444 38.651 18.298C38.6145 18.2128 38.5658 18.1398 38.5293 18.0545Z" fill="#3333FE"/>
<path d="M40.4775 22.4365C40.4775 22.9112 40.3192 23.0451 40.0149 23.4103C39.9296 23.5198 39.8444 23.6172 39.7592 23.7267C39.5279 23.9824 39.2966 24.1893 39.0166 24.384C39.0166 24.2258 39.0166 24.0676 39.0166 23.8971C39.2114 23.7754 39.4183 23.6537 39.6253 23.532C39.6253 23.4103 39.6253 23.2886 39.6253 23.1668C39.6983 23.1303 39.7835 23.106 39.8566 23.0695C40.1488 22.9356 40.1488 22.9356 40.234 22.5582C40.307 22.5217 40.3922 22.473 40.4775 22.4365Z" fill="#2626FE"/>
<path d="M41.5732 20.1235C41.7315 20.1601 41.8897 20.2087 42.0602 20.2453C41.9749 20.2453 41.9019 20.2453 41.8167 20.2453C41.8045 20.3305 41.7923 20.4157 41.768 20.513C41.6828 20.866 41.5732 21.1216 41.3906 21.4381C41.3419 21.5355 41.281 21.6328 41.2323 21.7302C41.0863 21.9615 41.0862 21.9615 40.8428 22.0832C40.9767 21.5355 41.1471 21.0973 41.4515 20.6226C41.5367 20.3426 41.5367 20.3426 41.5732 20.1235Z" fill="#2B27FE"/>
<path d="M35.8516 16.3506C36.1437 16.3749 36.1437 16.3749 36.4603 16.4723C36.7403 16.9592 36.7159 17.3609 36.655 17.9086C36.6429 18.0546 36.6307 18.1885 36.6185 18.3346C36.6063 18.4441 36.5942 18.5537 36.582 18.6632C36.5455 18.6632 36.4968 18.6632 36.4603 18.6632C36.4481 18.5172 36.4359 18.3711 36.4237 18.2251C36.3994 18.0303 36.3872 17.8356 36.3629 17.653C36.3507 17.5556 36.3507 17.4582 36.3385 17.3609C36.3142 17.1052 36.2655 16.8496 36.2168 16.6062C36.095 16.5088 35.9733 16.4358 35.8516 16.3506Z" fill="#2C39FE"/>
<path d="M0.182115 6.49121C0.218637 6.49121 0.267332 6.49121 0.303854 6.49121C0.328201 6.77116 0.35255 7.06329 0.376897 7.35541C0.389071 7.51365 0.401245 7.67188 0.413419 7.84229C0.425593 8.31699 0.38907 8.71866 0.303854 9.18119C-0.183099 8.42654 0.0238558 7.33107 0.182115 6.49121Z" fill="#13BCFE"/>
<path d="M39.1382 3.08301C39.3817 3.44816 39.3817 3.44816 39.3817 3.6916C39.4669 3.6916 39.5399 3.6916 39.6251 3.6916C39.6982 3.80115 39.759 3.92287 39.8443 4.03241C40.1486 4.45843 40.3677 4.59232 40.8425 4.78707C40.806 4.90879 40.7573 5.03051 40.7208 5.15222C40.7208 5.06702 40.7208 4.99399 40.7208 4.90879C40.6234 4.89662 40.5382 4.88444 40.4408 4.87227C39.8686 4.72621 39.5764 4.28802 39.2599 3.81332C39.1382 3.3873 39.1382 3.3873 39.1382 3.08301Z" fill="#282EFE"/>
<path d="M32.8078 22.3146C33.4408 22.2902 33.9156 22.3146 34.5121 22.558C34.3904 22.6189 34.3904 22.6189 34.2686 22.6797C34.2321 22.7649 34.1834 22.838 34.1469 22.9232C34.086 22.8866 34.0252 22.8501 33.9643 22.8136C33.5382 22.631 33.1486 22.6067 32.686 22.558C32.7226 22.4728 32.7591 22.3998 32.8078 22.3146Z" fill="#2643FE"/>
<path d="M17.9561 41.3027C18.4308 41.5218 18.4308 41.5218 18.5647 41.7896C18.6378 41.7531 18.7108 41.7044 18.7839 41.6679C19.0517 41.5462 19.0517 41.5462 19.4169 41.5462C19.21 41.7896 19.0152 42.033 18.8082 42.2765C18.09 41.7166 18.09 41.7166 17.9561 41.3027Z" fill="#117DFE"/>
<path d="M18.6863 33.1475C18.808 33.2327 18.9298 33.3057 19.0515 33.3909C18.8324 33.5126 18.6254 33.6343 18.4063 33.7439C18.175 33.8778 18.175 33.8778 17.9559 34.1212C17.7489 34.2429 17.5541 34.3646 17.3472 34.4864C17.5298 34.036 17.7733 33.8291 18.1506 33.537C18.248 33.4639 18.3454 33.3909 18.455 33.3057C18.5646 33.2327 18.5645 33.2327 18.6863 33.1475Z" fill="#0D82FE"/>
<path d="M28.3037 29.4961C28.4254 29.5326 28.5471 29.5813 28.6689 29.6178C28.5471 30.0317 28.4619 30.2021 28.1089 30.4455C28.0115 30.4942 27.9141 30.5429 27.8167 30.5916C27.7315 30.5064 27.6585 30.4333 27.5732 30.3481C27.6706 30.2751 27.768 30.2021 27.8654 30.129C28.2063 29.8856 28.2063 29.8856 28.3037 29.4961Z" fill="#2254FE"/>
<path d="M21.3642 13.4292C21.486 13.4657 21.6077 13.5144 21.7294 13.5509C21.6077 13.7944 21.6077 13.7944 21.3764 13.8917C21.0355 14.0865 21.0112 14.2812 20.8773 14.6464C20.792 14.7316 20.719 14.8046 20.6338 14.8898C20.6825 14.2082 20.9138 13.9161 21.3642 13.4292Z" fill="#0F72FE"/>
<path d="M20.5123 40.4507C20.5975 40.4872 20.6706 40.5359 20.7558 40.5724C20.2202 41.2784 20.2201 41.2784 19.8671 41.4123C19.7697 41.4244 19.7697 41.4244 19.6602 41.4244C19.6602 41.3027 19.6602 41.181 19.6602 41.0593C19.8428 40.8889 19.8428 40.8889 20.0862 40.7306C20.1593 40.6819 20.2445 40.6211 20.3297 40.5724C20.4149 40.5115 20.4149 40.5115 20.5123 40.4507Z" fill="#1172FE"/>
<path d="M23.7993 57.4912C25.1993 57.4304 25.1993 57.4304 25.8689 57.8564C25.5037 57.9781 25.2602 57.9781 24.895 57.8564C24.895 57.7712 24.895 57.6981 24.895 57.6129C24.5297 57.6129 24.1767 57.6129 23.7993 57.6129C23.7993 57.5764 23.7993 57.5277 23.7993 57.4912Z" fill="#1146FE"/>
<path d="M22.3385 38.2598C22.582 38.4058 22.582 38.4058 22.8255 38.6249C22.8498 38.9536 22.8498 38.9536 22.8255 39.2335C22.582 39.3674 22.3385 39.4891 22.095 39.5987C22.0098 39.5622 21.9368 39.5135 21.8516 39.477C22.0463 39.3187 22.2533 39.1605 22.4603 38.9901C22.4237 38.7466 22.375 38.5032 22.3385 38.2598Z" fill="#1065FE"/>
<path d="M26.4776 47.6321C26.3194 47.693 26.3194 47.693 26.1611 47.766C25.662 48.0581 25.3698 48.399 25.0168 48.8493C24.9802 48.7276 24.9315 48.6059 24.895 48.4842C25.0289 48.3503 25.1628 48.2042 25.3089 48.0703C25.382 47.9973 25.455 47.9121 25.5402 47.839C25.8811 47.4982 26.0272 47.4982 26.4776 47.6321Z" fill="#1154FE"/>
<path d="M37.312 10.021C37.2755 10.1427 37.2268 10.2644 37.1903 10.3862C37.0685 10.447 37.0685 10.447 36.9468 10.5079C36.8616 10.8243 36.8616 10.8243 36.8129 11.1895C36.7885 11.3112 36.7764 11.4329 36.752 11.5668C36.7399 11.6642 36.7277 11.7616 36.7033 11.8589C36.6668 11.8589 36.6181 11.8589 36.5816 11.8589C36.4964 11.4451 36.4477 11.0556 36.4599 10.6418C36.9103 10.021 36.9103 10.021 37.312 10.021Z" fill="#2B39FE"/>
<path d="M26.3559 61.1431C26.3559 61.2648 26.3559 61.3865 26.3559 61.5082C25.8811 61.9829 25.5768 62.1898 24.895 62.2385C25.2602 61.9951 25.2602 61.9951 25.5037 61.9951C25.5037 61.9099 25.5037 61.8369 25.5037 61.7517C25.6254 61.7151 25.7472 61.6665 25.8689 61.6299C26.0394 61.4717 26.1976 61.3135 26.3559 61.1431Z" fill="#1041FE"/>
<path d="M13.4516 37.7729C13.4881 37.7729 13.5368 37.7729 13.5733 37.7729C13.7316 38.4181 13.902 39.0753 14.0603 39.7204C13.6951 39.3918 13.4638 39.0875 13.4272 38.5763C13.4272 38.4789 13.4272 38.3815 13.4394 38.2842C13.4394 38.1868 13.4394 38.0894 13.4394 37.992C13.4394 37.919 13.4516 37.846 13.4516 37.7729Z" fill="#0487FE"/>
<path d="M38.7732 9.77758C38.5054 10.0454 38.408 10.0941 38.0428 10.1427C37.7019 10.0941 37.7019 10.0941 37.4341 10.021C37.4341 9.93582 37.4341 9.86279 37.4341 9.77758C37.8967 9.60718 38.2984 9.69238 38.7732 9.77758Z" fill="#3141FE"/>
<path d="M14.9122 42.0332C14.9974 42.0697 15.0705 42.1184 15.1557 42.1549C15.0218 42.5688 14.9244 42.6661 14.547 42.8852C14.2792 42.8487 14.2792 42.8487 14.0601 42.7635C14.1331 42.7148 14.2061 42.654 14.2792 42.6053C14.5105 42.4227 14.7053 42.2401 14.9122 42.0332Z" fill="#1493FE"/>
<path d="M30.9817 26.0879C31.0669 26.1244 31.14 26.1731 31.2252 26.2096C30.7382 26.6356 30.7382 26.6356 30.2513 27.0616C30.1661 27.0251 30.093 26.9764 30.0078 26.9399C30.093 26.7087 30.093 26.7087 30.2513 26.453C30.5678 26.307 30.5678 26.307 30.86 26.2096C30.8965 26.1731 30.933 26.1244 30.9817 26.0879Z" fill="#1B40FE"/>
<path d="M35.1212 23.1665C35.2551 23.2761 35.4012 23.3978 35.5351 23.5073C35.6082 23.5682 35.6934 23.629 35.7664 23.7021C35.9612 23.8968 35.9612 23.8968 36.0829 24.262C35.8395 24.262 35.8395 24.262 35.5351 23.9698C35.4377 23.8725 35.3282 23.7629 35.2308 23.6534C35.1456 23.6169 35.0725 23.5682 34.9873 23.5317C35.036 23.4099 35.0725 23.2882 35.1212 23.1665Z" fill="#202DFD"/>
<path d="M14.0601 37.0425C14.0966 37.1277 14.1453 37.2007 14.1818 37.2859C14.0966 37.2494 14.0236 37.2007 13.9383 37.1642C13.9749 37.1277 14.0114 37.079 14.0601 37.0425ZM13.5731 37.2859C13.8166 37.3468 13.8166 37.3468 14.0601 37.4076C13.8775 37.8337 13.8775 37.8337 13.6949 38.2597C13.5244 37.9675 13.4392 37.8337 13.5001 37.505C13.5244 37.432 13.5488 37.3589 13.5731 37.2859Z" fill="#129CFE"/>
<path d="M17.9557 36.0688C18.0409 36.1054 18.1139 36.1541 18.1992 36.1906C18.1992 36.2758 18.1992 36.3488 18.1992 36.434C17.9557 36.6044 17.7122 36.7626 17.4687 36.9209C17.347 36.8357 17.2253 36.7626 17.1035 36.6774C17.2253 36.6166 17.3348 36.5679 17.4566 36.507C17.8461 36.3488 17.8461 36.3488 17.9557 36.0688Z" fill="#1287FE"/>
<path d="M38.5295 27.6704C38.6147 27.6704 38.6877 27.6704 38.7729 27.6704C38.7973 27.8652 38.8216 28.0599 38.846 28.2668C38.8581 28.3764 38.8703 28.4859 38.8947 28.5955C38.8947 28.6928 38.8947 28.7902 38.8947 28.8876C38.8095 28.9728 38.7364 29.0458 38.6512 29.131C38.566 29.131 38.4929 29.131 38.4077 29.131C38.4199 29.0337 38.4199 28.9363 38.4321 28.8389C38.4442 28.7172 38.4564 28.5955 38.4686 28.4616C38.4808 28.3399 38.4929 28.2181 38.5051 28.0843C38.5173 27.8895 38.5173 27.8895 38.5295 27.6704Z" fill="#4144FE"/>
<path d="M38.5293 20.2456C38.8458 20.2456 39.1745 20.2456 39.5032 20.2456C39.5884 20.4647 39.5884 20.4647 39.6249 20.7325C39.4545 20.9516 39.4545 20.9516 39.2597 21.0976C39.1745 21.0611 39.1015 21.0124 39.0162 20.9759C39.138 20.7812 39.2597 20.5742 39.3815 20.3673C39.1015 20.3673 38.8215 20.3673 38.5293 20.3673C38.5293 20.3308 38.5293 20.2821 38.5293 20.2456Z" fill="#1B1CFE"/>
<path d="M21.6079 39.5986C21.6444 39.7569 21.6931 39.9151 21.7296 40.0855C21.4374 40.2194 21.4374 40.2194 21.1209 40.3289C21.0357 40.2924 20.9627 40.2437 20.8774 40.2072C21.1209 40.0125 21.3522 39.8056 21.6079 39.5986Z" fill="#0F69FE"/>
<path d="M30.86 23.5317C30.9452 23.5683 31.0182 23.6169 31.1035 23.6535C30.8113 24.1282 30.5435 24.2377 30.0078 24.3838C30.2756 24.0308 30.4826 23.7752 30.86 23.5317Z" fill="#1943FD"/>
<path d="M22.9472 57.8564C22.9837 57.9416 23.0324 58.0147 23.069 58.0999C22.8985 58.3433 22.8985 58.3433 22.7037 58.5868C22.6185 58.5868 22.5455 58.5868 22.4603 58.5868C22.4238 58.7085 22.3751 58.8302 22.3385 58.9519C22.302 58.8667 22.2533 58.7937 22.2168 58.7085C22.4603 58.4285 22.6916 58.1486 22.9472 57.8564Z" fill="#0D4FFE"/>
<path d="M39.1382 3.08301C39.3817 3.44816 39.3817 3.44816 39.3817 3.6916C39.4669 3.6916 39.5399 3.6916 39.6251 3.6916C39.7104 3.89852 39.7834 4.09327 39.8686 4.30019C39.5034 4.17848 39.5034 4.17848 39.2964 3.89852C39.1382 3.56988 39.1382 3.56988 39.1382 3.08301Z" fill="#1E26FD"/>
<path d="M27.3294 30.4697C27.3294 30.5914 27.3294 30.7132 27.3294 30.8349C26.9642 31.1027 26.9642 31.1027 26.5989 31.3218C26.5137 31.2852 26.4407 31.2366 26.3555 31.2C26.672 30.9566 27.0007 30.7132 27.3294 30.4697Z" fill="#0F4BFE"/>
<path d="M35.3643 26.4531C35.6564 26.5383 35.6564 26.5383 35.9729 26.6966C36.0703 27.013 36.0703 27.013 36.0947 27.3052C35.4982 26.7209 35.4982 26.7209 35.3643 26.4531Z" fill="#303BFB"/>
</svg>
