<svg width="57" height="57" viewBox="0 0 57 57" fill="none" xmlns="http://www.w3.org/2000/svg">
<g filter="url(#filter0_ii_540_309)">
<circle cx="28.5" cy="28.5" r="28.5" fill="url(#paint0_radial_540_309)"/>
</g>
<path d="M21.6771 18.919C23.0236 16.2472 25.9058 15.9859 28.2257 17.5749C28.4907 17.7545 29.0585 18.6252 29.1396 18.647C29.6263 18.7667 30.3022 17.8851 30.87 17.5586C31.281 17.2375 31.7353 16.9655 32.2219 16.7423C34.1849 16.5192 36.0505 16.6226 36.9536 18.647C37.5755 20.04 37.4619 21.3569 36.5426 22.6031C35.9802 23.3649 33.3846 25.7538 32.541 26.5211C31.7947 27.1959 29.8642 29.2692 28.9828 28.8665C26.9711 26.5375 23.6509 24.5567 21.942 22.048C21.6825 21.6671 21.7041 21.1393 21.6717 21.1012C21.2553 20.5733 21.2553 19.8441 21.6717 18.9245L21.6771 18.919Z" fill="#C8A5FF"/>
<path d="M36.5484 39.1895C36.4186 37.9379 35.748 37.3012 34.8558 36.5176C34.3745 36.0931 33.0604 35.9897 34.2393 34.9613C35.6074 33.7641 36.0292 35.0538 36.4835 35.2279C36.7376 35.3258 38.9115 35.8319 39.1278 35.821C39.5983 35.7993 39.4577 35.3639 39.728 35.266C39.9768 35.1735 40.3716 35.2823 40.6636 35.1789C41.5288 34.8633 41.7072 34.1668 42.9564 34.798C43.0213 34.8307 43.9406 35.7394 43.9784 35.7993C44.8707 37.3447 44.357 42.596 44.1244 44.5006H36.5538C36.424 42.7973 36.7322 40.8655 36.5538 39.1949L36.5484 39.1895Z" fill="#C8A5FF"/>
<path d="M14.9179 44.4952C14.5664 44.2721 14.5502 38.21 14.6475 37.2849C14.8043 35.7557 15.5884 34.2756 17.3189 34.6075C17.9137 34.7218 17.8434 35.1408 18.103 35.2225C18.7735 35.4401 19.7523 35.5979 20.4715 35.8265C21.5044 35.4837 23.6404 34.0851 24.5867 34.7654C26.0197 35.7884 23.37 36.7298 23.0347 37.3556C22.932 37.5515 22.4831 38.58 22.4831 38.6507V44.5006H14.9125L14.9179 44.4952Z" fill="#C8A5FF"/>
<path d="M24.1109 44.4952C23.7378 42.9987 23.5323 39.0861 24.5056 37.9542C26.063 36.1476 27.9124 38.5582 30.2107 38.2481C31.0543 38.1338 32.4873 37.1216 32.6225 37.1162C35.6994 36.9965 35.4669 42.4872 34.9261 44.4952H24.1109Z" fill="#C8A5FF"/>
<path d="M17.3512 29.8025C18.5247 27.5932 21.0825 27.0544 22.7642 29.1168C25.733 32.7574 19.6008 36.4196 17.3512 32.5234C16.9565 31.6908 16.9294 30.6296 17.3512 29.8025Z" fill="#C8A5FF"/>
<path d="M36.5485 33.3396C35.7373 32.4635 36.0618 32.7791 35.6454 31.7942C35.5859 31.6581 34.8938 31.6853 35.2074 30.5371C35.2561 30.3521 35.5967 30.3412 35.6346 30.2487C35.9266 29.5631 35.6995 29.3128 36.4133 28.7087C39.9499 25.7321 44.2489 31.114 40.6042 33.6063C38.9657 34.2212 37.6138 34.1287 36.5485 33.3342V33.3396Z" fill="#C8A5FF"/>
<path d="M32.222 35.2442C32.1734 35.3313 32.3086 35.5489 32.0382 35.7993C30.0968 37.6222 26.8144 36.8278 26.0736 34.2266C25.6896 32.8879 27.2146 30.9289 28.6422 30.684C30.3023 30.4011 31.5082 30.7548 32.2274 32.2567C32.5627 33.2797 32.6168 34.2266 32.2274 35.2497L32.222 35.2442Z" fill="#C8A5FF"/>
<path d="M42.9563 23.6207C43.3457 23.9744 43.3132 25.2151 42.9996 25.4165C42.3993 25.7974 39.198 24.5784 39.5009 23.169C39.7009 22.2548 42.5021 23.2071 42.9563 23.6207Z" fill="#C8A5FF"/>
<path d="M19.2438 24.0887C18.1407 24.7743 17.0051 25.6777 15.7289 25.4491C15.7992 24.9049 15.6261 24.1866 15.718 23.6969C15.7829 23.3649 16.3453 23.6697 16.5995 23.5336C16.8536 23.3976 16.7833 23.1037 17.0105 23.0167C17.4539 22.848 18.2055 23.1418 18.5679 22.4562C18.8112 22.4126 18.6382 22.8099 18.7679 22.9242C18.9518 23.0874 19.0924 22.9786 19.2438 23.0003C19.7251 23.1309 19.6872 23.9309 19.2438 24.0887Z" fill="#C8A5FF"/>
<path d="M43.0377 16.7423C43.4649 16.8076 43.4649 17.9504 43.0377 18.1028C42.6267 18.3259 42.405 18.4565 41.9562 18.6469C41.8426 18.8973 41.5722 19.0768 41.145 19.1911C38.6575 19.387 39.2848 17.379 41.1342 16.8729C41.7615 16.6988 42.3942 16.7097 43.0377 16.7423Z" fill="#C8A5FF"/>
<path d="M17.3515 16.7423C17.8815 16.9709 18.3357 17.243 18.7034 17.5586C18.7305 17.5912 19.1739 17.4334 19.2496 17.7382C19.3523 18.1463 19.1901 18.7395 19.2496 19.1911C18.7088 19.1367 18.0491 19.3054 17.5462 19.1802C17.4272 19.153 15.9996 18.1409 15.7346 17.8252C15.3777 17.477 15.3669 17.0797 15.7346 16.7369C16.0375 16.6662 17 16.6934 17.3569 16.7369L17.3515 16.7423Z" fill="#C8A5FF"/>
<path d="M40.6041 33.6117C39.7443 34.2048 37.2838 34.4932 36.6024 33.8185C36.4618 33.677 36.5808 33.3777 36.5483 33.3396C37.9165 34.0307 39.171 33.6607 40.6041 33.6117Z" fill="#C8A5FF"/>
<path d="M17.3512 32.5234C17.043 31.9901 16.7347 32.2622 16.7834 31.016C16.8267 29.9168 17.1674 30.1399 17.3512 29.8025V32.5234Z" fill="#C8A5FF"/>
<path d="M32.2222 35.2442V32.2513C32.9252 33.726 33.0982 33.7042 32.2222 35.2442Z" fill="#C8A5FF"/>
<path d="M21.6774 21.0957C21.6395 21.0468 21.1799 21.3188 21.1096 20.7039C20.9906 19.6591 21.3637 19.5503 21.6774 18.919V21.0957Z" fill="#C8A5FF"/>
<path d="M43.0374 16.7424C43.2158 16.7532 43.3997 16.726 43.5781 16.7424C43.5349 17.1124 43.67 17.613 43.5943 17.9395C43.5186 18.266 43.1509 18.0429 43.0374 18.1028V16.7424Z" fill="#C8A5FF"/>
<path d="M17.3513 16.7423C17.6325 16.775 18.2922 16.9056 18.5031 17.0199C18.8006 17.1777 18.6708 17.5205 18.7032 17.5586C18.1571 17.4879 17.5838 17.2865 17.3513 16.7423Z" fill="#C8A5FF"/>
<path d="M32.2223 16.7423C32.0222 17.4389 31.2489 17.3409 30.8704 17.5586C31.1732 16.824 31.5463 16.8185 32.2223 16.7423Z" fill="#C8A5FF"/>
<path d="M19.2439 23.0003C19.7793 23.0874 20.0388 22.9405 19.7955 23.9309C19.7198 24.241 19.3304 24.0343 19.2439 24.0887V23.0003Z" fill="#C8A5FF"/>
<path d="M15.7286 17.8307C15.5826 17.662 15.0689 17.6185 15.1879 17.1559C15.3393 16.9818 15.4907 16.7968 15.7286 16.7423V17.8307Z" fill="#C8A5FF"/>
<path d="M41.9559 18.6469C42.0803 19.4414 41.7558 19.1421 41.1448 19.1911C41.2583 18.6742 41.6477 18.7775 41.9559 18.6469Z" fill="#C8A5FF"/>
<defs>
<filter id="filter0_ii_540_309" x="-3" y="-4" width="60" height="65.3" filterUnits="userSpaceOnUse" color-interpolation-filters="sRGB">
<feFlood flood-opacity="0" result="BackgroundImageFix"/>
<feBlend mode="normal" in="SourceGraphic" in2="BackgroundImageFix" result="shape"/>
<feColorMatrix in="SourceAlpha" type="matrix" values="0 0 0 0 0 0 0 0 0 0 0 0 0 0 0 0 0 0 127 0" result="hardAlpha"/>
<feMorphology radius="1" operator="dilate" in="SourceAlpha" result="effect1_innerShadow_540_309"/>
<feOffset dx="-3" dy="7"/>
<feGaussianBlur stdDeviation="2.65"/>
<feComposite in2="hardAlpha" operator="arithmetic" k2="-1" k3="1"/>
<feColorMatrix type="matrix" values="0 0 0 0 1 0 0 0 0 1 0 0 0 0 1 0 0 0 0.56 0"/>
<feBlend mode="normal" in2="shape" result="effect1_innerShadow_540_309"/>
<feColorMatrix in="SourceAlpha" type="matrix" values="0 0 0 0 0 0 0 0 0 0 0 0 0 0 0 0 0 0 127 0" result="hardAlpha"/>
<feMorphology radius="3" operator="erode" in="SourceAlpha" result="effect2_innerShadow_540_309"/>
<feOffset dy="-4"/>
<feGaussianBlur stdDeviation="3.9"/>
<feComposite in2="hardAlpha" operator="arithmetic" k2="-1" k3="1"/>
<feColorMatrix type="matrix" values="0 0 0 0 1 0 0 0 0 0.333333 0 0 0 0 0.835294 0 0 0 0.28 0"/>
<feBlend mode="normal" in2="effect1_innerShadow_540_309" result="effect2_innerShadow_540_309"/>
</filter>
<radialGradient id="paint0_radial_540_309" cx="0" cy="0" r="1" gradientUnits="userSpaceOnUse" gradientTransform="translate(36.9065 14.5576) rotate(118.551) scale(31.7455)">
<stop stop-color="white" stop-opacity="0"/>
<stop offset="1" stop-color="#FFBCE1"/>
</radialGradient>
</defs>
</svg>
