<svg width="204" height="78" viewBox="0 0 204 78" fill="none" xmlns="http://www.w3.org/2000/svg">
<path d="M64.7544 42.3195C58.6618 42.3195 53.2031 39.1633 50.1504 33.8857C47.0977 28.608 47.0977 22.3085 50.1504 17.0309L59.0499 1.62488L64.8061 4.94934L55.9066 20.3554C54.0569 23.5504 54.0569 27.3663 55.9066 30.5613C57.7564 33.7564 61.0549 35.6707 64.7544 35.6707H82.5404V42.3195H64.7544Z" fill="#EDBAFF"/>
<path d="M23.5811 76.3655L17.8249 73.0412L26.7244 57.6352C28.5742 54.4401 28.5742 50.6242 26.7244 47.4292C24.8747 44.2342 21.5762 42.3198 17.8896 42.3198H0.103516V35.671H17.8896C23.9821 35.671 29.4408 38.8143 32.4936 44.1049C35.5463 49.3825 35.5463 55.6819 32.4936 60.9724L23.5941 76.3784L23.5811 76.3655Z" fill="#EDBAFF"/>
<path d="M59.2829 1.76758L64.8063 4.96257L55.9068 20.3686L64.7934 4.96257L59.27 1.76758H59.2829ZM21.4212 2.88L17.8123 4.96257L26.6988 20.3686L17.7993 4.96257L21.3953 2.88H21.4212ZM32.5844 17.2252C34.3695 20.4203 35.055 23.9775 34.6411 27.4442C36.6978 28.3238 38.9615 28.7893 41.3157 28.7893C43.67 28.7893 45.9207 28.3238 47.9904 27.4442C47.5764 23.9775 48.262 20.4203 50.0471 17.2382C48.1844 20.3168 44.9376 22.1407 41.3287 22.1407C37.7197 22.1407 34.473 20.3038 32.5973 17.2252" fill="#FCE880"/>
<path d="M59.0369 1.63818L50.1504 17.0442C50.1116 17.1089 50.0727 17.1736 50.0339 17.2383C48.2489 20.4333 47.5633 23.9776 47.9772 27.4442C51.1852 26.0731 53.9275 23.7059 55.7902 20.5626C55.829 20.4979 55.8678 20.4333 55.9066 20.3687L64.8061 4.96265L59.2827 1.78061L59.0499 1.63818H59.0369Z" fill="#F5C780"/>
<path d="M41.3157 49.2013C38.9615 49.2013 36.7108 49.667 34.6411 50.5466C35.055 54.0133 34.3695 57.5576 32.5844 60.7526C34.4471 57.674 37.6938 55.8501 41.3028 55.8501C44.9118 55.8501 48.1585 57.6869 50.0341 60.7656C48.2491 57.5705 47.5635 54.0133 47.9774 50.5466C45.9207 49.667 43.657 49.2013 41.3028 49.2013M26.8282 57.4281C26.7894 57.4928 26.7506 57.5705 26.7118 57.6351L17.8252 73.0412L18.4849 73.4162L17.8381 73.0412L26.7376 57.6351C26.7764 57.5705 26.8152 57.4928 26.854 57.4281M55.7904 57.4281C55.8292 57.4928 55.868 57.5705 55.9068 57.6351L64.8063 73.0412L55.9197 57.6351C55.8809 57.5705 55.8421 57.5058 55.8033 57.4281" fill="#FCE880"/>
<path d="M34.6409 50.5466C31.4329 51.9178 28.7035 54.2849 26.8279 57.4282C26.7891 57.4928 26.7503 57.5705 26.7115 57.6352L17.812 73.0412L18.4588 73.4162L23.5682 76.3655L32.4548 60.9596C32.4936 60.895 32.5324 60.8302 32.5712 60.7526C34.3563 57.5576 35.0419 54.0133 34.6279 50.5466" fill="#F5C780"/>
<path d="M23.5814 1.63818L32.4679 17.0442C32.5067 17.1089 32.5456 17.1736 32.5844 17.2383C32.5456 17.1736 32.5067 17.1089 32.4809 17.0442L23.5814 1.63818ZM26.8281 20.5626C28.5615 23.7188 28.5227 27.4441 26.7117 30.5745C24.9008 33.7048 21.6928 35.5935 18.1097 35.6711C21.7704 35.7228 25.1853 36.8999 27.9794 38.9954C29.7774 37.6501 31.3038 35.9298 32.4809 33.899C33.658 31.8552 34.3824 29.6691 34.654 27.4442C31.446 26.0731 28.7038 23.7059 26.8411 20.5626" fill="#FCAB9E"/>
<path d="M18.1097 35.671C18.0321 35.671 17.9545 35.671 17.8769 35.671H0.0908203V38.9953V42.3198H17.8769C17.9545 42.3198 18.0321 42.3198 18.1097 42.3198C21.7704 42.2681 25.1853 41.0909 27.9794 38.9953C25.1853 36.8998 21.7704 35.7098 18.1097 35.671Z" fill="#F58A9E"/>
<path d="M23.5814 1.63783L21.4212 2.87972L17.8252 4.96229L26.7247 20.3683C26.7635 20.433 26.8023 20.4975 26.8411 20.5622C28.7167 23.7055 31.4461 26.0727 34.654 27.4439C35.068 23.9772 34.3824 20.42 32.5973 17.225C32.5585 17.1603 32.5197 17.0956 32.4809 17.0309L23.5943 1.62488L23.5814 1.63783Z" fill="#FCA15E"/>
<path d="M54.6517 38.9953C52.8666 40.3406 51.3273 42.0611 50.1502 44.0919C48.9731 46.1228 48.2487 48.3218 47.9771 50.5466C51.185 51.9178 53.9273 54.2849 55.79 57.4282C54.0566 54.2719 54.0955 50.5466 55.9064 47.4292C57.7174 44.2988 60.9124 42.4104 64.5084 42.3327C60.8477 42.281 57.4328 41.1038 54.6387 39.0083M50.0338 60.7656C50.0726 60.8303 50.1114 60.895 50.1502 60.9596L59.0497 76.3655L59.6188 76.0421L59.0626 76.3655L50.1761 60.9596C50.1372 60.895 50.0984 60.8303 50.0596 60.7656" fill="#FCAB9E"/>
<path d="M64.5215 35.671C60.8608 35.7228 57.4459 36.8998 54.6519 38.9953C57.4459 41.0909 60.8608 42.2681 64.5215 42.3198C64.5991 42.3198 64.6767 42.3198 64.7543 42.3198H82.5404V35.671H64.7543C64.6767 35.671 64.5991 35.671 64.5215 35.671Z" fill="#F58A9E"/>
<path d="M47.9772 50.5466C47.5633 54.0133 48.2489 57.5705 50.0339 60.7656C50.0727 60.8302 50.1116 60.895 50.1504 60.9596L59.0369 76.3655L59.6061 76.0421L64.8061 73.0412L55.9066 57.6352C55.8678 57.5705 55.829 57.4928 55.7902 57.4282C53.9275 54.2849 51.1852 51.9178 47.9772 50.5466Z" fill="#FCA15E"/>
<path d="M45.9721 4.84605C45.9721 7.42018 43.8895 9.50274 41.3154 9.50274C38.7413 9.50274 36.6587 7.42018 36.6587 4.84605C36.6587 2.27192 38.7413 0.189209 41.3154 0.189209C43.8895 0.189209 45.9721 2.27192 45.9721 4.84605Z" fill="#FAD100"/>
<path d="M36.6587 73.1447C36.6587 70.5706 38.7413 68.488 41.3154 68.488C43.8895 68.488 45.9721 70.5706 45.9721 73.1447C45.9721 75.7189 43.8895 77.8014 41.3154 77.8014C38.7413 77.8014 36.6587 75.7189 36.6587 73.1447Z" fill="#FAD100"/>
<path d="M9.40416 52.0342C11.629 50.7536 14.4748 51.5168 15.7683 53.7416C17.0489 55.9665 16.2858 58.8123 14.0609 60.1059C11.836 61.3865 8.99023 60.6361 7.6967 58.3983C6.4161 56.1734 7.17929 53.3278 9.40416 52.0342Z" fill="#EDBAFF"/>
<path d="M9.40416 25.9565C11.629 27.2371 14.4748 26.474 15.7683 24.2491C17.0489 22.0242 16.2858 19.1784 14.0609 17.8848C11.836 16.6042 8.99023 17.3544 7.6967 19.5922C6.4161 21.8171 7.17929 24.6629 9.40416 25.9565Z" fill="#FC593D"/>
<path d="M73.2142 25.9565C70.9893 27.2371 68.1435 26.474 66.85 24.2491C65.5694 22.0242 66.3326 19.1784 68.5575 17.8848C70.7824 16.6042 73.6281 17.3544 74.9217 19.5922C76.2023 21.8171 75.4391 24.6629 73.2142 25.9565Z" fill="#EDBAFF"/>
<path d="M73.2142 52.0342C70.9893 50.7536 68.1435 51.5168 66.85 53.7416C65.5694 55.9665 66.3326 58.8123 68.5575 60.1059C70.7824 61.3865 73.6281 60.6361 74.9217 58.3983C76.2023 56.1734 75.4391 53.3278 73.2142 52.0342Z" fill="#FC593D"/>
<path d="M103.974 22.9685C103.535 22.3476 103.147 21.9079 102.797 21.6492C102.448 21.3905 102.073 21.1964 101.659 21.0929C101.258 20.9765 100.831 20.9248 100.391 20.9248C99.7446 20.9248 99.1366 21.067 98.5674 21.3645C98.0112 21.6621 97.5197 22.0502 97.1187 22.5546C96.7048 23.0591 96.3943 23.6412 96.1615 24.3009C95.9286 24.9606 95.8122 25.672 95.8122 26.4223C95.8122 27.1725 95.9286 27.884 96.1615 28.5567C96.3943 29.2164 96.7048 29.7984 97.1187 30.3029C97.5197 30.8074 97.9983 31.1955 98.5674 31.4801C99.1237 31.7776 99.7446 31.9198 100.404 31.9198C100.87 31.9198 101.31 31.8423 101.711 31.6871C102.112 31.5318 102.487 31.3377 102.81 31.0919C103.147 30.8462 103.431 30.5617 103.677 30.2383C103.923 29.9149 104.117 29.5786 104.259 29.2293L108.01 30.277C107.764 31.0402 107.415 31.7516 106.95 32.3984C106.484 33.0452 105.928 33.6144 105.268 34.0801C104.608 34.5587 103.871 34.9338 103.056 35.1925C102.241 35.4641 101.349 35.6063 100.404 35.6063C99.6023 35.6063 98.8391 35.5029 98.1018 35.283C97.3645 35.0631 96.6918 34.7527 96.058 34.3646C95.4242 33.9636 94.855 33.485 94.3247 32.9288C93.8072 32.3726 93.3674 31.7516 93.0052 31.066C92.6431 30.3805 92.3585 29.6561 92.1515 28.8671C91.9445 28.091 91.854 27.276 91.854 26.4223C91.854 25.1546 92.0739 23.9646 92.5137 22.8651C92.9535 21.7526 93.5615 20.7825 94.3376 19.9546C95.1137 19.1268 96.0062 18.48 97.054 18.0014C98.0888 17.5228 99.2142 17.29 100.404 17.29C101.361 17.29 102.163 17.4063 102.823 17.6392C103.47 17.872 104.194 18.3507 104.983 19.0492H107.596V22.9944H103.987L103.974 22.9685Z" fill="black"/>
<path d="M117.272 26.5515H120.842L119.044 20.7953L117.272 26.5515ZM120.816 32.0749H122.575L121.786 29.5267H116.353L115.564 32.0749H117.427V35.2699H110.713V32.0749H112.033L116.845 17.5874H121.527L126.236 32.0749H127.516V35.2699H120.816V32.0749Z" fill="black"/>
<path d="M141.474 17.5874H148.2V20.7953H146.764V35.2699H142.897L135.536 23.8481V32.0749H137.011V35.2699H130.311V32.0749H131.759V20.7953H130.323V17.5874H135.666L142.987 29.1774V20.7953H141.474V17.5874Z" fill="black"/>
<path d="M162.895 22.9685C162.455 22.3476 162.067 21.9079 161.717 21.6492C161.368 21.3905 160.993 21.1964 160.592 21.0929C160.191 20.9765 159.764 20.9248 159.324 20.9248C158.678 20.9248 158.07 21.067 157.501 21.3645C156.944 21.6621 156.453 22.0502 156.052 22.5546C155.638 23.0591 155.327 23.6412 155.095 24.3009C154.862 24.9606 154.745 25.672 154.745 26.4223C154.745 27.1725 154.862 27.884 155.095 28.5567C155.327 29.2164 155.638 29.7984 156.052 30.3029C156.453 30.8074 156.931 31.1955 157.501 31.4801C158.057 31.7776 158.678 31.9198 159.337 31.9198C159.803 31.9198 160.243 31.8423 160.644 31.6871C161.045 31.5318 161.42 31.3377 161.743 31.0919C162.08 30.8462 162.364 30.5617 162.61 30.2383C162.856 29.9149 163.05 29.5786 163.192 29.2293L166.943 30.277C166.698 31.0402 166.348 31.7516 165.883 32.3984C165.417 33.0452 164.848 33.6144 164.201 34.0801C163.541 34.5587 162.804 34.9338 161.989 35.1925C161.174 35.4641 160.282 35.6063 159.337 35.6063C158.535 35.6063 157.772 35.5029 157.035 35.283C156.298 35.0631 155.625 34.7527 154.991 34.3646C154.357 33.9636 153.788 33.485 153.258 32.9288C152.74 32.3726 152.301 31.7516 151.938 31.066C151.576 30.3805 151.292 29.6561 151.085 28.8671C150.878 28.091 150.787 27.276 150.787 26.4223C150.787 25.1546 151.007 23.9646 151.447 22.8651C151.887 21.7526 152.495 20.7825 153.271 19.9546C154.047 19.1268 154.939 18.48 155.987 18.0014C157.022 17.5228 158.147 17.29 159.337 17.29C160.295 17.29 161.097 17.4063 161.756 17.6392C162.403 17.872 163.127 18.3507 163.916 19.0492H166.529V22.9944H162.92L162.895 22.9685Z" fill="black"/>
<path d="M170.63 17.5874H184.691V23.6281H180.888V21.1187H176.36V24.5982H179.866V27.9873H176.36V32.0749H180.888V28.9447H184.691V35.2699H170.63V32.0749H172.48V21.1187H170.63V17.5874Z" fill="black"/>
<path d="M193.629 20.7953V25.0768H195.944C196.384 25.0768 196.785 25.0381 197.134 24.9605C197.484 24.8829 197.794 24.7536 198.04 24.5725C198.298 24.4043 198.493 24.1844 198.622 23.9128C198.764 23.6412 198.829 23.3306 198.829 22.9684C198.829 22.2828 198.583 21.7525 198.092 21.3774C197.6 21.0022 196.888 20.8083 195.931 20.8083H193.616L193.629 20.7953ZM187.924 17.5874H197.277C198.182 17.5874 198.997 17.7167 199.721 18.0013C200.433 18.2729 201.041 18.635 201.532 19.0878C202.024 19.5405 202.399 20.071 202.658 20.679C202.916 21.2869 203.046 21.9078 203.046 22.5675C203.046 23.1625 202.981 23.6928 202.852 24.1455C202.722 24.5983 202.541 24.9993 202.295 25.3486C202.05 25.6979 201.752 26.0083 201.39 26.2799C201.028 26.5515 200.627 26.7845 200.161 27.0044C200.562 27.2113 200.911 27.5217 201.209 27.9357C201.506 28.3496 201.739 28.8929 201.894 29.5526L202.49 31.8551H203.951L203.977 35.2958H198.842L198.143 31.0918C198.079 30.6003 197.962 30.1605 197.82 29.7983C197.678 29.4361 197.484 29.1387 197.238 28.9188C196.992 28.6859 196.707 28.5177 196.358 28.4143C196.009 28.3108 195.608 28.2461 195.129 28.2461H193.629V32.1008H195.246V35.2958H187.924V32.1008H189.761V20.8212H187.924V17.6133V17.5874Z" fill="black"/>
<path d="M96.7172 44.7124V58.3722H99.4725C100.287 58.3722 101.064 58.1911 101.775 57.8418C102.499 57.4796 103.12 57.001 103.664 56.3801C104.194 55.7592 104.621 55.0348 104.931 54.194C105.242 53.3532 105.397 52.4607 105.397 51.4905C105.397 50.5204 105.242 49.6538 104.931 48.8259C104.621 47.9981 104.194 47.2866 103.664 46.6786C103.12 46.0707 102.499 45.5921 101.775 45.2428C101.051 44.8936 100.287 44.7124 99.4725 44.7124H96.7172ZM92.7461 42.6945H99.3302C100.132 42.6945 100.908 42.7981 101.646 43.0051C102.383 43.212 103.056 43.5095 103.689 43.8975C104.323 44.2726 104.892 44.7384 105.397 45.2687C105.914 45.7991 106.354 46.3941 106.703 47.0538C107.065 47.7135 107.337 48.4119 107.544 49.1621C107.738 49.9124 107.842 50.6886 107.842 51.5035C107.842 52.3184 107.751 53.1203 107.544 53.8706C107.35 54.6208 107.065 55.3323 106.703 55.992C106.341 56.6517 105.901 57.2597 105.397 57.79C104.879 58.3333 104.31 58.7991 103.689 59.1742C103.056 59.5623 102.383 59.8597 101.646 60.0667C100.908 60.2736 100.145 60.3771 99.3302 60.3771H92.7461V58.3722H94.4277V44.7124H92.7461V42.6945Z" fill="black"/>
<path d="M115.913 52.4218H121.372L118.617 44.5184L115.913 52.4218ZM121.98 58.3722H123.455L122.058 54.3621H115.254L113.895 58.3722H115.719V60.3771H109.976V58.3722H111.515L117.026 42.6945H120.467L125.964 58.3722H127.736V60.3771H121.993V58.3722H121.98Z" fill="black"/>
<path d="M138.357 58.5537C139.275 58.5537 140.116 58.3597 140.866 57.9846C141.616 57.6095 142.263 57.092 142.781 56.4452C143.311 55.7984 143.712 55.0611 144.009 54.2074C144.294 53.3537 144.436 52.4612 144.436 51.5299C144.436 50.5985 144.281 49.6413 143.958 48.7358C143.647 47.8433 143.207 47.0801 142.638 46.4592C142.069 45.8383 141.422 45.3597 140.672 45.0234C139.922 44.687 139.146 44.5189 138.344 44.5189C137.425 44.5189 136.572 44.713 135.821 45.0881C135.071 45.4762 134.424 45.9806 133.894 46.6273C133.364 47.2741 132.963 48.0114 132.665 48.8651C132.381 49.7189 132.238 50.6115 132.238 51.5428C132.238 52.6294 132.393 53.5995 132.717 54.4533C133.04 55.307 133.454 56.0185 133.985 56.5747C134.515 57.1438 135.136 57.6095 135.86 57.9975C136.585 58.3727 137.412 58.5666 138.344 58.5666M138.357 60.7269C137.141 60.7269 136.015 60.494 135.006 60.0413C133.997 59.5885 133.092 58.9418 132.303 58.101C131.514 57.2602 130.906 56.2642 130.492 55.113C130.078 53.9617 129.871 52.7717 129.871 51.5299C129.871 50.2881 130.078 49.0592 130.492 47.9338C130.906 46.8084 131.488 45.8383 132.238 45.0104C132.989 44.1826 133.881 43.5358 134.916 43.0572C135.951 42.5786 137.089 42.3458 138.344 42.3458C139.598 42.3458 140.737 42.5786 141.785 43.0572C142.832 43.5358 143.725 44.1955 144.462 45.0104C145.212 45.8383 145.794 46.8084 146.195 47.9338C146.609 49.0463 146.816 50.2493 146.816 51.5299C146.816 52.8105 146.609 54.0005 146.195 55.113C145.782 56.2254 145.199 57.2085 144.449 58.0364C143.699 58.8642 142.806 59.5238 141.772 60.0024C140.737 60.481 139.598 60.7139 138.344 60.7139" fill="black"/>
</svg>
