<svg width="215" height="32" viewBox="0 0 215 32" fill="none" xmlns="http://www.w3.org/2000/svg">
<path d="M47.8851 6.94008L46.6951 5.45508H34.5151V14.0701H45.8051V12.5851" stroke="#496E93" stroke-width="2"/>
<path d="M47.8851 24.17L46.6951 25.655H34.5151V17.04H45.8051V18.525" stroke="#496E93" stroke-width="2"/>
<path d="M48.1801 1L46.9901 2.485H30.0601L31.2501 3.675V27.44L30.0601 28.63H46.9901L48.1801 30.115" stroke="#496E93" stroke-width="2"/>
<path d="M104.92 2.18994L106.405 3.07994V27.7349L104.92 29.2199" stroke="#496E93" stroke-width="2"/>
<path d="M110.86 2.18994L109.375 3.07994V27.7349L110.86 29.2199" stroke="#496E93" stroke-width="2"/>
<path d="M151.26 2.18994L152.745 3.07994V27.7349L151.26 29.2199" stroke="#496E93" stroke-width="2"/>
<path d="M157.2 2.18994L155.715 3.07994V27.7349L157.2 29.2199" stroke="#496E93" stroke-width="2"/>
<path d="M164.925 1.88965L166.41 2.77965V27.4346L164.925 28.9196" stroke="#496E93" stroke-width="2"/>
<path d="M171.165 29.2201L169.38 27.7351V7.2401L181.56 28.6301H180.67M171.165 2.19011H169.38L182.45 23.5801V3.0851L180.965 1.6001" stroke="#496E93" stroke-width="2"/>
<path d="M186.91 1.88965L185.425 2.77965V27.4346L186.91 28.9196" stroke="#496E93" stroke-width="2"/>
<path d="M3.25004 2.18994H12.835C18.415 2.18994 22.935 6.70993 22.935 12.2899V18.8249C22.935 24.4049 18.415 28.9249 12.835 28.9249H3.33004H3.16504L3.84504 27.7349L3.92504 27.5999V27.4399V3.37494V3.19493L3.82504 3.04494L3.25004 2.18994Z" stroke="#496E93" stroke-width="2"/>
<path d="M6.29492 4.56494H12.8299C17.0949 4.56494 20.5549 8.02493 20.5549 12.2899V18.8249C20.5549 23.0899 17.0949 26.5499 12.8299 26.5499H6.29492V4.56494Z" stroke="#496E93" stroke-width="2"/>
<path d="M74.6201 24.4697C73.9251 26.4497 71.4701 30.4697 67.1951 30.7097" stroke="#496E93" stroke-width="2"/>
<path d="M71.9449 4.56493C71.0549 3.67493 69.2699 1.29492 63.3299 1.29492C57.6849 1.29492 54.4199 3.37493 54.4199 9.01993C54.4199 14.6649 60.0649 17.0399 63.0349 17.0399C66.8949 17.0399 69.8699 18.2299 69.2749 21.4949C68.6799 24.7649 66.3049 25.9499 63.0349 25.9499C60.4199 25.9499 57.7849 24.1649 56.7949 23.2749" stroke="#496E93" stroke-width="2"/>
<path d="M69.8651 6.94471C68.6751 5.55971 64.3401 2.96471 60.0601 4.86471C54.7151 7.23971 57.3851 13.7747 64.5151 13.7797C71.6451 13.7797 73.2301 18.2347 72.5351 22.3947C71.6451 27.7397 62.4351 32.4947 53.5251 25.0697" stroke="#496E93" stroke-width="2"/>
<path d="M145.615 24.4697C144.92 26.4497 142.465 30.4697 138.19 30.7097" stroke="#496E93" stroke-width="2"/>
<path d="M142.945 4.56493C142.055 3.67493 140.27 1.29492 134.33 1.29492C128.685 1.29492 125.42 3.37493 125.42 9.01993C125.42 14.6649 131.065 17.0399 134.035 17.0399C137.895 17.0399 140.865 18.2299 140.275 21.4949C139.68 24.7649 137.305 25.9499 134.035 25.9499C131.42 25.9499 128.785 24.1649 127.795 23.2749" stroke="#496E93" stroke-width="2"/>
<path d="M140.865 6.94471C139.675 5.55971 135.34 2.96471 131.06 4.86471C125.715 7.23971 128.385 13.7747 135.515 13.7797C142.645 13.7797 144.23 18.2347 143.535 22.3947C142.645 27.7397 133.435 32.4947 124.525 25.0697" stroke="#496E93" stroke-width="2"/>
<path d="M132.525 18.4952L131.05 16.4502L134.57 17.0252L132.525 18.4952Z" fill="#0C8DCF" stroke="#496E93" stroke-width="2" stroke-miterlimit="10"/>
<path d="M94.5249 8.74524V6.96024C94.5249 5.97024 93.5149 3.99023 89.4749 3.99023C84.4249 3.99023 83.5349 5.47524 83.5349 9.93024C83.5349 13.4952 83.5349 18.3452 83.5349 20.9202C83.5349 24.1902 84.7149 25.0802 89.4749 25.0802C95.1199 25.0802 94.5249 21.8102 94.5249 20.3252" stroke="#496E93" stroke-width="2"/>
<path d="M100.465 23.6001C99.77 25.5801 97.315 29.6001 93.04 29.8401" stroke="#496E93" stroke-width="2"/>
<path d="M98.68 9.04012C98.385 6.66512 96.185 1.85012 89.77 1.61512C81.75 1.31512 79.965 4.29012 79.965 12.9051C79.965 16.7051 79.965 20.8251 79.965 22.4101C79.765 24.5901 81.45 28.7651 89.77 28.0551C96.305 28.0551 98.68 22.7051 98.68 20.6301" stroke="#496E93" stroke-width="2"/>
<path d="M208.295 14.9651C208.295 16.4051 208.295 17.7501 208.195 18.9651C208.095 20.1801 207.9 21.2252 207.525 22.0802C207.16 22.9202 206.625 23.5752 205.835 24.0302C205.035 24.4902 203.92 24.7702 202.35 24.7702C200.785 24.7702 199.67 24.4902 198.865 24.0302C198.075 23.5752 197.54 22.9252 197.175 22.0802C196.805 21.2252 196.605 20.1801 196.505 18.9651C196.405 17.7501 196.405 16.4101 196.405 14.9651C196.405 13.5201 196.405 12.1801 196.505 10.9651C196.605 9.75015 196.8 8.70514 197.175 7.85014C197.54 7.01014 198.075 6.35515 198.865 5.90015C199.665 5.44015 200.78 5.16016 202.35 5.16016C203.76 5.16016 204.8 5.43516 205.575 5.89516C206.345 6.35016 206.905 7.01514 207.31 7.86514C208.14 9.61014 208.295 12.0801 208.295 14.9651Z" stroke="#496E93" stroke-width="2"/>
<path d="M210.675 14.9651C210.675 16.9001 210.675 18.7101 210.54 20.3501C210.405 21.9901 210.13 23.4201 209.615 24.5951C209.1 25.7601 208.345 26.6751 207.22 27.3101C206.085 27.9501 204.525 28.3301 202.36 28.3301C200.195 28.3301 198.635 27.9501 197.5 27.3101C196.375 26.6751 195.62 25.7601 195.105 24.5951C194.585 23.4201 194.315 21.9901 194.18 20.3501C194.045 18.7101 194.045 16.9001 194.045 14.9651C194.045 13.0301 194.045 11.2201 194.18 9.58011C194.315 7.94011 194.59 6.5101 195.105 5.3351C195.62 4.1701 196.375 3.2551 197.5 2.6201C198.635 1.9801 200.195 1.6001 202.36 1.6001C204.31 1.6001 205.77 1.9751 206.87 2.6151C207.965 3.2501 208.75 4.1751 209.315 5.3501C210.46 7.7351 210.675 11.0951 210.675 14.9651Z" stroke="#496E93" stroke-width="2"/>
<path d="M212.75 23.5752C212.055 25.5552 209.6 29.5752 205.325 29.8152" stroke="#496E93" stroke-width="2"/>
<path d="M29.3301 14.9701L31.1101 13.1851V16.7501L29.3301 14.9701Z" fill="#4191CF" stroke="#496E93" stroke-width="2" stroke-miterlimit="10"/>
<path d="M104.78 15.2699L106.565 13.4849V17.0499L104.78 15.2699Z" fill="#4191CF" stroke="#496E93" stroke-width="2" stroke-miterlimit="10"/>
<path d="M110.725 15.2699L108.945 13.4849V17.0499L110.725 15.2699Z" fill="#4191CF" stroke="#496E93" stroke-width="2" stroke-miterlimit="10"/>
<path d="M151.125 15.2699L152.91 13.4849V17.0499L151.125 15.2699Z" fill="#4191CF" stroke="#496E93" stroke-width="2" stroke-miterlimit="10"/>
<path d="M157.065 15.2699L155.285 13.4849V17.0499L157.065 15.2699Z" fill="#4191CF" stroke="#496E93" stroke-width="2" stroke-miterlimit="10"/>
<path d="M164.79 14.9701L166.57 13.1851V16.7501L164.79 14.9701Z" fill="#4191CF" stroke="#496E93" stroke-width="2" stroke-miterlimit="10"/>
<path d="M186.77 14.9701L184.99 13.1851V16.7501L186.77 14.9701Z" fill="#4191CF" stroke="#496E93" stroke-width="2" stroke-miterlimit="10"/>
<path d="M2 14.9701L3.78 13.1851V16.7501L2 14.9701Z" fill="#4191CF" stroke="#496E93" stroke-width="2" stroke-miterlimit="10"/>
<path d="M7.84494 14.9701L6.06494 13.1851V16.7501L7.84494 14.9701Z" fill="#4191CF" stroke="#496E93" stroke-width="2" stroke-miterlimit="10"/>
<path d="M24.5749 14.9701L22.7949 13.1851V16.7501L24.5749 14.9701Z" fill="#4191CF" stroke="#496E93" stroke-width="2" stroke-miterlimit="10"/>
<path d="M18.9299 14.9701L20.7099 13.1851V16.7501L18.9299 14.9701Z" fill="#4191CF" stroke="#496E93" stroke-width="2" stroke-miterlimit="10"/>
<path d="M63.425 11.6548L64.9451 13.6648L61.415 13.1698L63.425 11.6548Z" fill="#4191CF" stroke="#496E93" stroke-width="2" stroke-miterlimit="10"/>
<path d="M61.39 18.2052L59.915 16.1602L63.435 16.7352L61.39 18.2052Z" fill="#4191CF" stroke="#496E93" stroke-width="2" stroke-miterlimit="10"/>
<path d="M134.42 11.6548L135.94 13.6648L132.41 13.1698L134.42 11.6548Z" fill="#4191CF" stroke="#496E93" stroke-width="2" stroke-miterlimit="10"/>
<path d="M78.0449 14.0999L79.8249 12.3149V15.8799L78.0449 14.0999Z" fill="#4191CF" stroke="#496E93" stroke-width="2" stroke-miterlimit="10"/>
<path d="M85.175 14.0999L83.395 12.3149V15.8799L85.175 14.0999Z" fill="#4191CF" stroke="#496E93" stroke-width="2" stroke-miterlimit="10"/>
<path d="M198.465 14.3797L196.68 12.5947V16.1597L198.465 14.3797Z" fill="#4191CF" stroke="#496E93" stroke-width="2" stroke-miterlimit="10"/>
<path d="M212.91 14.3797L211.125 12.5947V16.1597L212.91 14.3797Z" fill="#4191CF" stroke="#496E93" stroke-width="2" stroke-miterlimit="10"/>
<path d="M206.175 14.3797L207.96 12.5947V16.1597L206.175 14.3797Z" fill="#4191CF" stroke="#496E93" stroke-width="2" stroke-miterlimit="10"/>
<path d="M191.525 14.3797L193.31 12.5947V16.1597L191.525 14.3797Z" fill="#4191CF" stroke="#496E93" stroke-width="2" stroke-miterlimit="10"/>
</svg>
