<svg width="87" height="99" viewBox="0 0 87 99" fill="none" xmlns="http://www.w3.org/2000/svg">
<path d="M49.0488 42.7168H50.9374V54.2809H49.0488V57.5535H56.8488V54.2809H54.9215V42.7168H56.8488V39.4441H49.0488V42.7168Z" fill="#C9A4FF"/>
<path d="M41.2489 39.4441H36.4369L31.4827 54.2809H30.1245V57.5535H37.032V54.2809H35.1175L35.9325 51.6809H41.5205L42.3355 54.2809H40.5245V57.5535H47.432V54.2809H46.1126L41.2618 39.4441H41.2489ZM36.8768 48.6152L38.7006 42.7297L40.5504 48.6152H36.8768Z" fill="#C9A4FF"/>
<path d="M84.3882 67.0093C84.2847 66.9575 84.1812 66.9186 84.0777 66.8668C84.6986 64.0858 84.5822 60.9813 83.7026 57.6957C82.8877 54.6559 81.4518 51.5514 79.5115 48.4599C83.5344 42.0052 85.2548 35.5505 84.0777 30.1177C84.1812 30.066 84.2847 30.0401 84.3752 29.9754C86.4966 28.7595 87.221 26.056 85.9922 23.9346C84.7633 21.8132 82.0598 21.0888 79.9514 22.3177C79.8608 22.3694 79.7961 22.4341 79.7056 22.4988C75.7991 18.9028 69.7066 17.0529 62.0489 17.2211C61.8548 17.2211 61.6608 17.2211 61.4668 17.234C57.8061 10.3783 52.9553 5.60518 47.5096 4.0012C47.2379 1.81513 45.4011 0.120605 43.1374 0.120605C40.8737 0.120605 38.9076 1.93161 38.7523 4.22116C33.5653 6.01917 28.9344 10.7277 25.416 17.3635C17.8359 17.1177 11.4071 18.8381 7.2807 22.5376C7.17722 22.4729 7.08668 22.3823 6.98319 22.3177C4.8618 21.1017 2.15832 21.8261 0.942401 23.9346C-0.27352 26.056 0.450858 28.7595 2.55932 29.9754C2.6628 30.0272 2.76627 30.066 2.86975 30.1177C2.24886 32.8988 2.36528 36.0032 3.24489 39.2888C4.05981 42.3286 5.49562 45.4331 7.43592 48.5246C3.41303 54.9794 1.69264 61.434 2.86975 66.8668C2.76627 66.9186 2.66279 66.9446 2.57224 67.0093C0.450851 68.2252 -0.273527 70.9415 0.955329 73.05C2.18418 75.1714 4.88766 75.8957 6.99612 74.6669C7.08667 74.6151 7.16429 74.5504 7.2419 74.4858C11.1742 78.0818 17.2797 79.9446 24.8986 79.7635C25.0926 79.7635 25.2867 79.7635 25.4807 79.7505C29.0121 86.3734 33.6688 91.043 38.8817 92.8022C38.7912 93.1515 38.7265 93.5266 38.7265 93.9017C38.7265 96.3465 40.7056 98.3256 43.1503 98.3256C45.5951 98.3256 47.5742 96.3465 47.5742 93.9017C47.5742 93.5913 47.5354 93.2938 47.4837 92.9963C52.9683 91.3923 57.8578 86.5673 61.5315 79.634C62.0101 79.6469 62.5016 79.6599 62.9802 79.6599C69.9394 79.6599 75.812 77.9267 79.6797 74.4471C79.7832 74.5118 79.8737 74.6022 79.9772 74.6539C82.0986 75.8828 84.8021 75.1455 86.018 73.037C87.2339 70.9156 86.5096 68.2122 84.4011 66.9963L84.3882 67.0093ZM78.7613 23.3783C77.6359 24.7624 77.416 26.7415 78.3603 28.3713C79.3046 30.0012 81.1155 30.7903 82.8747 30.5186C83.9225 35.4858 82.3961 41.3584 78.7872 47.3086C75.8767 42.9624 71.9444 38.6938 67.2747 34.7873C66.2011 28.7077 64.4419 23.1843 62.1394 18.5275C69.3315 18.3723 75.0877 20.0798 78.7613 23.3912V23.3783ZM67.5981 36.7535C71.8409 40.466 75.3852 44.45 78.024 48.4987C75.4111 52.5087 71.9056 56.5186 67.6111 60.2828C68.1802 56.5186 68.4777 52.5734 68.4777 48.4987C68.4777 44.4241 68.1673 40.5048 67.5981 36.7535ZM67.1842 48.4987C67.1842 53.052 66.8091 57.437 66.1105 61.5634C62.8897 64.2281 59.2807 66.7505 55.3354 69.0271C51.4678 71.2649 47.5096 73.1147 43.5643 74.5894C39.619 73.1277 35.6091 71.2649 31.6379 68.9753C27.7315 66.7246 24.1225 64.2023 20.8757 61.5118C20.1772 57.3983 19.7892 53.0261 19.7892 48.4987C19.7892 43.9714 20.1643 39.5605 20.8628 35.4341C24.0837 32.7694 27.6926 30.247 31.6379 27.9704C35.5056 25.7326 39.4638 23.8828 43.4091 22.4081C47.3543 23.8698 51.3643 25.7326 55.3354 28.0222C59.229 30.2729 62.8509 32.7952 66.0976 35.4857C66.7961 39.5992 67.1842 43.9714 67.1842 48.4987ZM65.7225 33.5068C62.7344 31.1267 59.4618 28.9018 55.9822 26.8968C52.425 24.853 48.8419 23.1325 45.2847 21.7484C50.6011 19.9375 55.8528 18.8251 60.7812 18.5664C62.9414 22.835 64.6359 27.9187 65.7354 33.5068H65.7225ZM38.8688 5.56648C39.3344 7.50678 41.0678 8.96832 43.1633 8.96832C45.2588 8.96832 47.1344 7.40324 47.5096 5.34653C52.3732 6.88583 56.7454 11.1674 60.1086 17.3117C54.7921 17.661 49.1135 18.9545 43.4091 21.0371C37.627 18.9545 31.9872 17.7514 26.826 17.4151C30.0727 11.4778 34.225 7.26101 38.8817 5.56648H38.8688ZM26.1792 18.6311C30.9394 18.8898 36.1394 19.9247 41.5205 21.7356C37.9892 23.1327 34.4449 24.8401 30.9782 26.845C27.4469 28.8888 24.1872 31.1137 21.2121 33.4809C22.3116 27.9057 24.019 22.8869 26.1792 18.6311ZM4.49961 38.9654C3.68469 35.9256 3.56827 33.0798 4.11155 30.5186C5.85782 30.7903 7.66876 29.9882 8.61304 28.3713C9.54438 26.7544 9.33743 24.7883 8.23792 23.4042C11.8469 20.1704 17.3702 18.5664 23.9285 18.5664C24.213 18.5664 24.5106 18.5664 24.8081 18.5793C22.5185 23.2231 20.7593 28.7077 19.6857 34.7485C14.9643 38.7196 11.0966 43.0271 8.22497 47.3475C6.51751 44.5405 5.24986 41.7206 4.51254 38.9654H4.49961ZM19.3752 60.244C15.1325 56.5315 11.5882 52.5475 8.94935 48.4987C11.5623 44.4888 15.0678 40.4789 19.3623 36.7147C18.7931 40.4789 18.4956 44.4241 18.4956 48.4987C18.4956 52.5734 18.8061 56.4927 19.3752 60.244ZM8.21205 73.6192C9.33742 72.2351 9.57024 70.256 8.62597 68.6262C7.68169 66.9963 5.87076 66.2072 4.11155 66.4789C3.06379 61.5117 4.59016 55.6391 8.19912 49.6889C11.1096 54.0351 15.0419 58.3037 19.7115 62.2102C20.7852 68.2898 22.5444 73.8132 24.8469 78.4699C17.5902 78.6252 11.8727 76.9177 8.22497 73.6192H8.21205ZM21.2379 63.4907C24.226 65.8708 27.4986 68.0957 30.9782 70.1007C34.5225 72.1445 38.1185 73.865 41.6757 75.2491C36.3593 77.06 31.1076 78.1724 26.1921 78.4311C24.0319 74.1625 22.3374 69.0788 21.2379 63.4907ZM47.018 91.7932C46.2678 90.4221 44.8319 89.4907 43.1503 89.4907C41.4688 89.4907 40.1623 90.3574 39.3862 91.6251C34.5484 90.0599 30.215 85.7913 26.8648 79.6858C32.1812 79.3365 37.8469 78.043 43.5643 75.9604C49.3464 78.043 54.9862 79.246 60.1603 79.5694C56.6678 85.9724 52.1145 90.3833 47.0309 91.7932H47.018ZM60.7812 78.3534C56.021 78.0947 50.8081 77.0729 45.4399 75.2491C48.9842 73.8391 52.5155 72.1445 55.9822 70.1395C59.5135 68.0957 62.7732 65.8708 65.7484 63.4907C64.6489 69.0659 62.9414 74.0847 60.7812 78.3405V78.3534ZM82.8489 66.4789C81.1026 66.2072 79.2916 67.0093 78.3474 68.6262C77.416 70.2431 77.623 72.2092 78.7225 73.5804C74.9454 76.9565 69.0986 78.5604 62.1523 78.4052C64.4419 73.7614 66.2011 68.2768 67.2747 62.2361C71.9961 58.2649 75.8509 53.9575 78.7354 49.6371C80.4429 52.444 81.7106 55.2639 82.4479 58.0191C83.2628 61.0589 83.3792 63.9047 82.8359 66.4659L82.8489 66.4789Z" fill="#C9A4FF"/>
</svg>
