<svg width="165" height="35" viewBox="0 0 165 35" fill="none" xmlns="http://www.w3.org/2000/svg">
<path d="M0 0.638184C15.7407 0.638184 15.7407 0.638182 19.4112 3.97936C22.1685 6.88235 22.9355 10.753 22.8624 14.6237C22.7346 18.0196 21.7303 21.2877 19.3198 23.7525C13.8964 28.4813 7.01212 26.9294 0 26.9294C0 18.257 0 9.5845 0 0.638184Z" fill="#0C9BFE"/>
<path d="M77.4253 0.638184C79.4157 0.638184 81.4061 0.638184 83.4513 0.638184C84.5652 3.43163 85.5878 6.27984 86.5922 9.10979C86.8296 9.76708 87.0487 10.4061 87.2861 11.0634C87.7974 12.4692 88.2904 13.8751 88.7835 15.2627C88.9661 15.7922 89.1669 16.3216 89.3495 16.8511C90.7739 20.8313 90.7739 20.8313 91.3582 22.4928C91.5591 23.0405 91.76 23.6065 91.9608 24.1542C92.0704 24.4281 92.1617 24.7202 92.2713 25.0123C92.326 25.1401 92.3626 25.268 92.4173 25.414C92.5999 25.9435 92.746 26.3634 92.746 26.9477C91.066 26.9477 89.3678 26.9477 87.633 26.9477C86.8113 24.8845 86.8113 24.8845 86.5556 24.1177C86.5009 23.9534 86.4461 23.7891 86.3913 23.6065C86.3365 23.4422 86.2817 23.2779 86.227 23.0953C86.1722 22.931 86.1174 22.7484 86.0443 22.5841C85.9896 22.4197 85.9348 22.2554 85.88 22.0911C85.8252 21.945 85.7887 21.799 85.7339 21.6529C85.6244 21.2877 85.6244 21.2877 85.6244 20.9226C82.2461 20.9226 78.8679 20.9226 75.3983 20.9226C75.2157 21.5799 75.0331 22.2554 74.8505 22.9309C74.741 23.2778 74.6314 23.6248 74.5218 23.9534C74.467 24.1177 74.4123 24.282 74.3575 24.4646C74.3027 24.6289 74.2479 24.7933 74.1931 24.9576C74.1384 25.1401 74.0836 25.3045 74.0105 25.487C73.9557 25.6514 73.901 25.8157 73.8462 25.98C73.7914 26.1261 73.7549 26.2721 73.7001 26.4182C73.5723 26.7651 73.5723 26.7651 73.3897 26.9477C73.0062 26.9659 72.6227 26.9659 72.2575 26.9659C72.0201 26.9659 71.801 26.9659 71.5636 26.9659C71.3262 26.9659 71.0706 26.9659 70.8332 26.9659C70.5775 26.9659 70.3401 26.9659 70.1027 26.9659C69.5001 26.9659 68.8975 26.9659 68.2949 26.9659C68.4045 26.3452 68.5688 25.7609 68.7697 25.1767C68.8245 24.9941 68.8975 24.8298 68.9523 24.6472C69.0071 24.4646 69.0801 24.2638 69.1532 24.0812C69.2627 23.7891 69.2627 23.7891 69.354 23.4787C69.5732 22.8214 69.8106 22.1824 70.0297 21.5251C70.194 21.0687 70.3401 20.6122 70.5045 20.1558C71.8192 16.3399 73.1705 12.5423 74.5218 8.74464C74.9236 7.61266 75.3253 6.48068 75.727 5.33044C75.7818 5.18438 75.8366 5.03831 75.8914 4.87399C76.0923 4.32626 76.2749 3.76026 76.4757 3.21253C76.6036 2.84737 76.7314 2.48222 76.8592 2.11706C76.9322 1.91622 77.0053 1.7154 77.0783 1.4963C77.2427 1.00334 77.2427 1.00334 77.4253 0.638184Z" fill="#4135FE"/>
<path d="M63.3282 2.22633C64.7161 3.28528 65.6291 4.63635 66.1039 6.29781C66.1952 7.2107 66.1952 7.2107 66.2865 8.12359C64.6065 8.12359 62.9083 8.12359 61.1735 8.12359C60.9909 7.57586 60.8083 7.04638 60.6257 6.48039C59.8587 5.25712 58.7813 4.85544 57.43 4.54506C55.7683 4.27119 53.9605 4.47203 52.4996 5.36666C51.8788 5.87788 51.5683 6.2613 51.3127 7.02812C51.2396 7.86798 51.2214 8.30617 51.6049 9.073C53.1753 10.844 56.0787 11.1909 58.2883 11.6656C61.0822 12.2864 64.0404 13.108 65.7387 15.591C66.7613 17.4716 66.9439 19.5712 66.5239 21.6526C65.8482 23.6975 64.3874 25.2677 62.4883 26.2536C61.9404 26.4909 61.3744 26.71 60.8083 26.9109C60.5526 27.0021 60.5526 27.0021 60.2787 27.0934C56.7909 28.0794 52.7553 27.6594 49.5962 25.9249C47.7336 24.7747 46.4006 23.0037 45.8345 20.8858C45.8345 20.2833 45.8345 19.6808 45.8345 19.06C47.4049 19.06 48.9753 19.06 50.5823 19.06C50.8197 19.7903 51.057 20.5024 51.3127 21.2509C51.9336 22.3099 52.9379 22.7116 54.0518 23.0767C54.6544 23.1315 55.2753 23.1132 55.8961 23.1132C56.0605 23.1132 56.2248 23.1132 56.3892 23.1315C57.5944 23.1315 58.5805 22.9307 59.7126 22.529C59.8952 22.4742 60.0778 22.4194 60.2604 22.3647C60.717 22.1273 60.8083 21.9265 60.9909 21.4335C61.0822 21.2509 61.0822 21.2509 61.1917 21.0501C61.5022 20.0277 61.5204 19.06 61.0822 18.0923C59.7309 16.6682 57.5944 16.4857 55.75 16.084C54.2527 15.7553 52.7918 15.3902 51.3492 14.8607C51.2396 14.8242 51.1118 14.7694 50.984 14.7329C49.9614 14.3312 49.1579 13.8018 48.391 13.0532C48.2814 12.9619 48.1901 12.8524 48.0805 12.7428C46.6745 11.2274 46.3092 9.45641 46.3458 7.44805C46.5284 5.31189 47.3866 3.77823 48.9023 2.33587C52.8649 -0.950535 59.2013 -0.567117 63.3282 2.22633Z" fill="#2B58FE"/>
<path d="M39.8084 9.21884C41.8354 10.7342 42.7119 13.199 43.0954 15.6091C43.0954 16.6315 43.0954 17.6539 43.0954 18.7129C38.7493 18.7129 34.4215 18.7129 29.9477 18.7129C30.4772 21.3238 30.4772 21.3238 32.1755 23.0948C33.3624 23.7338 34.6041 23.8433 35.9189 23.5147C37.0876 23.0948 37.7815 22.5835 38.3476 21.4516C39.845 21.4516 41.3606 21.4516 42.9128 21.4516C42.1093 23.8433 41.105 25.3222 38.8954 26.5637C38.3476 26.7828 37.818 26.9654 37.2519 27.1115C37.1241 27.148 36.9963 27.1845 36.8685 27.2028C34.7137 27.5314 32.3033 27.5314 30.3129 26.5637C30.0755 26.4542 30.0755 26.4542 29.8198 26.3264C27.9025 25.2857 26.6972 23.6608 25.9303 21.6341C25.0173 18.5303 24.9807 14.9335 26.5512 12.0305C28.012 9.78483 29.9842 8.47027 32.5772 7.83124C35.0789 7.44783 37.6719 7.84951 39.8084 9.21884Z" fill="#187AFE"/>
<path d="M4.93066 4.83691C13.3123 4.83691 13.3123 4.83691 15.668 6.95481C17.5306 8.94491 18.0053 11.7018 17.9688 14.3492C17.8958 16.5767 17.3662 18.9502 15.8323 20.6482C12.7097 23.4233 8.98455 22.9121 4.94892 22.9121C4.93066 16.9418 4.93066 10.9898 4.93066 4.83691Z" fill="white"/>
<path d="M130.564 8.30635C132.135 8.30635 133.705 8.30635 135.312 8.30635C135.659 9.20098 135.97 10.0956 136.28 11.0085C136.317 11.118 136.353 11.2276 136.39 11.3554C136.517 11.7206 136.627 12.104 136.755 12.4691C136.846 12.7247 136.919 12.9803 137.01 13.2542C137.23 13.9297 137.449 14.6235 137.668 15.2991C137.887 15.9929 138.124 16.6867 138.344 17.3805C138.782 18.7498 139.238 20.1009 139.677 21.4702C139.987 21.0138 140.133 20.7217 140.297 20.2104C140.334 20.0644 140.389 19.9183 140.444 19.7722C140.498 19.6262 140.535 19.4619 140.59 19.2975C140.644 19.1332 140.699 18.9689 140.754 18.8046C140.918 18.2751 141.083 17.7456 141.265 17.2344C141.375 16.8692 141.503 16.5224 141.612 16.1572C142.105 14.6053 142.617 13.0716 143.091 11.5197C143.164 11.3006 143.219 11.0998 143.292 10.8807C143.42 10.4973 143.53 10.1139 143.657 9.73046C143.712 9.56614 143.767 9.40182 143.822 9.21924C143.858 9.07318 143.913 8.94538 143.95 8.79931C144.059 8.48893 144.059 8.48893 144.242 8.30635C144.57 8.28809 144.899 8.28809 145.228 8.28809C145.429 8.28809 145.63 8.28809 145.83 8.28809C146.141 8.28809 146.141 8.28809 146.451 8.28809C146.762 8.28809 146.762 8.28809 147.09 8.28809C147.602 8.28809 148.113 8.28809 148.643 8.28809C148.204 10.0773 147.583 11.7753 146.963 13.5098C146.798 13.9845 146.616 14.4592 146.451 14.9339C146.342 15.2626 146.214 15.5912 146.104 15.9199C145.611 17.2709 145.137 18.6037 144.662 19.9548C144.096 21.5433 143.53 23.1134 142.963 24.7018C142.836 25.0853 142.69 25.4504 142.562 25.8338C140.279 32.2423 140.279 32.2423 137.485 33.6847C136.682 34.0681 135.988 34.2689 135.093 34.2689C134.965 34.2689 134.837 34.2689 134.691 34.2689C134.527 34.2689 134.363 34.2689 134.198 34.2689C133.669 34.2689 133.139 34.2689 132.61 34.2507C132.61 33.1004 132.61 31.9684 132.61 30.7817C133.011 30.7452 133.413 30.6904 133.815 30.6356C135.166 30.4531 135.166 30.4531 136.262 29.6862C136.828 28.7733 137.504 27.6596 137.284 26.5459C137.23 26.4181 137.193 26.272 137.138 26.1442C137.047 25.9069 137.047 25.9069 136.974 25.6695C136.919 25.5052 136.846 25.3409 136.791 25.1583C136.718 24.9757 136.664 24.7931 136.59 24.6106C136.371 24.0263 136.152 23.4421 135.933 22.8396C135.787 22.4379 135.641 22.0179 135.495 21.6163C135.111 20.5573 134.71 19.4984 134.326 18.4394C134.089 17.8187 133.87 17.1979 133.632 16.5771C133.066 15.0617 132.518 13.5463 131.952 12.0309C131.861 11.7753 131.861 11.7753 131.77 11.5197C131.66 11.2093 131.532 10.899 131.423 10.5886C131.368 10.4425 131.313 10.3147 131.258 10.1686C131.222 10.0591 131.167 9.9313 131.131 9.80349C130.893 9.29227 130.729 8.79931 130.564 8.30635Z" fill="#511FFE"/>
<path d="M150.286 8.30615C154.924 8.30615 159.562 8.30615 164.347 8.30615C164.347 11.8664 164.347 11.8664 163.233 13.0349C162.995 13.3088 162.758 13.5826 162.521 13.8565C162.393 14.0026 162.283 14.1304 162.155 14.2765C161.553 14.9885 161.005 15.7371 160.475 16.5039C159.763 17.4898 159.033 18.4575 158.302 19.4069C157.316 20.6849 156.367 21.9812 155.417 23.2775C158.375 23.2775 161.315 23.2775 164.365 23.2775C164.365 24.4826 164.365 25.6876 164.365 26.9291C159.672 26.9291 154.961 26.9291 150.122 26.9291C150.122 22.7846 150.122 22.7846 151.4 21.5065C152.039 20.831 152.569 20.0824 153.098 19.3339C153.299 19.06 153.5 18.7679 153.701 18.494C153.81 18.3479 153.902 18.2019 154.011 18.0558C154.559 17.289 155.125 16.5404 155.673 15.7736C155.782 15.6275 155.874 15.4997 155.983 15.3537C156.604 14.5138 157.243 13.6739 157.901 12.8523C158.193 12.4872 158.193 12.4872 158.339 11.9394C155.691 11.9394 153.043 11.9394 150.304 11.9394C150.286 10.7527 150.286 9.54768 150.286 8.30615Z" fill="#4F22FE"/>
<path d="M112.303 8.306C116.321 7.88607 116.321 7.88607 117.416 8.5251C118.019 9.1276 118.348 9.85791 118.676 10.643C119.005 11.355 119.462 12.0123 119.9 12.6879C120.064 12.9435 120.21 13.1808 120.356 13.4364C120.466 13.619 120.575 13.8016 120.685 13.9842C121.233 13.4547 121.653 12.9252 122.073 12.2862C122.201 12.1036 122.31 11.921 122.438 11.7385C122.566 11.5559 122.675 11.355 122.803 11.1542C123.041 10.7708 123.296 10.3874 123.534 10.0222C123.643 9.85791 123.753 9.69359 123.862 9.51101C123.954 9.36495 124.063 9.20063 124.173 9.05457C124.246 8.9085 124.337 8.7807 124.41 8.63464C124.721 8.32426 124.721 8.32426 125.195 8.25123C125.469 8.25123 125.469 8.25122 125.762 8.26948C125.962 8.26948 126.163 8.26948 126.382 8.26948C126.602 8.26948 126.802 8.28774 127.022 8.28774C127.241 8.28774 127.46 8.28774 127.679 8.28774C128.208 8.28774 128.738 8.306 129.268 8.32425C128.555 9.78488 127.588 11.1177 126.675 12.4505C126.583 12.5783 126.51 12.6879 126.419 12.8157C125.944 13.4912 125.469 14.1668 124.995 14.824C124.885 14.9701 124.794 15.0979 124.684 15.244C124.483 15.5178 124.282 15.7734 124.082 16.0473C123.954 16.2299 123.954 16.2299 123.808 16.4125C123.735 16.522 123.643 16.6316 123.57 16.7411C123.351 17.2341 123.442 17.4897 123.607 18.0009C123.862 18.4756 123.862 18.4756 124.209 18.9685C124.337 19.1511 124.447 19.3337 124.575 19.5163C124.702 19.7171 124.83 19.8997 124.976 20.1005C125.104 20.3014 125.25 20.5022 125.378 20.703C125.762 21.269 126.145 21.835 126.528 22.3828C126.675 22.5836 126.675 22.5836 126.802 22.7844C127.368 23.6243 127.953 24.4641 128.555 25.2857C128.665 25.4501 128.793 25.6144 128.921 25.797C129.03 25.943 129.122 26.0891 129.231 26.2352C129.45 26.5821 129.45 26.582 129.45 26.9472C128.683 27.002 127.916 27.0385 127.149 27.0568C126.93 27.075 126.711 27.0933 126.492 27.1115C124.922 27.148 124.922 27.148 124.301 26.6003C123.972 26.1256 123.68 25.6326 123.406 25.1214C123.187 24.7928 122.949 24.4459 122.712 24.1172C122.493 23.7886 122.255 23.4417 122.036 23.1131C121.854 22.8575 121.854 22.8575 121.689 22.6019C121.58 22.4375 121.47 22.2732 121.361 22.1089C121.269 21.9628 121.16 21.8168 121.069 21.6707C120.849 21.3056 120.849 21.3056 120.849 20.9404C120.229 21.5246 119.736 22.1089 119.261 22.8392C119.133 23.0218 119.005 23.2226 118.896 23.4052C118.822 23.5147 118.768 23.606 118.695 23.7156C118.293 24.3181 117.891 24.9388 117.489 25.5414C117.416 25.6692 117.325 25.7787 117.252 25.9065C116.686 26.7646 116.686 26.7646 116.485 26.9655C116.138 26.9837 115.773 26.9837 115.426 26.9837C115.097 26.9837 115.097 26.9837 114.787 26.9837C114.44 26.9837 114.44 26.9837 114.111 26.9837C113.764 26.9837 113.764 26.9837 113.417 26.9837C112.851 26.9837 112.303 26.9837 111.737 26.9837C112.65 25.5048 113.618 24.099 114.623 22.6749C115.444 21.5064 116.248 20.3196 117.033 19.1329C117.252 18.8042 117.453 18.4938 117.672 18.1835C117.763 18.0557 117.855 17.9096 117.946 17.7818C118.001 17.6905 118.074 17.5992 118.129 17.5079C117.289 15.7552 116.01 14.1667 114.915 12.5601C114.75 12.3045 114.75 12.3045 114.568 12.0488C114.458 11.8845 114.349 11.7202 114.221 11.5559C114.111 11.3916 114.002 11.2272 113.892 11.0629C113.436 10.4056 112.979 9.74836 112.504 9.10934C112.303 8.67115 112.303 8.67116 112.303 8.306Z" fill="#521FFE"/>
<path d="M96.4165 0.638184C98.0965 0.638184 99.7947 0.638184 101.53 0.638184C101.53 9.31064 101.53 17.9831 101.53 26.9294C99.8495 26.9294 98.1513 26.9294 96.4165 26.9294C96.4165 18.257 96.4165 9.5845 96.4165 0.638184Z" fill="#4C23FE"/>
<path d="M80.3475 5.75049C80.4753 5.75049 80.5849 5.75049 80.7127 5.75049C81.1692 7.10157 81.6257 8.45264 82.064 9.78546C82.2831 10.4062 82.484 11.027 82.7031 11.666C82.904 12.2685 83.1048 12.871 83.3057 13.4735C83.4153 13.8204 83.5431 14.1673 83.6527 14.496C83.7257 14.6968 83.7987 14.9159 83.8718 15.135C83.9266 15.3176 83.9996 15.5001 84.0544 15.6827C84.1822 16.1392 84.1822 16.1392 84.1822 16.6869C81.7718 16.6869 79.3614 16.6869 76.8779 16.6869C77.2797 14.8429 77.2797 14.8429 77.5718 14.003C77.6266 13.8204 77.6997 13.6379 77.7544 13.437C77.8457 13.1449 77.8457 13.1449 77.9553 12.8528C78.0284 12.6519 78.1014 12.4511 78.1562 12.232C78.3753 11.593 78.5944 10.9357 78.8136 10.2967C78.9597 9.85849 79.1057 9.42031 79.2518 8.98212C79.617 7.90491 79.9823 6.8277 80.3475 5.75049Z" fill="#F7FCFF"/>
<path d="M36.4121 11.7018C37.5807 12.3956 38.2746 13.4363 38.7129 14.6961C38.7129 15.0065 38.7129 15.2986 38.7129 15.609C35.8277 15.609 32.9243 15.609 29.9478 15.609C30.2947 14.0571 30.5321 12.9981 31.8104 12.0122C33.1982 11.2089 34.9147 11.0446 36.4121 11.7018Z" fill="#F7FEFF"/>
<path d="M108.998 21.9997C109.655 22.6388 110.075 23.3326 110.13 24.2454C110.039 25.3227 109.71 25.9799 109.016 26.8015C108.122 27.2945 107.263 27.258 106.259 27.1119C105.62 26.8198 105.291 26.3816 104.908 25.7974C104.67 24.7384 104.616 23.8073 105.109 22.8396C106.186 21.6528 107.501 21.4885 108.998 21.9997Z" fill="#501FFE"/>
<path d="M164.346 8.30635C164.365 8.81757 164.365 9.32878 164.383 9.84C164.383 9.98606 164.401 10.1321 164.401 10.2782C164.401 10.6616 164.383 11.0268 164.346 11.4102C164.164 11.538 163.981 11.6475 163.799 11.7753C163.853 10.7529 163.926 9.73046 163.981 8.67151C159.58 8.67151 155.18 8.67151 150.651 8.67151C150.651 8.61673 150.651 8.5437 150.651 8.48893C152.386 8.47067 154.12 8.43415 155.837 8.41589C156.64 8.39763 157.444 8.39763 158.247 8.37937C159.014 8.36112 159.8 8.36113 160.566 8.34287C160.859 8.34287 161.151 8.34286 161.461 8.3246C161.881 8.3246 162.283 8.30635 162.703 8.30635C163.05 8.30635 163.05 8.30634 163.415 8.28809C163.726 8.30634 164.036 8.30635 164.346 8.30635Z" fill="#4918FE"/>
<path d="M0.365224 0.638184C3.19564 0.638184 6.02605 0.638184 8.94777 0.638184C8.89298 0.765988 8.81994 0.875535 8.76516 1.00334C7.9069 1.27721 7.01213 1.20417 6.11735 1.20417C5.95301 1.20417 5.78866 1.20417 5.62431 1.20417C5.09475 1.20417 4.56519 1.20417 4.05389 1.20417C3.68868 1.20417 3.34172 1.20417 2.97651 1.20417C2.09999 1.20417 1.22348 1.20417 0.365224 1.20417C0.310442 1.33198 0.237399 1.44152 0.182617 1.56933C0.237399 1.24069 0.292182 0.948566 0.365224 0.638184Z" fill="#02A7FE"/>
<path d="M61.5389 18.7129C61.5937 18.7129 61.6667 18.7129 61.7215 18.7129C61.7398 19.1511 61.758 19.5893 61.7763 20.0275C61.7763 20.1553 61.7945 20.2648 61.7945 20.3926C61.8128 21.1229 61.7398 21.415 61.2832 21.981C60.8267 22.3462 60.3885 22.6383 59.8954 22.9122C59.7128 23.04 59.5302 23.1495 59.3476 23.2773C58.8546 23.2956 58.8546 23.2956 58.4346 23.2773C58.7998 22.9122 59.0737 22.7479 59.5302 22.5288C59.658 22.4557 59.7859 22.401 59.9137 22.3279C60.2606 22.1819 60.2606 22.1819 60.6259 22.1819C60.7537 21.9445 60.8632 21.6889 60.9911 21.4516C61.0459 21.3238 61.1189 21.1959 61.1919 21.0681C61.4293 20.3013 61.4841 19.5162 61.5389 18.7129Z" fill="#1E33FD"/>
<path d="M49.5232 2.15324C49.6328 2.18975 49.7424 2.22627 49.8519 2.28105C49.5963 2.55491 49.3406 2.82877 49.085 3.08438C48.8658 3.30348 48.8658 3.30348 48.6467 3.54083C48.2267 3.90598 48.0258 4.03379 47.478 4.10682C48.5737 2.00718 48.5737 2.00718 49.5232 2.15324Z" fill="#1566FE"/>
<path d="M66.1035 17.9829C66.4687 18.7132 66.5418 19.1331 66.5783 19.9547C66.5966 20.1738 66.5966 20.3747 66.6148 20.5938C66.6148 20.7581 66.6331 20.9224 66.6513 21.0867C66.4687 21.0867 66.2861 21.0867 66.1035 21.0867C66.1035 20.0643 66.1035 19.0419 66.1035 17.9829Z" fill="#404BFE"/>
<path d="M20.2695 21.9995C20.2695 22.6568 20.1416 22.7481 19.7216 23.2228C19.6121 23.3323 19.5208 23.4419 19.4112 23.5697C19.3382 23.661 19.2469 23.7523 19.1738 23.8253C19.046 23.7705 18.9364 23.6975 18.8086 23.6427C19.119 22.9124 19.5573 22.3647 20.2695 21.9995Z" fill="#0F7FFE"/>
<path d="M21.365 7.21094C22.0589 8.03254 22.3328 8.8724 22.2781 9.94961C21.6937 9.09149 21.2737 8.26989 21.365 7.21094Z" fill="#0D87FE"/>
<path d="M64.2778 3.37646C64.7526 3.85117 65.1726 4.2711 65.5561 4.83709C65.5013 5.01967 65.4283 5.20224 65.3735 5.38482C65.3187 5.20224 65.2457 5.01967 65.1909 4.83709C65.0083 4.78232 64.8257 4.70928 64.643 4.65451C64.4239 3.99723 64.4239 3.99723 64.2778 3.37646Z" fill="#1E38FD"/>
<path d="M21.7302 19.0781C21.9676 19.7902 21.785 19.991 21.4745 20.6666C21.3832 20.8491 21.3102 21.0317 21.2189 21.2143C21.1093 21.4151 21.1093 21.4151 21.018 21.6342C20.7989 20.9952 20.8902 20.63 21.018 19.991C21.2006 19.991 21.3832 19.991 21.5659 19.991C21.6024 19.6806 21.6572 19.3885 21.7302 19.0781Z" fill="#0E7CFE"/>
<path d="M16.2519 20.5386C16.1971 20.7212 16.124 20.9037 16.0693 21.0863C15.7588 21.1411 15.4667 21.2141 15.1562 21.2689C15.1014 21.4515 15.0284 21.634 14.9736 21.8166C14.8458 21.8166 14.7362 21.8166 14.6084 21.8166C14.9371 21.0133 15.3388 20.5386 16.2519 20.5386Z" fill="#0F88FE"/>
<path d="M85.6426 20.7212C86.0078 21.0863 86.0078 21.0863 86.0078 21.6341C86.1904 21.6889 86.373 21.7619 86.5556 21.8167C86.5008 22.127 86.4278 22.4192 86.373 22.7295C85.953 22.3096 85.9165 22.0905 85.8069 21.5245C85.7704 21.3785 85.7521 21.2324 85.7156 21.0681C85.6791 20.9585 85.6608 20.849 85.6426 20.7212Z" fill="#371BFE"/>
<path d="M82.1733 10.1318C82.3012 10.3692 82.4107 10.6065 82.5386 10.8621C82.6664 10.8621 82.7759 10.8621 82.9038 10.8621C83.0864 11.4099 83.0864 11.4099 82.922 11.8116C82.8307 11.9759 82.8307 11.9759 82.7212 12.1402C82.6299 11.9028 82.5386 11.6838 82.4473 11.4464C82.3925 11.3186 82.3377 11.1908 82.3012 11.0447C82.1733 10.6796 82.1733 10.6796 82.1733 10.1318Z" fill="#2C1EFE"/>
<path d="M136.225 23.2773C136.353 23.5147 136.462 23.752 136.59 24.0077C136.718 24.0077 136.828 24.0077 136.956 24.0077C136.956 24.4276 136.956 24.8475 136.956 25.2857C136.536 24.8658 136.499 24.6467 136.389 24.0807C136.353 23.9346 136.335 23.7886 136.298 23.6242C136.262 23.5147 136.243 23.4051 136.225 23.2773Z" fill="#3912FE"/>
<path d="M69.7558 23.0947C69.9384 23.0947 70.121 23.0947 70.3037 23.0947C70.2489 23.2043 70.1941 23.2956 70.1393 23.4051C69.9202 23.8433 69.7376 24.2815 69.5732 24.7379C69.4454 24.5554 69.3358 24.3728 69.208 24.1902C69.3906 23.825 69.5732 23.4599 69.7558 23.0947Z" fill="#3C48FE"/>
<path d="M72.6777 14.3315C72.7325 14.3315 72.8055 14.3315 72.8603 14.3315C72.8968 14.9341 72.8968 14.9341 72.8603 15.6096C72.4951 15.9565 72.4951 15.9565 72.1299 16.1573C72.1847 15.8835 72.2394 15.6096 72.2942 15.354C72.349 15.1349 72.349 15.1349 72.3855 14.8975C72.4951 14.5141 72.4951 14.5141 72.6777 14.3315Z" fill="#1E2AFD"/>
<path d="M8.94793 0.637769C9.49575 0.582995 9.49575 0.582993 10.1531 0.601251C10.3723 0.601251 10.5914 0.619504 10.8105 0.619504C10.9749 0.619504 11.1392 0.637769 11.3218 0.637769C11.3218 0.692542 11.3218 0.765573 11.3218 0.820347C11.1757 0.838605 11.0479 0.838607 10.9018 0.856865C10.7192 0.875122 10.5366 0.893378 10.354 0.911636C10.0801 0.929893 10.0801 0.929896 9.80618 0.948154C9.36792 1.00293 8.98445 1.07596 8.56445 1.1855C8.69228 1.00292 8.8201 0.820347 8.94793 0.637769Z" fill="#24B5FF"/>
<path d="M88.0167 14.3315C88.3454 14.8245 88.5645 15.2262 88.7472 15.7922C88.6924 15.9747 88.6193 16.1573 88.5645 16.3399C88.0715 15.6461 87.9619 15.1897 88.0167 14.3315Z" fill="#532BFE"/>
</svg>
