<svg width="57" height="57" viewBox="0 0 57 57" fill="none" xmlns="http://www.w3.org/2000/svg">
<g filter="url(#filter0_ii_540_303)">
<circle cx="28.5" cy="28.5" r="28.5" fill="url(#paint0_radial_540_303)"/>
</g>
<path d="M29.5291 43.6469C31.8349 43.65 34.0904 42.9689 36.0136 41.6887C36.0764 41.6519 36.131 41.6025 36.1742 41.5437C36.2174 41.4848 36.2482 41.4178 36.2648 41.3465C36.2813 41.2753 36.2833 41.2014 36.2705 41.1294C36.2577 41.0574 36.2304 40.9888 36.1904 40.9277C36.1504 40.8667 36.0984 40.8145 36.0376 40.7743C35.9768 40.7342 35.9086 40.7069 35.837 40.6943C35.7654 40.6816 35.692 40.6837 35.6212 40.7005C35.5505 40.7174 35.4839 40.7485 35.4255 40.7921C33.9066 41.7982 32.1585 42.3994 30.3454 42.5393C28.5323 42.6792 26.7136 42.3532 25.0599 41.5919C24.9961 41.5625 24.927 41.546 24.8568 41.5434C24.7866 41.5408 24.7166 41.5521 24.6507 41.5768C24.5849 41.6014 24.5245 41.6389 24.473 41.687C24.4215 41.7351 24.38 41.793 24.3507 41.8573C24.3215 41.9216 24.3051 41.991 24.3025 42.0617C24.2999 42.1323 24.3112 42.2028 24.3357 42.2691C24.3602 42.3354 24.3974 42.3961 24.4452 42.4479C24.4931 42.4997 24.5506 42.5415 24.6145 42.571C26.1558 43.2838 27.8327 43.6509 29.5291 43.6469Z" fill="#5E3C92"/>
<path d="M40.6464 34.0946C40.7748 34.0962 40.8995 34.0513 40.9977 33.968C41.0958 33.8847 41.1609 33.7686 41.181 33.641C41.6116 30.8888 41.0672 28.072 39.6432 25.6827C38.2191 23.2935 36.0058 21.484 33.3903 20.5704C33.324 20.5469 33.2537 20.5367 33.1834 20.5405C33.1132 20.5443 33.0444 20.562 32.9809 20.5925C32.9175 20.6231 32.8606 20.6659 32.8136 20.7186C32.7666 20.7713 32.7304 20.8327 32.707 20.8995C32.6836 20.9662 32.6735 21.037 32.6772 21.1077C32.681 21.1784 32.6986 21.2476 32.7289 21.3115C32.7593 21.3753 32.8019 21.4325 32.8542 21.4798C32.9065 21.5272 32.9676 21.5636 33.0339 21.5872C35.1398 22.3218 36.9661 23.6981 38.2591 25.5249C39.5521 27.3518 40.2476 29.5386 40.2491 31.7814C40.2492 32.3506 40.2057 32.9189 40.119 33.4814C40.1078 33.5512 40.1104 33.6226 40.1267 33.6914C40.1429 33.7602 40.1725 33.8251 40.2137 33.8824C40.2549 33.9397 40.307 33.9882 40.3668 34.0253C40.4267 34.0623 40.4933 34.0871 40.5627 34.0982L40.6464 34.0946ZM18.8496 35.9129C18.9071 35.9129 18.9642 35.9038 19.0189 35.886C19.0857 35.8638 19.1474 35.8284 19.2006 35.7821C19.2537 35.7358 19.2973 35.6793 19.3287 35.616C19.3602 35.5527 19.3789 35.4838 19.3838 35.4132C19.3888 35.3426 19.3798 35.2717 19.3575 35.2046C18.5907 32.8891 18.6256 30.3805 19.4566 28.0875C20.2875 25.7945 21.8655 23.8522 23.9335 22.577C23.9934 22.54 24.0455 22.4916 24.0868 22.4343C24.1281 22.3771 24.1578 22.3123 24.1742 22.2435C24.2072 22.1046 24.1841 21.9582 24.11 21.8364C24.0358 21.7147 23.9165 21.6276 23.7785 21.5943C23.6405 21.561 23.495 21.5842 23.374 21.6589C21.1002 23.0616 19.3654 25.1977 18.4519 27.7192C17.5385 30.2407 17.5003 32.9992 18.3436 35.5453C18.379 35.6522 18.447 35.7452 18.5378 35.8112C18.6286 35.8771 18.7377 35.9127 18.8496 35.9129ZM38.3976 43.0068C39.2082 43.0068 40.0006 42.7649 40.6746 42.3117C41.3486 41.8585 41.8739 41.2144 42.1841 40.4608C42.4943 39.7071 42.5755 38.8779 42.4173 38.0778C42.2592 37.2778 41.8689 36.5429 41.2957 35.9661C40.7225 35.3893 39.9922 34.9965 39.1972 34.8374C38.4022 34.6782 37.5781 34.7599 36.8292 35.0721C36.0803 35.3842 35.4402 35.9129 34.9898 36.5911C34.5395 37.2693 34.2991 38.0667 34.2991 38.8825C34.2991 39.9763 34.7309 41.0253 35.4995 41.7988C36.2682 42.5723 37.3106 43.0068 38.3976 43.0068ZM38.3976 35.8502C38.9968 35.8502 39.5824 36.029 40.0806 36.3639C40.5788 36.6989 40.967 37.175 41.1963 37.732C41.4256 38.289 41.4856 38.902 41.3687 39.4933C41.2518 40.0846 40.9633 40.6278 40.5397 41.0541C40.116 41.4805 39.5762 41.7708 38.9886 41.8884C38.401 42.0061 37.7919 41.9457 37.2383 41.715C36.6848 41.4842 36.2117 41.0935 35.8788 40.5922C35.546 40.0909 35.3683 39.5015 35.3683 38.8986C35.3683 38.4983 35.4467 38.1019 35.5989 37.732C35.7511 37.3622 35.9743 37.0261 36.2556 36.743C36.5369 36.46 36.8708 36.2354 37.2383 36.0822C37.6059 35.929 37.9998 35.8502 38.3976 35.8502Z" fill="#5E3C92"/>
<path d="M20.0989 43.0067C20.9095 43.0067 21.7019 42.7649 22.3759 42.3117C23.0499 41.8585 23.5752 41.2144 23.8854 40.4607C24.1956 39.7071 24.2768 38.8778 24.1186 38.0778C23.9605 37.2778 23.5702 36.5429 22.997 35.9661C22.4238 35.3893 21.6935 34.9965 20.8985 34.8373C20.1035 34.6782 19.2794 34.7599 18.5305 35.072C17.7816 35.3842 17.1415 35.9128 16.6912 36.5911C16.2408 37.2693 16.0004 38.0667 16.0004 38.8824C16.0004 39.424 16.1064 39.9603 16.3124 40.4607C16.5184 40.9611 16.8203 41.4158 17.2009 41.7988C17.5814 42.1817 18.0332 42.4855 18.5305 42.6928C19.0277 42.9001 19.5607 43.0067 20.0989 43.0067ZM20.0989 35.8501C20.6981 35.8501 21.2837 36.0289 21.7819 36.3639C22.2801 36.6989 22.6684 37.175 22.8976 37.732C23.1269 38.289 23.1869 38.9019 23.07 39.4933C22.9531 40.0846 22.6646 40.6278 22.241 41.0541C21.8173 41.4804 21.2775 41.7708 20.6899 41.8884C20.1023 42.006 19.4932 41.9457 18.9396 41.7149C18.3861 41.4842 17.913 41.0935 17.5801 40.5922C17.2473 40.0909 17.0696 39.5015 17.0696 38.8986C17.0696 38.0901 17.3888 37.3147 17.9569 36.743C18.525 36.1713 19.2955 35.8501 20.0989 35.8501ZM29.5343 24.6786C30.3453 24.6786 31.1381 24.4365 31.8122 23.9829C32.4864 23.5293 33.0117 22.8846 33.3217 22.1305C33.6316 21.3764 33.7123 20.5466 33.5534 19.7463C33.3945 18.9461 33.0033 18.2112 32.4292 17.6347C31.8552 17.0583 31.124 16.6662 30.3284 16.5081C29.5328 16.35 28.7085 16.4329 27.9597 16.7465C27.211 17.06 26.5715 17.59 26.1222 18.2694C25.673 18.9489 25.4341 19.7471 25.4358 20.5632C25.4382 21.6555 25.8711 22.7023 26.6394 23.4738C27.4078 24.2453 28.4489 24.6786 29.5343 24.6786ZM29.5343 17.522C30.1335 17.522 30.7192 17.7008 31.2173 18.0357C31.7155 18.3707 32.1038 18.8468 32.333 19.4038C32.5623 19.9608 32.6223 20.5738 32.5054 21.1651C32.3885 21.7565 32.1 22.2996 31.6764 22.726C31.2527 23.1523 30.7129 23.4426 30.1253 23.5602C29.5377 23.6779 28.9286 23.6175 28.3751 23.3868C27.8215 23.156 27.3484 22.7653 27.0155 22.264C26.6827 21.7627 26.505 21.1733 26.505 20.5704C26.505 19.7619 26.8242 18.9865 27.3923 18.4148C27.9604 17.8432 28.7309 17.522 29.5343 17.522ZM29.5343 36.406C30.3449 36.406 31.1373 36.1641 31.8113 35.711C32.4853 35.2578 33.0106 34.6136 33.3208 33.86C33.631 33.1064 33.7122 32.2771 33.5541 31.4771C33.3959 30.677 33.0056 29.9422 32.4324 29.3654C31.8592 28.7886 31.1289 28.3958 30.3339 28.2366C29.5389 28.0775 28.7148 28.1592 27.9659 28.4713C27.217 28.7835 26.5769 29.3121 26.1266 29.9903C25.6762 30.6686 25.4358 31.466 25.4358 32.2817C25.4358 33.3755 25.8677 34.4246 26.6363 35.198C27.4049 35.9715 28.4473 36.406 29.5343 36.406ZM29.5343 29.2494C30.1338 29.2494 30.7199 29.4284 31.2182 29.7638C31.7166 30.0992 32.1049 30.5758 32.3339 31.1333C32.5629 31.6909 32.6224 32.3043 32.5048 32.8959C32.3872 33.4874 32.0978 34.0306 31.6732 34.4566C31.2487 34.8825 30.7081 35.1722 30.1198 35.2888C29.5316 35.4054 28.9223 35.3437 28.3689 35.1116C27.8155 34.8795 27.343 34.4874 27.0112 33.9849C26.6794 33.4824 26.5033 32.8922 26.505 32.2889C26.5074 31.4819 26.8276 30.7089 27.3954 30.1391C27.9633 29.5694 28.7324 29.2494 29.5343 29.2494Z" fill="#5E3C92"/>
<defs>
<filter id="filter0_ii_540_303" x="-3" y="-4" width="60" height="65.3" filterUnits="userSpaceOnUse" color-interpolation-filters="sRGB">
<feFlood flood-opacity="0" result="BackgroundImageFix"/>
<feBlend mode="normal" in="SourceGraphic" in2="BackgroundImageFix" result="shape"/>
<feColorMatrix in="SourceAlpha" type="matrix" values="0 0 0 0 0 0 0 0 0 0 0 0 0 0 0 0 0 0 127 0" result="hardAlpha"/>
<feMorphology radius="1" operator="dilate" in="SourceAlpha" result="effect1_innerShadow_540_303"/>
<feOffset dx="-3" dy="7"/>
<feGaussianBlur stdDeviation="2.65"/>
<feComposite in2="hardAlpha" operator="arithmetic" k2="-1" k3="1"/>
<feColorMatrix type="matrix" values="0 0 0 0 1 0 0 0 0 1 0 0 0 0 1 0 0 0 0.56 0"/>
<feBlend mode="normal" in2="shape" result="effect1_innerShadow_540_303"/>
<feColorMatrix in="SourceAlpha" type="matrix" values="0 0 0 0 0 0 0 0 0 0 0 0 0 0 0 0 0 0 127 0" result="hardAlpha"/>
<feMorphology radius="3" operator="erode" in="SourceAlpha" result="effect2_innerShadow_540_303"/>
<feOffset dy="-4"/>
<feGaussianBlur stdDeviation="3.9"/>
<feComposite in2="hardAlpha" operator="arithmetic" k2="-1" k3="1"/>
<feColorMatrix type="matrix" values="0 0 0 0 1 0 0 0 0 0.333333 0 0 0 0 0.835294 0 0 0 0.28 0"/>
<feBlend mode="normal" in2="effect1_innerShadow_540_303" result="effect2_innerShadow_540_303"/>
</filter>
<radialGradient id="paint0_radial_540_303" cx="0" cy="0" r="1" gradientUnits="userSpaceOnUse" gradientTransform="translate(36.9065 14.5576) rotate(118.551) scale(31.7455)">
<stop stop-color="white" stop-opacity="0"/>
<stop offset="1" stop-color="#FFBCE1"/>
</radialGradient>
</defs>
</svg>
