<svg width="24" height="25" viewBox="0 0 24 25" fill="none" xmlns="http://www.w3.org/2000/svg">
<path d="M12.25 0.59483C6.0355 0.59483 1 5.78009 1 12.1794C1 18.5788 6.0355 23.764 12.25 23.764C18.4645 23.764 23.5 18.5788 23.5 12.1794C23.5 5.78009 18.4645 0.59483 12.25 0.59483ZM21.946 11.4071H18.9745C18.8455 8.06303 17.8975 5.10819 16.4635 3.13572C19.519 4.64789 21.6715 7.75411 21.946 11.4071ZM17.4625 11.4071H13V2.25374C15.4105 2.91484 17.2735 6.70841 17.4625 11.4071ZM11.5 2.25374V11.4071H7.0375C7.2265 6.70841 9.0895 2.91484 11.5 2.25374ZM8.038 3.13572C6.6025 5.10819 5.656 8.06303 5.527 11.4071H2.554C2.8285 7.75411 4.981 4.64789 8.038 3.13572ZM2.554 12.9517H5.5255C5.6545 16.2958 6.6025 19.2507 8.0365 21.2231C4.981 19.711 2.8285 16.6047 2.554 12.9517ZM7.0375 12.9517H11.5V22.1051C9.0895 21.444 7.2265 17.6504 7.0375 12.9517ZM13 22.1051V12.9517H17.4625C17.2735 17.6504 15.4105 21.444 13 22.1051ZM16.462 21.2231C17.8975 19.2507 18.844 16.2958 18.973 12.9517H21.9445C21.6715 16.6047 19.519 19.711 16.462 21.2231Z" fill="#333333" stroke="white" stroke-width="0.5" stroke-linejoin="round"/>
</svg>
