<svg width="78" height="74" viewBox="0 0 78 74" fill="none" xmlns="http://www.w3.org/2000/svg">
<path d="M38.9068 7.07269C40.2132 5.81797 41.3645 4.67956 42.5546 3.58006C45.4521 0.889514 48.8799 0.0358396 52.7346 1.21295C56.473 2.3642 58.7237 4.93842 59.3575 8.58618C59.9008 11.6907 58.8919 14.4458 56.5247 16.6965C51.3118 21.6507 46.0859 26.5792 40.86 31.5075C39.5406 32.7623 38.3506 32.7623 37.0441 31.5205C31.8182 26.5792 26.5924 21.6507 21.3794 16.7094C18.4302 13.9154 17.5764 9.85376 19.1675 6.40003C20.8232 2.80401 24.4192 0.617948 28.6232 0.747301C31.1197 0.824913 33.3058 1.70455 35.1038 3.37321C36.3715 4.55032 37.5874 5.77916 38.9197 7.07269" fill="#C9A4FF"/>
<path d="M57.7274 73.5734C57.7274 69.1366 57.8309 64.7514 57.7016 60.3922C57.5722 56.0848 55.2956 52.9673 51.2856 50.9882C51.0657 50.8847 50.8458 50.7683 50.6259 50.6648C50.5742 50.639 50.5354 50.5873 50.4966 50.5614C50.7941 48.5176 52.5274 47.9615 54.222 47.3923C54.416 47.3276 54.7523 47.4828 54.9463 47.6251C60.1593 51.3634 66.0707 51.3634 71.219 47.6769C71.4906 47.4828 72.0339 47.4052 72.3702 47.5216C75.7334 48.647 77.4408 50.9882 77.4538 54.4032C77.4538 59.9395 77.4538 65.4757 77.4538 71.0121C77.4538 72.8101 76.613 73.5863 74.6986 73.5863C69.2787 73.5863 63.8717 73.5863 58.4518 73.5863H57.7403L57.7274 73.5734Z" fill="#C9A4FF"/>
<path d="M27.3684 50.6391C25.3116 51.467 23.5783 52.683 22.2718 54.4163C20.9524 56.1755 20.1634 58.1158 20.1504 60.276C20.1116 64.0402 20.1246 67.7914 20.1504 71.5556C20.1504 72.2024 20.2927 72.8492 20.3833 73.5865H19.4649C14.0191 73.5865 8.57335 73.5865 3.12758 73.5865C1.27783 73.5865 0.437012 72.7844 0.437012 71.0381C0.437012 65.3854 0.437012 59.7327 0.437012 54.08C0.437012 50.9108 2.51965 48.2849 5.74054 47.4571C6.06392 47.3795 6.54251 47.5994 6.85296 47.8193C10.0609 50.1218 13.631 50.898 17.5634 50.1218C19.5166 49.7338 21.2887 48.9318 22.8151 47.69C23.2161 47.3666 23.5783 47.289 24.0699 47.4959C25.5833 48.1168 27.1226 48.6729 27.3684 50.6391Z" fill="#C9A4FF"/>
<path d="M38.9327 73.5729C35.0521 73.5729 31.1715 73.5729 27.2909 73.5729C25.4282 73.5729 24.6133 72.7967 24.6133 71.0245C24.6133 67.7389 24.6133 64.4534 24.6133 61.1678C24.6133 57.7141 26.3854 55.3858 29.8521 54.3122C30.1366 54.2216 30.6282 54.3897 30.8998 54.5838C33.474 56.4723 36.3715 57.3908 39.6312 57.2356C42.2958 57.1062 44.7019 56.2524 46.7974 54.6872C47.3407 54.2733 47.7804 54.1699 48.466 54.4415C51.6869 55.735 53.2392 57.8564 53.2651 61.1678C53.2651 64.4534 53.2651 67.7389 53.2651 71.0245C53.2651 72.8484 52.4631 73.5858 50.5098 73.5858C46.6551 73.5858 42.8133 73.5858 38.9586 73.5858" fill="#C9A4FF"/>
<path d="M63.1992 46.1498C58.6589 46.2533 54.9335 42.8255 54.7783 38.4145C54.636 34.1847 58.4132 30.511 62.9664 30.4334C67.4938 30.3687 71.2837 33.8483 71.4002 38.1946C71.5036 42.4762 67.8301 46.0463 63.1992 46.1498Z" fill="#C9A4FF"/>
<path d="M23.0225 38.273C23.0484 42.6322 19.3877 46.1247 14.7698 46.1376C10.2036 46.1505 6.45239 42.6322 6.43945 38.3118C6.43945 34.0173 10.1907 30.4341 14.731 30.4211C19.3101 30.4211 22.9967 33.9008 23.0225 38.273Z" fill="#C9A4FF"/>
<path d="M38.8938 52.993C34.2888 52.993 30.6411 49.5004 30.6411 45.1412C30.6411 40.7691 34.3018 37.3284 38.9326 37.3284C43.5376 37.3284 47.1983 40.8079 47.1854 45.18C47.1854 49.5263 43.4988 53.006 38.8809 52.993" fill="#C9A4FF"/>
<path d="M12.3894 4.96388C12.1954 6.63254 10.6173 7.74504 9.15558 7.12414C7.39638 6.38683 5.67597 5.54602 3.9685 4.69229C2.90781 4.16194 2.57149 2.92014 3.07596 1.92412C3.56751 0.953966 4.8352 0.436515 5.9347 0.915122C7.6939 1.67831 9.44017 2.45446 11.1088 3.37286C11.678 3.68331 11.9755 4.4206 12.3894 4.96388Z" fill="#C9A4FF"/>
<path d="M65.6826 5.17092C65.6826 4.29132 66.1095 3.63163 66.9244 3.24357C68.4767 2.49332 70.0289 1.74297 71.607 1.03152C72.8747 0.46237 74.1811 0.837526 74.7503 1.87235C75.3583 2.97185 74.9055 4.20076 73.612 4.83459C72.0339 5.61071 70.4558 6.38682 68.8518 7.08533C67.3384 7.74503 65.6956 6.72317 65.6826 5.18387" fill="#C9A4FF"/>
<path d="M12.1693 18.8696C12.1693 19.7104 11.7684 20.37 10.9922 20.7451C9.36239 21.5471 7.71961 22.3492 6.06389 23.0735C4.91264 23.578 3.63198 23.1253 3.0887 22.1293C2.54542 21.1203 2.8947 19.8526 4.00714 19.2964C5.67579 18.4426 7.37034 17.6148 9.11661 16.9034C10.6171 16.2825 12.1823 17.3561 12.1823 18.8696" fill="#C9A4FF"/>
<path d="M74.996 21.159C74.996 22.6854 73.4179 23.7461 71.9174 23.1252C70.1582 22.3879 68.4248 21.5471 66.7432 20.6675C65.6955 20.1242 65.385 18.8694 65.9154 17.8863C66.4328 16.9291 67.6358 16.4376 68.7094 16.8903C70.4686 17.6405 72.189 18.4813 73.8964 19.3221C74.6338 19.6843 74.996 20.3441 74.996 21.1461" fill="#C9A4FF"/>
</svg>
