<svg width="78" height="78" viewBox="0 0 78 78" fill="none" xmlns="http://www.w3.org/2000/svg">
<path d="M28.0481 52.9403C28.0481 39.0995 39.1854 27.9751 53.0392 27.988C66.8541 27.988 78.0172 39.1772 77.9914 53.0051C77.9784 66.7424 66.7635 77.9444 53.0133 77.9444C39.1983 77.9444 28.0352 66.7682 28.0352 52.9403" fill="#C9A4FF"/>
<path d="M25.6681 28.0139C19.7955 27.8587 14.0134 27.0309 8.60645 24.3921C6.40745 23.3185 4.41534 21.9731 2.79843 20.0975C-0.280181 16.5144 -0.318917 12.2199 2.70795 8.59798C4.86815 6.01091 7.64919 4.29055 10.7407 3.13931C20.6104 -0.560191 30.5448 -0.611863 40.4532 3.04883C43.4671 4.16127 46.1706 5.82983 48.305 8.28754C51.6164 12.1293 51.5646 16.7344 48.1497 20.4727C45.7308 23.1244 42.6134 24.6896 39.289 25.8538C34.9039 27.3802 30.3507 27.9104 25.6681 28.001" fill="#C9A4FF"/>
<path d="M31.8252 32.1917C30.5963 33.8216 29.3158 35.3738 28.2033 37.0425C27.3625 38.2972 26.7675 39.6943 26.0043 41.0008C25.8361 41.2853 25.4352 41.6087 25.1376 41.5957C18.877 41.4276 12.7973 40.4316 7.24808 37.3013C5.23017 36.163 3.43217 34.7401 2.08689 32.8257C1.0262 31.3123 0.457031 29.6565 0.457031 27.7938C0.457031 26.7073 0.457031 25.6077 0.457031 24.4435C9.77046 31.9201 20.5327 33.1231 31.8123 32.1917" fill="#C9A4FF"/>
<path d="M27.7505 68.7346C27.5952 68.7605 27.2331 68.8382 26.8579 68.8382C20.6231 68.9417 14.5565 68.1008 8.85198 65.3974C5.77337 63.9357 3.03104 62.0212 1.36238 58.8909C0.547453 57.3645 0.39228 55.7217 0.444021 54.0401C0.469892 53.2899 0.444021 52.5396 0.444021 51.6342C0.728598 51.8411 0.922628 51.9705 1.09079 52.1257C4.32462 54.9197 8.08878 56.6661 12.1505 57.8561C15.6948 58.9039 19.3166 59.5118 23.0161 59.6024C23.9216 59.6282 24.2968 59.9128 24.6201 60.8441C25.5386 63.5088 26.6768 66.0829 27.7375 68.7346" fill="#C9A4FF"/>
<path d="M24.0771 46.0973C23.8313 49.1113 23.5985 52.0089 23.3527 55.0745C22.5895 55.0228 21.6711 54.984 20.7527 54.8805C15.501 54.3243 10.4821 53.0437 6.0065 50.1074C3.56172 48.5034 1.42734 46.5372 0.780577 43.5621C0.405453 41.8158 0.483109 39.966 0.34082 37.8575C7.39057 43.9371 15.6304 45.6317 24.0901 46.0973" fill="#C9A4FF"/>
<path opacity="0.5" d="M61.7573 54.2078C59.4807 54.2078 57.4498 53.0307 56.3244 51.0646C55.1861 49.0984 55.1861 46.7571 56.3244 44.791L59.6359 39.0605L61.7832 40.3023L58.4717 46.0327C57.7862 47.2228 57.7862 48.6456 58.4717 49.8356C59.1573 51.0257 60.3862 51.7372 61.7702 51.7372H68.3931V54.2207H61.7702L61.7573 54.2078Z" fill="white"/>
<path opacity="0.5" d="M46.4291 66.8845L44.2818 65.6428L47.5932 59.9124C48.2788 58.7223 48.2788 57.2995 47.5932 56.1095C46.9077 54.9194 45.6788 54.2078 44.2948 54.2078H37.6719V51.7244H44.2948C46.5714 51.7244 48.6022 52.9014 49.7276 54.8676C50.8659 56.8337 50.8659 59.175 49.7276 61.1412L46.4162 66.8716L46.4291 66.8845Z" fill="white"/>
<path opacity="0.5" d="M53.026 49.1631C50.7494 49.1631 48.7186 47.9859 47.5932 46.0198L44.2817 40.2764L46.429 39.0347L49.7405 44.778C50.4261 45.9681 51.6549 46.6795 53.039 46.6795C54.4231 46.6795 55.639 45.9681 56.3375 44.778L59.6489 39.0347L61.7962 40.2764L58.4848 46.0198C57.3465 47.9859 55.3156 49.1631 53.0519 49.1631H53.026Z" fill="white"/>
<path opacity="0.5" d="M59.6362 66.8846L56.3248 61.1413C55.6392 59.9512 54.4104 59.2398 53.0263 59.2398C51.6422 59.2398 50.4263 59.9512 49.7278 61.1413L46.4164 66.8846L44.269 65.6429L47.5806 59.8995C48.7189 57.9334 50.7497 56.7563 53.0133 56.7563C55.277 56.7563 57.3208 57.9334 58.4462 59.8995L61.7576 65.6429L59.6104 66.8846H59.6362Z" fill="white"/>
<path opacity="0.5" d="M44.2948 54.2081H37.6719V51.7247H44.2948C45.6659 51.7247 46.8947 51.0131 47.5932 49.823C48.2788 48.633 48.2788 47.2102 47.5932 46.0201L44.2818 40.2897L46.4291 39.048L49.7406 44.7784C50.8789 46.7446 50.8789 49.0858 49.7406 51.052C48.6022 53.0182 46.5714 54.1952 44.3077 54.1952L44.2948 54.2081Z" fill="white"/>
<path opacity="0.5" d="M59.6359 66.8848L56.3244 61.1543C55.1861 59.1882 55.1861 56.8469 56.3244 54.8807C57.4627 52.9146 59.4936 51.7375 61.7573 51.7375H68.3802V54.221H61.7573C60.3861 54.221 59.1573 54.9324 58.4588 56.1225C57.7732 57.3125 57.7732 58.7355 58.4588 59.9256L61.7702 65.656L59.623 66.8977L59.6359 66.8848Z" fill="white"/>
<path d="M54.7596 40.2509C54.7596 41.2081 53.9835 41.9842 53.0263 41.9842C52.069 41.9842 51.293 41.2081 51.293 40.2509C51.293 39.2937 52.069 38.5175 53.0263 38.5175C53.9835 38.5175 54.7596 39.2937 54.7596 40.2509Z" fill="white"/>
<path d="M51.293 65.6943C51.293 64.7371 52.069 63.9611 53.0263 63.9611C53.9835 63.9611 54.7596 64.7371 54.7596 65.6943C54.7596 66.6516 53.9835 67.4278 53.0263 67.4278C52.069 67.4278 51.293 66.6516 51.293 65.6943Z" fill="white"/>
<path d="M41.1514 57.8301C41.9792 57.3514 43.0399 57.636 43.5186 58.4639C43.9972 59.2917 43.7126 60.3524 42.8847 60.831C42.0569 61.3096 40.9962 61.025 40.5176 60.1972C40.0389 59.3693 40.3235 58.3087 41.1514 57.8301Z" fill="white"/>
<path d="M41.1514 48.1154C41.9792 48.594 43.0399 48.3094 43.5186 47.4816C43.9972 46.6537 43.7126 45.5931 42.8847 45.1145C42.0569 44.6359 40.9962 44.9204 40.5176 45.7483C40.0389 46.5762 40.3235 47.6368 41.1514 48.1154Z" fill="white"/>
<path d="M64.9135 48.1155C64.0857 48.5941 63.0249 48.3096 62.5463 47.4817C62.0677 46.6538 62.3524 45.5932 63.1802 45.1146C64.0081 44.636 65.0687 44.9206 65.5473 45.7484C66.026 46.5763 65.7414 47.6369 64.9135 48.1155Z" fill="white"/>
<path d="M64.9135 57.8303C64.0857 57.3517 63.0249 57.6363 62.5463 58.4641C62.0677 59.292 62.3524 60.3526 63.1802 60.8312C64.0081 61.3098 65.0687 61.0253 65.5473 60.1974C66.026 59.3695 65.7414 58.3089 64.9135 57.8303Z" fill="white"/>
<path opacity="0.5" d="M33.2869 14.859C31.2949 14.859 29.4969 14.2121 28.5009 13.1126C27.5049 12.0261 27.5049 10.7197 28.5009 9.62015L31.4114 6.43811L33.2999 7.12372L30.3894 10.3058C29.7815 10.9655 29.7815 11.7545 30.3894 12.4142C30.9974 13.0739 32.071 13.4749 33.2869 13.4749H39.1208V14.8461H33.2869V14.859Z" fill="white"/>
<path opacity="0.5" d="M19.7953 21.9088L17.9068 21.2232L20.8173 18.0412C21.4252 17.3815 21.4252 16.5924 20.8173 15.9327C20.2093 15.273 19.1356 14.8721 17.9197 14.8721H12.0859V13.5009H17.9197C19.9117 13.5009 21.7098 14.1476 22.7058 15.2471C23.7018 16.3337 23.7018 17.6402 22.7058 18.7397L19.7953 21.9218V21.9088Z" fill="white"/>
<path opacity="0.5" d="M25.6032 12.0653C23.6112 12.0653 21.8132 11.4186 20.8172 10.3191L17.9067 7.13687L19.7952 6.45142L22.7057 9.63346C23.3137 10.2932 24.3873 10.6941 25.6032 10.6941C26.8191 10.6941 27.8928 10.2932 28.5008 9.63346L31.4112 6.45142L33.2997 7.13687L30.3893 10.3191C29.3933 11.4056 27.5952 12.0653 25.6032 12.0653Z" fill="white"/>
<path opacity="0.5" d="M31.4112 21.9089L28.5008 18.7269C27.8928 18.0672 26.8191 17.6661 25.6032 17.6661C24.3873 17.6661 23.3137 18.0672 22.7057 18.7269L19.7952 21.9089L17.9067 21.2233L20.8172 18.0413C21.8132 16.9547 23.6112 16.295 25.6032 16.295C27.5952 16.295 29.3933 16.9418 30.3893 18.0413L33.2997 21.2233L31.4112 21.9089Z" fill="white"/>
<path opacity="0.5" d="M17.9197 14.8594H12.0859V13.4882H17.9197C19.1356 13.4882 20.2093 13.0872 20.8173 12.4275C21.4252 11.7678 21.4252 10.9788 20.8173 10.3191L17.9068 7.13687L19.7953 6.45142L22.7058 9.63345C23.7018 10.72 23.7018 12.0264 22.7058 13.1259C21.7098 14.2125 19.9117 14.8723 17.9197 14.8723V14.8594Z" fill="white"/>
<path opacity="0.5" d="M31.4114 21.9085L28.5009 18.7264C27.5049 17.6399 27.5049 16.3333 28.5009 15.2338C29.4969 14.1472 31.2949 13.4875 33.2869 13.4875H39.1208V14.8588H33.2869C32.071 14.8588 30.9974 15.2597 30.3894 15.9194C29.7815 16.5791 29.7815 17.3682 30.3894 18.0279L33.2999 21.2099L31.4114 21.8955V21.9085Z" fill="white"/>
<path d="M27.1299 7.11077C27.1299 7.64112 26.4443 8.08092 25.6035 8.08092C24.7627 8.08092 24.0771 7.65406 24.0771 7.11077C24.0771 6.56749 24.7627 6.14062 25.6035 6.14062C26.4443 6.14062 27.1299 6.56749 27.1299 7.11077Z" fill="white"/>
<path d="M24.0771 21.2487C24.0771 20.7184 24.7627 20.2786 25.6035 20.2786C26.4443 20.2786 27.1299 20.7054 27.1299 21.2487C27.1299 21.792 26.4443 22.2189 25.6035 22.2189C24.7627 22.2189 24.0771 21.792 24.0771 21.2487Z" fill="white"/>
<path d="M15.1514 16.8768C15.8758 16.6051 16.82 16.7733 17.234 17.2261C17.6608 17.6917 17.4021 18.2739 16.6778 18.5455C15.9534 18.8171 15.0091 18.649 14.5952 18.1962C14.1683 17.7305 14.427 17.1484 15.1514 16.8768Z" fill="white"/>
<path d="M15.1514 11.4703C15.8758 11.7419 16.82 11.5738 17.234 11.121C17.6608 10.6554 17.4021 10.0732 16.6778 9.8016C15.9534 9.52995 15.0091 9.69814 14.5952 10.1509C14.1683 10.6165 14.427 11.1987 15.1514 11.4703Z" fill="white"/>
<path d="M36.0547 11.4702C35.3303 11.7418 34.3861 11.5736 33.9722 11.1209C33.5453 10.6552 33.804 10.0731 34.5284 9.80147C35.2527 9.52983 36.197 9.69802 36.6109 10.1508C37.0378 10.6164 36.7791 11.1985 36.0547 11.4702Z" fill="white"/>
<path d="M36.0547 16.8775C35.3303 16.6059 34.3861 16.7741 33.9722 17.2268C33.5453 17.6925 33.804 18.2746 34.5284 18.5462C35.2527 18.8179 36.197 18.6497 36.6109 18.197C37.0378 17.7313 36.7791 17.1492 36.0547 16.8775Z" fill="white"/>
</svg>
