<svg width="79" height="74" viewBox="0 0 79 74" fill="none" xmlns="http://www.w3.org/2000/svg">
<path d="M36.4955 45.1792C36.7154 44.5971 36.5472 44.2737 36.1462 43.8857C32.3432 40.1086 28.5402 36.3055 24.7502 32.5155C22.9263 30.6916 21.1283 28.8289 19.2915 26.9791C19.0198 27.212 18.8517 27.3413 18.6964 27.4966C14.5442 31.6488 10.3661 35.7752 6.25266 39.9662C1.88052 44.4289 -0.00800788 49.7842 0.703435 56.0061C2.30742 70.0538 18.0497 77.8408 30.2995 70.1443C32.6408 68.6697 34.5163 66.4708 36.6248 64.621C37.1163 64.1942 37.1422 63.8319 36.8964 63.2369C34.387 57.2737 34.2188 51.2459 36.5084 45.1792H36.4955Z" fill="#C9A4FF"/>
<path d="M51.6424 30.8341C56.907 29.1525 62.1329 29.3466 67.3717 31.2222C67.514 30.8859 67.6434 30.6014 67.7339 30.3039C69.1051 25.673 68.911 21.1198 66.919 16.7218C61.1628 4.07102 45.0971 1.17341 35.2404 10.9655C32.11 14.0829 28.9926 17.2132 25.8623 20.3306C24.7369 21.456 23.5986 22.5684 22.5767 23.5774C28.1259 29.1396 33.5846 34.5983 39.0951 40.1217C42.2254 35.6849 46.3906 32.5029 51.6553 30.8213L51.6424 30.8341Z" fill="#C9A4FF"/>
<path d="M57.9425 34.2622C46.4947 34.9608 40.1175 44.2871 39.7036 51.3886H78.1733C77.3196 41.5578 68.0061 33.6543 57.9425 34.2622Z" fill="#C9A4FF"/>
<path d="M59.0287 73.1456C69.959 73.0809 77.5004 64.2979 78.1471 56.0452H39.6646C40.4148 64.673 48.2536 73.2103 59.0287 73.1456Z" fill="#C9A4FF"/>
<path d="M18.9036 13.9017H23.4827V9.37432H27.9583V4.80812H23.418V0.293701H18.8647V4.84696H14.3633V9.45201H18.9036V13.9017Z" fill="#C9A4FF"/>
<path d="M9.60282 14.0179H5.16602V18.4678H9.60282V14.0179Z" fill="#C9A4FF"/>
<path d="M14.1946 23.1763H9.73193V27.6H14.1946V23.1763Z" fill="#C9A4FF"/>
</svg>
