<svg width="217" height="26" viewBox="0 0 217 26" fill="none" xmlns="http://www.w3.org/2000/svg">
<path d="M14.5512 1.84459C14.5897 1.87028 14.3799 2.60661 14.8294 2.70936C15.4245 2.84635 16.178 2.5638 16.8244 2.70936C17.1112 2.77357 17.1155 3.35579 17.2611 3.41144C19.7697 4.39608 20.5617 5.18379 21.5463 7.69674C21.602 7.8423 22.1842 7.85514 22.2484 8.1334C22.4197 8.89542 22.1029 9.77731 22.2656 10.5436C22.3383 10.8818 23.0447 10.6506 23.1474 11.4469C23.263 12.3331 23.2844 16.216 23.1046 16.9609C23.0276 17.2862 22.3341 17.2177 22.2613 17.5473C22.1243 18.1767 22.3897 18.8959 22.2484 19.5252C22.1842 19.8163 21.6063 19.8163 21.5463 19.9661C20.125 23.5707 18.8793 23.5879 15.5272 25.0991C15.3132 25.1975 15.4459 25.8183 15.4117 25.8183H0V1.84459C2.04204 2.247 13.7463 1.30946 14.5555 1.84459H14.5512ZM7.70155 7.83801V19.8249C10.3172 19.8206 12.843 20.4499 14.4142 17.9797C14.6197 17.6587 14.4955 17.0422 14.6967 16.5413C14.7567 16.3958 15.326 16.3872 15.3945 16.1004C15.5486 15.4753 15.5358 13.018 15.4416 12.3031C15.3389 11.5197 14.671 11.7765 14.564 11.3784C14.4313 10.869 14.6539 10.291 14.427 9.65744C14.3842 9.54614 12.843 8.00925 12.7317 7.96644C11.4474 7.46984 9.15281 8.05206 7.70155 7.83801Z" fill="#161616"/>
<path d="M56.5049 18.112C56.689 18.1891 57.344 20.4794 59.2662 20.7021C60.5419 20.8476 62.0403 20.5608 63.3546 20.6849L63.3803 18.3475L62.0617 18.112L62.4984 17.2601C59.232 17.6925 56.3551 15.9287 53.1957 15.4064L49.6682 11.8061C49.8351 10.175 49.2872 7.7049 49.7795 6.23223C49.8094 6.14661 50.9097 5.41028 51.1965 5.0892C51.3977 4.86659 51.2521 4.33146 51.646 3.95045C52.4294 3.18843 54.54 2.7004 55.4004 1.80566L65.6149 1.85276C65.9703 2.75605 69.759 3.90336 70.1014 4.51983C70.3069 4.88799 70.0886 5.50446 70.2299 5.77845C70.4696 6.24508 71.0476 6.04814 71.1032 6.75023C71.1503 7.34101 70.9448 9.43015 70.3412 9.56715L64.5147 9.53289C63.8041 8.69381 62.7253 8.23575 63.3503 6.98569C61.244 7.25112 58.2002 5.99677 57.3483 8.47548C57.8235 8.64672 58.1574 9.28459 58.3544 9.40018C60.0882 10.4362 61.411 10.0423 63.0592 10.4105C63.376 10.4833 63.3246 11.1811 63.6414 11.2496C64.5233 11.4465 65.5978 11.0655 66.4754 11.271C66.7537 11.3352 66.7665 11.9089 66.9164 11.9688C67.4729 12.1914 69.2153 12.6794 69.6348 13.0776C70.3326 13.7454 70.8635 15.4279 71.1974 16.2541C71.2573 16.3996 71.8267 16.4039 71.8995 16.6907C72.0408 17.2687 72.0408 19.7902 71.8995 20.3724C71.831 20.6593 71.2616 20.6678 71.2017 20.8134C70.7051 22.0634 69.6134 24.007 68.3548 24.8161C68.038 25.0216 67.4173 24.8975 66.9164 25.0987C66.7708 25.1586 66.7623 25.728 66.4754 25.7965C65.3153 26.0833 56.4365 26.0362 54.9723 25.8436C54.1889 25.7408 54.4458 25.073 54.0476 24.966C53.5382 24.8332 52.9603 25.0559 52.3267 24.829C52.2154 24.7862 50.7085 23.2107 50.6442 23.108C50.4388 22.7869 50.5629 22.1705 50.3617 21.6696C50.3018 21.524 49.7324 21.5155 49.6639 21.2286C49.4456 20.3211 49.7709 19.0796 49.651 18.1035H56.5007L56.5049 18.112Z" fill="#161616"/>
<path d="M133.564 16.3997C134.249 20.3425 131.513 22.1448 129.15 24.8247C125.545 26.5971 121.012 25.5696 116.739 25.8051C115.489 24.4138 112.557 24.0413 111.439 22.2604C111.217 21.9051 111.401 21.3272 111.264 21.036C111.08 20.6465 109.59 18.1892 109.556 17.928C109.363 16.4639 109.363 11.6307 109.556 10.1623C109.658 9.366 110.365 9.60574 110.442 9.25898C110.579 8.62967 110.313 7.91046 110.455 7.28115C110.519 6.99004 111.097 6.99005 111.157 6.84021C111.354 6.33505 111.234 5.72286 111.439 5.40178C112.561 3.6166 115.489 3.24843 116.739 1.8571C119.779 2.14821 123.606 1.42044 126.53 1.81001C127.313 1.91276 127.056 2.58059 127.455 2.68762C127.964 2.82033 128.542 2.59772 129.176 2.82461C129.402 2.90595 132.502 6.00112 132.579 6.22801C132.857 7.01144 132.558 7.70497 132.712 8.40278C132.789 8.75382 133.491 8.51408 133.598 9.31035C133.671 9.86688 133.658 11.3096 133.375 11.7206C132.926 12.3798 126.299 12.6881 125.875 10.95C125.601 9.82407 126.303 8.90366 124.86 7.98752C124.526 7.77775 123.931 7.88906 123.43 7.69641C123.285 7.64076 123.276 7.07994 122.989 7.00288C120.935 6.46347 120.883 7.57654 120.579 7.69641C119.732 8.02605 118.961 7.82912 118.302 8.83944C117.946 9.38741 118.46 10.3078 117.313 10.7102L117.266 16.6437C118.105 17.1917 117.908 18.2149 118.302 18.8271C118.383 18.9512 120.464 20.6294 120.609 20.6593C124.445 21.4941 125.425 19.238 126.718 16.3997H133.568H133.564Z" fill="#161616"/>
<path d="M136.988 0.987882C138.829 -0.0481235 140.49 0.0374945 142.558 0.135958L142.121 0.983604L143.838 0.559781V7.83751L144.698 8.05156L143.838 8.68942C145.268 9.25452 145.469 8.04299 145.897 7.88888C147.845 7.18251 149.656 6.65595 151.783 6.94706C152.511 7.04552 152.28 7.59349 152.751 7.79898C153.059 7.93169 153.624 7.75189 153.975 7.9745C156.955 9.87099 155.422 12.9105 155.786 15.7874C155.889 16.605 156.608 16.194 156.711 17.016C156.886 18.4202 156.882 24.5763 156.047 25.4025C155.097 26.3443 151.565 25.5695 150.105 25.8392C149.283 25.6508 150.05 18.0392 149.861 16.5836C149.759 15.7873 149.048 16.0185 148.979 15.6803C148.586 13.8181 149.335 11.3565 145.863 12.1399C145.537 12.2127 143.838 14.7257 143.838 14.8969V25.8135H136.988V0.983604V0.987882Z" fill="#161616"/>
<path d="M195.21 12.9751C195.253 12.1531 195.035 11.3141 195.338 10.5135C195.403 10.3465 197.71 8.02196 197.881 7.96202C198.665 7.68376 199.363 7.98771 200.056 7.82931C200.382 7.75653 200.322 7.06728 200.643 6.99022C202.663 6.50219 206.255 7.32415 208.485 6.98595L208.053 7.83358C210.968 7.09725 211.88 9.23776 214.051 10.4065V21.5371H216.624L216.564 25.116L215.922 25.7582C213.109 25.4628 209.196 27.1067 207.843 24.1014L204.881 25.8524C202.586 25.5441 199.748 26.1478 197.543 25.8524C196.777 25.7496 197.042 25.1503 196.597 24.9791C196.216 24.8292 195.381 25.0989 195.231 24.9491C195.082 24.7993 195.351 23.9602 195.201 23.5834C195.039 23.1725 194.444 23.2581 194.371 22.9541C194.23 22.3805 194.234 19.8461 194.371 19.2725C194.439 18.9856 195.009 18.9771 195.069 18.8315C195.291 18.275 195.142 17.8512 195.51 17.2518C196.208 16.1173 198.322 15.8862 199.375 15.411C199.59 15.3125 199.457 14.6918 199.491 14.6918H207.197C207.308 12.5127 207 12.7139 205.669 11.9519C204.894 11.5067 205.403 10.8089 203.357 11.5153C201.97 11.9947 202.162 12.9794 202.06 12.9794H195.21V12.9751ZM207.197 18.1123C204.106 17.7399 203.293 18.1337 201.212 19.8333L201.229 20.6681L201.944 20.758L201.627 21.5286L203.549 22.3976C203.935 20.9378 204.954 21.7811 206.225 21.4001C207.12 21.1347 207.437 18.9813 207.193 18.108L207.197 18.1123Z" fill="#161616"/>
<path d="M46.2304 18.9685C47.001 21.7341 44.8176 24.3412 42.3732 24.9662L42.8098 25.8139L31.1227 25.8053C30.2622 24.8164 28.2416 24.3455 27.4196 22.9199C26.7946 21.8368 26.8502 21.1219 26.5035 20.1587C26.3708 19.7948 25.7714 19.8162 25.7029 19.5208C25.5274 18.7673 25.5402 15.3083 25.6558 14.4435C25.7586 13.6472 26.4607 13.8913 26.5377 13.5359C26.6918 12.8424 26.3922 12.1446 26.6704 11.3612C26.7518 11.1343 29.8469 8.03911 30.0738 7.95777C30.8573 7.67951 31.5508 7.97918 32.2486 7.82506C32.6039 7.74801 32.3556 7.04592 33.1562 6.94318C35.2838 6.66491 38.0365 7.21288 40.2498 6.9817L39.8174 7.82935C41.3886 7.18292 41.9237 8.47149 42.1035 8.54427C43.2037 8.9895 44.4794 9.36623 45.2543 10.5307C45.5112 10.916 45.2415 11.6737 45.5026 12.0076C45.6824 12.2388 46.2432 12.0761 46.2432 12.1146V18.1081H32.544C33.2075 21.8325 35.5664 21.8925 38.9098 21.4729L40.2498 18.9643H46.2432L46.2304 18.9685ZM33.3873 14.6875H39.3808C39.7489 13.095 37.6641 11.13 36.1529 11.2199C34.8258 11.3012 35.0612 12.5513 33.3916 12.1232V14.6875H33.3873Z" fill="#161616"/>
<path d="M178.086 7.83778V9.31474L178.934 9.53734C178.745 8.29585 179.824 8.89519 180.299 8.65546C180.723 8.44569 182.517 7.03295 182.671 6.99442C183.262 6.84887 186.614 6.84887 187.205 6.99442C187.491 7.06292 187.5 7.63229 187.646 7.69223C188.142 7.89344 188.746 7.77356 189.075 7.98333C189.405 8.1931 190.925 10.462 190.925 10.6204V25.818H184.075V12.975C184.075 12.9022 182.979 12.153 182.911 12.1359C181.01 11.6821 180.629 12.4099 179.61 13.6514C179.43 13.8697 178.938 13.797 178.938 13.8312V25.818H172.088V7.83778H178.082H178.086Z" fill="#161616"/>
<path d="M88.1846 14.6872C88.0519 14.6358 86.9132 12.5681 87.3241 12.1228C85.7359 12.2299 81.579 11.4122 81.305 13.5998C81.1851 14.5759 81.1809 18.9939 81.4634 19.7174C81.5105 19.8372 83.2272 21.494 83.3556 21.5197C83.9635 21.6438 86.0441 21.6823 86.5878 21.5368C87.4226 21.3142 88.5357 18.5743 89.028 18.3175C90.4535 17.5683 95.8219 17.7096 95.0257 20.3895C94.9443 20.6592 94.422 20.5907 94.2123 21.0316C93.6814 22.1533 92.7182 24.0241 91.4724 24.8246C90.933 25.1714 89.9998 24.6405 89.5931 25.805L80.2348 25.852C79.6911 25.0044 78.6422 25.2142 78.0429 24.8246C77.8888 24.7261 75.577 22.4144 75.4786 22.2603C75.2731 21.9435 75.3972 21.3227 75.196 20.8219C75.1361 20.6763 74.5667 20.6677 74.4982 20.3809C74.3098 19.6189 74.327 13.6811 74.5068 12.8592C74.5325 12.7436 75.851 11.4079 76.0394 11.104C77.2423 9.18606 75.6284 9.69122 78.6251 8.54819C78.7707 8.49253 78.7749 7.91031 79.066 7.84609C79.6954 7.70482 80.4146 7.97024 81.0439 7.83325C81.3692 7.76048 81.3007 7.07123 81.6304 6.98989C82.2811 6.83149 87.2428 6.83149 87.8935 6.98989C88.2189 7.06695 88.1504 7.76048 88.48 7.83325C89.1093 7.97024 89.8285 7.70482 90.4578 7.84609C90.5691 7.87178 92.2387 8.7708 92.3372 8.83074C92.4357 8.89067 94.0154 10.3976 94.0582 10.5089C94.3364 11.2923 94.0368 11.9901 94.1909 12.6837C94.2422 12.9148 95.6464 13.2402 95.0385 14.6872H88.1889H88.1846Z" fill="#161616"/>
<path d="M105.309 25.818H98.459V7.83778H104.666C104.795 7.83778 104.996 7.29409 105.309 7.40968V25.818Z" fill="#161616"/>
<path d="M167.812 7.83789H160.962V25.8182H167.812V7.83789Z" fill="#161616"/>
<path d="M160.962 5.26913V0.555736L161.724 0.86397C161.934 -0.347557 165.928 -0.0179191 166.84 0.268909C168.24 0.709853 167.769 4.01479 167.812 5.26913H160.962Z" fill="#161616"/>
<path d="M99.1011 5.26911C98.1207 4.96516 98.4204 1.97273 98.5317 1.06087C100.531 -0.154936 102.646 0.110485 104.88 0.136171L104.572 0.893912C106.058 1.29205 105.022 3.89062 105.304 5.26911H99.0968H99.1011Z" fill="#161616"/>
</svg>
