<svg width="77" height="78" viewBox="0 0 77 78" fill="none" xmlns="http://www.w3.org/2000/svg">
<path d="M1.46143 7.6108C3.25944 6.52423 4.96691 5.48933 6.68731 4.4545C8.89925 3.12216 11.0983 1.77693 13.3231 0.457529C13.5301 0.328175 13.9181 0.263581 14.1122 0.379999C18.0704 2.73423 22.0157 5.11431 25.9609 7.48148C25.9997 7.50735 26.0256 7.54615 26.0903 7.6367C25.754 7.84366 25.4306 8.05059 25.1072 8.24462C21.5112 10.4048 17.9281 12.5521 14.3321 14.6864C14.0993 14.8287 13.6724 14.9064 13.4784 14.79C9.49427 12.4357 5.53607 10.0426 1.47437 7.59785" fill="#C9A4FF"/>
<path d="M26.9054 9.9519C26.9183 10.2494 26.9312 10.4564 26.9312 10.6505C26.9312 14.6216 26.9312 18.5928 26.9442 22.5511C26.9442 22.9391 26.9054 23.2236 26.5044 23.4694C22.8566 25.6555 19.2218 27.8544 15.574 30.0534C15.4188 30.144 15.2636 30.2086 15.0178 30.325C15.0049 30.0275 14.979 29.7947 14.979 29.5748C14.979 25.6554 14.979 21.7361 14.979 17.8167C14.979 17.2863 15.1342 16.9889 15.5999 16.7172C19.1183 14.6346 22.6109 12.5132 26.1163 10.4048C26.3492 10.2625 26.582 10.133 26.8924 9.96485" fill="#C9A4FF"/>
<path d="M0.685541 9.93921C1.09947 10.185 1.46165 10.3918 1.81091 10.5988C5.19996 12.6296 8.57606 14.6735 11.9781 16.6914C12.4308 16.9631 12.6248 17.2346 12.6119 17.7779C12.586 21.6973 12.599 25.6296 12.599 29.549C12.599 29.7689 12.5731 29.989 12.5602 30.3123C12.2626 30.1442 12.0427 30.0406 11.8228 29.9113C8.27856 27.7899 4.72133 25.6555 1.17705 23.5341C0.866603 23.353 0.633789 23.1978 0.633789 22.7451C0.65966 18.6187 0.633789 14.4794 0.633789 10.3531C0.633789 10.2496 0.646723 10.1332 0.672593 9.93921" fill="#C9A4FF"/>
<path d="M1.46143 55.2384C3.25944 54.1519 4.96691 53.1171 6.68731 52.0823C8.89925 50.75 11.0983 49.4047 13.3231 48.0853C13.5301 47.956 13.9181 47.8912 14.1122 48.0076C18.0704 50.3619 22.0157 52.742 25.9609 55.1091C25.9997 55.135 26.0256 55.1738 26.0903 55.2643C25.754 55.4713 25.4306 55.6782 25.1072 55.8723C21.5112 58.0325 17.9281 60.1799 14.3321 62.3142C14.0993 62.4565 13.6724 62.534 13.4784 62.4176C9.49427 60.0634 5.53607 57.6703 1.47437 55.2255" fill="#C9A4FF"/>
<path d="M26.9054 57.5802C26.9183 57.8777 26.9312 58.0847 26.9312 58.2788C26.9312 62.2499 26.9312 66.221 26.9442 70.1792C26.9442 70.5673 26.9054 70.8518 26.5044 71.0976C22.8566 73.2836 19.2218 75.4827 15.574 77.6817C15.4188 77.7723 15.2636 77.8369 15.0178 77.9533C15.0049 77.6558 14.979 77.423 14.979 77.2031C14.979 73.2837 14.979 69.3642 14.979 65.4448C14.979 64.9145 15.1342 64.617 15.5999 64.3453C19.1183 62.2628 22.6109 60.1414 26.1163 58.0329C26.3492 57.8906 26.582 57.7613 26.8924 57.5931" fill="#C9A4FF"/>
<path d="M0.685541 57.5669C1.09947 57.8127 1.46165 58.0196 1.81091 58.2266C5.19996 60.2575 8.57606 62.3012 11.9781 64.3191C12.4308 64.5907 12.6248 64.8623 12.6119 65.4056C12.586 69.325 12.599 73.2575 12.599 77.1769C12.599 77.3968 12.5731 77.6166 12.5602 77.94C12.2626 77.7719 12.0427 77.6683 11.8228 77.539C8.27856 75.4176 4.72133 73.2833 1.17705 71.1619C0.866603 70.9808 0.633789 70.8256 0.633789 70.3729C0.65966 66.2336 0.633789 62.1071 0.633789 57.9808C0.633789 57.8773 0.646723 57.7609 0.672593 57.5669" fill="#C9A4FF"/>
<path d="M50.7324 7.6108C52.5304 6.52423 54.2379 5.48933 55.9583 4.4545C58.1702 3.12216 60.3692 1.77693 62.5941 0.457529C62.8011 0.328175 63.1891 0.263581 63.3832 0.379999C67.3414 2.73423 71.2866 5.11431 75.2319 7.48148C75.2707 7.50735 75.2966 7.54615 75.3612 7.6367C75.0249 7.84366 74.7016 8.05059 74.3782 8.24462C70.7822 10.4048 67.1991 12.5521 63.603 14.6864C63.3702 14.8287 62.9433 14.9064 62.7493 14.79C58.7652 12.4357 54.807 10.0426 50.7453 7.59785" fill="#C9A4FF"/>
<path d="M76.1761 9.9519C76.1891 10.2494 76.202 10.4564 76.202 10.6505C76.202 14.6216 76.202 18.5928 76.2149 22.5511C76.2149 22.9391 76.1761 23.2236 75.7751 23.4694C72.1274 25.6555 68.4925 27.8544 64.8448 30.0534C64.6896 30.144 64.5343 30.2086 64.2886 30.325C64.2756 30.0275 64.2498 29.7947 64.2498 29.5748C64.2498 25.6554 64.2498 21.7361 64.2368 17.8167C64.2368 17.2863 64.3921 16.9889 64.8577 16.7172C68.3761 14.6346 71.8687 12.5132 75.3741 10.4048C75.607 10.2625 75.8398 10.133 76.1503 9.96485" fill="#C9A4FF"/>
<path d="M49.9692 9.93921C50.3831 10.185 50.7453 10.3918 51.0946 10.5988C54.4837 12.6296 57.8598 14.6735 61.2617 16.6914C61.7145 16.9631 61.9085 17.2346 61.8956 17.7779C61.8697 21.6973 61.8827 25.6296 61.8827 29.549C61.8827 29.7689 61.8568 29.989 61.8439 30.3123C61.5463 30.1442 61.3264 30.0406 61.1065 29.9113C57.5622 27.7899 54.005 25.6555 50.4607 23.5341C50.1503 23.353 49.9175 23.1978 49.9175 22.7451C49.9434 18.6187 49.9175 14.4794 49.9175 10.3531C49.9175 10.2496 49.9304 10.1332 49.9563 9.93921" fill="#C9A4FF"/>
<path d="M50.7324 55.2384C52.5304 54.1519 54.2379 53.1171 55.9583 52.0823C58.1702 50.75 60.3692 49.4047 62.5941 48.0853C62.8011 47.956 63.1891 47.8912 63.3832 48.0076C67.3414 50.3619 71.2866 52.742 75.2319 55.1091C75.2707 55.135 75.2966 55.1738 75.3612 55.2643C75.0249 55.4713 74.7016 55.6782 74.3782 55.8723C70.7822 58.0325 67.1991 60.1799 63.603 62.3142C63.3702 62.4565 62.9433 62.534 62.7493 62.4176C58.7652 60.0634 54.807 57.6703 50.7453 55.2255" fill="#C9A4FF"/>
<path d="M76.1761 57.5802C76.1891 57.8777 76.202 58.0847 76.202 58.2788C76.202 62.2499 76.202 66.221 76.2149 70.1792C76.2149 70.5673 76.1761 70.8518 75.7751 71.0976C72.1274 73.2836 68.4925 75.4827 64.8448 77.6817C64.6896 77.7723 64.5343 77.8369 64.2886 77.9533C64.2756 77.6558 64.2498 77.423 64.2498 77.2031C64.2498 73.2837 64.2498 69.3642 64.2368 65.4448C64.2368 64.9145 64.3921 64.617 64.8577 64.3453C68.3761 62.2628 71.8687 60.1414 75.3741 58.0329C75.607 57.8906 75.8398 57.7613 76.1503 57.5931" fill="#C9A4FF"/>
<path d="M49.9692 57.5669C50.3831 57.8127 50.7453 58.0196 51.0946 58.2266C54.4837 60.2575 57.8598 62.3012 61.2617 64.3191C61.7145 64.5907 61.9085 64.8623 61.8956 65.4056C61.8697 69.325 61.8827 73.2575 61.8827 77.1769C61.8827 77.3968 61.8568 77.6166 61.8439 77.94C61.5463 77.7719 61.3264 77.6683 61.1065 77.539C57.5622 75.4176 54.005 73.2833 50.4607 71.1619C50.1503 70.9808 49.9175 70.8256 49.9175 70.3729C49.9434 66.2336 49.9175 62.1071 49.9175 57.9808C49.9175 57.8773 49.9304 57.7609 49.9563 57.5669" fill="#C9A4FF"/>
<path d="M63.8225 33.5336H62.335V44.7484H63.8225V33.5336Z" fill="#C9A4FF"/>
<path d="M44.0445 62.2112H32.8296V63.6988H44.0445V62.2112Z" fill="#C9A4FF"/>
<path d="M44.0445 14.5829H32.8296V16.0705H44.0445V14.5829Z" fill="#C9A4FF"/>
</svg>
