<svg width="80" height="81" viewBox="0 0 80 81" fill="none" xmlns="http://www.w3.org/2000/svg">
<rect y="0.803223" width="80" height="80" rx="40" fill="white"/>
<path d="M41.5217 51.8241L42.3356 60.0408L40.3425 61.7297L38.1994 60.0408L39.13 51.8241H41.5217ZM40.3314 18.5811C47.4356 18.5811 53.2161 24.3616 53.2161 31.4658C53.2154 33.5403 52.7134 35.584 51.7528 37.4228C50.7923 39.2616 49.4017 40.8411 47.6994 42.0269C55.3314 44.7491 60.955 51.5602 61.7453 59.7255C61.7699 59.9762 61.7418 60.2292 61.6627 60.4684C61.5837 60.7076 61.4555 60.9276 61.2863 61.1142C61.1172 61.3009 60.9109 61.4501 60.6806 61.5523C60.4504 61.6544 60.2013 61.7073 59.9494 61.7074C59.0467 61.7074 58.2605 61.0338 58.1772 60.1352C57.548 53.3616 52.8855 47.7005 46.555 45.4158L46.4439 45.7533C45.9976 47.0678 45.1507 48.2095 44.0223 49.0181C42.8938 49.8267 41.5404 50.2615 40.1522 50.2615C38.764 50.2615 37.4106 49.8267 36.2822 49.0181C35.1537 48.2095 34.3069 47.0678 33.8606 45.7533L33.7883 45.5449C27.6161 47.8963 23.1092 53.4797 22.4925 60.1297C22.4092 61.0324 21.6217 61.7005 20.7189 61.7005C20.4671 61.7003 20.2182 61.6475 19.988 61.5454C19.7579 61.4434 19.5516 61.2943 19.3825 61.1078C19.2134 60.9213 19.0852 60.7014 19.0061 60.4624C18.9269 60.2234 18.8987 59.9705 18.9231 59.7199C19.7092 51.5547 25.3314 44.7422 32.9647 42.0213C31.2617 40.8362 29.8706 39.2568 28.9098 37.4179C27.9489 35.579 27.447 33.535 27.4467 31.4602C27.4467 24.3561 33.2272 18.5811 40.3314 18.5811ZM40.3369 44.3505C39.2883 44.3505 38.255 44.4394 37.2564 44.6074C37.4592 45.2116 37.8469 45.7367 38.3646 46.1083C38.8823 46.48 39.5038 46.6794 40.1411 46.6783C41.4425 46.6783 42.605 45.8477 43.0258 44.6088L43.0536 44.5519C42.1544 44.4164 41.2463 44.3491 40.3369 44.3505ZM40.3314 22.1672C35.2078 22.1672 31.0397 26.3422 31.0397 31.4658C31.0434 33.929 32.0235 36.2902 33.7652 38.0319C35.507 39.7736 37.8682 40.7538 40.3314 40.7574C45.455 40.7574 49.6244 36.5838 49.6244 31.4602C49.6211 28.9968 48.6412 26.6352 46.8994 24.8932C45.1576 23.1512 42.7962 22.1708 40.3328 22.1672H40.3314Z" fill="black"/>
</svg>
