<svg width="68" height="80" viewBox="0 0 68 80" fill="none" xmlns="http://www.w3.org/2000/svg">
<path d="M65.1663 58.0729V32.6666C65.1663 18.8396 65.1663 11.9243 60.869 7.63058C56.5717 3.33692 49.66 3.33325 35.833 3.33325H32.1663C18.3393 3.33325 11.424 3.33325 7.13034 7.63058C2.83667 11.9279 2.83301 18.8396 2.83301 32.6666V67.4999" stroke="black" stroke-width="5.5" stroke-linecap="round"/>
<path d="M65.1663 58.3333H11.9997C9.56852 58.3333 7.23695 59.2991 5.51786 61.0182C3.79878 62.7373 2.83301 65.0688 2.83301 67.5C2.83301 69.9311 3.79878 72.2627 5.51786 73.9818C7.23695 75.7009 9.56852 76.6666 11.9997 76.6666H65.1663" stroke="black" stroke-width="5.5" stroke-linecap="round"/>
<path d="M65.1667 76.6666C62.7355 76.6666 60.4039 75.7009 58.6849 73.9818C56.9658 72.2627 56 69.9311 56 67.5C56 65.0688 56.9658 62.7373 58.6849 61.0182C60.4039 59.2991 62.7355 58.3333 65.1667 58.3333" stroke="black" stroke-width="5.5" stroke-linecap="round"/>
<path d="M35.129 39.9996L29.772 23.4226C29.5865 22.9001 29.2413 22.4493 28.7852 22.1341C28.3291 21.8188 27.7853 21.6552 27.231 21.6663C26.6767 21.6552 26.1329 21.8188 25.6768 22.1341C25.2207 22.4493 24.8755 22.9001 24.69 23.4226L19.333 39.9996M44.9997 21.6663V39.9996M21.3057 34.4996H33.1527" stroke="black" stroke-width="5.5" stroke-linecap="round" stroke-linejoin="round"/>
</svg>
