<svg width="58" height="64" viewBox="0 0 58 64" fill="none" xmlns="http://www.w3.org/2000/svg">
<path d="M29.0608 2.67487C29.723 2.32616 31.2799 1.50369 32.1992 1C33.2788 1.05812 34.9273 1.27474 36.699 1.73265M29.0608 2.67487V16.6955M29.0608 2.67487L25.9224 1C24.4342 1.04051 23.0781 1.18492 21.84 1.41916M29.0608 16.6955L21.6322 24.0202M29.0608 16.6955L35.5472 23.4972M21.84 1.41916C12.8334 3.12221 10.1617 9.61564 10.1617 15.9629M21.84 1.41916V11.3592M47.5813 15.9629C47.6852 13.0323 47.3717 9.37083 43.7102 5.39412C41.9896 3.52552 39.221 2.38428 36.7008 1.73265V7.38247M47.5813 15.9629C50.0311 16.5617 54.3935 19.0942 56.1899 24.7529M47.5813 15.9629H38.5835M47.5813 45.6791C48.2963 50.4888 46.7342 59.9974 35.549 62.0861C34.73 62.2393 33.86 62.3521 32.9336 62.4207C32.2697 61.9329 30.5895 60.8515 29.1665 60.4324M47.5813 45.6791L40.4662 38.2505M47.5813 45.6791C50.2248 44.7386 55.0979 41.2991 56.5668 34.4833M29.1665 60.4324V45.3656M29.1665 60.4324C28.3299 60.6772 26.3627 61.4151 25.1898 62.4207C23.647 62.2675 21.0634 61.7462 18.5977 60.6754L22.5744 56.7692M29.1665 45.3656H37.6412M29.1665 45.3656V40.7601M29.1665 30.297L25.1898 26.9491M29.1665 30.297L23.0975 36.2621M29.1665 30.297H31.9914M29.1665 30.297V40.7601M29.1665 40.7601L21.6322 48.3649M35.549 56.7692V62.0844M56.1916 24.7529C56.6971 26.345 57 28.1854 57 30.2988C57 31.8152 56.8433 33.2082 56.5685 34.4833H50.0945M56.1899 24.7511H46.7447M21.6322 48.3649L18.0747 51.9559M21.6322 48.3649L25.1898 51.9559M10.3326 45.6791C10.2287 47.7713 10.6883 52.9192 13.3671 56.7709C14.5823 58.518 16.5495 59.786 18.5995 60.6754M10.3326 45.6791C7.81057 44.8742 3.41117 42.0018 1.7046 36.2621M10.3326 45.6791L14.8834 41.285M1.7046 36.2621C1.1921 34.5379 0.92264 32.5584 1.0195 30.297C1.43866 20.5049 7.28926 16.6603 10.1617 15.9629M1.7046 36.2621L10.3326 28.1502M19.436 36.8891L14.8852 41.2832L10.1617 36.8891M10.1617 15.9629L14.4132 19.9396M21.84 11.3592L18.5995 15.2302M21.84 11.3592L25.1898 15.2302M16.5055 22.3454L10.3326 28.1502M10.3326 28.1502L15.0402 32.9141" stroke="#496E93" stroke-width="1.40893" stroke-linecap="round"/>
<path d="M37.9385 9.15305C38.0496 8.46848 37.5847 7.82347 36.9001 7.71237C36.2156 7.60127 35.5706 8.06616 35.4595 8.75072C35.3484 9.43529 35.8132 10.0803 36.4978 10.1914C37.1824 10.3025 37.8274 9.83761 37.9385 9.15305Z" stroke="#496E93" stroke-width="1.40893"/>
<path d="M38.357 16.2698C38.4681 15.5852 38.0032 14.9402 37.3186 14.8291C36.634 14.718 35.989 15.1829 35.8779 15.8674C35.7668 16.552 36.2317 17.197 36.9163 17.3081C37.6008 17.4192 38.2459 16.9543 38.357 16.2698Z" stroke="#496E93" stroke-width="1.40893"/>
<path d="M37.7295 24.8489C37.8406 24.1643 37.3757 23.5193 36.6912 23.4082C36.0066 23.2971 35.3616 23.762 35.2505 24.4465C35.1394 25.1311 35.6043 25.7761 36.2888 25.8872C36.9734 25.9983 37.6184 25.5334 37.7295 24.8489Z" stroke="#496E93" stroke-width="1.40893"/>
<path d="M45.2794 26.1125C45.9729 26.1125 46.5351 25.5503 46.5351 24.8568C46.5351 24.1633 45.9729 23.6011 45.2794 23.6011C44.5859 23.6011 44.0237 24.1633 44.0237 24.8568C44.0237 25.5503 44.5859 26.1125 45.2794 26.1125Z" stroke="#496E93" stroke-width="1.40893"/>
<path d="M33.5606 31.5529C34.2542 31.5529 34.8164 30.9907 34.8164 30.2972C34.8164 29.6037 34.2542 29.0415 33.5606 29.0415C32.8671 29.0415 32.3049 29.6037 32.3049 30.2972C32.3049 30.9907 32.8671 31.5529 33.5606 31.5529Z" stroke="#496E93" stroke-width="1.40893"/>
<path d="M48.6273 35.739C49.3208 35.739 49.883 35.1768 49.883 34.4833C49.883 33.7897 49.3208 33.2275 48.6273 33.2275C47.9338 33.2275 47.3716 33.7897 47.3716 34.4833C47.3716 35.1768 47.9338 35.739 48.6273 35.739Z" stroke="#496E93" stroke-width="1.40893"/>
<path d="M39.42 38.4582C40.1135 38.4582 40.6757 37.896 40.6757 37.2025C40.6757 36.509 40.1135 35.9468 39.42 35.9468C38.7265 35.9468 38.1643 36.509 38.1643 37.2025C38.1643 37.896 38.7265 38.4582 39.42 38.4582Z" stroke="#496E93" stroke-width="1.40893"/>
<path d="M39.0025 46.6213C39.6961 46.6213 40.2583 46.0591 40.2583 45.3656C40.2583 44.6721 39.6961 44.1099 39.0025 44.1099C38.309 44.1099 37.7468 44.6721 37.7468 45.3656C37.7468 46.0591 38.309 46.6213 39.0025 46.6213Z" stroke="#496E93" stroke-width="1.40893"/>
<path d="M35.4452 56.4558C36.1387 56.4558 36.7009 55.8936 36.7009 55.2C36.7009 54.5065 36.1387 53.9443 35.4452 53.9443C34.7517 53.9443 34.1895 54.5065 34.1895 55.2C34.1895 55.8936 34.7517 56.4558 35.4452 56.4558Z" stroke="#496E93" stroke-width="1.40893"/>
</svg>
