<svg width="84" height="84" viewBox="0 0 84 84" fill="none" xmlns="http://www.w3.org/2000/svg">
<g filter="url(#filter0_ii_540_333)">
<circle cx="41.6503" cy="41.6498" r="41.6498" fill="url(#paint0_radial_540_333)"/>
</g>
<path d="M30.2109 61.3743C28.3662 60.7101 26.0511 59.7434 24.8972 58.0387C18.981 49.2939 25.7351 43.5747 31.7689 38.0917C32.1805 37.7153 31.8204 37.2578 32.5994 37.3906C35.1938 40.4827 38.354 43.1172 41.2423 45.8772C41.5142 47.6114 41.3232 49.471 40.6764 51.4709C41.235 53.4486 41.551 55.3968 41.6098 57.3155C40.2722 59.1456 37.428 60.6289 35.3628 61.3743C33.9591 62.0163 31.6293 62.0015 30.2182 61.3743H30.2109Z" fill="#5E3C92" fill-opacity="0.7"/>
<path d="M41.9702 44.0323C40.9854 42.3424 34.4224 36.601 34.2827 36.0623C34.0328 35.0661 41.2426 28.9632 42.0878 27.5611C46.4974 25.1848 52.3108 25.3324 55.5445 29.4502C58.3005 32.9555 58.3299 35.6565 57.764 39.9661C54.4715 38.8223 48.1731 38.9404 45.5126 41.4199C45.1525 41.7594 45.3068 42.1431 45.2774 42.18C44.5057 42.5711 43.8957 43.1836 43.4401 44.0249C43.2784 44.6153 42.1686 44.5858 41.9702 44.0249V44.0323Z" fill="#5E3C92" fill-opacity="0.7"/>
<path d="M43.4399 50.6739C43.3738 50.6444 42.7344 49.53 42.7564 49.4562C43.1386 48.2386 44.6673 44.8661 45.5565 44.0249C48.0039 41.7003 51.8035 41.0878 55.0373 41.4273C58.7855 41.8184 63.8639 46.7037 62.9158 50.6739H43.4399Z" fill="#5E3C92" fill-opacity="0.7"/>
<path d="M43.4393 54.7327L43.1895 52.7623C49.8186 52.6074 56.4037 52.6442 62.952 52.8583L62.5478 54.7327C61.7614 58.1199 59.0495 60.2895 55.9333 61.3743C54.1989 62.0311 51.7074 62.2229 50.0538 61.3743C47.386 59.9869 43.8068 58.1863 43.4393 54.7327Z" fill="#5E3C92" fill-opacity="0.7"/>
<path d="M34.6208 23.3695C34.7531 23.5097 34.3856 25.0446 34.7751 25.6129C35.1646 26.1811 36.6345 25.7162 37.0314 26.2992C38.5968 28.6163 35.172 28.3212 34.7825 28.882C34.4224 29.3986 34.7384 30.6236 34.6208 30.749C34.5326 30.845 32.1367 30.845 32.0485 30.749C31.9162 30.6162 32.1808 29.0222 32.0485 28.8968C31.8942 28.7492 28.7927 29.2362 29.4615 26.5648C29.6453 25.8269 31.9456 26.0482 32.0485 25.9449C32.1881 25.8121 31.9603 23.8713 32.0485 23.3621C32.5483 23.4433 34.5106 23.244 34.6281 23.3621L34.6208 23.3695Z" fill="#5E3C92" fill-opacity="0.7"/>
<path d="M43.44 54.7326L42.7051 52.5188H63.0703L62.5485 54.7326C62.6881 54.1349 62.7689 53.4929 62.9159 52.8877H43.6532C43.293 52.932 43.4033 54.3415 43.44 54.7326Z" fill="#5E3C92" fill-opacity="0.7"/>
<path d="M27.6463 30.749H24.6992V33.3392H27.6463V30.749Z" fill="#5E3C92" fill-opacity="0.7"/>
<path d="M30.2112 35.5457V38.1286C27.7565 38.3205 26.9334 38.2614 27.2641 35.5457H30.2112Z" fill="#5E3C92" fill-opacity="0.7"/>
<path d="M41.6023 57.3155C41.5949 55.4558 40.544 53.8323 40.4778 51.9653C40.397 49.84 41.5141 48.0246 41.2348 45.8772C42.8002 47.3752 40.8967 49.3972 40.8453 51.2421C40.8012 52.8804 42.69 55.8248 41.6023 57.3155Z" fill="#5E3C92" fill-opacity="0.7"/>
<path d="M35.3555 61.3743C35.3041 61.3964 35.2012 61.9647 34.4442 62.1049C33.7533 62.2303 31.453 62.2303 30.8209 62.0385C30.3873 61.9056 30.255 61.3891 30.2109 61.3743H35.3555Z" fill="#5E3C92" fill-opacity="0.7"/>
<path d="M55.9342 61.3743C55.7799 61.426 55.5226 61.9204 54.9567 62.0385C54.0822 62.223 51.4878 62.2598 50.6647 62.0385C50.2237 61.9204 50.1282 61.4112 50.0547 61.3743C52.1493 61.7654 53.847 61.5588 55.9342 61.3743Z" fill="#5E3C92" fill-opacity="0.7"/>
<path d="M45.2768 42.1874C44.6227 42.8958 44.1082 43.3755 43.4395 44.0323C43.557 43.9585 44.0715 41.9438 45.2768 42.1874Z" fill="#5E3C92" fill-opacity="0.7"/>
<path d="M43.4397 44.0323C43.3074 44.1577 43.844 44.6595 42.9032 44.785C41.4921 44.9695 42.1389 44.3274 41.9699 44.0323C42.33 43.9511 43.2633 44.1503 43.4397 44.0323Z" fill="#5E3C92" fill-opacity="0.7"/>
<defs>
<filter id="filter0_ii_540_333" x="-2.99951" y="-3.99998" width="86.2993" height="91.5995" filterUnits="userSpaceOnUse" color-interpolation-filters="sRGB">
<feFlood flood-opacity="0" result="BackgroundImageFix"/>
<feBlend mode="normal" in="SourceGraphic" in2="BackgroundImageFix" result="shape"/>
<feColorMatrix in="SourceAlpha" type="matrix" values="0 0 0 0 0 0 0 0 0 0 0 0 0 0 0 0 0 0 127 0" result="hardAlpha"/>
<feMorphology radius="1" operator="dilate" in="SourceAlpha" result="effect1_innerShadow_540_333"/>
<feOffset dx="-3" dy="7"/>
<feGaussianBlur stdDeviation="2.65"/>
<feComposite in2="hardAlpha" operator="arithmetic" k2="-1" k3="1"/>
<feColorMatrix type="matrix" values="0 0 0 0 1 0 0 0 0 1 0 0 0 0 1 0 0 0 0.56 0"/>
<feBlend mode="normal" in2="shape" result="effect1_innerShadow_540_333"/>
<feColorMatrix in="SourceAlpha" type="matrix" values="0 0 0 0 0 0 0 0 0 0 0 0 0 0 0 0 0 0 127 0" result="hardAlpha"/>
<feMorphology radius="3" operator="erode" in="SourceAlpha" result="effect2_innerShadow_540_333"/>
<feOffset dy="-4"/>
<feGaussianBlur stdDeviation="3.9"/>
<feComposite in2="hardAlpha" operator="arithmetic" k2="-1" k3="1"/>
<feColorMatrix type="matrix" values="0 0 0 0 1 0 0 0 0 0.333333 0 0 0 0 0.835294 0 0 0 0.28 0"/>
<feBlend mode="normal" in2="effect1_innerShadow_540_333" result="effect2_innerShadow_540_333"/>
</filter>
<radialGradient id="paint0_radial_540_333" cx="0" cy="0" r="1" gradientUnits="userSpaceOnUse" gradientTransform="translate(53.9354 21.2744) rotate(118.551) scale(46.3927)">
<stop stop-color="white" stop-opacity="0"/>
<stop offset="1" stop-color="#FFBCE1"/>
</radialGradient>
</defs>
</svg>
