<svg width="87" height="87" viewBox="0 0 87 87" fill="none" xmlns="http://www.w3.org/2000/svg">
<g filter="url(#filter0_ii_540_132)">
<circle cx="43.5" cy="43.5" r="43.5" fill="url(#paint0_radial_540_132)"/>
</g>
<path d="M21.2509 41.8356C21.0252 41.5264 20.8252 41.3055 20.6423 41.1757C20.4624 41.046 20.2681 40.9521 20.0595 40.8969C19.851 40.8416 19.6339 40.814 19.4053 40.814C19.0682 40.814 18.7568 40.8858 18.4683 41.0322C18.1797 41.1785 17.9312 41.3745 17.7198 41.6258C17.5083 41.8743 17.3426 42.167 17.2227 42.4983C17.1027 42.8296 17.0427 43.1803 17.0427 43.553C17.0427 43.9258 17.1027 44.282 17.2198 44.6133C17.3369 44.9446 17.5026 45.2345 17.7112 45.483C17.9197 45.7315 18.1683 45.9276 18.4568 46.0739C18.7454 46.2202 19.0625 46.292 19.4053 46.292C19.6453 46.292 19.871 46.2534 20.0795 46.1788C20.2881 46.1043 20.4766 46.0049 20.6481 45.8806C20.8195 45.7564 20.968 45.6156 21.0966 45.4526C21.2251 45.2925 21.3251 45.1241 21.3966 44.9501L23.3335 45.472C23.2078 45.853 23.0278 46.2037 22.7879 46.5267C22.5479 46.8498 22.2565 47.1314 21.9194 47.3661C21.5794 47.6035 21.1994 47.7885 20.7766 47.9238C20.3538 48.0591 19.8967 48.1281 19.4082 48.1281C18.9939 48.1281 18.5997 48.0729 18.2226 47.9652C17.8455 47.8576 17.4941 47.7029 17.1684 47.5069C16.8427 47.3081 16.5456 47.0706 16.2799 46.7918C16.0142 46.5129 15.7856 46.2037 15.5971 45.8641C15.4085 45.5244 15.2628 45.16 15.1571 44.7707C15.0543 44.3813 15 43.9755 15 43.553C15 42.9207 15.1143 42.3299 15.3428 41.7776C15.5714 41.2254 15.8828 40.7422 16.2799 40.3308C16.677 39.9194 17.1427 39.5936 17.6769 39.3562C18.2111 39.1187 18.7882 39 19.4053 39C19.8996 39 20.3138 39.058 20.6509 39.1767C20.988 39.2954 21.3594 39.5274 21.7622 39.8753H23.1078V41.8384H21.2509V41.8356Z" fill="black"/>
<path d="M29.9272 46.3721H30.8357L30.4271 45.1047H27.6245L27.216 46.3721H28.1788V47.9652H24.7219V46.3721H25.4019L27.8845 39.1574H30.2957L32.7241 46.3721H33.384V47.9652H29.9272V46.3721ZM28.0988 43.6193H29.9386L29.013 40.756L28.0988 43.6193Z" fill="black"/>
<path d="M40.5748 39.1574H44.0374V40.7561H43.2974V47.9653H41.3005L37.5065 42.2719V46.3749H38.2693V47.968H34.8125V46.3749H35.5639V40.7561H34.8239V39.1574H37.578L41.3462 44.9253V40.7533H40.572V39.1546L40.5748 39.1574Z" fill="black"/>
<path d="M51.608 41.8356C51.3823 41.5264 51.1824 41.3055 50.9995 41.1757C50.8195 41.046 50.6253 40.9521 50.4167 40.8969C50.2082 40.8416 49.991 40.814 49.7625 40.814C49.4254 40.814 49.114 40.8858 48.8254 41.0322C48.5369 41.1785 48.2883 41.3745 48.0769 41.6258C47.8655 41.8743 47.6998 42.167 47.5798 42.4983C47.4598 42.8296 47.3998 43.1803 47.3998 43.553C47.3998 43.9258 47.4598 44.282 47.577 44.6133C47.6941 44.9446 47.8598 45.2345 48.0684 45.483C48.2769 45.7315 48.5255 45.9276 48.814 46.0739C49.1026 46.2202 49.4197 46.292 49.7625 46.292C50.0025 46.292 50.2282 46.2534 50.4367 46.1788C50.6453 46.1043 50.8338 46.0049 51.0052 45.8806C51.1766 45.7564 51.3252 45.6156 51.4538 45.4526C51.5823 45.2925 51.6823 45.1241 51.7537 44.9501L53.6907 45.472C53.565 45.853 53.385 46.2037 53.145 46.5267C52.9051 46.8498 52.6137 47.1314 52.2766 47.3661C51.9366 47.6035 51.5566 47.7885 51.1338 47.9238C50.711 48.0591 50.2539 48.1281 49.7653 48.1281C49.3511 48.1281 48.9569 48.0729 48.5797 47.9652C48.2026 47.8576 47.8512 47.7029 47.5256 47.5069C47.1999 47.3081 46.9027 47.0706 46.6371 46.7918C46.3714 46.5129 46.1428 46.2037 45.9543 45.8641C45.7657 45.5244 45.62 45.16 45.5143 44.7707C45.4115 44.3813 45.3572 43.9755 45.3572 43.553C45.3572 42.9207 45.4714 42.3299 45.7 41.7776C45.9285 41.2254 46.2399 40.7422 46.6371 40.3308C47.0342 39.9194 47.4998 39.5936 48.0341 39.3562C48.5683 39.1187 49.1454 39 49.7625 39C50.2567 39 50.671 39.058 51.0081 39.1767C51.3452 39.2954 51.7166 39.5274 52.1194 39.8753H53.465V41.8384H51.608V41.8356Z" fill="black"/>
<path d="M55.5964 39.1574H62.8472V42.1614H60.8874V40.9134H58.5476V42.6501H60.356V44.3344H58.5476V46.3748H60.8874V44.8121H62.8472V47.968H55.5964V46.3748H56.5535V40.9134H55.5964V39.1601V39.1574Z" fill="black"/>
<path d="M64.5068 39.1574H69.3293C69.7978 39.1574 70.2177 39.2264 70.5863 39.3617C70.9548 39.497 71.2662 39.6792 71.5176 39.9056C71.769 40.132 71.9633 40.3943 72.0976 40.6953C72.2319 40.9962 72.3004 41.3082 72.3004 41.6341C72.3004 41.9323 72.2661 42.1946 72.2004 42.4182C72.1347 42.6418 72.0376 42.8434 71.9119 43.0174C71.7862 43.1913 71.629 43.3459 71.4462 43.4785C71.2605 43.611 71.052 43.7325 70.8148 43.8429C71.0205 43.9451 71.2005 44.0969 71.3548 44.304C71.5119 44.5111 71.629 44.7789 71.709 45.1075L72.0147 46.2533H72.7661L72.7775 47.968H70.132L69.7721 45.8778C69.7349 45.6293 69.6807 45.4167 69.6064 45.2345C69.5321 45.055 69.4321 44.9087 69.3093 44.7927C69.1836 44.6795 69.035 44.5939 68.855 44.5387C68.6779 44.4835 68.4665 44.4586 68.2208 44.4586H67.4466V46.3748H68.2808V47.968H64.5068V46.3748H65.4496V40.756H64.5068V39.1574ZM67.4466 40.7533V42.8848H68.6436C68.8721 42.8848 69.0778 42.8655 69.2607 42.8241C69.4435 42.7827 69.6007 42.7192 69.7292 42.6336C69.8606 42.5452 69.9606 42.4375 70.0292 42.305C70.1006 42.1725 70.1349 42.0178 70.1349 41.8356C70.1349 41.496 70.0092 41.2282 69.7549 41.0404C69.5035 40.8499 69.1321 40.756 68.6436 40.756H67.4466V40.7533Z" fill="black"/>
<path d="M15.4629 51.6595H18.854C19.2711 51.6595 19.6682 51.7119 20.0453 51.8168C20.4224 51.9218 20.7738 52.0681 21.0967 52.2586C21.4224 52.4491 21.7166 52.6755 21.9794 52.9406C22.2423 53.2057 22.4708 53.5011 22.6565 53.8269C22.8422 54.1527 22.9851 54.5006 23.0851 54.8761C23.1851 55.2489 23.2365 55.6382 23.2365 56.0413C23.2365 56.4444 23.1851 56.8448 23.0851 57.2203C22.9851 57.5958 22.8422 57.9492 22.6565 58.2778C22.4708 58.6063 22.2451 58.9073 21.9794 59.1751C21.7138 59.4457 21.4195 59.6749 21.0967 59.8654C20.771 60.0559 20.4224 60.205 20.0453 60.3099C19.6682 60.4148 19.2711 60.4673 18.854 60.4673H15.4629V59.4678H16.3285V52.6645H15.4629V51.6595ZM17.5056 52.6645V59.4678H18.9254C19.3454 59.4678 19.7425 59.3794 20.1139 59.2C20.4853 59.0233 20.8081 58.7775 21.0852 58.471C21.3624 58.1618 21.5795 57.8001 21.7395 57.3832C21.8995 56.9663 21.9794 56.519 21.9794 56.0385C21.9794 55.5581 21.8995 55.1246 21.7395 54.7132C21.5795 54.3018 21.3595 53.9456 21.0852 53.6419C20.8081 53.3382 20.4853 53.098 20.1139 52.924C19.7425 52.7501 19.3483 52.6617 18.9254 52.6617H17.5056V52.6645Z" fill="black"/>
<path d="M30.5273 59.4678H31.2844L30.5644 57.4688H27.059L26.3562 59.4678H27.2933V60.4673H24.3364V59.4678H25.1306L27.9675 51.6595H29.7417L32.5728 59.4678H33.487V60.4673H30.5301V59.4678H30.5273ZM27.4019 56.5052H30.2159L28.796 52.5651L27.4019 56.5052Z" fill="black"/>
<path d="M38.9636 60.6413C38.335 60.6413 37.758 60.5281 37.238 60.3017C36.7181 60.0752 36.2524 59.7522 35.8438 59.3353C35.4353 58.9184 35.1239 58.4214 34.9125 57.8471C34.7011 57.2727 34.5925 56.6791 34.5925 56.0634C34.5925 55.4477 34.7011 54.832 34.9154 54.2742C35.1296 53.7165 35.4296 53.2305 35.8181 52.8191C36.2038 52.4077 36.6666 52.0819 37.2009 51.8445C37.7351 51.607 38.3236 51.4883 38.9664 51.4883C39.6092 51.4883 40.2035 51.607 40.7405 51.8445C41.2776 52.0819 41.7376 52.4077 42.1233 52.8191C42.509 53.2305 42.8061 53.7165 43.0203 54.2742C43.2317 54.832 43.3403 55.4283 43.3403 56.0634C43.3403 56.6984 43.2318 57.2948 43.0175 57.8498C42.8032 58.4048 42.5032 58.8907 42.1147 59.3049C41.729 59.7191 41.2662 60.0449 40.732 60.2851C40.1977 60.5225 39.6092 60.6413 38.9664 60.6413H38.9636ZM38.9636 59.5617C39.4407 59.5617 39.8721 59.4678 40.2577 59.2773C40.6434 59.0868 40.9748 58.8328 41.2462 58.5125C41.5176 58.1922 41.729 57.8222 41.8776 57.3998C42.0261 56.9773 42.1004 56.5328 42.1004 56.0634C42.1004 55.594 42.0204 55.1191 41.8576 54.6718C41.6947 54.2245 41.4691 53.8462 41.1776 53.537C40.8862 53.2278 40.5491 52.9875 40.1635 52.8191C39.7778 52.6507 39.3778 52.5651 38.9607 52.5651C38.4836 52.5651 38.0522 52.659 37.6637 52.8495C37.2751 53.04 36.9437 53.294 36.6723 53.6143C36.4009 53.9346 36.1895 54.3046 36.041 54.7298C35.8924 55.155 35.8181 55.5995 35.8181 56.0634C35.8181 56.6046 35.901 57.0878 36.0638 57.513C36.2267 57.9382 36.4466 58.2888 36.7152 58.5705C36.9866 58.8521 37.3094 59.0868 37.6837 59.2773C38.0579 59.4678 38.4836 59.5617 38.9607 59.5617H38.9636Z" fill="black"/>
<defs>
<filter id="filter0_ii_540_132" x="-3" y="-4" width="90" height="95.3" filterUnits="userSpaceOnUse" color-interpolation-filters="sRGB">
<feFlood flood-opacity="0" result="BackgroundImageFix"/>
<feBlend mode="normal" in="SourceGraphic" in2="BackgroundImageFix" result="shape"/>
<feColorMatrix in="SourceAlpha" type="matrix" values="0 0 0 0 0 0 0 0 0 0 0 0 0 0 0 0 0 0 127 0" result="hardAlpha"/>
<feMorphology radius="1" operator="dilate" in="SourceAlpha" result="effect1_innerShadow_540_132"/>
<feOffset dx="-3" dy="7"/>
<feGaussianBlur stdDeviation="2.65"/>
<feComposite in2="hardAlpha" operator="arithmetic" k2="-1" k3="1"/>
<feColorMatrix type="matrix" values="0 0 0 0 1 0 0 0 0 1 0 0 0 0 1 0 0 0 0.56 0"/>
<feBlend mode="normal" in2="shape" result="effect1_innerShadow_540_132"/>
<feColorMatrix in="SourceAlpha" type="matrix" values="0 0 0 0 0 0 0 0 0 0 0 0 0 0 0 0 0 0 127 0" result="hardAlpha"/>
<feMorphology radius="3" operator="erode" in="SourceAlpha" result="effect2_innerShadow_540_132"/>
<feOffset dy="-4"/>
<feGaussianBlur stdDeviation="3.9"/>
<feComposite in2="hardAlpha" operator="arithmetic" k2="-1" k3="1"/>
<feColorMatrix type="matrix" values="0 0 0 0 1 0 0 0 0 0.333333 0 0 0 0 0.835294 0 0 0 0.28 0"/>
<feBlend mode="normal" in2="effect1_innerShadow_540_132" result="effect2_innerShadow_540_132"/>
</filter>
<radialGradient id="paint0_radial_540_132" cx="0" cy="0" r="1" gradientUnits="userSpaceOnUse" gradientTransform="translate(56.3309 22.2194) rotate(118.551) scale(48.4537)">
<stop stop-color="white" stop-opacity="0"/>
<stop offset="1" stop-color="#FFBCE1"/>
</radialGradient>
</defs>
</svg>
