<svg width="74" height="66" viewBox="0 0 74 66" fill="none" xmlns="http://www.w3.org/2000/svg">
<path d="M36.9997 5.5C35.2979 5.5 33.6658 6.17604 32.4624 7.3794C31.259 8.58276 30.583 10.2149 30.583 11.9167C30.583 13.6185 31.259 15.2506 32.4624 16.4539C33.6658 17.6573 35.2979 18.3333 36.9997 18.3333C38.7015 18.3333 40.3336 17.6573 41.5369 16.4539C42.7403 15.2506 43.4163 13.6185 43.4163 11.9167C43.4163 10.2149 42.7403 8.58276 41.5369 7.3794C40.3336 6.17604 38.7015 5.5 36.9997 5.5ZM25.083 11.9167C25.083 8.75617 26.3385 5.72512 28.5733 3.49031C30.8081 1.2555 33.8392 0 36.9997 0C40.1602 0 43.1912 1.2555 45.426 3.49031C47.6608 5.72512 48.9163 8.75617 48.9163 11.9167C48.9163 15.0772 47.6608 18.1082 45.426 20.343C43.1912 22.5778 40.1602 23.8333 36.9997 23.8333C33.8392 23.8333 30.8081 22.5778 28.5733 20.343C26.3385 18.1082 25.083 15.0772 25.083 11.9167ZM11.333 12.8333C9.87432 12.8333 8.47537 13.4128 7.44392 14.4442C6.41247 15.4757 5.83301 16.8746 5.83301 18.3333C5.83301 19.792 6.41247 21.191 7.44392 22.2224C8.47537 23.2539 9.87432 23.8333 11.333 23.8333C12.7917 23.8333 14.1906 23.2539 15.2221 22.2224C16.2535 21.191 16.833 19.792 16.833 18.3333C16.833 16.8746 16.2535 15.4757 15.2221 14.4442C14.1906 13.4128 12.7917 12.8333 11.333 12.8333ZM0.333008 18.3333C0.333008 15.416 1.49193 12.6181 3.55483 10.5552C5.61773 8.49226 8.41563 7.33333 11.333 7.33333C14.2504 7.33333 17.0483 8.49226 19.1112 10.5552C21.1741 12.6181 22.333 15.416 22.333 18.3333C22.333 21.2507 21.1741 24.0486 19.1112 26.1115C17.0483 28.1744 14.2504 29.3333 11.333 29.3333C8.41563 29.3333 5.61773 28.1744 3.55483 26.1115C1.49193 24.0486 0.333008 21.2507 0.333008 18.3333ZM57.1663 18.3333C57.1663 16.8746 57.7458 15.4757 58.7773 14.4442C59.8087 13.4128 61.2076 12.8333 62.6663 12.8333C64.125 12.8333 65.524 13.4128 66.5554 14.4442C67.5869 15.4757 68.1663 16.8746 68.1663 18.3333C68.1663 19.792 67.5869 21.191 66.5554 22.2224C65.524 23.2539 64.125 23.8333 62.6663 23.8333C61.2076 23.8333 59.8087 23.2539 58.7773 22.2224C57.7458 21.191 57.1663 19.792 57.1663 18.3333ZM62.6663 7.33333C59.749 7.33333 56.9511 8.49226 54.8882 10.5552C52.8253 12.6181 51.6663 15.416 51.6663 18.3333C51.6663 21.2507 52.8253 24.0486 54.8882 26.1115C56.9511 28.1744 59.749 29.3333 62.6663 29.3333C65.5837 29.3333 68.3816 28.1744 70.4445 26.1115C72.5074 24.0486 73.6663 21.2507 73.6663 18.3333C73.6663 15.416 72.5074 12.6181 70.4445 10.5552C68.3816 8.49226 65.5837 7.33333 62.6663 7.33333ZM20.4997 35.75C20.4997 32.208 23.3743 29.3333 26.9163 29.3333H47.083C50.625 29.3333 53.4997 32.208 53.4997 35.75V49.5C53.4997 53.8761 51.7613 58.0729 48.6669 61.1673C45.5726 64.2616 41.3757 66 36.9997 66C32.6236 66 28.4268 64.2616 25.3324 61.1673C22.2381 58.0729 20.4997 53.8761 20.4997 49.5V35.75ZM26.9163 34.8333C26.6732 34.8333 26.4401 34.9299 26.2682 35.1018C26.0963 35.2737 25.9997 35.5069 25.9997 35.75V49.5C25.9997 52.4174 27.1586 55.2153 29.2215 57.2782C31.2844 59.3411 34.0823 60.5 36.9997 60.5C39.9171 60.5 42.7149 59.3411 44.7778 57.2782C46.8407 55.2153 47.9997 52.4174 47.9997 49.5V35.75C47.9997 35.5069 47.9031 35.2737 47.7312 35.1018C47.5593 34.9299 47.3261 34.8333 47.083 34.8333H26.9163ZM17.2363 32.9193C16.9699 33.8213 16.8355 34.7649 16.833 35.75V38.72L6.51501 41.4847C6.28018 41.5474 6.07989 41.7009 5.95818 41.9113C5.83647 42.1217 5.80332 42.3718 5.86601 42.6067L8.47668 52.349C9.14628 54.8481 10.6754 57.0312 12.7951 58.5146C14.9149 59.998 17.4897 60.6867 20.067 60.4597C21.222 62.2417 22.652 63.8293 24.2947 65.1603C22.1609 65.8678 19.9051 66.1318 17.6657 65.9362C15.4262 65.7405 13.2504 65.0893 11.2716 64.0225C9.29291 62.9557 7.55304 61.4959 6.15879 59.7325C4.76454 57.9691 3.74532 55.9394 3.16367 53.768L0.553008 44.0293C0.112829 42.3859 0.343361 40.6349 1.19391 39.1614C2.04446 37.6879 3.4454 36.6125 5.08867 36.1717L17.2363 32.9193ZM49.7047 65.1603C50.0102 65.263 50.3195 65.3559 50.6323 65.439C54.8591 66.5712 59.3626 65.9781 63.1521 63.7901C66.9416 61.6021 69.7067 57.9984 70.8393 53.7717L73.45 44.033C73.6685 43.219 73.7245 42.3699 73.6148 41.5343C73.5051 40.6986 73.2319 39.8928 72.8107 39.1628C72.3895 38.4327 71.8286 37.7928 71.16 37.2796C70.4915 36.7664 69.7284 36.3899 68.9143 36.1717L56.763 32.9157C57.0294 33.8201 57.1639 34.7649 57.1663 35.75V38.72L67.4917 41.4847C67.7258 41.5482 67.9252 41.702 68.0462 41.9123C68.1672 42.1226 68.1998 42.3723 68.137 42.6067L65.5263 52.349C64.8566 54.8488 63.327 57.0324 61.2065 58.5158C59.0859 59.9993 56.5102 60.6876 53.9323 60.4597C52.779 62.2391 51.3523 63.8255 49.7047 65.1603Z" fill="black"/>
</svg>
