<svg width="44" height="44" viewBox="0 0 44 44" fill="none" xmlns="http://www.w3.org/2000/svg">
<path d="M22.8961 11.0494C23.2121 11.1047 23.4121 11.235 23.4921 11.4403C24.7601 11.9734 24.4601 11.9931 25.2841 12.8145C25.5321 13.1738 25.5641 13.2923 25.0841 13.2054L24.5881 13.241C24.2161 12.7592 23.7681 12.4315 23.2441 12.2538C21.9361 13.3002 20.6321 13.241 19.9121 11.8312C19.3281 12.0247 19.2201 11.8036 19.7121 11.4403C19.8721 11.4245 20.2721 11.4837 20.3041 11.4403C20.3521 11.3811 20.2601 10.4452 20.9481 10.2083C22.3641 9.71469 22.3001 10.2359 22.8921 11.0533L22.8961 11.0494Z" fill="#C7B2F4"/>
<path d="M10.7645 28.3135C11.4525 27.9542 13.0245 28.8585 12.1565 29.4903C12.4525 29.7272 12.5525 29.9404 12.1565 30.0786C12.3685 30.2721 12.5005 30.5328 12.5525 30.8645C12.8165 31.4449 11.9085 31.2791 11.7565 30.8645C11.6565 31.1725 11.1165 31.1646 10.9605 30.8645C10.6485 30.825 10.3805 30.9316 10.0205 30.8052C9.84046 30.742 9.62446 30.1458 9.56846 30.0826C9.34046 29.9523 9.34046 29.6877 9.56846 29.2968C10.5405 28.0292 10.1525 27.5119 10.3645 25.96L10.6445 25.9008C10.6165 26.7143 10.6525 27.5198 10.7605 28.3135H10.7645Z" fill="#C7B1F4"/>
<path d="M10.3643 16.3447C10.4763 15.8787 12.0683 16.2065 12.0883 16.3013C12.1403 16.5816 12.0803 17.4425 11.9563 17.7189C12.6923 18.0308 11.8923 19.1286 11.3603 18.5047C11.2443 18.6824 11.0443 18.8127 10.7643 18.8956C11.3163 19.0773 11.3483 20.3093 10.7643 20.4633C10.9763 20.72 11.0963 21.0951 10.7643 21.2491C10.7523 21.6914 10.5203 21.6677 10.3683 21.2491C10.3003 20.8779 9.98032 19.6775 9.98032 19.5827C9.98032 19.2234 10.3723 18.9193 10.3803 18.6153C10.3803 18.5639 9.72432 18.0861 9.57232 17.9163C9.28832 17.6162 9.29632 17.2292 9.57232 16.937C9.89232 16.55 9.80432 16.5106 10.3683 16.3487L10.3643 16.3447Z" fill="#C7B2F4"/>
<path d="M19.9116 35.1805C20.9156 34.2841 22.4716 33.8853 23.0956 35.3779C23.7156 34.9396 24.2236 35.3029 23.4916 35.7689C22.6916 36.0927 22.9796 36.5033 22.4956 37.143C22.0316 37.4353 21.3476 37.4668 20.9036 37.143C19.9916 36.5073 20.4316 35.9268 20.3076 35.7689C20.2676 35.7215 19.8476 35.8044 19.7116 35.7689C19.2996 35.6228 19.2756 35.5082 19.7116 35.3779C19.4156 35.0818 19.5356 34.9594 19.9116 35.1805Z" fill="#C7B1F4"/>
<path d="M32.8405 16.1473C33.5525 16.1789 33.9685 16.7751 34.0445 17.4425C34.0605 17.5767 33.3605 18.3231 33.2405 18.5008C33.1685 18.9035 33.0365 19.0338 32.8445 18.8917C31.5725 19.5511 30.4165 17.4464 31.2525 16.3408C31.6005 16.0604 32.1325 15.9972 32.8445 16.1433L32.8405 16.1473Z" fill="#C6B1F4"/>
<path d="M32.8404 28.3135C33.0084 28.1477 33.1404 28.278 33.2364 28.7045C33.3604 28.8229 33.7484 28.6689 33.9484 29.4982C34.0684 29.9878 33.9004 29.8773 33.8324 30.0786C33.2724 30.9276 32.1324 31.0264 31.4444 30.4696C30.0524 29.8536 31.6844 27.1368 32.8364 28.3096L32.8404 28.3135Z" fill="#C6B1F4"/>
<path d="M27.2716 30.4735C27.3276 30.3037 27.3956 30.3037 27.4716 30.4735C27.6436 30.5288 27.6396 30.592 27.4716 30.6709C26.7596 31.6542 27.2236 31.9819 28.8636 31.6502C29.1436 31.7055 29.4076 31.7727 29.6596 31.8477C29.0236 32.6059 27.8076 32.0372 27.0116 32.2781C26.3436 32.4795 26.7516 33.3127 26.0796 33.2219C25.7996 33.1587 25.8116 32.9178 26.0796 32.8309L25.6716 32.6216C25.0356 32.6611 23.8076 32.6374 24.2876 31.8516C24.3436 31.7213 24.2076 31.7213 23.8916 31.8516C23.8716 32.0293 23.8036 32.0175 23.6916 31.8516C23.3436 31.7174 23.2756 31.5871 23.4916 31.4607C23.3796 31.3699 23.4476 31.3027 23.6916 31.2633C23.7076 31.0974 23.7836 30.975 23.9276 30.9039L26.2356 31.1685C26.5756 30.0944 26.9196 29.8654 27.2716 30.4814V30.4735Z" fill="#D1C0F6"/>
<path d="M26.8716 14.5796C27.5636 14.7099 28.2236 14.8402 28.8596 14.9705C29.6796 15.0258 29.9836 15.1206 30.6516 15.3615C31.0756 15.5115 31.0876 15.626 30.6516 15.7524C30.8236 15.8077 30.8236 15.8748 30.6516 15.9498C30.5956 16.1196 30.5316 16.1157 30.4516 15.9498C29.9996 15.6853 29.4676 15.4878 28.8596 15.3615C28.6636 15.7089 28.3116 15.8432 27.7956 15.7524L27.4676 16.1433C27.6676 16.6527 27.4436 16.7396 27.0716 16.3408C26.7476 16.321 26.4116 16.1236 26.0516 15.7484C25.3076 15.9024 24.7836 15.8393 24.4836 15.5549C24.2756 15.4839 24.0756 15.4207 23.8876 15.3575C23.5476 15.2667 23.6156 15.1364 24.0876 14.9666C24.2276 14.3703 25.1156 14.4098 25.2796 14.9666C25.5556 14.6783 25.8196 14.4137 26.0756 14.1808C25.7676 13.8886 25.8916 13.7661 26.2756 13.9833C26.4436 14.2084 26.6436 14.4058 26.8716 14.5717V14.5796Z" fill="#CDBAF5"/>
<path d="M30.6516 21.8375L30.8956 21.7072C31.3676 22.2245 31.8196 22.3311 32.2436 22.0349C32.5796 21.8138 32.6356 22.1258 32.4436 22.4259C32.6956 22.4614 32.6956 22.6588 32.4436 23.0142C32.4236 23.0893 32.0996 23.267 32.0796 23.5276C32.0756 23.5908 32.4036 24.728 32.4436 24.7833C32.7716 24.9294 32.5836 25.2848 32.2436 25.1742C31.8876 25.5731 31.7076 25.2966 31.5556 24.8583C31.3436 25.3954 30.9836 25.8021 30.6516 25.1742C30.2956 25.3875 30.2236 25.0795 30.4516 24.7833C30.3196 24.4555 30.3836 24.037 30.6396 23.5276C30.1996 22.8879 30.0716 22.3903 30.2516 22.0389C30.3956 22.0112 30.5277 21.9481 30.6477 21.8414L30.6516 21.8375Z" fill="#CEBBF5"/>
<path d="M12.7517 22.6233C13.0557 22.7931 13.0397 23.0695 12.7037 23.4486C13.0277 23.8395 13.0437 24.1554 12.7517 24.3884C12.8837 24.7122 12.9517 24.9017 12.5517 24.7793C12.5957 25.2927 12.1997 25.2295 11.3597 24.5819C10.9877 24.807 10.9837 24.5069 11.1597 24.191C11.2997 23.954 11.2957 23.4881 11.3597 23.2117C10.8757 22.5601 11.1957 22.2047 11.7557 22.8207C11.7117 22.339 12.0557 22.0231 12.5517 22.2324C13.0917 22.0152 13.0157 22.2047 12.7517 22.6233Z" fill="#CEBCF6"/>
<path d="M16.7284 31.4528L17.1244 31.6305C18.1644 31.6858 18.4284 31.8911 17.9204 32.2347C17.8284 32.752 17.6884 32.7243 17.5244 32.2347C17.5764 32.8231 17.0204 33.1627 16.7284 32.4321C16.4484 32.523 15.8564 32.5466 15.7324 32.2347C15.3484 32.1952 14.9204 32.2781 14.5404 32.2347C14.2364 31.8082 14.6764 31.6187 15.8604 31.674L16.1324 31.2554C15.9564 31.208 15.9604 31.1409 16.1324 31.058C15.9004 30.5051 15.9644 30.3116 16.3324 30.4696C16.9124 30.2998 17.2884 31.1804 16.7284 31.4489V31.4528Z" fill="#CEBCF6"/>
<path d="M16.7284 14.5796C17.2044 13.9676 17.4364 14.4967 17.5244 14.9705C17.6484 14.4296 18.4204 14.3901 18.5204 14.9705C18.8244 14.9508 18.8324 15.5234 18.5204 15.5589L18.1604 15.8867C17.6884 15.7761 17.2124 15.7287 16.7324 15.7524C16.4644 15.8314 16.2364 15.7643 16.1364 15.555C15.9644 15.4997 15.9644 15.4326 16.1364 15.3575L15.5844 15.2312C14.3644 15.5313 13.8844 15.4444 14.1484 14.9666C14.4044 14.935 14.6844 14.9863 14.9444 14.9666C15.1524 14.6231 15.9124 14.6467 16.1364 14.9666C16.6044 14.9153 16.4604 14.9074 16.7324 14.5757L16.7284 14.5796Z" fill="#C8B3F5"/>
<path d="M33.2361 21.2491L33.0201 21.4782C32.9641 22.1732 32.7721 22.4891 32.4401 22.4298C32.4201 22.3153 32.2841 22.1653 32.2401 22.0389C31.9241 21.5058 32.1761 19.7604 32.3881 19.0931L32.8361 18.8996C32.8521 18.8325 33.1521 18.6311 33.2321 18.5087C33.1641 19.3932 33.3281 20.3922 33.2321 21.257L33.2361 21.2491Z" fill="#CBB7F6"/>
<path d="M19.7121 11.4403C19.6961 11.6338 19.7281 11.7404 19.9121 11.8312C20.2761 12.4986 18.5401 13.9123 17.9241 13.5964C17.6481 13.932 17.5161 13.932 17.5281 13.5964C17.7121 13.3278 17.9481 12.6921 18.1241 12.4196L19.3161 11.4403C19.4321 11.4166 19.5841 11.4522 19.7121 11.4403Z" fill="#CFBDF6"/>
<path d="M32.4402 24.7833C32.5002 24.8702 32.7482 24.5306 32.8362 25.1743C32.7042 25.4665 32.6642 25.9838 32.8362 25.5652C33.5962 26.3312 33.1002 27.7133 33.2322 28.7045C33.1402 28.6176 32.8482 28.3649 32.8362 28.3135L32.4042 28.1872C32.3802 27.2869 32.2442 26.4102 31.9922 25.5612L32.2362 25.1743L32.4362 24.7833H32.4402Z" fill="#CBB7F5"/>
<path d="M11.3602 24.5859C11.9082 24.7675 11.7202 25.5494 11.1602 25.5652C11.0602 25.9166 10.9282 26.2404 10.7642 26.5445C11.3242 26.8643 11.3722 28.0253 10.7642 28.3096C10.2402 27.6501 10.8962 26.5879 10.3682 25.9561C10.4042 25.6955 10.5202 25.4349 10.5682 25.1703C10.5762 24.7517 10.7082 24.4911 10.9642 24.3845C11.0242 24.3213 11.1442 24.2186 11.1642 24.187L11.3642 24.578L11.3602 24.5859Z" fill="#D0BEF6"/>
<path d="M25.0836 34.0037C25.3356 33.8734 25.4276 33.9603 25.2836 34.2012C24.6596 34.9357 24.4796 35.374 23.4916 35.7689C23.5596 35.1963 23.4276 35.4411 23.0956 35.3779C22.2516 35.3147 24.4236 33.9445 24.5476 33.8971L25.0876 34.0037H25.0836Z" fill="#D2C1F7"/>
<path d="M12.9524 15.9538C12.9844 16.3487 12.4524 16.862 12.1564 17.1305C12.4764 17.3161 12.4764 17.5373 12.1564 17.7189C12.1004 17.8887 12.0324 17.8887 11.9564 17.7189C12.0844 16.4711 11.6164 15.9893 10.3644 16.3447C10.2684 15.551 11.1804 16.1354 11.6404 16.0959C11.9324 16.0722 12.0204 15.8235 12.1524 15.7563C12.7164 15.5589 12.9804 15.626 12.9484 15.9538H12.9524Z" fill="#CCB8F5"/>
<path d="M33.8361 30.0786C33.6281 30.7065 33.5801 30.5209 33.2401 30.8645C32.7681 31.0224 32.1721 31.1567 31.4481 31.2554C31.4281 31.5397 31.0681 31.591 30.8521 31.4528C30.5081 31.7055 30.1681 31.6542 30.4561 31.2554C29.9041 30.8289 31.0281 29.9365 31.4521 30.4696C31.6841 30.4656 32.2881 30.8013 32.9521 30.671C33.4921 30.5643 33.3121 29.976 33.8401 30.0786H33.8361Z" fill="#C7B2F4"/>
<path d="M14.1443 14.9705C14.4763 15.784 15.5803 14.7099 16.1323 15.3615C15.9283 15.6971 15.4723 15.859 14.7643 15.8511C13.9843 16.171 13.3802 16.2026 12.9522 15.9498L12.1562 15.7524C12.8802 15.3852 13.2763 15.0772 14.1443 14.9666V14.9705Z" fill="#D5C5F7"/>
<path d="M16.132 31.2554C16.14 31.3304 16.464 31.5397 16.328 31.8437C16.168 31.9898 14.68 31.5318 14.54 32.2386C14.18 32.1952 13.88 32.1004 13.544 32.0412C13.372 31.9859 13.372 31.9188 13.544 31.8437C13.968 31.7766 14.1 31.7095 13.94 31.6463C13.768 31.591 13.768 31.5239 13.94 31.4489L14.232 31.0895C14.888 31.1172 15.52 31.1724 16.128 31.2514L16.132 31.2554Z" fill="#D7C8F7"/>
<path d="M17.5235 13.6003H17.9195C18.2915 14.007 18.0235 14.7889 17.5235 14.9745C16.9475 14.9074 17.2355 14.5401 16.7275 14.5836C16.8395 14.4493 17.0875 13.8175 17.1875 13.6714C17.2675 13.5569 17.5115 13.6201 17.5235 13.6043V13.6003Z" fill="#D5C6F7"/>
<path d="M17.5236 32.2386C18.0636 32.2544 18.3116 33.056 17.9196 33.4154C17.7756 33.443 17.6436 33.5101 17.5236 33.6128C17.4356 33.5101 16.8196 33.2061 16.7276 32.6335C16.5556 32.5782 16.5556 32.5111 16.7276 32.4361C17.4796 32.7362 16.7596 32.3571 17.5236 32.2386Z" fill="#D8CAF8"/>
<path d="M11.1604 21.8375C11.6444 21.719 12.4164 22.5246 11.7564 22.8168C11.6524 22.8523 11.4084 22.7694 11.3604 22.8168C11.3164 22.8602 11.3844 23.0932 11.3604 23.2077C10.9404 23.034 10.8244 22.4456 10.7644 22.031C10.5884 21.7585 10.4644 21.415 10.7644 21.2452C10.9684 21.0201 11.1004 21.2175 11.1604 21.8335V21.8375Z" fill="#D3C2F6"/>
<path d="M25.28 12.8145C25.916 13.4463 25.744 13.2844 26.276 13.9913C26.184 14.011 26.088 14.0979 26.076 14.1887C25.976 14.7099 25.852 14.6823 25.68 14.1887C25.176 14.1137 24.812 13.6872 25.084 13.2094L25.284 12.8185L25.28 12.8145Z" fill="#CFBCF6"/>
<path d="M26.8721 14.5796C27.5161 14.7099 29.0281 14.2163 28.8601 14.9705C28.3801 14.939 27.8161 15.0495 27.3641 14.9705C26.9121 14.8916 26.9841 14.6625 26.8721 14.5796Z" fill="#EFE9FC"/>
<path d="M33.2364 30.8645C33.2044 30.896 33.3444 31.2159 33.1124 31.2672C32.8524 31.3265 31.9404 31.2317 31.4484 31.2554C31.4604 31.1646 31.4164 30.8842 31.4484 30.8645C31.5804 30.7657 32.8924 30.9316 33.2404 30.8645H33.2364Z" fill="#EBE5FB"/>
<path d="M31.4485 15.9538C31.9805 16.0486 32.5125 15.859 32.8405 16.1512C32.5045 16.1354 31.5125 16.3921 31.2485 16.3487C30.9525 16.9094 30.3885 16.4948 30.6525 15.9577V15.7603C30.8485 15.4918 31.3485 15.6576 31.4485 15.9577V15.9538Z" fill="#C7B2F4"/>
<path d="M33.2364 21.2491C33.1684 21.8691 32.9364 22.6036 32.4404 23.0142C32.4684 22.9076 32.4604 22.5562 32.4404 22.4259C33.0564 22.1021 32.5244 21.0793 33.2364 21.2491Z" fill="#FDFDFE"/>
<path d="M22.4963 37.143C22.1523 37.5971 21.8483 37.6761 21.2323 37.4984C20.9723 37.4234 20.9603 37.1825 20.9043 37.143H22.4963Z" fill="#E0D4F8"/>
<path d="M18.5199 34.0038C19.0359 33.6839 19.4919 34.2881 19.3159 34.7896C19.3279 35.066 19.1479 35.1331 18.9199 34.987C18.3559 35.0857 18.4279 34.5131 18.3239 34.3986C18.1039 34.1025 18.1359 33.8892 18.5239 34.0077L18.5199 34.0038Z" fill="#CCB9F5"/>
<path d="M12.5522 30.8644C12.9082 30.2524 13.6802 30.7341 13.1482 31.2554C13.1642 31.5476 12.9642 31.6147 12.5522 31.4528C12.3842 31.7806 12.1242 31.5436 11.9562 31.2554C11.8962 31.2396 11.8242 31.2672 11.7562 31.2554C11.2282 31.1922 11.2522 31.0105 11.7562 30.8644C11.9402 30.8802 12.4002 31.3028 12.5522 30.8644Z" fill="#D6C6F7"/>
<path d="M19.316 11.4403C19.38 11.9023 18.556 12.2854 18.124 12.4196C18.464 11.8905 18.46 11.6062 19.316 11.4403Z" fill="#FEFDFE"/>
<path d="M14.9404 14.9705C14.6564 14.3901 16.3484 14.3229 16.1324 14.9705C15.7524 15.014 15.3244 14.939 14.9404 14.9705Z" fill="#EDE7FB"/>
<path d="M30.4523 31.2554C30.4763 31.2554 30.4443 31.4805 30.8483 31.4528C31.0203 31.5081 31.0203 31.5752 30.8483 31.6503C30.5923 31.7056 30.2963 31.824 30.0523 31.8477L29.6563 31.6503C29.4843 31.595 29.4843 31.5279 29.6563 31.4528C29.4883 30.8803 30.1323 30.746 30.4523 31.2554Z" fill="#D1C0F6"/>
<path d="M12.5521 31.4528C12.8921 31.4094 13.3521 31.4252 13.3481 31.8438H13.5481V32.0412C12.9961 31.9464 11.9641 32.061 11.9561 31.2554C12.1401 31.3028 12.3361 31.3976 12.5521 31.4528Z" fill="#FEFEFE"/>
<path d="M19.3163 34.7895C19.6443 34.288 20.2003 34.6355 19.9123 35.1805C19.8083 35.1884 19.7603 35.295 19.7123 35.3779C19.5923 35.6899 19.0363 35.4845 18.9163 35.1805C18.9163 35.1133 18.9003 35.0304 18.9163 34.983C18.9923 34.7698 19.1123 34.7737 19.3123 34.7856L19.3163 34.7895Z" fill="#C6B1F4"/>
<path d="M18.5201 34.0038L18.3201 34.3947C18.2601 34.3276 18.0521 34.1341 17.9241 34.0038C17.6841 33.6997 17.7201 33.5023 18.1241 33.6128C18.6281 33.4154 18.7161 33.5023 18.5201 34.0038Z" fill="#C7B2F5"/>
<path d="M16.7283 32.4321V32.6296C16.2003 32.5782 15.5883 32.8704 15.7323 32.2386C16.2243 32.286 16.2203 32.2307 16.7283 32.4361V32.4321Z" fill="#F9F7FE"/>
<path d="M30.6523 15.3654C31.0363 15.5036 31.5723 15.4049 31.4483 15.9538C31.1803 15.9064 30.9203 15.8077 30.6523 15.7563V15.3654Z" fill="#D9C9F7"/>
<path d="M17.9241 33.4154C18.1921 33.1389 18.3081 33.2574 18.1241 33.6128L17.9241 34.0037C17.8001 33.8774 17.7721 33.9011 17.5281 33.6128C17.4921 33.0876 17.5201 33.1666 17.9241 33.4154Z" fill="#CDBAF5"/>
<path d="M26.0756 32.827C26.0756 32.9494 26.0956 33.1113 26.0756 33.2179C26.0276 33.4588 25.9596 33.4667 25.8756 33.6088C25.8156 33.6957 25.7476 33.6918 25.6756 33.6088C25.3996 33.6681 25.3996 33.5378 25.6756 33.2179C24.8156 33.0205 25.7356 32.0412 26.0716 32.827H26.0756Z" fill="#C9B4F5"/>
<path d="M9.56816 17.9163C9.46016 17.7939 9.16016 17.8058 9.16016 17.4227C9.16016 17.0397 9.47216 17.0476 9.56816 16.9331V17.9124V17.9163Z" fill="#F7F4FD"/>
<path d="M11.7562 30.8645V31.2554C11.2922 31.1764 10.8322 31.5042 10.9602 30.8645C11.2122 30.896 11.4962 30.8408 11.7562 30.8645Z" fill="#F1EBFC"/>
<path d="M19.712 35.3779C19.672 35.4451 19.74 35.6543 19.712 35.7689C19.196 35.6346 18.916 35.7491 18.916 35.1805L19.712 35.3779Z" fill="#FDFDFE"/>
<path d="M9.56834 30.0787C9.42434 29.9089 8.74434 30.3669 9.56834 29.2928V30.0787Z" fill="#F6F2FD"/>
<path d="M10.7642 21.2491C10.7802 21.5058 10.7282 21.7901 10.7642 22.0349C10.4602 21.8493 10.4242 21.565 10.3682 21.2491C10.4842 21.2768 10.7042 21.2096 10.7642 21.2491Z" fill="#D6C7F7"/>
<path d="M25.8801 33.6089C25.6641 33.9761 25.4441 34.0116 25.2841 34.1972C25.1641 34.2328 25.0721 34.0946 25.0841 33.9998C25.2241 33.755 25.4041 33.4509 25.6801 33.6089H25.8801Z" fill="#C6B0F4"/>
<path d="M29.6564 31.65C29.8244 31.6618 30.0003 31.6578 30.0523 31.8468C29.9203 31.8587 29.7844 31.8429 29.6564 31.8468C29.3964 31.8547 28.9924 31.9335 28.8604 31.65C29.1164 31.5318 29.4204 31.5043 29.6564 31.65Z" fill="#D0BEF6"/>
<path d="M32.8402 25.5652C32.8282 25.7586 32.8522 25.96 32.8402 26.1535H32.6442C32.6602 25.8495 32.5082 25.348 32.8402 25.1742C32.8562 25.2927 32.8482 25.4427 32.8402 25.5652Z" fill="#C5AFF4"/>
<path d="M31.4476 31.2554C31.4316 31.3738 31.4876 31.6108 31.4476 31.6463C31.3796 31.7055 31.0116 31.6147 30.8516 31.6463V31.4489C30.9796 31.441 31.2276 31.2633 31.4476 31.2514V31.2554Z" fill="#FDFDFE"/>
<path d="M10.9598 24.3884L10.5638 25.1742C10.5998 24.9689 10.4758 24.5543 10.5918 24.4161C10.6718 24.3213 10.9358 24.4161 10.9598 24.3884Z" fill="#FEFEFE"/>
<path d="M22.8965 11.0494C23.3685 11.0415 23.5845 10.9191 23.4925 11.4403C23.1405 11.2903 23.1925 11.4561 22.8965 11.0494Z" fill="#E1D6F9"/>
<path d="M19.9117 11.8312C20.0757 11.9102 20.3397 11.8905 20.5637 12.0247C20.7077 12.1116 20.7117 12.3722 20.9637 12.4828C22.1357 12.9922 22.7517 11.7799 23.3437 11.8589C23.9357 11.9379 24.6997 12.7592 25.0837 13.2054C25.3397 13.5055 25.6477 13.7543 25.6797 14.1847C26.0317 14.5243 25.7677 14.9192 25.2837 14.9705C24.8917 14.9942 24.4797 14.931 24.0917 14.9705C23.4597 15.164 22.7957 15.3615 22.1037 15.5589L21.9037 15.9617C21.1237 16.0051 20.3877 15.7208 19.7157 15.3615C19.3317 15.2904 19.0637 15.1601 18.9197 14.9705C18.8917 15.397 18.6397 15.3891 18.5237 14.9705C18.1997 14.9389 17.8517 15.0061 17.5277 14.9705C17.4757 14.5599 17.7157 13.9241 17.9237 13.5964C17.9917 13.4897 19.0157 12.7513 19.1677 12.617C19.4077 12.3999 19.6597 12.0642 19.9157 11.8312H19.9117Z" fill="#FEFDFE"/>
<path d="M11.3602 24.5859C11.3842 24.5385 12.0842 24.116 12.1562 24.1949C12.1922 24.2344 12.0802 24.5859 12.2082 24.728C12.3042 24.8425 12.5402 24.7596 12.5562 24.7833C12.8282 24.6135 13.1082 25.0953 12.9522 25.3717C13.4882 25.581 13.9962 25.9916 14.4762 26.6076C15.0202 26.6708 15.1762 26.9156 14.9402 27.3342L15.3362 28.3135C15.6482 28.4359 15.6242 28.969 15.3362 29.0993C15.8522 29.5337 16.1162 30.1853 16.1322 31.0619C16.1402 31.1251 16.1242 31.1922 16.1322 31.2593C15.9322 31.8082 14.5442 31.5199 13.9442 31.4568C13.7082 31.6818 13.2122 31.6345 13.1482 31.2593C13.0722 30.8723 12.7522 30.9632 12.5522 30.8684C12.4642 30.825 12.2882 30.975 12.1362 30.7499C11.8762 30.3551 12.1282 30.2366 12.1522 30.0826C12.3042 29.8733 12.2442 29.6956 12.1522 29.4942C12.0802 29.3994 12.1242 29.0993 11.8722 28.8979C11.5482 28.6373 11.0762 28.7163 10.7602 28.3175C10.7922 27.733 10.7162 27.1328 10.7602 26.5524L11.1562 25.5731C11.2082 25.3519 11.3082 24.6806 11.3562 24.5938L11.3602 24.5859Z" fill="#FEFEFE"/>
<path d="M12.1564 29.4903C12.1964 29.5416 13.3604 29.8812 12.1564 30.0786C12.1844 29.897 12.1364 29.6798 12.1564 29.4903Z" fill="#F8F4FE"/>
<path d="M16.1321 15.3654V15.5629C16.5401 15.8709 16.2401 16.475 15.7361 16.3487C15.7081 16.7475 15.5761 17.0753 15.3401 17.328C15.6681 17.3675 15.5721 17.7426 15.3401 17.9164C15.6521 17.9479 15.6281 18.41 15.3401 18.5047C15.1561 18.6706 15.0241 18.9312 14.9441 19.2905C15.5241 19.5551 14.9641 20.6529 14.3481 20.2698C14.3641 20.5699 13.9081 21.2215 13.5521 21.0556C13.7801 21.4624 12.9681 22.2798 12.5561 22.2324C12.1841 22.6352 12.2281 22.6628 11.7601 22.8208V22.5601C11.3361 22.4022 11.3361 22.0586 11.1641 21.8375L10.7681 20.4633C10.7681 19.9618 10.7121 19.3695 10.7681 18.8957C10.9201 18.7219 11.1201 18.5916 11.3641 18.5047C11.4601 18.406 11.8881 18.4455 11.9601 17.7189H12.1601C12.2521 17.5096 12.2921 17.328 12.1601 17.1305C12.1601 16.3526 12.1601 16.3013 12.9561 15.9538C13.4961 15.7169 15.6921 15.1601 16.1401 15.3654H16.1321Z" fill="#FEFEFE"/>
<path d="M11.1599 21.8375C11.0199 21.6598 10.9519 21.3715 10.7639 21.2491C10.7479 20.9924 10.7639 20.7239 10.7639 20.4633C11.3359 20.6607 11.1519 21.3439 11.1599 21.8375Z" fill="#E6DDFA"/>
<path d="M11.3599 18.5047C11.3039 18.5639 11.4959 19.0891 10.7639 18.8956C10.7759 18.7772 10.7319 18.5323 10.7639 18.5047C10.8239 18.4534 11.2079 18.5323 11.3599 18.5047Z" fill="#F2EDFD"/>
<path d="M22.1003 31.2554C22.3163 30.9474 22.5123 31.1053 22.4963 31.4528C22.9603 31.4805 23.3603 31.6108 23.6883 31.8437C23.7523 31.8516 23.8203 31.8398 23.8883 31.8437C24.0323 31.7687 24.1563 31.7253 24.2843 31.8437C24.5323 32.4598 25.9483 32.1281 26.0763 32.2347C26.1003 32.2544 26.0723 32.673 26.0763 32.823C25.5323 32.6809 25.7323 33.1547 25.6803 33.214C25.5243 33.4864 25.3243 33.7471 25.0843 33.9998C24.5643 34.3078 24.4683 34.5724 24.1443 34.7777C23.8203 34.983 23.2603 34.9001 23.0963 35.37C22.2443 35.2002 22.6563 35.1449 22.3603 34.9791C21.0963 34.2644 20.6923 35.37 20.5883 35.3779C20.4003 35.3858 20.1123 35.1647 19.9123 35.1765C19.7723 34.9593 19.4843 34.908 19.3163 34.7856C19.0443 34.5882 18.7523 34.2565 18.5203 33.9998C18.3963 33.8655 18.2323 33.755 18.1243 33.6089C18.0683 33.5338 17.9683 33.4785 17.9243 33.4114C17.7483 33.1429 17.5403 32.5703 17.5283 32.2347C17.6523 32.2149 17.7963 32.2426 17.9243 32.2347C18.0123 31.8714 18.1563 31.9109 18.3203 32.2347C18.7083 31.9898 19.1723 31.8595 19.7123 31.8437C20.0683 31.1882 21.3283 31.1527 22.1003 31.2554Z" fill="#FDFDFE"/>
<path d="M28.8601 15.3654C29.4721 15.4997 30.0001 15.6971 30.4521 15.9538C30.5121 15.9735 30.5881 15.938 30.6521 15.9538C30.7401 15.9775 30.9721 16.2973 31.2481 16.3447C31.6241 16.8541 31.1761 17.5096 31.5521 18.1059C31.6841 18.3152 32.5241 18.7693 32.8401 18.8956C32.6201 19.792 32.6401 21.0319 32.2441 22.0349C31.6801 23.4605 31.3961 22.5483 30.6521 21.8375C30.0721 21.6795 28.3961 20.491 28.6641 19.8749C28.6001 19.5156 28.4681 19.1879 28.2681 18.8956L27.9881 18.8246C28.0601 18.4494 28.0961 18.1019 27.8721 17.715C27.6881 17.557 27.7641 17.3319 27.8721 17.1266C27.4921 17.2608 27.2321 16.4197 27.4761 16.1473C27.3561 15.8472 27.2881 15.63 27.0801 15.3654C27.6721 15.3891 28.2801 15.322 28.8721 15.3654H28.8601Z" fill="#FDFDFE"/>
<path d="M30.6522 25.1742C30.6722 25.1545 30.8762 25.2216 30.9842 25.1032C31.0722 25.0084 31.3482 24.2463 31.5522 24.191C32.0362 24.0607 31.8122 25.0321 32.2482 25.1742C32.8282 26.1496 32.6402 27.4803 32.8442 28.3135C31.3042 28.4873 31.2242 29.0915 31.4522 30.4735C31.2962 30.4735 30.5722 31.0343 30.4562 31.2593C30.0682 31.287 29.7762 31.4449 29.6602 31.4568C28.8682 31.6305 28.0282 31.6937 27.2082 31.7332C27.0602 31.6779 27.3602 30.8842 27.4722 30.671C27.4922 30.6038 27.4442 30.5051 27.4722 30.4735C27.4282 30.1853 27.5602 29.9247 27.8682 29.6877C27.9642 29.4863 28.0962 29.2928 28.2642 29.0994C27.9282 28.9493 28.0842 28.5939 28.2642 28.3135C28.0962 27.2039 28.5922 26.5958 29.6562 26.1535C29.5682 25.814 29.8962 25.502 30.2522 25.5652C30.1362 25.2848 30.3722 25.0202 30.6482 25.1742H30.6522Z" fill="#FDFDFE"/>
<path d="M27.4679 28.3135C27.7599 28.4281 27.7599 28.586 27.4679 28.7045C27.7879 28.7598 27.7559 29.1428 27.4679 29.2928C27.1079 29.5495 27.1719 29.8733 27.2679 30.2721C27.4399 30.3274 27.4399 30.3946 27.2679 30.4696C26.5479 30.3116 26.9599 31.3067 26.4239 31.516C26.0399 31.6621 24.2479 31.3383 23.6879 31.2554H23.4879C23.3479 31.2317 23.2799 31.1685 23.2879 31.058C23.0439 30.9869 23.1119 30.7894 23.4879 30.4696C23.5559 30.1695 23.8239 30.0392 24.2839 30.0786C24.1359 29.6127 24.9399 29.2573 25.2799 29.4903C25.1359 29.2099 25.4039 29.1941 25.6759 29.2928C25.7519 28.8743 26.6119 28.3965 27.0679 28.3135C27.0759 27.9305 27.3399 27.9423 27.4639 28.3135H27.4679Z" fill="#FCFBFE"/>
<path d="M24.2878 30.0786C23.9998 30.2208 23.8078 30.3274 23.4918 30.4696C23.3198 30.8131 23.1238 30.9434 22.8958 30.8605C22.7838 31.0303 22.9838 31.1606 23.4918 31.2514C23.5558 31.2633 23.6238 31.2435 23.6918 31.2514C23.6318 31.3028 23.5478 31.441 23.4918 31.4489C23.2998 31.6187 22.9678 31.6187 22.4958 31.4489C22.3318 31.4015 22.1198 31.2554 22.0998 31.2514C21.0358 31.4094 20.5718 31.2791 20.7078 30.8605C20.1478 30.5683 20.3358 30.2919 20.9078 30.4696C21.0958 29.9483 21.2878 29.972 21.5038 30.4696C21.7118 30.6157 21.8958 30.5564 22.0998 30.4696C22.0758 29.8022 22.8718 29.5574 23.2918 30.0786C23.8998 29.6601 24.2318 29.6601 24.2878 30.0786Z" fill="#CDBAF5"/>
<path d="M27.8678 28.7045C28.1638 28.7755 28.1358 28.9256 27.8678 29.0954C28.1678 29.1941 28.1638 29.5772 27.8678 29.6838C27.7958 30.8566 27.6958 30.2445 27.4718 30.4696H27.2718V30.2721C27.1598 29.9246 27.0878 29.4429 27.4718 29.2928C27.4918 29.1033 27.4638 28.898 27.4718 28.7045C27.5238 28.1753 27.6838 28.2148 27.8678 28.7045Z" fill="#CFBDF6"/>
<path d="M27.4678 30.667C27.3798 30.9355 27.3598 31.3502 27.2678 31.6463C28.0598 31.5476 28.8598 31.52 29.6558 31.4528V31.6503C29.4078 31.6345 29.1038 31.6305 28.8598 31.6503C27.7998 31.7411 26.2558 32.4598 27.4678 30.671V30.667Z" fill="#D7C8F7"/>
<path d="M23.8877 31.8434C24.2517 31.4491 24.9917 31.7094 25.4797 31.6502V31.8434H24.2877C24.1557 31.8355 24.0197 31.8552 23.8917 31.8434H23.8877Z" fill="#CBB7F5"/>
<path d="M23.492 31.4528L23.692 31.8437C23.052 31.7687 22.9 31.5673 22.5 31.4528C22.824 31.4252 23.176 31.4923 23.496 31.4528H23.492Z" fill="#D7C9F7"/>
<path d="M27.0724 16.3447L27.3004 16.3171C27.4444 17.1503 27.6324 17.8769 27.8684 18.5047C28.4644 19.3972 26.7564 19.3182 26.6764 18.5047C26.3444 18.6785 25.7164 18.0862 25.6804 17.7189C25.3284 17.5412 24.9964 17.3438 24.6844 17.1305C24.6884 17.5057 24.4404 17.4583 24.2884 17.1305C23.5604 17.0911 23.0964 16.8304 22.8964 16.3447C22.7004 16.2263 22.8324 16.096 23.2924 15.9538C23.4124 15.6892 23.8084 15.5589 24.4844 15.5629C25.7364 15.3338 26.4684 14.9706 27.0684 16.3487L27.0724 16.3447Z" fill="#FBFAFE"/>
<path d="M27.4684 16.1473C27.5724 16.4079 27.8444 16.9923 27.8644 17.1266C27.7164 17.4425 27.7044 17.7939 27.8644 18.1059C28.1284 18.1059 28.1244 18.406 27.8644 18.4968C27.1884 18.6311 27.5884 18.1059 27.4564 17.6281C27.3924 17.3991 27.1164 16.4513 27.0684 16.3368L27.4644 16.1394L27.4684 16.1473Z" fill="#CDB9F5"/>
<path d="M24.0876 14.9705L23.8876 15.3615C23.7516 15.551 23.4996 15.4483 23.2916 15.3615C23.1596 15.7761 22.2836 16.0525 22.0996 15.5589C22.5156 15.1166 23.4676 15.0298 24.0876 14.9705Z" fill="#FBFAFE"/>
<path d="M26.0758 14.1887C26.0558 14.3782 26.1198 14.935 26.0758 14.9745C26.0398 15.01 25.4678 14.9626 25.2798 14.9745C25.2638 14.8481 25.6438 14.2163 25.6758 14.1887C25.7238 14.1492 25.9598 14.2124 26.0718 14.1887H26.0758Z" fill="#EFEAFC"/>
<path d="M28.8604 15.3654C29.3604 15.4009 30.6923 15.4681 30.4523 15.9538C29.9163 15.7919 29.2204 15.8156 28.8604 15.3654Z" fill="#D9C9F7"/>
<path d="M23.8879 15.3654C24.1439 15.3852 24.4799 15.2588 24.4839 15.5629C23.5239 15.8353 23.1279 15.7721 23.2919 15.3654C23.4799 15.3536 23.6999 15.3496 23.8879 15.3654Z" fill="#C6B0F4"/>
<path d="M28.2639 18.8957C28.4719 19.1721 28.6039 19.4998 28.6599 19.875C29.0759 20.4396 30.1079 21.3202 30.6479 21.8375C30.6839 22.3627 30.6559 22.2837 30.2519 22.0349C29.9719 22.2956 29.6359 22.1811 29.2559 21.6954C29.3519 23.1209 29.2799 24.5345 29.0359 25.9364L29.2559 26.1575C29.3759 25.7863 29.5519 25.7863 29.6519 26.1575C29.1719 27.1605 28.4519 27.0736 28.2599 28.3175C28.2039 28.4873 28.1359 28.4873 28.0599 28.3175C27.8719 27.9226 27.8079 27.5949 27.8599 27.3382L27.5959 27.0183C27.9119 25.3598 28.0039 23.6737 27.8679 21.9639L28.2559 21.648C28.2679 20.8977 28.1359 20.3093 27.8599 19.8829C27.3799 20.3093 26.2919 19.4919 26.4679 18.9036C26.0119 18.564 26.1199 18.4297 26.6679 18.5126C27.0039 18.7259 27.6519 19.0181 27.8599 18.5126C27.8919 18.4297 27.8439 18.2441 27.8599 18.1217C27.7639 17.9677 27.7079 17.8413 27.8599 17.7308C28.3559 17.9993 28.1639 18.5403 28.2559 18.9075L28.2639 18.8957Z" fill="#CAB6F5"/>
<path d="M29.2601 26.1535C29.0361 26.1851 28.8681 26.2839 28.6641 26.351C28.9881 24.4714 28.9081 22.5483 28.6641 20.6608L30.2521 22.0349C31.0001 23.1327 31.4721 23.5631 30.4521 24.7833C30.5561 25.0755 30.3521 25.348 30.0561 25.1742C30.2161 25.5375 29.5841 25.9798 29.2601 26.1535Z" fill="#FBFAFD"/>
<path d="M30.6519 25.1742C30.4519 25.3875 30.5559 25.3124 30.2559 25.5652C29.7439 25.7824 29.6519 25.5296 30.0559 25.1742C30.1879 25.0321 30.3759 24.8741 30.4519 24.7833L30.6519 25.1742Z" fill="#CCB8F5"/>
<path d="M14.3444 26.1535C13.9764 26.2878 13.2684 25.577 13.3484 25.1742C12.9724 25.2808 12.6724 24.7438 12.7524 24.3884C12.5684 24.1436 12.6404 23.8395 12.1484 23.6974C12.1524 23.5513 12.6204 22.805 12.7524 22.6194C12.7404 22.1337 13.4924 21.415 13.9444 21.2452C13.9924 21.0714 14.0604 21.0754 14.1444 21.2452C14.1964 21.0004 14.5924 20.72 14.7404 20.8779C14.9764 21.1346 15.2724 25.96 14.3444 26.1496V26.1535Z" fill="#FCFBFE"/>
<path d="M13.9438 21.2491C13.8798 21.7862 13.0878 22.1574 12.7518 22.6233L12.5518 22.2324C12.8398 21.9244 13.1918 21.4426 13.5478 21.0556C13.8318 20.8108 13.9638 20.878 13.9438 21.2531V21.2491Z" fill="#CEBBF6"/>
<path d="M13.3477 25.1742C13.5717 25.6836 13.3477 25.6836 12.9517 25.3717C12.7197 25.1032 12.6397 24.886 12.5557 24.7833L12.7557 24.3924C12.9077 24.5938 13.2277 25.0281 13.3517 25.1782L13.3477 25.1742Z" fill="#D4C3F7"/>
<path d="M16.5318 28.7045C17.2038 28.5465 17.8638 28.8743 18.5198 29.6838C19.0278 29.6719 19.9798 29.8852 19.9118 30.4696C20.7118 30.8921 20.3798 31.2199 18.9158 31.4489C18.4518 31.5002 18.1518 31.6503 18.0158 31.903C17.9478 31.9385 16.6998 31.6068 16.7278 31.4489C16.6038 30.9632 16.3758 30.6354 16.3318 30.4696C15.8598 30.3748 15.7078 29.7548 16.1318 29.4903C15.6718 28.7716 15.7918 27.6146 16.5278 28.7045H16.5318Z" fill="#FBFAFE"/>
<path d="M20.7083 30.8644C21.1123 31.0382 21.1603 31.2356 21.1923 31.2317C21.4683 31.2119 21.8403 30.8289 22.1003 31.2554C21.5923 31.2119 20.3163 31.6779 19.7123 31.8437C19.3763 31.6976 17.8483 31.6621 18.5203 31.8437C18.7843 31.9701 18.7163 32.1004 18.3203 32.2347C18.1923 32.2505 18.0523 32.2268 17.9243 32.2347C18.1523 31.4765 16.9843 32.0254 16.7283 31.8398C16.6883 31.8121 16.7523 31.5397 16.7283 31.4489C17.4203 31.7134 18.1923 31.5515 18.9163 31.4489C19.3403 31.2593 19.7923 31.1487 20.2723 31.1172C20.1043 30.8249 20.2483 30.7381 20.7083 30.8605V30.8644Z" fill="#D0BEF6"/>
<path d="M15.7359 29.0994C15.9039 28.9217 16.0399 29.052 16.1319 29.4903C16.1879 29.8299 16.2399 30.1379 16.3319 30.4696C16.2079 30.5091 16.1279 31.0066 16.1319 31.058C15.7359 30.5841 15.4799 29.7312 15.3359 29.0954C15.3599 28.5742 15.5479 28.6058 15.7319 29.0954L15.7359 29.0994Z" fill="#D2C1F6"/>
<path d="M18.5204 15.5589C18.5844 15.2351 18.8524 15.3022 19.3164 15.7563C19.8524 15.8669 20.1844 16.0643 20.3124 16.3447C20.4604 16.554 20.3284 16.6843 19.9164 16.7356C19.8044 17.0594 19.4764 17.1897 18.9204 17.1266C19.0004 17.328 18.8004 17.4622 18.3244 17.5175C18.2684 17.8334 17.8484 18.0308 17.5284 17.9084C17.4884 18.2046 17.2244 18.402 16.7324 18.4968C16.6964 18.6666 16.6284 18.6587 16.5324 18.4968C16.4724 18.6666 16.4044 18.6666 16.3324 18.4968C15.8764 18.9154 15.7364 17.9321 16.1324 17.711C16.0044 17.1266 15.9004 15.863 16.7284 15.7484C17.1524 15.0495 17.8284 15.4523 18.5204 15.551V15.5589Z" fill="#FBFAFE"/>
<path d="M16.7282 15.7563C16.5322 16.0801 16.1682 17.3082 16.1322 17.7189C16.0762 17.8887 16.0082 17.8887 15.9322 17.7189C15.8642 17.4148 15.7962 17.091 15.7322 16.7396C15.6362 16.704 15.6362 16.5698 15.7322 16.3487C15.8962 15.9459 16.0962 15.934 16.1282 15.5628C16.5762 15.2351 16.4562 15.393 16.7242 15.7603L16.7282 15.7563Z" fill="#D4C4F6"/>
<path d="M18.9156 14.9705C19.3076 15.0771 19.3196 15.2667 18.9156 15.3615L20.3916 15.6023C20.5476 15.6379 20.4956 15.8037 20.3076 15.9498C20.0076 16.0407 19.6796 15.9735 19.3116 15.7524C19.0476 15.6971 18.7796 15.5944 18.5156 15.5549V14.9666C18.6436 14.9784 18.7876 14.9508 18.9116 14.9666L18.9156 14.9705Z" fill="#D4C3F6"/>
<path d="M10.7637 26.5484C10.7957 26.1614 10.7877 25.7982 11.1597 25.5691C11.0837 25.9048 11.3077 26.3984 10.7637 26.5484Z" fill="#EBE4FB"/>
<path d="M12.1562 17.1305C12.7483 16.9568 12.7883 17.8729 12.1562 17.7189C12.1562 17.5215 12.1562 17.328 12.1562 17.1305Z" fill="#F8F4FE"/>
<path d="M13.1478 31.2554C13.6278 31.2277 13.7918 31.437 13.9438 31.4528V31.6503C13.8838 31.7806 13.6878 31.8438 13.3478 31.8477C12.8678 31.7648 12.6558 31.4805 12.5518 31.4568C12.7358 31.358 12.9358 31.2712 13.1478 31.2593V31.2554Z" fill="#D1BFF6"/>
<path d="M13.9438 31.6502H14.3397V31.8437C14.0757 31.8437 13.8078 31.8556 13.5438 31.8437C13.4798 31.8437 13.4078 31.8556 13.3438 31.8437L13.9397 31.6463L13.9438 31.6502Z" fill="#C5AFF4"/>
<path d="M25.68 33.6089C25.476 33.7313 25.288 33.8813 25.084 33.9998C25.164 33.368 25.432 33.4944 25.68 33.214V33.6049V33.6089Z" fill="#D8C9F7"/>
<path d="M19.7119 15.3654C20.7639 15.3812 21.0399 15.6932 22.0999 15.5629C22.4999 15.5155 22.8919 15.3931 23.2919 15.3654C23.5119 15.7208 24.1079 15.5194 24.4839 15.5629C24.1959 15.6142 23.6359 15.859 23.2919 15.9538L22.4959 16.3447C22.3959 16.5145 22.1959 16.5145 21.8999 16.3447C21.8279 16.866 21.6719 16.8344 21.5039 16.3447C21.1879 16.6685 20.6479 16.712 20.7079 16.1473C20.5119 16.2697 20.2919 16.2065 20.3119 15.9498C20.1399 15.2746 19.1519 15.7958 18.9199 15.3615C19.1559 15.093 19.4199 15.1838 19.7159 15.3615L19.7119 15.3654Z" fill="#CCB9F5"/>
<path d="M19.7118 15.3654C19.4478 15.3615 19.1798 15.3654 18.9158 15.3654C18.8758 15.2944 18.9398 15.089 18.9158 14.9745C19.2318 15.0179 19.5238 15.0772 19.7118 15.3654Z" fill="#D6C7F7"/>
<path d="M13.3481 25.1742C13.6081 25.4862 14.0321 25.889 14.3441 26.1535L14.6041 26.0509C14.6961 25.4191 14.9321 24.807 15.3361 25.5652C15.9041 25.8258 15.8881 26.4734 15.3361 26.7419C15.4401 26.9946 15.5721 27.1881 15.7321 27.3303C15.9121 27.3777 15.9081 27.4448 15.7321 27.5277C16.0761 27.6422 16.1001 27.8081 15.7321 27.9187C16.1401 28.1516 16.1401 28.5426 15.7321 29.0954C15.6521 29.0599 15.4521 29.1191 15.3361 29.0954C15.2841 28.8743 15.3721 28.5544 15.3361 28.3096C15.1561 28.0095 15.0201 27.6857 14.9401 27.3303C14.5721 26.813 13.5601 26.0746 12.9521 25.3677L13.3481 25.1703V25.1742Z" fill="#CCB9F5"/>
<path d="M15.3362 28.3135C14.8882 28.1832 14.9042 27.7093 14.9402 27.3342C15.0242 27.4527 15.1842 27.5238 15.2482 27.7172C15.3242 27.9384 15.3082 28.1121 15.3362 28.3175V28.3135Z" fill="#D0BFF6"/>
<path d="M15.7358 17.7189C15.9118 18.4297 16.1118 18.6903 16.3318 18.5047C16.3518 18.481 16.4598 18.5205 16.5318 18.5047C16.8158 18.5876 17.0038 18.6942 16.7318 18.8956C16.7798 19.3695 16.4398 19.7762 15.7118 20.1158C15.8478 20.8226 15.7238 21.2649 15.3398 21.4466C15.0278 22.1218 14.7638 21.8612 14.5438 20.6607C13.9638 20.8819 13.9358 20.7081 14.3438 20.2698C15.0238 19.7012 14.7358 19.713 14.9398 19.2905C14.9918 18.9233 15.1238 18.6627 15.3358 18.5047C15.3638 18.3191 15.3078 18.1019 15.3358 17.9163C15.4278 17.482 15.5598 17.4148 15.7318 17.7189H15.7358Z" fill="#CBB7F5"/>
<path d="M14.3438 20.2698C14.2998 20.5186 14.3678 20.5423 14.5438 20.6607C14.5438 20.8187 14.4118 21.0161 14.1478 21.2491C14.0838 21.257 14.0158 21.2452 13.9478 21.2491C13.7798 21.261 13.6078 21.2294 13.5518 21.0517C13.9318 20.6371 13.8438 20.6884 14.3478 20.2659L14.3438 20.2698Z" fill="#D3C2F6"/>
<path d="M15.3359 18.5047C15.2279 19.2353 15.0479 19.0655 14.9399 19.2905C14.9639 18.7969 14.7399 18.3823 15.3359 18.5047Z" fill="#E7DFFA"/>
<path d="M15.7358 16.7396C15.8318 16.8897 15.8798 17.02 15.7358 17.1305C15.6438 17.4662 15.5838 17.6557 15.3398 17.328C15.4158 16.8423 15.5958 16.6962 15.7358 16.3487V16.7396Z" fill="#FBFAFE"/>
<path d="M15.7361 17.7189C15.6081 17.7505 15.4721 17.865 15.3401 17.9163C15.3681 17.7307 15.3121 17.5136 15.3401 17.328L15.7361 17.1305C15.9001 17.2964 15.8841 17.5451 15.7361 17.7189Z" fill="#D4C3F7"/>
<path d="M19.7123 31.8437C19.2043 31.982 19.1923 32.1439 18.3203 32.2347C18.3883 32.1478 18.4803 31.8556 18.5203 31.8437C18.7323 31.6029 19.3483 31.7529 19.7123 31.8437Z" fill="#E5DCFA"/>
<path d="M28.6636 19.8789C28.2956 19.3774 28.3996 19.4366 28.2676 18.8996C28.7156 19.0299 28.6996 19.5037 28.6636 19.8789Z" fill="#EAE3FB"/>
<path d="M27.8678 17.7189C27.8678 17.8453 27.8838 17.9914 27.8678 18.1098C27.5558 17.9795 27.5558 17.2569 27.8678 17.1305C27.8958 17.3003 27.8678 17.5333 27.8678 17.7189Z" fill="#C5AFF4"/>
<path d="M30.056 25.1742L30.256 25.5652C30.064 25.7271 30.352 25.9837 29.66 26.1535C29.548 26.1812 29.388 26.1338 29.264 26.1535C29.196 25.4664 29.972 25.265 30.06 25.1742H30.056Z" fill="#CDBAF6"/>
<path d="M28.2642 29.0994C28.2642 29.5061 27.9442 29.5021 27.8682 29.0994C27.8682 28.969 27.8762 28.8387 27.8682 28.7084L28.0682 28.3175H28.2682C28.2322 28.5623 28.3002 28.8506 28.2682 29.1033L28.2642 29.0994Z" fill="#D6C6F7"/>
<path d="M28.2642 29.0993C28.2202 29.4468 28.4242 29.743 27.8682 29.6877C27.8802 29.4942 27.8722 29.2928 27.8682 29.0993H28.2642Z" fill="#EBE4FB"/>
<path d="M27.0722 27.9226C27.3722 27.9266 27.3642 28.2385 27.0722 28.3135C26.4842 28.7874 26.4642 28.8308 25.6802 29.2928C25.4962 29.3284 25.2882 29.3205 25.2842 29.0954C24.1362 28.8308 26.6002 27.6541 27.0762 27.9187L27.0722 27.9226Z" fill="#D3C2F6"/>
<path d="M25.084 29.0993C25.368 29.1783 25.556 29.2889 25.284 29.4903C24.972 29.664 24.752 29.8456 24.288 30.0786C23.924 29.9246 23.652 29.9957 23.292 30.0786C23.032 29.356 24.576 28.5307 25.084 29.0993Z" fill="#D7C7F7"/>
<path d="M27.4681 27.9226C28.0441 27.1407 28.1561 28.1161 27.8641 28.7084C27.7721 28.744 27.5881 28.6847 27.4681 28.7084C27.4721 28.5781 27.4681 28.4478 27.4681 28.3175C27.1681 28.3135 27.1761 28.0016 27.4681 27.9266V27.9226Z" fill="#E1D6F9"/>
<path d="M27.4683 29.2928C27.4323 29.6048 27.2483 29.9365 27.2683 30.2721C26.9523 29.8496 26.8683 29.127 27.4683 29.2928Z" fill="#F4F1FD"/>
<path d="M23.4924 30.4735L23.2924 31.0619C23.0564 31.2001 22.8044 31.1448 22.8964 30.8644C23.1644 30.6867 23.0524 30.671 23.4924 30.4735Z" fill="#F0EAFC"/>
<path d="M22.896 30.8644C22.984 31.0342 23.184 31.0027 23.292 31.0619C23.372 31.1014 23.436 31.1882 23.492 31.2593C23.132 31.2001 22.624 31.3738 22.5 30.8684C22.62 30.8408 22.84 30.9039 22.896 30.8684V30.8644Z" fill="#D7C9F7"/>
<path d="M25.68 29.2928C25.532 29.3797 25.4 29.4231 25.284 29.4903L25.084 29.0993C25.132 28.9177 25.196 28.9256 25.284 29.0993C25.456 29.0993 25.62 29.1151 25.68 29.2968V29.2928Z" fill="#CCB8F5"/>
<path d="M27.4677 27.9226V28.3135C27.3557 28.3372 27.1157 28.274 27.0717 28.3135V27.9226C27.0157 27.737 27.0837 27.6738 27.2717 27.7252C27.5477 27.5514 27.6557 27.6462 27.4717 27.9226H27.4677Z" fill="#D1BFF6"/>
<path d="M21.8998 16.3447C22.5518 16.5066 23.1878 16.7277 23.8078 17.0081L23.8918 17.324C24.2358 17.2174 24.7518 17.2766 24.6878 17.7149C25.3398 17.711 26.4118 18.2322 26.4798 18.8917C26.9398 19.1997 27.4238 19.6183 27.8718 19.871C28.1518 20.3014 28.2878 20.8898 28.2678 21.6361C28.2958 22.722 28.4438 26.6471 27.8718 27.3263C28.1198 27.7488 27.9198 27.8792 27.2758 27.7173C27.2038 27.7765 27.1478 27.8594 27.0758 27.9147C26.9838 27.9858 25.9918 28.6689 25.9238 28.6926C25.5678 28.819 25.1598 28.4438 25.2838 29.0914C25.2198 29.0914 25.1438 29.0796 25.0838 29.0914C24.5118 29.2138 23.6558 29.6561 23.2918 30.0707C22.9318 30.1537 22.3998 30.2642 22.0998 30.4617C21.8638 30.7618 21.6438 30.8447 21.5038 30.4617C21.3278 30.4538 21.0238 30.5012 20.9078 30.4617C20.5998 30.6986 20.2358 30.3827 20.5118 30.0707L19.9158 29.6798C19.8478 29.8496 19.7838 29.8496 19.7158 29.6798C19.5558 29.4942 19.2918 29.3639 18.9198 29.2889C18.8318 29.5653 18.4918 29.4745 18.3238 29.2889C17.5718 29.048 17.0398 28.6531 16.7318 28.1121C16.4238 28.1635 15.9038 27.7962 15.7358 27.5238C15.7278 27.4606 15.7478 27.3895 15.7358 27.3263C15.5478 27.2158 15.4158 27.0223 15.3398 26.738C15.3118 26.351 15.3478 25.9521 15.3398 25.5612C14.7598 24.2897 14.7198 22.7023 15.3398 21.4426C15.3518 21.0477 15.2398 20.1632 15.3838 19.9144C15.4238 19.8433 16.6078 18.9667 16.7318 18.8917C16.5358 18.6153 16.8398 18.5876 17.1278 18.6942C16.9958 18.1888 17.6758 18.1138 17.9238 18.4968C18.2878 18.1138 18.7518 17.79 19.3158 17.5175C19.1438 17.4622 19.1438 17.3951 19.3158 17.3201C19.2998 17.0476 19.7118 16.937 19.9118 17.1226C20.3478 16.7356 20.8478 16.4039 21.5038 16.3368C21.6318 16.3566 21.7758 16.321 21.8998 16.3368V16.3447Z" fill="#FEFEFE"/>
<path d="M19.7124 29.6877C19.7764 29.6956 19.8484 29.6759 19.9124 29.6877C20.1364 29.8022 20.3324 29.9325 20.5084 30.0786C20.5684 30.1458 20.8804 30.4617 20.9044 30.4696C20.7204 30.5406 20.7564 30.7973 20.7044 30.8605C20.4644 31.054 20.0524 30.7183 19.9084 30.4696C19.3524 30.2129 18.9804 29.9167 18.5164 29.6838C18.4604 29.3797 18.6884 29.2889 18.9124 29.4863C19.1884 29.3481 19.6044 29.3639 19.7084 29.6838L19.7124 29.6877Z" fill="#CFBDF6"/>
<path d="M22.0999 30.4735C22.0439 30.5091 21.7119 31.6621 21.5039 30.4735C21.7039 30.4814 21.9039 30.4696 22.0999 30.4735Z" fill="#D7C8F7"/>
<path d="M22.4964 16.3447C22.6564 16.1591 22.7924 16.1118 22.8924 16.3447C23.7084 16.4316 23.3364 16.5856 23.6444 16.7317C23.9524 16.8778 24.4284 16.4711 24.2844 17.1305C24.3364 17.3082 24.2044 17.3714 23.8884 17.328C23.6164 17.1898 23.3524 17.1661 23.0564 17.1108L21.9004 16.3447C22.0924 16.3684 22.3044 16.325 22.4964 16.3447Z" fill="#D2C2F6"/>
<path d="M25.6805 17.7189C26.2925 17.9045 26.6005 18.4573 26.6765 18.5047L26.4765 18.8956C25.9485 18.5442 25.2885 18.0506 24.6845 17.7189C24.4205 17.4464 24.5405 17.3359 24.8845 17.5215C25.0605 17.328 25.3245 17.3911 25.6805 17.7189Z" fill="#D5C5F7"/>
<path d="M24.2877 17.1305C24.4037 17.1187 24.5757 17.1108 24.6837 17.1305C25.0077 17.2648 25.0757 17.3991 24.8837 17.5215C24.8597 17.5215 24.7597 17.6834 24.6837 17.7189C24.4917 17.6123 24.1317 17.4464 23.8877 17.328C23.9437 17.1345 24.1157 17.1463 24.2837 17.1305H24.2877Z" fill="#D0BFF6"/>
<path d="M25.6796 17.7189C25.5716 17.6873 24.9236 17.5254 24.8836 17.5215L24.6836 17.1305C25.1156 17.2016 25.4676 17.3161 25.6796 17.7189Z" fill="#D8C9F7"/>
<path d="M23.292 15.9538L22.896 16.3447C22.768 16.3289 22.628 16.3566 22.5 16.3447C22.616 15.8827 23.004 16.0328 23.296 15.9538H23.292Z" fill="#E1D7F9"/>
<path d="M27.8685 27.3342C28.4005 27.1052 28.1805 27.8357 28.0685 28.3135C28.0245 28.5031 28.1485 28.5978 27.8685 28.7044C27.8565 28.4952 27.9325 28.0371 27.8485 27.9344C27.7845 27.8555 27.5605 27.9463 27.4725 27.9186C27.3845 27.891 27.3085 27.8081 27.2725 27.7212C27.4885 27.5514 27.8445 27.3579 27.8685 27.3303V27.3342Z" fill="#CAB6F5"/>
<path d="M27.8682 19.8789C27.9442 19.9223 28.2442 19.7565 28.2762 19.9934C28.2762 20.5423 28.2522 21.0951 28.2642 21.644L27.8682 19.8789Z" fill="#DFD3F8"/>
<path d="M14.5396 20.6608C14.5876 20.6924 14.8556 20.5897 14.9196 20.6726C15.1076 20.9174 14.6236 21.6164 15.3356 21.4466C15.2956 22.8089 15.3116 24.2028 15.3356 25.5652C14.6916 25.423 14.9876 26.0153 14.9356 26.5445C14.5076 26.6669 14.5116 26.2996 14.3396 26.1535C14.7956 24.5543 14.4196 22.7102 14.5356 21.0517C14.4836 20.9727 14.2476 21.2333 14.1396 21.2491C14.0716 20.9253 14.2876 20.8108 14.5356 20.6608H14.5396Z" fill="#DACCF8"/>
<path d="M16.7276 28.1161C17.6036 28.6334 17.6396 28.4438 18.3196 29.2928C18.6556 29.2533 18.8076 29.4587 18.5196 29.6838C17.8876 29.3679 17.1556 28.9414 16.5316 28.7045C16.1756 28.428 16.1756 28.2977 16.5316 28.3135C16.2756 28.0213 16.3956 27.9147 16.7316 28.1161H16.7276Z" fill="#D3C3F6"/>
<path d="M20.708 30.8644C20.28 31.3896 19.6 31.358 18.916 31.4528C19.228 30.9908 19.82 31.054 20.308 31.0579C20.384 30.7499 20.084 30.9553 19.908 30.742V30.4735C20.188 30.5999 20.472 30.7618 20.708 30.8644Z" fill="#EDE7FB"/>
<path d="M16.5321 28.3135C16.5001 28.4202 16.5521 28.5821 16.5321 28.7045C16.3401 28.6294 16.2321 28.4241 15.9361 28.511C16.1641 28.8427 16.0801 29.1625 16.1361 29.4903C16.0121 29.3797 15.8801 29.1665 15.7401 29.0993C15.7361 28.7084 15.7481 28.3135 15.7401 27.9226C15.9201 27.6028 16.4841 28.0095 16.5361 28.3135H16.5321Z" fill="#E7DEFA"/>
<path d="M19.7115 31.8434C19.3675 31.9026 18.8035 31.7567 18.5195 31.8434C18.2435 31.8908 17.9275 31.8277 18.2235 31.6463C18.5075 31.6069 19.9875 31.6345 19.7155 31.8434H19.7115Z" fill="#CBB8F5"/>
<path d="M21.5038 16.3447C21.5878 16.8225 20.3798 17.016 19.9118 17.1305C20.0758 16.8581 20.0758 16.7278 19.9118 16.7396C20.0038 16.6764 19.6478 16.5816 20.3078 16.3487C20.2278 16.1591 20.3598 16.092 20.7038 16.1512C20.9678 16.2026 21.2318 16.3092 21.4998 16.3487L21.5038 16.3447Z" fill="#D4C4F7"/>
<path d="M17.5235 17.9163C17.7235 17.8966 17.9195 17.8847 17.9195 18.1138C18.3595 18.1059 18.2355 18.2678 17.9195 18.5047C17.7835 18.5679 17.4435 18.5521 17.1235 18.7021C16.8675 18.7535 16.7355 18.6864 16.7275 18.5047C16.5835 17.9242 17.1995 18.0822 17.5235 17.9163Z" fill="#D7C8F7"/>
<path d="M16.1317 17.7189C16.1117 17.9677 16.0517 18.3783 16.3317 18.5047C16.2437 18.6074 16.5397 19.0575 15.7357 18.8996C15.7197 18.5087 15.7557 18.1138 15.7357 17.7228C15.7997 17.5491 15.8677 17.553 15.9357 17.7228H16.1357L16.1317 17.7189Z" fill="#EBE3FB"/>
<path d="M19.9119 16.7396C20.5799 16.6962 20.3319 16.9094 19.9119 17.1305C19.7319 17.174 19.5319 17.328 19.3159 17.328C19.1479 17.4859 18.9399 17.3359 18.9199 17.1305C19.2639 16.9528 19.8679 16.7712 19.9159 16.7396H19.9119Z" fill="#D0BEF6"/>
<path d="M20.3075 15.9538C20.4995 15.9893 20.6435 16.1394 20.7035 16.1512C20.6515 16.3684 20.4475 16.2973 20.3075 16.3487L19.3115 15.7603C19.6355 15.8314 19.9795 15.8946 20.3075 15.9577V15.9538Z" fill="#F2EDFC"/>
<path d="M18.9163 17.1305C19.1843 17.02 19.2923 17.328 19.3123 17.328V17.5254C19.1803 17.7742 18.9523 17.8532 18.9163 17.5254C18.6043 17.6834 18.4083 17.6834 18.3203 17.5254C18.4323 17.4662 18.6203 17.2885 18.9163 17.1345V17.1305Z" fill="#C6B0F4"/>
<path d="M18.3204 17.5215H18.9164C19.1284 17.8216 18.2124 18.2757 17.9204 18.1098C17.8884 18.0743 17.5404 18.1572 17.5244 17.9124C17.7884 17.7742 18.0724 17.6518 18.3204 17.5215Z" fill="#C5AFF4"/>
<path d="M17.1282 18.6982C17.0162 18.7496 16.8202 18.8404 16.7322 18.8957L16.5322 18.5047C16.5842 18.4929 16.6762 18.4968 16.7322 18.5047C16.9002 18.5284 17.0642 18.5047 17.1282 18.7022V18.6982Z" fill="#CAB5F5"/>
<path d="M15.9321 17.7189C15.8681 17.7307 15.7961 17.7031 15.7321 17.7189C15.7241 17.5254 15.7321 17.324 15.7321 17.1305C15.7321 17.0002 15.7321 16.8699 15.7321 16.7396C16.0561 16.9054 15.9201 17.4069 15.9321 17.7189Z" fill="#C5AFF4"/>
<path d="M15.7363 27.5277C16.2523 27.5238 16.5043 27.9818 16.7323 28.1161C16.6923 28.1911 16.5483 28.2661 16.5323 28.3135L15.7363 27.9226C15.7363 27.7923 15.7483 27.658 15.7363 27.5317V27.5277Z" fill="#CAB5F5"/>
<path d="M15.7356 27.3342C15.1596 27.4251 15.3676 27.1921 15.3396 26.7459C15.6756 26.8406 15.6836 27.046 15.7356 27.3342Z" fill="#D0BFF6"/>
<path d="M19.9119 25.1742C19.9399 25.498 19.8959 25.8337 19.9119 26.1575H17.9199C17.6679 25.3598 18.2719 25.1189 18.4719 24.6372C18.7239 24.033 19.1279 23.0024 19.2999 22.4811C19.6119 21.5374 19.1679 20.7239 20.6199 20.8463C21.6839 20.9372 21.4439 21.952 21.7079 22.7141C22.1039 23.8553 22.3439 24.3173 22.8879 25.1782C23.2079 25.2256 23.1679 25.8416 22.8879 25.964C22.2159 26.2917 21.7519 26.2285 21.0959 25.964C20.7679 25.7942 20.7679 25.348 21.0959 25.1782C21.0879 24.9807 21.1039 24.7833 21.0959 24.5898C20.6999 24.6569 20.0319 24.4911 19.7039 24.5898C19.6759 24.8228 19.7679 24.9847 19.9039 25.1782L19.9119 25.1742Z" fill="#C6B1F4"/>
<path d="M23.4921 22.0349C23.4761 21.8296 23.0921 21.2807 23.2921 20.8582C23.7321 20.87 25.4601 20.7713 25.6521 21.0833C26.2321 22.031 25.0841 22.0665 25.0721 22.1415C25.0081 22.4574 25.0081 24.7478 25.0721 25.0637C25.1361 25.3796 25.7921 24.7596 25.6841 25.7586C25.1481 26.6945 22.2681 26.501 23.2961 25.1703C23.7921 24.42 23.9121 22.6193 23.4961 22.031L23.4921 22.0349Z" fill="#C7B2F4"/>
<path d="M23.4923 22.0349C24.0923 21.9244 23.8763 22.335 23.8883 22.7141C23.9083 23.338 23.9363 24.0844 23.8883 24.6964C23.8403 25.3085 23.9883 25.2019 23.2923 25.1782C23.1643 25.111 23.1643 25.0479 23.2923 24.9807C23.3843 23.9896 23.5803 23.1287 23.4923 22.0389V22.0349Z" fill="#E0D3F8"/>
<path d="M23.2921 25.1742C23.2641 25.498 23.3081 25.8337 23.2921 26.1575C23.8641 26.0825 24.6161 26.268 25.1441 26.1535C25.3121 26.118 25.2801 25.6283 25.6801 25.7626C25.6681 25.8811 25.4841 26.3273 25.3481 26.3589C24.8761 26.4694 23.0281 26.4931 22.8961 25.96C22.8481 25.7587 22.9601 25.273 22.8961 25.1742L23.2921 24.9768C23.2841 25.04 23.2961 25.1071 23.2921 25.1742Z" fill="#F3EFFC"/>
<path d="M19.3158 17.5215C19.4158 17.94 18.3518 18.3033 17.9238 18.5008C17.8998 18.3902 17.9598 18.1493 17.9238 18.1098L18.9198 17.5215H19.3158Z" fill="#FBFAFE"/>
<path d="M21.1037 25.1742C21.1117 25.4348 21.0957 25.6994 21.1037 25.96C21.0077 25.9205 20.7557 26.0706 20.6957 25.8416C20.5877 25.4151 20.6477 25.036 21.1037 25.1742Z" fill="#D8C9F7"/>
<path d="M19.9119 25.1742H19.3159C19.2839 25.1426 19.5799 24.6253 19.7119 24.5858C19.8159 24.7675 19.8919 24.9649 19.9119 25.1742Z" fill="#DACCF8"/>
<path d="M18.9161 29.2928C19.4041 29.3402 19.8361 29.0756 19.7121 29.6838C19.4441 29.6443 19.1881 29.514 18.9161 29.4863C18.7441 29.431 18.7441 29.3639 18.9161 29.2889V29.2928Z" fill="#FBFAFE"/>
<path d="M18.9163 29.2928V29.4903C18.8923 29.4903 18.6843 29.7548 18.5203 29.6877C18.4923 29.6759 18.4003 29.3915 18.3203 29.2968C18.5643 29.0598 18.7523 29.281 18.9163 29.2968V29.2928Z" fill="#CAB7F5"/>
<path d="M19.9121 29.6877C20.8961 29.8654 20.2921 29.8496 20.5081 30.0786C20.2161 30.0786 19.9961 29.9681 19.9121 29.6877Z" fill="#FBFAFE"/>
<path d="M14.9402 21.644H14.7402V24.7833H14.9402V21.644Z" fill="#C6B0F4"/>
<path d="M20.1121 23.4091C19.4881 23.1959 20.6521 21.7467 20.7081 22.8208C20.6321 23.0932 20.3921 23.338 20.1121 23.4091Z" fill="#DDD1F8"/>
<path d="M20.7082 22.8207C20.7202 23.0182 20.7082 23.2156 20.7082 23.4091C20.5242 23.3815 20.2522 23.4565 20.1122 23.4091C20.0962 23.0221 20.3082 22.8049 20.7082 22.8207Z" fill="#F1EDFC"/>
<g filter="url(#filter0_ii_540_146)">
<circle cx="22" cy="22" r="22" fill="url(#paint0_radial_540_146)"/>
</g>
<defs>
<filter id="filter0_ii_540_146" x="-1.51724" y="-2.02299" width="45.5172" height="48.1977" filterUnits="userSpaceOnUse" color-interpolation-filters="sRGB">
<feFlood flood-opacity="0" result="BackgroundImageFix"/>
<feBlend mode="normal" in="SourceGraphic" in2="BackgroundImageFix" result="shape"/>
<feColorMatrix in="SourceAlpha" type="matrix" values="0 0 0 0 0 0 0 0 0 0 0 0 0 0 0 0 0 0 127 0" result="hardAlpha"/>
<feMorphology radius="0.505747" operator="dilate" in="SourceAlpha" result="effect1_innerShadow_540_146"/>
<feOffset dx="-1.51724" dy="3.54023"/>
<feGaussianBlur stdDeviation="1.34023"/>
<feComposite in2="hardAlpha" operator="arithmetic" k2="-1" k3="1"/>
<feColorMatrix type="matrix" values="0 0 0 0 1 0 0 0 0 1 0 0 0 0 1 0 0 0 0.56 0"/>
<feBlend mode="normal" in2="shape" result="effect1_innerShadow_540_146"/>
<feColorMatrix in="SourceAlpha" type="matrix" values="0 0 0 0 0 0 0 0 0 0 0 0 0 0 0 0 0 0 127 0" result="hardAlpha"/>
<feMorphology radius="1.51724" operator="erode" in="SourceAlpha" result="effect2_innerShadow_540_146"/>
<feOffset dy="-2.02299"/>
<feGaussianBlur stdDeviation="1.97241"/>
<feComposite in2="hardAlpha" operator="arithmetic" k2="-1" k3="1"/>
<feColorMatrix type="matrix" values="0 0 0 0 1 0 0 0 0 0.333333 0 0 0 0 0.835294 0 0 0 0.28 0"/>
<feBlend mode="normal" in2="effect1_innerShadow_540_146" result="effect2_innerShadow_540_146"/>
</filter>
<radialGradient id="paint0_radial_540_146" cx="0" cy="0" r="1" gradientUnits="userSpaceOnUse" gradientTransform="translate(28.4892 11.2374) rotate(118.551) scale(24.5053)">
<stop stop-color="white" stop-opacity="0"/>
<stop offset="1" stop-color="#FFBCE1" stop-opacity="0.67"/>
</radialGradient>
</defs>
</svg>
