<svg width="80" height="80" viewBox="0 0 80 80" fill="none" xmlns="http://www.w3.org/2000/svg">
<path d="M18.3332 35C18.7398 35 19.1198 34.8134 19.8765 34.4334L25.9598 31.4067C28.6532 30.0634 29.9998 29.3934 29.9998 28.3334V15M18.3332 35C17.9265 35 17.5465 34.8134 16.7898 34.4334L10.7065 31.4067C8.01317 30.0634 6.6665 29.3934 6.6665 28.3334V15M18.3332 35V21.6667M29.9998 15C29.9998 13.94 28.6532 13.2667 25.9598 11.9267L19.8765 8.90004C19.1198 8.52337 18.7432 8.33337 18.3332 8.33337C17.9265 8.33337 17.5465 8.52337 16.7898 8.90004L10.7065 11.9267C8.01317 13.27 6.6665 13.94 6.6665 15M29.9998 15C29.9998 16.06 28.6532 16.7334 25.9598 18.0734L19.8765 21.1C19.1198 21.4767 18.7432 21.6667 18.3332 21.6667M6.6665 15C6.6665 16.06 8.01317 16.7334 10.7065 18.0734L16.7898 21.1C17.5465 21.4767 17.9232 21.6667 18.3332 21.6667M61.6665 35C62.0732 35 62.4532 34.8134 63.2098 34.4334L69.2932 31.4067C71.9865 30.0634 73.3332 29.3934 73.3332 28.3334V15M61.6665 35C61.2598 35 60.8798 34.8134 60.1232 34.4334L54.0398 31.4067C51.3465 30.0634 49.9998 29.3934 49.9998 28.3334V15M61.6665 35V21.6667M73.3332 15C73.3332 13.94 71.9865 13.2667 69.2932 11.9267L63.2098 8.90004C62.4532 8.52337 62.0765 8.33337 61.6665 8.33337C61.2598 8.33337 60.8798 8.52337 60.1232 8.90004L54.0398 11.9267C51.3465 13.27 49.9998 13.94 49.9998 15M73.3332 15C73.3332 16.06 71.9865 16.7334 69.2932 18.0734L63.2098 21.1C62.4532 21.4767 62.0765 21.6667 61.6665 21.6667M49.9998 15C49.9998 16.06 51.3465 16.7334 54.0398 18.0734L60.1232 21.1C60.8798 21.4767 61.2565 21.6667 61.6665 21.6667" stroke="black" stroke-width="5" stroke-linejoin="round"/>
<path d="M38.3332 21.6665H41.6665M6.6665 41.6665V53.3332C6.6665 58.0132 6.6665 60.3565 7.78984 62.0365C8.27636 62.7647 8.9016 63.39 9.62984 63.8765C11.3098 64.9998 13.6498 64.9998 18.3298 64.9998M73.3332 41.6665V53.3332C73.3332 58.0132 73.3332 60.3565 72.2098 62.0365C71.7233 62.7647 71.0981 63.39 70.3698 63.8765C68.6898 64.9998 66.3465 64.9998 61.6665 64.9998M34.1665 56.4365C34.7487 56.4298 35.3965 56.4276 36.1098 56.4298H43.8898C44.6009 56.4298 45.2487 56.4321 45.8332 56.4365M34.1665 56.4365C31.7565 56.4698 30.3898 56.6465 29.4732 57.5432C28.3332 58.6598 28.3332 60.4565 28.3332 64.0465C28.3332 67.6398 28.3332 69.4365 29.4732 70.5498C30.6098 71.6665 32.4432 71.6665 36.1098 71.6665H43.8898C47.5565 71.6665 49.3898 71.6665 50.5265 70.5498C51.6665 69.4365 51.6665 67.6398 51.6665 64.0498C51.6665 60.4565 51.6665 58.6598 50.5265 57.5432C49.6098 56.6432 48.2432 56.4698 45.8332 56.4365M34.1665 56.4365V50.7132C34.1665 47.5565 36.7765 44.9998 39.9998 44.9998C43.2198 44.9998 45.8332 47.5598 45.8332 50.7132V56.4365" stroke="black" stroke-width="5" stroke-linecap="round"/>
</svg>
