<svg width="106" height="39" viewBox="0 0 106 39" fill="none" xmlns="http://www.w3.org/2000/svg">
<path d="M33.3226 20.9841C30.1801 20.9841 27.3689 19.4158 25.7976 16.7845C24.2263 14.156 24.2263 11.0166 25.7976 8.38806L30.38 0.717773L33.3484 2.37442L28.7659 10.0447C27.8146 11.6379 27.8146 13.5375 28.7659 15.1279C29.7173 16.721 31.42 17.6708 33.3226 17.6708H42.4875V20.9841H33.3226Z" fill="#EDBAFF"/>
<path d="M12.1075 37.9372L9.13917 36.2806L13.7216 28.6103C14.673 27.0172 14.673 25.1175 13.7216 23.5272C12.7703 21.9368 11.0676 20.9842 9.16489 20.9842H0V17.6709H9.16489C12.3075 17.6709 15.1186 19.2392 16.6899 21.8705C18.2612 24.4991 18.2612 27.6384 16.6899 30.267L12.1075 37.9372Z" fill="#EDBAFF"/>
<path d="M21.2437 14.2443C18.1011 14.2443 15.29 12.6733 13.7187 10.0447L9.13623 2.37442L12.1045 0.717773L16.687 8.38806C17.6383 9.9812 19.341 10.931 21.2437 10.931C23.1464 10.931 24.8491 9.9812 25.8004 8.38806L30.3829 0.717773L33.3512 2.37442L28.7687 10.0447C27.1975 12.6733 24.3863 14.2443 21.2437 14.2443Z" fill="#FAD100"/>
<path d="M30.3829 37.9369L25.8004 30.2667C24.8491 28.6735 23.1464 27.7237 21.2437 27.7237C19.341 27.7237 17.6383 28.6735 16.687 30.2667L12.1045 37.9369L9.13623 36.2803L13.7187 28.61C15.29 25.9815 18.1011 24.4104 21.2437 24.4104C24.3863 24.4104 27.1975 25.9815 28.7687 28.61L33.3512 36.2803L30.3829 37.9369Z" fill="#FAD100"/>
<path d="M9.16489 20.9841H0V17.6708H9.16489C11.0676 17.6708 12.7703 16.721 13.7216 15.1279C14.673 13.5375 14.673 11.6351 13.7216 10.0447L9.13917 2.37442L12.1075 0.717773L16.6899 8.38806C18.2612 11.0166 18.2612 14.156 16.6899 16.7845C15.1186 19.4131 12.3075 20.9841 9.16489 20.9841Z" fill="#FC593D"/>
<path d="M30.38 37.937L25.7976 30.2667C24.2263 27.6382 24.2263 24.4988 25.7976 21.8703C27.3689 19.2417 30.1801 17.6707 33.3226 17.6707H42.4875V20.984H33.3226C31.42 20.984 29.7173 21.9338 28.7659 23.5269C27.8146 25.1201 27.8146 27.0197 28.7659 28.6101L33.3484 36.2803L30.38 37.937Z" fill="#FC593D"/>
<path d="M23.6433 2.31931C23.6433 3.60045 22.5691 4.63862 21.2435 4.63862C19.9179 4.63862 18.8438 3.60045 18.8438 2.31931C18.8438 1.03817 19.9179 0 21.2435 0C22.5691 0 23.6433 1.03817 23.6433 2.31931Z" fill="#FAD100"/>
<path d="M18.8438 36.3357C18.8438 35.0545 19.9179 34.0164 21.2435 34.0164C22.5691 34.0164 23.6433 35.0545 23.6433 36.3357C23.6433 37.6168 22.5691 38.655 21.2435 38.655C19.9179 38.655 18.8438 37.6168 18.8438 36.3357Z" fill="#FAD100"/>
<path d="M4.80233 25.8242C5.95079 25.1836 7.41638 25.5647 8.07917 26.6719C8.74197 27.7818 8.34772 29.1983 7.20211 29.8388C6.05364 30.4794 4.5852 30.0984 3.92241 28.9912C3.25961 27.8812 3.65386 26.4648 4.79947 25.8242" fill="#EDBAFF"/>
<path d="M4.80233 12.8305C5.95079 13.4711 7.41638 13.0901 8.07917 11.9829C8.74197 10.8729 8.34772 9.45648 7.20211 8.81591C6.05364 8.17534 4.5852 8.55637 3.92241 9.66356C3.25961 10.7735 3.65386 12.19 4.79947 12.8305" fill="#FC593D"/>
<path d="M37.6851 12.8305C36.5366 13.4711 35.071 13.0901 34.4082 11.9829C33.7454 10.8729 34.1397 9.45648 35.2853 8.81591C36.4338 8.17534 37.9022 8.55637 38.565 9.66356C39.2278 10.7735 38.8336 12.19 37.6879 12.8305" fill="#EDBAFF"/>
<path d="M37.6851 25.8242C36.5366 25.1836 35.071 25.5647 34.4082 26.6719C33.7454 27.7818 34.1397 29.1983 35.2853 29.8388C36.4338 30.4794 37.9022 30.0984 38.565 28.9912C39.2278 27.8812 38.8336 26.4648 37.6879 25.8242" fill="#FC593D"/>
<path d="M53.5409 11.3454C53.3152 11.0362 53.1152 10.8153 52.9324 10.6855C52.7524 10.5557 52.5581 10.4619 52.3496 10.4066C52.141 10.3514 51.9239 10.3238 51.6954 10.3238C51.3582 10.3238 51.0468 10.3956 50.7583 10.5419C50.4698 10.6883 50.2212 10.8843 50.0098 11.1356C49.7984 11.3841 49.6327 11.6767 49.5127 12.0081C49.3927 12.3394 49.3327 12.69 49.3327 13.0628C49.3327 13.4355 49.3927 13.7917 49.5098 14.123C49.627 14.4544 49.7927 14.7443 50.0012 14.9928C50.2098 15.2413 50.4583 15.4373 50.7469 15.5837C51.0354 15.73 51.3525 15.8018 51.6954 15.8018C51.9353 15.8018 52.161 15.7631 52.3696 15.6886C52.5781 15.614 52.7667 15.5146 52.9381 15.3904C53.1095 15.2661 53.2581 15.1253 53.3866 14.9624C53.5152 14.8023 53.6152 14.6338 53.6866 14.4599L55.6236 14.9817C55.4979 15.3628 55.3179 15.7134 55.0779 16.0365C54.8379 16.3595 54.5465 16.6412 54.2094 16.8758C53.8694 17.1133 53.4895 17.2983 53.0667 17.4336C52.6438 17.5689 52.1867 17.6379 51.6982 17.6379C51.284 17.6379 50.8897 17.5827 50.5126 17.475C50.1355 17.3673 49.7841 17.2127 49.4584 17.0167C49.1327 16.8179 48.8356 16.5804 48.5699 16.3015C48.3042 16.0227 48.0757 15.7134 47.8871 15.3738C47.6986 15.0342 47.5529 14.6697 47.4472 14.2804C47.3443 13.8911 47.29 13.4852 47.29 13.0628C47.29 12.4305 47.4043 11.8396 47.6329 11.2874C47.8614 10.7352 48.1728 10.252 48.5699 9.84061C48.967 9.42921 49.4327 9.1034 49.9669 8.86595C50.5012 8.62849 51.0783 8.50977 51.6954 8.50977C52.1896 8.50977 52.6038 8.56775 52.941 8.68647C53.2781 8.8052 53.6495 9.03713 54.0523 9.38503H55.3979V11.3482H53.5409V11.3454Z" fill="white"/>
<path d="M62.217 15.8819H63.1255L62.7169 14.6146H59.9143L59.5058 15.8819H60.4686V17.4751H57.0117V15.8819H57.6917L60.1743 8.66724H62.5855L65.0139 15.8819H65.6738V17.4751H62.217V15.8819ZM60.3886 13.1291H62.2284L61.3028 10.2659L60.3886 13.1291Z" fill="white"/>
<path d="M72.8649 8.66707H76.3274V10.2657H75.5875V17.4749H73.5905L69.7966 11.7816V15.8845H70.5594V17.4777H67.1025V15.8845H67.8539V10.2657H67.114V8.66707H69.868L73.6362 14.435V10.263H72.862V8.66431L72.8649 8.66707Z" fill="white"/>
<path d="M83.8983 11.3454C83.6726 11.0362 83.4726 10.8153 83.2898 10.6855C83.1098 10.5557 82.9156 10.4619 82.707 10.4066C82.4984 10.3514 82.2813 10.3238 82.0528 10.3238C81.7157 10.3238 81.4043 10.3956 81.1157 10.5419C80.8272 10.6883 80.5786 10.8843 80.3672 11.1356C80.1558 11.3841 79.9901 11.6767 79.8701 12.0081C79.7501 12.3394 79.6901 12.69 79.6901 13.0628C79.6901 13.4355 79.7501 13.7917 79.8673 14.123C79.9844 14.4544 80.1501 14.7443 80.3586 14.9928C80.5672 15.2413 80.8157 15.4373 81.1043 15.5837C81.3928 15.73 81.7099 15.8018 82.0528 15.8018C82.2928 15.8018 82.5184 15.7631 82.727 15.6886C82.9356 15.614 83.1241 15.5146 83.2955 15.3904C83.4669 15.2661 83.6155 15.1253 83.7441 14.9624C83.8726 14.8023 83.9726 14.6338 84.044 14.4599L85.981 14.9817C85.8553 15.3628 85.6753 15.7134 85.4353 16.0365C85.1953 16.3595 84.9039 16.6412 84.5668 16.8758C84.2269 17.1133 83.8469 17.2983 83.4241 17.4336C83.0013 17.5689 82.5442 17.6379 82.0556 17.6379C81.6414 17.6379 81.2471 17.5827 80.87 17.475C80.4929 17.3673 80.1415 17.2127 79.8158 17.0167C79.4902 16.8179 79.193 16.5804 78.9273 16.3015C78.6616 16.0227 78.4331 15.7134 78.2445 15.3738C78.056 15.0342 77.9103 14.6697 77.8046 14.2804C77.7017 13.8911 77.6475 13.4852 77.6475 13.0628C77.6475 12.4305 77.7617 11.8396 77.9903 11.2874C78.2188 10.7352 78.5302 10.252 78.9273 9.84061C79.3244 9.42921 79.7901 9.1034 80.3244 8.86595C80.8586 8.62849 81.4357 8.50977 82.0528 8.50977C82.547 8.50977 82.9613 8.56775 83.2984 8.68647C83.6355 8.8052 84.0069 9.03713 84.4097 9.38503H85.7553V11.3482H83.8983V11.3454Z" fill="white"/>
<path d="M87.8862 8.66724H95.137V11.6713H93.1772V10.4233H90.8374V12.16H92.6458V13.8443H90.8374V15.8847H93.1772V14.3219H95.137V17.4778H87.8862V15.8847H88.8433V10.4233H87.8862V8.67V8.66724Z" fill="white"/>
<path d="M96.7969 8.66724H101.619C102.088 8.66724 102.508 8.73626 102.876 8.87156C103.245 9.00685 103.556 9.18908 103.808 9.41549C104.059 9.6419 104.253 9.9042 104.388 10.2052C104.522 10.5061 104.59 10.8181 104.59 11.1439C104.59 11.4421 104.556 11.7044 104.49 11.9281C104.425 12.1517 104.328 12.3533 104.202 12.5272C104.076 12.7012 103.919 12.8558 103.736 12.9883C103.551 13.1209 103.342 13.2423 103.105 13.3528C103.311 13.455 103.491 13.6068 103.645 13.8139C103.802 14.021 103.919 14.2888 103.999 14.6174L104.305 15.7632H105.056L105.068 17.4778H102.422L102.062 15.3877C102.025 15.1392 101.971 14.9266 101.896 14.7444C101.822 14.5649 101.722 14.4186 101.599 14.3026C101.474 14.1894 101.325 14.1038 101.145 14.0486C100.968 13.9934 100.757 13.9685 100.511 13.9685H99.7366V15.8847H100.571V17.4778H96.7969V15.8847H97.7396V10.2659H96.7969V8.66724ZM99.7366 10.2631V12.3947H100.934C101.162 12.3947 101.368 12.3754 101.551 12.334C101.734 12.2925 101.891 12.229 102.019 12.1434C102.151 12.0551 102.251 11.9474 102.319 11.8149C102.391 11.6823 102.425 11.5277 102.425 11.3455C102.425 11.0059 102.299 10.738 102.045 10.5503C101.794 10.3598 101.422 10.2659 100.934 10.2659H99.7366V10.2631Z" fill="white"/>
<path d="M47.7529 21.1692H51.1441C51.5612 21.1692 51.9583 21.2216 52.3354 21.3266C52.7125 21.4315 53.0639 21.5778 53.3867 21.7683C53.7124 21.9589 54.0067 22.1853 54.2695 22.4503C54.5323 22.7154 54.7609 23.0108 54.9466 23.3366C55.1323 23.6624 55.2751 24.0103 55.3751 24.3859C55.4751 24.7586 55.5265 25.1479 55.5265 25.551C55.5265 25.9541 55.4751 26.3545 55.3751 26.73C55.2751 27.1055 55.1323 27.4589 54.9466 27.7875C54.7609 28.1161 54.5352 28.417 54.2695 28.6849C54.0038 28.9554 53.7095 29.1846 53.3867 29.3751C53.061 29.5656 52.7125 29.7147 52.3354 29.8197C51.9583 29.9246 51.5612 29.977 51.1441 29.977H47.7529V28.9775H48.6186V22.1742H47.7529V21.1692ZM49.7956 22.1742V28.9775H51.2155C51.6354 28.9775 52.0325 28.8892 52.4039 28.7097C52.7753 28.533 53.0982 28.2873 53.3753 27.9808C53.6524 27.6715 53.8695 27.3098 54.0295 26.8929C54.1895 26.476 54.2695 26.0287 54.2695 25.5483C54.2695 25.0678 54.1895 24.6343 54.0295 24.2229C53.8695 23.8115 53.6495 23.4554 53.3753 23.1516C53.0982 22.8479 52.7753 22.6077 52.4039 22.4338C52.0325 22.2598 51.6383 22.1715 51.2155 22.1715H49.7956V22.1742Z" fill="white"/>
<path d="M62.8173 28.9775H63.5744L62.8545 26.9785H59.3491L58.6463 28.9775H59.5833V29.977H56.6265V28.9775H57.4207L60.2576 21.1692H62.0317L64.8629 28.9775H65.7771V29.977H62.8202V28.9775H62.8173ZM59.6919 26.0149H62.5059L61.0861 22.0748L59.6919 26.0149Z" fill="white"/>
<path d="M71.2538 30.151C70.6253 30.151 70.0482 30.0378 69.5283 29.8114C69.0083 29.585 68.5427 29.262 68.1341 28.845C67.7256 28.4281 67.4142 27.9311 67.2028 27.3568C66.9914 26.7825 66.8828 26.1889 66.8828 25.5732C66.8828 24.9574 66.9914 24.3417 67.2056 23.784C67.4199 23.2262 67.7199 22.7403 68.1084 22.3289C68.4941 21.9175 68.9569 21.5917 69.4911 21.3542C70.0254 21.1168 70.6139 20.998 71.2567 20.998C71.8995 20.998 72.4937 21.1168 73.0308 21.3542C73.5679 21.5917 74.0279 21.9175 74.4136 22.3289C74.7992 22.7403 75.0964 23.2262 75.3106 23.784C75.522 24.3417 75.6306 24.9381 75.6306 25.5732C75.6306 26.2082 75.522 26.8046 75.3078 27.3596C75.0935 27.9146 74.7935 28.4005 74.405 28.8147C74.0193 29.2288 73.5565 29.5546 73.0223 29.7949C72.488 30.0323 71.8995 30.151 71.2567 30.151H71.2538ZM71.2538 29.0714C71.7309 29.0714 72.1623 28.9776 72.548 28.7871C72.9337 28.5965 73.2651 28.3425 73.5365 28.0222C73.8079 27.702 74.0193 27.332 74.1679 26.9095C74.3164 26.4871 74.3907 26.0425 74.3907 25.5732C74.3907 25.1038 74.3107 24.6289 74.1479 24.1816C73.985 23.7343 73.7593 23.356 73.4679 23.0468C73.1765 22.7375 72.8394 22.4973 72.4537 22.3289C72.0681 22.1605 71.6681 22.0749 71.251 22.0749C70.7739 22.0749 70.3425 22.1687 69.954 22.3593C69.5654 22.5498 69.234 22.8038 68.9626 23.1241C68.6912 23.4444 68.4798 23.8143 68.3313 24.2396C68.1827 24.6648 68.1084 25.1093 68.1084 25.5732C68.1084 26.1143 68.1913 26.5975 68.3541 27.0227C68.5169 27.4479 68.7369 27.7986 69.0055 28.0802C69.2769 28.3619 69.5997 28.5965 69.974 28.7871C70.3482 28.9776 70.7739 29.0714 71.251 29.0714H71.2538Z" fill="white"/>
</svg>
