<svg width="106" height="39" viewBox="0 0 106 39" fill="none" xmlns="http://www.w3.org/2000/svg">
<path d="M33.3226 20.9842C30.1801 20.9842 27.3689 19.4159 25.7976 16.7846C24.2263 14.156 24.2263 11.0167 25.7976 8.38812L30.38 0.717836L33.3484 2.37449L28.7659 10.0448C27.8146 11.6379 27.8146 13.5375 28.7659 15.1279C29.7173 16.7211 31.42 17.6709 33.3226 17.6709H42.4875V20.9842H33.3226Z" fill="#EDBAFF"/>
<path d="M12.1075 37.9373L9.13917 36.2807L13.7216 28.6104C14.673 27.0173 14.673 25.1176 13.7216 23.5272C12.7703 21.9369 11.0676 20.9843 9.16489 20.9843H0V17.671H9.16489C12.3075 17.671 15.1186 19.2393 16.6899 21.8706C18.2612 24.4991 18.2612 27.6385 16.6899 30.267L12.1075 37.9373Z" fill="#EDBAFF"/>
<path d="M21.2437 14.2444C18.1011 14.2444 15.29 12.6733 13.7187 10.0448L9.13623 2.37449L12.1045 0.717836L16.687 8.38812C17.6383 9.98127 19.341 10.9311 21.2437 10.9311C23.1464 10.9311 24.8491 9.98127 25.8004 8.38812L30.3829 0.717836L33.3512 2.37449L28.7687 10.0448C27.1975 12.6733 24.3863 14.2444 21.2437 14.2444Z" fill="#FAD100"/>
<path d="M30.3829 37.9372L25.8004 30.2669C24.8491 28.6737 23.1464 27.7239 21.2437 27.7239C19.341 27.7239 17.6383 28.6737 16.687 30.2669L12.1045 37.9372L9.13623 36.2805L13.7187 28.6102C15.29 25.9817 18.1011 24.4106 21.2437 24.4106C24.3863 24.4106 27.1975 25.9817 28.7687 28.6102L33.3512 36.2805L30.3829 37.9372Z" fill="#FAD100"/>
<path d="M9.16489 20.9842H0V17.6709H9.16489C11.0676 17.6709 12.7703 16.7211 13.7216 15.1279C14.673 13.5375 14.673 11.6352 13.7216 10.0448L9.13917 2.37449L12.1075 0.717836L16.6899 8.38812C18.2612 11.0167 18.2612 14.156 16.6899 16.7846C15.1186 19.4131 12.3075 20.9842 9.16489 20.9842Z" fill="#FC593D"/>
<path d="M30.38 37.9372L25.7976 30.2669C24.2263 27.6384 24.2263 24.499 25.7976 21.8705C27.3689 19.2419 30.1801 17.6708 33.3226 17.6708H42.4875V20.9841H33.3226C31.42 20.9841 29.7173 21.934 28.7659 23.5271C27.8146 25.1202 27.8146 27.0199 28.7659 28.6103L33.3484 36.2805L30.38 37.9372Z" fill="#FC593D"/>
<path d="M23.6433 2.31931C23.6433 3.60045 22.5691 4.63862 21.2435 4.63862C19.9179 4.63862 18.8438 3.60045 18.8438 2.31931C18.8438 1.03817 19.9179 0 21.2435 0C22.5691 0 23.6433 1.03817 23.6433 2.31931Z" fill="#FAD100"/>
<path d="M18.8438 36.3359C18.8438 35.0548 19.9179 34.0166 21.2435 34.0166C22.5691 34.0166 23.6433 35.0548 23.6433 36.3359C23.6433 37.617 22.5691 38.6552 21.2435 38.6552C19.9179 38.6552 18.8438 37.617 18.8438 36.3359Z" fill="#FAD100"/>
<path d="M4.80233 25.8244C5.95079 25.1838 7.41638 25.5649 8.07917 26.6721C8.74197 27.782 8.34772 29.1985 7.20211 29.839C6.05364 30.4796 4.5852 30.0986 3.92241 28.9914C3.25961 27.8814 3.65386 26.465 4.79947 25.8244" fill="#EDBAFF"/>
<path d="M4.80233 12.8306C5.95079 13.4712 7.41638 13.0901 8.07917 11.983C8.74197 10.873 8.34772 9.45656 7.20211 8.81599C6.05364 8.17542 4.5852 8.55645 3.92241 9.66364C3.25961 10.7736 3.65386 12.19 4.79947 12.8306" fill="#FC593D"/>
<path d="M37.6851 12.8306C36.5366 13.4712 35.071 13.0901 34.4082 11.983C33.7454 10.873 34.1397 9.45656 35.2853 8.81599C36.4338 8.17542 37.9022 8.55645 38.565 9.66364C39.2278 10.7736 38.8336 12.19 37.6879 12.8306" fill="#EDBAFF"/>
<path d="M37.6851 25.8244C36.5366 25.1838 35.071 25.5649 34.4082 26.6721C33.7454 27.782 34.1397 29.1985 35.2853 29.839C36.4338 30.4796 37.9022 30.0986 38.565 28.9914C39.2278 27.8814 38.8336 26.465 37.6879 25.8244" fill="#FC593D"/>
<path d="M53.5409 11.3454C53.3152 11.0361 53.1152 10.8152 52.9324 10.6855C52.7524 10.5557 52.5581 10.4618 52.3496 10.4066C52.141 10.3514 51.9239 10.3238 51.6954 10.3238C51.3582 10.3238 51.0468 10.3956 50.7583 10.5419C50.4698 10.6882 50.2212 10.8843 50.0098 11.1355C49.7984 11.384 49.6327 11.6767 49.5127 12.008C49.3927 12.3394 49.3327 12.69 49.3327 13.0628C49.3327 13.4355 49.3927 13.7917 49.5098 14.123C49.627 14.4543 49.7927 14.7443 50.0012 14.9928C50.2098 15.2413 50.4583 15.4373 50.7469 15.5836C51.0354 15.73 51.3525 15.8018 51.6954 15.8018C51.9353 15.8018 52.161 15.7631 52.3696 15.6885C52.5781 15.614 52.7667 15.5146 52.9381 15.3904C53.1095 15.2661 53.2581 15.1253 53.3866 14.9624C53.5152 14.8022 53.6152 14.6338 53.6866 14.4599L55.6236 14.9817C55.4979 15.3627 55.3179 15.7134 55.0779 16.0364C54.8379 16.3595 54.5465 16.6411 54.2094 16.8758C53.8694 17.1133 53.4895 17.2983 53.0667 17.4335C52.6438 17.5688 52.1867 17.6379 51.6982 17.6379C51.284 17.6379 50.8897 17.5826 50.5126 17.475C50.1355 17.3673 49.7841 17.2127 49.4584 17.0166C49.1327 16.8178 48.8356 16.5804 48.5699 16.3015C48.3042 16.0226 48.0757 15.7134 47.8871 15.3738C47.6986 15.0342 47.5529 14.6697 47.4472 14.2804C47.3443 13.8911 47.29 13.4852 47.29 13.0628C47.29 12.4305 47.4043 11.8396 47.6329 11.2874C47.8614 10.7352 48.1728 10.252 48.5699 9.84057C48.967 9.42917 49.4327 9.10337 49.9669 8.86591C50.5012 8.62846 51.0783 8.50973 51.6954 8.50973C52.1896 8.50973 52.6038 8.56772 52.941 8.68644C53.2781 8.80517 53.6495 9.0371 54.0523 9.385H55.3979V11.3481H53.5409V11.3454Z" fill="black"/>
<path d="M62.217 15.8818H63.1255L62.7169 14.6145H59.9143L59.5058 15.8818H60.4686V17.4749H57.0117V15.8818H57.6917L60.1743 8.6671H62.5855L65.0139 15.8818H65.6738V17.4749H62.217V15.8818ZM60.3886 13.129H62.2284L61.3028 10.2658L60.3886 13.129Z" fill="black"/>
<path d="M72.8649 8.66714H76.3274V10.2658H75.5875V17.475H73.5905L69.7966 11.7816V15.8846H70.5594V17.4777H67.1025V15.8846H67.8539V10.2658H67.114V8.66714H69.868L73.6362 14.435V10.263H72.862V8.66438L72.8649 8.66714Z" fill="black"/>
<path d="M83.8983 11.3454C83.6726 11.0361 83.4726 10.8152 83.2898 10.6855C83.1098 10.5557 82.9156 10.4618 82.707 10.4066C82.4984 10.3514 82.2813 10.3238 82.0528 10.3238C81.7157 10.3238 81.4043 10.3956 81.1157 10.5419C80.8272 10.6882 80.5786 10.8843 80.3672 11.1355C80.1558 11.384 79.9901 11.6767 79.8701 12.008C79.7501 12.3394 79.6901 12.69 79.6901 13.0628C79.6901 13.4355 79.7501 13.7917 79.8673 14.123C79.9844 14.4543 80.1501 14.7443 80.3586 14.9928C80.5672 15.2413 80.8157 15.4373 81.1043 15.5836C81.3928 15.73 81.7099 15.8018 82.0528 15.8018C82.2928 15.8018 82.5184 15.7631 82.727 15.6885C82.9356 15.614 83.1241 15.5146 83.2955 15.3904C83.4669 15.2661 83.6155 15.1253 83.7441 14.9624C83.8726 14.8022 83.9726 14.6338 84.044 14.4599L85.981 14.9817C85.8553 15.3627 85.6753 15.7134 85.4353 16.0364C85.1953 16.3595 84.9039 16.6411 84.5668 16.8758C84.2269 17.1133 83.8469 17.2983 83.4241 17.4335C83.0013 17.5688 82.5442 17.6379 82.0556 17.6379C81.6414 17.6379 81.2471 17.5826 80.87 17.475C80.4929 17.3673 80.1415 17.2127 79.8158 17.0166C79.4902 16.8178 79.193 16.5804 78.9273 16.3015C78.6616 16.0226 78.4331 15.7134 78.2445 15.3738C78.056 15.0342 77.9103 14.6697 77.8046 14.2804C77.7017 13.8911 77.6475 13.4852 77.6475 13.0628C77.6475 12.4305 77.7617 11.8396 77.9903 11.2874C78.2188 10.7352 78.5302 10.252 78.9273 9.84057C79.3244 9.42917 79.7901 9.10337 80.3244 8.86591C80.8586 8.62846 81.4357 8.50973 82.0528 8.50973C82.547 8.50973 82.9613 8.56772 83.2984 8.68644C83.6355 8.80517 84.0069 9.0371 84.4097 9.385H85.7553V11.3481H83.8983V11.3454Z" fill="black"/>
<path d="M87.8862 8.6671H95.137V11.6712H93.1772V10.4231H90.8374V12.1599H92.6458V13.8441H90.8374V15.8846H93.1772V14.3218H95.137V17.4777H87.8862V15.8846H88.8433V10.4231H87.8862V8.66986V8.6671Z" fill="black"/>
<path d="M96.7969 8.6671H101.619C102.088 8.6671 102.508 8.73612 102.876 8.87142C103.245 9.00671 103.556 9.18894 103.808 9.41535C104.059 9.64176 104.253 9.90406 104.388 10.205C104.522 10.506 104.59 10.818 104.59 11.1438C104.59 11.442 104.556 11.7043 104.49 11.9279C104.425 12.1516 104.328 12.3531 104.202 12.5271C104.076 12.701 103.919 12.8557 103.736 12.9882C103.551 13.1207 103.342 13.2422 103.105 13.3527C103.311 13.4548 103.491 13.6067 103.645 13.8138C103.802 14.0208 103.919 14.2887 103.999 14.6172L104.305 15.7631H105.056L105.068 17.4777H102.422L102.062 15.3876C102.025 15.1391 101.971 14.9265 101.896 14.7442C101.822 14.5648 101.722 14.4184 101.599 14.3025C101.474 14.1893 101.325 14.1037 101.145 14.0484C100.968 13.9932 100.757 13.9684 100.511 13.9684H99.7366V15.8846H100.571V17.4777H96.7969V15.8846H97.7396V10.2658H96.7969V8.6671ZM99.7366 10.263V12.3946H100.934C101.162 12.3946 101.368 12.3752 101.551 12.3338C101.734 12.2924 101.891 12.2289 102.019 12.1433C102.151 12.0549 102.251 11.9473 102.319 11.8147C102.391 11.6822 102.425 11.5276 102.425 11.3453C102.425 11.0057 102.299 10.7379 102.045 10.5502C101.794 10.3596 101.422 10.2658 100.934 10.2658H99.7366V10.263Z" fill="black"/>
<path d="M47.7529 21.1692H51.1441C51.5612 21.1692 51.9583 21.2216 52.3354 21.3266C52.7125 21.4315 53.0639 21.5778 53.3867 21.7683C53.7124 21.9588 54.0067 22.1853 54.2695 22.4503C54.5323 22.7154 54.7609 23.0108 54.9466 23.3366C55.1323 23.6624 55.2751 24.0103 55.3751 24.3858C55.4751 24.7586 55.5265 25.1479 55.5265 25.551C55.5265 25.9541 55.4751 26.3545 55.3751 26.73C55.2751 27.1055 55.1323 27.4589 54.9466 27.7875C54.7609 28.1161 54.5352 28.417 54.2695 28.6848C54.0038 28.9554 53.7095 29.1846 53.3867 29.3751C53.061 29.5656 52.7125 29.7147 52.3354 29.8196C51.9583 29.9246 51.5612 29.977 51.1441 29.977H47.7529V28.9775H48.6186V22.1742H47.7529V21.1692ZM49.7956 22.1742V28.9775H51.2155C51.6354 28.9775 52.0325 28.8892 52.4039 28.7097C52.7753 28.533 53.0982 28.2872 53.3753 27.9808C53.6524 27.6715 53.8695 27.3098 54.0295 26.8929C54.1895 26.476 54.2695 26.0287 54.2695 25.5483C54.2695 25.0678 54.1895 24.6343 54.0295 24.2229C53.8695 23.8115 53.6495 23.4554 53.3753 23.1516C53.0982 22.8479 52.7753 22.6077 52.4039 22.4338C52.0325 22.2598 51.6383 22.1714 51.2155 22.1714H49.7956V22.1742Z" fill="black"/>
<path d="M62.8173 28.9775H63.5744L62.8545 26.9785H59.3491L58.6463 28.9775H59.5833V29.977H56.6265V28.9775H57.4207L60.2576 21.1692H62.0317L64.8629 28.9775H65.7771V29.977H62.8202V28.9775H62.8173ZM59.6919 26.0149H62.5059L61.0861 22.0748L59.6919 26.0149Z" fill="black"/>
<path d="M71.2538 30.151C70.6253 30.151 70.0482 30.0378 69.5283 29.8114C69.0083 29.585 68.5427 29.2619 68.1341 28.845C67.7256 28.4281 67.4142 27.9311 67.2028 27.3568C66.9914 26.7825 66.8828 26.1889 66.8828 25.5731C66.8828 24.9574 66.9914 24.3417 67.2056 23.784C67.4199 23.2262 67.7199 22.7403 68.1084 22.3289C68.4941 21.9175 68.9569 21.5917 69.4911 21.3542C70.0254 21.1167 70.6139 20.998 71.2567 20.998C71.8995 20.998 72.4937 21.1167 73.0308 21.3542C73.5679 21.5917 74.0279 21.9175 74.4136 22.3289C74.7992 22.7403 75.0964 23.2262 75.3106 23.784C75.522 24.3417 75.6306 24.9381 75.6306 25.5731C75.6306 26.2082 75.522 26.8046 75.3078 27.3596C75.0935 27.9145 74.7935 28.4005 74.405 28.8146C74.0193 29.2288 73.5565 29.5546 73.0223 29.7948C72.488 30.0323 71.8995 30.151 71.2567 30.151H71.2538ZM71.2538 29.0714C71.7309 29.0714 72.1623 28.9775 72.548 28.787C72.9337 28.5965 73.2651 28.3425 73.5365 28.0222C73.8079 27.7019 74.0193 27.3319 74.1679 26.9095C74.3164 26.487 74.3907 26.0425 74.3907 25.5731C74.3907 25.1037 74.3107 24.6288 74.1479 24.1815C73.985 23.7343 73.7593 23.356 73.4679 23.0467C73.1765 22.7375 72.8394 22.4973 72.4537 22.3289C72.0681 22.1604 71.6681 22.0748 71.251 22.0748C70.7739 22.0748 70.3425 22.1687 69.954 22.3592C69.5654 22.5497 69.234 22.8038 68.9626 23.1241C68.6912 23.4443 68.4798 23.8143 68.3313 24.2395C68.1827 24.6647 68.1084 25.1093 68.1084 25.5731C68.1084 26.1143 68.1913 26.5975 68.3541 27.0227C68.5169 27.4479 68.7369 27.7986 69.0055 28.0802C69.2769 28.3618 69.5997 28.5965 69.974 28.787C70.3482 28.9775 70.7739 29.0714 71.251 29.0714H71.2538Z" fill="black"/>
</svg>
