<svg width="80" height="80" viewBox="0 0 80 80" fill="none" xmlns="http://www.w3.org/2000/svg">
<path d="M30.357 18.16C32.3504 12.3266 40.4104 12.15 42.7737 17.63L42.9737 18.1633L45.6637 26.03C46.2802 27.8341 47.2764 29.485 48.5851 30.8714C49.8939 32.2577 51.4847 33.3473 53.2504 34.0666L53.9737 34.3366L61.8404 37.0233C67.6737 39.0166 67.8504 47.0766 62.3737 49.44L61.8404 49.64L53.9737 52.33C52.169 52.946 50.5174 53.9421 49.1304 55.2508C47.7434 56.5596 46.6533 58.1507 45.9337 59.9166L45.6637 60.6366L42.977 68.5066C40.9837 74.34 32.9237 74.5166 30.5637 69.04L30.357 68.5066L27.6703 60.64C27.0543 58.8352 26.0583 57.1837 24.7495 55.7967C23.4407 54.4097 21.8497 53.3196 20.0837 52.6L19.3637 52.33L11.497 49.6433C5.66035 47.65 5.48368 39.59 10.9637 37.23L11.497 37.0233L19.3637 34.3366C21.1678 33.7201 22.8187 32.7239 24.2051 31.4152C25.5915 30.1064 26.6811 28.5156 27.4004 26.75L27.6703 26.03L30.357 18.16ZM36.667 20.3133L33.9804 28.18C33.0417 30.931 31.5146 33.4443 29.5055 35.5449C27.4964 37.6456 25.0535 39.283 22.347 40.3433L21.5137 40.6466L13.647 43.3333L21.5137 46.02C24.2647 46.9587 26.778 48.4857 28.8787 50.4948C30.9793 52.504 32.6168 54.9468 33.677 57.6533L33.9804 58.4866L36.667 66.3533L39.3537 58.4866C40.2924 55.7356 41.8195 53.2223 43.8286 51.1216C45.8377 49.021 48.2805 47.3835 50.987 46.3233L51.8204 46.0233L59.687 43.3333L51.8204 40.6466C49.0693 39.7079 46.556 38.1809 44.4554 36.1717C42.3547 34.1626 40.7173 31.7198 39.657 29.0133L39.357 28.18L36.667 20.3133ZM63.3337 6.66663C63.9573 6.66663 64.5684 6.84155 65.0975 7.17153C65.6267 7.50151 66.0526 7.9733 66.327 8.53329L66.487 8.92329L67.6537 12.3433L71.077 13.51C71.702 13.7223 72.2498 14.1153 72.6511 14.6393C73.0524 15.1633 73.2891 15.7947 73.3313 16.4534C73.3734 17.112 73.219 17.7684 72.8877 18.3393C72.5565 18.9101 72.0632 19.3698 71.4704 19.66L71.077 19.82L67.657 20.9866L66.4904 24.41C66.2777 25.0347 65.8843 25.5823 65.3601 25.9833C64.8359 26.3842 64.2045 26.6206 63.5458 26.6624C62.8872 26.7041 62.2309 26.5494 61.6603 26.2179C61.0896 25.8863 60.6303 25.3929 60.3404 24.8L60.1804 24.41L59.0137 20.99L55.5904 19.8233C54.9654 19.611 54.4176 19.2179 54.0163 18.6939C53.6149 18.1699 53.3782 17.5386 53.3361 16.8799C53.294 16.2212 53.4483 15.5649 53.7796 14.994C54.1109 14.4231 54.6042 13.9635 55.197 13.6733L55.5904 13.5133L59.0103 12.3466L60.177 8.92329C60.4018 8.26471 60.827 7.69299 61.3931 7.28829C61.9592 6.88359 62.6378 6.66621 63.3337 6.66663Z" fill="black"/>
</svg>
