<svg width="46" height="45" viewBox="0 0 46 45" fill="none" xmlns="http://www.w3.org/2000/svg">
<path d="M17.7544 10.361C18.8618 7.12028 23.3396 7.02213 24.6526 10.0666L24.7637 10.3629L26.2581 14.7332C26.6006 15.7355 27.1541 16.6527 27.8812 17.4229C28.6082 18.1931 29.4921 18.7984 30.473 19.1981L30.8748 19.3481L35.2452 20.8406C38.4859 21.9481 38.5841 26.4258 35.5415 27.7388L35.2452 27.8499L30.8748 29.3444C29.8722 29.6866 28.9546 30.24 28.1841 30.9671C27.4136 31.6941 26.808 32.5781 26.4081 33.5592L26.2581 33.9592L24.7656 38.3314C23.6581 41.5721 19.1804 41.6703 17.8693 38.6277L17.7544 38.3314L16.2618 33.961C15.9196 32.9584 15.3662 32.0409 14.6391 31.2703C13.9121 30.4998 13.0281 29.8942 12.047 29.4944L11.647 29.3444L7.27666 27.8518C4.03407 26.7444 3.93592 22.2666 6.98037 20.9555L7.27666 20.8406L11.647 19.3481C12.6493 19.0056 13.5665 18.4521 14.3367 17.725C15.1069 16.998 15.7122 16.1141 16.1118 15.1332L16.2618 14.7332L17.7544 10.361ZM21.26 11.5573L19.7674 15.9277C19.2459 17.456 18.3975 18.8523 17.2814 20.0193C16.1652 21.1864 14.808 22.0961 13.3044 22.6851L12.8415 22.8536L8.47111 24.3462L12.8415 25.8388C14.3698 26.3603 15.7661 27.2087 16.9331 28.3248C18.1002 29.441 19.0099 30.7982 19.5989 32.3018L19.7674 32.7647L21.26 37.1351L22.7526 32.7647C23.2741 31.2364 24.1225 29.8401 25.2386 28.6731C26.3548 27.506 27.7119 26.5963 29.2156 26.0073L29.6785 25.8406L34.0489 24.3462L29.6785 22.8536C28.1502 22.3321 26.7539 21.4837 25.5869 20.3676C24.4198 19.2514 23.5101 17.8943 22.9211 16.3906L22.7544 15.9277L21.26 11.5573ZM36.0748 3.97583C36.4213 3.97583 36.7608 4.07301 37.0547 4.25633C37.3487 4.43965 37.5853 4.70176 37.7378 5.01287L37.8267 5.22953L38.4748 7.12953L40.3767 7.77768C40.7239 7.89564 41.0282 8.11401 41.2512 8.40512C41.4741 8.69623 41.6056 9.04698 41.629 9.41291C41.6524 9.77884 41.5667 10.1435 41.3826 10.4606C41.1986 10.7778 40.9245 11.0331 40.5952 11.1943L40.3767 11.2832L38.4767 11.9314L37.8285 13.8332C37.7104 14.1803 37.4918 14.4845 37.2006 14.7073C36.9094 14.9301 36.5586 15.0614 36.1927 15.0846C35.8267 15.1078 35.4622 15.0218 35.1451 14.8376C34.8281 14.6534 34.5729 14.3793 34.4118 14.0499L34.323 13.8332L33.6748 11.9332L31.773 11.2851C31.4258 11.1671 31.1214 10.9488 30.8985 10.6577C30.6755 10.3665 30.544 10.0158 30.5206 9.64987C30.4972 9.28394 30.5829 8.91929 30.767 8.60215C30.951 8.28501 31.2251 8.02965 31.5544 7.86842L31.773 7.77953L33.673 7.13139L34.3211 5.22953C34.446 4.86366 34.6822 4.54603 34.9967 4.3212C35.3112 4.09637 35.6882 3.9756 36.0748 3.97583Z" fill="black"/>
</svg>
