<svg width="80" height="81" viewBox="0 0 80 81" fill="none" xmlns="http://www.w3.org/2000/svg">
<path d="M33.3335 15.0668V43.8334H26.6668V14.0068L26.8068 13.5401C27.2168 12.1634 28.3068 9.82343 30.3502 7.7801C32.4668 5.65343 35.6502 3.83344 40.0002 3.83344C44.3535 3.83344 47.5302 5.65343 49.6502 7.7801C51.6935 9.82343 52.7835 12.1634 53.1935 13.5401L53.3335 14.0068V21.9568H46.6668V15.0668C46.2556 14.1069 45.6676 13.2328 44.9335 12.4901C43.8602 11.4134 42.3135 10.5001 40.0002 10.5001C37.6868 10.5001 36.1402 11.4134 35.0668 12.4901C34.3327 13.2328 33.7447 14.1069 33.3335 15.0668ZM13.5068 27.1668H21.4568V33.8334H14.5668C13.6069 34.2447 12.7329 34.8326 11.9902 35.5668C10.9135 36.6401 10.0002 38.1868 10.0002 40.5001C10.0002 42.8134 10.9135 44.3601 11.9902 45.4334C12.9102 46.3534 13.9435 46.9068 14.5668 47.1668H43.3335V53.8334H13.5068L13.0402 53.6934C11.6635 53.2834 9.3235 52.1934 7.28016 50.1501C5.1535 48.0334 3.3335 44.8501 3.3335 40.5001C3.3335 36.1468 5.1535 32.9701 7.28016 30.8501C9.3235 28.8068 11.6635 27.7168 13.0402 27.3068L13.5068 27.1668ZM36.6668 27.1668H66.4935L66.9602 27.3068C68.3368 27.7168 70.6735 28.8068 72.7235 30.8501C74.8468 32.9668 76.6668 36.1501 76.6668 40.5001C76.6668 44.8534 74.8468 48.0301 72.7235 50.1501C70.6768 52.1934 68.3368 53.2834 66.9602 53.6934L66.4935 53.8334H58.5468V47.1668H65.4335C66.3934 46.7555 67.2675 46.1675 68.0102 45.4334C69.0868 44.3601 70.0002 42.8134 70.0002 40.5001C70.0002 38.1868 69.0868 36.6401 68.0102 35.5668C67.2675 34.8326 66.3934 34.2447 65.4335 33.8334H36.6668V27.1668ZM53.3335 37.1668V66.9934L53.1935 67.4601C52.7835 68.8368 51.6935 71.1734 49.6502 73.2234C47.5335 75.3468 44.3502 77.1668 40.0002 77.1668C35.6468 77.1668 32.4702 75.3468 30.3502 73.2234C28.3068 71.1768 27.2168 68.8368 26.8068 67.4601L26.6668 66.9934V59.0468H33.3335V65.9334C33.5935 66.5568 34.1468 67.5901 35.0668 68.5101C36.1402 69.5868 37.6868 70.5001 40.0002 70.5001C42.3135 70.5001 43.8602 69.5868 44.9335 68.5101C45.6676 67.7674 46.2556 66.8933 46.6668 65.9334V37.1668H53.3335Z" fill="black"/>
</svg>
