<svg width="80" height="80" viewBox="0 0 80 80" fill="none" xmlns="http://www.w3.org/2000/svg">
<path d="M45.0899 18.9767C47.906 21.2752 50.6029 23.7161 53.1699 26.29C55.7426 28.857 58.1824 31.5539 60.4799 34.37C62.2363 31.7231 63.7737 28.9372 65.0765 26.04C66.5899 22.5967 67.3465 19.66 67.4432 17.38C67.5399 15.1067 66.9765 13.85 66.2898 13.1667C65.6032 12.4833 64.3498 11.92 62.0765 12.0167C59.7999 12.11 56.8632 12.8667 53.4165 14.3833C50.5212 15.6866 47.7365 17.2228 45.0899 18.9767ZM39.4632 14.7333C43.3399 12.0333 47.1499 9.85667 50.7299 8.28C54.6232 6.57 58.4032 5.49667 61.7965 5.35334C65.1965 5.21334 68.5565 6.00334 71.0065 8.45334C73.4565 10.9033 74.2465 14.2633 74.1065 17.66C73.9599 21.0533 72.8899 24.8367 71.1765 28.7267C69.6032 32.3067 67.4232 36.1167 64.7265 39.9933C67.4265 43.8733 69.6032 47.6833 71.1799 51.2667C72.8899 55.1567 73.9632 58.94 74.1065 62.3333C74.2465 65.7267 73.4565 69.09 71.0065 71.54C68.5565 73.99 65.1965 74.78 61.7999 74.64C58.4065 74.4967 54.6232 73.4233 50.7332 71.71C47.1532 70.1367 43.3399 67.9567 39.4632 65.2567C35.5865 67.9567 31.7732 70.1367 28.1932 71.71C24.3032 73.4233 20.5199 74.4933 17.1265 74.6367C13.7299 74.78 10.3665 73.99 7.91985 71.5367C5.46985 69.09 4.67652 65.7267 4.81985 62.33C4.96319 58.94 6.03652 55.1567 7.74652 51.2633C9.32319 47.6833 11.5032 43.8733 14.1999 39.9967C11.5032 36.1167 9.32319 32.3067 7.74985 28.7267C6.03652 24.8367 4.96652 21.0533 4.82319 17.66C4.67985 14.2633 5.46985 10.9033 7.92319 8.45334C10.3699 6.00334 13.7332 5.21334 17.1299 5.35334C20.5199 5.49667 24.3032 6.57 28.1965 8.28C31.7732 9.85667 35.5865 12.0367 39.4632 14.7333ZM18.4465 34.3667C20.7429 31.5518 23.1817 28.856 25.7532 26.29C28.3212 23.7161 31.0192 21.2751 33.8365 18.9767C31.1906 17.2215 28.4058 15.6853 25.5099 14.3833C22.0632 12.8667 19.1265 12.11 16.8499 12.0167C14.5765 11.92 13.3165 12.4833 12.6332 13.1667C11.9499 13.85 11.3865 15.1067 11.4832 17.38C11.5799 19.66 12.3365 22.5967 13.8499 26.04C15.1527 28.9372 16.69 31.7198 18.4465 34.3667ZM22.4865 39.9967C24.9647 43.153 27.6306 46.1573 30.4699 48.9933C33.3048 51.8325 36.308 54.4984 39.4632 56.9767C42.6184 54.4984 45.6216 51.8325 48.4565 48.9933C51.2957 46.1573 53.9617 43.153 56.4399 39.9967C53.9615 36.8426 51.2955 33.8405 48.4565 31.0067C45.6217 28.1664 42.6185 25.4994 39.4632 23.02C36.3068 25.4982 33.3025 28.1641 30.4665 31.0033C27.6275 33.8372 24.9616 36.8393 22.4832 39.9933M18.4432 45.62C16.6854 48.2678 15.1469 51.0549 13.8432 53.9533C12.3299 57.3967 11.5765 60.3333 11.4765 62.61C11.3832 64.8833 11.9432 66.1433 12.6299 66.8267C13.3165 67.51 14.5699 68.0733 16.8432 67.9767C19.1199 67.88 22.0599 67.1233 25.5032 65.61C28.4016 64.3062 31.1887 62.7678 33.8365 61.01C31.0194 58.7137 28.3214 56.275 25.7532 53.7033C23.1804 51.1352 20.7405 48.4372 18.4432 45.62ZM45.0865 61.0133C47.7334 62.7698 50.5193 64.3072 53.4165 65.61C56.8599 67.1233 59.7999 67.88 62.0765 67.9767C64.3532 68.0733 65.6065 67.51 66.2898 66.8267C66.9732 66.14 67.5365 64.8833 67.4399 62.61C67.3465 60.3333 66.5899 57.3967 65.0732 53.95C63.7703 51.0528 62.233 48.2669 60.4765 45.62C58.1792 48.4372 55.7393 51.1352 53.1665 53.7033C50.5995 56.2761 47.9026 58.7159 45.0865 61.0133ZM36.6665 36.6667H43.3465V43.3467H36.6665V36.6667Z" fill="black"/>
</svg>
