<svg width="64" height="64" viewBox="0 0 64 64" fill="none" xmlns="http://www.w3.org/2000/svg">
<path d="M12.3964 48.0951C12.1901 48.1133 11.9384 48.0316 11.7524 48.1337C11.5665 48.2357 10.3148 50.1858 10.0155 50.5576C6.98616 54.3194 3.43526 57.3919 0.0816301 60.8498L0 60.5981C9.1743 41.8346 18.0924 22.9463 27.5161 4.30748C27.4753 4.00136 26.3529 4.21224 26.0944 4.24399C20.1014 4.96052 15.1401 8.35042 12.9474 14.0396C12.4871 15.2345 12.3511 16.6087 11.6323 17.654C11.2355 10.5431 15.9314 4.01497 22.421 1.41642C26.2894 -0.132286 29.8244 0.160221 33.89 0.144349C34.661 0.142081 35.3503 -0.198042 36.2256 0.173827L63.6963 61.2738L52.089 60.8634C51.572 59.8771 51.1842 58.8227 50.6491 57.8408C50.3906 57.3647 49.9553 56.9633 49.6786 56.4305C48.6084 54.3693 47.8465 52.0202 46.7445 50.0134C46.0257 48.7028 39.8037 45.1905 38.1937 44.4581C32.8991 42.0545 25.557 42.2064 20.3145 44.6735C19.115 48.1836 19.0062 51.5191 20.8587 54.8387C24.6228 61.5867 31.8175 62.6207 38.8014 62.2012C38.9851 62.1899 39.4454 62.0924 39.4001 62.3758C38.2323 62.6411 37.0895 63.0357 35.8968 63.2057C28.151 64.3055 19.8928 62.6207 14.8544 56.2581C13.9043 55.0586 12.3941 52.417 12.3941 50.9V48.0929L12.3964 48.0951ZM17.4938 38.7417C25.6499 34.1296 35.5521 36.5808 42.5655 42.1293L42.9668 41.889L30.4706 13.9217C29.9899 13.7788 29.6543 14.6019 29.4639 14.9284C26.4504 20.087 23.9561 26.3657 21.1467 31.7714C19.9404 34.0956 18.4824 36.3087 17.4938 38.7394V38.7417Z" fill="black"/>
</svg>
