<svg width="25" height="27" viewBox="0 0 25 27" fill="none" xmlns="http://www.w3.org/2000/svg">
<path d="M21.12 20.671H24.12V25.921C21.1 25.881 16.6 26.761 15.84 22.941H14.77C9.25 30.601 -3.08002 24.941 0.719981 15.611C2.95998 10.111 14.29 11.741 15 8.19097L14.18 5.86098C10.07 4.02098 6.82999 6.49098 3.53999 8.67098L0.99 5.15099C3.11 -0.0490074 14.87 -1.11902 18.52 1.89098C19.01 2.30098 21.11 5.80098 21.11 6.04098V20.661L21.12 20.671ZM15.11 13.171L7.61 15.771L7.21 20.721C13.47 23.651 15.62 18.721 15.11 13.171Z" fill="black"/>
</svg>
