<?xml version="1.0" encoding="UTF-8" standalone="no"?>
<!-- Generator: Adobe Illustrator 24.0.0, SVG Export Plug-In . SVG Version: 6.00 Build 0)  -->

<svg
   version="1.1"
   id="Layer_1"
   x="0px"
   y="0px"
   viewBox="0 0 915.9 891.4"
   style="enable-background:new 0 0 915.9 891.4;"
   xml:space="preserve"
   sodipodi:docname="DeSAI Simplified Logo 1(1).svg"
   inkscape:version="1.4.2 (ebf0e940, 2025-05-08)"
   xmlns:inkscape="http://www.inkscape.org/namespaces/inkscape"
   xmlns:sodipodi="http://sodipodi.sourceforge.net/DTD/sodipodi-0.dtd"
   xmlns="http://www.w3.org/2000/svg"
   xmlns:svg="http://www.w3.org/2000/svg"><defs
   id="defs200" /><sodipodi:namedview
   id="namedview200"
   pagecolor="#ffffff"
   bordercolor="#000000"
   borderopacity="0.25"
   inkscape:showpageshadow="2"
   inkscape:pageopacity="0.0"
   inkscape:pagecheckerboard="0"
   inkscape:deskcolor="#d1d1d1"
   inkscape:zoom="0.47550333"
   inkscape:cx="13.669725"
   inkscape:cy="833.85325"
   inkscape:window-width="896"
   inkscape:window-height="502"
   inkscape:window-x="40"
   inkscape:window-y="25"
   inkscape:window-maximized="0"
   inkscape:current-layer="Layer_1" />
<style
   type="text/css"
   id="style1">
	.st0{fill:#246BFE;}
	.st1{fill:#3C3BFE;}
	.st2{fill:#0AA8FE;}
	.st3{fill:#0C9BFE;}
	.st4{fill:#4135FE;}
	.st5{fill:#2B58FE;}
	.st6{fill:#187AFE;}
	.st7{fill:#F8FEFF;}
	.st8{fill:#511FFE;}
	.st9{fill:#4F22FE;}
	.st10{fill:#521FFE;}
	.st11{fill:#4C23FE;}
	.st12{fill:#F8FDFF;}
	.st13{fill:#F7FCFF;}
	.st14{fill:#F7FEFF;}
	.st15{fill:#F7FDFF;}
	.st16{fill:#0695FE;}
	.st17{fill:#501FFE;}
	.st18{fill:#2320FE;}
	.st19{fill:#1092FE;}
	.st20{fill:#1A16FE;}
	.st21{fill:#0F8EFE;}
	.st22{fill:#0F71FE;}
	.st23{fill:#257EFE;}
	.st24{fill:#0B8DFE;}
	.st25{fill:#2B33FD;}
	.st26{fill:#1F5FFE;}
	.st27{fill:#0685FE;}
	.st28{fill:#3AB6FE;}
	.st29{fill:#2229FD;}
	.st30{fill:#0F7BFE;}
	.st31{fill:#4918FE;}
	.st32{fill:#07BDFE;}
	.st33{fill:#004CFD;}
	.st34{fill:#292BFE;}
	.st35{fill:#06A5FE;}
	.st36{fill:#15C0FE;}
	.st37{fill:#02A7FE;}
	.st38{fill:#17A6FE;}
	.st39{fill:#1810FE;}
	.st40{fill:#1B92FE;}
	.st41{fill:#271DFE;}
	.st42{fill:#264EFE;}
	.st43{fill:#068FFE;}
	.st44{fill:#2732FE;}
	.st45{fill:#1E33FD;}
	.st46{fill:#1E22FD;}
	.st47{fill:#2F34FE;}
	.st48{fill:#1727FE;}
	.st49{fill:#2036FE;}
	.st50{fill:#1185FE;}
	.st51{fill:#2230FE;}
	.st52{fill:#137BFE;}
	.st53{fill:#1C34FD;}
	.st54{fill:#1E40FD;}
	.st55{fill:#1566FE;}
	.st56{fill:#129FFE;}
	.st57{fill:#1089FE;}
	.st58{fill:#149CFE;}
	.st59{fill:#3333FE;}
	.st60{fill:#2626FE;}
	.st61{fill:#2B27FE;}
	.st62{fill:#2C39FE;}
	.st63{fill:#13BCFE;}
	.st64{fill:#282EFE;}
	.st65{fill:#1D24FD;}
	.st66{fill:#2643FE;}
	.st67{fill:#404BFE;}
	.st68{fill:#117DFE;}
	.st69{fill:#0D82FE;}
	.st70{fill:#2254FE;}
	.st71{fill:#0F72FE;}
	.st72{fill:#1172FE;}
	.st73{fill:#1146FE;}
	.st74{fill:#1065FE;}
	.st75{fill:#0F7FFE;}
	.st76{fill:#1154FE;}
	.st77{fill:#2B39FE;}
	.st78{fill:#0D87FE;}
	.st79{fill:#1041FE;}
	.st80{fill:#1E38FD;}
	.st81{fill:#15C1FE;}
	.st82{fill:#0E7CFE;}
	.st83{fill:#0F88FE;}
	.st84{fill:#0D92FE;}
	.st85{fill:#0487FE;}
	.st86{fill:#3141FE;}
	.st87{fill:#371BFE;}
	.st88{fill:#1493FE;}
	.st89{fill:#1B40FE;}
	.st90{fill:#202DFD;}
	.st91{fill:#2C1EFE;}
	.st92{fill:#129CFE;}
	.st93{fill:#1287FE;}
	.st94{fill:#4144FE;}
	.st95{fill:#1B1CFE;}
	.st96{fill:#3912FE;}
	.st97{fill:#3C48FE;}
	.st98{fill:#1E2AFD;}
	.st99{fill:#24B5FF;}
	.st100{fill:#0F69FE;}
	.st101{fill:#1943FD;}
	.st102{fill:#532BFE;}
	.st103{fill:#4230FE;}
	.st104{fill:#0D4FFE;}
	.st105{fill:#1E26FD;}
	.st106{fill:#0F4BFE;}
	.st107{fill:#303BFB;}
</style>
<path
   class="st0"
   d="m 579.3955,53.751878 c 4.5,4.1 7.5,8.5 8.3,14.6 0.1,7.2 -0.8,13.6 -5.9,19.1 -3.8,3.3 -3.8,3.3 -6.5,3.3 0,12.900002 0,25.700002 0,39.000002 6.9,-0.1 6.9,-0.1 13.8,-0.3 6.6,-0.1 11.8,0.3 16.9,4.8 3.5,4.7 4.4,6.9 4.5,12.7 0,1.3 0,2.6 0.1,4 0,1.4 0,2.9 0,4.3 0,0.7 0,1.5 0,2.2 0,3.9 0.1,7.7 0.1,11.6 0,3.2 0.1,6.4 0.1,9.5 0.1,3.8 0.1,7.7 0.1,11.5 0,1.5 0,2.9 0,4.4 0.3,14.1 0.3,14.1 -5,19.8 -4.6,3.7 -9.4,3.6 -15.1,3.6 -0.7,0 -1.4,0 -2.1,0 -2.1,0 -4.3,0 -6.4,-0.1 -1.5,0 -2.9,0 -4.4,0 -3.6,0 -7.1,-0.1 -10.7,-0.1 -0.5,1.4 -0.5,1.4 -0.9,2.9 -4.4,13 -15.2,24.4 -24.5,34.3 -2.1,2.2 -3.9,4.3 -5.6,6.9 0.3,3.5 2.1,5.7 4.1,8.5 3.5,5.8 4.4,10.9 2.9,17.5 -1.8,3.3 -4.2,5.5 -7,8 -0.8,0.8 -1.7,1.6 -2.5,2.4 -5.4,5.1 -11.1,9.8 -16.8,14.4 -2.6,2.1 -5,4.3 -7.4,6.6 -5.5,4.8 -9.6,6.9 -16.9,7 -5.5,-0.9 -9.5,-4.1 -13.5,-7.8 -0.8,-0.8 -1.7,-1.5 -2.5,-2.3 -2.4,-2.2 -2.4,-2.2 -4.4,-4.6 -1.8,-1.8 -1.8,-1.8 -3.8,-1.7 -3,1.5 -5.5,3.5 -8.1,5.6 -5.1,4 -10.3,7.7 -15.8,11.3 -3.8,2.5 -7.6,5.2 -11.4,7.8 -5.6,3.9 -11.2,7.7 -16.8,11.4 1.4,4.3 3.6,7.1 6.5,10.5 6.3,7.3 6.3,7.3 6.6,12.8 -0.9,8 -4.4,12.5 -10.5,17.6 -4.8,3.8 -9.6,7.4 -14.5,11 -4.9,3.6 -9.7,7.4 -14.5,11.1 -5.6,4.1 -9.8,4.8 -16.7,4 -8.5,-2.7 -14.7,-9.2 -20,-16 -12.7,4.5 -22.5,16.7 -29,28 0.6,0 1.1,-0.1 1.7,-0.1 6.1,-0.3 9.4,0.5 14.3,4.1 3,6 3,6 3,22 28,0 56.1,0 85,0 0.7,-1.3 1.3,-2.6 2,-4 1.6,-1.7 1.6,-1.7 3.4,-3.2 0.6,-0.5 1.2,-1 1.8,-1.5 4.6,-3.3 10.4,-2.8 15.8,-2.3 5.5,1.5 9,4.4 12,9.2 2.7,5.1 3.8,10.1 3,15.8 -2.1,6.5 -5.8,10.7 -11.9,14 -5.2,2.3 -9.7,2.4 -15.1,1 -4.8,-1.9 -8.2,-4.7 -11,-9 0,-0.7 0,-1.3 0,-2 -28,0 -56.1,0 -85,0 0,9.6 0,19.1 0,29 -2.9,5.8 -5,9.5 -11,11.8 -8.3,2 -16.3,1.2 -25,1.2 0,11.9 0,23.8 0,36 1.6,0.7 3.3,1.3 5,2 6.1,6.6 7.5,10.8 7.4,19.7 -0.7,6.1 -3.6,9.6 -7.9,13.7 -6.6,4.4 -12.6,4.3 -20.4,3.6 -5.4,-2.5 -9.5,-6.9 -12.1,-12.4 -2,-5.9 -1.8,-12.4 0.7,-18 1.5,-2.8 2.7,-3.8 5.4,-5.7 2.8,-2.4 3,-2.9 3.7,-6.8 0,-1.5 0.1,-3 0,-4.5 0,-0.8 0,-1.6 0,-2.4 0,-2.5 0,-5 0,-7.5 0,-1.7 0,-3.4 0.1,-5.1 0,-4.2 0.1,-8.4 0.1,-12.5 -0.6,0 -1.1,0 -1.7,0.1 -2.6,0.1 -5.2,0.1 -7.8,0.2 -0.9,0 -1.8,0.1 -2.7,0.1 -6.2,0.1 -10.7,-0.9 -15.8,-4.3 -3.8,-4 -4.1,-7.8 -4.2,-13.2 0,-1.3 0,-2.6 0,-3.9 0,-1.4 0,-2.8 0,-4.2 0,-1.1 0,-1.1 0,-2.1 0,-3.7 0,-7.5 0,-11.2 0,-3.8 0,-7.7 -0.1,-11.6 0,-3 0,-5.9 0,-8.9 0,-1.4 0,-2.8 0,-4.3 0,-2 0,-4 0,-6 0,-1.7 0,-1.7 0,-3.4 0.7,-4.7 3,-7.8 6.5,-11 4.4,-2.6 8.9,-2.3 13.8,-2.3 0.8,0 1.5,0 2.3,0 2.4,0 4.8,0 7.2,0 1.6,0 3.2,0 4.9,0 4,0 7.9,0 11.9,0 0.4,-1.4 0.4,-1.4 0.9,-2.8 5.2,-15 20,-27.4 31.5,-37.8 1.6,-1.4 3.1,-2.9 4.7,-4.4 -0.4,-0.6 -0.9,-1.2 -1.3,-1.8 -3.7,-5.5 -5.4,-9.8 -5.6,-16.4 2.4,-7.7 10.1,-12.9 16.3,-17.5 1.6,-1.2 3.2,-2.4 4.8,-3.6 0.8,-0.6 1.6,-1.2 2.4,-1.8 4.5,-3.5 8.8,-7.1 13.1,-10.7 5.2,-4.3 10,-7.8 17.1,-7.5 5.9,0.9 11.4,2.9 15.3,7.6 0.6,0.9 1.2,1.8 1.9,2.8 13.2,-8.2 26,-17 38.5,-26.2 4.1,-3 8.3,-5.9 12.5,-8.8 -1.4,-3 -3,-5.5 -5.1,-8.1 -3.6,-4.6 -4.7,-7.9 -3.9,-13.9 4,-9.1 11.8,-14.8 19.5,-20.7 3.5,-2.7 6.9,-5.5 10.2,-8.4 6.2,-5.3 12.8,-11 21.4,-11.4 7.4,0.9 11.9,2.9 16.9,8.5 1.3,1.3 2.5,2.5 3.8,3.8 1.1,1.1 2.1,2.1 3.2,3.2 7.3,-5.3 12.7,-12.8 18.3,-19.8 0.5,-0.6 1.1,-1.3 1.6,-2 0.5,-0.6 1,-1.2 1.5,-1.9 0.7,-0.8 0.7,-0.8 1.4,-1.7 1.3,-1.8 2.3,-3.7 3.2,-5.7 -1.3,0.1 -2.6,0.1 -3.9,0.2 -5.7,0 -11.3,-0.7 -15.7,-4.6 -6.2,-7.9 -5.4,-16.8 -5.4,-26.6 -30.4,0 -60.7,0 -92,0 -0.3,1.3 -0.7,2.6 -1,4 -3.8,4.5 -7.5,7.6 -13.5,8.3 -7.1,0.3 -12.6,-0.8 -18,-5.7 -5.3,-5.9 -6,-12 -5.8,-19.6 0.8,-6 3.7,-9.6 8.3,-13.4 5.6,-2.9 10.8,-4.3 17.1,-3.6 4.8,1.6 7.6,3.5 10.6,7.5 2.4,2.8 3.9,4 7.6,4.3 1.6,0 3.2,0 4.8,0 0.9,0 1.8,0 2.7,0 2.9,0 5.8,0 8.8,0 2,0 4.1,0 6.1,0 5.3,0 10.7,0 16,0 5.5,0 10.9,0 16.4,0 10.7,0 21.4,0 32.1,0 0,-0.8 0,-1.6 -0.1,-2.5 -0.1,-3.7 -0.1,-7.5 -0.1,-11.2 0,-1.9 0,-1.9 -0.1,-3.9 0,-1.2 0,-2.5 0,-3.8 0,-1.1 0,-2.3 -0.1,-3.5 0.5,-4.7 2.6,-7.9 6.3,-10.9 4.2,-3.1 7.1,-3.4 12.3,-3.4 0.9,0 1.8,0 2.7,0 1.7,0 1.7,0 3.4,0 5.3,0 5.3,0 10.8,0.1 0,-12.9 0,-25.7 0,-39.000002 -1.7,-0.7 -3.3,-1.3 -5,-2 -1.7,-1.6 -1.7,-1.6 -3.2,-3.3 -0.5,-0.6 -1,-1.2 -1.5,-1.7 -3.8,-5.6 -4.2,-11.4 -3.3,-17.9 2.6,-6.6 7.3,-11 13.8,-13.8 6.5,-2.4 14.1,-2.1 20.7,1.8 z"
   id="path1" />
<path
   class="st1"
   d="m 492.7955,351.85188 c 4.8,3.6 8.2,6.8 9.3,12.9 0.8,3.4 1.6,4.7 4.5,6.6 1.4,0.8 2.7,1.5 4.1,2.2 12,6.9 26.6,18 31.7,31.2 0.8,0 0.8,0 1.7,0 5.7,-0.1 11.5,-0.1 17.2,-0.2 2.1,0 4.3,-0.1 6.4,-0.1 3.1,-0.1 6.2,-0.1 9.2,-0.1 1,0 1.9,0 2.9,-0.1 5.7,0 9.1,0.6 13.5,4.5 3.7,4.9 5.1,8.3 5.2,14.4 0,1.6 0,1.6 0,3.3 0,1.2 0,2.4 0,3.6 0,1.2 0,2.4 0,3.7 0,2.6 0,5.2 0,7.8 0,3.9 0.1,7.9 0.1,11.8 0,2.5 0,5 0,7.5 0,1.2 0,2.3 0,3.6 0,7.4 -0.7,13.3 -5.9,18.9 -2.7,2.4 -5,3.7 -8.5,4.5 0.2,1.1 0.2,1.1 0.4,2.3 0.2,1 0.4,2.1 0.6,3.1 0.2,1 0.4,2 0.6,3 0.5,4.2 0.5,8.3 0.4,12.5 0.7,0 1.4,0 2.2,-0.1 3.3,-0.1 6.6,-0.1 9.8,-0.2 1.1,0 2.2,-0.1 3.4,-0.1 6.6,-0.1 12.3,0.1 17.6,4.4 3.7,4.7 5.1,9.5 5.2,15.4 0,1.7 0,1.7 0,3.4 0,1.2 0,2.4 0,3.7 0,1.2 0,2.5 0,3.8 0,2.6 0,5.3 0,7.9 0,2.7 0,5.4 0.1,8.1 0,3.9 0.1,7.8 0.1,11.6 0,1.2 0,2.4 0,3.6 0,7 -0.7,11.6 -4.5,17.5 -4.6,4.5 -9.1,6.2 -15.6,6.3 -1.1,0 -2.2,0 -3.3,0 -1.2,0 -2.3,0 -3.5,0 -1.2,0 -2.4,0 -3.7,0 -2.6,0 -5.1,0 -7.7,0 -3.9,0 -7.8,0 -11.7,0.1 -2.5,0 -5,0 -7.5,0 -1.7,0 -1.7,0 -3.5,0 -8.2,0 -15.8,-1.1 -22,-6.8 -6.3,-11.2 -3.5,-22.6 -3.5,-35.7 -31.7,0 -63.4,0 -96,0 -0.7,1.3 -1.3,2.6 -2,4 -6.4,6 -11.4,7.5 -20,7.4 -6,-0.8 -10.1,-3.9 -14,-8.5 -2.9,-4.6 -3.4,-9.5 -3.1,-14.9 1.7,-7.3 6.1,-11.7 12,-16 4.9,-2.5 12.3,-1.8 17.5,-0.3 4.2,2 7,4.3 9.5,8.3 0,0.7 0,1.3 0,2 31.7,0 63.4,0 96,0 0,-4.3 0,-8.6 0,-13 1.5,-5.3 3.4,-8.1 8,-11 2.8,-0.9 5.4,-1.1 8.3,-1.1 0.8,0 1.6,0 2.4,0 0.8,0 1.6,0 2.5,0 0.8,0 1.7,0 2.5,0 2.1,0 4.1,0 6.2,0 -0.3,-2.4 -0.6,-4.8 -0.9,-7.1 -0.1,-0.7 -0.2,-1.3 -0.3,-2 -0.5,-4 -1.1,-7.9 -1.8,-11.9 -1.5,0 -1.5,0 -3,0 -3.7,0 -7.4,0.1 -11,0.1 -1.6,0 -3.2,0 -4.8,0.1 -19.6,0.3 -19.6,0.3 -26.3,-4.9 -0.7,-0.9 -0.7,-0.9 -1.3,-1.7 -0.5,-0.6 -0.9,-1.1 -1.4,-1.7 -2.5,-4 -3.4,-7.5 -3.5,-12.2 0,-1 0,-2.1 0,-3.1 0,-1.1 0,-2.2 0,-3.4 0,-1.2 0,-2.3 0,-3.5 0,-2.4 0,-4.9 0,-7.3 0,-3.7 0,-7.4 -0.1,-11.1 0,-2.4 0,-4.7 0,-7.1 0,-1.1 0,-2.2 0,-3.4 0,-6 0.4,-10.4 3.4,-15.7 0.8,-0.7 1.5,-1.5 2.2,-2.2 0.6,-0.6 1.2,-1.2 1.8,-1.8 -0.6,-5.5 -5,-8.7 -9,-12 -4.9,-3.5 -9.9,-6.8 -15,-10 -0.5,0.3 -1,0.6 -1.6,0.9 -6.6,3.5 -12.4,4.6 -19.7,2.5 -5.1,-2.2 -8.2,-5.4 -10.7,-10.3 -2.3,-6.2 -3.2,-11.9 -0.4,-18.1 6.3,-10.8 16.8,-13.4 28.3,-9.8 z"
   id="path2" />
<path
   class="st2"
   d="m 253.4955,51.251878 c 1.3,0 2.7,0 4,0 2.8,0 5.6,0 8.4,0 3.6,0 7.1,0 10.7,0 2.8,0 5.5,0 8.3,0 1.9,0 3.9,0 5.8,0 1.2,0 2.4,0 3.6,0 1,0 2.1,0 3.2,0 5.9,0.8 10.1,3.7 13.8,8.2 2.3,4.1 2.1,8.5 2.1,13.1 0,1 0,1.9 0.1,2.9 0,2.4 0.1,4.8 0.1,7.1 9.9,0.3 19.9,0.5 29.8,0.8 4.6,0.1 9.2,0.2 13.8,0.3 4.5,0.1 8.9,0.2 13.4,0.3 1.7,0 3.4,0.1 5.1,0.1 9,0.7 9,0.7 17.2,-2.1 1.6,-1.8 1.6,-1.8 2.7,-3.8 1.9,-3.2 4.6,-3.8 8,-4.7 6.2,-0.7 11.8,-0.8 17,3 5,4.8 8,9.2 8.4,16.2 -0.2,5.8 -1.9,11.000002 -5.8,15.300002 -5.3,4.7 -10.1,5.9 -17,5.7 -4.1,-0.5 -7.3,-1.8 -10.6,-4.3 -0.7,-1 -1.4,-2 -2.1,-3.1 -2.2,-2.7 -2.8,-2.9 -6.5,-3.7 -1.4,0 -2.8,0 -4.2,0 -0.8,0 -1.5,0 -2.3,0 -2.5,0 -5.1,0 -7.6,0 -1.8,0 -3.5,0 -5.3,0 -4.6,0 -9.3,0 -13.9,0 -4.7,0 -9.5,0 -14.2,-0.1 -9.3,-0.1 -18.6,-0.1 -27.8,-0.1 0,0.9 0,0.9 0.1,1.8 0.1,2.7 0.1,5.5 0.2,8.2 0,0.9 0.1,1.9 0.1,2.8 0.1,8 -1.5,13.2 -7.1,19 -7.1,4.6 -14.1,4.4 -22.2,4.1 0.3,1.3 0.5,2.7 0.8,4 0.1,0.7 0.3,1.5 0.5,2.2 0.6,2.4 1.4,4.6 2.3,6.9 0.4,1.1 0.4,1.1 0.8,2.2 0.3,0.8 0.3,0.8 0.6,1.7 0.9,0 0.9,0 1.8,0 6.4,0.1 12.7,0.1 19.1,0.2 2.4,0 4.7,0.1 7.1,0.1 3.4,0 6.8,0.1 10.2,0.1 1,0 2.1,0 3.2,0 6.4,0.1 13.1,0.4 18.1,4.9 3.8,4.3 4.6,7.7 4.6,13.2 0,1.7 0,1.7 0,3.5 0,1.2 0,2.5 0,3.8 0,1.3 0,2.6 0,3.9 0,2.7 0,5.5 0,8.2 0,3.5 0,7 0.1,10.5 0,3.3 0,6.7 0.1,10 0,1.2 0,2.5 0,3.8 0,10.9 0,10.9 -4.5,15.6 -2.2,1.4 -2.2,1.4 -4,2 5.7,8.5 13.5,16.8 23,21 3.6,0.1 5.1,-1.1 8.2,-3.1 4.5,-2.7 8.7,-2.7 13.8,-1.9 5.6,1.6 8.9,4.5 12.1,9.3 2.4,4.4 2.4,8.8 1.9,13.7 -2.1,6.5 -5.2,11.3 -11.1,14.9 -5.9,2.2 -12.3,1.9 -18.2,0.1 -4.1,-3 -7.6,-7.2 -9.4,-12 -1.9,-3.1 -4.9,-4.3 -8,-6 -10.3,-5.9 -29.4,-18.1 -32.9,-30.1 -0.1,-0.6 -0.3,-1.2 -0.4,-1.9 -1.6,0 -1.6,0 -3.2,0 -3.9,0.1 -7.8,0.1 -11.7,0.1 -1.7,0 -3.4,0 -5,0.1 -21.8,0.3 -21.8,0.3 -29.1,-5.7 -3.3,-4.2 -4.2,-6.9 -4.2,-12.3 0,-1.7 0,-1.7 0,-3.5 0,-1.2 0,-2.5 0,-3.8 0,-1.3 0,-2.6 0,-3.9 0,-2.7 0,-5.5 0,-8.2 0,-3.5 0,-7 0,-10.5 0,-3.3 0,-6.7 0,-10 0,-1.2 0,-2.5 0,-3.8 0,-1.2 0,-2.3 0,-3.5 0,-1.5 0,-1.5 0,-3.1 0.1,-2.9 0.1,-2.9 0.7,-6.2 0.5,-3.1 0.3,-3.9 -1.4,-6.4 -3.5,-6.3 -4.2,-13.2 -4.2,-20.3 -0.7,0 -1.4,0 -2.1,0 -3.1,0.1 -6.3,0.1 -9.4,0.1 -1.1,0 -2.2,0.1 -3.3,0.1 -7.8,0.1 -13.7,-0.5 -20,-5.5 -6,-7.7 -5.6,-15.4 -5.4,-24.7 0,-1.3 0,-2.7 0,-4 0,-2.8 0.1,-5.600002 0.1,-8.400002 0.1,-3.6 0.1,-7.2 0.1,-10.7 0,-2.8 0.1,-5.5 0.1,-8.3 0,-2 0,-3.9 0.1,-5.9 0.1,-4.9 0.3,-8.8 2.1,-13.4 7.6,-6.3 16.8,-6.2 26.7,-6.1 z"
   id="path3" />
<path
   class="st3"
   d="m 10.395499,677.75188 c 86.199999,0 86.199999,0 106.300001,18.3 15.1,15.9 19.3,37.1 18.9,58.3 -0.7,18.6 -6.2,36.5 -19.4,50 -29.700001,25.9 -67.400001,17.4 -105.800001,17.4 0,-47.5 0,-95 0,-144 z"
   id="path4" />
<path
   class="st4"
   d="m 434.3955,677.75188 c 10.9,0 21.8,0 33,0 6.1,15.3 11.7,30.9 17.2,46.4 1.3,3.6 2.5,7.1 3.8,10.7 2.8,7.7 5.5,15.4 8.2,23 1,2.9 2.1,5.8 3.1,8.7 7.8,21.8 7.8,21.8 11,30.9 1.1,3 2.2,6.1 3.3,9.1 0.6,1.5 1.1,3.1 1.7,4.7 0.3,0.7 0.5,1.4 0.8,2.2 1,2.9 1.8,5.2 1.8,8.4 -9.2,0 -18.5,0 -28,0 -4.5,-11.3 -4.5,-11.3 -5.9,-15.5 -0.3,-0.9 -0.6,-1.8 -0.9,-2.8 -0.3,-0.9 -0.6,-1.8 -0.9,-2.8 -0.3,-0.9 -0.6,-1.9 -1,-2.8 -0.3,-0.9 -0.6,-1.8 -0.9,-2.7 -0.3,-0.8 -0.5,-1.6 -0.8,-2.4 -0.6,-2 -0.6,-2 -0.6,-4 -18.5,0 -37,0 -56,0 -1,3.6 -2,7.3 -3,11 -0.6,1.9 -1.2,3.8 -1.8,5.6 -0.3,0.9 -0.6,1.8 -0.9,2.8 -0.3,0.9 -0.6,1.8 -0.9,2.7 -0.3,1 -0.6,1.9 -1,2.9 -0.3,0.9 -0.6,1.8 -0.9,2.7 -0.3,0.8 -0.5,1.6 -0.8,2.4 -0.7,1.9 -0.7,1.9 -1.7,2.9 -2.1,0.1 -4.2,0.1 -6.2,0.1 -1.3,0 -2.5,0 -3.8,0 -1.3,0 -2.7,0 -4,0 -1.4,0 -2.7,0 -4,0 -3.3,0 -6.6,0 -9.9,0 0.6,-3.4 1.5,-6.6 2.6,-9.8 0.3,-1 0.7,-1.9 1,-2.9 0.3,-1 0.7,-2.1 1.1,-3.1 0.6,-1.6 0.6,-1.6 1.1,-3.3 1.2,-3.6 2.5,-7.1 3.7,-10.7 0.9,-2.5 1.7,-5 2.6,-7.5 7.2,-20.9 14.6,-41.7 22,-62.5 2.2,-6.2 4.4,-12.4 6.6,-18.7 0.3,-0.8 0.6,-1.6 0.9,-2.5 1.1,-3 2.1,-6.1 3.2,-9.1 0.7,-2 1.4,-4 2.1,-6 0.4,-1.1 0.8,-2.2 1.2,-3.4 0.9,-2.7 0.9,-2.7 1.9,-4.7 z"
   id="path5" />
<path
   class="st5"
   d="m 357.1955,686.45188 c 7.6,5.8 12.6,13.2 15.2,22.3 0.5,5 0.5,5 1,10 -9.2,0 -18.5,0 -28,0 -1,-3 -2,-5.9 -3,-9 -4.2,-6.7 -10.1,-8.9 -17.5,-10.6 -9.1,-1.5 -19,-0.4 -27,4.5 -3.4,2.8 -5.1,4.9 -6.5,9.1 -0.4,4.6 -0.5,7 1.6,11.2 8.6,9.7 24.5,11.6 36.6,14.2 15.3,3.4 31.5,7.9 40.8,21.5 5.6,10.3 6.6,21.8 4.3,33.2 -3.7,11.2 -11.7,19.8 -22.1,25.2 -3,1.3 -6.1,2.5 -9.2,3.6 -1.4,0.5 -1.4,0.5 -2.9,1 -19.1,5.4 -41.2,3.1 -58.5,-6.4 -10.2,-6.3 -17.5,-16 -20.6,-27.6 0,-3.3 0,-6.6 0,-10 8.6,0 17.2,0 26,0 1.3,4 2.6,7.9 4,12 3.4,5.8 8.9,8 15,10 3.3,0.3 6.7,0.2 10.1,0.2 0.9,0 1.8,0 2.7,0.1 6.6,0 12,-1.1 18.2,-3.3 1,-0.3 2,-0.6 3,-0.9 2.5,-1.3 3,-2.4 4,-5.1 0.5,-1 0.5,-1 1.1,-2.1 1.7,-5.6 1.8,-10.9 -0.6,-16.2 -7.4,-7.8 -19.1,-8.8 -29.2,-11 -8.2,-1.8 -16.2,-3.8 -24.1,-6.7 -0.6,-0.2 -1.3,-0.5 -2,-0.7 -5.6,-2.2 -10,-5.1 -14.2,-9.2 -0.6,-0.5 -1.1,-1.1 -1.7,-1.7 -7.7,-8.3 -9.7,-18 -9.5,-29 1,-11.7 5.7,-20.1 14,-28 21.7,-18 56.4,-15.9 79,-0.6 z"
   id="path6" />
<path
   class="st6"
   d="m 228.3955,724.75188 c 11.1,8.3 15.9,21.8 18,35 0,5.6 0,11.2 0,17 -23.8,0 -47.5,0 -72,0 2.9,14.3 2.9,14.3 12.2,24 6.5,3.5 13.3,4.1 20.5,2.3 6.4,-2.3 10.2,-5.1 13.3,-11.3 8.2,0 16.5,0 25,0 -4.4,13.1 -9.9,21.2 -22,28 -3,1.2 -5.9,2.2 -9,3 -0.7,0.2 -1.4,0.4 -2.1,0.5 -11.8,1.8 -25,1.8 -35.9,-3.5 -1.3,-0.6 -1.3,-0.6 -2.7,-1.3 -10.5,-5.7 -17.1,-14.6 -21.3,-25.7 -5,-17 -5.2,-36.7 3.4,-52.6 8,-12.3 18.8,-19.5 33,-23 13.7,-2.1 27.9,0.1 39.6,7.6 z"
   id="path7" />
<path
   class="st7"
   d="m 37.395499,700.75188 c 45.9,0 45.9,0 58.799999,11.6 10.200002,10.9 12.800002,26 12.600002,40.5 -0.4,12.2 -3.3,25.2 -11.700002,34.5 -17.099999,15.2 -37.499999,12.4 -59.599999,12.4 -0.1,-32.7 -0.1,-65.3 -0.1,-99 z"
   id="path8"
   style="fill:#ffffff" />
<path
   class="st8"
   d="m 725.3955,719.75188 c 8.6,0 17.2,0 26,0 1.9,4.9 3.6,9.8 5.3,14.8 0.2,0.6 0.4,1.2 0.6,1.9 0.7,2 1.3,4.1 2,6.1 0.5,1.4 0.9,2.8 1.4,4.3 1.2,3.7 2.4,7.5 3.6,11.2 1.2,3.8 2.5,7.6 3.7,11.4 2.4,7.5 4.9,14.9 7.3,22.4 1.7,-2.5 2.5,-4.1 3.4,-6.9 0.2,-0.8 0.5,-1.6 0.8,-2.4 0.3,-0.8 0.5,-1.7 0.8,-2.6 0.3,-0.9 0.6,-1.8 0.9,-2.7 0.9,-2.9 1.8,-5.8 2.8,-8.6 0.6,-2 1.3,-3.9 1.9,-5.9 2.7,-8.5 5.5,-16.9 8.1,-25.4 0.4,-1.2 0.7,-2.3 1.1,-3.5 0.7,-2.1 1.3,-4.2 2,-6.3 0.3,-0.9 0.6,-1.8 0.9,-2.8 0.2,-0.8 0.5,-1.5 0.7,-2.3 0.6,-1.7 0.6,-1.7 1.6,-2.7 1.8,-0.1 3.6,-0.1 5.4,-0.1 1.1,0 2.2,0 3.3,0 1.7,0 1.7,0 3.4,0 1.7,0 1.7,0 3.5,0 2.8,0 5.6,0 8.5,0 -2.4,9.8 -5.8,19.1 -9.2,28.6 -0.9,2.6 -1.9,5.2 -2.8,7.8 -0.6,1.8 -1.3,3.6 -1.9,5.4 -2.7,7.4 -5.3,14.7 -7.9,22.1 -3.1,8.7 -6.2,17.3 -9.3,26 -0.7,2.1 -1.5,4.1 -2.2,6.2 -12.5,35.1 -12.5,35.1 -27.8,43 -4.4,2.1 -8.2,3.2 -13.1,3.2 -0.7,0 -1.4,0 -2.2,0 -0.9,0 -1.8,0 -2.7,0 -2.9,0 -5.8,0 -8.7,-0.1 0,-6.3 0,-12.5 0,-19 2.2,-0.2 4.4,-0.5 6.6,-0.8 7.4,-1 7.4,-1 13.4,-5.2 3.1,-5 6.8,-11.1 5.6,-17.2 -0.3,-0.7 -0.5,-1.5 -0.8,-2.2 -0.5,-1.3 -0.5,-1.3 -0.9,-2.6 -0.3,-0.9 -0.7,-1.8 -1,-2.8 -0.4,-1 -0.7,-2 -1.1,-3 -1.2,-3.2 -2.4,-6.4 -3.6,-9.7 -0.8,-2.2 -1.6,-4.5 -2.4,-6.7 -2.1,-5.8 -4.3,-11.6 -6.4,-17.4 -1.3,-3.4 -2.5,-6.8 -3.8,-10.2 -3.1,-8.3 -6.1,-16.6 -9.2,-24.9 -0.5,-1.4 -0.5,-1.4 -1,-2.8 -0.6,-1.7 -1.3,-3.4 -1.9,-5.1 -0.3,-0.8 -0.6,-1.5 -0.9,-2.3 -0.2,-0.6 -0.5,-1.3 -0.7,-2 -1.3,-2.8 -2.2,-5.5 -3.1,-8.2 z"
   id="path9" />
<path
   class="st9"
   d="m 833.3955,719.75188 c 25.4,0 50.8,0 77,0 0,19.5 0,19.5 -6.1,25.9 -1.3,1.5 -2.6,3 -3.9,4.5 -0.7,0.8 -1.3,1.5 -2,2.3 -3.3,3.9 -6.3,8 -9.2,12.2 -3.9,5.4 -7.9,10.7 -11.9,15.9 -5.4,7 -10.6,14.1 -15.8,21.2 16.2,0 32.3,0 49,0 0,6.6 0,13.2 0,20 -25.7,0 -51.5,0 -78,0 0,-22.7 0,-22.7 7,-29.7 3.5,-3.7 6.4,-7.8 9.3,-11.9 1.1,-1.5 2.2,-3.1 3.3,-4.6 0.6,-0.8 1.1,-1.6 1.7,-2.4 3,-4.2 6.1,-8.3 9.1,-12.5 0.6,-0.8 1.1,-1.5 1.7,-2.3 3.4,-4.6 6.9,-9.2 10.5,-13.7 1.6,-2 1.6,-2 2.4,-5 -14.5,0 -29,0 -44,0 -0.1,-6.5 -0.1,-13.1 -0.1,-19.9 z"
   id="path10" />
<path
   class="st10"
   d="m 625.3955,719.75188 c 22,-2.3 22,-2.3 28,1.2 3.3,3.3 5.1,7.3 6.9,11.6 1.8,3.9 4.3,7.5 6.7,11.2 0.9,1.4 1.7,2.7 2.5,4.1 0.6,1 1.2,2 1.8,3 3,-2.9 5.3,-5.8 7.6,-9.3 0.7,-1 1.3,-2 2,-3 0.7,-1 1.3,-2.1 2,-3.2 1.3,-2.1 2.7,-4.2 4,-6.2 0.6,-0.9 1.2,-1.8 1.8,-2.8 0.5,-0.8 1.1,-1.7 1.7,-2.5 0.4,-0.8 0.9,-1.5 1.3,-2.3 1.7,-1.7 1.7,-1.7 4.3,-2.1 1.5,0 1.5,0 3.1,0.1 1.1,0 2.2,0 3.4,0 1.2,0 2.3,0.1 3.5,0.1 1.2,0 2.4,0 3.6,0 2.9,0 5.8,0.1 8.7,0.2 -3.9,8 -9.2,15.3 -14.2,22.6 -0.5,0.7 -0.9,1.3 -1.4,2 -2.6,3.7 -5.2,7.4 -7.8,11 -0.6,0.8 -1.1,1.5 -1.7,2.3 -1.1,1.5 -2.2,2.9 -3.3,4.4 -0.7,1 -0.7,1 -1.5,2 -0.4,0.6 -0.9,1.2 -1.3,1.8 -1.2,2.7 -0.7,4.1 0.2,6.9 1.4,2.6 1.4,2.6 3.3,5.3 0.7,1 1.3,2 2,3 0.7,1.1 1.4,2.1 2.2,3.2 0.7,1.1 1.5,2.2 2.2,3.3 2.1,3.1 4.2,6.2 6.3,9.2 0.8,1.1 0.8,1.1 1.5,2.2 3.1,4.6 6.3,9.2 9.6,13.7 0.6,0.9 1.3,1.8 2,2.8 0.6,0.8 1.1,1.6 1.7,2.4 1.2,1.9 1.2,1.9 1.2,3.9 -4.2,0.3 -8.4,0.5 -12.6,0.6 -1.2,0.1 -2.4,0.2 -3.6,0.3 -8.6,0.2 -8.6,0.2 -12,-2.8 -1.8,-2.6 -3.4,-5.3 -4.9,-8.1 -1.2,-1.8 -2.5,-3.7 -3.8,-5.5 -1.2,-1.8 -2.5,-3.7 -3.7,-5.5 -1,-1.4 -1,-1.4 -1.9,-2.8 -0.6,-0.9 -1.2,-1.8 -1.8,-2.7 -0.5,-0.8 -1.1,-1.6 -1.6,-2.4 -1.2,-2 -1.2,-2 -1.2,-4 -3.4,3.2 -6.1,6.4 -8.7,10.4 -0.7,1 -1.4,2.1 -2,3.1 -0.4,0.6 -0.7,1.1 -1.1,1.7 -2.2,3.3 -4.4,6.7 -6.6,10 -0.4,0.7 -0.9,1.3 -1.3,2 -3.1,4.7 -3.1,4.7 -4.2,5.8 -1.9,0.1 -3.9,0.1 -5.8,0.1 -1.8,0 -1.8,0 -3.5,0 -1.9,0 -1.9,0 -3.7,0 -1.9,0 -1.9,0 -3.8,0 -3.1,0 -6.1,0 -9.2,0 5,-8.1 10.3,-15.8 15.8,-23.6 4.5,-6.4 8.9,-12.9 13.2,-19.4 1.2,-1.8 2.3,-3.5 3.5,-5.2 0.5,-0.7 1,-1.5 1.5,-2.2 0.3,-0.5 0.7,-1 1,-1.5 -4.6,-9.6 -11.6,-18.3 -17.6,-27.1 -0.9,-1.4 -0.9,-1.4 -1.9,-2.8 -0.6,-0.9 -1.2,-1.8 -1.9,-2.7 -0.6,-0.9 -1.2,-1.8 -1.8,-2.7 -2.5,-3.6 -5,-7.2 -7.6,-10.7 -1.1,-2.4 -1.1,-2.4 -1.1,-4.4 z"
   id="path11" />
<path
   class="st11"
   d="m 538.3955,677.75188 c 9.2,0 18.5,0 28,0 0,47.5 0,95 0,144 -9.2,0 -18.5,0 -28,0 0,-47.5 0,-95 0,-144 z"
   id="path12" />
<path
   class="st12"
   d="m 541.3955,148.75188 c 16.5,0 33,0 50,0 0,16.5 0,33 0,50 -16.5,0 -33,0 -50,0 0,-16.5 0,-33 0,-50 z"
   id="path13" />
<path
   class="st7"
   d="m 244.3955,70.751878 c 7.9,0 15.8,0 23.9,-0.1 2.5,0 5,0 7.6,0 2,0 3.9,0 5.9,0 1.6,0 1.6,0 3.1,0 1,0 2,0 3,0 0.9,0 1.7,0 2.6,0 1.9,0.1 1.9,0.1 2.9,1.1 0.1,1.5 0.1,3 0.1,4.5 0,1 0,2 0,3 0,1 0,2.1 0,3.1 0,0.9 0,1.9 0,2.8 0,3.5 0,7.1 0,10.6 0,7.900002 0,15.800002 -0.1,23.900002 -16.2,0 -32.3,0 -49,0 0,-16.1 0,-32.200002 0,-48.900002 z"
   id="path14" />
<path
   class="st7"
   d="m 275.3955,442.75188 c 16.2,0 32.3,0 49,0 0,15.8 0,31.7 0,48 -16.2,0 -32.3,0 -49,0 0,-15.8 0,-31.7 0,-48 z"
   id="path15" />
<path
   class="st7"
   d="m 557.3955,527.75188 c 16.2,0 32.3,0 49,0 0,7.7 0,15.5 0.1,23.4 0,2.4 0,4.9 0,7.4 0,1.9 0,3.9 0,5.8 0,1 0,2 0,3.1 0,1.4 0,1.4 0,2.9 0,0.8 0,1.7 0,2.5 -0.1,1.9 -0.1,1.9 -1.1,2.9 -1.5,0.1 -3,0.1 -4.5,0.1 -1,0 -1.9,0 -2.9,0 -1,0 -2.1,0 -3.1,0 -1.4,0 -1.4,0 -2.9,0 -3.5,0 -7.1,0 -10.6,0 -7.9,0 -15.8,0 -23.9,-0.1 -0.1,-15.8 -0.1,-31.7 -0.1,-48 z"
   id="path16" />
<path
   class="st13"
   d="m 533.3955,423.75188 c 15.5,0 31,0 47,0 0,14.9 0,29.7 0,45 -15.5,0 -31,0 -47,0 0,-14.9 0,-29.7 0,-45 z"
   id="path17" />
<path
   class="st14"
   d="m 287.3955,176.75188 c 14.8,0 29.7,0 45,0 0,14.5 0,29 0,44 -14.9,0 -29.7,0 -45,0 0,-14.5 0,-29 0,-44 z"
   id="path18" />
<path
   class="st15"
   d="m 496.3955,251.75188 c 3.2,1.4 5.4,3.1 7.9,5.6 0.7,0.7 1.5,1.4 2.2,2.2 0.8,0.8 1.5,1.5 2.3,2.3 0.7,0.7 1.5,1.5 2.2,2.2 2.2,2.2 4.3,4.4 6.5,6.6 0.7,0.7 1.4,1.5 2.1,2.2 0.6,0.7 1.3,1.4 2,2.1 0.6,0.6 1.2,1.2 1.8,1.9 1.1,1.8 1.1,1.8 0.9,4 -1,2.3 -2,3.3 -4,4.9 -0.7,0.6 -1.4,1.2 -2.2,1.8 -0.9,0.7 -1.8,1.5 -2.6,2.2 -1.8,1.5 -3.5,3 -5.3,4.5 -4.9,4.2 -9.8,8.4 -14.7,12.5 -7.2,-3.1 -12.2,-10.1 -17.1,-15.9 -2.9,-3.2 -6.1,-6 -9.3,-8.9 -1.6,-2.2 -1.6,-2.2 -1.7,-4.7 1.3,-3.2 2.9,-4.4 5.6,-6.5 1,-0.8 2,-1.5 3,-2.3 0.5,-0.4 1.1,-0.8 1.7,-1.3 3.5,-2.7 7,-5.6 10.4,-8.4 0.7,-0.6 1.4,-1.1 2.2,-1.8 0.7,-0.5 1.3,-1.1 2,-1.6 0.6,-0.5 1.2,-1 1.8,-1.5 1.3,-1 1.3,-1 2.3,-2.1 z"
   id="path19" />
<path
   class="st15"
   d="m 385.3955,339.75188 c 4.4,4.2 8.2,8.7 12,13.4 1.2,1.5 2.4,3 3.6,4.4 0.6,0.7 1.1,1.4 1.7,2.1 1,1.3 2.1,2.5 3.2,3.7 1.4,1.6 1.4,1.6 3.4,4.3 -0.2,2.5 -0.6,3.6 -2.4,5.4 -0.6,0.4 -1.2,0.8 -1.8,1.3 -1,0.7 -1,0.7 -2,1.4 -1,0.8 -1,0.8 -2.1,1.5 -1.5,1.1 -2.9,2.1 -4.4,3.2 -0.7,0.5 -1.5,1.1 -2.2,1.6 -2,1.5 -4,3 -6,4.6 -0.6,0.5 -1.2,0.9 -1.8,1.4 -1.6,1.3 -3.2,2.5 -4.8,3.8 -2.7,1.8 -2.7,1.8 -6.7,1.8 -1.9,-2 -3.5,-3.9 -5.1,-6.1 -1,-1.3 -1.9,-2.6 -2.9,-3.8 -0.5,-0.7 -1,-1.3 -1.5,-2 -2.5,-3.4 -5.1,-6.6 -7.7,-9.9 -0.9,-1.2 -1.9,-2.4 -2.8,-3.5 -0.7,-0.9 -1.3,-1.7 -2,-2.6 2.9,-3.9 5.9,-6.7 9.8,-9.6 0.6,-0.4 1.1,-0.8 1.7,-1.3 7.1,-5.1 13.9,-10.1 20.8,-15.1 z"
   id="path20" />
<path
   class="st13"
   d="m 450.3955,705.75188 c 0.7,0 1.3,0 2,0 2.5,7.4 5,14.8 7.4,22.1 1.2,3.4 2.3,6.8 3.5,10.3 1.1,3.3 2.2,6.6 3.3,9.9 0.6,1.9 1.3,3.8 1.9,5.6 0.4,1.1 0.8,2.3 1.2,3.5 0.3,1 0.7,2 1,3 0.7,2.5 0.7,2.5 0.7,5.5 -13.2,0 -26.4,0 -40,0 2.2,-10.1 2.2,-10.1 3.8,-14.7 0.3,-1 0.7,-2 1,-3.1 0.5,-1.6 0.5,-1.6 1.1,-3.2 0.4,-1.1 0.8,-2.2 1.1,-3.4 1.2,-3.5 2.4,-7.1 3.6,-10.6 0.8,-2.4 1.6,-4.8 2.4,-7.2 2,-5.9 4,-11.8 6,-17.7 z"
   id="path21" />
<path
   class="st14"
   d="m 209.7955,738.35188 c 6.4,3.8 10.2,9.5 12.6,16.4 0,1.7 0,3.3 0,5 -15.8,0 -31.7,0 -48,0 1.9,-8.5 3.2,-14.3 10.2,-19.7 7.6,-4.4 17,-5.3 25.2,-1.7 z"
   id="path22" />
<path
   class="st16"
   d="m 363.3955,333.75188 c 1,0.5 1,0.5 2,1 -4,4.5 -8.7,7.8 -13.6,11.2 -2.5,1.7 -2.5,1.7 -4.4,3.8 -1,0.7 -1.9,1.5 -2.9,2.2 -4,3.3 -6.5,6.8 -8,11.8 -0.1,3.5 0.5,5.8 1.9,9 0.7,0.3 1.3,0.7 2,1 0.7,1.6 1.4,3.3 2,5 0.3,0.7 0.7,1.3 1,2 -3.1,3.1 -6.2,6.1 -9.5,9.1 -12.6,11.3 -12.6,11.3 -22.5,24.9 -0.5,0.9 -1.1,1.7 -1.6,2.6 -1.5,2.3 -1.5,2.3 -1.8,4.6 -0.6,1.9 -0.6,1.9 -2.6,3.6 -5.1,2.2 -10.8,3.1 -16.1,1.3 -2.1,0.2 -4.1,0.5 -6.2,0.7 -5.6,0.5 -11.2,0.3 -16.8,0.3 0,1 0,2 0,3 -0.6,0 -1.2,0 -1.8,0.1 -2.9,1.2 -3.5,2.8 -4.6,5.6 -1.3,5 -1,10.1 -0.9,15.2 0,1.2 0,2.5 0,3.8 0,3.3 0,6.6 0.1,9.8 0,3.3 0,6.6 0,10 0,2.5 0,5.1 0,7.6 0,1.2 0,2.4 0,3.6 0,5.5 0.2,10.8 1.2,16.3 0.7,0 1.3,0 2,0 0,1 0,2 0,3 2,0 4,0 6,0 0,0.7 0,1.3 0,2 0.6,0 1.1,0 1.7,0 2.5,0 5.1,0 7.6,0 0.9,0 1.8,0 2.7,0 1.3,0 1.3,0 2.6,0 0.8,0 1.6,0 2.4,0 2.1,0.1 2.1,0.1 5.1,1.1 1.6,3.2 1.4,6.7 1.6,10.2 0,0.8 0.1,1.6 0.1,2.4 0.4,7.5 0.4,14.9 0.3,22.4 0,1 0,2 0,3 -1.9,2.1 -3.6,3.8 -6.1,5.2 -2.7,2.5 -3.2,5.1 -4.2,8.6 -0.7,2.2 -1.6,4.2 -2.7,6.2 0.7,0.3 1.3,0.7 2,1 0,2 0,4 0,6 0.7,0 1.3,0 2,0 0,0.6 0.1,1.1 0.1,1.7 1.4,3.6 3.8,5.1 6.9,7.3 2.7,0.3 2.7,0.3 5,0 0.3,0.3 0.7,0.7 1,1 2.3,0.4 4.7,0.7 7,1 0,0.3 0,0.7 0,1 -10.7,0.6 -10.7,0.6 -15.4,-1.6 -5,-4.6 -9,-9 -9.9,-16 -0.1,-6.2 0.4,-11.4 4.3,-16.4 1,-0.7 2,-1.4 3,-2.1 2.8,-2.4 3,-2.9 3.7,-6.8 0,-1.5 0.1,-3 0,-4.5 0,-0.8 0,-1.6 0,-2.4 0,-2.5 0,-5 0,-7.5 0,-1.7 0,-3.4 0.1,-5.1 0,-4.2 0.1,-8.4 0.1,-12.5 -0.6,0 -1.1,0 -1.7,0.1 -2.6,0.1 -5.2,0.1 -7.8,0.2 -0.9,0 -1.8,0.1 -2.7,0.1 -6.2,0.1 -10.7,-0.9 -15.8,-4.3 -3.8,-4 -4.1,-7.8 -4.2,-13.2 0,-1.3 0,-2.6 0,-3.9 0,-1.4 0,-2.8 0,-4.2 0,-0.7 0,-1.4 0,-2.1 0,-3.7 0,-7.5 0,-11.2 0,-3.9 0,-7.7 -0.1,-11.6 0,-3 0,-5.9 0,-8.9 0,-1.4 0,-2.8 0,-4.3 0,-2 0,-4 0,-6 0,-1.7 0,-1.7 0,-3.4 0.7,-4.7 3,-7.8 6.5,-11 4.4,-2.6 8.9,-2.3 13.8,-2.3 0.8,0 1.5,0 2.3,0 2.4,0 4.8,0 7.2,0 1.6,0 3.2,0 4.9,0 4,0 7.9,0 11.9,0 0.3,-0.9 0.6,-1.9 0.9,-2.8 5.2,-15 20,-27.4 31.5,-37.8 1.6,-1.4 3.1,-2.9 4.7,-4.4 -0.4,-0.6 -0.9,-1.2 -1.3,-1.8 -3.7,-5.5 -5.4,-9.8 -5.6,-16.4 2.5,-8 10.6,-13.3 17.1,-18.1 0.8,-0.6 1.6,-1.2 2.4,-1.8 3.1,-3 6.6,-5.6 10.1,-8.2 z"
   id="path23" />
<path
   class="st17"
   d="m 607.2955,794.75188 c 3.6,3.5 5.9,7.3 6.2,12.3 -0.5,5.9 -2.3,9.5 -6.1,14 -4.9,2.7 -9.6,2.5 -15.1,1.7 -3.5,-1.6 -5.3,-4 -7.4,-7.2 -1.3,-5.8 -1.6,-10.9 1.1,-16.2 5.9,-6.5 13.1,-7.4 21.3,-4.6 z"
   id="path24" />
<path
   class="st18"
   d="m 566.4955,50.451878 c 5.6,0.2 10.4,1.1 14.6,4.9 5.2,5.8 6.7,10.9 6.6,18.6 -0.7,6 -2.9,10.9 -7.4,14.9 -2.9,1.9 -2.9,1.9 -4.9,1.9 0,12.900002 0,25.700002 0,39.000002 6.9,-0.1 6.9,-0.1 13.8,-0.3 6.5,-0.1 11.8,0.3 16.9,4.8 3.5,4.8 4.4,6.9 4.4,12.8 0,1 0,1 0,2 0,2.2 0,4.3 0,6.4 0,1.5 0,3 0,4.5 0,3.1 0,6.3 0,9.4 0,4 0,8 0,12 0,3.1 0,6.2 0,9.2 0,1.5 0,3 0,4.4 0,2.1 0,4.1 0,6.2 0,1.8 0,1.8 0,3.6 -0.4,2.9 -0.4,2.9 -1.9,4.8 -0.7,0.5 -0.7,0.5 -1.5,1.1 0.2,-0.7 0.3,-1.4 0.5,-2.1 0.5,-3.1 0.6,-5.9 0.6,-9 0,-1.8 0,-1.8 0,-3.6 0,-1.3 0,-2.6 0,-3.9 0,-1.4 0,-2.7 0,-4.1 0,-2.8 0,-5.6 0,-8.5 0,-3.6 0,-7.2 0,-10.8 0,-2.8 0,-5.6 0,-8.3 0,-2 0,-4 0,-5.9 0,-1.2 0,-2.4 0,-3.7 0,-1.1 0,-2.1 0,-3.2 -0.1,-2.8 -0.4,-5.2 -1.1,-7.9 -1,-0.5 -1,-0.5 -2,-1 0.3,-0.7 0.7,-1.3 1,-2 -3.8,-2.2 -7.8,-3 -12,-4 0,-0.7 0,-1.3 0,-2 -0.6,0 -1.2,0 -1.8,0 -2.7,0 -5.4,0 -8.1,0.1 -1,0 -1.9,0 -2.9,0 -1.3,0 -1.3,0 -2.7,0 -1.2,0 -1.2,0 -2.5,0 -1.9,-0.1 -1.9,-0.1 -2.9,-1.1 -0.2,-2.4 -0.3,-4.7 -0.4,-7.1 0,-0.7 -0.1,-1.4 -0.1,-2.2 0,-1.5 -0.1,-3 -0.1,-4.6 -0.1,-2.3 -0.2,-4.6 -0.2,-6.9 0,-1.5 -0.1,-2.9 -0.1,-4.4 0,-0.7 0,-1.4 -0.1,-2.1 -0.1,-4.700002 0.5,-8.400002 2.1,-12.800002 1.9,-1.1 1.9,-1.1 4,-2 1.6,-2.2 1.6,-2.2 3,-5 0.4,-0.6 0.7,-1.2 1.1,-1.9 2.7,-4.8 3.2,-7.6 1.9,-13.1 -0.3,-2.3 -0.7,-4.7 -1,-7 -0.7,0 -1.3,0 -2,0 -0.2,-0.6 -0.5,-1.2 -0.7,-1.9 -1.7,-2.8 -3.3,-3.1 -6.3,-4.1 -0.7,-0.3 -1.3,-0.7 -2,-1 -2,-0.2 -4.1,-0.4 -6.1,-0.6 -1.6,-0.1 -1.6,-0.1 -3.3,-0.2 -0.8,-0.1 -1.7,-0.1 -2.6,-0.2 2.4,-2.2 3,-2.1 6.2,-2.1 z"
   id="path25" />
<path
   class="st19"
   d="m 275.3955,439.75188 c 0.3,0.7 0.7,1.3 1,2 0.6,-0.2 1.2,-0.3 1.8,-0.5 3.6,-0.8 7.3,-0.7 11,-0.6 0.9,0 1.7,0 2.6,0 7.3,0.1 14.5,0.2 21.8,0.4 1.6,0 1.6,0 3.2,0.1 1.5,0 1.5,0 3,0.1 0.9,0 1.7,0.1 2.6,0.1 2.1,0.4 2.1,0.4 4.1,3.4 1.7,8.3 0.8,16.7 0,25 0.7,0.3 1.3,0.7 2,1 -0.3,1 -0.7,2 -1,3 -0.2,3.6 -0.4,7.2 -0.4,10.8 -0.2,5.7 -0.2,5.7 -1.8,7.9 -2.1,1.6 -3.2,1.6 -5.8,1.6 -0.8,0 -1.6,0 -2.5,0 -0.9,0 -1.8,0 -2.7,0 -1.4,0 -1.4,0 -2.8,0 -1.9,0 -3.9,0 -5.8,0 -2.9,0 -5.9,0 -8.8,0 -1.9,0 -3.8,0 -5.6,0 -1.3,0 -1.3,0 -2.6,0 -5.1,0 -9.4,-0.5 -14.1,-2.3 -1.2,-2.3 -1.1,-3.7 -1.1,-6.2 0,-0.9 0,-1.8 0,-2.6 0,-1 0,-1.9 0,-2.9 0,-1 0,-1.9 0,-2.9 0.1,-10.5 0.5,-20.9 1.1,-31.3 -0.7,-0.3 -1.3,-0.7 -2,-1 0.7,0 1.3,0 2,0 0.1,-1.7 0.4,-3.4 0.8,-5.1 z m 0,3 c 0,15.8 0,31.7 0,48 16.2,0 32.3,0 49,0 0,-15.8 0,-31.7 0,-48 -16.2,0 -32.4,0 -49,0 z"
   id="path26" />
<path
   class="st20"
   d="m 549.8955,145.55188 c 1.1,0 1.1,0 2.2,0 1.6,0 3.1,0 4.7,0 2.4,0 4.7,0 7.1,0 24.2,0.1 24.2,0.1 28.4,2.2 1.1,5.9 1.5,12.1 0,18 0.7,0.3 1.3,0.7 2,1 0.1,4.4 0.1,8.8 0.1,13.1 0,1.5 0,3 0,4.5 0,2.1 0,4.3 0,6.4 0,1.9 0,1.9 0,3.9 -0.2,3.1 -0.2,3.1 -2.2,5.1 -2.9,0.3 -2.9,0.3 -6.6,0.4 -1,0 -1,0 -2,0.1 -2.1,0 -4.2,0.1 -6.4,0.1 -2.8,0.1 -5.5,0.1 -8.3,0.2 -0.7,0 -1.3,0 -2,0.1 -4.8,0.1 -9.6,0.5 -14.4,1 -3.9,0.3 -7.5,-0.2 -11.3,-0.8 -1.6,-1.6 -1.2,-3.6 -1.3,-5.8 0,-1 -0.1,-2.1 -0.1,-3.1 0,-1.1 -0.1,-2.2 -0.1,-3.4 0,-1.2 -0.1,-2.3 -0.1,-3.5 -0.1,-2.4 -0.1,-4.9 -0.2,-7.3 -0.1,-3.7 -0.2,-7.5 -0.3,-11.2 0,-2.4 -0.1,-4.7 -0.1,-7.1 -0.1,-1.7 -0.1,-1.7 -0.1,-3.4 0,-1 0,-2.1 0,-3.1 0,-0.9 0,-1.8 -0.1,-2.8 0.1,-0.7 0.2,-1.5 0.3,-2.2 3.9,-2.6 6.6,-2.5 10.8,-2.4 z m -8.5,3.2 c 0,16.5 0,33 0,50 16.5,0 33,0 50,0 0,-16.5 0,-33 0,-50 -16.5,0 -33,0 -50,0 z"
   id="path27" />
<path
   class="st21"
   d="m 323.3955,240.75188 c 0.3,0.7 0.7,1.3 1,2 0.7,0 1.3,0 2,0 0.5,0.6 1,1.3 1.4,1.9 1.5,2.3 1.5,2.3 4.6,3.1 0.1,0.6 0.3,1.2 0.5,1.8 0.7,2.9 2,3.8 4.3,5.7 1.1,0.9 1.1,0.9 2.2,1.8 0.7,0.6 1.3,1.1 2,1.7 0.9,0.8 1.7,1.5 2.6,2.3 2.7,1.9 5.2,2.8 8.4,3.7 0,1 0,2 0,3 1.3,0.3 2.6,0.7 4,1 0,0.7 0,1.3 0,2 1.1,-0.1 1.1,-0.1 2.2,-0.2 2.8,0.2 2.8,0.2 5.1,2 1.7,2.2 1.7,2.2 1.7,6.2 1,0.5 1,0.5 2,1 2.3,2 3,3 4,6 4.3,2.9 7.4,3.3 12.5,2.4 1.2,-0.3 2.4,-0.7 3.7,-1 1.2,-0.3 2.4,-0.6 3.7,-1 3.6,-1.6 4.5,-2.8 6.1,-6.4 0.3,-1 0.7,-2 1,-3 0.7,0 1.3,0 2,0 -0.3,-9.3 -0.3,-9.3 -3,-18 -2.5,-1.2 -2.5,-1.2 -5,-2 -0.5,-1.5 -0.5,-1.5 -1,-3 4.6,1.2 6.4,3.5 9,7.2 2.5,4.4 2.5,8.8 2,13.8 -2.1,6.5 -5.2,11.3 -11.1,14.9 -5.9,2.1 -12.3,1.9 -18.2,0.1 -4.1,-3 -7.6,-7.2 -9.4,-12 -1.9,-3.1 -4.9,-4.3 -8,-6 -12.2,-7 -23.8,-16.7 -32.2,-28 -0.1,-1 -0.1,-2 -0.1,-3 z"
   id="path28" />
<path
   class="st22"
   d="m 417.6955,74.851878 c 4.8,3.5 9.3,8 10.7,13.9 0.8,6.7 -0.4,12.200002 -4,18.000002 -3.6,4.1 -7.8,6.6 -13.3,7.2 -6.1,0.3 -10.8,-0.5 -15.7,-4.2 -2.5,-2.5 -4.8,-5.2 -7,-8 0.7,-0.3 1.3,-0.7 2,-1 0.8,0.8 1.5,1.6 2.3,2.4 2.4,2.4 4.6,4.1 7.7,5.6 0,0.7 0,1.3 0,2 1.1,0 2.2,0 3.3,-0.1 3.7,0.1 3.7,0.1 6.7,1.1 3.2,-0.6 6.1,-1.5 9,-3 1.7,-2.5 1.7,-2.5 2,-5 0.7,0 1.3,0 2,0 0.3,-1.3 0.7,-2.6 1,-4.000002 0.7,0 1.3,0 2,0 -0.5,-7.4 -0.5,-7.4 -1,-15 -1.3,-0.3 -2.6,-0.7 -4,-1 -0.2,-0.8 -0.5,-1.6 -0.8,-2.4 -1.5,-3 -2,-3.3 -5.1,-4.5 -4.3,-1.4 -7.2,-1.1 -11.2,0.9 -1.2,0.1 -2.3,0.2 -3.5,0.3 -1.2,0.2 -2.3,0.4 -3.5,0.7 -1.3,1.8 -1.3,1.8 -2,4 -1.9,2.1 -3.3,2.9 -6.1,3.2 -2.6,0 -5.1,0 -7.6,-0.1 -0.9,0 -1.8,0 -2.7,0 -2.2,0 -4.4,-0.1 -6.6,-0.1 0,-0.3 0,-0.7 0,-1 1.8,0 1.8,0 3.7,0 8.7,0.3 8.7,0.3 16.6,-2.5 1.4,-1.8 1.4,-1.8 2.6,-3.8 4.5,-6.7 15.8,-5.8 22.5,-3.6 z"
   id="path29" />
<path
   class="st23"
   d="m 352.3955,465.55188 c 0.8,0 1.6,0 2.5,0 2.7,0 5.4,0.1 8.1,0.1 1.9,0 3.8,0.1 5.6,0.1 5,0.1 9.9,0.2 14.8,0.3 5.1,0.1 10.1,0.2 15.2,0.2 9.9,0.1 19.8,0.3 29.7,0.5 1,2.5 1,2.5 2,5 -1,-0.5 -1,-0.5 -2,-1 0,-0.7 0,-1.3 0,-2 -28.1,0 -56.1,0 -85,0 0,8.2 0,16.5 0,25 -0.3,0 -0.7,0 -1,0 -0.3,-4.1 -0.5,-8.2 -0.7,-12.3 -0.1,-1.2 -0.1,-2.3 -0.2,-3.5 0,-1.1 -0.1,-2.2 -0.2,-3.4 0,-1 -0.1,-2.1 -0.2,-3.1 0.2,-2.6 0.2,-2.6 1.3,-4.3 3.2,-2.2 6.5,-1.7 10.1,-1.6 z"
   id="path30" />
<path
   class="st24"
   d="m 351.3955,391.75188 c 1.3,0.7 2.6,1.3 4,2 0,1 0,2 0,3 1,0.3 2,0.7 3,1 1.7,2.1 1.7,2.1 3,4 -0.7,0.7 -1.3,1.3 -2,2 -2,-2.3 -4,-4.6 -6,-7 -12.7,4.5 -22.5,16.7 -29,28 0.6,0 1.1,-0.1 1.7,-0.1 6,-0.3 9.4,0.5 14.3,4.1 3.1,4.9 3.4,8.8 3.2,14.4 0,1.1 0,1.1 0,2.2 0,1.8 -0.1,3.6 -0.1,5.4 0.7,0.3 1.3,0.7 2,1 -1,0.5 -1,0.5 -2,1 -1,-0.7 -2,-1.3 -3,-2 0.7,0 1.3,0 2,0 -0.3,-0.7 -0.7,-1.3 -1,-2 0,-1.3 0,-2.7 0.1,-4 0.1,-5.4 -1.4,-10 -3.1,-15 -1.5,0.5 -1.5,0.5 -3,1 0,-0.7 0,-1.3 0,-2 -1,0 -2,0 -3,0 0,-0.7 0,-1.3 0,-2 -3,-0.3 -5.9,-0.7 -9,-1 -0.3,-1.3 -0.7,-2.6 -1,-4 1,-1.5 1,-1.5 2,-3 0.7,0 1.3,0 2,0 -0.3,-1 -0.7,-2 -1,-3 1,-0.3 2,-0.7 3,-1 0,-0.7 0,-1.3 0,-2 1.4,-1.6 1.4,-1.6 3,-3 0.7,0 1.3,0 2,0 0,-1 0,-2 0,-3 1.6,-1 3.3,-2 5,-3 2.3,-2.2 4.5,-4.5 6.7,-6.8 1.3,-1.2 1.3,-1.2 3.3,-1.2 0.3,-0.7 0.7,-1.3 1,-2 0.7,0.3 1.3,0.7 2,1 -0.1,-1 -0.1,-2 -0.1,-3 z"
   id="path31" />
<path
   class="st25"
   d="m 524.3955,204.75188 c 0.7,1.3 1.3,2.6 2,4 1,0 2,0 3,0 0,0.7 0,1.3 0,2 0.7,0 1.3,0 2,0 0.3,0.7 0.7,1.3 1,2 3.2,2 6,2.4 9.8,2.6 1,0.1 2,0.2 3,0.2 0.8,0 1.5,0.1 2.3,0.1 1.1,2.3 1.1,2.3 2,5 -1.8,4.2 -4.8,6.9 -8,10 -5.7,5.9 -5.7,5.9 -10.2,12.8 -1.9,3.4 -3.8,5.8 -6.8,8.2 -1.3,0 -2.6,0 -4,0 0,-0.7 0,-1.3 0,-2 -0.7,0 -1.3,0 -2,0 -1.7,-1.6 -3.4,-3.3 -5,-5 -0.7,-0.3 -1.3,-0.7 -2,-1 0.3,-1 0.7,-2 1,-3 0.5,0.4 0.9,0.8 1.4,1.2 0.6,0.5 1.2,1.1 1.9,1.6 0.6,0.5 1.2,1.1 1.9,1.6 1.9,1.7 1.9,1.7 4.8,3.5 14.1,-14.3 14.1,-14.3 25,-31 -1.3,0.1 -2.6,0.1 -3.9,0.2 -5.7,0 -11.5,-0.7 -15.7,-4.8 -2.4,-2.8 -3.5,-4.4 -3.5,-8.2 z"
   id="path32" />
<path
   class="st26"
   d="m 432.5955,523.45188 c 1.6,0.8 1.6,0.8 3.8,2.3 -3,1 -5,1 -8,0 0,-0.7 0,-1.3 0,-2 -0.6,0.2 -1.1,0.4 -1.7,0.6 -3.8,1.3 -7.2,2.4 -11.2,2.8 -3.1,0.2 -3.1,0.2 -4.3,2.2 -0.2,0.8 -0.5,1.5 -0.8,2.3 -0.5,0.9 -1,1.7 -1.6,2.6 -1.9,4.4 -2.6,8.6 -2.4,13.4 1.3,2.9 1.3,2.9 3,5 0,1 0,2 0,3 1,0 2,0 3,0 0,1 0,2 0,3 1.1,0 2.1,-0.1 3.2,-0.1 3.4,0.1 5,0.3 7.8,2.1 -1.6,1.1 -1.6,1.1 -4,2 -6,-1.2 -9.9,-4.6 -13.8,-9.1 -2.5,-6.1 -3.2,-12.4 -0.8,-18.6 5.6,-10.7 16.1,-15.1 27.8,-11.5 z"
   id="path33" />
<path
   class="st27"
   d="m 337.3955,502.75188 c 1,0.3 2,0.7 3,1 -5.1,5.1 -8.8,6.1 -16,7 -5.6,0 -11.2,0 -17,0 0,11.9 0,23.8 0,36 1.6,0.7 3.3,1.3 5,2 7,7.5 7,7.5 7,13 -0.7,0 -1.3,0 -2,0 -0.7,-2.6 -1.3,-5.3 -2,-8 -0.7,0 -1.3,0 -2,0 -0.7,-0.7 -1.3,-1.3 -2,-2 -1.3,-1 -1.3,-1 -2.6,-1.9 -2.4,-2.1 -2.4,-2.1 -3.4,-5.1 0,-2.6 0,-5.2 0,-7.9 0,-0.8 0,-1.5 0.1,-2.3 0,-1.6 0.1,-3.2 0.1,-4.9 0.1,-2.5 0.1,-5 0.2,-7.5 0,-1.6 0.1,-3.1 0.1,-4.7 0,-0.8 0,-1.5 0,-2.3 0.2,-5.3 0.2,-5.3 2.4,-7.5 2,-0.2 2,-0.2 4.4,-0.1 0.9,0 1.8,0 2.7,0 1.9,0 3.7,0.1 5.6,0.2 1.3,0 1.3,0 2.7,0 0.8,0 1.6,0 2.4,0.1 2.5,-0.2 4,-1 6.3,-2.2 1,0 2,0 3,0 0.6,-0.9 1.3,-1.9 2,-2.9 z"
   id="path34" />
<path
   class="st28"
   d="m 289.3955,174.75188 c 14.5,0 29,0 44,0 1.2,2.3 1.1,3.6 1,6.2 0,0.9 0,1.7 -0.1,2.6 0,1.4 0,1.4 -0.1,2.8 0,1.4 0,1.4 -0.1,2.9 -0.1,3 -0.2,6.1 -0.2,9.1 0,2.1 -0.1,4.1 -0.2,6.2 -0.1,5.1 -0.3,10.1 -0.4,15.2 -0.3,0 -0.7,0 -1,0 0,-14.2 0,-28.4 0,-43 -14.5,0 -29,0 -44,0 0.4,-0.7 0.7,-1.3 1.1,-2 z"
   id="path35" />
<path
   class="st29"
   d="m 541.3955,252.75188 c 0,3 0,3 -2.6,5.9 -2.7,2.7 -2.7,2.7 -2.3,5 1,2.5 2.4,4.4 3.9,6.6 3.5,5.8 4.4,10.9 2.9,17.5 -1.8,3.3 -4.2,5.5 -7,8 -1.2,1.1 -1.2,1.1 -2.5,2.3 -2.2,1.9 -4.3,3.9 -6.5,5.7 -0.7,-0.3 -1.3,-0.7 -2,-1 0,-0.7 0,-1.3 0,-2 2,-1.4 4,-2.5 6.1,-3.7 2.2,-1.3 2.2,-1.3 2.9,-4.3 1,0 2,0 3,0 3.1,-6.4 3.8,-13.3 1.8,-20.1 -0.9,-2.1 -2,-3.4 -3.5,-5.1 -2.3,-2.8 -2.3,-2.8 -2.2,-4.9 0.3,-0.6 0.6,-1.2 0.9,-1.9 0.3,-0.7 0.7,-1.5 1.1,-2.2 0.3,-0.6 0.6,-1.1 0.9,-1.8 0.7,0 1.3,0 2,0 0,-0.7 0,-1.3 0,-2 1.1,-0.7 2.1,-1.3 3.1,-2 z"
   id="path36" />
<path
   class="st30"
   d="m 391.3955,253.75188 c 4.6,1.2 6.4,3.5 9,7.2 2.5,4.4 2.5,8.8 2,13.8 -2.1,6.5 -5.2,11.3 -11.1,14.9 -4.7,1.8 -9.9,1.8 -14.9,1.1 -0.7,-0.7 -1.3,-1.3 -2,-2 0.7,0 1.4,0 2,-0.1 6.7,-0.4 13.2,-1.2 19,-4.9 1.7,-2.4 2.2,-4.1 3,-7 0.7,0 1.3,0 2,0 -0.3,-9.3 -0.3,-9.3 -3,-18 -2.5,-1.2 -2.5,-1.2 -5,-2 -0.3,-1 -0.7,-2 -1,-3 z"
   id="path37" />
<path
   class="st31"
   d="m 910.3955,719.75188 c 0.1,2.8 0.1,5.6 0.2,8.4 0,0.8 0.1,1.6 0.1,2.4 0,2.1 -0.1,4.1 -0.3,6.2 -1,0.7 -2,1.3 -3,2 0.3,-5.6 0.7,-11.2 1,-17 -24.1,0 -48.2,0 -73,0 0,-0.3 0,-0.7 0,-1 9.5,-0.1 19,-0.3 28.4,-0.4 4.4,-0.1 8.8,-0.1 13.2,-0.2 4.2,-0.1 8.5,-0.1 12.7,-0.2 1.6,0 3.2,0 4.9,-0.1 2.3,0 4.5,-0.1 6.8,-0.1 1.9,0 1.9,0 3.9,-0.1 1.7,0.1 3.4,0.1 5.1,0.1 z"
   id="path38" />
<path
   class="st32"
   d="m 239.3955,51.751878 c 20.1,0 40.3,0 61,0 0,0.3 0,0.7 0,1 -1,0.1 -2.1,0.1 -3.2,0.2 -1.4,0.1 -2.8,0.2 -4.3,0.3 -0.7,0 -1.5,0.1 -2.2,0.1 -3.7,0.2 -7.3,0.5 -10.9,1 -13.5,1.6 -27,-0.1 -40.4,-1.6 0,-0.3 0,-0.7 0,-1 z"
   id="path39" />
<path
   class="st33"
   d="m 439.5955,441.05188 c 0.9,0.3 0.9,0.3 1.8,0.7 -0.9,0.3 -1.7,0.7 -2.6,1.1 -3.2,1.8 -4,2.7 -6.1,5.5 -2.3,2.7 -3.7,3.9 -7.2,4.3 -1.5,0 -3,0 -4.5,-0.1 -0.8,0 -1.6,0 -2.5,0 -2.7,0 -5.4,-0.1 -8.1,-0.1 -1.9,0 -3.8,0 -5.6,0 -4.9,0 -9.9,-0.1 -14.8,-0.2 -5,-0.1 -10,-0.1 -15.1,-0.1 -9.9,-0.1 -19.7,-0.2 -29.6,-0.3 0,-0.3 0,-0.7 0,-1 27.4,0 54.8,0 83,0 0.7,-1.3 1.3,-2.6 2,-4 1.6,-1.7 1.6,-1.7 3.4,-3.3 0.9,-0.8 0.9,-0.8 1.8,-1.6 1.9,-1.2 1.9,-1.2 4.1,-0.9 z"
   id="path40" />
<path
   class="st34"
   d="m 547.6955,145.35188 c 0.7,0 1.4,0 2.1,0 1.1,0 1.1,0 2.2,0 1.6,0 3.1,0 4.7,0 2.4,0 4.7,0.1 7.1,0.1 25.3,0.1 25.3,0.1 28.4,3.2 -17.5,0 -35,0 -53,0 3.4,-3.1 4.2,-3.2 8.5,-3.3 z"
   id="path41" />
<path
   class="st35"
   d="m 274.4955,424.65188 c 1,0 2,0 3,0 1.5,0 1.5,0 3.1,0 1,0 2,0 3,0 6.3,0 12.6,0.4 18.9,1.1 0,0.3 0,0.7 0,1 -1.6,0.2 -3.2,0.4 -4.8,0.6 -0.9,0.1 -1.8,0.2 -2.7,0.3 -2.5,0.1 -2.5,0.1 -5.5,-0.9 -2.1,0.2 -4.1,0.5 -6.2,0.8 -5.6,0.5 -11.2,0.3 -16.8,0.2 0,1 0,2 0,3 -0.9,0 -0.9,0 -1.8,0.1 -2.6,0.8 -2.6,0.8 -3.9,4.5 -0.4,1.1 -0.8,2.3 -1.2,3.4 -0.7,-1.3 -1.3,-2.6 -2,-4 5,-8.1 5,-8.1 9.8,-9.6 2.3,-0.5 4.5,-0.5 7.1,-0.5 z"
   id="path42" />
<path
   class="st36"
   d="m 242.3955,70.751878 c 0.7,0 1.3,0 2,0 0,15.8 0,31.700002 0,48.000002 -1,0.5 -1,0.5 -2,1 -0.2,-4.7 -0.3,-9.5 -0.5,-14.2 0,-1.6 -0.1,-3.2 -0.2,-4.8 -0.3,-10.100002 -0.3,-19.900002 0.7,-30.000002 z"
   id="path43" />
<path
   class="st37"
   d="m 12.395499,677.75188 c 15.5,0 31,0 47,0 -0.3,0.7 -0.7,1.3 -1,2 -4.7,1.5 -9.6,1.1 -14.5,1.1 -0.9,0 -1.8,0 -2.7,0 -2.9,0 -5.8,0 -8.6,0 -2,0 -3.9,0 -5.9,0 -4.8,0 -9.6,0 -14.3,0 -0.3,0.7 -0.7,1.3 -1,2 0.3,-1.8 0.6,-3.4 1,-5.1 z"
   id="path44" />
<path
   class="st38"
   d="m 279.3955,507.65188 c 0.7,0 1.4,0 2.2,0 3.2,0 5.7,0.1 8.8,1.1 0,12.5 0,25.1 0,38 -0.3,0 -0.7,0 -1,0 0,-11.9 0,-23.8 0,-36 -6.5,0.1 -6.5,0.1 -13,0.2 -0.8,0 -1.6,0 -2.4,0 -0.8,0 -1.7,0 -2.5,0 -2.1,-0.2 -2.1,-0.2 -4.1,-2.2 3.9,-1.3 7.9,-1.1 12,-1.1 z"
   id="path45" />
<path
   class="st39"
   d="m 606.3955,210.75188 c 0,1 0,2 0,3 -4.6,4.3 -9.1,4.1 -15.2,4.1 -1,0 -1,0 -2.1,0 -2.2,0 -4.3,0 -6.5,0 -1.5,0 -3,0 -4.4,0 -3.6,0 -7.2,0 -10.8,-0.1 -0.3,0.9 -0.6,1.9 -0.9,2.9 -1,2.9 -2.1,5 -3.7,7.5 -0.4,0.7 -0.9,1.4 -1.4,2.1 -0.3,0.5 -0.7,1 -1,1.5 -1,-2 -1,-2 -0.2,-4.3 1.2,-2.7 1.2,-2.7 2.8,-5.2 1.3,-2.2 1.9,-3.9 2.4,-6.4 0.9,0 1.7,0 2.6,0 3.2,0 6.5,0.1 9.8,0.1 1.4,0 2.8,0 4.2,0 12.4,0.7 12.4,0.7 23.4,-3.8 0.3,-0.5 0.6,-0.9 1,-1.4 z"
   id="path46" />
<path
   class="st40"
   d="m 337.3955,502.75188 c 1,0.3 2,0.7 3,1 -6.7,6.7 -13.6,7.1 -22.8,7.1 -3.4,0 -6.8,-0.1 -10.2,-0.1 0.3,-1 0.7,-2 1,-3 0.6,0 1.2,0 1.8,0 2.7,0 5.3,0.1 8,0.1 0.9,0 1.8,0 2.8,0.1 0.9,0 1.8,0 2.7,0 1.2,0 1.2,0 2.5,0 2.5,-0.2 4.1,-1.1 6.3,-2.2 1,0 2,0 3,0 0.5,-1 1.2,-2 1.9,-3 z"
   id="path47" />
<path
   class="st41"
   d="m 575.3955,129.75188 c 3.5,-0.1 7,-0.1 10.6,-0.2 1,0 2,-0.1 3,-0.1 6.7,-0.1 11.9,0.3 17.2,4.7 4.1,5.4 4.1,5.4 4.3,8.5 -0.7,0.7 -1.3,1.3 -2,2 -0.1,-0.8 -0.2,-1.6 -0.4,-2.4 -0.2,-0.8 -0.4,-1.7 -0.6,-2.6 -0.7,-0.3 -1.3,-0.7 -2,-1 0.3,-0.7 0.7,-1.3 1,-2 -3.8,-2.2 -7.8,-3 -12,-4 0,-0.7 0,-1.3 0,-2 -6.3,0 -12.5,0 -19,0 -0.1,-0.2 -0.1,-0.6 -0.1,-0.9 z"
   id="path48" />
<path
   class="st42"
   d="m 472.3955,354.75188 c 0,4 -1.5,5 -4,8 -1.8,3 -2.2,5.2 -2.1,8.8 0,0.8 0,1.6 0,2.4 0,0.6 0,1.2 0.1,1.8 0.7,0.3 1.3,0.7 2,1 -0.7,0.7 -1.3,1.3 -2,2 0,-0.7 0,-1.3 0,-2 -0.7,0 -1.3,0 -2,0 -1.7,-5.3 -1.6,-10.2 0.7,-15.2 1.8,-3.5 3.7,-5.2 7.3,-6.8 z"
   id="path49" />
<path
   class="st24"
   d="m 341.3955,233.75188 c 1.6,0 3.3,0 5,0 -0.3,0.7 -0.7,1.3 -1,2 -0.7,0 -1.3,0 -2,0 6.6,9.8 14.7,16.3 25,22 -1.3,0.3 -2.6,0.7 -4,1 0,-0.7 0,-1.3 0,-2 -2.7,-1.1 -5.3,-2.1 -8,-3 0,-0.7 0,-1.3 0,-2 -0.6,-0.2 -1.1,-0.5 -1.7,-0.8 -6.1,-3.3 -12.1,-8.6 -14.3,-15.2 0.3,-0.7 0.6,-1.3 1,-2 z"
   id="path50" />
<path
   class="st43"
   d="m 278.3955,562.75188 c 0.1,0.6 0.2,1.3 0.4,1.9 0.2,0.7 0.4,1.4 0.6,2.1 0.7,0.3 1.3,0.7 2,1 0,2 0,4 0,6 0.7,0 1.3,0 2,0 0.1,0.8 0.1,0.8 0.1,1.7 1.4,3.6 3.8,5.2 6.9,7.3 2.7,0.3 2.7,0.3 5,0 0.3,0.3 0.7,0.7 1,1 2.3,0.4 4.7,0.7 7,1 0,0.3 0,0.7 0,1 -10.7,0.6 -10.7,0.6 -15.4,-1.6 -4.7,-4.3 -9.3,-8.8 -9.7,-15.5 0,-2 0,-3.9 0.1,-5.9 z"
   id="path51" />
<path
   class="st44"
   d="m 514.3955,267.75188 c 2.4,0.8 2.4,0.8 5,2 0.3,1 0.7,2 1,3 1,0.3 2,0.7 3,1 0.3,1 0.7,2 1,3 1.5,1.7 1.5,1.7 3,3 -2.9,5.8 -7.4,8.2 -13,11 0.9,-1.1 1.9,-2.2 2.8,-3.4 0.5,-0.6 1,-1.2 1.6,-1.9 1.6,-1.7 1.6,-1.7 4.6,-3.7 -0.6,-3.9 -2.4,-5.9 -5.1,-8.7 -3.9,-4.2 -3.9,-4.2 -3.9,-5.3 z"
   id="path52" />
<path
   class="st45"
   d="m 347.3955,776.75188 c 0.3,0 0.7,0 1,0 0.1,2.4 0.2,4.8 0.3,7.2 0,0.7 0.1,1.3 0.1,2 0.1,4 -0.3,5.6 -2.8,8.7 -2.5,2 -4.9,3.6 -7.6,5.1 -1,0.7 -2,1.3 -3,2 -2.7,0.1 -2.7,0.1 -5,0 2,-2 3.5,-2.9 6,-4.1 0.7,-0.4 1.4,-0.7 2.1,-1.1 1.9,-0.8 1.9,-0.8 3.9,-0.8 0.7,-1.3 1.3,-2.7 2,-4 0.3,-0.7 0.7,-1.4 1.1,-2.1 1.3,-4.2 1.6,-8.5 1.9,-12.9 z"
   id="path53" />
<path
   class="st46"
   d="m 541.3955,252.75188 c 0,3 0,3 -2.6,5.9 -2.7,2.7 -2.7,2.7 -2.3,5 1,2.5 2.4,4.4 3.9,6.6 3.4,5.5 3.6,10.1 2.9,16.4 -0.3,0 -0.7,0 -1,0 -0.1,-1.3 -0.1,-2.6 -0.2,-3.9 -0.7,-6.1 -3.1,-12.4 -7.5,-16.8 -0.4,-0.4 -0.9,-0.9 -1.3,-1.3 0.3,-3 1.6,-5.4 3,-8 0.7,0 1.3,0 2,0 0,-0.7 0,-1.3 0,-2 1.1,-0.6 2.1,-1.2 3.1,-1.9 z"
   id="path54" />
<path
   class="st47"
   d="m 524.3955,204.75188 c 0.7,1.3 1.3,2.6 2,4 1,0 2,0 3,0 0,0.7 0,1.3 0,2 0.7,0 1.3,0 2,0 0.3,0.7 0.7,1.3 1,2 3.2,2 6,2.4 9.8,2.6 1,0.1 2,0.2 3,0.2 0.8,0 1.5,0.1 2.3,0.1 0,0.3 0,0.7 0,1 -6.6,1.2 -12,1.4 -18,-2 -2.1,-2.1 -3.8,-4.3 -5,-7 -0.1,-0.9 -0.1,-1.9 -0.1,-2.9 z"
   id="path55" />
<path
   class="st48"
   d="m 530.3955,132.75188 c -0.3,1 -0.7,2 -1,3 -1,0.5 -1,0.5 -2,1 -3.4,9.9 -2.6,21.6 -3,32 -0.3,0 -0.7,0 -1,0 -0.1,-4.3 -0.2,-8.6 -0.3,-13 0,-1.5 -0.1,-2.9 -0.1,-4.4 -0.1,-2.1 -0.1,-4.2 -0.1,-6.3 0,-1.3 0,-2.6 -0.1,-3.9 0.7,-4.1 2.9,-8.4 7.6,-8.4 z"
   id="path56" />
<path
   class="st49"
   d="m 505.3955,318.75188 c 1,0.3 2,0.7 3,1 -5.4,4.5 -8.8,6.4 -15.7,6.3 -3.2,-0.4 -5.6,-1.5 -8.3,-3.3 -0.3,-0.7 -0.7,-1.3 -1,-2 0.8,0.2 1.6,0.5 2.4,0.7 1.1,0.3 2.1,0.6 3.2,0.9 1,0.3 2.1,0.6 3.2,0.9 3.1,0.6 5.1,0.6 8.1,-0.4 0.3,-0.7 0.7,-1.3 1,-2 1,0 2,0 3,0 0.4,-0.8 0.7,-1.4 1.1,-2.1 z"
   id="path57" />
<path
   class="st50"
   d="m 358.3955,373.75188 c 3.8,1.5 5.8,3.7 8.3,6.8 1.1,1.3 1.1,1.3 2.2,2.6 1.5,2.6 1.5,2.6 1.2,5.4 -0.4,1.1 -0.4,1.1 -0.7,2.2 -2.9,-2.6 -4.3,-4.2 -5,-8 -0.7,-1 -1.3,-2 -2,-3 -1,0 -2,0 -3,0 -0.3,-2 -0.7,-4 -1,-6 z"
   id="path58" />
<path
   class="st51"
   d="m 364.3955,806.75188 c 0,3 0,3 -1.7,4.7 -5,3.9 -10.1,7.6 -16.3,9.3 -1,-0.3 -2,-0.7 -3,-1 0.8,-0.3 1.5,-0.7 2.3,-1 1.5,-0.7 1.5,-0.7 3,-1.3 1.5,-0.7 1.5,-0.7 3,-1.3 2.9,-1.3 2.9,-1.3 4.6,-4.4 1,0 2,0 3,0 0.3,-1 0.7,-2 1,-3 2.1,-1.2 2.1,-1.2 4.1,-2 z"
   id="path59" />
<path
   class="st52"
   d="m 388.3955,100.75188 c 2.8,0.4 3.8,0.7 5.6,2.9 0.5,0.7 1,1.4 1.4,2.1 2.8,1.9 2.8,1.9 5,3 0,0.7 0,1.3 0,2 2.3,0 4.6,0 7,0 -0.3,1 -0.7,2 -1,3 -6,-0.3 -9.7,-3.1 -14,-7 -1.6,-1.9 -2.8,-3.8 -4,-6 z"
   id="path60" />
<path
   class="st53"
   d="m 504.3955,297.75188 c 0.7,0.3 1.3,0.7 2,1 -3.4,4.1 -6.7,7.8 -11,11 -1.1,-0.9 -2.3,-1.8 -3.4,-2.8 -0.6,-0.5 -1.2,-1 -1.9,-1.5 -1.7,-1.7 -1.7,-1.7 -3.7,-5.7 2.3,2 4.6,4 7,6 5,-1.5 7.5,-4.3 11,-8 z"
   id="path61" />
<path
   class="st54"
   d="m 466.3955,278.75188 c 15.5,12.8 15.5,12.8 20,21 -3.8,-1.5 -5.5,-3.8 -8,-7 -2.2,-2.3 -4.5,-4.6 -6.9,-6.8 -0.6,-0.6 -1.3,-1.2 -1.9,-1.9 -0.6,-0.6 -1.2,-1.2 -1.8,-1.8 -1.4,-1.5 -1.4,-1.5 -1.4,-3.5 z"
   id="path62" />
<path
   class="st55"
   d="m 281.5955,686.05188 c 0.6,0.2 1.2,0.4 1.8,0.7 -1.4,1.5 -2.8,3 -4.2,4.4 -1.2,1.2 -1.2,1.2 -2.4,2.5 -2.3,2 -3.4,2.7 -6.4,3.1 6,-11.5 6,-11.5 11.2,-10.7 z"
   id="path63" />
<path
   class="st56"
   d="m 285.3955,548.75188 c 0.3,1 0.7,2 1,3 -0.7,0.7 -1.3,1.3 -2,2 -0.6,1.5 -1.1,3.1 -1.6,4.6 -0.3,0.8 -0.5,1.6 -0.8,2.5 -0.2,0.6 -0.4,1.2 -0.6,1.9 -1,0 -2,0 -3,0 0.3,-6.1 3.3,-9.5 7,-14 z"
   id="path64" />
<path
   class="st57"
   d="m 388.3955,251.75188 c 0.7,0.3 1.3,0.7 2,1 -0.3,0.7 -0.7,1.3 -1,2 -1.1,-0.1 -1.1,-0.1 -2.2,-0.1 -6.7,-0.2 -10.4,0.3 -15.8,4.1 -1,0.5 -1,0.5 -2,1 1.2,-3.7 3.5,-5.4 6.9,-7.2 3.9,-1.4 8,-1.3 12.1,-0.8 z"
   id="path65" />
<path
   class="st58"
   d="m 323.3955,240.75188 c 0.3,0.7 0.7,1.3 1,2 0.7,0 1.3,0 2,0 0.5,0.6 1,1.3 1.4,1.9 1.5,2.3 1.5,2.3 4.6,3.1 0.1,0.6 0.2,1.1 0.3,1.8 1.1,3.6 3.8,5 6.7,7.2 -0.7,0.7 -1.3,1.3 -2,2 -10.6,-10.4 -10.6,-10.4 -14,-15 0,-1 0,-2 0,-3 z"
   id="path66" />
<path
   class="st59"
   d="m 540.3955,198.75188 c 2.8,-0.1 5.5,-0.1 8.2,-0.1 0.8,0 1.5,0 2.4,-0.1 7.1,-0.1 7.1,-0.1 10.4,2.2 -6.9,0.8 -13.2,1.2 -20,0 -0.3,-0.7 -0.7,-1.3 -1,-2 z"
   id="path67" />
<path
   class="st60"
   d="m 556.3955,234.75188 c 0,3.9 -1.3,5 -3.8,8 -0.7,0.9 -1.4,1.7 -2.1,2.6 -1.9,2.1 -3.8,3.8 -6.1,5.4 0,-1.3 0,-2.6 0,-4 1.6,-1 3.3,-2 5,-3 0,-1 0,-2 0,-3 0.6,-0.3 1.3,-0.5 1.9,-0.8 2.4,-1.1 2.4,-1.1 3.1,-4.2 0.6,-0.3 1.3,-0.7 2,-1 z"
   id="path68" />
<path
   class="st61"
   d="m 565.3955,215.75188 c 1.3,0.3 2.6,0.7 4,1 -0.7,0 -1.3,0 -2,0 -0.1,0.7 -0.2,1.4 -0.4,2.2 -0.7,2.9 -1.6,5 -3.1,7.6 -0.4,0.8 -0.9,1.6 -1.3,2.4 -1.2,1.9 -1.2,1.9 -3.2,2.9 1.1,-4.5 2.5,-8.1 5,-12 0.7,-2.3 0.7,-2.3 1,-4.1 z"
   id="path69" />
<path
   class="st62"
   d="m 518.3955,184.75188 c 2.4,0.2 2.4,0.2 5,1 2.3,4 2.1,7.3 1.6,11.8 -0.1,1.2 -0.2,2.3 -0.3,3.5 -0.1,0.9 -0.2,1.8 -0.3,2.7 -0.3,0 -0.7,0 -1,0 -0.1,-1.2 -0.2,-2.4 -0.3,-3.6 -0.2,-1.6 -0.3,-3.2 -0.5,-4.7 -0.1,-0.8 -0.1,-1.6 -0.2,-2.4 -0.2,-2.1 -0.6,-4.2 -1,-6.2 -1,-0.8 -2,-1.4 -3,-2.1 z"
   id="path70" />
<path
   class="st63"
   d="m 225.3955,103.75188 c 0.3,0 0.7,0 1,0 0.2,2.3 0.4,4.7 0.6,7.1 0.1,1.3 0.2,2.6 0.3,4 0.1,3.9 -0.2,7.2 -0.9,11 -4,-6.2 -2.3,-15.2 -1,-22.1 z"
   id="path71" />
<path
   class="st64"
   d="m 545.3955,75.751878 c 2,3 2,3 2,5 0.7,0 1.3,0 2,0 0.6,0.9 1.1,1.9 1.8,2.8 2.5,3.5 4.3,4.6 8.2,6.2 -0.3,1 -0.7,2 -1,3 0,-0.7 0,-1.3 0,-2 -0.8,-0.1 -1.5,-0.2 -2.3,-0.3 -4.7,-1.2 -7.1,-4.8 -9.7,-8.7 -1,-3.5 -1,-3.5 -1,-6 z"
   id="path72" />
<path
   class="st65"
   d="m 550.3955,56.751878 c 0.7,0.3 1.3,0.7 2,1 -1.4,2.5 -1.4,2.5 -3,5 -0.7,0 -1.3,0 -2,0 0.1,1 0.1,1 0.1,2.1 -0.1,3.5 -1.1,6.6 -2.1,9.9 -0.3,0 -0.7,0 -1,0 -0.7,-7.1 0.6,-11.4 5,-17 0.3,-0.3 0.6,-0.7 1,-1 z"
   id="path73" />
<path
   class="st66"
   d="m 493.3955,233.75188 c 5.2,-0.2 9.1,0 14,2 -1,0.5 -1,0.5 -2,1 -0.3,0.7 -0.7,1.3 -1,2 -0.5,-0.3 -1,-0.6 -1.5,-0.9 -3.5,-1.5 -6.7,-1.7 -10.5,-2.1 0.3,-0.7 0.6,-1.3 1,-2 z"
   id="path74" />
<path
   class="st67"
   d="m 372.3955,772.75188 c 2,4 2.4,6.3 2.6,10.8 0.1,1.2 0.1,2.3 0.2,3.5 0,0.9 0.1,1.8 0.2,2.7 -1,0 -2,0 -3,0 0,-5.6 0,-11.2 0,-17 z"
   id="path75" />
<path
   class="st68"
   d="m 371.3955,389.75188 c 3.9,1.8 3.9,1.8 5,4 0.6,-0.3 1.2,-0.7 1.8,-1 2.2,-1 2.2,-1 5.2,-1 -1.7,2 -3.3,4 -5,6 -5.9,-4.6 -5.9,-4.6 -7,-8 z"
   id="path76" />
<path
   class="st69"
   d="m 377.3955,322.75188 c 1,0.7 2,1.3 3,2 -1.8,1 -3.5,2 -5.3,2.9 -1.9,1.1 -1.9,1.1 -3.7,3.1 -1.7,1 -3.3,2 -5,3 1.5,-3.7 3.5,-5.4 6.6,-7.8 0.8,-0.6 1.6,-1.2 2.5,-1.9 0.9,-0.6 0.9,-0.6 1.9,-1.3 z"
   id="path77" />
<path
   class="st70"
   d="m 456.3955,292.75188 c 1,0.3 2,0.7 3,1 -1,3.4 -1.7,4.8 -4.6,6.8 -0.8,0.4 -1.6,0.8 -2.4,1.2 -0.7,-0.7 -1.3,-1.3 -2,-2 0.8,-0.6 1.6,-1.2 2.4,-1.8 2.8,-2 2.8,-2 3.6,-5.2 z"
   id="path78" />
<path
   class="st71"
   d="m 399.3955,160.75188 c 1,0.3 2,0.7 3,1 -1,2 -1,2 -2.9,2.8 -2.8,1.6 -3,3.2 -4.1,6.2 -0.7,0.7 -1.3,1.3 -2,2 0.4,-5.6 2.3,-8 6,-12 z"
   id="path79" />
<path
   class="st72"
   d="m 392.3955,382.75188 c 0.7,0.3 1.3,0.7 2,1 -4.4,5.8 -4.4,5.8 -7.3,6.9 -0.8,0.1 -0.8,0.1 -1.7,0.1 0,-1 0,-2 0,-3 1.5,-1.4 1.5,-1.4 3.5,-2.7 0.6,-0.4 1.3,-0.9 2,-1.3 0.7,-0.5 0.7,-0.5 1.5,-1 z"
   id="path80" />
<path
   class="st73"
   d="m 419.3955,522.75188 c 11.5,-0.5 11.5,-0.5 17,3 -3,1 -5,1 -8,0 0,-0.7 0,-1.3 0,-2 -3,0 -5.9,0 -9,0 0,-0.3 0,-0.7 0,-1 z"
   id="path81" />
<path
   class="st74"
   d="m 407.3955,364.75188 c 2,1.2 2,1.2 4,3 0.2,2.7 0.2,2.7 0,5 -2,1.1 -4,2.1 -6,3 -0.7,-0.3 -1.3,-0.7 -2,-1 1.6,-1.3 3.3,-2.6 5,-4 -0.3,-2 -0.7,-4 -1,-6 z"
   id="path82" />
<path
   class="st75"
   d="m 121.3955,794.75188 c 0,3.6 -0.7,4.1 -3,6.7 -0.6,0.6 -1.1,1.2 -1.7,1.9 -0.4,0.5 -0.9,1 -1.3,1.4 -0.7,-0.3 -1.3,-0.7 -2,-1 1.7,-4 4.1,-7 8,-9 z"
   id="path83" />
<path
   class="st76"
   d="m 441.3955,441.75188 c -1.3,0.5 -1.3,0.5 -2.6,1.1 -4.1,2.4 -6.5,5.2 -9.4,8.9 -0.3,-1 -0.7,-2 -1,-3 1.1,-1.1 2.2,-2.3 3.4,-3.4 0.6,-0.6 1.2,-1.3 1.9,-1.9 2.8,-2.8 4,-2.8 7.7,-1.7 z"
   id="path84" />
<path
   class="st77"
   d="m 530.3955,132.75188 c -0.3,1 -0.7,2 -1,3 -1,0.5 -1,0.5 -2,1 -0.7,2.6 -0.7,2.6 -1.1,5.6 -0.2,1 -0.3,2 -0.5,3.1 -0.1,0.8 -0.2,1.6 -0.4,2.4 -0.3,0 -0.7,0 -1,0 -0.7,-3.4 -1.1,-6.6 -1,-10 3.7,-5.1 3.7,-5.1 7,-5.1 z"
   id="path85" />
<path
   class="st78"
   d="m 127.3955,713.75188 c 3.8,4.5 5.3,9.1 5,15 -3.2,-4.7 -5.5,-9.2 -5,-15 z"
   id="path86" />
<path
   class="st79"
   d="m 440.3955,552.75188 c 0,1 0,2 0,3 -3.9,3.9 -6.4,5.6 -12,6 3,-2 3,-2 5,-2 0,-0.7 0,-1.3 0,-2 1,-0.3 2,-0.7 3,-1 1.4,-1.3 2.7,-2.6 4,-4 z"
   id="path87" />
<path
   class="st80"
   d="m 362.3955,692.75188 c 2.6,2.6 4.9,4.9 7,8 -0.3,1 -0.7,2 -1,3 -0.3,-1 -0.7,-2 -1,-3 -1,-0.3 -2,-0.7 -3,-1 -1.2,-3.6 -1.2,-3.6 -2,-7 z"
   id="path88" />
<path
   class="st81"
   d="m 231.3955,54.751878 c 0.7,0.7 1.3,1.3 2,2 -0.8,0.8 -1.7,1.6 -2.5,2.4 -2.7,2.3 -2.7,2.3 -2.5,4.6 -1,0.3 -2,0.7 -3,1 0.4,-4.8 2.4,-6.8 6,-10 z"
   id="path89" />
<path
   class="st82"
   d="m 129.3955,778.75188 c 1.3,3.9 0.3,5 -1.4,8.7 -0.5,1 -0.9,2 -1.4,3 -0.6,1.1 -0.6,1.1 -1.1,2.3 -1.2,-3.5 -0.7,-5.5 0,-9 1,0 2,0 3,0 0.2,-1.7 0.5,-3.3 0.9,-5 z"
   id="path90" />
<path
   class="st83"
   d="m 99.395498,786.75188 c -0.3,1 -0.7,2 -1,3 -1.7,0.3 -3.3,0.7 -5,1 -0.3,1 -0.7,2 -1,3 -0.699999,0 -1.299999,0 -1.999999,0 1.799999,-4.4 3.999999,-7 8.999999,-7 z"
   id="path91" />
<path
   class="st84"
   d="m 317.3955,563.75188 c 0.3,0 0.7,0 1,0 1.3,7.3 1.3,7.3 -0.4,11 -0.5,0.7 -1,1.3 -1.6,2 -1,-0.3 -2,-0.7 -3,-1 1,-0.3 2,-0.7 3,-1 0.3,-3.6 0.6,-7.3 1,-11 z"
   id="path92" />
<path
   class="st85"
   d="m 334.3955,360.75188 c 0.3,0 0.7,0 1,0 1.3,5.3 2.7,10.7 4,16 -3,-2.7 -4.9,-5.2 -5.2,-9.4 0,-0.8 0,-1.6 0.1,-2.4 0,-0.8 0,-1.6 0,-2.4 0,-0.6 0.1,-1.2 0.1,-1.8 z"
   id="path93" />
<path
   class="st86"
   d="m 542.3955,130.75188 c -2.2,2.2 -3,2.6 -6,3 -2.8,-0.4 -2.8,-0.4 -5,-1 0,-0.7 0,-1.3 0,-2 3.8,-1.4 7.1,-0.7 11,0 z"
   id="path94" />
<path
   class="st87"
   d="m 479.3955,787.75188 c 2,2 2,2 2,5 1,0.3 2,0.7 3,1 -0.3,1.7 -0.7,3.3 -1,5 -2.3,-2.3 -2.5,-3.5 -3.1,-6.6 -0.2,-0.8 -0.3,-1.6 -0.5,-2.5 -0.2,-0.6 -0.3,-1.2 -0.4,-1.9 z"
   id="path95" />
<path
   class="st88"
   d="m 346.3955,395.75188 c 0.7,0.3 1.3,0.7 2,1 -1.1,3.4 -1.9,4.2 -5,6 -2.2,-0.3 -2.2,-0.3 -4,-1 0.6,-0.4 1.2,-0.9 1.8,-1.3 1.9,-1.5 3.5,-3 5.2,-4.7 z"
   id="path96" />
<path
   class="st89"
   d="m 478.3955,264.75188 c 0.7,0.3 1.3,0.7 2,1 -4,3.5 -4,3.5 -8,7 -0.7,-0.3 -1.3,-0.7 -2,-1 0.7,-1.9 0.7,-1.9 2,-4 2.6,-1.2 2.6,-1.2 5,-2 0.3,-0.3 0.6,-0.7 1,-1 z"
   id="path97" />
<path
   class="st90"
   d="m 512.3955,240.75188 c 1.1,0.9 2.3,1.9 3.4,2.8 0.6,0.5 1.3,1 1.9,1.6 1.6,1.6 1.6,1.6 2.6,4.6 -2,0 -2,0 -4.5,-2.4 -0.8,-0.8 -1.7,-1.7 -2.5,-2.6 -0.7,-0.3 -1.3,-0.7 -2,-1 0.4,-1 0.7,-2 1.1,-3 z"
   id="path98" />
<path
   class="st91"
   d="m 460.3955,729.75188 c 0.7,1.3 1.3,2.6 2,4 0.7,0 1.3,0 2,0 1,3 1,3 0.1,5.2 -0.5,0.9 -0.5,0.9 -1.1,1.8 -0.5,-1.3 -1,-2.5 -1.5,-3.8 -0.3,-0.7 -0.6,-1.4 -0.8,-2.2 -0.7,-2 -0.7,-2 -0.7,-5 z"
   id="path99" />
<path
   class="st92"
   d="m 339.3955,354.75188 c 0.3,0.7 0.7,1.3 1,2 -0.7,-0.3 -1.3,-0.7 -2,-1 0.3,-0.3 0.6,-0.7 1,-1 z m -4,2 c 2,0.5 2,0.5 4,1 -1.5,3.5 -1.5,3.5 -3,7 -1.4,-2.4 -2.1,-3.5 -1.6,-6.2 0.2,-0.6 0.4,-1.2 0.6,-1.8 z"
   id="path100" />
<path
   class="st93"
   d="m 371.3955,346.75188 c 0.7,0.3 1.3,0.7 2,1 0,0.7 0,1.3 0,2 -2,1.4 -4,2.7 -6,4 -1,-0.7 -2,-1.3 -3,-2 1,-0.5 1.9,-0.9 2.9,-1.4 3.2,-1.3 3.2,-1.3 4.1,-3.6 z"
   id="path101" />
<path
   class="st94"
   d="m 540.3955,277.75188 c 0.7,0 1.3,0 2,0 0.2,1.6 0.4,3.2 0.6,4.9 0.1,0.9 0.2,1.8 0.4,2.7 0,0.8 0,1.6 0,2.4 -0.7,0.7 -1.3,1.3 -2,2 -0.7,0 -1.3,0 -2,0 0.1,-0.8 0.1,-1.6 0.2,-2.4 0.1,-1 0.2,-2 0.3,-3.1 0.1,-1 0.2,-2 0.3,-3.1 0.1,-1.6 0.1,-1.6 0.2,-3.4 z"
   id="path102" />
<path
   class="st95"
   d="m 540.3955,216.75188 c 2.6,0 5.3,0 8,0 0.7,1.8 0.7,1.8 1,4 -1.4,1.8 -1.4,1.8 -3,3 -0.7,-0.3 -1.3,-0.7 -2,-1 1,-1.6 2,-3.3 3,-5 -2.3,0 -4.6,0 -7,0 0,-0.3 0,-0.7 0,-1 z"
   id="path103" />
<path
   class="st96"
   d="m 756.3955,801.75188 c 0.7,1.3 1.3,2.6 2,4 0.7,0 1.3,0 2,0 0,2.3 0,4.6 0,7 -2.3,-2.3 -2.5,-3.5 -3.1,-6.6 -0.2,-0.8 -0.3,-1.6 -0.5,-2.5 -0.2,-0.6 -0.3,-1.2 -0.4,-1.9 z"
   id="path104" />
<path
   class="st97"
   d="m 392.3955,800.75188 c 1,0 2,0 3,0 -0.3,0.6 -0.6,1.1 -0.9,1.7 -1.2,2.4 -2.2,4.8 -3.1,7.3 -0.7,-1 -1.3,-2 -2,-3 1,-2 2,-4 3,-6 z"
   id="path105" />
<path
   class="st98"
   d="m 408.3955,752.75188 c 0.3,0 0.7,0 1,0 0.2,3.3 0.2,3.3 0,7 -2,1.9 -2,1.9 -4,3 0.3,-1.5 0.6,-3 0.9,-4.4 0.3,-1.2 0.3,-1.2 0.5,-2.5 0.6,-2.1 0.6,-2.1 1.6,-3.1 z"
   id="path106" />
<path
   class="st99"
   d="m 59.395499,677.75188 c 3,-0.3 3,-0.3 6.6,-0.2 1.2,0 2.4,0.1 3.6,0.1 0.9,0 1.8,0.1 2.8,0.1 0,0.3 0,0.7 0,1 -0.8,0.1 -1.5,0.1 -2.3,0.2 -1,0.1 -2,0.2 -3,0.3 -1.5,0.1 -1.5,0.1 -3,0.2 -2.4,0.3 -4.5,0.7 -6.8,1.3 0.7,-1 1.4,-2 2.1,-3 z"
   id="path107" />
<path
   class="st100"
   d="m 401.3955,375.75188 c 0.3,1.3 0.7,2.6 1,4 -2.4,1.1 -2.4,1.1 -5,2 -0.7,-0.3 -1.3,-0.7 -2,-1 2,-1.6 3.9,-3.3 6,-5 z"
   id="path108" />
<path
   class="st101"
   d="m 477.3955,243.75188 c 0.7,0.3 1.3,0.7 2,1 -2.4,3.9 -4.6,4.8 -9,6 2.2,-2.9 3.9,-5 7,-7 z"
   id="path109" />
<path
   class="st102"
   d="m 492.3955,752.75188 c 1.8,2.7 3,4.9 4,8 -0.3,1 -0.7,2 -1,3 -2.7,-3.8 -3.3,-6.3 -3,-11 z"
   id="path110" />
<path
   class="st103"
   d="m 542.3955,583.75188 c 0.7,0 1.3,0 2,0 0,0.7 0,1.3 0,2 1,0.3 2,0.7 3,1 0,0.7 0,1.3 0,2 -1,0.3 -2,0.7 -3,1 -0.7,-0.7 -1.3,-1.3 -2,-2 0,-1.3 0,-2.6 0,-4 z"
   id="path111" />
<path
   class="st104"
   d="m 412.3955,525.75188 c 0.3,0.7 0.7,1.3 1,2 -1.4,2 -1.4,2 -3,4 -0.7,0 -1.3,0 -2,0 -0.3,1 -0.7,2 -1,3 -0.3,-0.7 -0.7,-1.3 -1,-2 2,-2.3 3.9,-4.6 6,-7 z"
   id="path112" />
<path
   class="st105"
   d="m 545.3955,75.751878 c 2,3 2,3 2,5 0.7,0 1.3,0 2,0 0.7,1.7 1.3,3.3 2,5 -3,-1 -3,-1 -4.7,-3.3 -1.3,-2.7 -1.3,-2.7 -1.3,-6.7 z"
   id="path113" />
<path
   class="st106"
   d="m 448.3955,300.75188 c 0,1 0,2 0,3 -3,2.2 -3,2.2 -6,4 -0.7,-0.3 -1.3,-0.7 -2,-1 2.6,-2 5.3,-4 8,-6 z"
   id="path114" />
<path
   class="st107"
   d="m 514.3955,267.75188 c 2.4,0.7 2.4,0.7 5,2 0.8,2.6 0.8,2.6 1,5 -4.9,-4.8 -4.9,-4.8 -6,-7 z"
   id="path115" />





















































































</svg>
