<?xml version="1.0" encoding="UTF-8" standalone="no"?>
<!-- Generator: Adobe Illustrator 26.4.1, SVG Export Plug-In . SVG Version: 6.00 Build 0)  -->

<svg
   version="1.1"
   id="图层_1"
   x="0px"
   y="0px"
   viewBox="0 0 607.27 474.49"
   style="enable-background:new 0 0 607.27 474.49;"
   xml:space="preserve"
   sodipodi:docname="DESCI SINO（logo） v2.svg"
   inkscape:version="1.4.2 (ebf0e940, 2025-05-08)"
   xmlns:inkscape="http://www.inkscape.org/namespaces/inkscape"
   xmlns:sodipodi="http://sodipodi.sourceforge.net/DTD/sodipodi-0.dtd"
   xmlns="http://www.w3.org/2000/svg"
   xmlns:svg="http://www.w3.org/2000/svg"><defs
   id="defs104" /><sodipodi:namedview
   id="namedview104"
   pagecolor="#ffffff"
   bordercolor="#000000"
   borderopacity="0.25"
   inkscape:showpageshadow="2"
   inkscape:pageopacity="0.0"
   inkscape:pagecheckerboard="0"
   inkscape:deskcolor="#d1d1d1"
   inkscape:zoom="0.11747001"
   inkscape:cx="412.87134"
   inkscape:cy="847.02471"
   inkscape:window-width="896"
   inkscape:window-height="536"
   inkscape:window-x="42"
   inkscape:window-y="25"
   inkscape:window-maximized="0"
   inkscape:current-layer="图层_1" />
<style
   type="text/css"
   id="style1">
	.st0{fill:none;stroke:#496E93;stroke-width:8;stroke-linecap:round;}
	.st1{fill:none;stroke:#496E93;stroke-width:8;}
	.st2{fill:none;stroke:#496E93;stroke-width:4;}
	.st3{fill:#0C8DCF;stroke:#496E93;stroke-width:4;stroke-miterlimit:10;}
	.st4{fill:#4191CF;stroke:#496E93;stroke-width:4;stroke-miterlimit:10;}
	.st5{stroke:#496E93;stroke-miterlimit:10;}
	.st6{fill:none;stroke:#F7F8F8;stroke-width:8;stroke-linecap:round;}
	.st7{fill:none;stroke:#F7F8F8;stroke-width:8;}
	.st8{fill:none;stroke:#F7F8F8;stroke-width:4;}
	.st9{fill:#0C8DCF;stroke:#F7F8F8;stroke-width:4;stroke-miterlimit:10;}
	.st10{fill:#4191CF;stroke:#F7F8F8;stroke-width:4;stroke-miterlimit:10;}
</style>
<path
   class="st0"
   d="m 308.81691,36.586804 c 3.76,-1.98 12.6,-6.65 17.82,-9.51 6.13,0.33 15.49,1.56 25.55,4.16 m -43.37,5.35 v 79.610006 m 0,-79.610006 -17.82,-9.51 c -8.45,0.23 -16.15,1.05 -23.18,2.38 m 146.16,82.580006 c 0.59,-16.640001 -1.19,-37.430006 -21.98,-60.010006 -9.77,-10.61 -25.49,-17.09 -39.8,-20.79 m 61.78,80.800006 c 13.91,3.4 38.68,17.78 48.88,49.91 m -48.88,-49.91 h -51.09 m 51.09,168.73 c 4.06,27.31 -4.81,81.3 -68.32,93.16 m 68.32,-93.16 -40.4,-42.18 m 40.4,42.18 c 15.01,-5.34 42.68,-24.87 51.02,-63.57 m -155.58,147.34 c 8.08,2.38 17.62,8.52 21.39,11.29 5.26,-0.39 10.2,-1.03 14.85,-1.9 m -36.24,-9.39 v -85.55 m 0,85.55 c -4.75,1.39 -15.92,5.58 -22.58,11.29 -8.76,-0.87 -23.43,-3.83 -37.43,-9.91 m 60.01,-172.49 -22.58,-19.01 m 22.58,19.01 -34.46,33.87 m 34.46,-33.87 h 16.04 m -16.04,0 v 59.41 m 0,26.15 h 48.12 m -48.12,0 v -26.15 m 36.24,90.9 v 30.18 m 119.35,-156.72 c 1.56,-7.24 2.45,-15.15 2.45,-23.76 0,-12 -1.72,-22.45 -4.59,-31.49 m 2.14,55.25 h -36.76 m 34.61,-55.26 h -53.63 m -57.03,-130.700006 v 32.08 m -43.38,52.880006 -42.18,41.59 m 42.18,-41.59 36.83,38.62 m -36.23,98.02 -42.78,43.18 m -20.2,20.39 20.2,-20.39 m 0,0 20.2,20.39 m -84.36,-35.64 c -0.59,11.88 2.02,41.11 17.23,62.98 6.9,9.92 18.07,17.12 29.71,22.17 m -46.94,-85.15 c -14.32,-4.57 -39.3,-20.88 -48.99,-53.47 m 48.99,53.47 25.84,-24.95 m 25.85,-24.96 -25.84,24.95 m -26.82,-143.77 c -16.31,3.96 -49.53,25.79 -51.91,81.39 -0.55,12.84 0.98,24.08 3.89,33.87 m 48.02,-115.26 c 0,-36.040006 15.17,-72.910006 66.31,-82.580006 m -66.31,82.580006 24.14,22.58 m 42.17,-105.160006 v 56.44 m 0,0 -18.4,21.980006 m 18.4,-21.980006 19.02,21.980006 m -49.31,40.4 -35.05,32.96 m -48.99,46.06 48.99,-46.06 m 0,0 26.73,27.05 m -27.7,22.57 26.82,24.95 m 21.08,110.11 22.58,-22.18"
   id="path1" />
<circle
   transform="rotate(-80.781636)"
   class="st1"
   cx="-14.876411"
   cy="359.20889"
   id="ellipse1"
   r="7.1301088" />
<circle
   transform="rotate(-80.781636)"
   class="st1"
   cx="-54.38065"
   cy="368.02686"
   id="ellipse2"
   r="7.1301088" />
<circle
   transform="rotate(-80.781636)"
   class="st1"
   cx="-103.03639"
   cy="372.31506"
   id="ellipse3"
   r="7.1301088" />
<circle
   class="st1"
   cx="400.90692"
   cy="162.5368"
   r="7.1300001"
   id="circle3" />
<circle
   class="st1"
   cx="334.36691"
   cy="193.4268"
   r="7.1300001"
   id="circle4" />
<circle
   class="st1"
   cx="419.9169"
   cy="217.19681"
   r="7.1300001"
   id="circle5" />
<circle
   class="st1"
   cx="367.6369"
   cy="232.6368"
   r="7.1300001"
   id="circle6" />
<circle
   class="st1"
   cx="365.26691"
   cy="278.98679"
   r="7.1300001"
   id="circle7" />
<circle
   class="st1"
   cx="345.06689"
   cy="334.82678"
   r="7.1300001"
   id="circle8" />
<path
   class="st2"
   d="m 191.00691,415.86681 -2.38,-2.97 h -24.36 v 17.23 h 22.58 v -2.97"
   id="path8" />
<path
   class="st2"
   d="m 191.00691,450.32681 -2.38,2.97 h -24.36 v -17.23 h 22.58 v 2.97"
   id="path9" />
<path
   class="st2"
   d="m 191.59691,403.98681 -2.38,2.97 h -33.86 l 2.38,2.38 v 47.53 l -2.38,2.38 h 33.86 l 2.38,2.97"
   id="path10" />
<path
   class="st2"
   d="m 305.07691,406.36681 2.97,1.78 v 49.31 l -2.97,2.97"
   id="path11" />
<path
   class="st2"
   d="m 316.95691,406.36681 -2.97,1.78 v 49.31 l 2.97,2.97"
   id="path12" />
<path
   class="st2"
   d="m 397.75691,406.36681 2.97,1.78 v 49.31 l -2.97,2.97"
   id="path13" />
<path
   class="st2"
   d="m 409.63691,406.36681 -2.97,1.78 v 49.31 l 2.97,2.97"
   id="path14" />
<path
   class="st2"
   d="m 425.08691,405.76681 2.97,1.78 v 49.31 l -2.97,2.97"
   id="path15" />
<path
   class="st2"
   d="m 437.56691,460.42681 -3.57,-2.97 v -40.99 l 24.36,42.78 h -1.78 m -19.01,-52.88 h -3.57 l 26.14,42.78 v -40.99 l -2.97,-2.97"
   id="path16" />
<path
   class="st2"
   d="m 469.05691,405.76681 -2.97,1.78 v 49.31 l 2.97,2.97"
   id="path17" />
<path
   class="st2"
   d="m 101.73691,406.36681 h 19.17 c 11.16,0 20.2,9.04 20.2,20.2 v 13.07 c 0,11.16 -9.04,20.2 -20.2,20.2 h -19.01 -0.33 l 1.36,-2.38 0.16,-0.27 v -0.32 -48.13 -0.36 l -0.2,-0.3 z"
   id="path18" />
<path
   class="st2"
   d="m 107.82691,411.11681 h 13.07 c 8.53,0 15.45,6.92 15.45,15.45 v 13.07 c 0,8.53 -6.92,15.45 -15.45,15.45 h -13.07 z"
   id="path19" />
<path
   class="st2"
   d="m 244.47691,450.92681 c -1.39,3.96 -6.3,12 -14.85,12.48"
   id="path20" />
<path
   class="st2"
   d="m 239.12691,411.11681 c -1.78,-1.78 -5.35,-6.54 -17.23,-6.54 -11.29,0 -17.82,4.16 -17.82,15.45 0,11.29 11.29,16.04 17.23,16.04 7.72,0 13.67,2.38 12.48,8.91 -1.19,6.54 -5.94,8.91 -12.48,8.91 -5.23,0 -10.5,-3.57 -12.48,-5.35"
   id="path21" />
<path
   class="st2"
   d="m 234.96691,415.87681 c -2.38,-2.77 -11.05,-7.96 -19.61,-4.16 -10.69,4.75 -5.35,17.82 8.91,17.83 14.26,0 17.43,8.91 16.04,17.23 -1.78,10.69 -20.2,20.2 -38.02,5.35"
   id="path22" />
<path
   class="st2"
   d="m 386.46691,450.92681 c -1.39,3.96 -6.3,12 -14.85,12.48"
   id="path23" />
<path
   class="st2"
   d="m 381.12691,411.11681 c -1.78,-1.78 -5.35,-6.54 -17.23,-6.54 -11.29,0 -17.82,4.16 -17.82,15.45 0,11.29 11.29,16.04 17.23,16.04 7.72,0 13.66,2.38 12.48,8.91 -1.19,6.54 -5.94,8.91 -12.48,8.91 -5.23,0 -10.5,-3.57 -12.48,-5.35"
   id="path24" />
<path
   class="st2"
   d="m 376.96691,415.87681 c -2.38,-2.77 -11.05,-7.96 -19.61,-4.16 -10.69,4.75 -5.35,17.82 8.91,17.83 14.26,0 17.43,8.91 16.04,17.23 -1.78,10.69 -20.2,20.2 -38.02,5.35"
   id="path25" />
<path
   class="st3"
   d="m 360.28691,438.97681 -2.95,-4.09 7.04,1.15 z"
   id="path26" />
<path
   class="st2"
   d="m 284.28691,419.47681 v -3.57 c 0,-1.98 -2.02,-5.94 -10.1,-5.94 -10.1,0 -11.88,2.97 -11.88,11.88 0,7.13 0,16.83 0,21.98 0,6.54 2.36,8.32 11.88,8.32 11.29,0 10.1,-6.54 10.1,-9.51"
   id="path27" />
<path
   class="st2"
   d="m 296.16691,449.18681 c -1.39,3.96 -6.3,12 -14.85,12.48"
   id="path28" />
<path
   class="st2"
   d="m 292.59691,420.06681 c -0.59,-4.75 -4.99,-14.38 -17.82,-14.85 -16.04,-0.6 -19.61,5.35 -19.61,22.58 0,7.6 0,15.84 0,19.01 -0.4,4.36 2.97,12.71 19.61,11.29 13.07,0 17.82,-10.7 17.82,-14.85"
   id="path29" />
<path
   class="st2"
   d="m 511.82691,431.91681 c 0,2.88 0,5.57 -0.2,8 -0.2,2.43 -0.59,4.52 -1.34,6.23 -0.73,1.68 -1.8,2.99 -3.38,3.9 -1.6,0.92 -3.83,1.48 -6.97,1.48 -3.13,0 -5.36,-0.56 -6.97,-1.48 -1.58,-0.91 -2.65,-2.21 -3.38,-3.9 -0.74,-1.71 -1.14,-3.8 -1.34,-6.23 -0.2,-2.43 -0.2,-5.11 -0.2,-8 0,-2.89 0,-5.57 0.2,-8 0.2,-2.43 0.59,-4.52 1.34,-6.23 0.73,-1.68 1.8,-2.99 3.38,-3.9 1.6,-0.92 3.83,-1.48 6.97,-1.48 2.82,0 4.9,0.55 6.45,1.47 1.54,0.91 2.66,2.24 3.47,3.94 1.66,3.49 1.97,8.43 1.97,14.2 z"
   id="path30" />
<path
   class="st2"
   d="m 516.58691,431.91681 c 0,3.87 0,7.49 -0.27,10.77 -0.27,3.28 -0.82,6.14 -1.85,8.49 -1.03,2.33 -2.54,4.16 -4.79,5.43 -2.27,1.28 -5.39,2.04 -9.72,2.04 -4.33,0 -7.45,-0.76 -9.72,-2.04 -2.25,-1.27 -3.76,-3.1 -4.79,-5.43 -1.04,-2.35 -1.58,-5.21 -1.85,-8.49 -0.27,-3.28 -0.27,-6.9 -0.27,-10.77 0,-3.87 0,-7.49 0.27,-10.77 0.27,-3.28 0.82,-6.14 1.85,-8.49 1.03,-2.33 2.54,-4.16 4.79,-5.43 2.27,-1.28 5.39,-2.04 9.72,-2.04 3.9,0 6.82,0.75 9.02,2.03 2.19,1.27 3.76,3.12 4.89,5.47 2.29,4.77 2.72,11.49 2.72,19.23 z"
   id="path31" />
<path
   class="st2"
   d="m 520.73691,449.13681 c -1.39,3.96 -6.3,12 -14.85,12.48"
   id="path32" />
<g
   id="g52"
   transform="translate(620.48691,9.7368039)">
	<path
   class="st4"
   d="m -466.59,422.19 3.56,-3.57 v 7.13 z"
   id="path33" />
	<path
   class="st4"
   d="m -315.69,422.79 3.57,-3.57 v 7.13 z"
   id="path34" />
	<path
   class="st4"
   d="m -303.8,422.79 -3.56,-3.57 v 7.13 z"
   id="path35" />
	<path
   class="st4"
   d="m -223,422.79 3.57,-3.57 v 7.13 z"
   id="path36" />
	<path
   class="st4"
   d="m -211.12,422.79 -3.56,-3.57 v 7.13 z"
   id="path37" />
	<path
   class="st4"
   d="m -195.67,422.19 3.56,-3.57 v 7.13 z"
   id="path38" />
	<path
   class="st4"
   d="m -151.71,422.19 -3.56,-3.57 v 7.13 z"
   id="path39" />
	<path
   class="st4"
   d="m -521.25,422.19 3.56,-3.57 v 7.13 z"
   id="path40" />
	<path
   class="st4"
   d="m -509.56,422.19 -3.56,-3.57 v 7.13 z"
   id="path41" />
	<path
   class="st4"
   d="m -476.1,422.19 -3.56,-3.57 v 7.13 z"
   id="path42" />
	<path
   class="st4"
   d="m -487.39,422.19 3.56,-3.57 v 7.13 z"
   id="path43" />
	<path
   class="st4"
   d="m -398.4,415.56 3.04,4.02 -7.06,-0.99 z"
   id="path44" />
	<path
   class="st4"
   d="m -402.47,428.66 -2.95,-4.09 7.04,1.15 z"
   id="path45" />
	<path
   class="st4"
   d="m -256.41,415.56 3.04,4.02 -7.06,-0.99 z"
   id="path46" />
	<path
   class="st4"
   d="m -369.16,420.45 3.56,-3.57 v 7.13 z"
   id="path47" />
	<path
   class="st4"
   d="m -354.9,420.45 -3.56,-3.57 v 7.13 z"
   id="path48" />
	<path
   class="st4"
   d="m -128.32,421.01 -3.57,-3.57 v 7.13 z"
   id="path49" />
	<path
   class="st4"
   d="m -99.43,421.01 -3.57,-3.57 v 7.13 z"
   id="path50" />
	<path
   class="st4"
   d="m -112.9,421.01 3.57,-3.57 v 7.13 z"
   id="path51" />
	<path
   class="st4"
   d="m -142.2,421.01 3.57,-3.57 v 7.13 z"
   id="path52" />
</g>





































</svg>
