<?xml version="1.0" encoding="utf-8"?>
<!-- Generator: Adobe Illustrator 24.0.0, SVG Export Plug-In . SVG Version: 6.00 Build 0)  -->
<svg version="1.1" id="Layer_1" xmlns="http://www.w3.org/2000/svg" xmlns:xlink="http://www.w3.org/1999/xlink" x="0px" y="0px"
	 viewBox="0 0 915.9 891.4" style="enable-background:new 0 0 915.9 891.4;" xml:space="preserve">
<style type="text/css">
	.st0{fill:#246BFE;}
	.st1{fill:#3C3BFE;}
	.st2{fill:#0AA8FE;}
	.st3{fill:#0C9BFE;}
	.st4{fill:#4135FE;}
	.st5{fill:#2B58FE;}
	.st6{fill:#187AFE;}
	.st7{fill:#F8FEFF;}
	.st8{fill:#511FFE;}
	.st9{fill:#4F22FE;}
	.st10{fill:#521FFE;}
	.st11{fill:#4C23FE;}
	.st12{fill:#F8FDFF;}
	.st13{fill:#F7FCFF;}
	.st14{fill:#F7FEFF;}
	.st15{fill:#F7FDFF;}
	.st16{fill:#0695FE;}
	.st17{fill:#501FFE;}
	.st18{fill:#2320FE;}
	.st19{fill:#1092FE;}
	.st20{fill:#1A16FE;}
	.st21{fill:#0F8EFE;}
	.st22{fill:#0F71FE;}
	.st23{fill:#257EFE;}
	.st24{fill:#0B8DFE;}
	.st25{fill:#2B33FD;}
	.st26{fill:#1F5FFE;}
	.st27{fill:#0685FE;}
	.st28{fill:#3AB6FE;}
	.st29{fill:#2229FD;}
	.st30{fill:#0F7BFE;}
	.st31{fill:#4918FE;}
	.st32{fill:#07BDFE;}
	.st33{fill:#004CFD;}
	.st34{fill:#292BFE;}
	.st35{fill:#06A5FE;}
	.st36{fill:#15C0FE;}
	.st37{fill:#02A7FE;}
	.st38{fill:#17A6FE;}
	.st39{fill:#1810FE;}
	.st40{fill:#1B92FE;}
	.st41{fill:#271DFE;}
	.st42{fill:#264EFE;}
	.st43{fill:#068FFE;}
	.st44{fill:#2732FE;}
	.st45{fill:#1E33FD;}
	.st46{fill:#1E22FD;}
	.st47{fill:#2F34FE;}
	.st48{fill:#1727FE;}
	.st49{fill:#2036FE;}
	.st50{fill:#1185FE;}
	.st51{fill:#2230FE;}
	.st52{fill:#137BFE;}
	.st53{fill:#1C34FD;}
	.st54{fill:#1E40FD;}
	.st55{fill:#1566FE;}
	.st56{fill:#129FFE;}
	.st57{fill:#1089FE;}
	.st58{fill:#149CFE;}
	.st59{fill:#3333FE;}
	.st60{fill:#2626FE;}
	.st61{fill:#2B27FE;}
	.st62{fill:#2C39FE;}
	.st63{fill:#13BCFE;}
	.st64{fill:#282EFE;}
	.st65{fill:#1D24FD;}
	.st66{fill:#2643FE;}
	.st67{fill:#404BFE;}
	.st68{fill:#117DFE;}
	.st69{fill:#0D82FE;}
	.st70{fill:#2254FE;}
	.st71{fill:#0F72FE;}
	.st72{fill:#1172FE;}
	.st73{fill:#1146FE;}
	.st74{fill:#1065FE;}
	.st75{fill:#0F7FFE;}
	.st76{fill:#1154FE;}
	.st77{fill:#2B39FE;}
	.st78{fill:#0D87FE;}
	.st79{fill:#1041FE;}
	.st80{fill:#1E38FD;}
	.st81{fill:#15C1FE;}
	.st82{fill:#0E7CFE;}
	.st83{fill:#0F88FE;}
	.st84{fill:#0D92FE;}
	.st85{fill:#0487FE;}
	.st86{fill:#3141FE;}
	.st87{fill:#371BFE;}
	.st88{fill:#1493FE;}
	.st89{fill:#1B40FE;}
	.st90{fill:#202DFD;}
	.st91{fill:#2C1EFE;}
	.st92{fill:#129CFE;}
	.st93{fill:#1287FE;}
	.st94{fill:#4144FE;}
	.st95{fill:#1B1CFE;}
	.st96{fill:#3912FE;}
	.st97{fill:#3C48FE;}
	.st98{fill:#1E2AFD;}
	.st99{fill:#24B5FF;}
	.st100{fill:#0F69FE;}
	.st101{fill:#1943FD;}
	.st102{fill:#532BFE;}
	.st103{fill:#4230FE;}
	.st104{fill:#0D4FFE;}
	.st105{fill:#1E26FD;}
	.st106{fill:#0F4BFE;}
	.st107{fill:#303BFB;}
</style>
<path class="st0" d="M-413,71c4.5,4.1,7.5,8.5,8.3,14.6c0.1,7.2-0.8,13.6-5.9,19.1c-3.8,3.3-3.8,3.3-6.5,3.3c0,12.9,0,25.7,0,39
	c6.9-0.1,6.9-0.1,13.8-0.3c6.6-0.1,11.8,0.3,16.9,4.8c3.5,4.7,4.4,6.9,4.5,12.7c0,1.3,0,2.6,0.1,4c0,1.4,0,2.9,0,4.3
	c0,0.7,0,1.5,0,2.2c0,3.9,0.1,7.7,0.1,11.6c0,3.2,0.1,6.4,0.1,9.5c0.1,3.8,0.1,7.7,0.1,11.5c0,1.5,0,2.9,0,4.4
	c0.3,14.1,0.3,14.1-5,19.8c-4.6,3.7-9.4,3.6-15.1,3.6c-0.7,0-1.4,0-2.1,0c-2.1,0-4.3,0-6.4-0.1c-1.5,0-2.9,0-4.4,0
	c-3.6,0-7.1-0.1-10.7-0.1c-0.5,1.4-0.5,1.4-0.9,2.9c-4.4,13-15.2,24.4-24.5,34.3c-2.1,2.2-3.9,4.3-5.6,6.9c0.3,3.5,2.1,5.7,4.1,8.5
	c3.5,5.8,4.4,10.9,2.9,17.5c-1.8,3.3-4.2,5.5-7,8c-0.8,0.8-1.7,1.6-2.5,2.4c-5.4,5.1-11.1,9.8-16.8,14.4c-2.6,2.1-5,4.3-7.4,6.6
	c-5.5,4.8-9.6,6.9-16.9,7c-5.5-0.9-9.5-4.1-13.5-7.8c-0.8-0.8-1.7-1.5-2.5-2.3c-2.4-2.2-2.4-2.2-4.4-4.6c-1.8-1.8-1.8-1.8-3.8-1.7
	c-3,1.5-5.5,3.5-8.1,5.6c-5.1,4-10.3,7.7-15.8,11.3c-3.8,2.5-7.6,5.2-11.4,7.8c-5.6,3.9-11.2,7.7-16.8,11.4
	c1.4,4.3,3.6,7.1,6.5,10.5c6.3,7.3,6.3,7.3,6.6,12.8c-0.9,8-4.4,12.5-10.5,17.6c-4.8,3.8-9.6,7.4-14.5,11
	c-4.9,3.6-9.7,7.4-14.5,11.1c-5.6,4.1-9.8,4.8-16.7,4c-8.5-2.7-14.7-9.2-20-16c-12.7,4.5-22.5,16.7-29,28c0.6,0,1.1-0.1,1.7-0.1
	c6.1-0.3,9.4,0.5,14.3,4.1c3,6,3,6,3,22c28,0,56.1,0,85,0c0.7-1.3,1.3-2.6,2-4c1.6-1.7,1.6-1.7,3.4-3.2c0.6-0.5,1.2-1,1.8-1.5
	c4.6-3.3,10.4-2.8,15.8-2.3c5.5,1.5,9,4.4,12,9.2c2.7,5.1,3.8,10.1,3,15.8c-2.1,6.5-5.8,10.7-11.9,14c-5.2,2.3-9.7,2.4-15.1,1
	c-4.8-1.9-8.2-4.7-11-9c0-0.7,0-1.3,0-2c-28,0-56.1,0-85,0c0,9.6,0,19.1,0,29c-2.9,5.8-5,9.5-11,11.8c-8.3,2-16.3,1.2-25,1.2
	c0,11.9,0,23.8,0,36c1.6,0.7,3.3,1.3,5,2c6.1,6.6,7.5,10.8,7.4,19.7c-0.7,6.1-3.6,9.6-7.9,13.7c-6.6,4.4-12.6,4.3-20.4,3.6
	c-5.4-2.5-9.5-6.9-12.1-12.4c-2-5.9-1.8-12.4,0.7-18c1.5-2.8,2.7-3.8,5.4-5.7c2.8-2.4,3-2.9,3.7-6.8c0-1.5,0.1-3,0-4.5
	c0-0.8,0-1.6,0-2.4c0-2.5,0-5,0-7.5c0-1.7,0-3.4,0.1-5.1c0-4.2,0.1-8.4,0.1-12.5c-0.6,0-1.1,0-1.7,0.1c-2.6,0.1-5.2,0.1-7.8,0.2
	c-0.9,0-1.8,0.1-2.7,0.1c-6.2,0.1-10.7-0.9-15.8-4.3c-3.8-4-4.1-7.8-4.2-13.2c0-1.3,0-2.6,0-3.9c0-1.4,0-2.8,0-4.2
	c0-1.1,0-1.1,0-2.1c0-3.7,0-7.5,0-11.2c0-3.8,0-7.7-0.1-11.6c0-3,0-5.9,0-8.9c0-1.4,0-2.8,0-4.3c0-2,0-4,0-6c0-1.7,0-1.7,0-3.4
	c0.7-4.7,3-7.8,6.5-11c4.4-2.6,8.9-2.3,13.8-2.3c0.8,0,1.5,0,2.3,0c2.4,0,4.8,0,7.2,0c1.6,0,3.2,0,4.9,0c4,0,7.9,0,11.9,0
	c0.4-1.4,0.4-1.4,0.9-2.8c5.2-15,20-27.4,31.5-37.8c1.6-1.4,3.1-2.9,4.7-4.4c-0.4-0.6-0.9-1.2-1.3-1.8c-3.7-5.5-5.4-9.8-5.6-16.4
	c2.4-7.7,10.1-12.9,16.3-17.5c1.6-1.2,3.2-2.4,4.8-3.6c0.8-0.6,1.6-1.2,2.4-1.8c4.5-3.5,8.8-7.1,13.1-10.7c5.2-4.3,10-7.8,17.1-7.5
	c5.9,0.9,11.4,2.9,15.3,7.6c0.6,0.9,1.2,1.8,1.9,2.8c13.2-8.2,26-17,38.5-26.2c4.1-3,8.3-5.9,12.5-8.8c-1.4-3-3-5.5-5.1-8.1
	c-3.6-4.6-4.7-7.9-3.9-13.9c4-9.1,11.8-14.8,19.5-20.7c3.5-2.7,6.9-5.5,10.2-8.4c6.2-5.3,12.8-11,21.4-11.4
	c7.4,0.9,11.9,2.9,16.9,8.5c1.3,1.3,2.5,2.5,3.8,3.8c1.1,1.1,2.1,2.1,3.2,3.2c7.3-5.3,12.7-12.8,18.3-19.8c0.5-0.6,1.1-1.3,1.6-2
	c0.5-0.6,1-1.2,1.5-1.9c0.7-0.8,0.7-0.8,1.4-1.7c1.3-1.8,2.3-3.7,3.2-5.7c-1.3,0.1-2.6,0.1-3.9,0.2c-5.7,0-11.3-0.7-15.7-4.6
	c-6.2-7.9-5.4-16.8-5.4-26.6c-30.4,0-60.7,0-92,0c-0.3,1.3-0.7,2.6-1,4c-3.8,4.5-7.5,7.6-13.5,8.3c-7.1,0.3-12.6-0.8-18-5.7
	c-5.3-5.9-6-12-5.8-19.6c0.8-6,3.7-9.6,8.3-13.4c5.6-2.9,10.8-4.3,17.1-3.6c4.8,1.6,7.6,3.5,10.6,7.5c2.4,2.8,3.9,4,7.6,4.3
	c1.6,0,3.2,0,4.8,0c0.9,0,1.8,0,2.7,0c2.9,0,5.8,0,8.8,0c2,0,4.1,0,6.1,0c5.3,0,10.7,0,16,0c5.5,0,10.9,0,16.4,0
	c10.7,0,21.4,0,32.1,0c0-0.8,0-1.6-0.1-2.5c-0.1-3.7-0.1-7.5-0.1-11.2c0-1.9,0-1.9-0.1-3.9c0-1.2,0-2.5,0-3.8c0-1.1,0-2.3-0.1-3.5
	c0.5-4.7,2.6-7.9,6.3-10.9c4.2-3.1,7.1-3.4,12.3-3.4c0.9,0,1.8,0,2.7,0c1.7,0,1.7,0,3.4,0c5.3,0,5.3,0,10.8,0.1c0-12.9,0-25.7,0-39
	c-1.7-0.7-3.3-1.3-5-2c-1.7-1.6-1.7-1.6-3.2-3.3c-0.5-0.6-1-1.2-1.5-1.7c-3.8-5.6-4.2-11.4-3.3-17.9c2.6-6.6,7.3-11,13.8-13.8
	C-427.2,66.8-419.6,67.1-413,71z"/>
<path class="st1" d="M-499.6,369.1c4.8,3.6,8.2,6.8,9.3,12.9c0.8,3.4,1.6,4.7,4.5,6.6c1.4,0.8,2.7,1.5,4.1,2.2
	c12,6.9,26.6,18,31.7,31.2c0.8,0,0.8,0,1.7,0c5.7-0.1,11.5-0.1,17.2-0.2c2.1,0,4.3-0.1,6.4-0.1c3.1-0.1,6.2-0.1,9.2-0.1
	c1,0,1.9,0,2.9-0.1c5.7,0,9.1,0.6,13.5,4.5c3.7,4.9,5.1,8.3,5.2,14.4c0,1.6,0,1.6,0,3.3c0,1.2,0,2.4,0,3.6c0,1.2,0,2.4,0,3.7
	c0,2.6,0,5.2,0,7.8c0,3.9,0.1,7.9,0.1,11.8c0,2.5,0,5,0,7.5c0,1.2,0,2.3,0,3.6c0,7.4-0.7,13.3-5.9,18.9c-2.7,2.4-5,3.7-8.5,4.5
	c0.2,1.1,0.2,1.1,0.4,2.3c0.2,1,0.4,2.1,0.6,3.1c0.2,1,0.4,2,0.6,3c0.5,4.2,0.5,8.3,0.4,12.5c0.7,0,1.4,0,2.2-0.1
	c3.3-0.1,6.6-0.1,9.8-0.2c1.1,0,2.2-0.1,3.4-0.1c6.6-0.1,12.3,0.1,17.6,4.4c3.7,4.7,5.1,9.5,5.2,15.4c0,1.7,0,1.7,0,3.4
	c0,1.2,0,2.4,0,3.7c0,1.2,0,2.5,0,3.8c0,2.6,0,5.3,0,7.9c0,2.7,0,5.4,0.1,8.1c0,3.9,0.1,7.8,0.1,11.6c0,1.2,0,2.4,0,3.6
	c0,7-0.7,11.6-4.5,17.5c-4.6,4.5-9.1,6.2-15.6,6.3c-1.1,0-2.2,0-3.3,0c-1.2,0-2.3,0-3.5,0c-1.2,0-2.4,0-3.7,0c-2.6,0-5.1,0-7.7,0
	c-3.9,0-7.8,0-11.7,0.1c-2.5,0-5,0-7.5,0c-1.7,0-1.7,0-3.5,0c-8.2,0-15.8-1.1-22-6.8c-6.3-11.2-3.5-22.6-3.5-35.7
	c-31.7,0-63.4,0-96,0c-0.7,1.3-1.3,2.6-2,4c-6.4,6-11.4,7.5-20,7.4c-6-0.8-10.1-3.9-14-8.5c-2.9-4.6-3.4-9.5-3.1-14.9
	c1.7-7.3,6.1-11.7,12-16c4.9-2.5,12.3-1.8,17.5-0.3c4.2,2,7,4.3,9.5,8.3c0,0.7,0,1.3,0,2c31.7,0,63.4,0,96,0c0-4.3,0-8.6,0-13
	c1.5-5.3,3.4-8.1,8-11c2.8-0.9,5.4-1.1,8.3-1.1c0.8,0,1.6,0,2.4,0c0.8,0,1.6,0,2.5,0c0.8,0,1.7,0,2.5,0c2.1,0,4.1,0,6.2,0
	c-0.3-2.4-0.6-4.8-0.9-7.1c-0.1-0.7-0.2-1.3-0.3-2c-0.5-4-1.1-7.9-1.8-11.9c-1.5,0-1.5,0-3,0c-3.7,0-7.4,0.1-11,0.1
	c-1.6,0-3.2,0-4.8,0.1c-19.6,0.3-19.6,0.3-26.3-4.9c-0.7-0.9-0.7-0.9-1.3-1.7c-0.5-0.6-0.9-1.1-1.4-1.7c-2.5-4-3.4-7.5-3.5-12.2
	c0-1,0-2.1,0-3.1c0-1.1,0-2.2,0-3.4s0-2.3,0-3.5c0-2.4,0-4.9,0-7.3c0-3.7,0-7.4-0.1-11.1c0-2.4,0-4.7,0-7.1c0-1.1,0-2.2,0-3.4
	c0-6,0.4-10.4,3.4-15.7c0.8-0.7,1.5-1.5,2.2-2.2c0.6-0.6,1.2-1.2,1.8-1.8c-0.6-5.5-5-8.7-9-12c-4.9-3.5-9.9-6.8-15-10
	c-0.5,0.3-1,0.6-1.6,0.9c-6.6,3.5-12.4,4.6-19.7,2.5c-5.1-2.2-8.2-5.4-10.7-10.3c-2.3-6.2-3.2-11.9-0.4-18.1
	C-521.6,368.1-511.1,365.5-499.6,369.1z"/>
<path class="st2" d="M-738.9,68.5c1.3,0,2.7,0,4,0c2.8,0,5.6,0,8.4,0c3.6,0,7.1,0,10.7,0c2.8,0,5.5,0,8.3,0c1.9,0,3.9,0,5.8,0
	c1.2,0,2.4,0,3.6,0c1,0,2.1,0,3.2,0c5.9,0.8,10.1,3.7,13.8,8.2c2.3,4.1,2.1,8.5,2.1,13.1c0,1,0,1.9,0.1,2.9c0,2.4,0.1,4.8,0.1,7.1
	c9.9,0.3,19.9,0.5,29.8,0.8c4.6,0.1,9.2,0.2,13.8,0.3c4.5,0.1,8.9,0.2,13.4,0.3c1.7,0,3.4,0.1,5.1,0.1c9,0.7,9,0.7,17.2-2.1
	c1.6-1.8,1.6-1.8,2.7-3.8c1.9-3.2,4.6-3.8,8-4.7c6.2-0.7,11.8-0.8,17,3c5,4.8,8,9.2,8.4,16.2c-0.2,5.8-1.9,11-5.8,15.3
	c-5.3,4.7-10.1,5.9-17,5.7c-4.1-0.5-7.3-1.8-10.6-4.3c-0.7-1-1.4-2-2.1-3.1c-2.2-2.7-2.8-2.9-6.5-3.7c-1.4,0-2.8,0-4.2,0
	c-0.8,0-1.5,0-2.3,0c-2.5,0-5.1,0-7.6,0c-1.8,0-3.5,0-5.3,0c-4.6,0-9.3,0-13.9,0c-4.7,0-9.5,0-14.2-0.1c-9.3-0.1-18.6-0.1-27.8-0.1
	c0,0.9,0,0.9,0.1,1.8c0.1,2.7,0.1,5.5,0.2,8.2c0,0.9,0.1,1.9,0.1,2.8c0.1,8-1.5,13.2-7.1,19c-7.1,4.6-14.1,4.4-22.2,4.1
	c0.3,1.3,0.5,2.7,0.8,4c0.1,0.7,0.3,1.5,0.5,2.2c0.6,2.4,1.4,4.6,2.3,6.9c0.4,1.1,0.4,1.1,0.8,2.2c0.3,0.8,0.3,0.8,0.6,1.7
	c0.9,0,0.9,0,1.8,0c6.4,0.1,12.7,0.1,19.1,0.2c2.4,0,4.7,0.1,7.1,0.1c3.4,0,6.8,0.1,10.2,0.1c1,0,2.1,0,3.2,0
	c6.4,0.1,13.1,0.4,18.1,4.9c3.8,4.3,4.6,7.7,4.6,13.2c0,1.7,0,1.7,0,3.5c0,1.2,0,2.5,0,3.8c0,1.3,0,2.6,0,3.9c0,2.7,0,5.5,0,8.2
	c0,3.5,0,7,0.1,10.5c0,3.3,0,6.7,0.1,10c0,1.2,0,2.5,0,3.8c0,10.9,0,10.9-4.5,15.6c-2.2,1.4-2.2,1.4-4,2c5.7,8.5,13.5,16.8,23,21
	c3.6,0.1,5.1-1.1,8.2-3.1c4.5-2.7,8.7-2.7,13.8-1.9c5.6,1.6,8.9,4.5,12.1,9.3c2.4,4.4,2.4,8.8,1.9,13.7c-2.1,6.5-5.2,11.3-11.1,14.9
	c-5.9,2.2-12.3,1.9-18.2,0.1c-4.1-3-7.6-7.2-9.4-12c-1.9-3.1-4.9-4.3-8-6c-10.3-5.9-29.4-18.1-32.9-30.1c-0.1-0.6-0.3-1.2-0.4-1.9
	c-1.6,0-1.6,0-3.2,0c-3.9,0.1-7.8,0.1-11.7,0.1c-1.7,0-3.4,0-5,0.1c-21.8,0.3-21.8,0.3-29.1-5.7c-3.3-4.2-4.2-6.9-4.2-12.3
	c0-1.7,0-1.7,0-3.5c0-1.2,0-2.5,0-3.8c0-1.3,0-2.6,0-3.9c0-2.7,0-5.5,0-8.2c0-3.5,0-7,0-10.5c0-3.3,0-6.7,0-10c0-1.2,0-2.5,0-3.8
	c0-1.2,0-2.3,0-3.5c0-1.5,0-1.5,0-3.1c0.1-2.9,0.1-2.9,0.7-6.2c0.5-3.1,0.3-3.9-1.4-6.4c-3.5-6.3-4.2-13.2-4.2-20.3
	c-0.7,0-1.4,0-2.1,0c-3.1,0.1-6.3,0.1-9.4,0.1c-1.1,0-2.2,0.1-3.3,0.1c-7.8,0.1-13.7-0.5-20-5.5c-6-7.7-5.6-15.4-5.4-24.7
	c0-1.3,0-2.7,0-4c0-2.8,0.1-5.6,0.1-8.4c0.1-3.6,0.1-7.2,0.1-10.7c0-2.8,0.1-5.5,0.1-8.3c0-2,0-3.9,0.1-5.9
	c0.1-4.9,0.3-8.8,2.1-13.4C-758,68.3-748.8,68.4-738.9,68.5z"/>
<path class="st3" d="M-982,695c86.2,0,86.2,0,106.3,18.3c15.1,15.9,19.3,37.1,18.9,58.3c-0.7,18.6-6.2,36.5-19.4,50
	C-905.9,847.5-943.6,839-982,839C-982,791.5-982,744-982,695z"/>
<path class="st4" d="M-558,695c10.9,0,21.8,0,33,0c6.1,15.3,11.7,30.9,17.2,46.4c1.3,3.6,2.5,7.1,3.8,10.7c2.8,7.7,5.5,15.4,8.2,23
	c1,2.9,2.1,5.8,3.1,8.7c7.8,21.8,7.8,21.8,11,30.9c1.1,3,2.2,6.1,3.3,9.1c0.6,1.5,1.1,3.1,1.7,4.7c0.3,0.7,0.5,1.4,0.8,2.2
	c1,2.9,1.8,5.2,1.8,8.4c-9.2,0-18.5,0-28,0c-4.5-11.3-4.5-11.3-5.9-15.5c-0.3-0.9-0.6-1.8-0.9-2.8c-0.3-0.9-0.6-1.8-0.9-2.8
	c-0.3-0.9-0.6-1.9-1-2.8c-0.3-0.9-0.6-1.8-0.9-2.7c-0.3-0.8-0.5-1.6-0.8-2.4c-0.6-2-0.6-2-0.6-4c-18.5,0-37,0-56,0
	c-1,3.6-2,7.3-3,11c-0.6,1.9-1.2,3.8-1.8,5.6c-0.3,0.9-0.6,1.8-0.9,2.8c-0.3,0.9-0.6,1.8-0.9,2.7c-0.3,1-0.6,1.9-1,2.9
	c-0.3,0.9-0.6,1.8-0.9,2.7c-0.3,0.8-0.5,1.6-0.8,2.4c-0.7,1.9-0.7,1.9-1.7,2.9c-2.1,0.1-4.2,0.1-6.2,0.1c-1.3,0-2.5,0-3.8,0
	c-1.3,0-2.7,0-4,0c-1.4,0-2.7,0-4,0c-3.3,0-6.6,0-9.9,0c0.6-3.4,1.5-6.6,2.6-9.8c0.3-1,0.7-1.9,1-2.9c0.3-1,0.7-2.1,1.1-3.1
	c0.6-1.6,0.6-1.6,1.1-3.3c1.2-3.6,2.5-7.1,3.7-10.7c0.9-2.5,1.7-5,2.6-7.5c7.2-20.9,14.6-41.7,22-62.5c2.2-6.2,4.4-12.4,6.6-18.7
	c0.3-0.8,0.6-1.6,0.9-2.5c1.1-3,2.1-6.1,3.2-9.1c0.7-2,1.4-4,2.1-6c0.4-1.1,0.8-2.2,1.2-3.4C-559,697-559,697-558,695z"/>
<path class="st5" d="M-635.2,703.7c7.6,5.8,12.6,13.2,15.2,22.3c0.5,5,0.5,5,1,10c-9.2,0-18.5,0-28,0c-1-3-2-5.9-3-9
	c-4.2-6.7-10.1-8.9-17.5-10.6c-9.1-1.5-19-0.4-27,4.5c-3.4,2.8-5.1,4.9-6.5,9.1c-0.4,4.6-0.5,7,1.6,11.2
	c8.6,9.7,24.5,11.6,36.6,14.2c15.3,3.4,31.5,7.9,40.8,21.5c5.6,10.3,6.6,21.8,4.3,33.2c-3.7,11.2-11.7,19.8-22.1,25.2
	c-3,1.3-6.1,2.5-9.2,3.6c-1.4,0.5-1.4,0.5-2.9,1c-19.1,5.4-41.2,3.1-58.5-6.4c-10.2-6.3-17.5-16-20.6-27.6c0-3.3,0-6.6,0-10
	c8.6,0,17.2,0,26,0c1.3,4,2.6,7.9,4,12c3.4,5.8,8.9,8,15,10c3.3,0.3,6.7,0.2,10.1,0.2c0.9,0,1.8,0,2.7,0.1c6.6,0,12-1.1,18.2-3.3
	c1-0.3,2-0.6,3-0.9c2.5-1.3,3-2.4,4-5.1c0.5-1,0.5-1,1.1-2.1c1.7-5.6,1.8-10.9-0.6-16.2c-7.4-7.8-19.1-8.8-29.2-11
	c-8.2-1.8-16.2-3.8-24.1-6.7c-0.6-0.2-1.3-0.5-2-0.7c-5.6-2.2-10-5.1-14.2-9.2c-0.6-0.5-1.1-1.1-1.7-1.7c-7.7-8.3-9.7-18-9.5-29
	c1-11.7,5.7-20.1,14-28C-692.5,686.3-657.8,688.4-635.2,703.7z"/>
<path class="st6" d="M-764,742c11.1,8.3,15.9,21.8,18,35c0,5.6,0,11.2,0,17c-23.8,0-47.5,0-72,0c2.9,14.3,2.9,14.3,12.2,24
	c6.5,3.5,13.3,4.1,20.5,2.3c6.4-2.3,10.2-5.1,13.3-11.3c8.2,0,16.5,0,25,0c-4.4,13.1-9.9,21.2-22,28c-3,1.2-5.9,2.2-9,3
	c-0.7,0.2-1.4,0.4-2.1,0.5c-11.8,1.8-25,1.8-35.9-3.5c-1.3-0.6-1.3-0.6-2.7-1.3c-10.5-5.7-17.1-14.6-21.3-25.7
	c-5-17-5.2-36.7,3.4-52.6c8-12.3,18.8-19.5,33-23C-789.9,732.3-775.7,734.5-764,742z"/>
<path class="st7" d="M-955,718c45.9,0,45.9,0,58.8,11.6c10.2,10.9,12.8,26,12.6,40.5c-0.4,12.2-3.3,25.2-11.7,34.5
	c-17.1,15.2-37.5,12.4-59.6,12.4C-955,784.3-955,751.7-955,718z"/>
<path class="st8" d="M-267,737c8.6,0,17.2,0,26,0c1.9,4.9,3.6,9.8,5.3,14.8c0.2,0.6,0.4,1.2,0.6,1.9c0.7,2,1.3,4.1,2,6.1
	c0.5,1.4,0.9,2.8,1.4,4.3c1.2,3.7,2.4,7.5,3.6,11.2c1.2,3.8,2.5,7.6,3.7,11.4c2.4,7.5,4.9,14.9,7.3,22.4c1.7-2.5,2.5-4.1,3.4-6.9
	c0.2-0.8,0.5-1.6,0.8-2.4c0.3-0.8,0.5-1.7,0.8-2.6c0.3-0.9,0.6-1.8,0.9-2.7c0.9-2.9,1.8-5.8,2.8-8.6c0.6-2,1.3-3.9,1.9-5.9
	c2.7-8.5,5.5-16.9,8.1-25.4c0.4-1.2,0.7-2.3,1.1-3.5c0.7-2.1,1.3-4.2,2-6.3c0.3-0.9,0.6-1.8,0.9-2.8c0.2-0.8,0.5-1.5,0.7-2.3
	c0.6-1.7,0.6-1.7,1.6-2.7c1.8-0.1,3.6-0.1,5.4-0.1c1.1,0,2.2,0,3.3,0c1.7,0,1.7,0,3.4,0c1.7,0,1.7,0,3.5,0c2.8,0,5.6,0,8.5,0
	c-2.4,9.8-5.8,19.1-9.2,28.6c-0.9,2.6-1.9,5.2-2.8,7.8c-0.6,1.8-1.3,3.6-1.9,5.4c-2.7,7.4-5.3,14.7-7.9,22.1
	c-3.1,8.7-6.2,17.3-9.3,26c-0.7,2.1-1.5,4.1-2.2,6.2c-12.5,35.1-12.5,35.1-27.8,43c-4.4,2.1-8.2,3.2-13.1,3.2c-0.7,0-1.4,0-2.2,0
	c-0.9,0-1.8,0-2.7,0c-2.9,0-5.8,0-8.7-0.1c0-6.3,0-12.5,0-19c2.2-0.2,4.4-0.5,6.6-0.8c7.4-1,7.4-1,13.4-5.2c3.1-5,6.8-11.1,5.6-17.2
	c-0.3-0.7-0.5-1.5-0.8-2.2c-0.5-1.3-0.5-1.3-0.9-2.6c-0.3-0.9-0.7-1.8-1-2.8c-0.4-1-0.7-2-1.1-3c-1.2-3.2-2.4-6.4-3.6-9.7
	c-0.8-2.2-1.6-4.5-2.4-6.7c-2.1-5.8-4.3-11.6-6.4-17.4c-1.3-3.4-2.5-6.8-3.8-10.2c-3.1-8.3-6.1-16.6-9.2-24.9
	c-0.5-1.4-0.5-1.4-1-2.8c-0.6-1.7-1.3-3.4-1.9-5.1c-0.3-0.8-0.6-1.5-0.9-2.3c-0.2-0.6-0.5-1.3-0.7-2
	C-265.2,742.4-266.1,739.7-267,737z"/>
<path class="st9" d="M-159,737c25.4,0,50.8,0,77,0c0,19.5,0,19.5-6.1,25.9c-1.3,1.5-2.6,3-3.9,4.5c-0.7,0.8-1.3,1.5-2,2.3
	c-3.3,3.9-6.3,8-9.2,12.2c-3.9,5.4-7.9,10.7-11.9,15.9c-5.4,7-10.6,14.1-15.8,21.2c16.2,0,32.3,0,49,0c0,6.6,0,13.2,0,20
	c-25.7,0-51.5,0-78,0c0-22.7,0-22.7,7-29.7c3.5-3.7,6.4-7.8,9.3-11.9c1.1-1.5,2.2-3.1,3.3-4.6c0.6-0.8,1.1-1.6,1.7-2.4
	c3-4.2,6.1-8.3,9.1-12.5c0.6-0.8,1.1-1.5,1.7-2.3c3.4-4.6,6.9-9.2,10.5-13.7c1.6-2,1.6-2,2.4-5c-14.5,0-29,0-44,0
	C-159,750.4-159,743.8-159,737z"/>
<path class="st10" d="M-367,737c22-2.3,22-2.3,28,1.2c3.3,3.3,5.1,7.3,6.9,11.6c1.8,3.9,4.3,7.5,6.7,11.2c0.9,1.4,1.7,2.7,2.5,4.1
	c0.6,1,1.2,2,1.8,3c3-2.9,5.3-5.8,7.6-9.3c0.7-1,1.3-2,2-3c0.7-1,1.3-2.1,2-3.2c1.3-2.1,2.7-4.2,4-6.2c0.6-0.9,1.2-1.8,1.8-2.8
	c0.5-0.8,1.1-1.7,1.7-2.5c0.4-0.8,0.9-1.5,1.3-2.3c1.7-1.7,1.7-1.7,4.3-2.1c1.5,0,1.5,0,3.1,0.1c1.1,0,2.2,0,3.4,0
	c1.2,0,2.3,0.1,3.5,0.1c1.2,0,2.4,0,3.6,0c2.9,0,5.8,0.1,8.7,0.2c-3.9,8-9.2,15.3-14.2,22.6c-0.5,0.7-0.9,1.3-1.4,2
	c-2.6,3.7-5.2,7.4-7.8,11c-0.6,0.8-1.1,1.5-1.7,2.3c-1.1,1.5-2.2,2.9-3.3,4.4c-0.7,1-0.7,1-1.5,2c-0.4,0.6-0.9,1.2-1.3,1.8
	c-1.2,2.7-0.7,4.1,0.2,6.9c1.4,2.6,1.4,2.6,3.3,5.3c0.7,1,1.3,2,2,3c0.7,1.1,1.4,2.1,2.2,3.2c0.7,1.1,1.5,2.2,2.2,3.3
	c2.1,3.1,4.2,6.2,6.3,9.2c0.8,1.1,0.8,1.1,1.5,2.2c3.1,4.6,6.3,9.2,9.6,13.7c0.6,0.9,1.3,1.8,2,2.8c0.6,0.8,1.1,1.6,1.7,2.4
	c1.2,1.9,1.2,1.9,1.2,3.9c-4.2,0.3-8.4,0.5-12.6,0.6c-1.2,0.1-2.4,0.2-3.6,0.3c-8.6,0.2-8.6,0.2-12-2.8c-1.8-2.6-3.4-5.3-4.9-8.1
	c-1.2-1.8-2.5-3.7-3.8-5.5c-1.2-1.8-2.5-3.7-3.7-5.5c-1-1.4-1-1.4-1.9-2.8c-0.6-0.9-1.2-1.8-1.8-2.7c-0.5-0.8-1.1-1.6-1.6-2.4
	c-1.2-2-1.2-2-1.2-4c-3.4,3.2-6.1,6.4-8.7,10.4c-0.7,1-1.4,2.1-2,3.1c-0.4,0.6-0.7,1.1-1.1,1.7c-2.2,3.3-4.4,6.7-6.6,10
	c-0.4,0.7-0.9,1.3-1.3,2c-3.1,4.7-3.1,4.7-4.2,5.8c-1.9,0.1-3.9,0.1-5.8,0.1c-1.8,0-1.8,0-3.5,0c-1.9,0-1.9,0-3.7,0
	c-1.9,0-1.9,0-3.8,0c-3.1,0-6.1,0-9.2,0c5-8.1,10.3-15.8,15.8-23.6c4.5-6.4,8.9-12.9,13.2-19.4c1.2-1.8,2.3-3.5,3.5-5.2
	c0.5-0.7,1-1.5,1.5-2.2c0.3-0.5,0.7-1,1-1.5c-4.6-9.6-11.6-18.3-17.6-27.1c-0.9-1.4-0.9-1.4-1.9-2.8c-0.6-0.9-1.2-1.8-1.9-2.7
	c-0.6-0.9-1.2-1.8-1.8-2.7c-2.5-3.6-5-7.2-7.6-10.7C-367,739-367,739-367,737z"/>
<path class="st11" d="M-454,695c9.2,0,18.5,0,28,0c0,47.5,0,95,0,144c-9.2,0-18.5,0-28,0C-454,791.5-454,744-454,695z"/>
<path class="st12" d="M-451,166c16.5,0,33,0,50,0c0,16.5,0,33,0,50c-16.5,0-33,0-50,0C-451,199.5-451,183-451,166z"/>
<path class="st7" d="M-748,88c7.9,0,15.8,0,23.9-0.1c2.5,0,5,0,7.6,0c2,0,3.9,0,5.9,0c1.6,0,1.6,0,3.1,0c1,0,2,0,3,0
	c0.9,0,1.7,0,2.6,0C-700,88-700,88-699,89c0.1,1.5,0.1,3,0.1,4.5c0,1,0,2,0,3c0,1,0,2.1,0,3.1c0,0.9,0,1.9,0,2.8c0,3.5,0,7.1,0,10.6
	c0,7.9,0,15.8-0.1,23.9c-16.2,0-32.3,0-49,0C-748,120.8-748,104.7-748,88z"/>
<path class="st7" d="M-717,460c16.2,0,32.3,0,49,0c0,15.8,0,31.7,0,48c-16.2,0-32.3,0-49,0C-717,492.2-717,476.3-717,460z"/>
<path class="st7" d="M-435,545c16.2,0,32.3,0,49,0c0,7.7,0,15.5,0.1,23.4c0,2.4,0,4.9,0,7.4c0,1.9,0,3.9,0,5.8c0,1,0,2,0,3.1
	c0,1.4,0,1.4,0,2.9c0,0.8,0,1.7,0,2.5c-0.1,1.9-0.1,1.9-1.1,2.9c-1.5,0.1-3,0.1-4.5,0.1c-1,0-1.9,0-2.9,0c-1,0-2.1,0-3.1,0
	c-1.4,0-1.4,0-2.9,0c-3.5,0-7.1,0-10.6,0c-7.9,0-15.8,0-23.9-0.1C-435,577.2-435,561.3-435,545z"/>
<path class="st13" d="M-459,441c15.5,0,31,0,47,0c0,14.9,0,29.7,0,45c-15.5,0-31,0-47,0C-459,471.1-459,456.3-459,441z"/>
<path class="st14" d="M-705,194c14.8,0,29.7,0,45,0c0,14.5,0,29,0,44c-14.9,0-29.7,0-45,0C-705,223.5-705,209-705,194z"/>
<path class="st15" d="M-496,269c3.2,1.4,5.4,3.1,7.9,5.6c0.7,0.7,1.5,1.4,2.2,2.2c0.8,0.8,1.5,1.5,2.3,2.3c0.7,0.7,1.5,1.5,2.2,2.2
	c2.2,2.2,4.3,4.4,6.5,6.6c0.7,0.7,1.4,1.5,2.1,2.2c0.6,0.7,1.3,1.4,2,2.1c0.6,0.6,1.2,1.2,1.8,1.9c1.1,1.8,1.1,1.8,0.9,4
	c-1,2.3-2,3.3-4,4.9c-0.7,0.6-1.4,1.2-2.2,1.8c-0.9,0.7-1.8,1.5-2.6,2.2c-1.8,1.5-3.5,3-5.3,4.5c-4.9,4.2-9.8,8.4-14.7,12.5
	c-7.2-3.1-12.2-10.1-17.1-15.9c-2.9-3.2-6.1-6-9.3-8.9c-1.6-2.2-1.6-2.2-1.7-4.7c1.3-3.2,2.9-4.4,5.6-6.5c1-0.8,2-1.5,3-2.3
	c0.5-0.4,1.1-0.8,1.7-1.3c3.5-2.7,7-5.6,10.4-8.4c0.7-0.6,1.4-1.1,2.2-1.8c0.7-0.5,1.3-1.1,2-1.6c0.6-0.5,1.2-1,1.8-1.5
	C-497,270.1-497,270.1-496,269z"/>
<path class="st15" d="M-607,357c4.4,4.2,8.2,8.7,12,13.4c1.2,1.5,2.4,3,3.6,4.4c0.6,0.7,1.1,1.4,1.7,2.1c1,1.3,2.1,2.5,3.2,3.7
	c1.4,1.6,1.4,1.6,3.4,4.3c-0.2,2.5-0.6,3.6-2.4,5.4c-0.6,0.4-1.2,0.8-1.8,1.3c-1,0.7-1,0.7-2,1.4c-1,0.8-1,0.8-2.1,1.5
	c-1.5,1.1-2.9,2.1-4.4,3.2c-0.7,0.5-1.5,1.1-2.2,1.6c-2,1.5-4,3-6,4.6c-0.6,0.5-1.2,0.9-1.8,1.4c-1.6,1.3-3.2,2.5-4.8,3.8
	c-2.7,1.8-2.7,1.8-6.7,1.8c-1.9-2-3.5-3.9-5.1-6.1c-1-1.3-1.9-2.6-2.9-3.8c-0.5-0.7-1-1.3-1.5-2c-2.5-3.4-5.1-6.6-7.7-9.9
	c-0.9-1.2-1.9-2.4-2.8-3.5c-0.7-0.9-1.3-1.7-2-2.6c2.9-3.9,5.9-6.7,9.8-9.6c0.6-0.4,1.1-0.8,1.7-1.3C-620.7,367-613.9,362-607,357z"
	/>
<path class="st13" d="M-542,723c0.7,0,1.3,0,2,0c2.5,7.4,5,14.8,7.4,22.1c1.2,3.4,2.3,6.8,3.5,10.3c1.1,3.3,2.2,6.6,3.3,9.9
	c0.6,1.9,1.3,3.8,1.9,5.6c0.4,1.1,0.8,2.3,1.2,3.5c0.3,1,0.7,2,1,3c0.7,2.5,0.7,2.5,0.7,5.5c-13.2,0-26.4,0-40,0
	c2.2-10.1,2.2-10.1,3.8-14.7c0.3-1,0.7-2,1-3.1c0.5-1.6,0.5-1.6,1.1-3.2c0.4-1.1,0.8-2.2,1.1-3.4c1.2-3.5,2.4-7.1,3.6-10.6
	c0.8-2.4,1.6-4.8,2.4-7.2C-546,734.8-544,728.9-542,723z"/>
<path class="st14" d="M-782.6,755.6c6.4,3.8,10.2,9.5,12.6,16.4c0,1.7,0,3.3,0,5c-15.8,0-31.7,0-48,0c1.9-8.5,3.2-14.3,10.2-19.7
	C-800.2,752.9-790.8,752-782.6,755.6z"/>
<path class="st16" d="M-629,351c1,0.5,1,0.5,2,1c-4,4.5-8.7,7.8-13.6,11.2c-2.5,1.7-2.5,1.7-4.4,3.8c-1,0.7-1.9,1.5-2.9,2.2
	c-4,3.3-6.5,6.8-8,11.8c-0.1,3.5,0.5,5.8,1.9,9c0.7,0.3,1.3,0.7,2,1c0.7,1.6,1.4,3.3,2,5c0.3,0.7,0.7,1.3,1,2
	c-3.1,3.1-6.2,6.1-9.5,9.1c-12.6,11.3-12.6,11.3-22.5,24.9c-0.5,0.9-1.1,1.7-1.6,2.6c-1.5,2.3-1.5,2.3-1.8,4.6
	c-0.6,1.9-0.6,1.9-2.6,3.6c-5.1,2.2-10.8,3.1-16.1,1.3c-2.1,0.2-4.1,0.5-6.2,0.7c-5.6,0.5-11.2,0.3-16.8,0.3c0,1,0,2,0,3
	c-0.6,0-1.2,0-1.8,0.1c-2.9,1.2-3.5,2.8-4.6,5.6c-1.3,5-1,10.1-0.9,15.2c0,1.2,0,2.5,0,3.8c0,3.3,0,6.6,0.1,9.8c0,3.3,0,6.6,0,10
	c0,2.5,0,5.1,0,7.6c0,1.2,0,2.4,0,3.6c0,5.5,0.2,10.8,1.2,16.3c0.7,0,1.3,0,2,0c0,1,0,2,0,3c2,0,4,0,6,0c0,0.7,0,1.3,0,2
	c0.6,0,1.1,0,1.7,0c2.5,0,5.1,0,7.6,0c0.9,0,1.8,0,2.7,0c1.3,0,1.3,0,2.6,0c0.8,0,1.6,0,2.4,0c2.1,0.1,2.1,0.1,5.1,1.1
	c1.6,3.2,1.4,6.7,1.6,10.2c0,0.8,0.1,1.6,0.1,2.4c0.4,7.5,0.4,14.9,0.3,22.4c0,1,0,2,0,3c-1.9,2.1-3.6,3.8-6.1,5.2
	c-2.7,2.5-3.2,5.1-4.2,8.6c-0.7,2.2-1.6,4.2-2.7,6.2c0.7,0.3,1.3,0.7,2,1c0,2,0,4,0,6c0.7,0,1.3,0,2,0c0,0.6,0.1,1.1,0.1,1.7
	c1.4,3.6,3.8,5.1,6.9,7.3c2.7,0.3,2.7,0.3,5,0c0.3,0.3,0.7,0.7,1,1c2.3,0.4,4.7,0.7,7,1c0,0.3,0,0.7,0,1
	c-10.7,0.6-10.7,0.6-15.4-1.6c-5-4.6-9-9-9.9-16c-0.1-6.2,0.4-11.4,4.3-16.4c1-0.7,2-1.4,3-2.1c2.8-2.4,3-2.9,3.7-6.8
	c0-1.5,0.1-3,0-4.5c0-0.8,0-1.6,0-2.4c0-2.5,0-5,0-7.5c0-1.7,0-3.4,0.1-5.1c0-4.2,0.1-8.4,0.1-12.5c-0.6,0-1.1,0-1.7,0.1
	c-2.6,0.1-5.2,0.1-7.8,0.2c-0.9,0-1.8,0.1-2.7,0.1c-6.2,0.1-10.7-0.9-15.8-4.3c-3.8-4-4.1-7.8-4.2-13.2c0-1.3,0-2.6,0-3.9
	c0-1.4,0-2.8,0-4.2c0-0.7,0-1.4,0-2.1c0-3.7,0-7.5,0-11.2c0-3.9,0-7.7-0.1-11.6c0-3,0-5.9,0-8.9c0-1.4,0-2.8,0-4.3c0-2,0-4,0-6
	c0-1.7,0-1.7,0-3.4c0.7-4.7,3-7.8,6.5-11c4.4-2.6,8.9-2.3,13.8-2.3c0.8,0,1.5,0,2.3,0c2.4,0,4.8,0,7.2,0c1.6,0,3.2,0,4.9,0
	c4,0,7.9,0,11.9,0c0.3-0.9,0.6-1.9,0.9-2.8c5.2-15,20-27.4,31.5-37.8c1.6-1.4,3.1-2.9,4.7-4.4c-0.4-0.6-0.9-1.2-1.3-1.8
	c-3.7-5.5-5.4-9.8-5.6-16.4c2.5-8,10.6-13.3,17.1-18.1c0.8-0.6,1.6-1.2,2.4-1.8C-636,356.2-632.5,353.6-629,351z"/>
<path class="st17" d="M-385.1,812c3.6,3.5,5.9,7.3,6.2,12.3c-0.5,5.9-2.3,9.5-6.1,14c-4.9,2.7-9.6,2.5-15.1,1.7
	c-3.5-1.6-5.3-4-7.4-7.2c-1.3-5.8-1.6-10.9,1.1-16.2C-400.5,810.1-393.3,809.2-385.1,812z"/>
<path class="st18" d="M-425.9,67.7c5.6,0.2,10.4,1.1,14.6,4.9c5.2,5.8,6.7,10.9,6.6,18.6c-0.7,6-2.9,10.9-7.4,14.9
	c-2.9,1.9-2.9,1.9-4.9,1.9c0,12.9,0,25.7,0,39c6.9-0.1,6.9-0.1,13.8-0.3c6.5-0.1,11.8,0.3,16.9,4.8c3.5,4.8,4.4,6.9,4.4,12.8
	c0,1,0,1,0,2c0,2.2,0,4.3,0,6.4c0,1.5,0,3,0,4.5c0,3.1,0,6.3,0,9.4c0,4,0,8,0,12c0,3.1,0,6.2,0,9.2c0,1.5,0,3,0,4.4
	c0,2.1,0,4.1,0,6.2c0,1.8,0,1.8,0,3.6c-0.4,2.9-0.4,2.9-1.9,4.8c-0.7,0.5-0.7,0.5-1.5,1.1c0.2-0.7,0.3-1.4,0.5-2.1
	c0.5-3.1,0.6-5.9,0.6-9c0-1.8,0-1.8,0-3.6c0-1.3,0-2.6,0-3.9c0-1.4,0-2.7,0-4.1c0-2.8,0-5.6,0-8.5c0-3.6,0-7.2,0-10.8
	c0-2.8,0-5.6,0-8.3c0-2,0-4,0-5.9c0-1.2,0-2.4,0-3.7c0-1.1,0-2.1,0-3.2c-0.1-2.8-0.4-5.2-1.1-7.9c-1-0.5-1-0.5-2-1
	c0.3-0.7,0.7-1.3,1-2c-3.8-2.2-7.8-3-12-4c0-0.7,0-1.3,0-2c-0.6,0-1.2,0-1.8,0c-2.7,0-5.4,0-8.1,0.1c-1,0-1.9,0-2.9,0
	c-1.3,0-1.3,0-2.7,0c-1.2,0-1.2,0-2.5,0c-1.9-0.1-1.9-0.1-2.9-1.1c-0.2-2.4-0.3-4.7-0.4-7.1c0-0.7-0.1-1.4-0.1-2.2
	c0-1.5-0.1-3-0.1-4.6c-0.1-2.3-0.2-4.6-0.2-6.9c0-1.5-0.1-2.9-0.1-4.4c0-0.7,0-1.4-0.1-2.1c-0.1-4.7,0.5-8.4,2.1-12.8
	c1.9-1.1,1.9-1.1,4-2c1.6-2.2,1.6-2.2,3-5c0.4-0.6,0.7-1.2,1.1-1.9c2.7-4.8,3.2-7.6,1.9-13.1c-0.3-2.3-0.7-4.7-1-7c-0.7,0-1.3,0-2,0
	c-0.2-0.6-0.5-1.2-0.7-1.9c-1.7-2.8-3.3-3.1-6.3-4.1c-0.7-0.3-1.3-0.7-2-1c-2-0.2-4.1-0.4-6.1-0.6c-1.6-0.1-1.6-0.1-3.3-0.2
	c-0.8-0.1-1.7-0.1-2.6-0.2C-429.7,67.6-429.1,67.7-425.9,67.7z"/>
<path class="st19" d="M-717,457c0.3,0.7,0.7,1.3,1,2c0.6-0.2,1.2-0.3,1.8-0.5c3.6-0.8,7.3-0.7,11-0.6c0.9,0,1.7,0,2.6,0
	c7.3,0.1,14.5,0.2,21.8,0.4c1.6,0,1.6,0,3.2,0.1c1.5,0,1.5,0,3,0.1c0.9,0,1.7,0.1,2.6,0.1c2.1,0.4,2.1,0.4,4.1,3.4
	c1.7,8.3,0.8,16.7,0,25c0.7,0.3,1.3,0.7,2,1c-0.3,1-0.7,2-1,3c-0.2,3.6-0.4,7.2-0.4,10.8c-0.2,5.7-0.2,5.7-1.8,7.9
	c-2.1,1.6-3.2,1.6-5.8,1.6c-0.8,0-1.6,0-2.5,0c-0.9,0-1.8,0-2.7,0c-1.4,0-1.4,0-2.8,0c-1.9,0-3.9,0-5.8,0c-2.9,0-5.9,0-8.8,0
	c-1.9,0-3.8,0-5.6,0c-1.3,0-1.3,0-2.6,0c-5.1,0-9.4-0.5-14.1-2.3c-1.2-2.3-1.1-3.7-1.1-6.2c0-0.9,0-1.8,0-2.6c0-1,0-1.9,0-2.9
	c0-1,0-1.9,0-2.9c0.1-10.5,0.5-20.9,1.1-31.3c-0.7-0.3-1.3-0.7-2-1c0.7,0,1.3,0,2,0C-717.7,460.4-717.4,458.7-717,457z M-717,460
	c0,15.8,0,31.7,0,48c16.2,0,32.3,0,49,0c0-15.8,0-31.7,0-48C-684.2,460-700.4,460-717,460z"/>
<path class="st20" d="M-442.5,162.8c1.1,0,1.1,0,2.2,0c1.6,0,3.1,0,4.7,0c2.4,0,4.7,0,7.1,0c24.2,0.1,24.2,0.1,28.4,2.2
	c1.1,5.9,1.5,12.1,0,18c0.7,0.3,1.3,0.7,2,1c0.1,4.4,0.1,8.8,0.1,13.1c0,1.5,0,3,0,4.5c0,2.1,0,4.3,0,6.4c0,1.9,0,1.9,0,3.9
	c-0.2,3.1-0.2,3.1-2.2,5.1c-2.9,0.3-2.9,0.3-6.6,0.4c-1,0-1,0-2,0.1c-2.1,0-4.2,0.1-6.4,0.1c-2.8,0.1-5.5,0.1-8.3,0.2
	c-0.7,0-1.3,0-2,0.1c-4.8,0.1-9.6,0.5-14.4,1c-3.9,0.3-7.5-0.2-11.3-0.8c-1.6-1.6-1.2-3.6-1.3-5.8c0-1-0.1-2.1-0.1-3.1
	c0-1.1-0.1-2.2-0.1-3.4c0-1.2-0.1-2.3-0.1-3.5c-0.1-2.4-0.1-4.9-0.2-7.3c-0.1-3.7-0.2-7.5-0.3-11.2c0-2.4-0.1-4.7-0.1-7.1
	c-0.1-1.7-0.1-1.7-0.1-3.4c0-1,0-2.1,0-3.1c0-0.9,0-1.8-0.1-2.8c0.1-0.7,0.2-1.5,0.3-2.2C-449.4,162.6-446.7,162.7-442.5,162.8z
	 M-451,166c0,16.5,0,33,0,50c16.5,0,33,0,50,0c0-16.5,0-33,0-50C-417.5,166-434,166-451,166z"/>
<path class="st21" d="M-669,258c0.3,0.7,0.7,1.3,1,2c0.7,0,1.3,0,2,0c0.5,0.6,1,1.3,1.4,1.9c1.5,2.3,1.5,2.3,4.6,3.1
	c0.1,0.6,0.3,1.2,0.5,1.8c0.7,2.9,2,3.8,4.3,5.7c1.1,0.9,1.1,0.9,2.2,1.8c0.7,0.6,1.3,1.1,2,1.7c0.9,0.8,1.7,1.5,2.6,2.3
	c2.7,1.9,5.2,2.8,8.4,3.7c0,1,0,2,0,3c1.3,0.3,2.6,0.7,4,1c0,0.7,0,1.3,0,2c1.1-0.1,1.1-0.1,2.2-0.2c2.8,0.2,2.8,0.2,5.1,2
	c1.7,2.2,1.7,2.2,1.7,6.2c1,0.5,1,0.5,2,1c2.3,2,3,3,4,6c4.3,2.9,7.4,3.3,12.5,2.4c1.2-0.3,2.4-0.7,3.7-1c1.2-0.3,2.4-0.6,3.7-1
	c3.6-1.6,4.5-2.8,6.1-6.4c0.3-1,0.7-2,1-3c0.7,0,1.3,0,2,0c-0.3-9.3-0.3-9.3-3-18c-2.5-1.2-2.5-1.2-5-2c-0.5-1.5-0.5-1.5-1-3
	c4.6,1.2,6.4,3.5,9,7.2c2.5,4.4,2.5,8.8,2,13.8c-2.1,6.5-5.2,11.3-11.1,14.9c-5.9,2.1-12.3,1.9-18.2,0.1c-4.1-3-7.6-7.2-9.4-12
	c-1.9-3.1-4.9-4.3-8-6c-12.2-7-23.8-16.7-32.2-28C-669,260-669,259-669,258z"/>
<path class="st22" d="M-574.7,92.1c4.8,3.5,9.3,8,10.7,13.9c0.8,6.7-0.4,12.2-4,18c-3.6,4.1-7.8,6.6-13.3,7.2
	c-6.1,0.3-10.8-0.5-15.7-4.2c-2.5-2.5-4.8-5.2-7-8c0.7-0.3,1.3-0.7,2-1c0.8,0.8,1.5,1.6,2.3,2.4c2.4,2.4,4.6,4.1,7.7,5.6
	c0,0.7,0,1.3,0,2c1.1,0,2.2,0,3.3-0.1c3.7,0.1,3.7,0.1,6.7,1.1c3.2-0.6,6.1-1.5,9-3c1.7-2.5,1.7-2.5,2-5c0.7,0,1.3,0,2,0
	c0.3-1.3,0.7-2.6,1-4c0.7,0,1.3,0,2,0c-0.5-7.4-0.5-7.4-1-15c-1.3-0.3-2.6-0.7-4-1c-0.2-0.8-0.5-1.6-0.8-2.4c-1.5-3-2-3.3-5.1-4.5
	c-4.3-1.4-7.2-1.1-11.2,0.9c-1.2,0.1-2.3,0.2-3.5,0.3c-1.2,0.2-2.3,0.4-3.5,0.7c-1.3,1.8-1.3,1.8-2,4c-1.9,2.1-3.3,2.9-6.1,3.2
	c-2.6,0-5.1,0-7.6-0.1c-0.9,0-1.8,0-2.7,0c-2.2,0-4.4-0.1-6.6-0.1c0-0.3,0-0.7,0-1c1.8,0,1.8,0,3.7,0c8.7,0.3,8.7,0.3,16.6-2.5
	c1.4-1.8,1.4-1.8,2.6-3.8C-592.7,89-581.4,89.9-574.7,92.1z"/>
<path class="st23" d="M-640,482.8c0.8,0,1.6,0,2.5,0c2.7,0,5.4,0.1,8.1,0.1c1.9,0,3.8,0.1,5.6,0.1c5,0.1,9.9,0.2,14.8,0.3
	c5.1,0.1,10.1,0.2,15.2,0.2c9.9,0.1,19.8,0.3,29.7,0.5c1,2.5,1,2.5,2,5c-1-0.5-1-0.5-2-1c0-0.7,0-1.3,0-2c-28.1,0-56.1,0-85,0
	c0,8.2,0,16.5,0,25c-0.3,0-0.7,0-1,0c-0.3-4.1-0.5-8.2-0.7-12.3c-0.1-1.2-0.1-2.3-0.2-3.5c0-1.1-0.1-2.2-0.2-3.4
	c0-1-0.1-2.1-0.2-3.1c0.2-2.6,0.2-2.6,1.3-4.3C-646.9,482.2-643.6,482.7-640,482.8z"/>
<path class="st24" d="M-641,409c1.3,0.7,2.6,1.3,4,2c0,1,0,2,0,3c1,0.3,2,0.7,3,1c1.7,2.1,1.7,2.1,3,4c-0.7,0.7-1.3,1.3-2,2
	c-2-2.3-4-4.6-6-7c-12.7,4.5-22.5,16.7-29,28c0.6,0,1.1-0.1,1.7-0.1c6-0.3,9.4,0.5,14.3,4.1c3.1,4.9,3.4,8.8,3.2,14.4
	c0,1.1,0,1.1,0,2.2c0,1.8-0.1,3.6-0.1,5.4c0.7,0.3,1.3,0.7,2,1c-1,0.5-1,0.5-2,1c-1-0.7-2-1.3-3-2c0.7,0,1.3,0,2,0
	c-0.3-0.7-0.7-1.3-1-2c0-1.3,0-2.7,0.1-4c0.1-5.4-1.4-10-3.1-15c-1.5,0.5-1.5,0.5-3,1c0-0.7,0-1.3,0-2c-1,0-2,0-3,0c0-0.7,0-1.3,0-2
	c-3-0.3-5.9-0.7-9-1c-0.3-1.3-0.7-2.6-1-4c1-1.5,1-1.5,2-3c0.7,0,1.3,0,2,0c-0.3-1-0.7-2-1-3c1-0.3,2-0.7,3-1c0-0.7,0-1.3,0-2
	c1.4-1.6,1.4-1.6,3-3c0.7,0,1.3,0,2,0c0-1,0-2,0-3c1.6-1,3.3-2,5-3c2.3-2.2,4.5-4.5,6.7-6.8c1.3-1.2,1.3-1.2,3.3-1.2
	c0.3-0.7,0.7-1.3,1-2c0.7,0.3,1.3,0.7,2,1C-641,411-641,410-641,409z"/>
<path class="st25" d="M-468,222c0.7,1.3,1.3,2.6,2,4c1,0,2,0,3,0c0,0.7,0,1.3,0,2c0.7,0,1.3,0,2,0c0.3,0.7,0.7,1.3,1,2
	c3.2,2,6,2.4,9.8,2.6c1,0.1,2,0.2,3,0.2c0.8,0,1.5,0.1,2.3,0.1c1.1,2.3,1.1,2.3,2,5c-1.8,4.2-4.8,6.9-8,10
	c-5.7,5.9-5.7,5.9-10.2,12.8c-1.9,3.4-3.8,5.8-6.8,8.2c-1.3,0-2.6,0-4,0c0-0.7,0-1.3,0-2c-0.7,0-1.3,0-2,0c-1.7-1.6-3.4-3.3-5-5
	c-0.7-0.3-1.3-0.7-2-1c0.3-1,0.7-2,1-3c0.5,0.4,0.9,0.8,1.4,1.2c0.6,0.5,1.2,1.1,1.9,1.6c0.6,0.5,1.2,1.1,1.9,1.6
	c1.9,1.7,1.9,1.7,4.8,3.5c14.1-14.3,14.1-14.3,25-31c-1.3,0.1-2.6,0.1-3.9,0.2c-5.7,0-11.5-0.7-15.7-4.8
	C-466.9,227.4-468,225.8-468,222z"/>
<path class="st26" d="M-559.8,540.7c1.6,0.8,1.6,0.8,3.8,2.3c-3,1-5,1-8,0c0-0.7,0-1.3,0-2c-0.6,0.2-1.1,0.4-1.7,0.6
	c-3.8,1.3-7.2,2.4-11.2,2.8c-3.1,0.2-3.1,0.2-4.3,2.2c-0.2,0.8-0.5,1.5-0.8,2.3c-0.5,0.9-1,1.7-1.6,2.6c-1.9,4.4-2.6,8.6-2.4,13.4
	c1.3,2.9,1.3,2.9,3,5c0,1,0,2,0,3c1,0,2,0,3,0c0,1,0,2,0,3c1.1,0,2.1-0.1,3.2-0.1c3.4,0.1,5,0.3,7.8,2.1c-1.6,1.1-1.6,1.1-4,2
	c-6-1.2-9.9-4.6-13.8-9.1c-2.5-6.1-3.2-12.4-0.8-18.6C-582,541.5-571.5,537.1-559.8,540.7z"/>
<path class="st27" d="M-655,520c1,0.3,2,0.7,3,1c-5.1,5.1-8.8,6.1-16,7c-5.6,0-11.2,0-17,0c0,11.9,0,23.8,0,36c1.6,0.7,3.3,1.3,5,2
	c7,7.5,7,7.5,7,13c-0.7,0-1.3,0-2,0c-0.7-2.6-1.3-5.3-2-8c-0.7,0-1.3,0-2,0c-0.7-0.7-1.3-1.3-2-2c-1.3-1-1.3-1-2.6-1.9
	c-2.4-2.1-2.4-2.1-3.4-5.1c0-2.6,0-5.2,0-7.9c0-0.8,0-1.5,0.1-2.3c0-1.6,0.1-3.2,0.1-4.9c0.1-2.5,0.1-5,0.2-7.5
	c0-1.6,0.1-3.1,0.1-4.7c0-0.8,0-1.5,0-2.3c0.2-5.3,0.2-5.3,2.4-7.5c2-0.2,2-0.2,4.4-0.1c0.9,0,1.8,0,2.7,0c1.9,0,3.7,0.1,5.6,0.2
	c1.3,0,1.3,0,2.7,0c0.8,0,1.6,0,2.4,0.1c2.5-0.2,4-1,6.3-2.2c1,0,2,0,3,0C-656.4,522-655.7,521-655,520z"/>
<path class="st28" d="M-703,192c14.5,0,29,0,44,0c1.2,2.3,1.1,3.6,1,6.2c0,0.9,0,1.7-0.1,2.6c0,1.4,0,1.4-0.1,2.8
	c0,1.4,0,1.4-0.1,2.9c-0.1,3-0.2,6.1-0.2,9.1c0,2.1-0.1,4.1-0.2,6.2c-0.1,5.1-0.3,10.1-0.4,15.2c-0.3,0-0.7,0-1,0
	c0-14.2,0-28.4,0-43c-14.5,0-29,0-44,0C-703.7,193.3-703.4,192.7-703,192z"/>
<path class="st29" d="M-451,270c0,3,0,3-2.6,5.9c-2.7,2.7-2.7,2.7-2.3,5c1,2.5,2.4,4.4,3.9,6.6c3.5,5.8,4.4,10.9,2.9,17.5
	c-1.8,3.3-4.2,5.5-7,8c-1.2,1.1-1.2,1.1-2.5,2.3c-2.2,1.9-4.3,3.9-6.5,5.7c-0.7-0.3-1.3-0.7-2-1c0-0.7,0-1.3,0-2
	c2-1.4,4-2.5,6.1-3.7c2.2-1.3,2.2-1.3,2.9-4.3c1,0,2,0,3,0c3.1-6.4,3.8-13.3,1.8-20.1c-0.9-2.1-2-3.4-3.5-5.1
	c-2.3-2.8-2.3-2.8-2.2-4.9c0.3-0.6,0.6-1.2,0.9-1.9c0.3-0.7,0.7-1.5,1.1-2.2c0.3-0.6,0.6-1.1,0.9-1.8c0.7,0,1.3,0,2,0
	c0-0.7,0-1.3,0-2C-453,271.3-452,270.7-451,270z"/>
<path class="st30" d="M-601,271c4.6,1.2,6.4,3.5,9,7.2c2.5,4.4,2.5,8.8,2,13.8c-2.1,6.5-5.2,11.3-11.1,14.9
	c-4.7,1.8-9.9,1.8-14.9,1.1c-0.7-0.7-1.3-1.3-2-2c0.7,0,1.4,0,2-0.1c6.7-0.4,13.2-1.2,19-4.9c1.7-2.4,2.2-4.1,3-7c0.7,0,1.3,0,2,0
	c-0.3-9.3-0.3-9.3-3-18c-2.5-1.2-2.5-1.2-5-2C-600.3,273-600.7,272-601,271z"/>
<path class="st31" d="M-82,737c0.1,2.8,0.1,5.6,0.2,8.4c0,0.8,0.1,1.6,0.1,2.4c0,2.1-0.1,4.1-0.3,6.2c-1,0.7-2,1.3-3,2
	c0.3-5.6,0.7-11.2,1-17c-24.1,0-48.2,0-73,0c0-0.3,0-0.7,0-1c9.5-0.1,19-0.3,28.4-0.4c4.4-0.1,8.8-0.1,13.2-0.2
	c4.2-0.1,8.5-0.1,12.7-0.2c1.6,0,3.2,0,4.9-0.1c2.3,0,4.5-0.1,6.8-0.1c1.9,0,1.9,0,3.9-0.1C-85.4,737-83.7,737-82,737z"/>
<path class="st32" d="M-753,69c20.1,0,40.3,0,61,0c0,0.3,0,0.7,0,1c-1,0.1-2.1,0.1-3.2,0.2c-1.4,0.1-2.8,0.2-4.3,0.3
	c-0.7,0-1.5,0.1-2.2,0.1c-3.7,0.2-7.3,0.5-10.9,1c-13.5,1.6-27-0.1-40.4-1.6C-753,69.7-753,69.3-753,69z"/>
<path class="st33" d="M-552.8,458.3c0.9,0.3,0.9,0.3,1.8,0.7c-0.9,0.3-1.7,0.7-2.6,1.1c-3.2,1.8-4,2.7-6.1,5.5
	c-2.3,2.7-3.7,3.9-7.2,4.3c-1.5,0-3,0-4.5-0.1c-0.8,0-1.6,0-2.5,0c-2.7,0-5.4-0.1-8.1-0.1c-1.9,0-3.8,0-5.6,0
	c-4.9,0-9.9-0.1-14.8-0.2c-5-0.1-10-0.1-15.1-0.1c-9.9-0.1-19.7-0.2-29.6-0.3c0-0.3,0-0.7,0-1c27.4,0,54.8,0,83,0
	c0.7-1.3,1.3-2.6,2-4c1.6-1.7,1.6-1.7,3.4-3.3c0.9-0.8,0.9-0.8,1.8-1.6C-555,458-555,458-552.8,458.3z"/>
<path class="st34" d="M-444.7,162.6c0.7,0,1.4,0,2.1,0c1.1,0,1.1,0,2.2,0c1.6,0,3.1,0,4.7,0c2.4,0,4.7,0.1,7.1,0.1
	c25.3,0.1,25.3,0.1,28.4,3.2c-17.5,0-35,0-53,0C-449.8,162.8-449,162.7-444.7,162.6z"/>
<path class="st35" d="M-717.9,441.9c1,0,2,0,3,0c1.5,0,1.5,0,3.1,0c1,0,2,0,3,0c6.3,0,12.6,0.4,18.9,1.1c0,0.3,0,0.7,0,1
	c-1.6,0.2-3.2,0.4-4.8,0.6c-0.9,0.1-1.8,0.2-2.7,0.3c-2.5,0.1-2.5,0.1-5.5-0.9c-2.1,0.2-4.1,0.5-6.2,0.8c-5.6,0.5-11.2,0.3-16.8,0.2
	c0,1,0,2,0,3c-0.9,0-0.9,0-1.8,0.1c-2.6,0.8-2.6,0.8-3.9,4.5c-0.4,1.1-0.8,2.3-1.2,3.4c-0.7-1.3-1.3-2.6-2-4c5-8.1,5-8.1,9.8-9.6
	C-722.7,441.9-720.5,441.9-717.9,441.9z"/>
<path class="st36" d="M-750,88c0.7,0,1.3,0,2,0c0,15.8,0,31.7,0,48c-1,0.5-1,0.5-2,1c-0.2-4.7-0.3-9.5-0.5-14.2
	c0-1.6-0.1-3.2-0.2-4.8C-751,107.9-751,98.1-750,88z"/>
<path class="st37" d="M-980,695c15.5,0,31,0,47,0c-0.3,0.7-0.7,1.3-1,2c-4.7,1.5-9.6,1.1-14.5,1.1c-0.9,0-1.8,0-2.7,0
	c-2.9,0-5.8,0-8.6,0c-2,0-3.9,0-5.9,0c-4.8,0-9.6,0-14.3,0c-0.3,0.7-0.7,1.3-1,2C-980.7,698.3-980.4,696.7-980,695z"/>
<path class="st38" d="M-713,524.9c0.7,0,1.4,0,2.2,0c3.2,0,5.7,0.1,8.8,1.1c0,12.5,0,25.1,0,38c-0.3,0-0.7,0-1,0c0-11.9,0-23.8,0-36
	c-6.5,0.1-6.5,0.1-13,0.2c-0.8,0-1.6,0-2.4,0c-0.8,0-1.7,0-2.5,0c-2.1-0.2-2.1-0.2-4.1-2.2C-721.1,524.7-717.1,524.9-713,524.9z"/>
<path class="st39" d="M-386,228c0,1,0,2,0,3c-4.6,4.3-9.1,4.1-15.2,4.1c-1,0-1,0-2.1,0c-2.2,0-4.3,0-6.5,0c-1.5,0-3,0-4.4,0
	c-3.6,0-7.2,0-10.8-0.1c-0.3,0.9-0.6,1.9-0.9,2.9c-1,2.9-2.1,5-3.7,7.5c-0.4,0.7-0.9,1.4-1.4,2.1c-0.3,0.5-0.7,1-1,1.5
	c-1-2-1-2-0.2-4.3c1.2-2.7,1.2-2.7,2.8-5.2c1.3-2.2,1.9-3.9,2.4-6.4c0.9,0,1.7,0,2.6,0c3.2,0,6.5,0.1,9.8,0.1c1.4,0,2.8,0,4.2,0
	c12.4,0.7,12.4,0.7,23.4-3.8C-386.7,228.9-386.4,228.5-386,228z"/>
<path class="st40" d="M-655,520c1,0.3,2,0.7,3,1c-6.7,6.7-13.6,7.1-22.8,7.1c-3.4,0-6.8-0.1-10.2-0.1c0.3-1,0.7-2,1-3
	c0.6,0,1.2,0,1.8,0c2.7,0,5.3,0.1,8,0.1c0.9,0,1.8,0,2.8,0.1c0.9,0,1.8,0,2.7,0c1.2,0,1.2,0,2.5,0c2.5-0.2,4.1-1.1,6.3-2.2
	c1,0,2,0,3,0C-656.4,522-655.7,521-655,520z"/>
<path class="st41" d="M-417,147c3.5-0.1,7-0.1,10.6-0.2c1,0,2-0.1,3-0.1c6.7-0.1,11.9,0.3,17.2,4.7c4.1,5.4,4.1,5.4,4.3,8.5
	c-0.7,0.7-1.3,1.3-2,2c-0.1-0.8-0.2-1.6-0.4-2.4c-0.2-0.8-0.4-1.7-0.6-2.6c-0.7-0.3-1.3-0.7-2-1c0.3-0.7,0.7-1.3,1-2
	c-3.8-2.2-7.8-3-12-4c0-0.7,0-1.3,0-2c-6.3,0-12.5,0-19,0C-417,147.7-417,147.3-417,147z"/>
<path class="st42" d="M-520,372c0,4-1.5,5-4,8c-1.8,3-2.2,5.2-2.1,8.8c0,0.8,0,1.6,0,2.4c0,0.6,0,1.2,0.1,1.8c0.7,0.3,1.3,0.7,2,1
	c-0.7,0.7-1.3,1.3-2,2c0-0.7,0-1.3,0-2c-0.7,0-1.3,0-2,0c-1.7-5.3-1.6-10.2,0.7-15.2C-525.5,375.3-523.6,373.6-520,372z"/>
<path class="st24" d="M-651,251c1.6,0,3.3,0,5,0c-0.3,0.7-0.7,1.3-1,2c-0.7,0-1.3,0-2,0c6.6,9.8,14.7,16.3,25,22
	c-1.3,0.3-2.6,0.7-4,1c0-0.7,0-1.3,0-2c-2.7-1.1-5.3-2.1-8-3c0-0.7,0-1.3,0-2c-0.6-0.2-1.1-0.5-1.7-0.8c-6.1-3.3-12.1-8.6-14.3-15.2
	C-651.7,252.3-651.4,251.7-651,251z"/>
<path class="st43" d="M-714,580c0.1,0.6,0.2,1.3,0.4,1.9c0.2,0.7,0.4,1.4,0.6,2.1c0.7,0.3,1.3,0.7,2,1c0,2,0,4,0,6c0.7,0,1.3,0,2,0
	c0.1,0.8,0.1,0.8,0.1,1.7c1.4,3.6,3.8,5.2,6.9,7.3c2.7,0.3,2.7,0.3,5,0c0.3,0.3,0.7,0.7,1,1c2.3,0.4,4.7,0.7,7,1c0,0.3,0,0.7,0,1
	c-10.7,0.6-10.7,0.6-15.4-1.6c-4.7-4.3-9.3-8.8-9.7-15.5C-714.1,583.9-714.1,582-714,580z"/>
<path class="st44" d="M-478,285c2.4,0.8,2.4,0.8,5,2c0.3,1,0.7,2,1,3c1,0.3,2,0.7,3,1c0.3,1,0.7,2,1,3c1.5,1.7,1.5,1.7,3,3
	c-2.9,5.8-7.4,8.2-13,11c0.9-1.1,1.9-2.2,2.8-3.4c0.5-0.6,1-1.2,1.6-1.9c1.6-1.7,1.6-1.7,4.6-3.7c-0.6-3.9-2.4-5.9-5.1-8.7
	C-478,286.1-478,286.1-478,285z"/>
<path class="st45" d="M-645,794c0.3,0,0.7,0,1,0c0.1,2.4,0.2,4.8,0.3,7.2c0,0.7,0.1,1.3,0.1,2c0.1,4-0.3,5.6-2.8,8.7
	c-2.5,2-4.9,3.6-7.6,5.1c-1,0.7-2,1.3-3,2c-2.7,0.1-2.7,0.1-5,0c2-2,3.5-2.9,6-4.1c0.7-0.4,1.4-0.7,2.1-1.1c1.9-0.8,1.9-0.8,3.9-0.8
	c0.7-1.3,1.3-2.7,2-4c0.3-0.7,0.7-1.4,1.1-2.1C-645.6,802.7-645.3,798.4-645,794z"/>
<path class="st46" d="M-451,270c0,3,0,3-2.6,5.9c-2.7,2.7-2.7,2.7-2.3,5c1,2.5,2.4,4.4,3.9,6.6c3.4,5.5,3.6,10.1,2.9,16.4
	c-0.3,0-0.7,0-1,0c-0.1-1.3-0.1-2.6-0.2-3.9c-0.7-6.1-3.1-12.4-7.5-16.8c-0.4-0.4-0.9-0.9-1.3-1.3c0.3-3,1.6-5.4,3-8
	c0.7,0,1.3,0,2,0c0-0.7,0-1.3,0-2C-453,271.3-452,270.7-451,270z"/>
<path class="st47" d="M-468,222c0.7,1.3,1.3,2.6,2,4c1,0,2,0,3,0c0,0.7,0,1.3,0,2c0.7,0,1.3,0,2,0c0.3,0.7,0.7,1.3,1,2
	c3.2,2,6,2.4,9.8,2.6c1,0.1,2,0.2,3,0.2c0.8,0,1.5,0.1,2.3,0.1c0,0.3,0,0.7,0,1c-6.6,1.2-12,1.4-18-2c-2.1-2.1-3.8-4.3-5-7
	C-468,224-468,223-468,222z"/>
<path class="st48" d="M-462,150c-0.3,1-0.7,2-1,3c-1,0.5-1,0.5-2,1c-3.4,9.9-2.6,21.6-3,32c-0.3,0-0.7,0-1,0
	c-0.1-4.3-0.2-8.6-0.3-13c0-1.5-0.1-2.9-0.1-4.4c-0.1-2.1-0.1-4.2-0.1-6.3c0-1.3,0-2.6-0.1-3.9C-468.9,154.3-466.7,150-462,150z"/>
<path class="st49" d="M-487,336c1,0.3,2,0.7,3,1c-5.4,4.5-8.8,6.4-15.7,6.3c-3.2-0.4-5.6-1.5-8.3-3.3c-0.3-0.7-0.7-1.3-1-2
	c0.8,0.2,1.6,0.5,2.4,0.7c1.1,0.3,2.1,0.6,3.2,0.9c1,0.3,2.1,0.6,3.2,0.9c3.1,0.6,5.1,0.6,8.1-0.4c0.3-0.7,0.7-1.3,1-2c1,0,2,0,3,0
	C-487.7,337.3-487.4,336.7-487,336z"/>
<path class="st50" d="M-634,391c3.8,1.5,5.8,3.7,8.3,6.8c1.1,1.3,1.1,1.3,2.2,2.6c1.5,2.6,1.5,2.6,1.2,5.4c-0.4,1.1-0.4,1.1-0.7,2.2
	c-2.9-2.6-4.3-4.2-5-8c-0.7-1-1.3-2-2-3c-1,0-2,0-3,0C-633.3,395-633.7,393-634,391z"/>
<path class="st51" d="M-628,824c0,3,0,3-1.7,4.7c-5,3.9-10.1,7.6-16.3,9.3c-1-0.3-2-0.7-3-1c0.8-0.3,1.5-0.7,2.3-1
	c1.5-0.7,1.5-0.7,3-1.3c1.5-0.7,1.5-0.7,3-1.3c2.9-1.3,2.9-1.3,4.6-4.4c1,0,2,0,3,0c0.3-1,0.7-2,1-3C-630,824.8-630,824.8-628,824z"
	/>
<path class="st52" d="M-604,118c2.8,0.4,3.8,0.7,5.6,2.9c0.5,0.7,1,1.4,1.4,2.1c2.8,1.9,2.8,1.9,5,3c0,0.7,0,1.3,0,2
	c2.3,0,4.6,0,7,0c-0.3,1-0.7,2-1,3c-6-0.3-9.7-3.1-14-7C-601.6,122.1-602.8,120.2-604,118z"/>
<path class="st53" d="M-488,315c0.7,0.3,1.3,0.7,2,1c-3.4,4.1-6.7,7.8-11,11c-1.1-0.9-2.3-1.8-3.4-2.8c-0.6-0.5-1.2-1-1.9-1.5
	c-1.7-1.7-1.7-1.7-3.7-5.7c2.3,2,4.6,4,7,6C-494,321.5-491.5,318.7-488,315z"/>
<path class="st54" d="M-526,296c15.5,12.8,15.5,12.8,20,21c-3.8-1.5-5.5-3.8-8-7c-2.2-2.3-4.5-4.6-6.9-6.8c-0.6-0.6-1.3-1.2-1.9-1.9
	c-0.6-0.6-1.2-1.2-1.8-1.8C-526,298-526,298-526,296z"/>
<path class="st55" d="M-710.8,703.3c0.6,0.2,1.2,0.4,1.8,0.7c-1.4,1.5-2.8,3-4.2,4.4c-1.2,1.2-1.2,1.2-2.4,2.5
	c-2.3,2-3.4,2.7-6.4,3.1C-716,702.5-716,702.5-710.8,703.3z"/>
<path class="st56" d="M-707,566c0.3,1,0.7,2,1,3c-0.7,0.7-1.3,1.3-2,2c-0.6,1.5-1.1,3.1-1.6,4.6c-0.3,0.8-0.5,1.6-0.8,2.5
	c-0.2,0.6-0.4,1.2-0.6,1.9c-1,0-2,0-3,0C-713.7,573.9-710.7,570.5-707,566z"/>
<path class="st57" d="M-604,269c0.7,0.3,1.3,0.7,2,1c-0.3,0.7-0.7,1.3-1,2c-1.1-0.1-1.1-0.1-2.2-0.1c-6.7-0.2-10.4,0.3-15.8,4.1
	c-1,0.5-1,0.5-2,1c1.2-3.7,3.5-5.4,6.9-7.2C-612.2,268.4-608.1,268.5-604,269z"/>
<path class="st58" d="M-669,258c0.3,0.7,0.7,1.3,1,2c0.7,0,1.3,0,2,0c0.5,0.6,1,1.3,1.4,1.9c1.5,2.3,1.5,2.3,4.6,3.1
	c0.1,0.6,0.2,1.1,0.3,1.8c1.1,3.6,3.8,5,6.7,7.2c-0.7,0.7-1.3,1.3-2,2c-10.6-10.4-10.6-10.4-14-15C-669,260-669,259-669,258z"/>
<path class="st59" d="M-452,216c2.8-0.1,5.5-0.1,8.2-0.1c0.8,0,1.5,0,2.4-0.1c7.1-0.1,7.1-0.1,10.4,2.2c-6.9,0.8-13.2,1.2-20,0
	C-451.3,217.3-451.7,216.7-452,216z"/>
<path class="st60" d="M-436,252c0,3.9-1.3,5-3.8,8c-0.7,0.9-1.4,1.7-2.1,2.6c-1.9,2.1-3.8,3.8-6.1,5.4c0-1.3,0-2.6,0-4
	c1.6-1,3.3-2,5-3c0-1,0-2,0-3c0.6-0.3,1.3-0.5,1.9-0.8c2.4-1.1,2.4-1.1,3.1-4.2C-437.4,252.7-436.7,252.3-436,252z"/>
<path class="st61" d="M-427,233c1.3,0.3,2.6,0.7,4,1c-0.7,0-1.3,0-2,0c-0.1,0.7-0.2,1.4-0.4,2.2c-0.7,2.9-1.6,5-3.1,7.6
	c-0.4,0.8-0.9,1.6-1.3,2.4c-1.2,1.9-1.2,1.9-3.2,2.9c1.1-4.5,2.5-8.1,5-12C-427.3,234.8-427.3,234.8-427,233z"/>
<path class="st62" d="M-474,202c2.4,0.2,2.4,0.2,5,1c2.3,4,2.1,7.3,1.6,11.8c-0.1,1.2-0.2,2.3-0.3,3.5c-0.1,0.9-0.2,1.8-0.3,2.7
	c-0.3,0-0.7,0-1,0c-0.1-1.2-0.2-2.4-0.3-3.6c-0.2-1.6-0.3-3.2-0.5-4.7c-0.1-0.8-0.1-1.6-0.2-2.4c-0.2-2.1-0.6-4.2-1-6.2
	C-472,203.3-473,202.7-474,202z"/>
<path class="st63" d="M-767,121c0.3,0,0.7,0,1,0c0.2,2.3,0.4,4.7,0.6,7.1c0.1,1.3,0.2,2.6,0.3,4c0.1,3.9-0.2,7.2-0.9,11
	C-770,136.9-768.3,127.9-767,121z"/>
<path class="st64" d="M-447,93c2,3,2,3,2,5c0.7,0,1.3,0,2,0c0.6,0.9,1.1,1.9,1.8,2.8c2.5,3.5,4.3,4.6,8.2,6.2c-0.3,1-0.7,2-1,3
	c0-0.7,0-1.3,0-2c-0.8-0.1-1.5-0.2-2.3-0.3c-4.7-1.2-7.1-4.8-9.7-8.7C-447,95.5-447,95.5-447,93z"/>
<path class="st65" d="M-442,74c0.7,0.3,1.3,0.7,2,1c-1.4,2.5-1.4,2.5-3,5c-0.7,0-1.3,0-2,0c0.1,1,0.1,1,0.1,2.1
	c-0.1,3.5-1.1,6.6-2.1,9.9c-0.3,0-0.7,0-1,0c-0.7-7.1,0.6-11.4,5-17C-442.7,74.7-442.4,74.3-442,74z"/>
<path class="st66" d="M-499,251c5.2-0.2,9.1,0,14,2c-1,0.5-1,0.5-2,1c-0.3,0.7-0.7,1.3-1,2c-0.5-0.3-1-0.6-1.5-0.9
	c-3.5-1.5-6.7-1.7-10.5-2.1C-499.7,252.3-499.4,251.7-499,251z"/>
<path class="st67" d="M-620,790c2,4,2.4,6.3,2.6,10.8c0.1,1.2,0.1,2.3,0.2,3.5c0,0.9,0.1,1.8,0.2,2.7c-1,0-2,0-3,0
	C-620,801.4-620,795.8-620,790z"/>
<path class="st68" d="M-621,407c3.9,1.8,3.9,1.8,5,4c0.6-0.3,1.2-0.7,1.8-1c2.2-1,2.2-1,5.2-1c-1.7,2-3.3,4-5,6
	C-619.9,410.4-619.9,410.4-621,407z"/>
<path class="st69" d="M-615,340c1,0.7,2,1.3,3,2c-1.8,1-3.5,2-5.3,2.9c-1.9,1.1-1.9,1.1-3.7,3.1c-1.7,1-3.3,2-5,3
	c1.5-3.7,3.5-5.4,6.6-7.8c0.8-0.6,1.6-1.2,2.5-1.9C-616,340.7-616,340.7-615,340z"/>
<path class="st70" d="M-536,310c1,0.3,2,0.7,3,1c-1,3.4-1.7,4.8-4.6,6.8c-0.8,0.4-1.6,0.8-2.4,1.2c-0.7-0.7-1.3-1.3-2-2
	c0.8-0.6,1.6-1.2,2.4-1.8C-536.8,313.2-536.8,313.2-536,310z"/>
<path class="st71" d="M-593,178c1,0.3,2,0.7,3,1c-1,2-1,2-2.9,2.8c-2.8,1.6-3,3.2-4.1,6.2c-0.7,0.7-1.3,1.3-2,2
	C-598.6,184.4-596.7,182-593,178z"/>
<path class="st72" d="M-600,400c0.7,0.3,1.3,0.7,2,1c-4.4,5.8-4.4,5.8-7.3,6.9c-0.8,0.1-0.8,0.1-1.7,0.1c0-1,0-2,0-3
	c1.5-1.4,1.5-1.4,3.5-2.7c0.6-0.4,1.3-0.9,2-1.3C-600.8,400.5-600.8,400.5-600,400z"/>
<path class="st73" d="M-573,540c11.5-0.5,11.5-0.5,17,3c-3,1-5,1-8,0c0-0.7,0-1.3,0-2c-3,0-5.9,0-9,0C-573,540.7-573,540.3-573,540z
	"/>
<path class="st74" d="M-585,382c2,1.2,2,1.2,4,3c0.2,2.7,0.2,2.7,0,5c-2,1.1-4,2.1-6,3c-0.7-0.3-1.3-0.7-2-1c1.6-1.3,3.3-2.6,5-4
	C-584.3,386-584.7,384-585,382z"/>
<path class="st75" d="M-871,812c0,3.6-0.7,4.1-3,6.7c-0.6,0.6-1.1,1.2-1.7,1.9c-0.4,0.5-0.9,1-1.3,1.4c-0.7-0.3-1.3-0.7-2-1
	C-877.3,817-874.9,814-871,812z"/>
<path class="st76" d="M-551,459c-1.3,0.5-1.3,0.5-2.6,1.1c-4.1,2.4-6.5,5.2-9.4,8.9c-0.3-1-0.7-2-1-3c1.1-1.1,2.2-2.3,3.4-3.4
	c0.6-0.6,1.2-1.3,1.9-1.9C-555.9,457.9-554.7,457.9-551,459z"/>
<path class="st77" d="M-462,150c-0.3,1-0.7,2-1,3c-1,0.5-1,0.5-2,1c-0.7,2.6-0.7,2.6-1.1,5.6c-0.2,1-0.3,2-0.5,3.1
	c-0.1,0.8-0.2,1.6-0.4,2.4c-0.3,0-0.7,0-1,0c-0.7-3.4-1.1-6.6-1-10C-465.3,150-465.3,150-462,150z"/>
<path class="st78" d="M-865,731c3.8,4.5,5.3,9.1,5,15C-863.2,741.3-865.5,736.8-865,731z"/>
<path class="st79" d="M-552,570c0,1,0,2,0,3c-3.9,3.9-6.4,5.6-12,6c3-2,3-2,5-2c0-0.7,0-1.3,0-2c1-0.3,2-0.7,3-1
	C-554.6,572.7-553.3,571.4-552,570z"/>
<path class="st80" d="M-630,710c2.6,2.6,4.9,4.9,7,8c-0.3,1-0.7,2-1,3c-0.3-1-0.7-2-1-3c-1-0.3-2-0.7-3-1
	C-629.2,713.4-629.2,713.4-630,710z"/>
<path class="st81" d="M-761,72c0.7,0.7,1.3,1.3,2,2c-0.8,0.8-1.7,1.6-2.5,2.4c-2.7,2.3-2.7,2.3-2.5,4.6c-1,0.3-2,0.7-3,1
	C-766.6,77.2-764.6,75.2-761,72z"/>
<path class="st82" d="M-863,796c1.3,3.9,0.3,5-1.4,8.7c-0.5,1-0.9,2-1.4,3c-0.6,1.1-0.6,1.1-1.1,2.3c-1.2-3.5-0.7-5.5,0-9
	c1,0,2,0,3,0C-863.7,799.3-863.4,797.7-863,796z"/>
<path class="st83" d="M-893,804c-0.3,1-0.7,2-1,3c-1.7,0.3-3.3,0.7-5,1c-0.3,1-0.7,2-1,3c-0.7,0-1.3,0-2,0
	C-900.2,806.6-898,804-893,804z"/>
<path class="st84" d="M-675,581c0.3,0,0.7,0,1,0c1.3,7.3,1.3,7.3-0.4,11c-0.5,0.7-1,1.3-1.6,2c-1-0.3-2-0.7-3-1c1-0.3,2-0.7,3-1
	C-675.7,588.4-675.4,584.7-675,581z"/>
<path class="st85" d="M-658,378c0.3,0,0.7,0,1,0c1.3,5.3,2.7,10.7,4,16c-3-2.7-4.9-5.2-5.2-9.4c0-0.8,0-1.6,0.1-2.4
	c0-0.8,0-1.6,0-2.4C-658.1,379.2-658,378.6-658,378z"/>
<path class="st86" d="M-450,148c-2.2,2.2-3,2.6-6,3c-2.8-0.4-2.8-0.4-5-1c0-0.7,0-1.3,0-2C-457.2,146.6-453.9,147.3-450,148z"/>
<path class="st87" d="M-513,805c2,2,2,2,2,5c1,0.3,2,0.7,3,1c-0.3,1.7-0.7,3.3-1,5c-2.3-2.3-2.5-3.5-3.1-6.6
	c-0.2-0.8-0.3-1.6-0.5-2.5C-512.8,806.3-512.9,805.7-513,805z"/>
<path class="st88" d="M-646,413c0.7,0.3,1.3,0.7,2,1c-1.1,3.4-1.9,4.2-5,6c-2.2-0.3-2.2-0.3-4-1c0.6-0.4,1.2-0.9,1.8-1.3
	C-649.3,416.2-647.7,414.7-646,413z"/>
<path class="st89" d="M-514,282c0.7,0.3,1.3,0.7,2,1c-4,3.5-4,3.5-8,7c-0.7-0.3-1.3-0.7-2-1c0.7-1.9,0.7-1.9,2-4
	c2.6-1.2,2.6-1.2,5-2C-514.7,282.7-514.4,282.3-514,282z"/>
<path class="st90" d="M-480,258c1.1,0.9,2.3,1.9,3.4,2.8c0.6,0.5,1.3,1,1.9,1.6c1.6,1.6,1.6,1.6,2.6,4.6c-2,0-2,0-4.5-2.4
	c-0.8-0.8-1.7-1.7-2.5-2.6c-0.7-0.3-1.3-0.7-2-1C-480.7,260-480.4,259-480,258z"/>
<path class="st91" d="M-532,747c0.7,1.3,1.3,2.6,2,4c0.7,0,1.3,0,2,0c1,3,1,3,0.1,5.2c-0.5,0.9-0.5,0.9-1.1,1.8
	c-0.5-1.3-1-2.5-1.5-3.8c-0.3-0.7-0.6-1.4-0.8-2.2C-532,750-532,750-532,747z"/>
<path class="st92" d="M-653,372c0.3,0.7,0.7,1.3,1,2c-0.7-0.3-1.3-0.7-2-1C-653.7,372.7-653.4,372.3-653,372z M-657,374
	c2,0.5,2,0.5,4,1c-1.5,3.5-1.5,3.5-3,7c-1.4-2.4-2.1-3.5-1.6-6.2C-657.4,375.2-657.2,374.6-657,374z"/>
<path class="st93" d="M-621,364c0.7,0.3,1.3,0.7,2,1c0,0.7,0,1.3,0,2c-2,1.4-4,2.7-6,4c-1-0.7-2-1.3-3-2c1-0.5,1.9-0.9,2.9-1.4
	C-621.9,366.3-621.9,366.3-621,364z"/>
<path class="st94" d="M-452,295c0.7,0,1.3,0,2,0c0.2,1.6,0.4,3.2,0.6,4.9c0.1,0.9,0.2,1.8,0.4,2.7c0,0.8,0,1.6,0,2.4
	c-0.7,0.7-1.3,1.3-2,2c-0.7,0-1.3,0-2,0c0.1-0.8,0.1-1.6,0.2-2.4c0.1-1,0.2-2,0.3-3.1c0.1-1,0.2-2,0.3-3.1
	C-452.1,296.8-452.1,296.8-452,295z"/>
<path class="st95" d="M-452,234c2.6,0,5.3,0,8,0c0.7,1.8,0.7,1.8,1,4c-1.4,1.8-1.4,1.8-3,3c-0.7-0.3-1.3-0.7-2-1c1-1.6,2-3.3,3-5
	c-2.3,0-4.6,0-7,0C-452,234.7-452,234.3-452,234z"/>
<path class="st96" d="M-236,819c0.7,1.3,1.3,2.6,2,4c0.7,0,1.3,0,2,0c0,2.3,0,4.6,0,7c-2.3-2.3-2.5-3.5-3.1-6.6
	c-0.2-0.8-0.3-1.6-0.5-2.5C-235.8,820.3-235.9,819.7-236,819z"/>
<path class="st97" d="M-600,818c1,0,2,0,3,0c-0.3,0.6-0.6,1.1-0.9,1.7c-1.2,2.4-2.2,4.8-3.1,7.3c-0.7-1-1.3-2-2-3
	C-602,822-601,820-600,818z"/>
<path class="st98" d="M-584,770c0.3,0,0.7,0,1,0c0.2,3.3,0.2,3.3,0,7c-2,1.9-2,1.9-4,3c0.3-1.5,0.6-3,0.9-4.4
	c0.3-1.2,0.3-1.2,0.5-2.5C-585,771-585,771-584,770z"/>
<path class="st99" d="M-933,695c3-0.3,3-0.3,6.6-0.2c1.2,0,2.4,0.1,3.6,0.1c0.9,0,1.8,0.1,2.8,0.1c0,0.3,0,0.7,0,1
	c-0.8,0.1-1.5,0.1-2.3,0.2c-1,0.1-2,0.2-3,0.3c-1.5,0.1-1.5,0.1-3,0.2c-2.4,0.3-4.5,0.7-6.8,1.3C-934.4,697-933.7,696-933,695z"/>
<path class="st100" d="M-591,393c0.3,1.3,0.7,2.6,1,4c-2.4,1.1-2.4,1.1-5,2c-0.7-0.3-1.3-0.7-2-1C-595,396.4-593.1,394.7-591,393z"
	/>
<path class="st101" d="M-515,261c0.7,0.3,1.3,0.7,2,1c-2.4,3.9-4.6,4.8-9,6C-519.8,265.1-518.1,263-515,261z"/>
<path class="st102" d="M-500,770c1.8,2.7,3,4.9,4,8c-0.3,1-0.7,2-1,3C-499.7,777.2-500.3,774.7-500,770z"/>
<path class="st103" d="M-450,601c0.7,0,1.3,0,2,0c0,0.7,0,1.3,0,2c1,0.3,2,0.7,3,1c0,0.7,0,1.3,0,2c-1,0.3-2,0.7-3,1
	c-0.7-0.7-1.3-1.3-2-2C-450,603.7-450,602.4-450,601z"/>
<path class="st104" d="M-580,543c0.3,0.7,0.7,1.3,1,2c-1.4,2-1.4,2-3,4c-0.7,0-1.3,0-2,0c-0.3,1-0.7,2-1,3c-0.3-0.7-0.7-1.3-1-2
	C-584,547.7-582.1,545.4-580,543z"/>
<path class="st105" d="M-447,93c2,3,2,3,2,5c0.7,0,1.3,0,2,0c0.7,1.7,1.3,3.3,2,5c-3-1-3-1-4.7-3.3C-447,97-447,97-447,93z"/>
<path class="st106" d="M-544,318c0,1,0,2,0,3c-3,2.2-3,2.2-6,4c-0.7-0.3-1.3-0.7-2-1C-549.4,322-546.7,320-544,318z"/>
<path class="st107" d="M-478,285c2.4,0.7,2.4,0.7,5,2c0.8,2.6,0.8,2.6,1,5C-476.9,287.2-476.9,287.2-478,285z"/>
<path class="st0" d="M620.6,171.3c4.5,4.1,7.5,8.5,8.3,14.6c0.1,7.2-0.8,13.6-5.9,19.1c-3.8,3.3-3.8,3.3-6.5,3.3c0,12.9,0,25.7,0,39
	c6.9-0.1,6.9-0.1,13.8-0.3c6.5-0.1,11.8,0.3,16.9,4.8c3.5,4.7,4.4,6.9,4.5,12.7c0,1.3,0,2.6,0.1,4c0,1.4,0,2.9,0,4.3
	c0,0.7,0,1.5,0,2.2c0,3.9,0.1,7.7,0.1,11.6c0,3.2,0,6.4,0.1,9.5c0.1,3.9,0.1,7.7,0.1,11.5c0,1.5,0,2.9,0,4.4
	c0.3,14.1,0.3,14.1-5,19.8c-4.6,3.7-9.4,3.6-15.1,3.6c-0.7,0-1.4,0-2.1,0c-2.1,0-4.3,0-6.4-0.1c-1.5,0-2.9,0-4.4,0
	c-3.6,0-7.2-0.1-10.7-0.1c-0.5,1.4-0.5,1.4-0.9,2.9c-4.4,13-15.2,24.4-24.5,34.3c-2.1,2.2-3.9,4.3-5.6,6.9c0.3,3.5,2.1,5.7,4.1,8.5
	c3.5,5.8,4.4,10.9,2.9,17.5c-1.8,3.3-4.2,5.5-7,8c-0.8,0.8-1.7,1.6-2.5,2.4c-5.4,5.1-11.1,9.8-16.8,14.4c-2.6,2.1-5,4.3-7.4,6.6
	c-5.5,4.8-9.6,6.9-16.9,7c-5.5-0.9-9.5-4.1-13.5-7.8c-0.8-0.8-1.7-1.5-2.5-2.3c-2.4-2.2-2.4-2.2-4.4-4.6c-1.8-1.8-1.8-1.8-3.8-1.7
	c-3,1.5-5.5,3.5-8.1,5.6c-5.1,4-10.3,7.7-15.8,11.3c-3.8,2.5-7.6,5.2-11.4,7.8c-5.6,3.9-11.2,7.7-16.8,11.4
	c1.4,4.3,3.6,7.1,6.5,10.5c6.3,7.3,6.3,7.3,6.6,12.8c-0.9,8-4.4,12.5-10.5,17.6c-4.8,3.8-9.6,7.4-14.5,11
	c-4.9,3.6-9.7,7.4-14.5,11.1c-5.6,4.1-9.8,4.8-16.7,4c-8.5-2.7-14.7-9.2-20-16c-12.7,4.5-22.5,16.7-29,28c0.6,0,1.1-0.1,1.7-0.1
	c6.1-0.3,9.4,0.5,14.3,4.1c3,6,3,6,3,22c28.1,0,56.1,0,85,0c0.7-1.3,1.3-2.6,2-4c1.6-1.7,1.6-1.7,3.4-3.2c0.6-0.5,1.2-1,1.8-1.5
	c4.6-3.3,10.4-2.8,15.8-2.3c5.5,1.5,9,4.4,12,9.2c2.7,5.1,3.8,10.1,3,15.8c-2.1,6.5-5.8,10.7-11.9,14c-5.2,2.3-9.7,2.4-15.1,1
	c-4.8-1.9-8.2-4.7-11-9c0-0.7,0-1.3,0-2c-28,0-56.1,0-85,0c0,9.6,0,19.1,0,29c-2.9,5.8-5,9.5-11,11.8c-8.3,2-16.3,1.2-25,1.2
	c0,11.9,0,23.8,0,36c1.6,0.7,3.3,1.3,5,2c6.1,6.6,7.5,10.8,7.4,19.7c-0.7,6.1-3.6,9.6-7.9,13.7c-6.6,4.4-12.6,4.3-20.4,3.6
	c-5.4-2.5-9.5-6.9-12.1-12.4c-2-5.9-1.8-12.4,0.7-18c1.5-2.8,2.7-3.8,5.4-5.7c2.8-2.4,2.9-2.9,3.7-6.8c0-1.5,0.1-3,0-4.5
	c0-0.8,0-1.6,0.1-2.4c0-2.5,0-5,0-7.5c0-1.7,0-3.4,0.1-5.1c0-4.2,0.1-8.4,0.1-12.5c-0.6,0-1.1,0-1.7,0.1c-2.6,0.1-5.2,0.1-7.8,0.2
	c-0.9,0-1.8,0.1-2.7,0.1c-6.1,0.1-10.7-0.9-15.8-4.4c-3.8-4-4.1-7.8-4.2-13.2c0-1.3,0-2.6,0-3.9c0-1.4,0-2.8,0-4.2
	c0-1.1,0-1.1,0-2.1c0-3.7,0-7.5,0-11.2c0-3.8,0-7.7-0.1-11.6c0-3,0-5.9,0-8.9c0-1.4,0-2.8,0-4.3c0-2,0-4,0-6c0-1.7,0-1.7,0-3.4
	c0.7-4.7,3-7.8,6.5-11c4.4-2.6,8.9-2.3,13.8-2.3c0.8,0,1.5,0,2.3,0c2.4,0,4.8,0,7.1,0c1.6,0,3.2,0,4.9,0c4,0,7.9,0,11.9,0
	c0.4-1.4,0.4-1.4,0.9-2.8c5.2-15,20-27.4,31.5-37.8c1.6-1.4,3.1-2.9,4.6-4.4c-0.4-0.6-0.9-1.2-1.3-1.8c-3.7-5.5-5.4-9.8-5.6-16.4
	c2.4-7.7,10.1-12.9,16.3-17.5c1.6-1.2,3.2-2.4,4.8-3.6c0.8-0.6,1.6-1.2,2.4-1.8c4.4-3.5,8.8-7.1,13.1-10.7c5.2-4.3,10-7.8,17.1-7.5
	c5.9,0.9,11.4,2.9,15.3,7.6c0.6,0.9,1.2,1.8,1.9,2.8c13.2-8.2,26.1-17,38.6-26.2c4.1-3,8.3-5.9,12.4-8.8c-1.4-3-3-5.5-5.1-8.1
	c-3.6-4.6-4.7-7.9-3.9-13.9c4-9.1,11.8-14.8,19.5-20.7c3.5-2.7,6.9-5.5,10.2-8.4c6.2-5.3,12.8-11,21.4-11.4
	c7.4,0.9,11.9,2.9,16.9,8.5c1.3,1.3,2.5,2.5,3.8,3.8c1.1,1.1,2.1,2.1,3.2,3.2c7.3-5.3,12.7-12.8,18.3-19.8c0.5-0.6,1.1-1.3,1.6-2
	c0.5-0.6,1-1.2,1.5-1.9c0.7-0.8,0.7-0.8,1.3-1.7c1.3-1.8,2.3-3.7,3.2-5.7c-1.3,0.1-2.6,0.1-3.9,0.2c-5.7,0-11.3-0.7-15.7-4.6
	c-6.2-7.9-5.4-16.8-5.4-26.6c-30.4,0-60.7,0-92,0c-0.3,1.3-0.7,2.6-1,4c-3.8,4.5-7.5,7.6-13.5,8.3c-7.1,0.3-12.6-0.8-18-5.7
	c-5.3-5.9-6-12-5.9-19.6c0.8-6,3.7-9.6,8.3-13.4c5.6-2.9,10.8-4.3,17.1-3.6c4.8,1.6,7.6,3.5,10.6,7.5c2.4,2.8,3.9,4,7.6,4.3
	c1.6,0,3.2,0,4.9,0c0.9,0,1.8,0,2.7,0c2.9,0,5.8,0,8.8,0c2,0,4.1,0,6.1,0c5.3,0,10.7,0,16,0c5.5,0,10.9,0,16.3,0
	c10.7,0,21.4,0,32.1,0c0-0.8,0-1.6-0.1-2.5c-0.1-3.7-0.1-7.5-0.1-11.2c0-1.9,0-1.9-0.1-3.9c0-1.2,0-2.5,0-3.8c0-1.1,0-2.3,0-3.5
	c0.5-4.7,2.6-7.9,6.3-10.9c4.2-3.1,7.1-3.4,12.3-3.3c0.9,0,1.8,0,2.7,0c1.7,0,1.7,0,3.4,0c5.3,0,5.3,0,10.8,0.1c0-12.9,0-25.7,0-39
	c-1.7-0.7-3.3-1.3-5-2c-1.7-1.5-1.7-1.5-3.2-3.3c-0.5-0.6-1-1.1-1.5-1.7c-3.8-5.6-4.2-11.4-3.3-18c2.6-6.6,7.3-11,13.8-13.8
	C606.5,167.2,614.1,167.4,620.6,171.3z"/>
<path class="st1" d="M534,469.4c4.8,3.6,8.2,6.8,9.3,12.9c0.8,3.3,1.6,4.7,4.5,6.6c1.3,0.8,2.7,1.5,4.1,2.2
	c12,6.9,26.6,18,31.7,31.2c0.8,0,0.8,0,1.7,0c5.7-0.1,11.5-0.2,17.2-0.2c2.1,0,4.3,0,6.4-0.1c3.1,0,6.2-0.1,9.2-0.1
	c1,0,1.9,0,2.9-0.1c5.7,0,9.1,0.6,13.5,4.5c3.7,4.9,5.1,8.3,5.2,14.4c0,1.6,0,1.6,0,3.3c0,1.2,0,2.4,0,3.6c0,1.2,0,2.4,0,3.7
	c0,2.6,0,5.2,0,7.8c0,3.9,0.1,7.9,0.1,11.8c0,2.5,0,5,0,7.5c0,1.2,0,2.4,0,3.6c0,7.4-0.7,13.4-5.9,18.9c-2.7,2.4-5,3.7-8.5,4.4
	c0.2,1.1,0.2,1.1,0.4,2.3c0.2,1,0.4,2.1,0.6,3.1c0.2,1,0.4,2,0.6,3c0.5,4.2,0.5,8.3,0.4,12.5c0.7,0,1.4,0,2.2-0.1
	c3.3-0.1,6.5-0.1,9.8-0.2c1.1,0,2.2-0.1,3.4-0.1c6.6-0.1,12.3,0.1,17.6,4.3c3.7,4.7,5.1,9.5,5.2,15.4c0,1.7,0,1.7,0,3.4
	c0,1.2,0,2.4,0,3.7c0,1.2,0,2.5,0,3.8c0,2.6,0,5.3,0,7.9c0,2.7,0,5.4,0.1,8.1c0,3.9,0.1,7.8,0.1,11.6c0,1.2,0,2.4,0,3.6
	c0,7-0.7,11.6-4.5,17.5c-4.6,4.5-9.1,6.2-15.6,6.3c-1.1,0-2.2,0-3.3,0c-1.2,0-2.3,0-3.5,0c-1.2,0-2.4,0-3.7,0c-2.6,0-5.1,0-7.7,0
	c-3.9,0-7.8,0-11.7,0.1c-2.5,0-5,0-7.5,0c-1.7,0-1.7,0-3.5,0c-8.2,0-15.8-1.1-22-6.8c-6.3-11.2-3.5-22.6-3.5-35.7
	c-31.7,0-63.4,0-96,0c-0.7,1.3-1.3,2.6-2,4c-6.4,6-11.4,7.5-20,7.4c-6-0.8-10.1-3.9-14-8.5c-2.9-4.6-3.4-9.5-3.1-14.9
	c1.7-7.3,6.1-11.7,12-16c4.9-2.4,12.4-1.8,17.5-0.3c4.2,2,7,4.3,9.5,8.3c0,0.7,0,1.3,0,2c31.7,0,63.4,0,96,0c0-4.3,0-8.6,0-13
	c1.5-5.3,3.4-8.1,8-11c2.8-0.9,5.4-1.1,8.3-1.1c0.8,0,1.6,0,2.4,0c0.8,0,1.6,0,2.5,0c0.8,0,1.7,0,2.5,0c2.1,0,4.1,0,6.2,0
	c-0.3-2.4-0.6-4.8-0.9-7.1c-0.1-0.7-0.2-1.3-0.3-2c-0.5-4-1.1-7.9-1.8-11.9c-1.5,0-1.5,0-3,0.1c-3.7,0-7.4,0.1-11,0.1
	c-1.6,0-3.2,0-4.8,0.1c-19.6,0.3-19.6,0.3-26.3-4.9c-0.7-0.9-0.7-0.9-1.3-1.7c-0.5-0.6-0.9-1.1-1.4-1.7c-2.5-4-3.4-7.5-3.5-12.2
	c0-1,0-2.1,0-3.1c0-1.1,0-2.2,0-3.4c0-1.2,0-2.3,0-3.5c0-2.4,0-4.9,0-7.3c0-3.7,0-7.4-0.1-11.2c0-2.4,0-4.7,0-7.1c0-1.1,0-2.2,0-3.4
	c0-6,0.4-10.4,3.4-15.7c0.8-0.7,1.5-1.4,2.2-2.2c0.6-0.6,1.2-1.2,1.8-1.8c-0.6-5.5-5-8.7-9-12c-4.9-3.5-9.9-6.8-15-10
	c-0.5,0.3-1,0.6-1.6,0.8c-6.6,3.5-12.3,4.6-19.8,2.5c-5.1-2.2-8.1-5.5-10.7-10.3c-2.3-6.2-3.2-11.9-0.4-18.1
	C512,468.4,522.5,465.9,534,469.4z"/>
<path class="st2" d="M294.7,168.9c1.3,0,2.7,0,4,0c2.8,0,5.6,0,8.4,0c3.6,0,7.1,0,10.7,0c2.8,0,5.5,0,8.3,0c1.9,0,3.9,0,5.8,0
	c1.2,0,2.4,0,3.6,0c1,0,2.1,0,3.2,0c5.9,0.8,10.1,3.7,13.8,8.2c2.3,4.1,2.1,8.5,2.1,13.1c0,1,0,1.9,0.1,2.9c0,2.4,0.1,4.8,0.1,7.1
	c9.9,0.3,19.9,0.5,29.8,0.8c4.6,0.1,9.2,0.2,13.8,0.4c4.4,0.1,8.9,0.2,13.4,0.3c1.7,0,3.4,0.1,5.1,0.1c9,0.7,9,0.7,17.2-2.1
	c1.6-1.8,1.6-1.8,2.7-3.8c1.9-3.2,4.6-3.8,8-4.7c6.2-0.6,11.8-0.8,17,3c5,4.8,8,9.2,8.4,16.2c-0.2,5.8-1.9,11-5.8,15.4
	c-5.3,4.7-10.1,5.9-17,5.7c-4.1-0.5-7.3-1.8-10.6-4.3c-0.7-1-1.4-2-2.1-3c-2.2-2.7-2.8-2.9-6.5-3.7c-1.4,0-2.8,0-4.2,0
	c-0.8,0-1.5,0-2.3,0c-2.5,0-5.1,0-7.6,0c-1.8,0-3.5,0-5.3,0c-4.6,0-9.3,0-13.9,0c-4.7,0-9.5,0-14.2-0.1c-9.3-0.1-18.6-0.1-27.8-0.1
	c0,0.9,0,0.9,0.1,1.8c0.1,2.7,0.1,5.5,0.2,8.2c0,0.9,0.1,1.9,0.1,2.8c0.1,8-1.5,13.2-7.1,19c-7.1,4.6-14.1,4.4-22.2,4.1
	c0.3,1.3,0.5,2.7,0.8,4c0.1,0.7,0.3,1.5,0.5,2.2c0.6,2.4,1.4,4.6,2.3,6.9c0.4,1.1,0.4,1.1,0.8,2.2c0.3,0.8,0.3,0.8,0.6,1.7
	c0.9,0,0.9,0,1.8,0c6.4,0.1,12.7,0.2,19.1,0.2c2.4,0,4.7,0.1,7.1,0.1c3.4,0,6.8,0.1,10.2,0.1c1,0,2.1,0,3.2,0
	c6.4,0.1,13.1,0.3,18.1,4.9c3.8,4.3,4.6,7.7,4.6,13.2c0,1.7,0,1.7,0,3.5c0,1.2,0,2.5,0,3.8c0,1.3,0,2.6,0,3.9c0,2.7,0,5.5,0,8.2
	c0,3.5,0,7,0.1,10.5c0,3.3,0,6.7,0.1,10c0,1.2,0,2.5,0,3.8c0,10.9,0,10.9-4.5,15.6c-2.2,1.4-2.2,1.4-4,2c5.7,8.5,13.5,16.8,23,21
	c3.6,0.1,5.1-1.1,8.2-3.1c4.5-2.7,8.7-2.7,13.8-1.9c5.6,1.6,8.9,4.5,12.1,9.3c2.4,4.4,2.4,8.8,1.9,13.7c-2.1,6.5-5.2,11.3-11.1,14.9
	c-5.9,2.1-12.3,1.9-18.2,0.1c-4.1-3.1-7.6-7.2-9.4-12c-1.9-3.1-4.9-4.3-8-6c-10.3-5.9-29.4-18.1-32.9-30.1c-0.1-0.6-0.3-1.2-0.4-1.9
	c-1.6,0-1.6,0-3.2,0c-3.9,0.1-7.8,0.1-11.7,0.1c-1.7,0-3.4,0-5,0.1c-21.8,0.3-21.8,0.3-29.1-5.7c-3.3-4.2-4.2-6.9-4.2-12.3
	c0-1.7,0-1.7,0-3.5c0-1.2,0-2.5,0-3.8c0-1.3,0-2.6,0-3.9c0-2.7,0-5.5,0-8.2c0-3.5,0-7,0-10.5c0-3.3,0-6.7,0-10c0-1.2,0-2.5,0-3.8
	c0-1.2,0-2.3,0-3.5c0-1.5,0-1.5,0-3.1c0.1-2.9,0.1-2.9,0.7-6.2c0.5-3.1,0.3-3.9-1.4-6.4c-3.5-6.3-4.2-13.2-4.2-20.3
	c-0.7,0-1.4,0-2.1,0c-3.1,0.1-6.3,0.1-9.4,0.1c-1.1,0-2.2,0-3.3,0.1c-7.8,0.1-13.7-0.5-20-5.4c-6-7.7-5.6-15.4-5.4-24.7
	c0-1.3,0-2.7,0.1-4c0-2.8,0.1-5.6,0.1-8.4c0.1-3.6,0.1-7.1,0.1-10.7c0-2.8,0.1-5.5,0.1-8.3c0-2,0-3.9,0.1-5.9
	c0.1-4.9,0.3-8.8,2.1-13.4C275.6,168.7,284.8,168.8,294.7,168.9z"/>
<path class="st12" d="M582.6,266.3c16.5,0,33,0,50,0c0,16.5,0,33,0,50c-16.5,0-33,0-50,0C582.6,299.8,582.6,283.3,582.6,266.3z"/>
<path class="st7" d="M285.6,188.3c7.9,0,15.8,0,23.9-0.1c2.5,0,5,0,7.6,0c2,0,3.9,0,5.9,0c1.6,0,1.6,0,3.1,0c1,0,2,0,3,0
	c0.9,0,1.7,0,2.6,0c1.9,0.1,1.9,0.1,2.9,1.1c0.1,1.5,0.1,3,0.1,4.5c0,1,0,1.9,0,2.9c0,1,0,2.1,0,3.1c0,0.9,0,1.9,0,2.9
	c0,3.5,0,7.1,0,10.6c0,7.9,0,15.8-0.1,23.9c-16.2,0-32.3,0-49,0C285.6,221.2,285.6,205,285.6,188.3z"/>
<path class="st7" d="M316.6,560.3c16.2,0,32.3,0,49,0c0,15.8,0,31.7,0,48c-16.2,0-32.3,0-49,0C316.6,592.5,316.6,576.7,316.6,560.3z
	"/>
<path class="st7" d="M598.6,645.3c16.2,0,32.3,0,49,0c0,7.7,0,15.5,0.1,23.4c0,2.4,0,4.9,0,7.4c0,1.9,0,3.8,0,5.8c0,1,0,2,0,3.1
	c0,1.4,0,1.4,0,2.9c0,0.8,0,1.7,0,2.5c-0.1,1.9-0.1,1.9-1.1,2.9c-1.5,0.1-3,0.1-4.5,0.1c-1,0-2,0-3,0c-1,0-2.1,0-3.1,0
	c-1.4,0-1.4,0-2.8,0c-3.5,0-7.1,0-10.6,0c-7.9,0-15.8,0-23.9-0.1C598.6,677.5,598.6,661.7,598.6,645.3z"/>
<path class="st13" d="M574.6,541.3c15.5,0,31,0,47,0c0,14.9,0,29.7,0,45c-15.5,0-31,0-47,0C574.6,571.5,574.6,556.6,574.6,541.3z"/>
<path class="st14" d="M328.6,294.3c14.9,0,29.7,0,45,0c0,14.5,0,29,0,44c-14.9,0-29.7,0-45,0C328.6,323.8,328.6,309.3,328.6,294.3z"
	/>
<path class="st15" d="M537.6,369.3c3.2,1.4,5.4,3.1,7.9,5.6c0.7,0.7,1.5,1.4,2.2,2.2c0.8,0.8,1.5,1.5,2.3,2.3
	c0.7,0.7,1.5,1.5,2.2,2.2c2.2,2.2,4.3,4.4,6.5,6.7c0.7,0.7,1.4,1.4,2.1,2.2c0.7,0.7,1.3,1.4,2,2.1c0.6,0.6,1.2,1.2,1.8,1.9
	c1.1,1.8,1.1,1.8,0.9,4c-1,2.3-2,3.3-4,4.9c-0.7,0.6-1.4,1.2-2.2,1.8c-0.9,0.7-1.8,1.5-2.6,2.2c-1.8,1.5-3.5,3-5.3,4.5
	c-4.9,4.2-9.8,8.4-14.7,12.5c-7.2-3.1-12.2-10.1-17.1-15.9c-2.9-3.2-6.1-6-9.3-8.9c-1.6-2.2-1.6-2.2-1.7-4.7
	c1.3-3.2,2.9-4.4,5.6-6.5c1-0.8,2-1.5,3-2.3c0.5-0.4,1.1-0.8,1.7-1.3c3.5-2.7,7-5.6,10.4-8.4c0.7-0.6,1.4-1.2,2.2-1.8
	c0.7-0.5,1.3-1.1,2-1.6c0.6-0.5,1.2-1,1.8-1.5C536.6,370.4,536.6,370.4,537.6,369.3z"/>
<path class="st15" d="M426.6,457.3c4.4,4.2,8.2,8.7,12,13.4c1.2,1.5,2.4,2.9,3.6,4.4c0.6,0.7,1.1,1.4,1.7,2.1c1,1.3,2.1,2.5,3.2,3.7
	c1.4,1.6,1.4,1.6,3.4,4.3c-0.2,2.5-0.6,3.6-2.4,5.4c-0.6,0.4-1.2,0.8-1.8,1.3c-1,0.7-1,0.7-2,1.4c-1,0.8-1,0.8-2.1,1.5
	c-1.5,1.1-2.9,2.1-4.4,3.2c-0.7,0.5-1.5,1.1-2.2,1.6c-2,1.5-4,3-6,4.6c-0.6,0.5-1.2,0.9-1.8,1.4c-1.6,1.3-3.2,2.5-4.8,3.8
	c-2.7,1.8-2.7,1.8-6.7,1.8c-1.9-2-3.5-3.9-5.1-6.1c-1-1.3-1.9-2.6-2.9-3.8c-0.5-0.7-1-1.3-1.5-2c-2.5-3.3-5.1-6.6-7.7-9.9
	c-0.9-1.2-1.9-2.4-2.8-3.6c-0.7-0.8-1.3-1.7-2-2.6c2.9-3.9,5.9-6.7,9.8-9.6c0.6-0.4,1.1-0.8,1.7-1.3
	C412.9,467.3,419.7,462.3,426.6,457.3z"/>
<path class="st16" d="M404.6,451.3c1,0.5,1,0.5,2,1c-4,4.4-8.7,7.8-13.6,11.2c-2.5,1.7-2.5,1.7-4.4,3.8c-1,0.7-1.9,1.5-2.9,2.2
	c-3.9,3.3-6.5,6.8-8,11.8c-0.1,3.5,0.5,5.8,1.9,9c0.7,0.3,1.3,0.7,2,1c0.7,1.6,1.4,3.3,2,5c0.3,0.7,0.7,1.3,1,2
	c-3.1,3.1-6.2,6.1-9.5,9.1c-12.6,11.3-12.6,11.3-22.5,24.9c-0.5,0.9-1.1,1.7-1.6,2.6c-1.5,2.3-1.5,2.3-1.8,4.6
	c-0.6,1.9-0.6,1.9-2.6,3.6c-5.1,2.2-10.8,3.1-16.1,1.3c-2.1,0.2-4.1,0.5-6.2,0.7c-5.6,0.5-11.2,0.3-16.8,0.3c0,1,0,2,0,3
	c-0.6,0-1.2,0-1.8,0.1c-2.9,1.2-3.5,2.8-4.6,5.6c-1.3,5-1,10.1-0.9,15.2c0,1.2,0,2.5,0,3.8c0,3.3,0,6.6,0.1,9.8c0,3.3,0,6.6,0,10
	c0,2.5,0,5.1,0,7.6c0,1.2,0,2.4,0,3.6c0.1,5.5,0.2,10.9,1.2,16.3c0.7,0,1.3,0,2,0c0,1,0,2,0,3c2,0,4,0,6,0c0,0.7,0,1.3,0,2
	c0.6,0,1.1,0,1.7,0c2.5,0,5.1,0,7.6,0c0.9,0,1.8,0,2.7,0c1.3,0,1.3,0,2.6,0c0.8,0,1.6,0,2.4,0c2.1,0.1,2.1,0.1,5.1,1.1
	c1.6,3.2,1.4,6.7,1.6,10.2c0,0.8,0.1,1.6,0.1,2.4c0.4,7.5,0.4,14.9,0.3,22.4c0,1,0,2,0,3c-1.9,2.1-3.6,3.8-6.1,5.2
	c-2.7,2.5-3.2,5.1-4.2,8.6c-0.7,2.2-1.6,4.2-2.7,6.2c0.7,0.3,1.3,0.7,2,1c0,2,0,4,0,6c0.7,0,1.3,0,2,0c0,0.6,0.1,1.1,0.1,1.7
	c1.4,3.6,3.8,5.2,6.9,7.3c2.7,0.3,2.7,0.3,5,0c0.3,0.3,0.7,0.7,1,1c2.3,0.4,4.7,0.7,7,1c0,0.3,0,0.7,0,1
	c-10.7,0.6-10.7,0.6-15.4-1.6c-5-4.6-9-9-9.9-16c-0.1-6.2,0.4-11.4,4.3-16.4c1-0.7,2-1.4,3-2.1c2.8-2.4,2.9-2.9,3.7-6.8
	c0-1.5,0.1-3,0-4.5c0-0.8,0-1.6,0-2.4c0-2.5,0-5,0-7.6c0-1.7,0-3.4,0.1-5.1c0-4.2,0.1-8.4,0.1-12.6c-0.6,0-1.1,0-1.7,0.1
	c-2.6,0.1-5.2,0.1-7.8,0.2c-0.9,0-1.8,0.1-2.7,0.1c-6.1,0.1-10.7-0.9-15.8-4.4c-3.8-4-4.1-7.8-4.2-13.2c0-1.3,0-2.6,0-3.9
	c0-1.4,0-2.8,0-4.2c0-0.7,0-1.4,0-2.1c0-3.7,0-7.5,0-11.2c0-3.8,0-7.7-0.1-11.6c0-3,0-5.9,0-8.9c0-1.4,0-2.8,0-4.3c0-2,0-4,0-6
	c0-1.7,0-1.7,0-3.4c0.7-4.7,3-7.8,6.5-11c4.4-2.6,8.9-2.3,13.8-2.3c0.8,0,1.5,0,2.3,0c2.4,0,4.8,0,7.1,0c1.6,0,3.2,0,4.9,0
	c4,0,7.9,0,11.9,0c0.3-0.9,0.6-1.9,0.9-2.8c5.2-15,20-27.4,31.5-37.8c1.6-1.4,3.1-2.9,4.6-4.4c-0.4-0.6-0.9-1.2-1.3-1.8
	c-3.7-5.5-5.4-9.8-5.6-16.4c2.5-8,10.6-13.3,17.1-18.1c0.8-0.6,1.6-1.2,2.4-1.8C397.6,456.6,401.1,454,404.6,451.3z"/>
<path class="st18" d="M607.7,168c5.6,0.2,10.4,1.1,14.6,4.9c5.2,5.8,6.7,10.9,6.6,18.6c-0.7,6-2.9,10.9-7.4,14.9
	c-2.9,1.9-2.9,1.9-4.9,1.9c0,12.9,0,25.7,0,39c6.9-0.1,6.9-0.1,13.8-0.3c6.5-0.1,11.8,0.3,16.9,4.8c3.5,4.7,4.4,6.9,4.4,12.8
	c0,1,0,1,0,2c0,2.1,0,4.3,0,6.5c0,1.5,0,3,0,4.5c0,3.1,0,6.3,0,9.4c0,4,0,8,0,12c0,3.1,0,6.2,0,9.2c0,1.5,0,3,0,4.4
	c0,2.1,0,4.1,0,6.2c0,1.8,0,1.8,0,3.6c-0.4,2.9-0.4,2.9-1.9,4.8c-0.7,0.5-0.7,0.5-1.5,1.1c0.2-0.7,0.3-1.4,0.5-2.1
	c0.5-3.1,0.6-5.9,0.6-9c0-1.8,0-1.8,0-3.6c0-1.3,0-2.6,0-3.9c0-1.4,0-2.7,0-4.1c0-2.8,0-5.6,0-8.5c0-3.6,0-7.2,0-10.8
	c0-2.8,0-5.6,0-8.3c0-2,0-3.9,0-5.9c0-1.2,0-2.4,0-3.6c0-1.1,0-2.1,0-3.2c-0.1-2.8-0.4-5.2-1.1-7.9c-1-0.5-1-0.5-2-1
	c0.3-0.7,0.7-1.3,1-2c-3.8-2.2-7.8-3-12-4c0-0.7,0-1.3,0-2c-0.6,0-1.2,0-1.8,0c-2.7,0-5.4,0-8.1,0.1c-1,0-1.9,0-2.9,0
	c-1.3,0-1.3,0-2.7,0c-1.2,0-1.2,0-2.5,0c-1.9-0.1-1.9-0.1-2.9-1.1c-0.2-2.4-0.3-4.7-0.4-7.1c0-0.7-0.1-1.4-0.1-2.2
	c0-1.5-0.1-3-0.2-4.6c-0.1-2.3-0.2-4.6-0.2-6.9c0-1.5-0.1-2.9-0.1-4.4c0-0.7,0-1.4-0.1-2.1c-0.1-4.7,0.5-8.4,2.1-12.8
	c1.9-1.1,1.9-1.1,4-2c1.6-2.2,1.6-2.2,3-5c0.4-0.6,0.7-1.2,1.1-1.9c2.7-4.8,3.2-7.6,1.9-13.1c-0.3-2.3-0.7-4.7-1-7c-0.7,0-1.3,0-2,0
	c-0.2-0.6-0.5-1.2-0.7-1.9c-1.7-2.8-3.3-3.1-6.3-4.1c-0.7-0.3-1.3-0.7-2-1c-2-0.2-4.1-0.4-6.1-0.6c-1.6-0.1-1.6-0.1-3.3-0.2
	c-0.8-0.1-1.7-0.1-2.6-0.2C604,168,604.5,168.1,607.7,168z"/>
<path class="st19" d="M316.6,557.3c0.3,0.7,0.7,1.3,1,2c0.6-0.2,1.2-0.3,1.8-0.5c3.6-0.8,7.3-0.7,11-0.6c0.9,0,1.7,0,2.6,0
	c7.3,0.1,14.5,0.2,21.8,0.4c1.6,0,1.6,0,3.2,0.1c1.5,0,1.5,0,3,0.1c0.9,0,1.7,0,2.6,0.1c2.1,0.4,2.1,0.4,4.1,3.4
	c1.7,8.3,0.8,16.7,0,25c0.7,0.3,1.3,0.7,2,1c-0.3,1-0.7,2-1,3c-0.2,3.6-0.4,7.2-0.4,10.8c-0.2,5.7-0.2,5.7-1.8,7.9
	c-2.1,1.6-3.2,1.6-5.8,1.6c-0.8,0-1.6,0-2.5,0c-0.9,0-1.8,0-2.7,0c-1.4,0-1.4,0-2.8,0c-1.9,0-3.9,0-5.8,0c-2.9,0-5.9,0-8.8,0
	c-1.9,0-3.8,0-5.6,0c-1.3,0-1.3,0-2.6,0c-5.1-0.1-9.4-0.5-14.1-2.3c-1.2-2.3-1.1-3.7-1.1-6.2c0-0.9,0-1.8,0-2.7c0-0.9,0-1.9,0-2.9
	c0-1,0-1.9,0-2.9c0.1-10.5,0.5-20.9,1.1-31.3c-0.7-0.3-1.3-0.7-2-1c0.7,0,1.3,0,2,0C315.9,560.7,316.3,559,316.6,557.3z
	 M316.6,560.3c0,15.8,0,31.7,0,48c16.2,0,32.3,0,49,0c0-15.8,0-31.7,0-48C349.4,560.3,333.3,560.3,316.6,560.3z"/>
<path class="st20" d="M591.1,263.1c1.1,0,1.1,0,2.2,0c1.6,0,3.1,0,4.7,0c2.4,0,4.7,0,7.1,0c24.2,0.1,24.2,0.1,28.4,2.2
	c1.1,6,1.5,12.1,0,18c0.7,0.3,1.3,0.7,2,1c0.1,4.4,0.1,8.8,0.1,13.1c0,1.5,0,3,0,4.5c0,2.1,0,4.3,0,6.4c0,1.9,0,1.9,0,3.9
	c-0.2,3.1-0.2,3.1-2.2,5.1c-2.9,0.3-2.9,0.3-6.6,0.4c-1,0-1,0-2,0.1c-2.1,0-4.2,0.1-6.4,0.1c-2.8,0.1-5.5,0.1-8.3,0.2
	c-0.7,0-1.3,0-2,0.1c-4.8,0.1-9.6,0.5-14.4,1c-3.9,0.3-7.5-0.2-11.3-0.8c-1.6-1.6-1.2-3.6-1.3-5.8c0-1-0.1-2.1-0.1-3.1
	c0-1.1-0.1-2.2-0.1-3.4c0-1.1-0.1-2.3-0.1-3.5c-0.1-2.4-0.1-4.9-0.2-7.3c-0.1-3.7-0.2-7.5-0.3-11.2c0-2.4-0.1-4.7-0.2-7.1
	c0-1.7,0-1.7-0.1-3.4c0-1,0-2.1,0-3.1c0-0.9,0-1.8-0.1-2.8c0.1-0.7,0.2-1.5,0.3-2.2C584.2,262.9,586.9,263.1,591.1,263.1z
	 M582.6,266.3c0,16.5,0,33,0,50c16.5,0,33,0,50,0c0-16.5,0-33,0-50C616.1,266.3,599.6,266.3,582.6,266.3z"/>
<path class="st21" d="M364.6,358.3c0.3,0.7,0.7,1.3,1,2c0.7,0,1.3,0,2,0c0.5,0.6,1,1.3,1.4,1.9c1.5,2.3,1.5,2.3,4.6,3.1
	c0.1,0.6,0.3,1.2,0.5,1.8c0.7,2.9,2,3.8,4.3,5.7c1.1,0.9,1.1,0.9,2.2,1.8c0.7,0.6,1.3,1.1,2,1.7c0.9,0.8,1.7,1.5,2.6,2.3
	c2.7,1.9,5.2,2.8,8.4,3.7c0,1,0,2,0,3c1.3,0.3,2.6,0.7,4,1c0,0.7,0,1.3,0,2c1.1-0.1,1.1-0.1,2.2-0.2c2.8,0.2,2.8,0.2,5.1,2
	c1.7,2.2,1.7,2.2,1.7,6.2c1,0.5,1,0.5,2,1c2.3,2,3,3,4,6c4.3,2.9,7.4,3.3,12.5,2.4c1.2-0.3,2.4-0.7,3.6-1c1.2-0.3,2.4-0.7,3.7-1
	c3.6-1.6,4.5-2.8,6.1-6.4c0.3-1,0.7-2,1-3c0.7,0,1.3,0,2,0c-0.3-9.3-0.3-9.3-3-18c-2.5-1.2-2.5-1.2-5-2c-0.5-1.5-0.5-1.5-1-3
	c4.6,1.2,6.4,3.5,9,7.2c2.5,4.4,2.5,8.8,2,13.8c-2.1,6.5-5.2,11.3-11.1,14.9c-5.9,2.1-12.3,1.9-18.2,0.1c-4.1-3.1-7.6-7.2-9.4-12
	c-1.9-3.1-4.9-4.3-8-6c-12.2-7-23.8-16.7-32.2-28C364.6,360.4,364.6,359.4,364.6,358.3z"/>
<path class="st22" d="M458.9,192.4c4.8,3.5,9.3,8,10.7,13.9c0.8,6.7-0.4,12.2-4,18c-3.6,4.1-7.8,6.6-13.3,7.2
	c-6.1,0.3-10.8-0.5-15.7-4.2c-2.5-2.5-4.8-5.2-7-8c0.7-0.3,1.3-0.7,2-1c0.8,0.8,1.5,1.6,2.3,2.4c2.4,2.4,4.6,4.1,7.7,5.6
	c0,0.7,0,1.3,0,2c1.1,0,2.2,0,3.3-0.1c3.7,0.1,3.7,0.1,6.7,1.1c3.2-0.6,6.1-1.5,9-3c1.7-2.5,1.7-2.5,2-5c0.7,0,1.3,0,2,0
	c0.3-1.3,0.7-2.6,1-4c0.7,0,1.3,0,2,0c-0.5-7.4-0.5-7.4-1-15c-1.3-0.3-2.6-0.7-4-1c-0.2-0.8-0.5-1.6-0.8-2.4c-1.5-3-2-3.3-5.1-4.5
	c-4.3-1.4-7.2-1.1-11.2,0.9c-1.2,0.1-2.3,0.2-3.5,0.3c-1.2,0.2-2.3,0.5-3.5,0.7c-1.3,1.9-1.3,1.9-2,4c-1.9,2.1-3.3,2.9-6.1,3.2
	c-2.6,0.1-5.1,0-7.6-0.1c-0.9,0-1.8,0-2.7,0c-2.2,0-4.4-0.1-6.6-0.1c0-0.3,0-0.7,0-1c1.8,0,1.8,0,3.7,0c8.7,0.3,8.7,0.3,16.6-2.5
	c1.4-1.8,1.4-1.8,2.6-3.8C440.9,189.3,452.2,190.3,458.9,192.4z"/>
<path class="st23" d="M393.6,583.1c0.8,0,1.6,0,2.5,0c2.7,0,5.4,0.1,8.1,0.1c1.9,0,3.8,0.1,5.6,0.1c5,0.1,9.9,0.2,14.8,0.3
	c5.1,0.1,10.1,0.2,15.1,0.2c9.9,0.2,19.8,0.3,29.7,0.5c1,2.5,1,2.5,2,5c-1-0.5-1-0.5-2-1c0-0.7,0-1.3,0-2c-28.1,0-56.1,0-85,0
	c0,8.2,0,16.5,0,25c-0.3,0-0.7,0-1,0c-0.3-4.1-0.5-8.2-0.7-12.3c-0.1-1.2-0.1-2.3-0.2-3.5c-0.1-1.1-0.1-2.2-0.2-3.4
	c0-1-0.1-2.1-0.2-3.1c0.2-2.6,0.2-2.6,1.3-4.3C386.7,582.6,390,583,393.6,583.1z"/>
<path class="st24" d="M392.6,509.3c1.3,0.7,2.6,1.3,4,2c0,1,0,2,0,3c1,0.3,2,0.7,3,1c1.7,2.1,1.7,2.1,3,4c-0.7,0.7-1.3,1.3-2,2
	c-2-2.3-4-4.6-6-7c-12.7,4.5-22.5,16.7-29,28c0.6,0,1.1-0.1,1.7-0.1c6-0.3,9.4,0.4,14.3,4.1c3.1,4.9,3.4,8.8,3.2,14.4
	c0,1.1,0,1.1,0,2.2c0,1.8-0.1,3.6-0.1,5.4c0.7,0.3,1.3,0.7,2,1c-1,0.5-1,0.5-2,1c-1-0.7-2-1.3-3-2c0.7,0,1.3,0,2,0
	c-0.3-0.7-0.7-1.3-1-2c0-1.3,0-2.7,0.1-4c0.1-5.4-1.4-10-3.1-15c-1.5,0.5-1.5,0.5-3,1c0-0.7,0-1.3,0-2c-1,0-2,0-3,0c0-0.7,0-1.3,0-2
	c-3-0.3-5.9-0.7-9-1c-0.3-1.3-0.7-2.6-1-4c1-1.5,1-1.5,2-3c0.7,0,1.3,0,2,0c-0.3-1-0.7-2-1-3c1-0.3,2-0.7,3-1c0-0.7,0-1.3,0-2
	c1.4-1.6,1.4-1.6,3-3c0.7,0,1.3,0,2,0c0-1,0-2,0-3c1.6-1,3.3-2,5-3c2.3-2.2,4.5-4.5,6.7-6.8c1.3-1.2,1.3-1.2,3.3-1.2
	c0.3-0.7,0.7-1.3,1-2c0.7,0.3,1.3,0.7,2,1C392.6,511.4,392.6,510.4,392.6,509.3z"/>
<path class="st25" d="M565.6,322.3c0.7,1.3,1.3,2.6,2,4c1,0,2,0,3,0c0,0.7,0,1.3,0,2c0.7,0,1.3,0,2,0c0.3,0.7,0.7,1.3,1,2
	c3.2,2,6,2.4,9.8,2.6c1,0.1,2,0.1,3,0.2c0.8,0.1,1.5,0.1,2.3,0.2c1.1,2.3,1.1,2.3,2,5c-1.8,4.2-4.8,6.9-8,10
	c-5.7,5.9-5.7,5.9-10.2,12.8c-1.9,3.4-3.8,5.8-6.8,8.2c-1.3,0-2.6,0-4,0c0-0.7,0-1.3,0-2c-0.7,0-1.3,0-2,0c-1.7-1.7-3.4-3.3-5-5
	c-0.7-0.3-1.3-0.7-2-1c0.3-1,0.7-2,1-3c0.5,0.4,0.9,0.8,1.4,1.2c0.6,0.5,1.2,1.1,1.9,1.6c0.6,0.5,1.2,1.1,1.9,1.6
	c1.9,1.7,1.9,1.7,4.8,3.5c14.1-14.3,14.1-14.3,25-31c-1.3,0.1-2.6,0.1-3.9,0.2c-5.7,0-11.5-0.7-15.7-4.8
	C566.7,327.7,565.6,326.1,565.6,322.3z"/>
<path class="st26" d="M473.8,641c1.6,0.8,1.6,0.8,3.8,2.3c-3,1-4.9,1-8,0c0-0.7,0-1.3,0-2c-0.6,0.2-1.1,0.4-1.7,0.6
	c-3.8,1.3-7.2,2.4-11.2,2.8c-3.1,0.2-3.1,0.2-4.3,2.2c-0.2,0.8-0.5,1.5-0.8,2.3c-0.5,0.9-1,1.7-1.6,2.6c-1.9,4.4-2.6,8.6-2.4,13.4
	c1.3,2.9,1.3,2.9,3,5c0,1,0,2,0,3c1,0,2,0,3,0c0,1,0,2,0,3c1.1,0,2.1-0.1,3.2-0.1c3.4,0.1,5,0.3,7.8,2.1c-1.6,1.1-1.6,1.1-4,2
	c-6-1.2-9.9-4.6-13.8-9.1c-2.5-6.1-3.1-12.4-0.8-18.6C451.6,641.8,462.1,637.5,473.8,641z"/>
<path class="st27" d="M378.6,620.3c1,0.3,2,0.7,3,1c-5.1,5.1-8.8,6.1-16,7c-5.6,0-11.2,0-17,0c0,11.9,0,23.8,0,36
	c1.6,0.7,3.3,1.3,5,2c7,7.5,7,7.5,7,13c-0.7,0-1.3,0-2,0c-0.7-2.6-1.3-5.3-2-8c-0.7,0-1.3,0-2,0c-0.7-0.7-1.3-1.3-2-2
	c-1.3-1-1.3-1-2.6-1.9c-2.4-2.1-2.4-2.1-3.4-5.1c0-2.6,0-5.2,0-7.9c0-0.8,0-1.5,0.1-2.3c0-1.6,0.1-3.2,0.1-4.9
	c0.1-2.5,0.1-5,0.2-7.5c0-1.6,0.1-3.2,0.1-4.7c0-0.8,0-1.5,0.1-2.3c0.2-5.3,0.2-5.3,2.4-7.5c2-0.2,2-0.2,4.4-0.1c0.9,0,1.8,0,2.7,0
	c1.9,0,3.7,0.1,5.6,0.2c1.3,0,1.3,0,2.7,0c0.8,0,1.6,0.1,2.4,0.1c2.5-0.2,4-1,6.3-2.2c1,0,2,0,3,0
	C377.3,622.4,377.9,621.4,378.6,620.3z"/>
<path class="st28" d="M330.6,292.3c14.5,0,29,0,44,0c1.2,2.3,1.1,3.6,1,6.2c0,0.9,0,1.7-0.1,2.6c0,1.4,0,1.4-0.1,2.8
	c0,1.4,0,1.4-0.1,2.9c-0.1,3-0.2,6.1-0.2,9.1c0,2.1-0.1,4.1-0.2,6.2c-0.1,5.1-0.3,10.1-0.4,15.2c-0.3,0-0.7,0-1,0
	c0-14.2,0-28.4,0-43c-14.5,0-29,0-44,0C329.9,293.7,330.3,293,330.6,292.3z"/>
<path class="st29" d="M582.6,370.3c0,3,0,3-2.6,5.9c-2.7,2.7-2.7,2.7-2.3,5c1,2.5,2.4,4.4,3.9,6.6c3.5,5.8,4.4,10.9,2.9,17.5
	c-1.8,3.3-4.2,5.5-7,8c-1.2,1.1-1.2,1.1-2.5,2.3c-2.2,1.9-4.3,3.9-6.5,5.7c-0.7-0.3-1.3-0.7-2-1c0-0.7,0-1.3,0-2
	c2-1.4,4-2.5,6.1-3.7c2.2-1.3,2.2-1.3,2.9-4.3c1,0,2,0,3,0c3.1-6.4,3.8-13.3,1.8-20.2c-0.9-2.1-2-3.4-3.5-5.1
	c-2.3-2.8-2.3-2.8-2.2-4.9c0.3-0.6,0.6-1.2,0.9-1.9c0.3-0.7,0.7-1.5,1.1-2.2c0.3-0.6,0.6-1.2,0.9-1.8c0.7,0,1.3,0,2,0
	c0-0.7,0-1.3,0-2C580.6,371.7,581.6,371,582.6,370.3z"/>
<path class="st30" d="M432.6,371.3c4.6,1.2,6.4,3.5,9,7.2c2.5,4.4,2.5,8.8,2,13.8c-2.1,6.5-5.2,11.3-11.1,14.9
	c-4.7,1.8-9.9,1.8-14.9,1.1c-0.7-0.7-1.3-1.3-2-2c0.7,0,1.4-0.1,2-0.1c6.7-0.4,13.2-1.2,19-4.9c1.7-2.4,2.2-4.2,3-7c0.7,0,1.3,0,2,0
	c-0.3-9.3-0.3-9.3-3-18c-2.5-1.2-2.5-1.2-5-2C433.3,373.4,432.9,372.4,432.6,371.3z"/>
<path class="st32" d="M280.6,169.3c20.1,0,40.3,0,61,0c0,0.3,0,0.7,0,1c-1,0.1-2.1,0.1-3.2,0.2c-1.4,0.1-2.8,0.2-4.3,0.3
	c-0.7,0-1.5,0.1-2.2,0.1c-3.6,0.2-7.3,0.5-10.9,1c-13.5,1.6-27-0.1-40.4-1.6C280.6,170,280.6,169.7,280.6,169.3z"/>
<path class="st33" d="M480.8,558.7c0.9,0.3,0.9,0.3,1.8,0.7c-0.9,0.3-1.7,0.7-2.6,1.1c-3.2,1.8-4,2.7-6.1,5.5
	c-2.3,2.7-3.7,3.9-7.2,4.3c-1.5,0-3,0-4.5,0c-0.8,0-1.6,0-2.5,0c-2.7,0-5.4-0.1-8.1-0.1c-1.9,0-3.8,0-5.6,0c-4.9,0-9.9-0.1-14.8-0.2
	c-5-0.1-10.1-0.1-15.1-0.1c-9.9-0.1-19.7-0.2-29.6-0.3c0-0.3,0-0.7,0-1c27.4,0,54.8,0,83,0c0.7-1.3,1.3-2.6,2-4
	c1.6-1.7,1.6-1.7,3.4-3.3c0.9-0.8,0.9-0.8,1.8-1.6C478.6,558.4,478.6,558.4,480.8,558.7z"/>
<path class="st34" d="M588.9,263c0.7,0,1.4,0,2.1,0c1.1,0,1.1,0,2.2,0c1.6,0,3.2,0,4.7,0c2.4,0,4.7,0.1,7.1,0.1
	c25.3,0.1,25.3,0.1,28.4,3.2c-17.5,0-35,0-53,0C583.8,263.1,584.6,263,588.9,263z"/>
<path class="st35" d="M315.7,542.2c1,0,2,0,3,0c1.5,0,1.5,0,3.1,0c1,0,2,0,3,0c6.4,0,12.6,0.4,18.9,1.1c0,0.3,0,0.7,0,1
	c-1.6,0.2-3.2,0.4-4.8,0.6c-0.9,0.1-1.8,0.2-2.7,0.3c-2.5,0.1-2.5,0.1-5.5-0.9c-2.1,0.2-4.1,0.5-6.2,0.8c-5.6,0.5-11.2,0.3-16.8,0.2
	c0,1,0,2,0,3c-0.9,0-0.9,0-1.8,0.1c-2.6,0.8-2.6,0.8-3.9,4.5c-0.4,1.1-0.8,2.3-1.2,3.4c-0.7-1.3-1.3-2.6-2-4c5-8.1,5-8.1,9.8-9.6
	C310.9,542.3,313.1,542.2,315.7,542.2z"/>
<path class="st36" d="M283.6,188.3c0.7,0,1.3,0,2,0c0,15.8,0,31.7,0,48c-1,0.5-1,0.5-2,1c-0.2-4.7-0.3-9.5-0.5-14.2
	c0-1.6-0.1-3.2-0.2-4.8C282.6,208.3,282.6,198.4,283.6,188.3z"/>
<path class="st38" d="M320.7,625.2c0.7,0,1.4,0,2.2,0c3.2,0,5.7,0.1,8.8,1.1c0,12.5,0,25.1,0,38c-0.3,0-0.7,0-1,0
	c0-11.9,0-23.8,0-36c-6.5,0.1-6.5,0.1-13,0.2c-0.8,0-1.6,0-2.4,0c-0.8,0-1.7,0-2.5,0c-2.1-0.2-2.1-0.2-4.1-2.2
	C312.5,625,316.5,625.2,320.7,625.2z"/>
<path class="st39" d="M647.6,328.3c0,1,0,2,0,3c-4.6,4.3-9.1,4.1-15.2,4.1c-1,0-1,0-2.1,0c-2.2,0-4.3,0-6.5,0c-1.5,0-3,0-4.4,0
	c-3.6,0-7.2,0-10.8,0c-0.3,0.9-0.6,1.9-0.9,2.8c-1,2.9-2.1,5-3.7,7.5c-0.4,0.7-0.9,1.4-1.4,2.1c-0.3,0.5-0.7,1-1,1.5
	c-1-2-1-2-0.2-4.3c1.2-2.7,1.2-2.7,2.8-5.2c1.3-2.2,1.9-3.9,2.4-6.4c0.9,0,1.7,0,2.6,0c3.2,0,6.5,0.1,9.8,0.1c1.4,0,2.8,0,4.2,0
	c12.4,0.7,12.4,0.7,23.4-3.8C646.9,329.3,647.3,328.8,647.6,328.3z"/>
<path class="st40" d="M378.6,620.3c1,0.3,2,0.7,3,1c-6.7,6.7-13.6,7.1-22.8,7.1c-3.4,0-6.8-0.1-10.2-0.1c0.3-1,0.7-2,1-3
	c0.6,0,1.2,0,1.8,0c2.7,0,5.3,0.1,8,0.1c0.9,0,1.8,0,2.8,0.1c0.9,0,1.8,0,2.7,0c1.2,0,1.2,0,2.5,0c2.5-0.2,4.1-1.1,6.3-2.2
	c1,0,2,0,3,0C377.3,622.4,377.9,621.4,378.6,620.3z"/>
<path class="st41" d="M616.6,247.3c3.5-0.1,7-0.1,10.6-0.2c1,0,2-0.1,3-0.1c6.7-0.1,11.9,0.3,17.2,4.7c4.1,5.4,4.1,5.4,4.3,8.5
	c-0.7,0.7-1.3,1.3-2,2c-0.1-0.8-0.2-1.6-0.4-2.4c-0.2-0.8-0.4-1.7-0.6-2.6c-0.7-0.3-1.3-0.7-2-1c0.3-0.7,0.7-1.3,1-2
	c-3.8-2.2-7.8-3-12-4c0-0.7,0-1.3,0-2c-6.3,0-12.5,0-19,0C616.6,248,616.6,247.7,616.6,247.3z"/>
<path class="st42" d="M513.6,472.3c0,3.9-1.5,5-4,8c-1.8,3-2.2,5.2-2.1,8.8c0,0.8,0,1.6,0,2.4c0,0.6,0.1,1.2,0.1,1.8
	c0.7,0.3,1.3,0.7,2,1c-0.7,0.7-1.3,1.3-2,2c0-0.7,0-1.3,0-2c-0.7,0-1.3,0-2,0c-1.7-5.3-1.6-10.2,0.7-15.2
	C508.1,475.7,510,474,513.6,472.3z"/>
<path class="st24" d="M382.6,351.3c1.6,0,3.3,0,5,0c-0.3,0.7-0.7,1.3-1,2c-0.7,0-1.3,0-2,0c6.6,9.8,14.7,16.3,25,22
	c-1.3,0.3-2.6,0.7-4,1c0-0.7,0-1.3,0-2c-2.6-1.1-5.3-2.1-8-3c0-0.7,0-1.3,0-2c-0.6-0.2-1.1-0.5-1.7-0.8c-6.1-3.3-12.1-8.6-14.3-15.2
	C381.9,352.7,382.3,352,382.6,351.3z"/>
<path class="st43" d="M319.6,680.3c0.1,0.6,0.2,1.3,0.4,1.9c0.2,0.7,0.4,1.4,0.6,2.1c0.7,0.3,1.3,0.7,2,1c0,2,0,4,0,6
	c0.7,0,1.3,0,2,0c0.1,0.8,0.1,0.8,0.1,1.7c1.4,3.6,3.8,5.2,6.9,7.3c2.7,0.3,2.7,0.3,5,0c0.3,0.3,0.7,0.7,1,1c2.3,0.4,4.7,0.7,7,1
	c0,0.3,0,0.7,0,1c-10.7,0.6-10.7,0.6-15.4-1.6c-4.7-4.3-9.3-8.8-9.7-15.5C319.5,684.3,319.5,682.3,319.6,680.3z"/>
<path class="st44" d="M555.6,385.3c2.4,0.8,2.4,0.8,5,2c0.3,1,0.7,2,1,3c1,0.3,2,0.7,3,1c0.3,1,0.7,2,1,3c1.5,1.7,1.5,1.7,3,3
	c-2.9,5.8-7.4,8.2-13,11c0.9-1.1,1.9-2.2,2.8-3.4c0.5-0.6,1-1.2,1.6-1.9c1.6-1.7,1.6-1.7,4.6-3.7c-0.6-3.9-2.4-5.9-5.1-8.7
	C555.6,386.4,555.6,386.4,555.6,385.3z"/>
<path class="st46" d="M582.6,370.3c0,3,0,3-2.6,5.9c-2.7,2.7-2.7,2.7-2.3,5c1,2.5,2.4,4.4,3.9,6.6c3.4,5.5,3.6,10.1,2.9,16.4
	c-0.3,0-0.7,0-1,0c-0.1-1.3-0.1-2.6-0.2-3.9c-0.7-6.1-3.1-12.4-7.5-16.8c-0.4-0.4-0.9-0.9-1.3-1.3c0.3-3,1.6-5.4,3-8
	c0.7,0,1.3,0,2,0c0-0.7,0-1.3,0-2C580.6,371.7,581.6,371,582.6,370.3z"/>
<path class="st47" d="M565.6,322.3c0.7,1.3,1.3,2.6,2,4c1,0,2,0,3,0c0,0.7,0,1.3,0,2c0.7,0,1.3,0,2,0c0.3,0.7,0.7,1.3,1,2
	c3.2,2,6,2.4,9.8,2.6c1,0.1,2,0.1,3,0.2c0.8,0.1,1.5,0.1,2.3,0.2c0,0.3,0,0.7,0,1c-6.6,1.2-12,1.4-18-2c-2.1-2.1-3.8-4.3-5-7
	C565.6,324.4,565.6,323.4,565.6,322.3z"/>
<path class="st48" d="M571.6,250.3c-0.3,1-0.7,2-1,3c-1,0.5-1,0.5-2,1c-3.4,9.9-2.6,21.6-3,32c-0.3,0-0.7,0-1,0
	c-0.1-4.3-0.2-8.7-0.3-13c0-1.5-0.1-2.9-0.1-4.4c-0.1-2.1-0.1-4.2-0.1-6.4c0-1.3,0-2.5-0.1-3.9C564.7,254.6,566.9,250.3,571.6,250.3
	z"/>
<path class="st49" d="M546.6,436.3c1,0.3,2,0.7,3,1c-5.4,4.5-8.8,6.4-15.7,6.3c-3.2-0.4-5.6-1.5-8.3-3.3c-0.3-0.7-0.7-1.3-1-2
	c0.8,0.2,1.6,0.5,2.4,0.7c1.1,0.3,2.1,0.6,3.2,0.9c1,0.3,2.1,0.6,3.2,0.9c3.1,0.6,5.1,0.6,8.1-0.4c0.3-0.7,0.7-1.3,1-2c1,0,2,0,3,0
	C545.9,437.7,546.3,437,546.6,436.3z"/>
<path class="st50" d="M399.6,491.3c3.8,1.5,5.8,3.7,8.3,6.8c1.1,1.3,1.1,1.3,2.2,2.6c1.5,2.6,1.5,2.6,1.2,5.4
	c-0.4,1.1-0.4,1.1-0.7,2.2c-2.9-2.6-4.3-4.2-5-8c-0.7-1-1.3-2-2-3c-1,0-2,0-3,0C400.3,495.4,399.9,493.4,399.6,491.3z"/>
<path class="st52" d="M429.6,218.3c2.8,0.4,3.8,0.7,5.6,2.9c0.5,0.7,1,1.4,1.4,2.1c2.8,1.9,2.8,1.9,5,3c0,0.7,0,1.3,0,2
	c2.3,0,4.6,0,7,0c-0.3,1-0.7,2-1,3c-6-0.3-9.7-3-14-7C432,222.4,430.8,220.5,429.6,218.3z"/>
<path class="st53" d="M545.6,415.3c0.7,0.3,1.3,0.7,2,1c-3.4,4.1-6.7,7.8-11,11c-1.1-0.9-2.3-1.8-3.4-2.8c-0.6-0.5-1.2-1-1.9-1.6
	c-1.7-1.7-1.7-1.7-3.7-5.7c2.3,2,4.6,4,7,6C539.6,421.9,542.1,419.1,545.6,415.3z"/>
<path class="st54" d="M507.6,396.3c15.5,12.8,15.5,12.8,20,21c-3.8-1.5-5.5-3.8-8-7c-2.2-2.3-4.6-4.6-6.9-6.8
	c-0.6-0.6-1.3-1.2-1.9-1.9c-0.6-0.6-1.2-1.2-1.8-1.8C507.6,398.3,507.6,398.3,507.6,396.3z"/>
<path class="st56" d="M326.6,666.3c0.3,1,0.7,2,1,3c-0.7,0.7-1.3,1.3-2,2c-0.6,1.5-1.1,3.1-1.6,4.6c-0.3,0.8-0.5,1.6-0.8,2.5
	c-0.2,0.6-0.4,1.2-0.6,1.9c-1,0-2,0-3,0C319.9,674.3,322.9,670.8,326.6,666.3z"/>
<path class="st57" d="M429.6,369.3c0.7,0.3,1.3,0.7,2,1c-0.3,0.7-0.7,1.3-1,2c-1.1-0.1-1.1-0.1-2.2-0.1c-6.7-0.2-10.4,0.3-15.8,4.1
	c-1,0.5-1,0.5-2,1c1.2-3.7,3.5-5.4,6.9-7.2C421.4,368.7,425.5,368.9,429.6,369.3z"/>
<path class="st58" d="M364.6,358.3c0.3,0.7,0.7,1.3,1,2c0.7,0,1.3,0,2,0c0.5,0.6,1,1.3,1.4,1.9c1.5,2.3,1.5,2.3,4.6,3.1
	c0.1,0.6,0.2,1.1,0.3,1.8c1.1,3.6,3.8,5,6.7,7.2c-0.7,0.7-1.3,1.3-2,2c-10.6-10.4-10.6-10.4-14-15
	C364.6,360.4,364.6,359.4,364.6,358.3z"/>
<path class="st59" d="M581.6,316.3c2.8-0.1,5.5-0.1,8.2-0.1c0.8,0,1.5,0,2.4-0.1c7.1-0.1,7.1-0.1,10.4,2.2c-6.9,0.8-13.2,1.2-20,0
	C582.3,317.7,581.9,317,581.6,316.3z"/>
<path class="st60" d="M597.6,352.3c0,3.9-1.3,5-3.8,8c-0.7,0.9-1.4,1.7-2.1,2.6c-1.9,2.1-3.8,3.8-6.1,5.4c0-1.3,0-2.6,0-4
	c1.6-1,3.3-2,5-3c0-1,0-2,0-3c0.6-0.3,1.3-0.5,1.9-0.8c2.4-1.1,2.4-1.1,3.1-4.2C596.3,353,596.9,352.7,597.6,352.3z"/>
<path class="st61" d="M606.6,333.3c1.3,0.3,2.6,0.7,4,1c-0.7,0-1.3,0-2,0c-0.1,0.7-0.2,1.4-0.4,2.2c-0.7,2.9-1.6,5-3.1,7.6
	c-0.4,0.8-0.9,1.6-1.3,2.4c-1.2,1.9-1.2,1.9-3.2,2.9c1.1-4.5,2.5-8.1,5-12C606.3,335.2,606.3,335.2,606.6,333.3z"/>
<path class="st62" d="M559.6,302.3c2.4,0.2,2.4,0.2,5,1c2.3,4,2.1,7.3,1.6,11.8c-0.1,1.2-0.2,2.3-0.3,3.5c-0.1,0.9-0.2,1.8-0.3,2.7
	c-0.3,0-0.7,0-1,0c-0.1-1.2-0.2-2.4-0.3-3.7c-0.2-1.6-0.3-3.1-0.5-4.7c-0.1-0.8-0.1-1.6-0.2-2.4c-0.2-2.1-0.6-4.2-1-6.2
	C561.6,303.7,560.6,303,559.6,302.3z"/>
<path class="st63" d="M266.6,221.3c0.3,0,0.7,0,1,0c0.2,2.4,0.4,4.7,0.6,7.1c0.1,1.3,0.2,2.6,0.3,4c0.1,3.9-0.2,7.1-0.9,11
	C263.6,237.3,265.3,228.3,266.6,221.3z"/>
<path class="st64" d="M586.6,193.3c2,3,2,3,2,5c0.7,0,1.3,0,2,0c0.6,0.9,1.1,1.9,1.8,2.8c2.5,3.5,4.3,4.6,8.2,6.2c-0.3,1-0.7,2-1,3
	c0-0.7,0-1.3,0-2c-0.8-0.1-1.5-0.2-2.3-0.3c-4.7-1.2-7.1-4.8-9.7-8.7C586.7,195.8,586.7,195.8,586.6,193.3z"/>
<path class="st65" d="M591.6,174.3c0.7,0.3,1.3,0.7,2,1c-1.4,2.5-1.4,2.5-3,5c-0.7,0-1.3,0-2,0c0.1,1,0.1,1,0.1,2.1
	c-0.2,3.5-1.1,6.6-2.1,9.9c-0.3,0-0.7,0-1,0c-0.7-7.1,0.6-11.4,5-17C590.9,175,591.3,174.7,591.6,174.3z"/>
<path class="st66" d="M534.6,351.3c5.2-0.2,9.1,0,14,2c-1,0.5-1,0.5-2,1c-0.3,0.7-0.7,1.3-1,2c-0.5-0.3-1-0.6-1.5-0.9
	c-3.5-1.5-6.7-1.7-10.5-2.1C533.9,352.7,534.3,352,534.6,351.3z"/>
<path class="st68" d="M412.6,507.3c3.9,1.8,3.9,1.8,5,4c0.6-0.3,1.2-0.7,1.8-1c2.2-1,2.2-1,5.2-1c-1.6,2-3.3,4-5,6
	C413.7,510.7,413.7,510.7,412.6,507.3z"/>
<path class="st69" d="M418.6,440.3c1,0.7,2,1.3,3,2c-1.8,1-3.5,1.9-5.3,2.9c-1.9,1.1-1.9,1.1-3.7,3.1c-1.6,1-3.3,2-5,3
	c1.5-3.7,3.5-5.4,6.6-7.8c0.8-0.6,1.6-1.2,2.5-1.9C417.6,441,417.6,441,418.6,440.3z"/>
<path class="st70" d="M497.6,410.3c1,0.3,2,0.7,3,1c-1,3.4-1.6,4.8-4.6,6.8c-0.8,0.4-1.6,0.8-2.4,1.2c-0.7-0.7-1.3-1.3-2-2
	c0.8-0.6,1.6-1.2,2.4-1.8C496.8,413.5,496.8,413.5,497.6,410.3z"/>
<path class="st71" d="M440.6,278.3c1,0.3,2,0.7,3,1c-1,2-1,2-2.9,2.8c-2.8,1.6-3,3.2-4.1,6.2c-0.7,0.7-1.3,1.3-2,2
	C435,284.7,436.9,282.3,440.6,278.3z"/>
<path class="st72" d="M433.6,500.3c0.7,0.3,1.3,0.7,2,1c-4.4,5.8-4.4,5.8-7.3,6.9c-0.8,0.1-0.8,0.1-1.7,0.1c0-1,0-2,0-3
	c1.5-1.4,1.5-1.4,3.5-2.7c0.6-0.4,1.3-0.9,2-1.3C432.8,500.8,432.8,500.8,433.6,500.3z"/>
<path class="st73" d="M460.6,640.3c11.5-0.5,11.5-0.5,17,3c-3,1-5,1-8,0c0-0.7,0-1.3,0-2c-3,0-5.9,0-9,0
	C460.6,641,460.6,640.7,460.6,640.3z"/>
<path class="st74" d="M448.6,482.3c2,1.2,2,1.2,4,3c0.2,2.7,0.2,2.7,0,5c-2,1.1-4,2.1-6,3c-0.7-0.3-1.3-0.7-2-1c1.6-1.3,3.3-2.6,5-4
	C449.3,486.4,448.9,484.4,448.6,482.3z"/>
<path class="st76" d="M482.6,559.3c-1.3,0.5-1.3,0.5-2.6,1.1c-4.1,2.4-6.5,5.2-9.4,8.9c-0.3-1-0.7-2-1-3c1.1-1.1,2.2-2.3,3.4-3.4
	c0.6-0.6,1.2-1.3,1.9-1.9C477.7,558.3,478.9,558.2,482.6,559.3z"/>
<path class="st77" d="M571.6,250.3c-0.3,1-0.7,2-1,3c-1,0.5-1,0.5-2,1c-0.7,2.6-0.7,2.6-1.1,5.6c-0.2,1-0.3,2-0.5,3.1
	c-0.1,0.8-0.2,1.6-0.4,2.4c-0.3,0-0.7,0-1,0c-0.7-3.4-1.1-6.6-1-10C568.3,250.3,568.3,250.3,571.6,250.3z"/>
<path class="st79" d="M481.6,670.3c0,1,0,2,0,3c-3.9,3.9-6.4,5.6-12,6c3-2,3-2,5-2c0-0.7,0-1.3,0-2c1-0.3,2-0.7,3-1
	C479,673.1,480.3,671.7,481.6,670.3z"/>
<path class="st81" d="M272.6,172.3c0.7,0.7,1.3,1.3,2,2c-0.8,0.8-1.6,1.6-2.5,2.4c-2.7,2.3-2.7,2.3-2.5,4.6c-1,0.3-2,0.7-3,1
	C267,177.5,269.1,175.5,272.6,172.3z"/>
<path class="st84" d="M358.6,681.3c0.3,0,0.7,0,1,0c1.4,7.3,1.4,7.3-0.4,11c-0.5,0.7-1,1.3-1.6,2c-1-0.3-2-0.7-3-1c1-0.3,2-0.7,3-1
	C357.9,688.7,358.3,685.1,358.6,681.3z"/>
<path class="st85" d="M375.6,478.3c0.3,0,0.7,0,1,0c1.3,5.3,2.7,10.7,4,16c-3-2.7-4.9-5.2-5.2-9.4c0-0.8,0.1-1.6,0.1-2.4
	c0-0.8,0-1.6,0-2.4C375.5,479.6,375.6,479,375.6,478.3z"/>
<path class="st86" d="M583.6,248.3c-2.2,2.2-3,2.6-6,3c-2.8-0.4-2.8-0.4-5-1c0-0.7,0-1.3,0-2C576.4,247,579.7,247.7,583.6,248.3z"/>
<path class="st88" d="M387.6,513.3c0.7,0.3,1.3,0.7,2,1c-1.1,3.4-1.9,4.2-5,6c-2.2-0.3-2.2-0.3-4-1c0.6-0.4,1.2-0.9,1.8-1.3
	C384.3,516.6,385.9,515.1,387.6,513.3z"/>
<path class="st89" d="M519.6,382.3c0.7,0.3,1.3,0.7,2,1c-4,3.5-4,3.5-8,7c-0.7-0.3-1.3-0.7-2-1c0.7-1.9,0.7-1.9,2-4
	c2.6-1.2,2.6-1.2,5-2C518.9,383,519.3,382.7,519.6,382.3z"/>
<path class="st90" d="M553.6,358.3c1.1,0.9,2.3,1.9,3.4,2.8c0.6,0.5,1.3,1,1.9,1.6c1.6,1.6,1.6,1.6,2.6,4.6c-2,0-2,0-4.5-2.4
	c-0.8-0.8-1.7-1.7-2.5-2.6c-0.7-0.3-1.3-0.7-2-1C552.9,360.4,553.3,359.4,553.6,358.3z"/>
<path class="st92" d="M380.6,472.3c0.3,0.7,0.7,1.3,1,2c-0.7-0.3-1.3-0.7-2-1C379.9,473,380.3,472.7,380.6,472.3z M376.6,474.3
	c2,0.5,2,0.5,4,1c-1.5,3.5-1.5,3.5-3,7c-1.4-2.4-2.1-3.5-1.6-6.2C376.2,475.5,376.4,474.9,376.6,474.3z"/>
<path class="st93" d="M412.6,464.3c0.7,0.3,1.3,0.7,2,1c0,0.7,0,1.3,0,2c-2,1.4-4,2.7-6,4c-1-0.7-2-1.3-3-2c1-0.5,1.9-0.9,2.9-1.4
	C411.7,466.7,411.7,466.7,412.6,464.3z"/>
<path class="st94" d="M581.6,395.3c0.7,0,1.3,0,2,0c0.2,1.6,0.4,3.2,0.6,4.9c0.1,0.9,0.2,1.8,0.4,2.7c0,0.8,0,1.6,0,2.4
	c-0.7,0.7-1.3,1.3-2,2c-0.7,0-1.3,0-2,0c0.1-0.8,0.1-1.6,0.2-2.4c0.1-1,0.2-2,0.3-3.1c0.1-1,0.2-2,0.3-3.1
	C581.5,397.1,581.5,397.1,581.6,395.3z"/>
<path class="st95" d="M581.6,334.3c2.6,0,5.3,0,8,0c0.7,1.8,0.7,1.8,1,4c-1.4,1.8-1.4,1.8-3,3c-0.7-0.3-1.3-0.7-2-1c1-1.7,2-3.3,3-5
	c-2.3,0-4.6,0-7,0C581.6,335,581.6,334.7,581.6,334.3z"/>
<path class="st100" d="M442.6,493.3c0.3,1.3,0.7,2.6,1,4c-2.4,1.1-2.4,1.1-5,2c-0.7-0.3-1.3-0.7-2-1
	C438.6,496.7,440.6,495,442.6,493.3z"/>
<path class="st101" d="M518.6,361.3c0.7,0.3,1.3,0.7,2,1c-2.4,3.9-4.6,4.8-9,6C513.8,365.4,515.5,363.4,518.6,361.3z"/>
<path class="st103" d="M583.6,701.3c0.7,0,1.3,0,2,0c0,0.7,0,1.3,0,2c1,0.3,2,0.7,3,1c0,0.7,0,1.3,0,2c-1,0.3-2,0.7-3,1
	c-0.7-0.7-1.3-1.3-2-2C583.6,704,583.6,702.7,583.6,701.3z"/>
<path class="st104" d="M453.6,643.3c0.3,0.7,0.7,1.3,1,2c-1.4,2-1.4,2-3,4c-0.7,0-1.3,0-2,0c-0.3,1-0.7,2-1,3c-0.3-0.7-0.7-1.3-1-2
	C449.6,648,451.6,645.7,453.6,643.3z"/>
<path class="st105" d="M586.6,193.3c2,3,2,3,2,5c0.7,0,1.3,0,2,0c0.7,1.7,1.3,3.3,2,5c-3-1-3-1-4.7-3.3
	C586.6,197.3,586.6,197.3,586.6,193.3z"/>
<path class="st106" d="M489.6,418.3c0,1,0,2,0,3c-3,2.2-3,2.2-6,4c-0.7-0.3-1.3-0.7-2-1C484.2,422.4,486.9,420.4,489.6,418.3z"/>
<path class="st107" d="M555.6,385.3c2.4,0.7,2.4,0.7,5,2c0.8,2.6,0.8,2.6,1,5C556.7,387.6,556.7,387.6,555.6,385.3z"/>
</svg>
