<?xml version="1.0" encoding="utf-8"?>
<!-- Generator: Adobe Illustrator 27.9.0, SVG Export Plug-In . SVG Version: 6.00 Build 0)  -->
<svg version="1.1" id="圖層_1" xmlns="http://www.w3.org/2000/svg" xmlns:xlink="http://www.w3.org/1999/xlink" x="0px" y="0px"
	 viewBox="0 0 228.61 253.29" style="enable-background:new 0 0 228.61 253.29;" xml:space="preserve">
<style type="text/css">
	.st0{fill:#7DA5F0;}
	.st1{fill:#825FFF;}
	.st2{fill:#E64B41;}
	.st3{fill:#FF7D00;}
	.st4{fill:#87C864;}
</style>
<g>
	<g>
		<circle class="st0" cx="112.79" cy="16.73" r="6.63"/>
		<g>
			<g>
				<path class="st0" d="M114.31,33.04c-23.88,0-44.46-10.2-53.93-24.92c9.47,20.3,30.05,34.37,53.93,34.37s44.46-14.07,53.93-34.37
					C158.77,22.84,138.19,33.04,114.31,33.04z"/>
			</g>
		</g>
		<circle class="st1" cx="53.76" cy="58.9" r="6.63"/>
		<g>
			<g>
				<path class="st1" d="M70.72,65.39c-7.38,22.71-23.44,39.13-40.37,43.59c22.23-2.73,41.98-17.96,49.36-40.66
					S80.07,21.68,63.69,6.4C74.76,19.96,78.1,42.68,70.72,65.39z"/>
			</g>
		</g>
		<circle class="st2" cx="77.15" cy="127.82" r="6.63"/>
		<g>
			<g>
				<path class="st2" d="M87.28,116.67c19.32,14.03,29.97,34.39,28.98,51.86c4.27-21.99-4.11-45.47-23.42-59.51
					S48.6,94.28,29,105.13C45.32,98.79,67.96,102.63,87.28,116.67z"/>
			</g>
		</g>
		<circle class="st3" cx="152.15" cy="128.97" r="6.63"/>
		<g>
			<g>
				<path class="st3" d="M141.33,116.67c19.32-14.03,41.96-17.88,58.27-11.54c-19.59-10.86-44.51-10.15-63.83,3.89
					s-27.69,37.52-23.42,59.51C111.36,151.05,122.01,130.7,141.33,116.67z"/>
			</g>
		</g>
		<circle class="st4" cx="174.28" cy="58.9" r="6.63"/>
		<g>
			<g>
				<path class="st4" d="M159.24,65.39c-7.38-22.71-4.03-45.43,7.04-58.99c-16.38,15.28-23.41,39.2-16.03,61.91
					c7.38,22.71,27.12,37.93,49.36,40.66C182.68,104.52,166.62,88.1,159.24,65.39z"/>
			</g>
		</g>
	</g>
	<g>
		<g>
			<path d="M16.95,211.86h7.91c9.09,0,14.46,4.02,14.46,12.06c0,8.05-5.37,12.26-14.19,12.26h-8.18V211.86z M24.52,232.68
				c5.97,0,9.4-2.78,9.4-8.76s-3.43-8.57-9.4-8.57h-2.3v17.33H24.52z"/>
			<path d="M43.79,227.06c0-5.93,5.03-9.59,10.27-9.59c6.02,0,9.2,3.57,9.2,8.67c0,0.82-0.11,1.64-0.23,2.08H48.89
				c0.44,3.24,2.98,5.09,6.57,5.09c1.91,0,3.54-0.49,5.17-1.32l1.78,2.66c-2.12,1.17-4.81,1.98-7.64,1.98
				C48.62,236.63,43.79,233.09,43.79,227.06z M58.74,225.31c0-2.81-1.52-4.52-4.57-4.52c-2.59,0-4.88,1.59-5.33,4.52H58.74z"/>
			<path d="M67.09,233.06l3.07-2.96c2.12,1.66,4.97,2.77,7.73,2.77c3.34,0,5.17-1.24,5.17-3.14c0-2-1.91-2.64-4.61-3.58l-4.06-1.44
				c-2.92-1-6-2.89-6-6.45c0-3.88,4.17-6.86,9.96-6.86c3.47,0,6.82,1.17,9.15,3.1l-2.7,2.74c-1.89-1.32-3.9-2.09-6.44-2.09
				c-2.81,0-4.65,1.08-4.65,2.86c0,1.91,2.26,2.62,4.72,3.44l4,1.38c3.53,1.2,6,3.03,6,6.56c0,3.94-3.99,7.23-10.65,7.23
				C73.77,236.63,69.91,235.33,67.09,233.06z"/>
			<path d="M92.34,227.06c0-6.08,5.24-9.59,11.18-9.59c2.83,0,4.9,0.89,6.51,2.05l-2.54,2.78c-1.18-0.85-2.3-1.34-3.7-1.34
				c-3.59,0-6.08,2.44-6.08,6.1s2.45,6.07,5.92,6.07c1.74,0,3.34-0.7,4.61-1.58l2.12,2.83c-2.09,1.52-4.74,2.25-7.28,2.25
				C97,236.63,92.34,233.11,92.34,227.06z"/>
			<path d="M114.58,212.29c0-1.44,1.38-2.42,3.23-2.42c1.85,0,3.23,0.98,3.23,2.42c0,1.41-1.38,2.42-3.23,2.42
				C115.95,214.72,114.58,213.7,114.58,212.29z M115.17,217.91h5.23v18.27h-5.23V217.91z"/>
			<path d="M143.21,211.86h6.17l9.67,24.32h-5.57l-4.52-12.94c-0.94-2.57-1.81-5.35-2.69-8.02h-0.18c-0.82,2.69-1.69,5.44-2.63,8.02
				l-4.55,12.94h-5.37L143.21,211.86z M139.26,226.21h13.97v3.38h-13.97V226.21z"/>
			<path d="M160.46,234.08l2.43-2.72c1.98,1.26,3.89,2.04,6.15,2.04c2.43,0,3.58-0.94,3.58-2.19c0-1.53-2.41-2.22-4.79-2.96
				c-2.92-0.9-6.26-2.28-6.26-5.33c0-3.17,3.12-5.46,8.11-5.46c3.1,0,5.59,1.03,7.4,2.19l-2.4,2.63c-1.56-0.94-3.13-1.59-4.88-1.59
				c-2.24,0-3.3,0.88-3.3,2.02c0,1.44,2.25,1.99,4.66,2.72c3.01,0.92,6.39,2.11,6.39,5.52c0,3.14-3.03,5.67-8.66,5.67
				C165.85,236.63,162.64,235.55,160.46,234.08z"/>
			<path d="M182.04,212.29c0-1.44,1.38-2.42,3.23-2.42c1.85,0,3.23,0.98,3.23,2.42c0,1.41-1.38,2.42-3.23,2.42
				C183.42,214.72,182.04,213.7,182.04,212.29z M182.64,217.91h5.23v18.27h-5.23V217.91z"/>
			<path d="M193.74,231.27c0-3.91,3.96-5.95,13.1-6.75c-0.07-1.96-1.03-3.6-4.05-3.6c-2.21,0-4.3,0.82-6.26,1.8l-1.92-2.86
				c2.45-1.26,5.61-2.39,9.15-2.39c5.57,0,8.31,2.81,8.31,7.9v10.81h-4.28l-0.4-2.02h-0.15c-2,1.4-4.28,2.47-6.91,2.47
				C196.42,236.63,193.74,234.45,193.74,231.27z M206.84,231.29v-4.11c-6.04,0.62-8.06,1.92-8.06,3.76c0,1.61,1.34,2.32,3.21,2.32
				C203.81,233.26,205.19,232.53,206.84,231.29z"/>
		</g>
	</g>
</g>
</svg>
