<svg width="716" height="33" viewBox="0 0 716 33" fill="none" xmlns="http://www.w3.org/2000/svg">
<path d="M15.4922 23.3867C15.875 23.4505 16.1621 23.4824 16.3535 23.4824C16.5449 23.4824 16.7318 23.4642 16.9141 23.4277C17.1055 23.3822 17.2741 23.3138 17.4199 23.2227C17.748 23.0221 17.9121 22.7077 17.9121 22.2793C17.9121 21.9238 17.8027 21.5273 17.584 21.0898L16.2988 17.9043H7.64453L6.11328 21.7871C5.96745 22.1426 5.89453 22.4023 5.89453 22.5664C5.89453 22.7214 5.91732 22.8398 5.96289 22.9219C6.01758 22.9948 6.09505 23.0586 6.19531 23.1133C6.30469 23.168 6.43685 23.2135 6.5918 23.25L7.15234 23.4004C7.75391 23.5007 8.14128 23.5918 8.31445 23.6738C8.66992 23.847 8.84766 24.1022 8.84766 24.4395C8.84766 24.6855 8.7793 24.8952 8.64258 25.0684C8.4694 25.0228 8.3099 25 8.16406 25H2.59961C1.38737 25 0.78125 24.6673 0.78125 24.002C0.78125 23.6921 0.849609 23.4414 0.986328 23.25C1.32357 23.3411 1.60612 23.3867 1.83398 23.3867C2.07096 23.3867 2.26693 23.3503 2.42188 23.2773C2.58594 23.2044 2.74089 23.0814 2.88672 22.9082C3.13281 22.6074 3.41992 22.0059 3.74805 21.1035L10.502 4.75195C10.6934 4.31445 11.2357 4.01367 12.1289 3.84961C12.375 3.80404 12.6348 3.78125 12.9082 3.78125C13.4642 3.78125 13.806 3.93164 13.9336 4.23242L15.3008 7.65039C17.9349 13.8665 19.457 17.4941 19.8672 18.5332L21.0977 21.7598C21.3438 22.4616 21.5488 22.8945 21.7129 23.0586C21.877 23.2227 22.0547 23.3366 22.2461 23.4004C22.4375 23.4642 22.6335 23.5189 22.834 23.5645C23.0436 23.6009 23.2259 23.651 23.3809 23.7148C23.7272 23.8698 23.9004 24.1068 23.9004 24.4258C23.9004 24.6719 23.832 24.8815 23.6953 25.0547C23.5221 25.0091 23.3672 24.9863 23.2305 24.9863H16.709C16.2441 24.9863 15.8796 24.9316 15.6152 24.8223C15.36 24.7038 15.2324 24.526 15.2324 24.2891C15.2324 23.8789 15.319 23.5781 15.4922 23.3867ZM15.5059 15.9629L11.9238 7.10352L8.41016 15.9629H15.5059ZM33.6895 25.1094C33.4798 25.0365 33.0286 25 32.3359 25H26.6348C26.1608 25 25.7826 24.9271 25.5 24.7812C25.2174 24.6263 25.0762 24.3483 25.0762 23.9473C25.0762 23.6556 25.1445 23.4232 25.2812 23.25C25.6458 23.3411 25.9785 23.3867 26.2793 23.3867C26.5892 23.3867 26.8307 23.3548 27.0039 23.291C27.1862 23.2272 27.3411 23.1133 27.4688 22.9492C27.7513 22.6029 27.9017 22.0332 27.9199 21.2402V7.26758C27.9199 6.54753 27.7194 6.09635 27.3184 5.91406C27.1908 5.85026 27.0176 5.79557 26.7988 5.75C26.5801 5.70443 26.3613 5.65885 26.1426 5.61328C25.9329 5.55859 25.7552 5.49479 25.6094 5.42188C25.3177 5.27604 25.1719 5.02995 25.1719 4.68359C25.1719 4.34635 25.2402 4.0957 25.377 3.93164C25.5866 4.00456 26.0378 4.04102 26.7305 4.04102H32.2949C32.7689 4.04102 33.1471 4.11849 33.4297 4.27344C33.7214 4.41927 33.8672 4.69271 33.8672 5.09375C33.8672 5.39453 33.7943 5.62695 33.6484 5.79102C33.3021 5.69987 32.9238 5.6543 32.5137 5.6543C31.6296 5.6543 31.1738 6.37435 31.1465 7.81445V21.7734C31.1465 22.4935 31.347 22.9492 31.748 23.1406C31.8757 23.1953 32.0488 23.2454 32.2676 23.291C32.4863 23.3366 32.7005 23.3867 32.9102 23.4414C33.1289 23.487 33.3112 23.5462 33.457 23.6191C33.7578 23.7741 33.9082 24.0202 33.9082 24.3574C33.9082 24.6764 33.8353 24.9271 33.6895 25.1094ZM47.0059 13.3926C47.1243 13.6296 47.1836 13.8939 47.1836 14.1855C47.1836 14.4681 47.1654 14.7051 47.1289 14.8965C47.1016 15.0879 47.056 15.2565 46.9922 15.4023C46.8281 15.7487 46.6185 15.9219 46.3633 15.9219H37.4629C37.3626 15.6484 37.3125 15.3796 37.3125 15.1152C37.3125 14.8418 37.3262 14.6094 37.3535 14.418C37.39 14.2266 37.4401 14.0534 37.5039 13.8984C37.668 13.5612 37.8594 13.3926 38.0781 13.3926H47.0059ZM59.2012 25.1367L55.3047 24.9863H51.7773C51.3034 24.9863 50.9069 24.9089 50.5879 24.7539C50.2689 24.5898 50.1094 24.3893 50.1094 24.1523C50.1094 23.7148 50.1777 23.4095 50.3145 23.2363C50.6426 23.3275 50.9753 23.373 51.3125 23.373C51.6497 23.373 51.9323 23.3503 52.1602 23.3047C52.3971 23.2591 52.6068 23.1634 52.7891 23.0176C53.2083 22.6895 53.418 22.1198 53.418 21.3086V7.37695C53.418 6.5293 52.8893 6.00065 51.832 5.79102C51.1758 5.6543 50.7474 5.50846 50.5469 5.35352C50.3555 5.18945 50.2598 5.01172 50.2598 4.82031C50.2598 4.40104 50.3327 4.11849 50.4785 3.97266C50.6426 4.01823 50.793 4.04102 50.9297 4.04102C50.9297 4.04102 52.3105 4.04102 55.0723 4.04102C55.2819 4.04102 55.5599 4.0319 55.9062 4.01367C55.9062 4.01367 56.2936 3.99089 57.0684 3.94531C58.2077 3.89062 59.3743 3.86328 60.5684 3.86328C61.7715 3.86328 62.9382 4.00911 64.0684 4.30078C65.1986 4.58333 66.1738 4.9707 66.9941 5.46289C67.8236 5.95508 68.5117 6.5293 69.0586 7.18555C69.6146 7.83268 70.0612 8.52083 70.3984 9.25C71 10.5898 71.3008 12.0938 71.3008 13.7617C71.3008 16.7878 70.5169 19.3034 68.9492 21.3086C67.7188 22.8854 65.9095 23.9974 63.5215 24.6445C62.2819 24.9727 60.8418 25.1367 59.2012 25.1367ZM56.6445 21.7051C56.6445 22.3887 56.8587 22.8307 57.2871 23.0312C57.6517 23.1953 58.5221 23.2773 59.8984 23.2773C61.2839 23.2773 62.5143 23.0495 63.5898 22.5938C64.6654 22.138 65.5221 21.5228 66.1602 20.748C67.3086 19.3535 67.8828 17.3893 67.8828 14.8555C67.8828 10.5078 66.347 7.66862 63.2754 6.33789C62.1634 5.85482 60.7917 5.61328 59.1602 5.61328C58.0755 5.61328 57.4147 5.72266 57.1777 5.94141C56.9408 6.15104 56.7904 6.41536 56.7266 6.73438C56.6719 7.04427 56.6445 7.46354 56.6445 7.99219V21.7051ZM81.7324 25.0684C81.541 25.0228 81.2493 25 80.8574 25H76.2227C75.3477 25 74.7871 24.8451 74.541 24.5352C74.4408 24.4167 74.3906 24.2799 74.3906 24.125C74.3906 23.7422 74.4635 23.4596 74.6094 23.2773C74.8281 23.3503 75.0286 23.3867 75.2109 23.3867C75.4023 23.3867 75.5618 23.3639 75.6895 23.3184C75.8171 23.2637 75.9173 23.1771 75.9902 23.0586C76.1178 22.8398 76.1816 22.4115 76.1816 21.7734V12.832C76.1816 11.9753 76.0221 11.4421 75.7031 11.2324C75.5755 11.1504 75.4069 11.1094 75.1973 11.1094C74.9876 11.1094 74.819 11.1413 74.6914 11.2051C74.5729 11.2689 74.4727 11.3145 74.3906 11.3418C74.3177 11.3691 74.2539 11.3691 74.1992 11.3418C74.1445 11.3053 74.0898 11.2552 74.0352 11.1914C73.8984 11.0273 73.8301 10.8724 73.8301 10.7266C73.8301 10.5716 73.8848 10.4076 73.9941 10.2344C74.1126 10.0521 74.2995 9.84701 74.5547 9.61914C74.8099 9.38216 75.1016 9.16797 75.4297 8.97656C76.168 8.54818 76.9062 8.33398 77.6445 8.33398C78.4831 8.33398 78.9798 8.88086 79.1348 9.97461C79.1803 10.2936 79.2077 10.6263 79.2168 10.9727C80.5475 9.79688 81.9193 8.99023 83.332 8.55273C83.806 8.4069 84.2344 8.33398 84.6172 8.33398C85.0091 8.33398 85.3281 8.38867 85.5742 8.49805C85.8294 8.60742 86.0299 8.75781 86.1758 8.94922C86.4492 9.32292 86.5859 9.80143 86.5859 10.3848C86.5859 10.9681 86.5586 11.4329 86.5039 11.7793C86.4492 12.1257 86.3809 12.431 86.2988 12.6953C86.1348 13.2331 85.9798 13.5749 85.834 13.7207C85.5788 13.985 85.237 14.1172 84.8086 14.1172C84.3711 14.1172 84.1523 13.9896 84.1523 13.7344C84.1523 12.7591 84.1113 12.1348 84.0293 11.8613C83.8743 11.36 83.5827 11.1094 83.1543 11.1094C82.7259 11.1094 82.3385 11.1595 81.9922 11.2598C81.6458 11.3509 81.3086 11.4785 80.9805 11.6426C80.3151 11.9707 79.7318 12.3945 79.2305 12.9141V22.0059C79.2578 22.7259 79.5723 23.1634 80.1738 23.3184C80.347 23.3639 80.543 23.4049 80.7617 23.4414C80.9805 23.4779 81.1673 23.5234 81.3223 23.5781C81.4863 23.6237 81.6139 23.6784 81.7051 23.7422C81.86 23.8607 81.9375 24.0521 81.9375 24.3164C81.9375 24.6445 81.8691 24.8952 81.7324 25.0684ZM91.7402 5.79102C91.4303 5.79102 91.1432 5.74544 90.8789 5.6543C90.6237 5.55404 90.4004 5.41276 90.209 5.23047C89.8079 4.84766 89.6074 4.33268 89.6074 3.68555C89.6074 3.06576 89.8444 2.54167 90.3184 2.11328C90.7741 1.6849 91.321 1.4707 91.959 1.4707C92.597 1.4707 93.1074 1.66211 93.4902 2.04492C93.873 2.42773 94.0645 2.94727 94.0645 3.60352C94.0645 4.22331 93.8366 4.7474 93.3809 5.17578C92.9342 5.58594 92.3874 5.79102 91.7402 5.79102ZM90.9062 25C89.5026 25 88.8008 24.681 88.8008 24.043C88.8008 23.7148 88.8737 23.4596 89.0195 23.2773C89.2383 23.3503 89.4388 23.3867 89.6211 23.3867C90.4688 23.3867 90.8835 22.849 90.8652 21.7734V12.6133C90.8652 11.9753 90.7741 11.5332 90.5918 11.2871C90.4186 11.0319 90.1042 10.9043 89.6484 10.9043C89.3112 10.9043 89.0059 10.9453 88.7324 11.0273C88.5684 11.0456 88.4499 10.918 88.377 10.6445C88.3132 10.3984 88.3496 10.1842 88.4863 10.002C88.623 9.81055 88.8327 9.61458 89.1152 9.41406C89.4069 9.20443 89.7259 9.02214 90.0723 8.86719C90.8197 8.51172 91.444 8.33398 91.9453 8.33398C92.4466 8.33398 92.8158 8.4069 93.0527 8.55273C93.2988 8.69857 93.4857 8.89453 93.6133 9.14062C93.8138 9.54167 93.9141 10.1888 93.9141 11.082V22.0059C93.9414 22.7259 94.2012 23.1634 94.6934 23.3184C94.8301 23.3639 94.9987 23.4049 95.1992 23.4414C95.3997 23.4779 95.5775 23.5234 95.7324 23.5781C95.8965 23.6237 96.0241 23.6784 96.1152 23.7422C96.2702 23.8607 96.3477 24.0521 96.3477 24.3164C96.3477 24.6445 96.2793 24.8952 96.1426 25.0684C95.9512 25.0228 95.6595 25 95.2676 25H90.9062ZM103.416 24.3301C100.372 16.3822 98.804 12.2806 98.7129 12.0254C98.6217 11.7611 98.526 11.5195 98.4258 11.3008C98.1979 10.7904 97.9928 10.5352 97.8105 10.5352C97.6921 10.5352 97.5599 10.5488 97.4141 10.5762C97.2682 10.6035 97.1497 10.5534 97.0586 10.4258C96.9674 10.2982 96.9219 10.1387 96.9219 9.94727C96.9219 9.75586 97.0085 9.5599 97.1816 9.35938C97.3639 9.15885 97.5872 8.98568 97.8516 8.83984C98.4258 8.5026 98.8815 8.33398 99.2188 8.33398C99.556 8.33398 99.8249 8.3431 100.025 8.36133C100.226 8.37956 100.413 8.44792 100.586 8.56641C100.951 8.80339 101.256 9.3138 101.502 10.0977L105.508 22.0469C106.146 20.7617 106.62 19.7773 106.93 19.0938L107.777 17.0977C108.798 14.582 109.309 12.8138 109.309 11.793V11.6152C109.309 11.1595 109.204 10.7995 108.994 10.5352C108.794 10.2708 108.434 10.1113 107.914 10.0566C107.823 9.91081 107.777 9.76042 107.777 9.60547C107.777 9.44141 107.864 9.2819 108.037 9.12695C108.219 8.96289 108.447 8.82161 108.721 8.70312C109.286 8.45703 109.901 8.33398 110.566 8.33398C111.241 8.33398 111.76 8.4388 112.125 8.64844C112.499 8.84896 112.686 9.25 112.686 9.85156C112.686 11.1276 111.82 13.666 110.088 17.4668L108.844 20.0781C107.987 21.8099 107.34 22.9857 106.902 23.6055C106.118 24.7083 105.43 25.2598 104.838 25.2598C104.41 25.2598 104.027 25.0911 103.689 24.7539C103.571 24.6354 103.48 24.4941 103.416 24.3301ZM115.215 17.6445C115.215 16.5417 115.329 15.5618 115.557 14.7051C115.785 13.8483 116.09 13.0827 116.473 12.4082C116.865 11.7246 117.32 11.1276 117.84 10.6172C118.368 10.1068 118.934 9.68294 119.535 9.3457C120.72 8.67122 121.887 8.33398 123.035 8.33398C124.184 8.33398 125.104 8.53906 125.797 8.94922C126.49 9.35026 127.055 9.88802 127.492 10.5625C128.303 11.8477 128.709 13.5566 128.709 15.6895C128.709 16.4824 128.376 16.888 127.711 16.9062L118.168 17.1113C118.223 19.0892 118.733 20.5521 119.699 21.5C120.52 22.3021 121.581 22.7031 122.885 22.7031C124.826 22.7031 126.403 22.2975 127.615 21.4863C127.697 21.4863 127.798 21.5547 127.916 21.6914C128.144 21.9648 128.258 22.2018 128.258 22.4023C128.258 22.8398 127.711 23.4004 126.617 24.084C125.359 24.8678 123.892 25.2598 122.215 25.2598C120.027 25.2598 118.309 24.5625 117.061 23.168C115.83 21.8008 115.215 19.9596 115.215 17.6445ZM118.25 15.3477C120.875 15.2201 123.277 15.0514 125.455 14.8418C125.555 11.9434 124.553 10.4941 122.447 10.4941C121.271 10.4941 120.31 10.9499 119.562 11.8613C118.879 12.6999 118.441 13.862 118.25 15.3477ZM139.113 25.0684C138.931 25.0228 138.639 25 138.238 25H133.877C133.002 25 132.441 24.8451 132.195 24.5352C132.095 24.4167 132.045 24.2799 132.045 24.125C132.045 23.7422 132.118 23.4596 132.264 23.2773C132.482 23.3503 132.729 23.3867 133.002 23.3867C133.285 23.3867 133.494 23.2728 133.631 23.0449C133.777 22.8171 133.845 22.3932 133.836 21.7734V12.832C133.836 11.9753 133.676 11.4421 133.357 11.2324C133.23 11.1504 133.061 11.1094 132.852 11.1094C132.642 11.1094 132.473 11.1413 132.346 11.2051C132.227 11.2689 132.127 11.3145 132.045 11.3418C131.972 11.3691 131.908 11.3691 131.854 11.3418C131.799 11.3053 131.744 11.2552 131.689 11.1914C131.553 11.0456 131.484 10.8952 131.484 10.7402C131.484 10.5762 131.539 10.4076 131.648 10.2344C131.767 10.0521 131.954 9.84701 132.209 9.61914C132.464 9.38216 132.756 9.16797 133.084 8.97656C133.822 8.54818 134.561 8.33398 135.299 8.33398C136.146 8.33398 136.648 8.89453 136.803 10.0156C136.848 10.3438 136.876 10.681 136.885 11.0273C138.243 9.88802 139.719 9.07682 141.314 8.59375C141.889 8.42057 142.467 8.33398 143.051 8.33398C143.643 8.33398 144.204 8.41146 144.732 8.56641C145.27 8.72135 145.735 8.97201 146.127 9.31836C146.956 10.0475 147.371 11.1868 147.371 12.7363V22.0059C147.398 22.7168 147.663 23.1543 148.164 23.3184C148.301 23.3639 148.469 23.4049 148.67 23.4414C148.87 23.4779 149.048 23.5234 149.203 23.5781C149.367 23.6237 149.495 23.6784 149.586 23.7422C149.741 23.8607 149.818 24.0521 149.818 24.3164C149.818 24.6354 149.745 24.8861 149.6 25.0684C149.417 25.0228 149.126 25 148.725 25H144.363C143.488 25 142.928 24.8451 142.682 24.5352C142.581 24.4167 142.531 24.2799 142.531 24.125C142.531 23.7422 142.604 23.4596 142.75 23.2773C142.969 23.3503 143.169 23.3867 143.352 23.3867C143.543 23.3867 143.702 23.3639 143.83 23.3184C143.958 23.2637 144.058 23.1771 144.131 23.0586C144.258 22.8398 144.322 22.4115 144.322 21.7734V13.707C144.322 12.1576 143.862 11.2917 142.941 11.1094C142.659 11.0547 142.303 11.0273 141.875 11.0273C141.456 11.0273 140.991 11.0911 140.48 11.2188C139.97 11.3464 139.492 11.5104 139.045 11.7109C138.188 12.0938 137.468 12.5768 136.885 13.1602V22.0059C136.912 22.7168 137.172 23.1543 137.664 23.3184C137.81 23.3639 137.979 23.4049 138.17 23.4414C138.37 23.4779 138.553 23.5234 138.717 23.5781C138.881 23.6237 139.008 23.6784 139.1 23.7422C139.255 23.8607 139.332 24.0521 139.332 24.3164C139.332 24.6354 139.259 24.8861 139.113 25.0684ZM173.525 9.81055C173.525 7.72331 172.783 6.41536 171.297 5.88672C170.786 5.70443 170.189 5.61328 169.506 5.61328C168.822 5.61328 168.234 5.69076 167.742 5.8457C167.25 6.00065 166.84 6.21029 166.512 6.47461C165.846 7.01237 165.514 7.72331 165.514 8.60742C165.514 9.94727 166.498 11.0911 168.467 12.0391L170.176 12.8457C171.005 13.2285 171.803 13.6204 172.568 14.0215C173.343 14.4134 174.027 14.8646 174.619 15.375C175.923 16.487 176.574 17.8633 176.574 19.5039C176.574 21.263 175.809 22.6803 174.277 23.7559C172.846 24.7585 171.051 25.2598 168.891 25.2598C167.177 25.2598 165.664 24.9909 164.352 24.4531C163.385 24.0703 162.697 23.528 162.287 22.8262C162.077 22.4707 161.973 22.0378 161.973 21.5273C161.973 20.5065 162.228 19.554 162.738 18.6699C162.911 18.4603 163.148 18.3555 163.449 18.3555C164.033 18.3555 164.37 18.5286 164.461 18.875C164.579 20.4518 165.062 21.6003 165.91 22.3203C166.767 23.0404 167.961 23.4004 169.492 23.4004C171.251 23.4004 172.432 22.8262 173.033 21.6777C173.243 21.2767 173.348 20.8073 173.348 20.2695C173.348 19.7227 173.202 19.235 172.91 18.8066C172.618 18.3783 172.231 17.9818 171.748 17.6172C171.01 17.0703 170.03 16.5417 168.809 16.0312C167.596 15.5208 166.648 15.0742 165.965 14.6914C165.29 14.3086 164.693 13.862 164.174 13.3516C163.044 12.2396 162.479 10.8678 162.479 9.23633C162.479 7.56836 163.194 6.23307 164.625 5.23047C166.001 4.26432 167.779 3.78125 169.957 3.78125C172.719 3.78125 174.523 4.35091 175.371 5.49023C175.681 5.90039 175.836 6.43815 175.836 7.10352C175.836 7.76888 175.772 8.34766 175.645 8.83984C175.526 9.33203 175.408 9.65104 175.289 9.79688C175.089 10.043 174.742 10.166 174.25 10.166C173.767 10.166 173.525 10.0475 173.525 9.81055ZM187.156 25.0684C186.974 25.0228 186.682 25 186.281 25H181.92C181.045 25 180.484 24.8451 180.238 24.5352C180.138 24.4167 180.088 24.2799 180.088 24.125C180.088 23.7422 180.161 23.4596 180.307 23.2773C180.525 23.3503 180.771 23.3867 181.045 23.3867C181.327 23.3867 181.537 23.2728 181.674 23.0449C181.82 22.8171 181.888 22.3932 181.879 21.7734V12.832C181.879 11.9753 181.719 11.4421 181.4 11.2324C181.273 11.1504 181.104 11.1094 180.895 11.1094C180.685 11.1094 180.516 11.1413 180.389 11.2051C180.27 11.2689 180.17 11.3145 180.088 11.3418C180.015 11.3691 179.951 11.3691 179.896 11.3418C179.842 11.3053 179.787 11.2552 179.732 11.1914C179.596 11.0456 179.527 10.8952 179.527 10.7402C179.527 10.5762 179.582 10.4076 179.691 10.2344C179.81 10.0521 179.997 9.84701 180.252 9.61914C180.507 9.38216 180.799 9.16797 181.127 8.97656C181.865 8.54818 182.604 8.33398 183.342 8.33398C184.153 8.33398 184.641 8.84896 184.805 9.87891C184.859 10.1888 184.896 10.5078 184.914 10.8359C186.281 9.7513 187.712 8.99479 189.207 8.56641C189.754 8.41146 190.283 8.33398 190.793 8.33398C192.962 8.33398 194.334 9.19076 194.908 10.9043C196.33 9.77409 197.775 8.99479 199.242 8.56641C199.798 8.41146 200.363 8.33398 200.938 8.33398C201.512 8.33398 202.063 8.41146 202.592 8.56641C203.13 8.72135 203.59 8.97201 203.973 9.31836C204.811 10.0658 205.23 11.2051 205.23 12.7363V21.9102C205.23 22.6576 205.486 23.1224 205.996 23.3047C206.142 23.3594 206.315 23.4049 206.516 23.4414C206.716 23.4779 206.898 23.5234 207.062 23.5781C207.227 23.6237 207.354 23.6784 207.445 23.7422C207.6 23.8607 207.678 24.0521 207.678 24.3164C207.678 24.6354 207.605 24.8861 207.459 25.0684C207.277 25.0228 206.985 25 206.584 25H202.223C201.348 25 200.787 24.8451 200.541 24.5352C200.441 24.4167 200.391 24.2799 200.391 24.125C200.391 23.7422 200.464 23.4596 200.609 23.2773C200.828 23.3503 201.07 23.3867 201.334 23.3867C201.598 23.3867 201.799 23.3001 201.936 23.127C202.081 22.9447 202.163 22.612 202.182 22.1289V13.707C202.182 12.1576 201.721 11.2917 200.801 11.1094C200.518 11.0547 200.181 11.0273 199.789 11.0273C199.406 11.0273 198.987 11.0775 198.531 11.1777C198.085 11.2689 197.656 11.3965 197.246 11.5605C196.453 11.8796 195.76 12.2852 195.168 12.7773V21.9102C195.168 22.6667 195.423 23.1315 195.934 23.3047C196.079 23.3594 196.253 23.4049 196.453 23.4414C196.654 23.4779 196.831 23.5234 196.986 23.5781C197.15 23.6237 197.278 23.6784 197.369 23.7422C197.524 23.8607 197.602 24.0521 197.602 24.3164C197.602 24.6445 197.533 24.8952 197.396 25.0684C197.214 25.0228 196.923 25 196.521 25H192.16C191.285 25 190.725 24.8451 190.479 24.5352C190.378 24.4167 190.328 24.2799 190.328 24.125C190.328 23.7331 190.396 23.4505 190.533 23.2773C190.761 23.3503 191.007 23.3867 191.271 23.3867C191.536 23.3867 191.736 23.291 191.873 23.0996C192.019 22.9082 192.101 22.5573 192.119 22.0469V13.707C192.119 12.1576 191.659 11.2917 190.738 11.1094C190.456 11.0547 190.114 11.0273 189.713 11.0273C189.312 11.0273 188.874 11.082 188.4 11.1914C187.926 11.3008 187.475 11.4466 187.047 11.6289C186.227 11.9661 185.52 12.3945 184.928 12.9141V21.9102C184.928 22.6576 185.188 23.1224 185.707 23.3047C185.844 23.3594 186.012 23.4049 186.213 23.4414C186.413 23.4779 186.596 23.5234 186.76 23.5781C186.924 23.6237 187.051 23.6784 187.143 23.7422C187.298 23.8607 187.375 24.0521 187.375 24.3164C187.375 24.6354 187.302 24.8861 187.156 25.0684ZM219.408 23.2637C218.077 24.5944 216.469 25.2598 214.582 25.2598C213.124 25.2598 211.957 24.8405 211.082 24.002C210.198 23.1543 209.756 22.056 209.756 20.707C209.756 19.0299 210.503 17.7721 211.998 16.9336C213.347 16.168 215.247 15.7852 217.699 15.7852H219.408C219.417 15.4388 219.422 15.1016 219.422 14.7734V13.748C219.422 12.5267 219.244 11.6654 218.889 11.1641C218.488 10.599 217.804 10.3164 216.838 10.3164C214.623 10.3164 213.484 11.1094 213.42 12.6953C213.411 12.9414 213.415 13.1465 213.434 13.3105C213.251 13.4564 212.941 13.5293 212.504 13.5293C212.076 13.5293 211.761 13.4792 211.561 13.3789C211.369 13.2786 211.201 13.1419 211.055 12.9688C210.745 12.6133 210.59 12.1621 210.59 11.6152C210.59 11.0592 210.749 10.5762 211.068 10.166C211.396 9.74674 211.839 9.40495 212.395 9.14062C213.479 8.60286 214.76 8.33398 216.236 8.33398C217.713 8.33398 218.82 8.47982 219.559 8.77148C220.306 9.05404 220.898 9.43229 221.336 9.90625C222.111 10.7448 222.498 11.8704 222.498 13.2832L222.361 19.8457C222.361 21.0397 222.416 21.7962 222.525 22.1152C222.644 22.4342 222.781 22.6484 222.936 22.7578C223.1 22.8672 223.296 22.9219 223.523 22.9219C223.76 22.9219 223.952 22.8854 224.098 22.8125L224.48 22.6348C224.608 22.5892 224.717 22.6439 224.809 22.7988C224.909 22.9447 224.959 23.0768 224.959 23.1953C224.959 23.3047 224.909 23.4505 224.809 23.6328C224.717 23.8151 224.54 24.0111 224.275 24.2207C224.02 24.4212 223.729 24.599 223.4 24.7539C221.587 25.6107 220.352 25.4102 219.695 24.1523C219.559 23.9062 219.463 23.61 219.408 23.2637ZM219.367 21.4727C219.367 20.1602 219.376 18.8568 219.395 17.5625C217.499 17.6354 216.209 17.7585 215.525 17.9316C214.851 18.0957 214.363 18.2552 214.062 18.4102C213.762 18.5651 213.525 18.7474 213.352 18.957C213.069 19.3034 212.928 19.8275 212.928 20.5293C212.928 21.222 213.174 21.778 213.666 22.1973C214.158 22.6074 214.865 22.8125 215.785 22.8125C217.089 22.8125 218.283 22.3659 219.367 21.4727ZM234.365 25.0684C234.174 25.0228 233.882 25 233.49 25H228.855C227.98 25 227.42 24.8451 227.174 24.5352C227.074 24.4167 227.023 24.2799 227.023 24.125C227.023 23.7422 227.096 23.4596 227.242 23.2773C227.461 23.3503 227.661 23.3867 227.844 23.3867C228.035 23.3867 228.195 23.3639 228.322 23.3184C228.45 23.2637 228.55 23.1771 228.623 23.0586C228.751 22.8398 228.814 22.4115 228.814 21.7734V12.832C228.814 11.9753 228.655 11.4421 228.336 11.2324C228.208 11.1504 228.04 11.1094 227.83 11.1094C227.62 11.1094 227.452 11.1413 227.324 11.2051C227.206 11.2689 227.105 11.3145 227.023 11.3418C226.951 11.3691 226.887 11.3691 226.832 11.3418C226.777 11.3053 226.723 11.2552 226.668 11.1914C226.531 11.0273 226.463 10.8724 226.463 10.7266C226.463 10.5716 226.518 10.4076 226.627 10.2344C226.745 10.0521 226.932 9.84701 227.188 9.61914C227.443 9.38216 227.734 9.16797 228.062 8.97656C228.801 8.54818 229.539 8.33398 230.277 8.33398C231.116 8.33398 231.613 8.88086 231.768 9.97461C231.813 10.2936 231.84 10.6263 231.85 10.9727C233.18 9.79688 234.552 8.99023 235.965 8.55273C236.439 8.4069 236.867 8.33398 237.25 8.33398C237.642 8.33398 237.961 8.38867 238.207 8.49805C238.462 8.60742 238.663 8.75781 238.809 8.94922C239.082 9.32292 239.219 9.80143 239.219 10.3848C239.219 10.9681 239.191 11.4329 239.137 11.7793C239.082 12.1257 239.014 12.431 238.932 12.6953C238.768 13.2331 238.613 13.5749 238.467 13.7207C238.212 13.985 237.87 14.1172 237.441 14.1172C237.004 14.1172 236.785 13.9896 236.785 13.7344C236.785 12.7591 236.744 12.1348 236.662 11.8613C236.507 11.36 236.215 11.1094 235.787 11.1094C235.359 11.1094 234.971 11.1595 234.625 11.2598C234.279 11.3509 233.941 11.4785 233.613 11.6426C232.948 11.9707 232.365 12.3945 231.863 12.9141V22.0059C231.891 22.7259 232.205 23.1634 232.807 23.3184C232.98 23.3639 233.176 23.4049 233.395 23.4414C233.613 23.4779 233.8 23.5234 233.955 23.5781C234.119 23.6237 234.247 23.6784 234.338 23.7422C234.493 23.8607 234.57 24.0521 234.57 24.3164C234.57 24.6445 234.502 24.8952 234.365 25.0684ZM245.891 15.6758L245.877 19.2715C245.877 20.7754 245.954 21.6823 246.109 21.9922C246.264 22.293 246.447 22.4753 246.656 22.5391C246.866 22.5938 247.135 22.6211 247.463 22.6211C247.791 22.6211 248.087 22.5983 248.352 22.5527C248.625 22.498 248.88 22.4297 249.117 22.3477C249.354 22.2656 249.582 22.1745 249.801 22.0742L250.471 21.7871C250.626 21.7324 250.799 21.8919 250.99 22.2656C251.045 22.3659 251.072 22.4844 251.072 22.6211C251.072 22.7487 251.018 22.9173 250.908 23.127C250.799 23.3366 250.585 23.5781 250.266 23.8516C249.956 24.1159 249.591 24.3529 249.172 24.5625C248.26 25.0273 247.44 25.2598 246.711 25.2598C245.991 25.2598 245.403 25.2188 244.947 25.1367C244.492 25.0547 244.104 24.8906 243.785 24.6445C243.129 24.1341 242.801 23.1999 242.801 21.8418V11.082H241.447C241.165 11.082 240.96 10.9909 240.832 10.8086C240.613 10.526 240.504 10.2891 240.504 10.0977C240.504 9.77865 240.581 9.60091 240.736 9.56445C242.186 9.31836 243.211 8.24284 243.812 6.33789C243.986 5.76367 244.122 5.08464 244.223 4.30078C244.66 4.22786 244.988 4.19141 245.207 4.19141C245.435 4.19141 245.631 4.30534 245.795 4.5332C245.959 4.76107 246.036 5.02539 246.027 5.32617C246.027 5.62695 246.023 5.90951 246.014 6.17383C246.005 6.43815 245.995 6.72526 245.986 7.03516L245.932 8.94922H250.662C250.781 9.15885 250.84 9.38216 250.84 9.61914V10.043C250.84 10.4258 250.635 10.7402 250.225 10.9863C249.814 11.2233 249.359 11.3418 248.857 11.3418C248.365 11.3418 248.01 11.3372 247.791 11.3281C247.581 11.3099 247.376 11.2917 247.176 11.2734L246.574 11.1914C246.365 11.1732 246.141 11.1549 245.904 11.1367V11.2871L245.891 15.6758ZM264.361 25C263.14 25 262.529 24.6628 262.529 23.9883C262.529 23.6875 262.602 23.446 262.748 23.2637C263.012 23.3366 263.281 23.373 263.555 23.373C263.828 23.373 264.061 23.3639 264.252 23.3457C264.443 23.3275 264.621 23.25 264.785 23.1133C265.122 22.8034 265.332 22.1152 265.414 21.0488L266.822 6.5293C266.84 6.30143 266.763 6.1237 266.59 5.99609C266.417 5.86849 266.202 5.77734 265.947 5.72266C265.692 5.66797 265.469 5.6224 265.277 5.58594C265.095 5.54948 264.936 5.49479 264.799 5.42188C264.516 5.28516 264.375 5.05273 264.375 4.72461C264.375 4.38737 264.439 4.13672 264.566 3.97266C264.74 4.01823 264.895 4.04102 265.031 4.04102H269.078C270.436 4.04102 271.27 4.3737 271.58 5.03906L276.666 16.9746L281.916 4.9707C282.089 4.56966 282.349 4.31445 282.695 4.20508C283.042 4.0957 283.484 4.04102 284.021 4.04102H286.674C287.904 4.04102 288.52 4.36458 288.52 5.01172C288.52 5.35807 288.451 5.60872 288.314 5.76367C287.95 5.66341 287.649 5.61328 287.412 5.61328C287.184 5.61328 286.979 5.63151 286.797 5.66797C286.615 5.70443 286.469 5.77279 286.359 5.87305C286.132 6.06445 286.045 6.44727 286.1 7.02148L287.576 21.9785C287.64 22.6165 287.982 23.0176 288.602 23.1816C288.775 23.2272 288.957 23.2819 289.148 23.3457L289.682 23.5234C290.019 23.6328 290.224 23.7786 290.297 23.9609C290.37 24.1341 290.406 24.3027 290.406 24.4668C290.406 24.6947 290.338 24.8952 290.201 25.0684C289.992 25.0228 289.777 25 289.559 25H283.324C282.212 25 281.656 24.6673 281.656 24.002C281.656 23.8926 281.688 23.7559 281.752 23.5918C281.816 23.4186 281.866 23.3092 281.902 23.2637C282.176 23.3366 282.426 23.373 282.654 23.373C282.891 23.373 283.133 23.3548 283.379 23.3184C283.634 23.2819 283.848 23.1953 284.021 23.0586C284.395 22.7487 284.555 22.1608 284.5 21.2949L283.611 9.56445L283.488 7.28125L277.199 21.2129C277.081 21.2858 276.898 21.3223 276.652 21.3223C276.406 21.3223 276.151 21.2357 275.887 21.0625C275.632 20.8802 275.399 20.6569 275.189 20.3926C274.852 19.9642 274.529 19.4173 274.219 18.752L269.133 6.83008L268.025 21.7188C267.989 22.2383 268.062 22.5892 268.244 22.7715C268.472 22.9993 268.773 23.1634 269.146 23.2637C269.52 23.3639 269.812 23.4414 270.021 23.4961C270.231 23.5417 270.413 23.6055 270.568 23.6875C270.906 23.8516 271.074 24.125 271.074 24.5078C271.074 24.6992 271.001 24.8861 270.855 25.0684C270.691 25.0228 270.536 25 270.391 25H264.361ZM292.348 17.6445C292.348 16.5417 292.462 15.5618 292.689 14.7051C292.917 13.8483 293.223 13.0827 293.605 12.4082C293.997 11.7246 294.453 11.1276 294.973 10.6172C295.501 10.1068 296.066 9.68294 296.668 9.3457C297.853 8.67122 299.02 8.33398 300.168 8.33398C301.316 8.33398 302.237 8.53906 302.93 8.94922C303.622 9.35026 304.188 9.88802 304.625 10.5625C305.436 11.8477 305.842 13.5566 305.842 15.6895C305.842 16.4824 305.509 16.888 304.844 16.9062L295.301 17.1113C295.355 19.0892 295.866 20.5521 296.832 21.5C297.652 22.3021 298.714 22.7031 300.018 22.7031C301.959 22.7031 303.536 22.2975 304.748 21.4863C304.83 21.4863 304.93 21.5547 305.049 21.6914C305.277 21.9648 305.391 22.2018 305.391 22.4023C305.391 22.8398 304.844 23.4004 303.75 24.084C302.492 24.8678 301.025 25.2598 299.348 25.2598C297.16 25.2598 295.442 24.5625 294.193 23.168C292.963 21.8008 292.348 19.9596 292.348 17.6445ZM295.383 15.3477C298.008 15.2201 300.41 15.0514 302.588 14.8418C302.688 11.9434 301.686 10.4941 299.58 10.4941C298.404 10.4941 297.443 10.9499 296.695 11.8613C296.012 12.6999 295.574 13.862 295.383 15.3477ZM319.979 23.291C318.566 24.6126 317.012 25.2734 315.316 25.2734C313.448 25.2734 311.926 24.6354 310.75 23.3594C309.474 21.9557 308.836 20.0189 308.836 17.5488C308.836 14.7689 309.72 12.5085 311.488 10.7676C313.138 9.14518 315.089 8.33398 317.34 8.33398C318.242 8.33398 319.108 8.48438 319.938 8.78516V4.83398C319.938 4.19596 319.874 3.79036 319.746 3.61719C319.536 3.32552 319.195 3.17969 318.721 3.17969C318.52 3.17969 318.32 3.20247 318.119 3.24805C317.928 3.28451 317.791 3.28451 317.709 3.24805C317.636 3.20247 317.577 3.14323 317.531 3.07031C317.349 2.76953 317.577 2.38672 318.215 1.92188C319.217 1.18359 320.206 0.814453 321.182 0.814453C322.212 0.814453 322.799 1.375 322.945 2.49609C322.982 2.83333 323 3.1888 323 3.5625V19.4355C323 20.8392 323.055 21.7142 323.164 22.0605C323.273 22.4069 323.401 22.6348 323.547 22.7441C323.702 22.8444 323.893 22.8945 324.121 22.8945C324.349 22.8945 324.536 22.8581 324.682 22.7852L325.092 22.6074C325.21 22.5801 325.315 22.6348 325.406 22.7715C325.598 23.054 325.625 23.3092 325.488 23.5371C325.352 23.765 325.146 23.9837 324.873 24.1934C324.6 24.403 324.294 24.5853 323.957 24.7402C322.48 25.4056 321.378 25.4193 320.648 24.7812C320.293 24.4714 320.07 23.9746 319.979 23.291ZM319.938 11.5605C319.044 10.877 318.005 10.5352 316.82 10.5352C315.398 10.5352 314.245 11.0592 313.361 12.1074C312.413 13.2285 311.939 14.7552 311.939 16.6875C311.939 19.7591 312.814 21.6549 314.564 22.375C315.111 22.5938 315.64 22.7031 316.15 22.7031C316.67 22.7031 317.103 22.6621 317.449 22.5801C317.796 22.498 318.119 22.3887 318.42 22.252C319.021 21.9785 319.527 21.6458 319.938 21.2539V11.5605ZM330.916 5.79102C330.606 5.79102 330.319 5.74544 330.055 5.6543C329.799 5.55404 329.576 5.41276 329.385 5.23047C328.984 4.84766 328.783 4.33268 328.783 3.68555C328.783 3.06576 329.02 2.54167 329.494 2.11328C329.95 1.6849 330.497 1.4707 331.135 1.4707C331.773 1.4707 332.283 1.66211 332.666 2.04492C333.049 2.42773 333.24 2.94727 333.24 3.60352C333.24 4.22331 333.012 4.7474 332.557 5.17578C332.11 5.58594 331.563 5.79102 330.916 5.79102ZM330.082 25C328.678 25 327.977 24.681 327.977 24.043C327.977 23.7148 328.049 23.4596 328.195 23.2773C328.414 23.3503 328.615 23.3867 328.797 23.3867C329.645 23.3867 330.059 22.849 330.041 21.7734V12.6133C330.041 11.9753 329.95 11.5332 329.768 11.2871C329.594 11.0319 329.28 10.9043 328.824 10.9043C328.487 10.9043 328.182 10.9453 327.908 11.0273C327.744 11.0456 327.626 10.918 327.553 10.6445C327.489 10.3984 327.525 10.1842 327.662 10.002C327.799 9.81055 328.008 9.61458 328.291 9.41406C328.583 9.20443 328.902 9.02214 329.248 8.86719C329.995 8.51172 330.62 8.33398 331.121 8.33398C331.622 8.33398 331.992 8.4069 332.229 8.55273C332.475 8.69857 332.661 8.89453 332.789 9.14062C332.99 9.54167 333.09 10.1888 333.09 11.082V22.0059C333.117 22.7259 333.377 23.1634 333.869 23.3184C334.006 23.3639 334.174 23.4049 334.375 23.4414C334.576 23.4779 334.753 23.5234 334.908 23.5781C335.072 23.6237 335.2 23.6784 335.291 23.7422C335.446 23.8607 335.523 24.0521 335.523 24.3164C335.523 24.6445 335.455 24.8952 335.318 25.0684C335.127 25.0228 334.835 25 334.443 25H330.082ZM347.363 13.3242L347.377 12.832C347.377 12.6589 347.336 12.3672 347.254 11.957C347.172 11.5378 346.908 11.196 346.461 10.9316C346.023 10.6673 345.463 10.5352 344.779 10.5352C344.105 10.5352 343.503 10.7083 342.975 11.0547C342.455 11.3919 342.031 11.8477 341.703 12.4219C341.083 13.5156 340.773 14.9785 340.773 16.8105C340.773 18.5423 341.193 19.9505 342.031 21.0352C342.888 22.1471 344.018 22.7031 345.422 22.7031C346.698 22.7031 347.919 22.3522 349.086 21.6504C349.368 21.4772 349.587 21.3268 349.742 21.1992C349.833 21.1992 349.938 21.2721 350.057 21.418C350.285 21.6823 350.398 21.8965 350.398 22.0605C350.398 22.2155 350.335 22.3978 350.207 22.6074C350.079 22.8079 349.893 23.0267 349.646 23.2637C349.41 23.4915 349.122 23.724 348.785 23.9609C348.448 24.1979 348.07 24.4121 347.65 24.6035C346.693 25.041 345.714 25.2598 344.711 25.2598C343.708 25.2598 342.77 25.0911 341.895 24.7539C341.029 24.4076 340.281 23.9017 339.652 23.2363C338.303 21.8236 337.629 19.8822 337.629 17.4121C337.629 14.6048 338.486 12.349 340.199 10.6445C341.758 9.10417 343.558 8.33398 345.6 8.33398C346.939 8.33398 348.056 8.62109 348.949 9.19531C349.888 9.79688 350.357 10.5898 350.357 11.5742C350.357 12.112 350.239 12.5176 350.002 12.791C349.592 13.2741 349.113 13.5156 348.566 13.5156C348.029 13.5156 347.628 13.4518 347.363 13.3242ZM362.717 23.2637C361.386 24.5944 359.777 25.2598 357.891 25.2598C356.432 25.2598 355.266 24.8405 354.391 24.002C353.507 23.1543 353.064 22.056 353.064 20.707C353.064 19.0299 353.812 17.7721 355.307 16.9336C356.656 16.168 358.556 15.7852 361.008 15.7852H362.717C362.726 15.4388 362.73 15.1016 362.73 14.7734V13.748C362.73 12.5267 362.553 11.6654 362.197 11.1641C361.796 10.599 361.113 10.3164 360.146 10.3164C357.932 10.3164 356.792 11.1094 356.729 12.6953C356.719 12.9414 356.724 13.1465 356.742 13.3105C356.56 13.4564 356.25 13.5293 355.812 13.5293C355.384 13.5293 355.07 13.4792 354.869 13.3789C354.678 13.2786 354.509 13.1419 354.363 12.9688C354.053 12.6133 353.898 12.1621 353.898 11.6152C353.898 11.0592 354.058 10.5762 354.377 10.166C354.705 9.74674 355.147 9.40495 355.703 9.14062C356.788 8.60286 358.068 8.33398 359.545 8.33398C361.021 8.33398 362.129 8.47982 362.867 8.77148C363.615 9.05404 364.207 9.43229 364.645 9.90625C365.419 10.7448 365.807 11.8704 365.807 13.2832L365.67 19.8457C365.67 21.0397 365.725 21.7962 365.834 22.1152C365.952 22.4342 366.089 22.6484 366.244 22.7578C366.408 22.8672 366.604 22.9219 366.832 22.9219C367.069 22.9219 367.26 22.8854 367.406 22.8125L367.789 22.6348C367.917 22.5892 368.026 22.6439 368.117 22.7988C368.217 22.9447 368.268 23.0768 368.268 23.1953C368.268 23.3047 368.217 23.4505 368.117 23.6328C368.026 23.8151 367.848 24.0111 367.584 24.2207C367.329 24.4212 367.037 24.599 366.709 24.7539C364.895 25.6107 363.66 25.4102 363.004 24.1523C362.867 23.9062 362.771 23.61 362.717 23.2637ZM362.676 21.4727C362.676 20.1602 362.685 18.8568 362.703 17.5625C360.807 17.6354 359.518 17.7585 358.834 17.9316C358.16 18.0957 357.672 18.2552 357.371 18.4102C357.07 18.5651 356.833 18.7474 356.66 18.957C356.378 19.3034 356.236 19.8275 356.236 20.5293C356.236 21.222 356.482 21.778 356.975 22.1973C357.467 22.6074 358.173 22.8125 359.094 22.8125C360.397 22.8125 361.591 22.3659 362.676 21.4727ZM372.506 25C371.111 25 370.414 24.681 370.414 24.043C370.414 23.7057 370.482 23.4505 370.619 23.2773C370.838 23.3503 371.043 23.3867 371.234 23.3867C372.027 23.3867 372.438 22.9082 372.465 21.9512V4.83398C372.465 4.19596 372.401 3.79036 372.273 3.61719C372.064 3.32552 371.727 3.17969 371.262 3.17969C371.052 3.17969 370.847 3.20247 370.646 3.24805C370.455 3.28451 370.318 3.28451 370.236 3.24805C370.163 3.20247 370.104 3.14323 370.059 3.07031C369.876 2.76953 370.104 2.38672 370.742 1.92188C371.745 1.18359 372.734 0.814453 373.709 0.814453C374.748 0.814453 375.331 1.375 375.459 2.49609C375.495 2.83333 375.514 3.1888 375.514 3.5625V22.0059C375.541 22.7168 375.801 23.1543 376.293 23.3184C376.439 23.3639 376.607 23.4049 376.799 23.4414C376.999 23.4779 377.182 23.5234 377.346 23.5781C377.51 23.6237 377.637 23.6784 377.729 23.7422C377.883 23.8607 377.961 24.0521 377.961 24.3164C377.961 24.6354 377.888 24.8861 377.742 25.0684C377.56 25.0228 377.268 25 376.867 25H372.506ZM398.223 25.1094C398.013 25.0365 397.566 25 396.883 25H391.305C390.831 25 390.452 24.9271 390.17 24.7812C389.887 24.6263 389.746 24.3483 389.746 23.9473C389.746 23.6556 389.814 23.4232 389.951 23.25C390.298 23.3411 390.63 23.3867 390.949 23.3867C391.268 23.3867 391.519 23.3548 391.701 23.291C391.883 23.2181 392.043 23.0951 392.18 22.9219C392.453 22.5573 392.59 21.9512 392.59 21.1035V7.11719C392.562 6.47917 392.353 6.07357 391.961 5.90039C391.842 5.8457 391.678 5.79557 391.469 5.75C391.268 5.70443 391.068 5.65885 390.867 5.61328C390.676 5.55859 390.512 5.49479 390.375 5.42188C390.102 5.27604 389.965 5.08464 389.965 4.84766C389.965 4.41927 390.038 4.11393 390.184 3.93164C390.393 4.00456 390.844 4.04102 391.537 4.04102H393.314L398.113 3.9043L398.701 3.89062C401.508 3.89062 403.609 4.39193 405.004 5.39453C406.398 6.38802 407.096 7.79167 407.096 9.60547C407.096 10.9635 406.654 12.2122 405.77 13.3516C404.785 14.6185 403.427 15.4753 401.695 15.9219C402.169 16.25 402.707 16.8516 403.309 17.7266L404.758 19.8457C406.116 21.8236 407.242 22.8125 408.135 22.8125C408.472 22.8125 408.727 22.7806 408.9 22.7168L409.242 22.5801C409.315 22.5527 409.397 22.5391 409.488 22.5391C409.579 22.5391 409.675 22.612 409.775 22.7578C409.876 22.8945 409.926 23.054 409.926 23.2363C409.926 23.4186 409.848 23.6374 409.693 23.8926C409.538 24.1387 409.32 24.362 409.037 24.5625C408.399 25.0273 407.702 25.2598 406.945 25.2598C406.189 25.2598 405.564 25.1322 405.072 24.877C404.589 24.6217 404.143 24.2891 403.732 23.8789C403.331 23.4596 402.962 22.9857 402.625 22.457C402.297 21.9284 401.987 21.3861 401.695 20.8301L400.889 19.2031C400.314 18.0182 399.854 17.2572 399.508 16.9199C399.171 16.5736 398.861 16.4004 398.578 16.4004H397.197C396.969 16.4004 396.855 16.2363 396.855 15.9082C396.855 15.4525 397.029 15.097 397.375 14.8418C397.493 14.7598 397.849 14.7142 398.441 14.7051C399.034 14.6868 399.699 14.5592 400.438 14.3223C401.185 14.0853 401.8 13.7617 402.283 13.3516C403.222 12.5404 403.691 11.401 403.691 9.93359C403.691 8.70312 403.281 7.69596 402.461 6.91211C401.531 6.02799 400.237 5.57682 398.578 5.55859C397.484 5.55859 396.755 5.72266 396.391 6.05078C396.026 6.36068 395.835 6.94857 395.816 7.81445V21.7734C395.816 22.4935 396.017 22.9492 396.418 23.1406C396.546 23.1953 396.714 23.2454 396.924 23.291C397.133 23.3366 397.334 23.3867 397.525 23.4414C397.726 23.487 397.895 23.5462 398.031 23.6191C398.305 23.765 398.441 23.9609 398.441 24.207C398.441 24.6263 398.368 24.9271 398.223 25.1094ZM411.43 17.6445C411.43 16.5417 411.544 15.5618 411.771 14.7051C411.999 13.8483 412.305 13.0827 412.688 12.4082C413.079 11.7246 413.535 11.1276 414.055 10.6172C414.583 10.1068 415.148 9.68294 415.75 9.3457C416.935 8.67122 418.102 8.33398 419.25 8.33398C420.398 8.33398 421.319 8.53906 422.012 8.94922C422.704 9.35026 423.27 9.88802 423.707 10.5625C424.518 11.8477 424.924 13.5566 424.924 15.6895C424.924 16.4824 424.591 16.888 423.926 16.9062L414.383 17.1113C414.438 19.0892 414.948 20.5521 415.914 21.5C416.734 22.3021 417.796 22.7031 419.1 22.7031C421.041 22.7031 422.618 22.2975 423.83 21.4863C423.912 21.4863 424.012 21.5547 424.131 21.6914C424.359 21.9648 424.473 22.2018 424.473 22.4023C424.473 22.8398 423.926 23.4004 422.832 24.084C421.574 24.8678 420.107 25.2598 418.43 25.2598C416.242 25.2598 414.524 24.5625 413.275 23.168C412.045 21.8008 411.43 19.9596 411.43 17.6445ZM414.465 15.3477C417.09 15.2201 419.492 15.0514 421.67 14.8418C421.77 11.9434 420.768 10.4941 418.662 10.4941C417.486 10.4941 416.525 10.9499 415.777 11.8613C415.094 12.6999 414.656 13.862 414.465 15.3477ZM437.789 13.3242L437.803 12.832C437.803 12.6589 437.762 12.3672 437.68 11.957C437.598 11.5378 437.333 11.196 436.887 10.9316C436.449 10.6673 435.889 10.5352 435.205 10.5352C434.531 10.5352 433.929 10.7083 433.4 11.0547C432.881 11.3919 432.457 11.8477 432.129 12.4219C431.509 13.5156 431.199 14.9785 431.199 16.8105C431.199 18.5423 431.618 19.9505 432.457 21.0352C433.314 22.1471 434.444 22.7031 435.848 22.7031C437.124 22.7031 438.345 22.3522 439.512 21.6504C439.794 21.4772 440.013 21.3268 440.168 21.1992C440.259 21.1992 440.364 21.2721 440.482 21.418C440.71 21.6823 440.824 21.8965 440.824 22.0605C440.824 22.2155 440.76 22.3978 440.633 22.6074C440.505 22.8079 440.318 23.0267 440.072 23.2637C439.835 23.4915 439.548 23.724 439.211 23.9609C438.874 24.1979 438.495 24.4121 438.076 24.6035C437.119 25.041 436.139 25.2598 435.137 25.2598C434.134 25.2598 433.195 25.0911 432.32 24.7539C431.454 24.4076 430.707 23.9017 430.078 23.2363C428.729 21.8236 428.055 19.8822 428.055 17.4121C428.055 14.6048 428.911 12.349 430.625 10.6445C432.184 9.10417 433.984 8.33398 436.025 8.33398C437.365 8.33398 438.482 8.62109 439.375 9.19531C440.314 9.79688 440.783 10.5898 440.783 11.5742C440.783 12.112 440.665 12.5176 440.428 12.791C440.018 13.2741 439.539 13.5156 438.992 13.5156C438.454 13.5156 438.053 13.4518 437.789 13.3242ZM443.354 17.4531C443.354 16.3411 443.463 15.3431 443.682 14.459C443.9 13.5749 444.201 12.7956 444.584 12.1211C444.967 11.4466 445.418 10.8724 445.938 10.3984C446.457 9.91536 447.013 9.52344 447.605 9.22266C448.763 8.63021 450.035 8.33398 451.42 8.33398C453.197 8.33398 454.706 8.98112 455.945 10.2754C457.322 11.6973 458.01 13.5749 458.01 15.9082C458.01 18.9707 457.176 21.3542 455.508 23.0586C454.059 24.526 452.322 25.2598 450.299 25.2598C448.184 25.2598 446.489 24.5169 445.213 23.0312C443.973 21.6003 443.354 19.7409 443.354 17.4531ZM451.105 23.0312C451.716 23.0312 452.263 22.89 452.746 22.6074C453.229 22.3158 453.639 21.9193 453.977 21.418C454.651 20.3789 454.988 19.0299 454.988 17.3711C454.988 15.5482 454.633 13.9987 453.922 12.7227C453.12 11.2552 451.967 10.5215 450.463 10.5215C449.251 10.5215 448.28 10.9863 447.551 11.916C446.776 12.9004 446.389 14.2767 446.389 16.0449C446.389 18.2598 446.876 20.0098 447.852 21.2949C448.727 22.4525 449.811 23.0312 451.105 23.0312ZM468.4 25.0684C468.209 25.0228 467.917 25 467.525 25H462.891C462.016 25 461.455 24.8451 461.209 24.5352C461.109 24.4167 461.059 24.2799 461.059 24.125C461.059 23.7422 461.132 23.4596 461.277 23.2773C461.496 23.3503 461.697 23.3867 461.879 23.3867C462.07 23.3867 462.23 23.3639 462.357 23.3184C462.485 23.2637 462.585 23.1771 462.658 23.0586C462.786 22.8398 462.85 22.4115 462.85 21.7734V12.832C462.85 11.9753 462.69 11.4421 462.371 11.2324C462.243 11.1504 462.075 11.1094 461.865 11.1094C461.656 11.1094 461.487 11.1413 461.359 11.2051C461.241 11.2689 461.141 11.3145 461.059 11.3418C460.986 11.3691 460.922 11.3691 460.867 11.3418C460.812 11.3053 460.758 11.2552 460.703 11.1914C460.566 11.0273 460.498 10.8724 460.498 10.7266C460.498 10.5716 460.553 10.4076 460.662 10.2344C460.781 10.0521 460.967 9.84701 461.223 9.61914C461.478 9.38216 461.77 9.16797 462.098 8.97656C462.836 8.54818 463.574 8.33398 464.312 8.33398C465.151 8.33398 465.648 8.88086 465.803 9.97461C465.848 10.2936 465.876 10.6263 465.885 10.9727C467.215 9.79688 468.587 8.99023 470 8.55273C470.474 8.4069 470.902 8.33398 471.285 8.33398C471.677 8.33398 471.996 8.38867 472.242 8.49805C472.497 8.60742 472.698 8.75781 472.844 8.94922C473.117 9.32292 473.254 9.80143 473.254 10.3848C473.254 10.9681 473.227 11.4329 473.172 11.7793C473.117 12.1257 473.049 12.431 472.967 12.6953C472.803 13.2331 472.648 13.5749 472.502 13.7207C472.247 13.985 471.905 14.1172 471.477 14.1172C471.039 14.1172 470.82 13.9896 470.82 13.7344C470.82 12.7591 470.779 12.1348 470.697 11.8613C470.542 11.36 470.251 11.1094 469.822 11.1094C469.394 11.1094 469.007 11.1595 468.66 11.2598C468.314 11.3509 467.977 11.4785 467.648 11.6426C466.983 11.9707 466.4 12.3945 465.898 12.9141V22.0059C465.926 22.7259 466.24 23.1634 466.842 23.3184C467.015 23.3639 467.211 23.4049 467.43 23.4414C467.648 23.4779 467.835 23.5234 467.99 23.5781C468.154 23.6237 468.282 23.6784 468.373 23.7422C468.528 23.8607 468.605 24.0521 468.605 24.3164C468.605 24.6445 468.537 24.8952 468.4 25.0684ZM486.311 23.291C484.898 24.6126 483.344 25.2734 481.648 25.2734C479.78 25.2734 478.258 24.6354 477.082 23.3594C475.806 21.9557 475.168 20.0189 475.168 17.5488C475.168 14.7689 476.052 12.5085 477.82 10.7676C479.47 9.14518 481.421 8.33398 483.672 8.33398C484.574 8.33398 485.44 8.48438 486.27 8.78516V4.83398C486.27 4.19596 486.206 3.79036 486.078 3.61719C485.868 3.32552 485.527 3.17969 485.053 3.17969C484.852 3.17969 484.652 3.20247 484.451 3.24805C484.26 3.28451 484.123 3.28451 484.041 3.24805C483.968 3.20247 483.909 3.14323 483.863 3.07031C483.681 2.76953 483.909 2.38672 484.547 1.92188C485.549 1.18359 486.538 0.814453 487.514 0.814453C488.544 0.814453 489.132 1.375 489.277 2.49609C489.314 2.83333 489.332 3.1888 489.332 3.5625V19.4355C489.332 20.8392 489.387 21.7142 489.496 22.0605C489.605 22.4069 489.733 22.6348 489.879 22.7441C490.034 22.8444 490.225 22.8945 490.453 22.8945C490.681 22.8945 490.868 22.8581 491.014 22.7852L491.424 22.6074C491.542 22.5801 491.647 22.6348 491.738 22.7715C491.93 23.054 491.957 23.3092 491.82 23.5371C491.684 23.765 491.479 23.9837 491.205 24.1934C490.932 24.403 490.626 24.5853 490.289 24.7402C488.812 25.4056 487.71 25.4193 486.98 24.7812C486.625 24.4714 486.402 23.9746 486.311 23.291ZM486.27 11.5605C485.376 10.877 484.337 10.5352 483.152 10.5352C481.73 10.5352 480.577 11.0592 479.693 12.1074C478.745 13.2285 478.271 14.7552 478.271 16.6875C478.271 19.7591 479.146 21.6549 480.896 22.375C481.443 22.5938 481.972 22.7031 482.482 22.7031C483.002 22.7031 483.435 22.6621 483.781 22.5801C484.128 22.498 484.451 22.3887 484.752 22.252C485.354 21.9785 485.859 21.6458 486.27 21.2539V11.5605ZM512.451 25.1094C512.242 25.0365 511.79 25 511.098 25H505.396C504.923 25 504.544 24.9271 504.262 24.7812C503.979 24.6263 503.838 24.3483 503.838 23.9473C503.838 23.6556 503.906 23.4232 504.043 23.25C504.408 23.3411 504.74 23.3867 505.041 23.3867C505.351 23.3867 505.592 23.3548 505.766 23.291C505.948 23.2272 506.103 23.1133 506.23 22.9492C506.513 22.6029 506.663 22.0332 506.682 21.2402V7.26758C506.682 6.54753 506.481 6.09635 506.08 5.91406C505.952 5.85026 505.779 5.79557 505.561 5.75C505.342 5.70443 505.123 5.65885 504.904 5.61328C504.695 5.55859 504.517 5.49479 504.371 5.42188C504.079 5.27604 503.934 5.02995 503.934 4.68359C503.934 4.34635 504.002 4.0957 504.139 3.93164C504.348 4.00456 504.799 4.04102 505.492 4.04102H511.057C511.531 4.04102 511.909 4.11849 512.191 4.27344C512.483 4.41927 512.629 4.69271 512.629 5.09375C512.629 5.39453 512.556 5.62695 512.41 5.79102C512.064 5.69987 511.686 5.6543 511.275 5.6543C510.391 5.6543 509.936 6.37435 509.908 7.81445V21.7734C509.908 22.4935 510.109 22.9492 510.51 23.1406C510.637 23.1953 510.811 23.2454 511.029 23.291C511.248 23.3366 511.462 23.3867 511.672 23.4414C511.891 23.487 512.073 23.5462 512.219 23.6191C512.52 23.7741 512.67 24.0202 512.67 24.3574C512.67 24.6764 512.597 24.9271 512.451 25.1094ZM522.992 25.0684C522.81 25.0228 522.518 25 522.117 25H517.756C516.881 25 516.32 24.8451 516.074 24.5352C515.974 24.4167 515.924 24.2799 515.924 24.125C515.924 23.7422 515.997 23.4596 516.143 23.2773C516.361 23.3503 516.607 23.3867 516.881 23.3867C517.163 23.3867 517.373 23.2728 517.51 23.0449C517.656 22.8171 517.724 22.3932 517.715 21.7734V12.832C517.715 11.9753 517.555 11.4421 517.236 11.2324C517.109 11.1504 516.94 11.1094 516.73 11.1094C516.521 11.1094 516.352 11.1413 516.225 11.2051C516.106 11.2689 516.006 11.3145 515.924 11.3418C515.851 11.3691 515.787 11.3691 515.732 11.3418C515.678 11.3053 515.623 11.2552 515.568 11.1914C515.432 11.0456 515.363 10.8952 515.363 10.7402C515.363 10.5762 515.418 10.4076 515.527 10.2344C515.646 10.0521 515.833 9.84701 516.088 9.61914C516.343 9.38216 516.635 9.16797 516.963 8.97656C517.701 8.54818 518.439 8.33398 519.178 8.33398C520.025 8.33398 520.527 8.89453 520.682 10.0156C520.727 10.3438 520.755 10.681 520.764 11.0273C522.122 9.88802 523.598 9.07682 525.193 8.59375C525.768 8.42057 526.346 8.33398 526.93 8.33398C527.522 8.33398 528.083 8.41146 528.611 8.56641C529.149 8.72135 529.614 8.97201 530.006 9.31836C530.835 10.0475 531.25 11.1868 531.25 12.7363V22.0059C531.277 22.7168 531.542 23.1543 532.043 23.3184C532.18 23.3639 532.348 23.4049 532.549 23.4414C532.749 23.4779 532.927 23.5234 533.082 23.5781C533.246 23.6237 533.374 23.6784 533.465 23.7422C533.62 23.8607 533.697 24.0521 533.697 24.3164C533.697 24.6354 533.624 24.8861 533.479 25.0684C533.296 25.0228 533.005 25 532.604 25H528.242C527.367 25 526.807 24.8451 526.561 24.5352C526.46 24.4167 526.41 24.2799 526.41 24.125C526.41 23.7422 526.483 23.4596 526.629 23.2773C526.848 23.3503 527.048 23.3867 527.23 23.3867C527.422 23.3867 527.581 23.3639 527.709 23.3184C527.837 23.2637 527.937 23.1771 528.01 23.0586C528.137 22.8398 528.201 22.4115 528.201 21.7734V13.707C528.201 12.1576 527.741 11.2917 526.82 11.1094C526.538 11.0547 526.182 11.0273 525.754 11.0273C525.335 11.0273 524.87 11.0911 524.359 11.2188C523.849 11.3464 523.37 11.5104 522.924 11.7109C522.067 12.0938 521.347 12.5768 520.764 13.1602V22.0059C520.791 22.7168 521.051 23.1543 521.543 23.3184C521.689 23.3639 521.857 23.4049 522.049 23.4414C522.249 23.4779 522.432 23.5234 522.596 23.5781C522.76 23.6237 522.887 23.6784 522.979 23.7422C523.133 23.8607 523.211 24.0521 523.211 24.3164C523.211 24.6354 523.138 24.8861 522.992 25.0684ZM540.465 15.6758L540.451 19.2715C540.451 20.7754 540.529 21.6823 540.684 21.9922C540.839 22.293 541.021 22.4753 541.23 22.5391C541.44 22.5938 541.709 22.6211 542.037 22.6211C542.365 22.6211 542.661 22.5983 542.926 22.5527C543.199 22.498 543.454 22.4297 543.691 22.3477C543.928 22.2656 544.156 22.1745 544.375 22.0742L545.045 21.7871C545.2 21.7324 545.373 21.8919 545.564 22.2656C545.619 22.3659 545.646 22.4844 545.646 22.6211C545.646 22.7487 545.592 22.9173 545.482 23.127C545.373 23.3366 545.159 23.5781 544.84 23.8516C544.53 24.1159 544.165 24.3529 543.746 24.5625C542.835 25.0273 542.014 25.2598 541.285 25.2598C540.565 25.2598 539.977 25.2188 539.521 25.1367C539.066 25.0547 538.678 24.8906 538.359 24.6445C537.703 24.1341 537.375 23.1999 537.375 21.8418V11.082H536.021C535.739 11.082 535.534 10.9909 535.406 10.8086C535.188 10.526 535.078 10.2891 535.078 10.0977C535.078 9.77865 535.156 9.60091 535.311 9.56445C536.76 9.31836 537.785 8.24284 538.387 6.33789C538.56 5.76367 538.697 5.08464 538.797 4.30078C539.234 4.22786 539.562 4.19141 539.781 4.19141C540.009 4.19141 540.205 4.30534 540.369 4.5332C540.533 4.76107 540.611 5.02539 540.602 5.32617C540.602 5.62695 540.597 5.90951 540.588 6.17383C540.579 6.43815 540.57 6.72526 540.561 7.03516L540.506 8.94922H545.236C545.355 9.15885 545.414 9.38216 545.414 9.61914V10.043C545.414 10.4258 545.209 10.7402 544.799 10.9863C544.389 11.2233 543.933 11.3418 543.432 11.3418C542.939 11.3418 542.584 11.3372 542.365 11.3281C542.156 11.3099 541.951 11.2917 541.75 11.2734L541.148 11.1914C540.939 11.1732 540.715 11.1549 540.479 11.1367V11.2871L540.465 15.6758ZM547.902 17.6445C547.902 16.5417 548.016 15.5618 548.244 14.7051C548.472 13.8483 548.777 13.0827 549.16 12.4082C549.552 11.7246 550.008 11.1276 550.527 10.6172C551.056 10.1068 551.621 9.68294 552.223 9.3457C553.408 8.67122 554.574 8.33398 555.723 8.33398C556.871 8.33398 557.792 8.53906 558.484 8.94922C559.177 9.35026 559.742 9.88802 560.18 10.5625C560.991 11.8477 561.396 13.5566 561.396 15.6895C561.396 16.4824 561.064 16.888 560.398 16.9062L550.855 17.1113C550.91 19.0892 551.421 20.5521 552.387 21.5C553.207 22.3021 554.269 22.7031 555.572 22.7031C557.514 22.7031 559.09 22.2975 560.303 21.4863C560.385 21.4863 560.485 21.5547 560.604 21.6914C560.831 21.9648 560.945 22.2018 560.945 22.4023C560.945 22.8398 560.398 23.4004 559.305 24.084C558.047 24.8678 556.579 25.2598 554.902 25.2598C552.715 25.2598 550.997 24.5625 549.748 23.168C548.518 21.8008 547.902 19.9596 547.902 17.6445ZM550.938 15.3477C553.562 15.2201 555.964 15.0514 558.143 14.8418C558.243 11.9434 557.24 10.4941 555.135 10.4941C553.959 10.4941 552.997 10.9499 552.25 11.8613C551.566 12.6999 551.129 13.862 550.938 15.3477ZM572.006 25.0684C571.814 25.0228 571.523 25 571.131 25H566.496C565.621 25 565.061 24.8451 564.814 24.5352C564.714 24.4167 564.664 24.2799 564.664 24.125C564.664 23.7422 564.737 23.4596 564.883 23.2773C565.102 23.3503 565.302 23.3867 565.484 23.3867C565.676 23.3867 565.835 23.3639 565.963 23.3184C566.09 23.2637 566.191 23.1771 566.264 23.0586C566.391 22.8398 566.455 22.4115 566.455 21.7734V12.832C566.455 11.9753 566.296 11.4421 565.977 11.2324C565.849 11.1504 565.68 11.1094 565.471 11.1094C565.261 11.1094 565.092 11.1413 564.965 11.2051C564.846 11.2689 564.746 11.3145 564.664 11.3418C564.591 11.3691 564.527 11.3691 564.473 11.3418C564.418 11.3053 564.363 11.2552 564.309 11.1914C564.172 11.0273 564.104 10.8724 564.104 10.7266C564.104 10.5716 564.158 10.4076 564.268 10.2344C564.386 10.0521 564.573 9.84701 564.828 9.61914C565.083 9.38216 565.375 9.16797 565.703 8.97656C566.441 8.54818 567.18 8.33398 567.918 8.33398C568.757 8.33398 569.253 8.88086 569.408 9.97461C569.454 10.2936 569.481 10.6263 569.49 10.9727C570.821 9.79688 572.193 8.99023 573.605 8.55273C574.079 8.4069 574.508 8.33398 574.891 8.33398C575.283 8.33398 575.602 8.38867 575.848 8.49805C576.103 8.60742 576.303 8.75781 576.449 8.94922C576.723 9.32292 576.859 9.80143 576.859 10.3848C576.859 10.9681 576.832 11.4329 576.777 11.7793C576.723 12.1257 576.654 12.431 576.572 12.6953C576.408 13.2331 576.253 13.5749 576.107 13.7207C575.852 13.985 575.51 14.1172 575.082 14.1172C574.645 14.1172 574.426 13.9896 574.426 13.7344C574.426 12.7591 574.385 12.1348 574.303 11.8613C574.148 11.36 573.856 11.1094 573.428 11.1094C572.999 11.1094 572.612 11.1595 572.266 11.2598C571.919 11.3509 571.582 11.4785 571.254 11.6426C570.589 11.9707 570.005 12.3945 569.504 12.9141V22.0059C569.531 22.7259 569.846 23.1634 570.447 23.3184C570.62 23.3639 570.816 23.4049 571.035 23.4414C571.254 23.4779 571.441 23.5234 571.596 23.5781C571.76 23.6237 571.887 23.6784 571.979 23.7422C572.133 23.8607 572.211 24.0521 572.211 24.3164C572.211 24.6445 572.143 24.8952 572.006 25.0684ZM585.828 30.1133C585.947 30.2682 586.006 30.4642 586.006 30.7012C586.006 30.9382 585.901 31.1387 585.691 31.3027C585.482 31.4759 585.227 31.6172 584.926 31.7266C584.352 31.9271 583.8 32.0273 583.271 32.0273C582.743 32.0273 582.305 31.9909 581.959 31.918C581.613 31.8451 581.326 31.7174 581.098 31.5352C580.66 31.1706 580.441 30.5553 580.441 29.6895V12.832C580.441 11.9753 580.282 11.4421 579.963 11.2324C579.835 11.1504 579.667 11.1094 579.457 11.1094C579.247 11.1094 579.079 11.1413 578.951 11.2051C578.833 11.2689 578.732 11.3145 578.65 11.3418C578.577 11.3691 578.514 11.3691 578.459 11.3418C578.404 11.3053 578.35 11.2552 578.295 11.1914C578.158 11.0273 578.09 10.8724 578.09 10.7266C578.09 10.5716 578.145 10.4076 578.254 10.2344C578.372 10.0521 578.559 9.84701 578.814 9.61914C579.07 9.38216 579.361 9.16797 579.689 8.97656C580.428 8.54818 581.166 8.33398 581.904 8.33398C582.798 8.33398 583.312 9.00391 583.449 10.3438C584.88 9.00391 586.439 8.33398 588.125 8.33398C589.984 8.33398 591.507 8.97656 592.691 10.2617C593.977 11.6471 594.619 13.5794 594.619 16.0586C594.619 17.9089 594.2 19.5632 593.361 21.0215C592.596 22.3522 591.543 23.3958 590.203 24.1523C588.918 24.8906 587.551 25.2598 586.102 25.2598C585.29 25.2598 584.42 25.1322 583.49 24.877V26.7773C583.49 28.2539 583.572 29.1608 583.736 29.498C583.91 29.8444 584.083 30.0495 584.256 30.1133C584.438 30.1771 584.643 30.209 584.871 30.209C585.108 30.209 585.427 30.1771 585.828 30.1133ZM583.49 12.4766V21.9648C584.356 22.7031 585.4 23.0723 586.621 23.0723C588.043 23.0723 589.201 22.5482 590.094 21.5C591.042 20.3789 591.516 18.8522 591.516 16.9199C591.516 14.8874 591.096 13.3516 590.258 12.3125C589.51 11.3737 588.471 10.9043 587.141 10.9043C585.81 10.9043 584.593 11.4284 583.49 12.4766ZM605.119 25.0684C604.928 25.0228 604.636 25 604.244 25H599.609C598.734 25 598.174 24.8451 597.928 24.5352C597.827 24.4167 597.777 24.2799 597.777 24.125C597.777 23.7422 597.85 23.4596 597.996 23.2773C598.215 23.3503 598.415 23.3867 598.598 23.3867C598.789 23.3867 598.949 23.3639 599.076 23.3184C599.204 23.2637 599.304 23.1771 599.377 23.0586C599.505 22.8398 599.568 22.4115 599.568 21.7734V12.832C599.568 11.9753 599.409 11.4421 599.09 11.2324C598.962 11.1504 598.794 11.1094 598.584 11.1094C598.374 11.1094 598.206 11.1413 598.078 11.2051C597.96 11.2689 597.859 11.3145 597.777 11.3418C597.704 11.3691 597.641 11.3691 597.586 11.3418C597.531 11.3053 597.477 11.2552 597.422 11.1914C597.285 11.0273 597.217 10.8724 597.217 10.7266C597.217 10.5716 597.271 10.4076 597.381 10.2344C597.499 10.0521 597.686 9.84701 597.941 9.61914C598.197 9.38216 598.488 9.16797 598.816 8.97656C599.555 8.54818 600.293 8.33398 601.031 8.33398C601.87 8.33398 602.367 8.88086 602.521 9.97461C602.567 10.2936 602.594 10.6263 602.604 10.9727C603.934 9.79688 605.306 8.99023 606.719 8.55273C607.193 8.4069 607.621 8.33398 608.004 8.33398C608.396 8.33398 608.715 8.38867 608.961 8.49805C609.216 8.60742 609.417 8.75781 609.562 8.94922C609.836 9.32292 609.973 9.80143 609.973 10.3848C609.973 10.9681 609.945 11.4329 609.891 11.7793C609.836 12.1257 609.768 12.431 609.686 12.6953C609.521 13.2331 609.367 13.5749 609.221 13.7207C608.965 13.985 608.624 14.1172 608.195 14.1172C607.758 14.1172 607.539 13.9896 607.539 13.7344C607.539 12.7591 607.498 12.1348 607.416 11.8613C607.261 11.36 606.969 11.1094 606.541 11.1094C606.113 11.1094 605.725 11.1595 605.379 11.2598C605.033 11.3509 604.695 11.4785 604.367 11.6426C603.702 11.9707 603.118 12.3945 602.617 12.9141V22.0059C602.645 22.7259 602.959 23.1634 603.561 23.3184C603.734 23.3639 603.93 23.4049 604.148 23.4414C604.367 23.4779 604.554 23.5234 604.709 23.5781C604.873 23.6237 605.001 23.6784 605.092 23.7422C605.247 23.8607 605.324 24.0521 605.324 24.3164C605.324 24.6445 605.256 24.8952 605.119 25.0684ZM611.941 17.6445C611.941 16.5417 612.055 15.5618 612.283 14.7051C612.511 13.8483 612.816 13.0827 613.199 12.4082C613.591 11.7246 614.047 11.1276 614.566 10.6172C615.095 10.1068 615.66 9.68294 616.262 9.3457C617.447 8.67122 618.613 8.33398 619.762 8.33398C620.91 8.33398 621.831 8.53906 622.523 8.94922C623.216 9.35026 623.781 9.88802 624.219 10.5625C625.03 11.8477 625.436 13.5566 625.436 15.6895C625.436 16.4824 625.103 16.888 624.438 16.9062L614.895 17.1113C614.949 19.0892 615.46 20.5521 616.426 21.5C617.246 22.3021 618.308 22.7031 619.611 22.7031C621.553 22.7031 623.13 22.2975 624.342 21.4863C624.424 21.4863 624.524 21.5547 624.643 21.6914C624.87 21.9648 624.984 22.2018 624.984 22.4023C624.984 22.8398 624.438 23.4004 623.344 24.084C622.086 24.8678 620.618 25.2598 618.941 25.2598C616.754 25.2598 615.036 24.5625 613.787 23.168C612.557 21.8008 611.941 19.9596 611.941 17.6445ZM614.977 15.3477C617.602 15.2201 620.003 15.0514 622.182 14.8418C622.282 11.9434 621.279 10.4941 619.174 10.4941C617.998 10.4941 617.036 10.9499 616.289 11.8613C615.605 12.6999 615.168 13.862 614.977 15.3477ZM633.188 15.6758L633.174 19.2715C633.174 20.7754 633.251 21.6823 633.406 21.9922C633.561 22.293 633.743 22.4753 633.953 22.5391C634.163 22.5938 634.432 22.6211 634.76 22.6211C635.088 22.6211 635.384 22.5983 635.648 22.5527C635.922 22.498 636.177 22.4297 636.414 22.3477C636.651 22.2656 636.879 22.1745 637.098 22.0742L637.768 21.7871C637.923 21.7324 638.096 21.8919 638.287 22.2656C638.342 22.3659 638.369 22.4844 638.369 22.6211C638.369 22.7487 638.314 22.9173 638.205 23.127C638.096 23.3366 637.882 23.5781 637.562 23.8516C637.253 24.1159 636.888 24.3529 636.469 24.5625C635.557 25.0273 634.737 25.2598 634.008 25.2598C633.288 25.2598 632.7 25.2188 632.244 25.1367C631.788 25.0547 631.401 24.8906 631.082 24.6445C630.426 24.1341 630.098 23.1999 630.098 21.8418V11.082H628.744C628.462 11.082 628.257 10.9909 628.129 10.8086C627.91 10.526 627.801 10.2891 627.801 10.0977C627.801 9.77865 627.878 9.60091 628.033 9.56445C629.482 9.31836 630.508 8.24284 631.109 6.33789C631.283 5.76367 631.419 5.08464 631.52 4.30078C631.957 4.22786 632.285 4.19141 632.504 4.19141C632.732 4.19141 632.928 4.30534 633.092 4.5332C633.256 4.76107 633.333 5.02539 633.324 5.32617C633.324 5.62695 633.32 5.90951 633.311 6.17383C633.301 6.43815 633.292 6.72526 633.283 7.03516L633.229 8.94922H637.959C638.077 9.15885 638.137 9.38216 638.137 9.61914V10.043C638.137 10.4258 637.932 10.7402 637.521 10.9863C637.111 11.2233 636.656 11.3418 636.154 11.3418C635.662 11.3418 635.307 11.3372 635.088 11.3281C634.878 11.3099 634.673 11.2917 634.473 11.2734L633.871 11.1914C633.661 11.1732 633.438 11.1549 633.201 11.1367V11.2871L633.188 15.6758ZM650.291 23.2637C648.96 24.5944 647.352 25.2598 645.465 25.2598C644.007 25.2598 642.84 24.8405 641.965 24.002C641.081 23.1543 640.639 22.056 640.639 20.707C640.639 19.0299 641.386 17.7721 642.881 16.9336C644.23 16.168 646.13 15.7852 648.582 15.7852H650.291C650.3 15.4388 650.305 15.1016 650.305 14.7734V13.748C650.305 12.5267 650.127 11.6654 649.771 11.1641C649.37 10.599 648.687 10.3164 647.721 10.3164C645.506 10.3164 644.367 11.1094 644.303 12.6953C644.294 12.9414 644.298 13.1465 644.316 13.3105C644.134 13.4564 643.824 13.5293 643.387 13.5293C642.958 13.5293 642.644 13.4792 642.443 13.3789C642.252 13.2786 642.083 13.1419 641.938 12.9688C641.628 12.6133 641.473 12.1621 641.473 11.6152C641.473 11.0592 641.632 10.5762 641.951 10.166C642.279 9.74674 642.721 9.40495 643.277 9.14062C644.362 8.60286 645.643 8.33398 647.119 8.33398C648.596 8.33398 649.703 8.47982 650.441 8.77148C651.189 9.05404 651.781 9.43229 652.219 9.90625C652.993 10.7448 653.381 11.8704 653.381 13.2832L653.244 19.8457C653.244 21.0397 653.299 21.7962 653.408 22.1152C653.527 22.4342 653.663 22.6484 653.818 22.7578C653.982 22.8672 654.178 22.9219 654.406 22.9219C654.643 22.9219 654.835 22.8854 654.98 22.8125L655.363 22.6348C655.491 22.5892 655.6 22.6439 655.691 22.7988C655.792 22.9447 655.842 23.0768 655.842 23.1953C655.842 23.3047 655.792 23.4505 655.691 23.6328C655.6 23.8151 655.423 24.0111 655.158 24.2207C654.903 24.4212 654.611 24.599 654.283 24.7539C652.469 25.6107 651.234 25.4102 650.578 24.1523C650.441 23.9062 650.346 23.61 650.291 23.2637ZM650.25 21.4727C650.25 20.1602 650.259 18.8568 650.277 17.5625C648.382 17.6354 647.092 17.7585 646.408 17.9316C645.734 18.0957 645.246 18.2552 644.945 18.4102C644.645 18.5651 644.408 18.7474 644.234 18.957C643.952 19.3034 643.811 19.8275 643.811 20.5293C643.811 21.222 644.057 21.778 644.549 22.1973C645.041 22.6074 645.747 22.8125 646.668 22.8125C647.971 22.8125 649.165 22.3659 650.25 21.4727ZM662.391 15.6758L662.377 19.2715C662.377 20.7754 662.454 21.6823 662.609 21.9922C662.764 22.293 662.947 22.4753 663.156 22.5391C663.366 22.5938 663.635 22.6211 663.963 22.6211C664.291 22.6211 664.587 22.5983 664.852 22.5527C665.125 22.498 665.38 22.4297 665.617 22.3477C665.854 22.2656 666.082 22.1745 666.301 22.0742L666.971 21.7871C667.126 21.7324 667.299 21.8919 667.49 22.2656C667.545 22.3659 667.572 22.4844 667.572 22.6211C667.572 22.7487 667.518 22.9173 667.408 23.127C667.299 23.3366 667.085 23.5781 666.766 23.8516C666.456 24.1159 666.091 24.3529 665.672 24.5625C664.76 25.0273 663.94 25.2598 663.211 25.2598C662.491 25.2598 661.903 25.2188 661.447 25.1367C660.992 25.0547 660.604 24.8906 660.285 24.6445C659.629 24.1341 659.301 23.1999 659.301 21.8418V11.082H657.947C657.665 11.082 657.46 10.9909 657.332 10.8086C657.113 10.526 657.004 10.2891 657.004 10.0977C657.004 9.77865 657.081 9.60091 657.236 9.56445C658.686 9.31836 659.711 8.24284 660.312 6.33789C660.486 5.76367 660.622 5.08464 660.723 4.30078C661.16 4.22786 661.488 4.19141 661.707 4.19141C661.935 4.19141 662.131 4.30534 662.295 4.5332C662.459 4.76107 662.536 5.02539 662.527 5.32617C662.527 5.62695 662.523 5.90951 662.514 6.17383C662.505 6.43815 662.495 6.72526 662.486 7.03516L662.432 8.94922H667.162C667.281 9.15885 667.34 9.38216 667.34 9.61914V10.043C667.34 10.4258 667.135 10.7402 666.725 10.9863C666.314 11.2233 665.859 11.3418 665.357 11.3418C664.865 11.3418 664.51 11.3372 664.291 11.3281C664.081 11.3099 663.876 11.2917 663.676 11.2734L663.074 11.1914C662.865 11.1732 662.641 11.1549 662.404 11.1367V11.2871L662.391 15.6758ZM673.014 5.79102C672.704 5.79102 672.417 5.74544 672.152 5.6543C671.897 5.55404 671.674 5.41276 671.482 5.23047C671.081 4.84766 670.881 4.33268 670.881 3.68555C670.881 3.06576 671.118 2.54167 671.592 2.11328C672.048 1.6849 672.594 1.4707 673.232 1.4707C673.87 1.4707 674.381 1.66211 674.764 2.04492C675.146 2.42773 675.338 2.94727 675.338 3.60352C675.338 4.22331 675.11 4.7474 674.654 5.17578C674.208 5.58594 673.661 5.79102 673.014 5.79102ZM672.18 25C670.776 25 670.074 24.681 670.074 24.043C670.074 23.7148 670.147 23.4596 670.293 23.2773C670.512 23.3503 670.712 23.3867 670.895 23.3867C671.742 23.3867 672.157 22.849 672.139 21.7734V12.6133C672.139 11.9753 672.048 11.5332 671.865 11.2871C671.692 11.0319 671.378 10.9043 670.922 10.9043C670.585 10.9043 670.279 10.9453 670.006 11.0273C669.842 11.0456 669.723 10.918 669.65 10.6445C669.587 10.3984 669.623 10.1842 669.76 10.002C669.896 9.81055 670.106 9.61458 670.389 9.41406C670.68 9.20443 670.999 9.02214 671.346 8.86719C672.093 8.51172 672.717 8.33398 673.219 8.33398C673.72 8.33398 674.089 8.4069 674.326 8.55273C674.572 8.69857 674.759 8.89453 674.887 9.14062C675.087 9.54167 675.188 10.1888 675.188 11.082V22.0059C675.215 22.7259 675.475 23.1634 675.967 23.3184C676.104 23.3639 676.272 23.4049 676.473 23.4414C676.673 23.4779 676.851 23.5234 677.006 23.5781C677.17 23.6237 677.298 23.6784 677.389 23.7422C677.544 23.8607 677.621 24.0521 677.621 24.3164C677.621 24.6445 677.553 24.8952 677.416 25.0684C677.225 25.0228 676.933 25 676.541 25H672.18ZM679.521 17.4531C679.521 16.3411 679.631 15.3431 679.85 14.459C680.068 13.5749 680.369 12.7956 680.752 12.1211C681.135 11.4466 681.586 10.8724 682.105 10.3984C682.625 9.91536 683.181 9.52344 683.773 9.22266C684.931 8.63021 686.202 8.33398 687.588 8.33398C689.365 8.33398 690.874 8.98112 692.113 10.2754C693.49 11.6973 694.178 13.5749 694.178 15.9082C694.178 18.9707 693.344 21.3542 691.676 23.0586C690.227 24.526 688.49 25.2598 686.467 25.2598C684.352 25.2598 682.657 24.5169 681.381 23.0312C680.141 21.6003 679.521 19.7409 679.521 17.4531ZM687.273 23.0312C687.884 23.0312 688.431 22.89 688.914 22.6074C689.397 22.3158 689.807 21.9193 690.145 21.418C690.819 20.3789 691.156 19.0299 691.156 17.3711C691.156 15.5482 690.801 13.9987 690.09 12.7227C689.288 11.2552 688.135 10.5215 686.631 10.5215C685.419 10.5215 684.448 10.9863 683.719 11.916C682.944 12.9004 682.557 14.2767 682.557 16.0449C682.557 18.2598 683.044 20.0098 684.02 21.2949C684.895 22.4525 685.979 23.0312 687.273 23.0312ZM704.363 25.0684C704.181 25.0228 703.889 25 703.488 25H699.127C698.252 25 697.691 24.8451 697.445 24.5352C697.345 24.4167 697.295 24.2799 697.295 24.125C697.295 23.7422 697.368 23.4596 697.514 23.2773C697.732 23.3503 697.979 23.3867 698.252 23.3867C698.535 23.3867 698.744 23.2728 698.881 23.0449C699.027 22.8171 699.095 22.3932 699.086 21.7734V12.832C699.086 11.9753 698.926 11.4421 698.607 11.2324C698.48 11.1504 698.311 11.1094 698.102 11.1094C697.892 11.1094 697.723 11.1413 697.596 11.2051C697.477 11.2689 697.377 11.3145 697.295 11.3418C697.222 11.3691 697.158 11.3691 697.104 11.3418C697.049 11.3053 696.994 11.2552 696.939 11.1914C696.803 11.0456 696.734 10.8952 696.734 10.7402C696.734 10.5762 696.789 10.4076 696.898 10.2344C697.017 10.0521 697.204 9.84701 697.459 9.61914C697.714 9.38216 698.006 9.16797 698.334 8.97656C699.072 8.54818 699.811 8.33398 700.549 8.33398C701.396 8.33398 701.898 8.89453 702.053 10.0156C702.098 10.3438 702.126 10.681 702.135 11.0273C703.493 9.88802 704.969 9.07682 706.564 8.59375C707.139 8.42057 707.717 8.33398 708.301 8.33398C708.893 8.33398 709.454 8.41146 709.982 8.56641C710.52 8.72135 710.985 8.97201 711.377 9.31836C712.206 10.0475 712.621 11.1868 712.621 12.7363V22.0059C712.648 22.7168 712.913 23.1543 713.414 23.3184C713.551 23.3639 713.719 23.4049 713.92 23.4414C714.12 23.4779 714.298 23.5234 714.453 23.5781C714.617 23.6237 714.745 23.6784 714.836 23.7422C714.991 23.8607 715.068 24.0521 715.068 24.3164C715.068 24.6354 714.995 24.8861 714.85 25.0684C714.667 25.0228 714.376 25 713.975 25H709.613C708.738 25 708.178 24.8451 707.932 24.5352C707.831 24.4167 707.781 24.2799 707.781 24.125C707.781 23.7422 707.854 23.4596 708 23.2773C708.219 23.3503 708.419 23.3867 708.602 23.3867C708.793 23.3867 708.952 23.3639 709.08 23.3184C709.208 23.2637 709.308 23.1771 709.381 23.0586C709.508 22.8398 709.572 22.4115 709.572 21.7734V13.707C709.572 12.1576 709.112 11.2917 708.191 11.1094C707.909 11.0547 707.553 11.0273 707.125 11.0273C706.706 11.0273 706.241 11.0911 705.73 11.2188C705.22 11.3464 704.742 11.5104 704.295 11.7109C703.438 12.0938 702.718 12.5768 702.135 13.1602V22.0059C702.162 22.7168 702.422 23.1543 702.914 23.3184C703.06 23.3639 703.229 23.4049 703.42 23.4414C703.62 23.4779 703.803 23.5234 703.967 23.5781C704.131 23.6237 704.258 23.6784 704.35 23.7422C704.505 23.8607 704.582 24.0521 704.582 24.3164C704.582 24.6354 704.509 24.8861 704.363 25.0684Z" fill="#333333"/>
</svg>
