<svg width="622" height="24" viewBox="0 0 622 24" fill="none" xmlns="http://www.w3.org/2000/svg">
<path d="M11.0898 16.8477C11.3633 16.8932 11.5684 16.916 11.7051 16.916C11.8418 16.916 11.9753 16.903 12.1055 16.877C12.2422 16.8444 12.3626 16.7956 12.4668 16.7305C12.7012 16.5872 12.8184 16.3626 12.8184 16.0566C12.8184 15.8027 12.7402 15.5195 12.584 15.207L11.666 12.9316H5.48438L4.39062 15.7051C4.28646 15.959 4.23438 16.1445 4.23438 16.2617C4.23438 16.3724 4.25065 16.457 4.2832 16.5156C4.32227 16.5677 4.3776 16.6133 4.44922 16.6523C4.52734 16.6914 4.62174 16.724 4.73242 16.75L5.13281 16.8574C5.5625 16.929 5.83919 16.9941 5.96289 17.0527C6.2168 17.1764 6.34375 17.3587 6.34375 17.5996C6.34375 17.7754 6.29492 17.9251 6.19727 18.0488C6.07357 18.0163 5.95964 18 5.85547 18H1.88086C1.01497 18 0.582031 17.7624 0.582031 17.2871C0.582031 17.0658 0.630859 16.8867 0.728516 16.75C0.969401 16.8151 1.17122 16.8477 1.33398 16.8477C1.50326 16.8477 1.64323 16.8216 1.75391 16.7695C1.87109 16.7174 1.98177 16.6296 2.08594 16.5059C2.26172 16.291 2.4668 15.8613 2.70117 15.2168L7.52539 3.53711C7.66211 3.22461 8.04948 3.00977 8.6875 2.89258C8.86328 2.86003 9.04883 2.84375 9.24414 2.84375C9.64128 2.84375 9.88542 2.95117 9.97656 3.16602L10.9531 5.60742C12.8346 10.0475 13.9219 12.6387 14.2148 13.3809L15.0938 15.6855C15.2695 16.1868 15.416 16.4961 15.5332 16.6133C15.6504 16.7305 15.7773 16.8118 15.9141 16.8574C16.0508 16.903 16.1908 16.9421 16.334 16.9746C16.4837 17.0007 16.6139 17.0365 16.7246 17.082C16.972 17.1927 17.0957 17.362 17.0957 17.5898C17.0957 17.7656 17.0469 17.9154 16.9492 18.0391C16.8255 18.0065 16.7148 17.9902 16.6172 17.9902H11.959C11.627 17.9902 11.3665 17.9512 11.1777 17.873C10.9954 17.7884 10.9043 17.6615 10.9043 17.4922C10.9043 17.1992 10.9661 16.9844 11.0898 16.8477ZM11.0996 11.5449L8.54102 5.2168L6.03125 11.5449H11.0996ZM23.2383 18.0488C23.1081 18.0163 22.8997 18 22.6133 18H19.498C18.873 18 18.4727 17.8893 18.2969 17.668C18.2253 17.5833 18.1895 17.4857 18.1895 17.375C18.1895 17.1016 18.2415 16.8997 18.3457 16.7695C18.502 16.8216 18.6777 16.8477 18.873 16.8477C19.0749 16.8477 19.2246 16.7663 19.3223 16.6035C19.4264 16.4408 19.4753 16.138 19.4688 15.6953V9.30859C19.4688 8.69661 19.3548 8.31576 19.127 8.16602C19.0358 8.10742 18.9154 8.07812 18.7656 8.07812C18.6159 8.07812 18.4954 8.10091 18.4043 8.14648C18.3197 8.19206 18.248 8.22461 18.1895 8.24414C18.1374 8.26367 18.0918 8.26367 18.0527 8.24414C18.0137 8.2181 17.9746 8.18229 17.9355 8.13672C17.8379 8.03255 17.7891 7.92513 17.7891 7.81445C17.7891 7.69727 17.8281 7.57682 17.9062 7.45312C17.9909 7.32292 18.1243 7.17643 18.3066 7.01367C18.4889 6.8444 18.6973 6.69141 18.9316 6.55469C19.459 6.2487 19.9863 6.0957 20.5137 6.0957C21.1191 6.0957 21.4772 6.49609 21.5879 7.29688C21.6204 7.53125 21.64 7.77214 21.6465 8.01953C22.6165 7.20573 23.6712 6.6263 24.8105 6.28125C25.2207 6.15755 25.6341 6.0957 26.0508 6.0957C26.474 6.0957 26.8743 6.15104 27.252 6.26172C27.6361 6.3724 27.9681 6.55143 28.248 6.79883C28.8405 7.31966 29.1367 8.13346 29.1367 9.24023V15.8613C29.1562 16.3691 29.3451 16.6816 29.7031 16.7988C29.8008 16.8314 29.9212 16.8607 30.0645 16.8867C30.2077 16.9128 30.3346 16.9453 30.4453 16.9844C30.5625 17.0169 30.6536 17.056 30.7188 17.1016C30.8294 17.1862 30.8848 17.3229 30.8848 17.5117C30.8848 17.7396 30.8327 17.9186 30.7285 18.0488C30.5983 18.0163 30.39 18 30.1035 18H26.9883C26.3633 18 25.9629 17.8893 25.7871 17.668C25.7155 17.5833 25.6797 17.4857 25.6797 17.375C25.6797 17.1016 25.7318 16.8997 25.8359 16.7695C25.9922 16.8216 26.1354 16.8477 26.2656 16.8477C26.4023 16.8477 26.5163 16.8314 26.6074 16.7988C26.6986 16.7598 26.7702 16.6979 26.8223 16.6133C26.9134 16.457 26.959 16.151 26.959 15.6953V9.93359C26.959 8.82682 26.6302 8.20833 25.9727 8.07812C25.7708 8.03906 25.5169 8.01953 25.2109 8.01953C24.9115 8.01953 24.5794 8.0651 24.2148 8.15625C23.8503 8.2474 23.5085 8.36458 23.1895 8.50781C22.5775 8.78125 22.0632 9.1263 21.6465 9.54297V15.8613C21.666 16.3691 21.8516 16.6816 22.2031 16.7988C22.3073 16.8314 22.4277 16.8607 22.5645 16.8867C22.7077 16.9128 22.8379 16.9453 22.9551 16.9844C23.0723 17.0169 23.1634 17.056 23.2285 17.1016C23.3392 17.1862 23.3945 17.3229 23.3945 17.5117C23.3945 17.7396 23.3424 17.9186 23.2383 18.0488ZM41.666 4.2793C41.4447 4.2793 41.2396 4.24674 41.0508 4.18164C40.8685 4.11003 40.709 4.00911 40.5723 3.87891C40.2858 3.60547 40.1426 3.23763 40.1426 2.77539C40.1426 2.33268 40.3118 1.95833 40.6504 1.65234C40.9759 1.34635 41.3665 1.19336 41.8223 1.19336C42.278 1.19336 42.6426 1.33008 42.916 1.60352C43.1895 1.87695 43.3262 2.24805 43.3262 2.7168C43.3262 3.15951 43.1634 3.53385 42.8379 3.83984C42.5189 4.13281 42.1283 4.2793 41.666 4.2793ZM41.0703 18C40.0677 18 39.5664 17.7721 39.5664 17.3164C39.5664 17.082 39.6185 16.8997 39.7227 16.7695C39.8789 16.8216 40.0221 16.8477 40.1523 16.8477C40.7578 16.8477 41.054 16.4635 41.041 15.6953V9.15234C41.041 8.69661 40.9759 8.38086 40.8457 8.20508C40.722 8.02279 40.4974 7.93164 40.1719 7.93164C39.931 7.93164 39.7129 7.96094 39.5176 8.01953C39.4004 8.03255 39.3158 7.94141 39.2637 7.74609C39.2181 7.57031 39.2441 7.41732 39.3418 7.28711C39.4395 7.15039 39.5892 7.01042 39.791 6.86719C39.9993 6.71745 40.2272 6.58724 40.4746 6.47656C41.0085 6.22266 41.4544 6.0957 41.8125 6.0957C42.1706 6.0957 42.4342 6.14779 42.6035 6.25195C42.7793 6.35612 42.9128 6.49609 43.0039 6.67188C43.1471 6.95833 43.2188 7.42057 43.2188 8.05859V15.8613C43.2383 16.3757 43.4238 16.6882 43.7754 16.7988C43.873 16.8314 43.9935 16.8607 44.1367 16.8867C44.2799 16.9128 44.4069 16.9453 44.5176 16.9844C44.6348 17.0169 44.7259 17.056 44.791 17.1016C44.9017 17.1862 44.957 17.3229 44.957 17.5117C44.957 17.7461 44.9082 17.9251 44.8105 18.0488C44.6738 18.0163 44.4655 18 44.1855 18H41.0703ZM51.6562 18.0488C51.526 18.0163 51.3177 18 51.0312 18H47.916C47.291 18 46.8906 17.8893 46.7148 17.668C46.6432 17.5833 46.6074 17.4857 46.6074 17.375C46.6074 17.1016 46.6595 16.8997 46.7637 16.7695C46.9199 16.8216 47.0957 16.8477 47.291 16.8477C47.4928 16.8477 47.6426 16.7663 47.7402 16.6035C47.8444 16.4408 47.8932 16.138 47.8867 15.6953V9.30859C47.8867 8.69661 47.7728 8.31576 47.5449 8.16602C47.4538 8.10742 47.3333 8.07812 47.1836 8.07812C47.0339 8.07812 46.9134 8.10091 46.8223 8.14648C46.7376 8.19206 46.666 8.22461 46.6074 8.24414C46.5553 8.26367 46.5098 8.26367 46.4707 8.24414C46.4316 8.2181 46.3926 8.18229 46.3535 8.13672C46.2559 8.03255 46.207 7.92513 46.207 7.81445C46.207 7.69727 46.2461 7.57682 46.3242 7.45312C46.4089 7.32292 46.5423 7.17643 46.7246 7.01367C46.9069 6.8444 47.1152 6.69141 47.3496 6.55469C47.877 6.2487 48.4043 6.0957 48.9316 6.0957C49.5371 6.0957 49.8952 6.49609 50.0059 7.29688C50.0384 7.53125 50.0579 7.77214 50.0645 8.01953C51.0345 7.20573 52.0892 6.6263 53.2285 6.28125C53.6387 6.15755 54.0521 6.0957 54.4688 6.0957C54.8919 6.0957 55.2923 6.15104 55.6699 6.26172C56.054 6.3724 56.3861 6.55143 56.666 6.79883C57.2585 7.31966 57.5547 8.13346 57.5547 9.24023V15.8613C57.5742 16.3691 57.763 16.6816 58.1211 16.7988C58.2188 16.8314 58.3392 16.8607 58.4824 16.8867C58.6257 16.9128 58.7526 16.9453 58.8633 16.9844C58.9805 17.0169 59.0716 17.056 59.1367 17.1016C59.2474 17.1862 59.3027 17.3229 59.3027 17.5117C59.3027 17.7396 59.2507 17.9186 59.1465 18.0488C59.0163 18.0163 58.8079 18 58.5215 18H55.4062C54.7812 18 54.3809 17.8893 54.2051 17.668C54.1335 17.5833 54.0977 17.4857 54.0977 17.375C54.0977 17.1016 54.1497 16.8997 54.2539 16.7695C54.4102 16.8216 54.5534 16.8477 54.6836 16.8477C54.8203 16.8477 54.9342 16.8314 55.0254 16.7988C55.1165 16.7598 55.1882 16.6979 55.2402 16.6133C55.3314 16.457 55.377 16.151 55.377 15.6953V9.93359C55.377 8.82682 55.0482 8.20833 54.3906 8.07812C54.1888 8.03906 53.9349 8.01953 53.6289 8.01953C53.3294 8.01953 52.9974 8.0651 52.6328 8.15625C52.2682 8.2474 51.9264 8.36458 51.6074 8.50781C50.9954 8.78125 50.4811 9.1263 50.0645 9.54297V15.8613C50.084 16.3691 50.2695 16.6816 50.6211 16.7988C50.7253 16.8314 50.8457 16.8607 50.9824 16.8867C51.1257 16.9128 51.2559 16.9453 51.373 16.9844C51.4902 17.0169 51.5814 17.056 51.6465 17.1016C51.7572 17.1862 51.8125 17.3229 51.8125 17.5117C51.8125 17.7396 51.7604 17.9186 51.6562 18.0488ZM64.1367 11.3398L64.127 13.9082C64.127 14.9824 64.1823 15.6302 64.293 15.8516C64.4036 16.0664 64.5339 16.1966 64.6836 16.2422C64.8333 16.2812 65.0254 16.3008 65.2598 16.3008C65.4941 16.3008 65.7057 16.2845 65.8945 16.252C66.0898 16.2129 66.2721 16.1641 66.4414 16.1055C66.6107 16.0469 66.7734 15.9818 66.9297 15.9102L67.4082 15.7051C67.5189 15.666 67.6426 15.7799 67.7793 16.0469C67.8184 16.1185 67.8379 16.2031 67.8379 16.3008C67.8379 16.3919 67.7988 16.5124 67.7207 16.6621C67.6426 16.8118 67.4896 16.9844 67.2617 17.1797C67.0404 17.3685 66.7799 17.5378 66.4805 17.6875C65.8294 18.0195 65.2435 18.1855 64.7227 18.1855C64.2083 18.1855 63.7884 18.1562 63.4629 18.0977C63.1374 18.0391 62.8607 17.9219 62.6328 17.7461C62.1641 17.3815 61.9297 16.7142 61.9297 15.7441V8.05859H60.9629C60.7611 8.05859 60.6146 7.99349 60.5234 7.86328C60.3672 7.66146 60.2891 7.49219 60.2891 7.35547C60.2891 7.1276 60.3444 7.00065 60.4551 6.97461C61.4902 6.79883 62.2227 6.0306 62.6523 4.66992C62.776 4.25977 62.8737 3.77474 62.9453 3.21484C63.2578 3.16276 63.4922 3.13672 63.6484 3.13672C63.8112 3.13672 63.9512 3.2181 64.0684 3.38086C64.1855 3.54362 64.2409 3.73242 64.2344 3.94727C64.2344 4.16211 64.2311 4.36393 64.2246 4.55273C64.2181 4.74154 64.2116 4.94661 64.2051 5.16797L64.166 6.53516H67.5449C67.6296 6.6849 67.6719 6.8444 67.6719 7.01367V7.31641C67.6719 7.58984 67.5254 7.81445 67.2324 7.99023C66.9395 8.15951 66.6139 8.24414 66.2559 8.24414C65.9043 8.24414 65.6504 8.24089 65.4941 8.23438C65.3444 8.22135 65.1979 8.20833 65.0547 8.19531L64.625 8.13672C64.4753 8.1237 64.3158 8.11068 64.1465 8.09766V8.20508L64.1367 11.3398ZM69.4492 12.7461C69.4492 11.9583 69.5306 11.2585 69.6934 10.6465C69.8561 10.0345 70.0742 9.48763 70.3477 9.00586C70.6276 8.51758 70.9531 8.09115 71.3242 7.72656C71.7018 7.36198 72.1055 7.05924 72.5352 6.81836C73.3815 6.33659 74.2148 6.0957 75.0352 6.0957C75.8555 6.0957 76.513 6.24219 77.0078 6.53516C77.5026 6.82161 77.9062 7.20573 78.2188 7.6875C78.7982 8.60547 79.0879 9.82617 79.0879 11.3496C79.0879 11.916 78.8503 12.2057 78.375 12.2188L71.5586 12.3652C71.5977 13.778 71.9622 14.8229 72.6523 15.5C73.2383 16.0729 73.9967 16.3594 74.9277 16.3594C76.3145 16.3594 77.4408 16.0697 78.3066 15.4902C78.3652 15.4902 78.4368 15.5391 78.5215 15.6367C78.6842 15.832 78.7656 16.0013 78.7656 16.1445C78.7656 16.457 78.375 16.8574 77.5938 17.3457C76.6953 17.9056 75.6471 18.1855 74.4492 18.1855C72.8867 18.1855 71.6595 17.6875 70.7676 16.6914C69.8887 15.7148 69.4492 14.3997 69.4492 12.7461ZM71.6172 11.1055C73.4922 11.0143 75.2077 10.8939 76.7637 10.7441C76.8353 8.67383 76.1191 7.63867 74.6152 7.63867C73.7754 7.63867 73.0885 7.96419 72.5547 8.61523C72.0664 9.21419 71.7539 10.0443 71.6172 11.1055ZM86.666 18.0488C86.5293 18.0163 86.321 18 86.041 18H82.7305C82.1055 18 81.7051 17.8893 81.5293 17.668C81.4577 17.5833 81.4219 17.4857 81.4219 17.375C81.4219 17.1016 81.474 16.8997 81.5781 16.7695C81.7344 16.8216 81.8776 16.8477 82.0078 16.8477C82.1445 16.8477 82.2585 16.8314 82.3496 16.7988C82.4408 16.7598 82.5124 16.6979 82.5645 16.6133C82.6556 16.457 82.7012 16.151 82.7012 15.6953V9.30859C82.7012 8.69661 82.5872 8.31576 82.3594 8.16602C82.2682 8.10742 82.1478 8.07812 81.998 8.07812C81.8483 8.07812 81.7279 8.10091 81.6367 8.14648C81.5521 8.19206 81.4805 8.22461 81.4219 8.24414C81.3698 8.26367 81.3242 8.26367 81.2852 8.24414C81.2461 8.2181 81.207 8.18229 81.168 8.13672C81.0703 8.01953 81.0215 7.90885 81.0215 7.80469C81.0215 7.69401 81.0605 7.57682 81.1387 7.45312C81.2233 7.32292 81.3568 7.17643 81.5391 7.01367C81.7214 6.8444 81.9297 6.69141 82.1641 6.55469C82.6914 6.2487 83.2188 6.0957 83.7461 6.0957C84.3451 6.0957 84.6999 6.48633 84.8105 7.26758C84.8431 7.49544 84.8626 7.73307 84.8691 7.98047C85.8197 7.14062 86.7995 6.56445 87.8086 6.25195C88.1471 6.14779 88.4531 6.0957 88.7266 6.0957C89.0065 6.0957 89.2344 6.13477 89.4102 6.21289C89.5924 6.29102 89.7357 6.39844 89.8398 6.53516C90.0352 6.80208 90.1328 7.14388 90.1328 7.56055C90.1328 7.97721 90.1133 8.30924 90.0742 8.55664C90.0352 8.80404 89.9863 9.02214 89.9277 9.21094C89.8105 9.59505 89.6999 9.83919 89.5957 9.94336C89.4134 10.1322 89.1693 10.2266 88.8633 10.2266C88.5508 10.2266 88.3945 10.1354 88.3945 9.95312C88.3945 9.25651 88.3652 8.81055 88.3066 8.61523C88.196 8.25716 87.9876 8.07812 87.6816 8.07812C87.3757 8.07812 87.099 8.11393 86.8516 8.18555C86.6042 8.25065 86.3633 8.3418 86.1289 8.45898C85.6536 8.69336 85.237 8.99609 84.8789 9.36719V15.8613C84.8984 16.3757 85.123 16.6882 85.5527 16.7988C85.6764 16.8314 85.8164 16.8607 85.9727 16.8867C86.1289 16.9128 86.2624 16.9453 86.373 16.9844C86.4902 17.0169 86.5814 17.056 86.6465 17.1016C86.7572 17.1862 86.8125 17.3229 86.8125 17.5117C86.8125 17.7461 86.7637 17.9251 86.666 18.0488ZM99.459 16.7793C98.4499 17.7233 97.3398 18.1953 96.1289 18.1953C94.7943 18.1953 93.707 17.7396 92.8672 16.8281C91.9557 15.8255 91.5 14.4421 91.5 12.6777C91.5 10.6921 92.1315 9.07747 93.3945 7.83398C94.5729 6.67513 95.9661 6.0957 97.5742 6.0957C98.2188 6.0957 98.8372 6.20312 99.4297 6.41797V3.5957C99.4297 3.13997 99.3841 2.85026 99.293 2.72656C99.1432 2.51823 98.8991 2.41406 98.5605 2.41406C98.4173 2.41406 98.2741 2.43034 98.1309 2.46289C97.9941 2.48893 97.8965 2.48893 97.8379 2.46289C97.7858 2.43034 97.7435 2.38802 97.7109 2.33594C97.5807 2.12109 97.7435 1.84766 98.1992 1.51562C98.9154 0.988281 99.6217 0.724609 100.318 0.724609C101.054 0.724609 101.474 1.125 101.578 1.92578C101.604 2.16667 101.617 2.42057 101.617 2.6875V14.0254C101.617 15.028 101.656 15.653 101.734 15.9004C101.812 16.1478 101.904 16.3105 102.008 16.3887C102.118 16.4603 102.255 16.4961 102.418 16.4961C102.581 16.4961 102.714 16.4701 102.818 16.418L103.111 16.291C103.196 16.2715 103.271 16.3105 103.336 16.4082C103.473 16.61 103.492 16.7923 103.395 16.9551C103.297 17.1178 103.15 17.2741 102.955 17.4238C102.76 17.5736 102.542 17.7038 102.301 17.8145C101.246 18.2897 100.458 18.2995 99.9375 17.8438C99.6836 17.6224 99.5241 17.2676 99.459 16.7793ZM99.4297 8.40039C98.7917 7.91211 98.0495 7.66797 97.2031 7.66797C96.1875 7.66797 95.3639 8.04232 94.7324 8.79102C94.0553 9.5918 93.7168 10.6823 93.7168 12.0625C93.7168 14.2565 94.3418 15.6107 95.5918 16.125C95.9824 16.2812 96.36 16.3594 96.7246 16.3594C97.0957 16.3594 97.4049 16.3301 97.6523 16.2715C97.8997 16.2129 98.1309 16.1348 98.3457 16.0371C98.7754 15.8418 99.1367 15.6042 99.4297 15.3242V8.40039ZM107.271 4.2793C107.05 4.2793 106.845 4.24674 106.656 4.18164C106.474 4.11003 106.314 4.00911 106.178 3.87891C105.891 3.60547 105.748 3.23763 105.748 2.77539C105.748 2.33268 105.917 1.95833 106.256 1.65234C106.581 1.34635 106.972 1.19336 107.428 1.19336C107.883 1.19336 108.248 1.33008 108.521 1.60352C108.795 1.87695 108.932 2.24805 108.932 2.7168C108.932 3.15951 108.769 3.53385 108.443 3.83984C108.124 4.13281 107.734 4.2793 107.271 4.2793ZM106.676 18C105.673 18 105.172 17.7721 105.172 17.3164C105.172 17.082 105.224 16.8997 105.328 16.7695C105.484 16.8216 105.628 16.8477 105.758 16.8477C106.363 16.8477 106.66 16.4635 106.646 15.6953V9.15234C106.646 8.69661 106.581 8.38086 106.451 8.20508C106.327 8.02279 106.103 7.93164 105.777 7.93164C105.536 7.93164 105.318 7.96094 105.123 8.01953C105.006 8.03255 104.921 7.94141 104.869 7.74609C104.824 7.57031 104.85 7.41732 104.947 7.28711C105.045 7.15039 105.195 7.01042 105.396 6.86719C105.605 6.71745 105.833 6.58724 106.08 6.47656C106.614 6.22266 107.06 6.0957 107.418 6.0957C107.776 6.0957 108.04 6.14779 108.209 6.25195C108.385 6.35612 108.518 6.49609 108.609 6.67188C108.753 6.95833 108.824 7.42057 108.824 8.05859V15.8613C108.844 16.3757 109.029 16.6882 109.381 16.7988C109.479 16.8314 109.599 16.8607 109.742 16.8867C109.885 16.9128 110.012 16.9453 110.123 16.9844C110.24 17.0169 110.331 17.056 110.396 17.1016C110.507 17.1862 110.562 17.3229 110.562 17.5117C110.562 17.7461 110.514 17.9251 110.416 18.0488C110.279 18.0163 110.071 18 109.791 18H106.676ZM118.707 9.5625C118.707 8.5599 118.29 7.89583 117.457 7.57031C117.19 7.46615 116.9 7.41406 116.588 7.41406C116.282 7.41406 115.995 7.4401 115.729 7.49219C115.468 7.54427 115.237 7.62565 115.035 7.73633C114.579 7.98372 114.352 8.33854 114.352 8.80078C114.352 9.24349 114.54 9.6276 114.918 9.95312C115.335 10.2982 116.109 10.7246 117.242 11.2324C118.375 11.7337 119.247 12.2839 119.859 12.8828C120.478 13.4753 120.787 14.1589 120.787 14.9336C120.787 15.806 120.429 16.5417 119.713 17.1406C118.873 17.8372 117.711 18.1855 116.227 18.1855C114.41 18.1855 113.154 17.7982 112.457 17.0234C112.216 16.75 112.096 16.4017 112.096 15.9785C112.096 14.9564 112.346 14.3607 112.848 14.1914C112.971 14.1523 113.089 14.1328 113.199 14.1328C113.505 14.1328 113.671 14.2272 113.697 14.416C113.84 16.0436 114.752 16.8574 116.432 16.8574C117.441 16.8574 118.115 16.5742 118.453 16.0078C118.564 15.8255 118.619 15.6042 118.619 15.3438C118.619 15.0833 118.535 14.8457 118.365 14.6309C118.202 14.416 117.975 14.2174 117.682 14.0352C117.389 13.8464 117.04 13.6641 116.637 13.4883L115.338 12.9023C113.346 11.9909 112.35 10.7799 112.35 9.26953C112.35 8.29297 112.783 7.51172 113.648 6.92578C114.469 6.3724 115.527 6.0957 116.822 6.0957C118.58 6.0957 119.674 6.47656 120.104 7.23828C120.214 7.43359 120.27 7.64844 120.27 7.88281C120.27 8.11719 120.257 8.32878 120.23 8.51758C120.204 8.69987 120.172 8.86589 120.133 9.01562C120.068 9.30208 119.993 9.50391 119.908 9.62109C119.739 9.74479 119.495 9.80664 119.176 9.80664C118.863 9.80664 118.707 9.72526 118.707 9.5625ZM129.898 9.66016L129.908 9.30859C129.908 9.1849 129.879 8.97656 129.82 8.68359C129.762 8.38411 129.573 8.13997 129.254 7.95117C128.941 7.76237 128.541 7.66797 128.053 7.66797C127.571 7.66797 127.141 7.79167 126.764 8.03906C126.393 8.27995 126.09 8.60547 125.855 9.01562C125.413 9.79688 125.191 10.8418 125.191 12.1504C125.191 13.3874 125.491 14.3932 126.09 15.168C126.702 15.9622 127.509 16.3594 128.512 16.3594C129.423 16.3594 130.296 16.1087 131.129 15.6074C131.331 15.4837 131.487 15.3763 131.598 15.2852C131.663 15.2852 131.738 15.3372 131.822 15.4414C131.985 15.6302 132.066 15.7832 132.066 15.9004C132.066 16.0111 132.021 16.1413 131.93 16.291C131.839 16.4342 131.705 16.5905 131.529 16.7598C131.36 16.9225 131.155 17.0885 130.914 17.2578C130.673 17.4271 130.403 17.5801 130.104 17.7168C129.42 18.0293 128.72 18.1855 128.004 18.1855C127.288 18.1855 126.617 18.0651 125.992 17.8242C125.374 17.5768 124.84 17.2155 124.391 16.7402C123.427 15.7311 122.945 14.3444 122.945 12.5801C122.945 10.5749 123.557 8.96354 124.781 7.74609C125.895 6.64583 127.18 6.0957 128.639 6.0957C129.596 6.0957 130.393 6.30078 131.031 6.71094C131.702 7.14062 132.037 7.70703 132.037 8.41016C132.037 8.79427 131.952 9.08398 131.783 9.2793C131.49 9.62435 131.148 9.79688 130.758 9.79688C130.374 9.79688 130.087 9.7513 129.898 9.66016ZM136.236 4.2793C136.015 4.2793 135.81 4.24674 135.621 4.18164C135.439 4.11003 135.279 4.00911 135.143 3.87891C134.856 3.60547 134.713 3.23763 134.713 2.77539C134.713 2.33268 134.882 1.95833 135.221 1.65234C135.546 1.34635 135.937 1.19336 136.393 1.19336C136.848 1.19336 137.213 1.33008 137.486 1.60352C137.76 1.87695 137.896 2.24805 137.896 2.7168C137.896 3.15951 137.734 3.53385 137.408 3.83984C137.089 4.13281 136.699 4.2793 136.236 4.2793ZM135.641 18C134.638 18 134.137 17.7721 134.137 17.3164C134.137 17.082 134.189 16.8997 134.293 16.7695C134.449 16.8216 134.592 16.8477 134.723 16.8477C135.328 16.8477 135.624 16.4635 135.611 15.6953V9.15234C135.611 8.69661 135.546 8.38086 135.416 8.20508C135.292 8.02279 135.068 7.93164 134.742 7.93164C134.501 7.93164 134.283 7.96094 134.088 8.01953C133.971 8.03255 133.886 7.94141 133.834 7.74609C133.788 7.57031 133.814 7.41732 133.912 7.28711C134.01 7.15039 134.16 7.01042 134.361 6.86719C134.57 6.71745 134.798 6.58724 135.045 6.47656C135.579 6.22266 136.025 6.0957 136.383 6.0957C136.741 6.0957 137.005 6.14779 137.174 6.25195C137.35 6.35612 137.483 6.49609 137.574 6.67188C137.717 6.95833 137.789 7.42057 137.789 8.05859V15.8613C137.809 16.3757 137.994 16.6882 138.346 16.7988C138.443 16.8314 138.564 16.8607 138.707 16.8867C138.85 16.9128 138.977 16.9453 139.088 16.9844C139.205 17.0169 139.296 17.056 139.361 17.1016C139.472 17.1862 139.527 17.3229 139.527 17.5117C139.527 17.7461 139.479 17.9251 139.381 18.0488C139.244 18.0163 139.036 18 138.756 18H135.641ZM145.973 21.6523C146.057 21.763 146.1 21.903 146.1 22.0723C146.1 22.2415 146.025 22.3848 145.875 22.502C145.725 22.6257 145.543 22.7266 145.328 22.8047C144.918 22.9479 144.524 23.0195 144.146 23.0195C143.769 23.0195 143.456 22.9935 143.209 22.9414C142.962 22.8893 142.757 22.7982 142.594 22.668C142.281 22.4076 142.125 21.9681 142.125 21.3496V9.30859C142.125 8.69661 142.011 8.31576 141.783 8.16602C141.692 8.10742 141.572 8.07812 141.422 8.07812C141.272 8.07812 141.152 8.10091 141.061 8.14648C140.976 8.19206 140.904 8.22461 140.846 8.24414C140.794 8.26367 140.748 8.26367 140.709 8.24414C140.67 8.2181 140.631 8.18229 140.592 8.13672C140.494 8.01953 140.445 7.90885 140.445 7.80469C140.445 7.69401 140.484 7.57682 140.562 7.45312C140.647 7.32292 140.781 7.17643 140.963 7.01367C141.145 6.8444 141.354 6.69141 141.588 6.55469C142.115 6.2487 142.643 6.0957 143.17 6.0957C143.808 6.0957 144.176 6.57422 144.273 7.53125C145.296 6.57422 146.409 6.0957 147.613 6.0957C148.941 6.0957 150.029 6.55469 150.875 7.47266C151.793 8.46224 152.252 9.84245 152.252 11.6133C152.252 12.9349 151.952 14.1165 151.354 15.1582C150.807 16.1087 150.055 16.8542 149.098 17.3945C148.18 17.9219 147.203 18.1855 146.168 18.1855C145.589 18.1855 144.967 18.0944 144.303 17.9121V19.2695C144.303 20.3242 144.361 20.972 144.479 21.2129C144.602 21.4603 144.726 21.6068 144.85 21.6523C144.98 21.6979 145.126 21.7207 145.289 21.7207C145.458 21.7207 145.686 21.6979 145.973 21.6523ZM144.303 9.05469V15.832C144.921 16.3594 145.667 16.623 146.539 16.623C147.555 16.623 148.382 16.2487 149.02 15.5C149.697 14.6992 150.035 13.6087 150.035 12.2285C150.035 10.7767 149.736 9.67969 149.137 8.9375C148.603 8.26693 147.861 7.93164 146.91 7.93164C145.96 7.93164 145.09 8.30599 144.303 9.05469ZM156.061 18C155.064 18 154.566 17.7721 154.566 17.3164C154.566 17.0755 154.615 16.8932 154.713 16.7695C154.869 16.8216 155.016 16.8477 155.152 16.8477C155.719 16.8477 156.012 16.5059 156.031 15.8223V3.5957C156.031 3.13997 155.986 2.85026 155.895 2.72656C155.745 2.51823 155.504 2.41406 155.172 2.41406C155.022 2.41406 154.876 2.43034 154.732 2.46289C154.596 2.48893 154.498 2.48893 154.439 2.46289C154.387 2.43034 154.345 2.38802 154.312 2.33594C154.182 2.12109 154.345 1.84766 154.801 1.51562C155.517 0.988281 156.223 0.724609 156.92 0.724609C157.662 0.724609 158.079 1.125 158.17 1.92578C158.196 2.16667 158.209 2.42057 158.209 2.6875V15.8613C158.229 16.3691 158.414 16.6816 158.766 16.7988C158.87 16.8314 158.99 16.8607 159.127 16.8867C159.27 16.9128 159.4 16.9453 159.518 16.9844C159.635 17.0169 159.726 17.056 159.791 17.1016C159.902 17.1862 159.957 17.3229 159.957 17.5117C159.957 17.7396 159.905 17.9186 159.801 18.0488C159.671 18.0163 159.462 18 159.176 18H156.061ZM163.619 4.2793C163.398 4.2793 163.193 4.24674 163.004 4.18164C162.822 4.11003 162.662 4.00911 162.525 3.87891C162.239 3.60547 162.096 3.23763 162.096 2.77539C162.096 2.33268 162.265 1.95833 162.604 1.65234C162.929 1.34635 163.32 1.19336 163.775 1.19336C164.231 1.19336 164.596 1.33008 164.869 1.60352C165.143 1.87695 165.279 2.24805 165.279 2.7168C165.279 3.15951 165.117 3.53385 164.791 3.83984C164.472 4.13281 164.081 4.2793 163.619 4.2793ZM163.023 18C162.021 18 161.52 17.7721 161.52 17.3164C161.52 17.082 161.572 16.8997 161.676 16.7695C161.832 16.8216 161.975 16.8477 162.105 16.8477C162.711 16.8477 163.007 16.4635 162.994 15.6953V9.15234C162.994 8.69661 162.929 8.38086 162.799 8.20508C162.675 8.02279 162.451 7.93164 162.125 7.93164C161.884 7.93164 161.666 7.96094 161.471 8.01953C161.354 8.03255 161.269 7.94141 161.217 7.74609C161.171 7.57031 161.197 7.41732 161.295 7.28711C161.393 7.15039 161.542 7.01042 161.744 6.86719C161.952 6.71745 162.18 6.58724 162.428 6.47656C162.962 6.22266 163.408 6.0957 163.766 6.0957C164.124 6.0957 164.387 6.14779 164.557 6.25195C164.732 6.35612 164.866 6.49609 164.957 6.67188C165.1 6.95833 165.172 7.42057 165.172 8.05859V15.8613C165.191 16.3757 165.377 16.6882 165.729 16.7988C165.826 16.8314 165.947 16.8607 166.09 16.8867C166.233 16.9128 166.36 16.9453 166.471 16.9844C166.588 17.0169 166.679 17.056 166.744 17.1016C166.855 17.1862 166.91 17.3229 166.91 17.5117C166.91 17.7461 166.861 17.9251 166.764 18.0488C166.627 18.0163 166.419 18 166.139 18H163.023ZM173.609 18.0488C173.479 18.0163 173.271 18 172.984 18H169.869C169.244 18 168.844 17.8893 168.668 17.668C168.596 17.5833 168.561 17.4857 168.561 17.375C168.561 17.1016 168.613 16.8997 168.717 16.7695C168.873 16.8216 169.049 16.8477 169.244 16.8477C169.446 16.8477 169.596 16.7663 169.693 16.6035C169.798 16.4408 169.846 16.138 169.84 15.6953V9.30859C169.84 8.69661 169.726 8.31576 169.498 8.16602C169.407 8.10742 169.286 8.07812 169.137 8.07812C168.987 8.07812 168.867 8.10091 168.775 8.14648C168.691 8.19206 168.619 8.22461 168.561 8.24414C168.508 8.26367 168.463 8.26367 168.424 8.24414C168.385 8.2181 168.346 8.18229 168.307 8.13672C168.209 8.03255 168.16 7.92513 168.16 7.81445C168.16 7.69727 168.199 7.57682 168.277 7.45312C168.362 7.32292 168.495 7.17643 168.678 7.01367C168.86 6.8444 169.068 6.69141 169.303 6.55469C169.83 6.2487 170.357 6.0957 170.885 6.0957C171.49 6.0957 171.848 6.49609 171.959 7.29688C171.992 7.53125 172.011 7.77214 172.018 8.01953C172.988 7.20573 174.042 6.6263 175.182 6.28125C175.592 6.15755 176.005 6.0957 176.422 6.0957C176.845 6.0957 177.245 6.15104 177.623 6.26172C178.007 6.3724 178.339 6.55143 178.619 6.79883C179.212 7.31966 179.508 8.13346 179.508 9.24023V15.8613C179.527 16.3691 179.716 16.6816 180.074 16.7988C180.172 16.8314 180.292 16.8607 180.436 16.8867C180.579 16.9128 180.706 16.9453 180.816 16.9844C180.934 17.0169 181.025 17.056 181.09 17.1016C181.201 17.1862 181.256 17.3229 181.256 17.5117C181.256 17.7396 181.204 17.9186 181.1 18.0488C180.969 18.0163 180.761 18 180.475 18H177.359C176.734 18 176.334 17.8893 176.158 17.668C176.087 17.5833 176.051 17.4857 176.051 17.375C176.051 17.1016 176.103 16.8997 176.207 16.7695C176.363 16.8216 176.507 16.8477 176.637 16.8477C176.773 16.8477 176.887 16.8314 176.979 16.7988C177.07 16.7598 177.141 16.6979 177.193 16.6133C177.285 16.457 177.33 16.151 177.33 15.6953V9.93359C177.33 8.82682 177.001 8.20833 176.344 8.07812C176.142 8.03906 175.888 8.01953 175.582 8.01953C175.283 8.01953 174.951 8.0651 174.586 8.15625C174.221 8.2474 173.88 8.36458 173.561 8.50781C172.949 8.78125 172.434 9.1263 172.018 9.54297V15.8613C172.037 16.3691 172.223 16.6816 172.574 16.7988C172.678 16.8314 172.799 16.8607 172.936 16.8867C173.079 16.9128 173.209 16.9453 173.326 16.9844C173.443 17.0169 173.535 17.056 173.6 17.1016C173.71 17.1862 173.766 17.3229 173.766 17.5117C173.766 17.7396 173.714 17.9186 173.609 18.0488ZM189.635 16.7598C188.684 17.7103 187.535 18.1855 186.188 18.1855C185.146 18.1855 184.312 17.8861 183.688 17.2871C183.056 16.6816 182.74 15.8971 182.74 14.9336C182.74 13.7357 183.274 12.8372 184.342 12.2383C185.305 11.6914 186.663 11.418 188.414 11.418H189.635C189.641 11.1706 189.645 10.9297 189.645 10.6953V9.96289C189.645 9.09049 189.518 8.47526 189.264 8.11719C188.977 7.71354 188.489 7.51172 187.799 7.51172C186.217 7.51172 185.403 8.07812 185.357 9.21094C185.351 9.38672 185.354 9.5332 185.367 9.65039C185.237 9.75456 185.016 9.80664 184.703 9.80664C184.397 9.80664 184.173 9.77083 184.029 9.69922C183.893 9.6276 183.772 9.52995 183.668 9.40625C183.447 9.15234 183.336 8.83008 183.336 8.43945C183.336 8.04232 183.45 7.69727 183.678 7.4043C183.912 7.10482 184.228 6.86068 184.625 6.67188C185.4 6.28776 186.314 6.0957 187.369 6.0957C188.424 6.0957 189.215 6.19987 189.742 6.4082C190.276 6.61003 190.699 6.88021 191.012 7.21875C191.565 7.81771 191.842 8.62174 191.842 9.63086L191.744 14.3184C191.744 15.1712 191.783 15.7116 191.861 15.9395C191.946 16.1673 192.044 16.3203 192.154 16.3984C192.271 16.4766 192.411 16.5156 192.574 16.5156C192.743 16.5156 192.88 16.4896 192.984 16.4375L193.258 16.3105C193.349 16.278 193.427 16.3171 193.492 16.4277C193.564 16.5319 193.6 16.6263 193.6 16.7109C193.6 16.7891 193.564 16.8932 193.492 17.0234C193.427 17.1536 193.3 17.2936 193.111 17.4434C192.929 17.5866 192.721 17.7135 192.486 17.8242C191.191 18.4362 190.309 18.293 189.84 17.3945C189.742 17.2188 189.674 17.0072 189.635 16.7598ZM189.605 15.4805C189.605 14.543 189.612 13.612 189.625 12.6875C188.271 12.7396 187.35 12.8275 186.861 12.9512C186.38 13.0684 186.031 13.1823 185.816 13.293C185.602 13.4036 185.432 13.5339 185.309 13.6836C185.107 13.931 185.006 14.3053 185.006 14.8066C185.006 15.3014 185.182 15.6986 185.533 15.998C185.885 16.291 186.389 16.4375 187.047 16.4375C187.978 16.4375 188.831 16.1185 189.605 15.4805ZM200.318 18.0488C200.182 18.0163 199.973 18 199.693 18H196.383C195.758 18 195.357 17.8893 195.182 17.668C195.11 17.5833 195.074 17.4857 195.074 17.375C195.074 17.1016 195.126 16.8997 195.23 16.7695C195.387 16.8216 195.53 16.8477 195.66 16.8477C195.797 16.8477 195.911 16.8314 196.002 16.7988C196.093 16.7598 196.165 16.6979 196.217 16.6133C196.308 16.457 196.354 16.151 196.354 15.6953V9.30859C196.354 8.69661 196.24 8.31576 196.012 8.16602C195.921 8.10742 195.8 8.07812 195.65 8.07812C195.501 8.07812 195.38 8.10091 195.289 8.14648C195.204 8.19206 195.133 8.22461 195.074 8.24414C195.022 8.26367 194.977 8.26367 194.938 8.24414C194.898 8.2181 194.859 8.18229 194.82 8.13672C194.723 8.01953 194.674 7.90885 194.674 7.80469C194.674 7.69401 194.713 7.57682 194.791 7.45312C194.876 7.32292 195.009 7.17643 195.191 7.01367C195.374 6.8444 195.582 6.69141 195.816 6.55469C196.344 6.2487 196.871 6.0957 197.398 6.0957C197.997 6.0957 198.352 6.48633 198.463 7.26758C198.495 7.49544 198.515 7.73307 198.521 7.98047C199.472 7.14062 200.452 6.56445 201.461 6.25195C201.799 6.14779 202.105 6.0957 202.379 6.0957C202.659 6.0957 202.887 6.13477 203.062 6.21289C203.245 6.29102 203.388 6.39844 203.492 6.53516C203.688 6.80208 203.785 7.14388 203.785 7.56055C203.785 7.97721 203.766 8.30924 203.727 8.55664C203.688 8.80404 203.639 9.02214 203.58 9.21094C203.463 9.59505 203.352 9.83919 203.248 9.94336C203.066 10.1322 202.822 10.2266 202.516 10.2266C202.203 10.2266 202.047 10.1354 202.047 9.95312C202.047 9.25651 202.018 8.81055 201.959 8.61523C201.848 8.25716 201.64 8.07812 201.334 8.07812C201.028 8.07812 200.751 8.11393 200.504 8.18555C200.257 8.25065 200.016 8.3418 199.781 8.45898C199.306 8.69336 198.889 8.99609 198.531 9.36719V15.8613C198.551 16.3757 198.775 16.6882 199.205 16.7988C199.329 16.8314 199.469 16.8607 199.625 16.8867C199.781 16.9128 199.915 16.9453 200.025 16.9844C200.143 17.0169 200.234 17.056 200.299 17.1016C200.41 17.1862 200.465 17.3229 200.465 17.5117C200.465 17.7461 200.416 17.9251 200.318 18.0488ZM204.723 7.66797L204.518 7.70703C204.374 7.70703 204.273 7.60938 204.215 7.41406C204.195 7.36198 204.186 7.28711 204.186 7.18945C204.186 7.0918 204.241 6.97135 204.352 6.82812C204.462 6.6849 204.605 6.5612 204.781 6.45703C205.172 6.21615 205.585 6.0957 206.021 6.0957C206.367 6.0957 206.614 6.14453 206.764 6.24219C207.057 6.42448 207.285 6.79557 207.447 7.35547L210.426 15.998C211.038 14.6374 211.458 13.6738 211.686 13.1074L212.281 11.5938C212.835 10.1094 213.111 9.14258 213.111 8.69336C213.111 8.23763 213.033 7.9056 212.877 7.69727C212.721 7.48893 212.451 7.36523 212.066 7.32617C211.995 7.24805 211.959 7.14388 211.959 7.01367C211.959 6.87695 212.018 6.75326 212.135 6.64258C212.258 6.52539 212.418 6.42448 212.613 6.33984C213.01 6.17708 213.417 6.0957 213.834 6.0957C214.257 6.0957 214.557 6.11849 214.732 6.16406C214.908 6.20312 215.048 6.27148 215.152 6.36914C215.354 6.55143 215.455 6.88997 215.455 7.38477C215.455 7.82747 215.107 8.99609 214.41 10.8906C213.759 12.5833 213.271 13.8105 212.945 14.5723C211.747 17.2415 210.846 19.11 210.24 20.1777C209.635 21.2454 209.062 21.9844 208.521 22.3945C207.981 22.8112 207.411 23.0195 206.812 23.0195C206.214 23.0195 205.761 22.8893 205.455 22.6289C205.149 22.375 204.996 22.0234 204.996 21.5742C204.996 21.2357 205.081 20.9818 205.25 20.8125C205.569 20.4935 205.908 20.3698 206.266 20.4414C206.324 20.9297 206.617 21.1738 207.145 21.1738C207.62 21.1738 208.046 20.8646 208.424 20.2461C208.6 19.9531 208.772 19.6113 208.941 19.2207L209.508 17.9609L209.703 17.5605C209.326 17.5085 209.007 17.3229 208.746 17.0039C208.642 16.8802 208.557 16.724 208.492 16.5352L205.758 9.35742L205.523 8.78125C205.224 8.03906 204.957 7.66797 204.723 7.66797ZM227.34 11.3398L227.33 13.9082C227.33 14.9824 227.385 15.6302 227.496 15.8516C227.607 16.0664 227.737 16.1966 227.887 16.2422C228.036 16.2812 228.229 16.3008 228.463 16.3008C228.697 16.3008 228.909 16.2845 229.098 16.252C229.293 16.2129 229.475 16.1641 229.645 16.1055C229.814 16.0469 229.977 15.9818 230.133 15.9102L230.611 15.7051C230.722 15.666 230.846 15.7799 230.982 16.0469C231.021 16.1185 231.041 16.2031 231.041 16.3008C231.041 16.3919 231.002 16.5124 230.924 16.6621C230.846 16.8118 230.693 16.9844 230.465 17.1797C230.243 17.3685 229.983 17.5378 229.684 17.6875C229.033 18.0195 228.447 18.1855 227.926 18.1855C227.411 18.1855 226.992 18.1562 226.666 18.0977C226.34 18.0391 226.064 17.9219 225.836 17.7461C225.367 17.3815 225.133 16.7142 225.133 15.7441V8.05859H224.166C223.964 8.05859 223.818 7.99349 223.727 7.86328C223.57 7.66146 223.492 7.49219 223.492 7.35547C223.492 7.1276 223.548 7.00065 223.658 6.97461C224.693 6.79883 225.426 6.0306 225.855 4.66992C225.979 4.25977 226.077 3.77474 226.148 3.21484C226.461 3.16276 226.695 3.13672 226.852 3.13672C227.014 3.13672 227.154 3.2181 227.271 3.38086C227.389 3.54362 227.444 3.73242 227.438 3.94727C227.438 4.16211 227.434 4.36393 227.428 4.55273C227.421 4.74154 227.415 4.94661 227.408 5.16797L227.369 6.53516H230.748C230.833 6.6849 230.875 6.8444 230.875 7.01367V7.31641C230.875 7.58984 230.729 7.81445 230.436 7.99023C230.143 8.15951 229.817 8.24414 229.459 8.24414C229.107 8.24414 228.854 8.24089 228.697 8.23438C228.548 8.22135 228.401 8.20833 228.258 8.19531L227.828 8.13672C227.678 8.1237 227.519 8.11068 227.35 8.09766V8.20508L227.34 11.3398ZM232.652 12.7461C232.652 11.9583 232.734 11.2585 232.896 10.6465C233.059 10.0345 233.277 9.48763 233.551 9.00586C233.831 8.51758 234.156 8.09115 234.527 7.72656C234.905 7.36198 235.309 7.05924 235.738 6.81836C236.585 6.33659 237.418 6.0957 238.238 6.0957C239.059 6.0957 239.716 6.24219 240.211 6.53516C240.706 6.82161 241.109 7.20573 241.422 7.6875C242.001 8.60547 242.291 9.82617 242.291 11.3496C242.291 11.916 242.053 12.2057 241.578 12.2188L234.762 12.3652C234.801 13.778 235.165 14.8229 235.855 15.5C236.441 16.0729 237.2 16.3594 238.131 16.3594C239.518 16.3594 240.644 16.0697 241.51 15.4902C241.568 15.4902 241.64 15.5391 241.725 15.6367C241.887 15.832 241.969 16.0013 241.969 16.1445C241.969 16.457 241.578 16.8574 240.797 17.3457C239.898 17.9056 238.85 18.1855 237.652 18.1855C236.09 18.1855 234.863 17.6875 233.971 16.6914C233.092 15.7148 232.652 14.3997 232.652 12.7461ZM234.82 11.1055C236.695 11.0143 238.411 10.8939 239.967 10.7441C240.038 8.67383 239.322 7.63867 237.818 7.63867C236.979 7.63867 236.292 7.96419 235.758 8.61523C235.27 9.21419 234.957 10.0443 234.82 11.1055ZM251.373 16.7598C250.423 17.7103 249.273 18.1855 247.926 18.1855C246.884 18.1855 246.051 17.8861 245.426 17.2871C244.794 16.6816 244.479 15.8971 244.479 14.9336C244.479 13.7357 245.012 12.8372 246.08 12.2383C247.044 11.6914 248.401 11.418 250.152 11.418H251.373C251.38 11.1706 251.383 10.9297 251.383 10.6953V9.96289C251.383 9.09049 251.256 8.47526 251.002 8.11719C250.715 7.71354 250.227 7.51172 249.537 7.51172C247.955 7.51172 247.141 8.07812 247.096 9.21094C247.089 9.38672 247.092 9.5332 247.105 9.65039C246.975 9.75456 246.754 9.80664 246.441 9.80664C246.135 9.80664 245.911 9.77083 245.768 9.69922C245.631 9.6276 245.51 9.52995 245.406 9.40625C245.185 9.15234 245.074 8.83008 245.074 8.43945C245.074 8.04232 245.188 7.69727 245.416 7.4043C245.65 7.10482 245.966 6.86068 246.363 6.67188C247.138 6.28776 248.053 6.0957 249.107 6.0957C250.162 6.0957 250.953 6.19987 251.48 6.4082C252.014 6.61003 252.438 6.88021 252.75 7.21875C253.303 7.81771 253.58 8.62174 253.58 9.63086L253.482 14.3184C253.482 15.1712 253.521 15.7116 253.6 15.9395C253.684 16.1673 253.782 16.3203 253.893 16.3984C254.01 16.4766 254.15 16.5156 254.312 16.5156C254.482 16.5156 254.618 16.4896 254.723 16.4375L254.996 16.3105C255.087 16.278 255.165 16.3171 255.23 16.4277C255.302 16.5319 255.338 16.6263 255.338 16.7109C255.338 16.7891 255.302 16.8932 255.23 17.0234C255.165 17.1536 255.038 17.2936 254.85 17.4434C254.667 17.5866 254.459 17.7135 254.225 17.8242C252.929 18.4362 252.047 18.293 251.578 17.3945C251.48 17.2188 251.412 17.0072 251.373 16.7598ZM251.344 15.4805C251.344 14.543 251.35 13.612 251.363 12.6875C250.009 12.7396 249.088 12.8275 248.6 12.9512C248.118 13.0684 247.77 13.1823 247.555 13.293C247.34 13.4036 247.171 13.5339 247.047 13.6836C246.845 13.931 246.744 14.3053 246.744 14.8066C246.744 15.3014 246.92 15.6986 247.271 15.998C247.623 16.291 248.128 16.4375 248.785 16.4375C249.716 16.4375 250.569 16.1185 251.344 15.4805ZM261.91 18.0488C261.78 18.0163 261.572 18 261.285 18H258.17C257.545 18 257.145 17.8893 256.969 17.668C256.897 17.5833 256.861 17.4857 256.861 17.375C256.861 17.1016 256.913 16.8997 257.018 16.7695C257.174 16.8216 257.35 16.8477 257.545 16.8477C257.747 16.8477 257.896 16.7663 257.994 16.6035C258.098 16.4408 258.147 16.138 258.141 15.6953V9.30859C258.141 8.69661 258.027 8.31576 257.799 8.16602C257.708 8.10742 257.587 8.07812 257.438 8.07812C257.288 8.07812 257.167 8.10091 257.076 8.14648C256.992 8.19206 256.92 8.22461 256.861 8.24414C256.809 8.26367 256.764 8.26367 256.725 8.24414C256.686 8.2181 256.646 8.18229 256.607 8.13672C256.51 8.03255 256.461 7.92513 256.461 7.81445C256.461 7.69727 256.5 7.57682 256.578 7.45312C256.663 7.32292 256.796 7.17643 256.979 7.01367C257.161 6.8444 257.369 6.69141 257.604 6.55469C258.131 6.2487 258.658 6.0957 259.186 6.0957C259.765 6.0957 260.113 6.46354 260.23 7.19922C260.27 7.42057 260.296 7.64844 260.309 7.88281C261.285 7.10807 262.307 6.56771 263.375 6.26172C263.766 6.15104 264.143 6.0957 264.508 6.0957C266.057 6.0957 267.037 6.70768 267.447 7.93164C268.463 7.12435 269.495 6.56771 270.543 6.26172C270.94 6.15104 271.344 6.0957 271.754 6.0957C272.164 6.0957 272.558 6.15104 272.936 6.26172C273.32 6.3724 273.648 6.55143 273.922 6.79883C274.521 7.33268 274.82 8.14648 274.82 9.24023V15.793C274.82 16.3268 275.003 16.6589 275.367 16.7891C275.471 16.8281 275.595 16.8607 275.738 16.8867C275.882 16.9128 276.012 16.9453 276.129 16.9844C276.246 17.0169 276.337 17.056 276.402 17.1016C276.513 17.1862 276.568 17.3229 276.568 17.5117C276.568 17.7396 276.516 17.9186 276.412 18.0488C276.282 18.0163 276.074 18 275.787 18H272.672C272.047 18 271.646 17.8893 271.471 17.668C271.399 17.5833 271.363 17.4857 271.363 17.375C271.363 17.1016 271.415 16.8997 271.52 16.7695C271.676 16.8216 271.848 16.8477 272.037 16.8477C272.226 16.8477 272.369 16.7858 272.467 16.6621C272.571 16.5319 272.63 16.2943 272.643 15.9492V9.93359C272.643 8.82682 272.314 8.20833 271.656 8.07812C271.454 8.03906 271.214 8.01953 270.934 8.01953C270.66 8.01953 270.361 8.05534 270.035 8.12695C269.716 8.19206 269.41 8.2832 269.117 8.40039C268.551 8.62826 268.056 8.91797 267.633 9.26953V15.793C267.633 16.3333 267.815 16.6654 268.18 16.7891C268.284 16.8281 268.408 16.8607 268.551 16.8867C268.694 16.9128 268.821 16.9453 268.932 16.9844C269.049 17.0169 269.14 17.056 269.205 17.1016C269.316 17.1862 269.371 17.3229 269.371 17.5117C269.371 17.7461 269.322 17.9251 269.225 18.0488C269.094 18.0163 268.886 18 268.6 18H265.484C264.859 18 264.459 17.8893 264.283 17.668C264.212 17.5833 264.176 17.4857 264.176 17.375C264.176 17.0951 264.225 16.8932 264.322 16.7695C264.485 16.8216 264.661 16.8477 264.85 16.8477C265.038 16.8477 265.182 16.7793 265.279 16.6426C265.383 16.5059 265.442 16.2552 265.455 15.8906V9.93359C265.455 8.82682 265.126 8.20833 264.469 8.07812C264.267 8.03906 264.023 8.01953 263.736 8.01953C263.45 8.01953 263.137 8.05859 262.799 8.13672C262.46 8.21484 262.138 8.31901 261.832 8.44922C261.246 8.6901 260.742 8.99609 260.318 9.36719V15.793C260.318 16.3268 260.504 16.6589 260.875 16.7891C260.973 16.8281 261.093 16.8607 261.236 16.8867C261.38 16.9128 261.51 16.9453 261.627 16.9844C261.744 17.0169 261.835 17.056 261.9 17.1016C262.011 17.1862 262.066 17.3229 262.066 17.5117C262.066 17.7396 262.014 17.9186 261.91 18.0488ZM284.986 12.6094C284.986 11.8151 285.064 11.1022 285.221 10.4707C285.377 9.83919 285.592 9.28255 285.865 8.80078C286.139 8.31901 286.461 7.90885 286.832 7.57031C287.203 7.22526 287.6 6.94531 288.023 6.73047C288.85 6.30729 289.758 6.0957 290.748 6.0957C292.018 6.0957 293.095 6.55794 293.98 7.48242C294.964 8.49805 295.455 9.83919 295.455 11.5059C295.455 13.6934 294.859 15.3958 293.668 16.6133C292.633 17.6615 291.393 18.1855 289.947 18.1855C288.437 18.1855 287.226 17.6549 286.314 16.5938C285.429 15.5716 284.986 14.2435 284.986 12.6094ZM290.523 16.5938C290.96 16.5938 291.35 16.4928 291.695 16.291C292.04 16.0827 292.333 15.7995 292.574 15.4414C293.056 14.6992 293.297 13.7357 293.297 12.5508C293.297 11.2487 293.043 10.1419 292.535 9.23047C291.962 8.18229 291.139 7.6582 290.064 7.6582C289.199 7.6582 288.505 7.99023 287.984 8.6543C287.431 9.35742 287.154 10.3405 287.154 11.6035C287.154 13.1855 287.503 14.4355 288.199 15.3535C288.824 16.1803 289.599 16.5938 290.523 16.5938ZM299 18C298.004 18 297.506 17.7721 297.506 17.3164C297.506 17.0755 297.555 16.8932 297.652 16.7695C297.809 16.8216 297.955 16.8477 298.092 16.8477C298.691 16.8477 298.984 16.4635 298.971 15.6953V7.9707H298.785C298.082 7.9707 297.626 7.98047 297.418 8C297.307 7.74609 297.252 7.50846 297.252 7.28711C297.252 7.06576 297.337 6.88672 297.506 6.75C297.675 6.60677 297.893 6.53516 298.16 6.53516H298.971V6.18359C298.971 3.7487 299.811 2.09505 301.49 1.22266C302.128 0.890625 302.799 0.724609 303.502 0.724609C304.205 0.724609 304.713 0.884115 305.025 1.20312C305.338 1.52214 305.494 1.94531 305.494 2.47266C305.494 3.0651 305.286 3.52409 304.869 3.84961C304.745 3.93424 304.56 3.97656 304.312 3.97656C304.065 3.97656 303.941 3.91471 303.941 3.79102C303.941 2.83398 303.583 2.35547 302.867 2.35547C302.392 2.35547 302.037 2.46615 301.803 2.6875C301.354 3.1237 301.129 3.78451 301.129 4.66992C301.129 4.80664 301.135 4.95312 301.148 5.10938V6.53516H304.244C304.329 6.6849 304.371 6.87695 304.371 7.11133C304.371 7.3457 304.345 7.51823 304.293 7.62891C304.247 7.73958 304.156 7.84049 304.02 7.93164C303.72 8.13997 303.329 8.24414 302.848 8.24414C302.372 8.24414 301.806 8.20508 301.148 8.12695V15.9688C301.148 16.4701 301.467 16.7565 302.105 16.8281C302.665 16.8867 303.004 16.9583 303.121 17.043C303.284 17.1667 303.365 17.3229 303.365 17.5117C303.365 17.7396 303.313 17.9186 303.209 18.0488C303.079 18.0163 302.87 18 302.584 18H299ZM312.926 12.7461C312.926 11.9583 313.007 11.2585 313.17 10.6465C313.333 10.0345 313.551 9.48763 313.824 9.00586C314.104 8.51758 314.43 8.09115 314.801 7.72656C315.178 7.36198 315.582 7.05924 316.012 6.81836C316.858 6.33659 317.691 6.0957 318.512 6.0957C319.332 6.0957 319.99 6.24219 320.484 6.53516C320.979 6.82161 321.383 7.20573 321.695 7.6875C322.275 8.60547 322.564 9.82617 322.564 11.3496C322.564 11.916 322.327 12.2057 321.852 12.2188L315.035 12.3652C315.074 13.778 315.439 14.8229 316.129 15.5C316.715 16.0729 317.473 16.3594 318.404 16.3594C319.791 16.3594 320.917 16.0697 321.783 15.4902C321.842 15.4902 321.913 15.5391 321.998 15.6367C322.161 15.832 322.242 16.0013 322.242 16.1445C322.242 16.457 321.852 16.8574 321.07 17.3457C320.172 17.9056 319.124 18.1855 317.926 18.1855C316.363 18.1855 315.136 17.6875 314.244 16.6914C313.365 15.7148 312.926 14.3997 312.926 12.7461ZM315.094 11.1055C316.969 11.0143 318.684 10.8939 320.24 10.7441C320.312 8.67383 319.596 7.63867 318.092 7.63867C317.252 7.63867 316.565 7.96419 316.031 8.61523C315.543 9.21419 315.23 10.0443 315.094 11.1055ZM324.791 17.082C324.791 16.8411 324.902 16.5417 325.123 16.1836C325.344 15.819 325.641 15.4186 326.012 14.9824C326.389 14.5397 326.832 14.0645 327.34 13.5566L328.941 11.9258L326.939 8.99609C326.458 8.27344 326.008 7.91211 325.592 7.91211C325.416 7.91211 325.263 7.94141 325.133 8C325.009 8.05208 324.908 8.07812 324.83 8.07812C324.758 8.07812 324.7 8.06185 324.654 8.0293C324.609 7.99674 324.57 7.95443 324.537 7.90234C324.407 7.70703 324.423 7.48893 324.586 7.24805C324.755 7.00716 324.938 6.80859 325.133 6.65234C325.608 6.28125 326.135 6.0957 326.715 6.0957C327.099 6.0957 327.382 6.15104 327.564 6.26172C327.89 6.45052 328.176 6.76953 328.424 7.21875L330.494 11.0762C331.36 10.1908 332.014 9.36719 332.457 8.60547C332.607 8.3125 332.682 8.0651 332.682 7.86328C332.682 7.51823 332.35 7.30664 331.686 7.22852C331.627 7.13086 331.598 7.02669 331.598 6.91602C331.598 6.80534 331.66 6.69792 331.783 6.59375C331.913 6.48307 332.073 6.39193 332.262 6.32031C332.639 6.17057 333.062 6.0957 333.531 6.0957C334 6.0957 334.371 6.20312 334.645 6.41797C334.924 6.6263 335.064 6.86393 335.064 7.13086C335.064 7.39128 335.006 7.65169 334.889 7.91211C334.771 8.17253 334.612 8.44922 334.41 8.74219C334.208 9.03516 333.977 9.33789 333.717 9.65039C333.456 9.96289 333.183 10.2721 332.896 10.5781C332.122 11.3789 331.559 11.9355 331.207 12.248L333.287 15.2461C333.548 15.6107 333.782 15.9069 333.99 16.1348C334.205 16.3561 334.417 16.4668 334.625 16.4668C334.833 16.4668 335.003 16.4408 335.133 16.3887C335.419 16.2715 335.602 16.2682 335.68 16.3789C335.816 16.5807 335.813 16.8053 335.67 17.0527C335.527 17.2936 335.367 17.4922 335.191 17.6484C334.775 18.0065 334.322 18.1855 333.834 18.1855C332.864 18.1855 332.174 17.7721 331.764 16.9453L329.635 13.1172C328.495 14.3346 327.776 15.3307 327.477 16.1055C327.418 16.2422 327.389 16.3854 327.389 16.5352C327.389 16.6784 327.483 16.8021 327.672 16.9062C327.867 17.0039 328.105 17.069 328.385 17.1016C328.45 17.1667 328.482 17.2643 328.482 17.3945C328.482 17.5247 328.424 17.6387 328.307 17.7363C328.189 17.834 328.04 17.9154 327.857 17.9805C327.271 18.1888 326.643 18.2409 325.973 18.1367C325.185 18.013 324.791 17.6615 324.791 17.082ZM341.93 21.6523C342.014 21.763 342.057 21.903 342.057 22.0723C342.057 22.2415 341.982 22.3848 341.832 22.502C341.682 22.6257 341.5 22.7266 341.285 22.8047C340.875 22.9479 340.481 23.0195 340.104 23.0195C339.726 23.0195 339.413 22.9935 339.166 22.9414C338.919 22.8893 338.714 22.7982 338.551 22.668C338.238 22.4076 338.082 21.9681 338.082 21.3496V9.30859C338.082 8.69661 337.968 8.31576 337.74 8.16602C337.649 8.10742 337.529 8.07812 337.379 8.07812C337.229 8.07812 337.109 8.10091 337.018 8.14648C336.933 8.19206 336.861 8.22461 336.803 8.24414C336.751 8.26367 336.705 8.26367 336.666 8.24414C336.627 8.2181 336.588 8.18229 336.549 8.13672C336.451 8.01953 336.402 7.90885 336.402 7.80469C336.402 7.69401 336.441 7.57682 336.52 7.45312C336.604 7.32292 336.738 7.17643 336.92 7.01367C337.102 6.8444 337.311 6.69141 337.545 6.55469C338.072 6.2487 338.6 6.0957 339.127 6.0957C339.765 6.0957 340.133 6.57422 340.23 7.53125C341.253 6.57422 342.366 6.0957 343.57 6.0957C344.898 6.0957 345.986 6.55469 346.832 7.47266C347.75 8.46224 348.209 9.84245 348.209 11.6133C348.209 12.9349 347.91 14.1165 347.311 15.1582C346.764 16.1087 346.012 16.8542 345.055 17.3945C344.137 17.9219 343.16 18.1855 342.125 18.1855C341.546 18.1855 340.924 18.0944 340.26 17.9121V19.2695C340.26 20.3242 340.318 20.972 340.436 21.2129C340.559 21.4603 340.683 21.6068 340.807 21.6523C340.937 21.6979 341.083 21.7207 341.246 21.7207C341.415 21.7207 341.643 21.6979 341.93 21.6523ZM340.26 9.05469V15.832C340.878 16.3594 341.624 16.623 342.496 16.623C343.512 16.623 344.339 16.2487 344.977 15.5C345.654 14.6992 345.992 13.6087 345.992 12.2285C345.992 10.7767 345.693 9.67969 345.094 8.9375C344.56 8.26693 343.818 7.93164 342.867 7.93164C341.917 7.93164 341.048 8.30599 340.26 9.05469ZM350.309 12.7461C350.309 11.9583 350.39 11.2585 350.553 10.6465C350.715 10.0345 350.934 9.48763 351.207 9.00586C351.487 8.51758 351.812 8.09115 352.184 7.72656C352.561 7.36198 352.965 7.05924 353.395 6.81836C354.241 6.33659 355.074 6.0957 355.895 6.0957C356.715 6.0957 357.372 6.24219 357.867 6.53516C358.362 6.82161 358.766 7.20573 359.078 7.6875C359.658 8.60547 359.947 9.82617 359.947 11.3496C359.947 11.916 359.71 12.2057 359.234 12.2188L352.418 12.3652C352.457 13.778 352.822 14.8229 353.512 15.5C354.098 16.0729 354.856 16.3594 355.787 16.3594C357.174 16.3594 358.3 16.0697 359.166 15.4902C359.225 15.4902 359.296 15.5391 359.381 15.6367C359.544 15.832 359.625 16.0013 359.625 16.1445C359.625 16.457 359.234 16.8574 358.453 17.3457C357.555 17.9056 356.507 18.1855 355.309 18.1855C353.746 18.1855 352.519 17.6875 351.627 16.6914C350.748 15.7148 350.309 14.3997 350.309 12.7461ZM352.477 11.1055C354.352 11.0143 356.067 10.8939 357.623 10.7441C357.695 8.67383 356.979 7.63867 355.475 7.63867C354.635 7.63867 353.948 7.96419 353.414 8.61523C352.926 9.21419 352.613 10.0443 352.477 11.1055ZM367.525 18.0488C367.389 18.0163 367.18 18 366.9 18H363.59C362.965 18 362.564 17.8893 362.389 17.668C362.317 17.5833 362.281 17.4857 362.281 17.375C362.281 17.1016 362.333 16.8997 362.438 16.7695C362.594 16.8216 362.737 16.8477 362.867 16.8477C363.004 16.8477 363.118 16.8314 363.209 16.7988C363.3 16.7598 363.372 16.6979 363.424 16.6133C363.515 16.457 363.561 16.151 363.561 15.6953V9.30859C363.561 8.69661 363.447 8.31576 363.219 8.16602C363.128 8.10742 363.007 8.07812 362.857 8.07812C362.708 8.07812 362.587 8.10091 362.496 8.14648C362.411 8.19206 362.34 8.22461 362.281 8.24414C362.229 8.26367 362.184 8.26367 362.145 8.24414C362.105 8.2181 362.066 8.18229 362.027 8.13672C361.93 8.01953 361.881 7.90885 361.881 7.80469C361.881 7.69401 361.92 7.57682 361.998 7.45312C362.083 7.32292 362.216 7.17643 362.398 7.01367C362.581 6.8444 362.789 6.69141 363.023 6.55469C363.551 6.2487 364.078 6.0957 364.605 6.0957C365.204 6.0957 365.559 6.48633 365.67 7.26758C365.702 7.49544 365.722 7.73307 365.729 7.98047C366.679 7.14062 367.659 6.56445 368.668 6.25195C369.007 6.14779 369.312 6.0957 369.586 6.0957C369.866 6.0957 370.094 6.13477 370.27 6.21289C370.452 6.29102 370.595 6.39844 370.699 6.53516C370.895 6.80208 370.992 7.14388 370.992 7.56055C370.992 7.97721 370.973 8.30924 370.934 8.55664C370.895 8.80404 370.846 9.02214 370.787 9.21094C370.67 9.59505 370.559 9.83919 370.455 9.94336C370.273 10.1322 370.029 10.2266 369.723 10.2266C369.41 10.2266 369.254 10.1354 369.254 9.95312C369.254 9.25651 369.225 8.81055 369.166 8.61523C369.055 8.25716 368.847 8.07812 368.541 8.07812C368.235 8.07812 367.958 8.11393 367.711 8.18555C367.464 8.25065 367.223 8.3418 366.988 8.45898C366.513 8.69336 366.096 8.99609 365.738 9.36719V15.8613C365.758 16.3757 365.982 16.6882 366.412 16.7988C366.536 16.8314 366.676 16.8607 366.832 16.8867C366.988 16.9128 367.122 16.9453 367.232 16.9844C367.35 17.0169 367.441 17.056 367.506 17.1016C367.617 17.1862 367.672 17.3229 367.672 17.5117C367.672 17.7461 367.623 17.9251 367.525 18.0488ZM375.758 11.3398L375.748 13.9082C375.748 14.9824 375.803 15.6302 375.914 15.8516C376.025 16.0664 376.155 16.1966 376.305 16.2422C376.454 16.2812 376.646 16.3008 376.881 16.3008C377.115 16.3008 377.327 16.2845 377.516 16.252C377.711 16.2129 377.893 16.1641 378.062 16.1055C378.232 16.0469 378.395 15.9818 378.551 15.9102L379.029 15.7051C379.14 15.666 379.264 15.7799 379.4 16.0469C379.439 16.1185 379.459 16.2031 379.459 16.3008C379.459 16.3919 379.42 16.5124 379.342 16.6621C379.264 16.8118 379.111 16.9844 378.883 17.1797C378.661 17.3685 378.401 17.5378 378.102 17.6875C377.451 18.0195 376.865 18.1855 376.344 18.1855C375.829 18.1855 375.41 18.1562 375.084 18.0977C374.758 18.0391 374.482 17.9219 374.254 17.7461C373.785 17.3815 373.551 16.7142 373.551 15.7441V8.05859H372.584C372.382 8.05859 372.236 7.99349 372.145 7.86328C371.988 7.66146 371.91 7.49219 371.91 7.35547C371.91 7.1276 371.965 7.00065 372.076 6.97461C373.111 6.79883 373.844 6.0306 374.273 4.66992C374.397 4.25977 374.495 3.77474 374.566 3.21484C374.879 3.16276 375.113 3.13672 375.27 3.13672C375.432 3.13672 375.572 3.2181 375.689 3.38086C375.807 3.54362 375.862 3.73242 375.855 3.94727C375.855 4.16211 375.852 4.36393 375.846 4.55273C375.839 4.74154 375.833 4.94661 375.826 5.16797L375.787 6.53516H379.166C379.251 6.6849 379.293 6.8444 379.293 7.01367V7.31641C379.293 7.58984 379.146 7.81445 378.854 7.99023C378.561 8.15951 378.235 8.24414 377.877 8.24414C377.525 8.24414 377.271 8.24089 377.115 8.23438C376.965 8.22135 376.819 8.20833 376.676 8.19531L376.246 8.13672C376.096 8.1237 375.937 8.11068 375.768 8.09766V8.20508L375.758 11.3398ZM387.77 9.5625C387.77 8.5599 387.353 7.89583 386.52 7.57031C386.253 7.46615 385.963 7.41406 385.65 7.41406C385.344 7.41406 385.058 7.4401 384.791 7.49219C384.531 7.54427 384.299 7.62565 384.098 7.73633C383.642 7.98372 383.414 8.33854 383.414 8.80078C383.414 9.24349 383.603 9.6276 383.98 9.95312C384.397 10.2982 385.172 10.7246 386.305 11.2324C387.438 11.7337 388.31 12.2839 388.922 12.8828C389.54 13.4753 389.85 14.1589 389.85 14.9336C389.85 15.806 389.492 16.5417 388.775 17.1406C387.936 17.8372 386.773 18.1855 385.289 18.1855C383.473 18.1855 382.216 17.7982 381.52 17.0234C381.279 16.75 381.158 16.4017 381.158 15.9785C381.158 14.9564 381.409 14.3607 381.91 14.1914C382.034 14.1523 382.151 14.1328 382.262 14.1328C382.568 14.1328 382.734 14.2272 382.76 14.416C382.903 16.0436 383.814 16.8574 385.494 16.8574C386.503 16.8574 387.177 16.5742 387.516 16.0078C387.626 15.8255 387.682 15.6042 387.682 15.3438C387.682 15.0833 387.597 14.8457 387.428 14.6309C387.265 14.416 387.037 14.2174 386.744 14.0352C386.451 13.8464 386.103 13.6641 385.699 13.4883L384.4 12.9023C382.408 11.9909 381.412 10.7799 381.412 9.26953C381.412 8.29297 381.845 7.51172 382.711 6.92578C383.531 6.3724 384.589 6.0957 385.885 6.0957C387.643 6.0957 388.736 6.47656 389.166 7.23828C389.277 7.43359 389.332 7.64844 389.332 7.88281C389.332 8.11719 389.319 8.32878 389.293 8.51758C389.267 8.69987 389.234 8.86589 389.195 9.01562C389.13 9.30208 389.055 9.50391 388.971 9.62109C388.801 9.74479 388.557 9.80664 388.238 9.80664C387.926 9.80664 387.77 9.72526 387.77 9.5625ZM400.504 18C399.508 18 399.01 17.7721 399.01 17.3164C399.01 17.0755 399.059 16.8932 399.156 16.7695C399.312 16.8216 399.459 16.8477 399.596 16.8477C400.195 16.8477 400.488 16.4635 400.475 15.6953V7.9707H400.289C399.586 7.9707 399.13 7.98047 398.922 8C398.811 7.74609 398.756 7.50846 398.756 7.28711C398.756 7.06576 398.84 6.88672 399.01 6.75C399.179 6.60677 399.397 6.53516 399.664 6.53516H400.475V6.18359C400.475 3.7487 401.314 2.09505 402.994 1.22266C403.632 0.890625 404.303 0.724609 405.006 0.724609C405.709 0.724609 406.217 0.884115 406.529 1.20312C406.842 1.52214 406.998 1.94531 406.998 2.47266C406.998 3.0651 406.79 3.52409 406.373 3.84961C406.249 3.93424 406.064 3.97656 405.816 3.97656C405.569 3.97656 405.445 3.91471 405.445 3.79102C405.445 2.83398 405.087 2.35547 404.371 2.35547C403.896 2.35547 403.541 2.46615 403.307 2.6875C402.857 3.1237 402.633 3.78451 402.633 4.66992C402.633 4.80664 402.639 4.95312 402.652 5.10938V6.53516H405.748C405.833 6.6849 405.875 6.87695 405.875 7.11133C405.875 7.3457 405.849 7.51823 405.797 7.62891C405.751 7.73958 405.66 7.84049 405.523 7.93164C405.224 8.13997 404.833 8.24414 404.352 8.24414C403.876 8.24414 403.31 8.20508 402.652 8.12695V15.9688C402.652 16.4701 402.971 16.7565 403.609 16.8281C404.169 16.8867 404.508 16.9583 404.625 17.043C404.788 17.1667 404.869 17.3229 404.869 17.5117C404.869 17.7396 404.817 17.9186 404.713 18.0488C404.583 18.0163 404.374 18 404.088 18H400.504ZM412.799 18.0488C412.662 18.0163 412.454 18 412.174 18H408.863C408.238 18 407.838 17.8893 407.662 17.668C407.59 17.5833 407.555 17.4857 407.555 17.375C407.555 17.1016 407.607 16.8997 407.711 16.7695C407.867 16.8216 408.01 16.8477 408.141 16.8477C408.277 16.8477 408.391 16.8314 408.482 16.7988C408.574 16.7598 408.645 16.6979 408.697 16.6133C408.788 16.457 408.834 16.151 408.834 15.6953V9.30859C408.834 8.69661 408.72 8.31576 408.492 8.16602C408.401 8.10742 408.281 8.07812 408.131 8.07812C407.981 8.07812 407.861 8.10091 407.77 8.14648C407.685 8.19206 407.613 8.22461 407.555 8.24414C407.503 8.26367 407.457 8.26367 407.418 8.24414C407.379 8.2181 407.34 8.18229 407.301 8.13672C407.203 8.01953 407.154 7.90885 407.154 7.80469C407.154 7.69401 407.193 7.57682 407.271 7.45312C407.356 7.32292 407.49 7.17643 407.672 7.01367C407.854 6.8444 408.062 6.69141 408.297 6.55469C408.824 6.2487 409.352 6.0957 409.879 6.0957C410.478 6.0957 410.833 6.48633 410.943 7.26758C410.976 7.49544 410.995 7.73307 411.002 7.98047C411.952 7.14062 412.932 6.56445 413.941 6.25195C414.28 6.14779 414.586 6.0957 414.859 6.0957C415.139 6.0957 415.367 6.13477 415.543 6.21289C415.725 6.29102 415.868 6.39844 415.973 6.53516C416.168 6.80208 416.266 7.14388 416.266 7.56055C416.266 7.97721 416.246 8.30924 416.207 8.55664C416.168 8.80404 416.119 9.02214 416.061 9.21094C415.943 9.59505 415.833 9.83919 415.729 9.94336C415.546 10.1322 415.302 10.2266 414.996 10.2266C414.684 10.2266 414.527 10.1354 414.527 9.95312C414.527 9.25651 414.498 8.81055 414.439 8.61523C414.329 8.25716 414.12 8.07812 413.814 8.07812C413.508 8.07812 413.232 8.11393 412.984 8.18555C412.737 8.25065 412.496 8.3418 412.262 8.45898C411.786 8.69336 411.37 8.99609 411.012 9.36719V15.8613C411.031 16.3757 411.256 16.6882 411.686 16.7988C411.809 16.8314 411.949 16.8607 412.105 16.8867C412.262 16.9128 412.395 16.9453 412.506 16.9844C412.623 17.0169 412.714 17.056 412.779 17.1016C412.89 17.1862 412.945 17.3229 412.945 17.5117C412.945 17.7461 412.896 17.9251 412.799 18.0488ZM417.584 12.6094C417.584 11.8151 417.662 11.1022 417.818 10.4707C417.975 9.83919 418.189 9.28255 418.463 8.80078C418.736 8.31901 419.059 7.90885 419.43 7.57031C419.801 7.22526 420.198 6.94531 420.621 6.73047C421.448 6.30729 422.356 6.0957 423.346 6.0957C424.615 6.0957 425.693 6.55794 426.578 7.48242C427.561 8.49805 428.053 9.83919 428.053 11.5059C428.053 13.6934 427.457 15.3958 426.266 16.6133C425.23 17.6615 423.99 18.1855 422.545 18.1855C421.035 18.1855 419.824 17.6549 418.912 16.5938C418.027 15.5716 417.584 14.2435 417.584 12.6094ZM423.121 16.5938C423.557 16.5938 423.948 16.4928 424.293 16.291C424.638 16.0827 424.931 15.7995 425.172 15.4414C425.654 14.6992 425.895 13.7357 425.895 12.5508C425.895 11.2487 425.641 10.1419 425.133 9.23047C424.56 8.18229 423.736 7.6582 422.662 7.6582C421.796 7.6582 421.103 7.99023 420.582 8.6543C420.029 9.35742 419.752 10.3405 419.752 11.6035C419.752 13.1855 420.1 14.4355 420.797 15.3535C421.422 16.1803 422.197 16.5938 423.121 16.5938ZM435.328 18.0488C435.198 18.0163 434.99 18 434.703 18H431.588C430.963 18 430.562 17.8893 430.387 17.668C430.315 17.5833 430.279 17.4857 430.279 17.375C430.279 17.1016 430.331 16.8997 430.436 16.7695C430.592 16.8216 430.768 16.8477 430.963 16.8477C431.165 16.8477 431.314 16.7663 431.412 16.6035C431.516 16.4408 431.565 16.138 431.559 15.6953V9.30859C431.559 8.69661 431.445 8.31576 431.217 8.16602C431.126 8.10742 431.005 8.07812 430.855 8.07812C430.706 8.07812 430.585 8.10091 430.494 8.14648C430.41 8.19206 430.338 8.22461 430.279 8.24414C430.227 8.26367 430.182 8.26367 430.143 8.24414C430.104 8.2181 430.064 8.18229 430.025 8.13672C429.928 8.03255 429.879 7.92513 429.879 7.81445C429.879 7.69727 429.918 7.57682 429.996 7.45312C430.081 7.32292 430.214 7.17643 430.396 7.01367C430.579 6.8444 430.787 6.69141 431.021 6.55469C431.549 6.2487 432.076 6.0957 432.604 6.0957C433.183 6.0957 433.531 6.46354 433.648 7.19922C433.688 7.42057 433.714 7.64844 433.727 7.88281C434.703 7.10807 435.725 6.56771 436.793 6.26172C437.184 6.15104 437.561 6.0957 437.926 6.0957C439.475 6.0957 440.455 6.70768 440.865 7.93164C441.881 7.12435 442.913 6.56771 443.961 6.26172C444.358 6.15104 444.762 6.0957 445.172 6.0957C445.582 6.0957 445.976 6.15104 446.354 6.26172C446.738 6.3724 447.066 6.55143 447.34 6.79883C447.939 7.33268 448.238 8.14648 448.238 9.24023V15.793C448.238 16.3268 448.421 16.6589 448.785 16.7891C448.889 16.8281 449.013 16.8607 449.156 16.8867C449.299 16.9128 449.43 16.9453 449.547 16.9844C449.664 17.0169 449.755 17.056 449.82 17.1016C449.931 17.1862 449.986 17.3229 449.986 17.5117C449.986 17.7396 449.934 17.9186 449.83 18.0488C449.7 18.0163 449.492 18 449.205 18H446.09C445.465 18 445.064 17.8893 444.889 17.668C444.817 17.5833 444.781 17.4857 444.781 17.375C444.781 17.1016 444.833 16.8997 444.938 16.7695C445.094 16.8216 445.266 16.8477 445.455 16.8477C445.644 16.8477 445.787 16.7858 445.885 16.6621C445.989 16.5319 446.048 16.2943 446.061 15.9492V9.93359C446.061 8.82682 445.732 8.20833 445.074 8.07812C444.872 8.03906 444.632 8.01953 444.352 8.01953C444.078 8.01953 443.779 8.05534 443.453 8.12695C443.134 8.19206 442.828 8.2832 442.535 8.40039C441.969 8.62826 441.474 8.91797 441.051 9.26953V15.793C441.051 16.3333 441.233 16.6654 441.598 16.7891C441.702 16.8281 441.826 16.8607 441.969 16.8867C442.112 16.9128 442.239 16.9453 442.35 16.9844C442.467 17.0169 442.558 17.056 442.623 17.1016C442.734 17.1862 442.789 17.3229 442.789 17.5117C442.789 17.7461 442.74 17.9251 442.643 18.0488C442.512 18.0163 442.304 18 442.018 18H438.902C438.277 18 437.877 17.8893 437.701 17.668C437.63 17.5833 437.594 17.4857 437.594 17.375C437.594 17.0951 437.643 16.8932 437.74 16.7695C437.903 16.8216 438.079 16.8477 438.268 16.8477C438.456 16.8477 438.6 16.7793 438.697 16.6426C438.801 16.5059 438.86 16.2552 438.873 15.8906V9.93359C438.873 8.82682 438.544 8.20833 437.887 8.07812C437.685 8.03906 437.441 8.01953 437.154 8.01953C436.868 8.01953 436.555 8.05859 436.217 8.13672C435.878 8.21484 435.556 8.31901 435.25 8.44922C434.664 8.6901 434.16 8.99609 433.736 9.36719V15.793C433.736 16.3268 433.922 16.6589 434.293 16.7891C434.391 16.8281 434.511 16.8607 434.654 16.8867C434.798 16.9128 434.928 16.9453 435.045 16.9844C435.162 17.0169 435.253 17.056 435.318 17.1016C435.429 17.1862 435.484 17.3229 435.484 17.5117C435.484 17.7396 435.432 17.9186 435.328 18.0488ZM461.852 11.3398L461.842 13.9082C461.842 14.9824 461.897 15.6302 462.008 15.8516C462.118 16.0664 462.249 16.1966 462.398 16.2422C462.548 16.2812 462.74 16.3008 462.975 16.3008C463.209 16.3008 463.421 16.2845 463.609 16.252C463.805 16.2129 463.987 16.1641 464.156 16.1055C464.326 16.0469 464.488 15.9818 464.645 15.9102L465.123 15.7051C465.234 15.666 465.357 15.7799 465.494 16.0469C465.533 16.1185 465.553 16.2031 465.553 16.3008C465.553 16.3919 465.514 16.5124 465.436 16.6621C465.357 16.8118 465.204 16.9844 464.977 17.1797C464.755 17.3685 464.495 17.5378 464.195 17.6875C463.544 18.0195 462.958 18.1855 462.438 18.1855C461.923 18.1855 461.503 18.1562 461.178 18.0977C460.852 18.0391 460.576 17.9219 460.348 17.7461C459.879 17.3815 459.645 16.7142 459.645 15.7441V8.05859H458.678C458.476 8.05859 458.329 7.99349 458.238 7.86328C458.082 7.66146 458.004 7.49219 458.004 7.35547C458.004 7.1276 458.059 7.00065 458.17 6.97461C459.205 6.79883 459.938 6.0306 460.367 4.66992C460.491 4.25977 460.589 3.77474 460.66 3.21484C460.973 3.16276 461.207 3.13672 461.363 3.13672C461.526 3.13672 461.666 3.2181 461.783 3.38086C461.9 3.54362 461.956 3.73242 461.949 3.94727C461.949 4.16211 461.946 4.36393 461.939 4.55273C461.933 4.74154 461.926 4.94661 461.92 5.16797L461.881 6.53516H465.26C465.344 6.6849 465.387 6.8444 465.387 7.01367V7.31641C465.387 7.58984 465.24 7.81445 464.947 7.99023C464.654 8.15951 464.329 8.24414 463.971 8.24414C463.619 8.24414 463.365 8.24089 463.209 8.23438C463.059 8.22135 462.913 8.20833 462.77 8.19531L462.34 8.13672C462.19 8.1237 462.031 8.11068 461.861 8.09766V8.20508L461.852 11.3398ZM467.076 12.6094C467.076 11.8151 467.154 11.1022 467.311 10.4707C467.467 9.83919 467.682 9.28255 467.955 8.80078C468.229 8.31901 468.551 7.90885 468.922 7.57031C469.293 7.22526 469.69 6.94531 470.113 6.73047C470.94 6.30729 471.848 6.0957 472.838 6.0957C474.107 6.0957 475.185 6.55794 476.07 7.48242C477.053 8.49805 477.545 9.83919 477.545 11.5059C477.545 13.6934 476.949 15.3958 475.758 16.6133C474.723 17.6615 473.482 18.1855 472.037 18.1855C470.527 18.1855 469.316 17.6549 468.404 16.5938C467.519 15.5716 467.076 14.2435 467.076 12.6094ZM472.613 16.5938C473.049 16.5938 473.44 16.4928 473.785 16.291C474.13 16.0827 474.423 15.7995 474.664 15.4414C475.146 14.6992 475.387 13.7357 475.387 12.5508C475.387 11.2487 475.133 10.1419 474.625 9.23047C474.052 8.18229 473.229 7.6582 472.154 7.6582C471.288 7.6582 470.595 7.99023 470.074 8.6543C469.521 9.35742 469.244 10.3405 469.244 11.6035C469.244 13.1855 469.592 14.4355 470.289 15.3535C470.914 16.1803 471.689 16.5938 472.613 16.5938ZM484.566 21.6523C484.651 21.763 484.693 21.903 484.693 22.0723C484.693 22.2415 484.618 22.3848 484.469 22.502C484.319 22.6257 484.137 22.7266 483.922 22.8047C483.512 22.9479 483.118 23.0195 482.74 23.0195C482.363 23.0195 482.05 22.9935 481.803 22.9414C481.555 22.8893 481.35 22.7982 481.188 22.668C480.875 22.4076 480.719 21.9681 480.719 21.3496V9.30859C480.719 8.69661 480.605 8.31576 480.377 8.16602C480.286 8.10742 480.165 8.07812 480.016 8.07812C479.866 8.07812 479.745 8.10091 479.654 8.14648C479.57 8.19206 479.498 8.22461 479.439 8.24414C479.387 8.26367 479.342 8.26367 479.303 8.24414C479.264 8.2181 479.225 8.18229 479.186 8.13672C479.088 8.01953 479.039 7.90885 479.039 7.80469C479.039 7.69401 479.078 7.57682 479.156 7.45312C479.241 7.32292 479.374 7.17643 479.557 7.01367C479.739 6.8444 479.947 6.69141 480.182 6.55469C480.709 6.2487 481.236 6.0957 481.764 6.0957C482.402 6.0957 482.77 6.57422 482.867 7.53125C483.889 6.57422 485.003 6.0957 486.207 6.0957C487.535 6.0957 488.622 6.55469 489.469 7.47266C490.387 8.46224 490.846 9.84245 490.846 11.6133C490.846 12.9349 490.546 14.1165 489.947 15.1582C489.4 16.1087 488.648 16.8542 487.691 17.3945C486.773 17.9219 485.797 18.1855 484.762 18.1855C484.182 18.1855 483.561 18.0944 482.896 17.9121V19.2695C482.896 20.3242 482.955 20.972 483.072 21.2129C483.196 21.4603 483.32 21.6068 483.443 21.6523C483.574 21.6979 483.72 21.7207 483.883 21.7207C484.052 21.7207 484.28 21.6979 484.566 21.6523ZM482.896 9.05469V15.832C483.515 16.3594 484.26 16.623 485.133 16.623C486.148 16.623 486.975 16.2487 487.613 15.5C488.29 14.6992 488.629 13.6087 488.629 12.2285C488.629 10.7767 488.329 9.67969 487.73 8.9375C487.197 8.26693 486.454 7.93164 485.504 7.93164C484.553 7.93164 483.684 8.30599 482.896 9.05469ZM502.252 4.2793C502.031 4.2793 501.826 4.24674 501.637 4.18164C501.454 4.11003 501.295 4.00911 501.158 3.87891C500.872 3.60547 500.729 3.23763 500.729 2.77539C500.729 2.33268 500.898 1.95833 501.236 1.65234C501.562 1.34635 501.952 1.19336 502.408 1.19336C502.864 1.19336 503.229 1.33008 503.502 1.60352C503.775 1.87695 503.912 2.24805 503.912 2.7168C503.912 3.15951 503.749 3.53385 503.424 3.83984C503.105 4.13281 502.714 4.2793 502.252 4.2793ZM501.656 18C500.654 18 500.152 17.7721 500.152 17.3164C500.152 17.082 500.204 16.8997 500.309 16.7695C500.465 16.8216 500.608 16.8477 500.738 16.8477C501.344 16.8477 501.64 16.4635 501.627 15.6953V9.15234C501.627 8.69661 501.562 8.38086 501.432 8.20508C501.308 8.02279 501.083 7.93164 500.758 7.93164C500.517 7.93164 500.299 7.96094 500.104 8.01953C499.986 8.03255 499.902 7.94141 499.85 7.74609C499.804 7.57031 499.83 7.41732 499.928 7.28711C500.025 7.15039 500.175 7.01042 500.377 6.86719C500.585 6.71745 500.813 6.58724 501.061 6.47656C501.594 6.22266 502.04 6.0957 502.398 6.0957C502.757 6.0957 503.02 6.14779 503.189 6.25195C503.365 6.35612 503.499 6.49609 503.59 6.67188C503.733 6.95833 503.805 7.42057 503.805 8.05859V15.8613C503.824 16.3757 504.01 16.6882 504.361 16.7988C504.459 16.8314 504.579 16.8607 504.723 16.8867C504.866 16.9128 504.993 16.9453 505.104 16.9844C505.221 17.0169 505.312 17.056 505.377 17.1016C505.488 17.1862 505.543 17.3229 505.543 17.5117C505.543 17.7461 505.494 17.9251 505.396 18.0488C505.26 18.0163 505.051 18 504.771 18H501.656ZM512.242 18.0488C512.112 18.0163 511.904 18 511.617 18H508.502C507.877 18 507.477 17.8893 507.301 17.668C507.229 17.5833 507.193 17.4857 507.193 17.375C507.193 17.1016 507.245 16.8997 507.35 16.7695C507.506 16.8216 507.682 16.8477 507.877 16.8477C508.079 16.8477 508.229 16.7663 508.326 16.6035C508.43 16.4408 508.479 16.138 508.473 15.6953V9.30859C508.473 8.69661 508.359 8.31576 508.131 8.16602C508.04 8.10742 507.919 8.07812 507.77 8.07812C507.62 8.07812 507.499 8.10091 507.408 8.14648C507.324 8.19206 507.252 8.22461 507.193 8.24414C507.141 8.26367 507.096 8.26367 507.057 8.24414C507.018 8.2181 506.979 8.18229 506.939 8.13672C506.842 8.03255 506.793 7.92513 506.793 7.81445C506.793 7.69727 506.832 7.57682 506.91 7.45312C506.995 7.32292 507.128 7.17643 507.311 7.01367C507.493 6.8444 507.701 6.69141 507.936 6.55469C508.463 6.2487 508.99 6.0957 509.518 6.0957C510.123 6.0957 510.481 6.49609 510.592 7.29688C510.624 7.53125 510.644 7.77214 510.65 8.01953C511.62 7.20573 512.675 6.6263 513.814 6.28125C514.225 6.15755 514.638 6.0957 515.055 6.0957C515.478 6.0957 515.878 6.15104 516.256 6.26172C516.64 6.3724 516.972 6.55143 517.252 6.79883C517.844 7.31966 518.141 8.13346 518.141 9.24023V15.8613C518.16 16.3691 518.349 16.6816 518.707 16.7988C518.805 16.8314 518.925 16.8607 519.068 16.8867C519.212 16.9128 519.339 16.9453 519.449 16.9844C519.566 17.0169 519.658 17.056 519.723 17.1016C519.833 17.1862 519.889 17.3229 519.889 17.5117C519.889 17.7396 519.837 17.9186 519.732 18.0488C519.602 18.0163 519.394 18 519.107 18H515.992C515.367 18 514.967 17.8893 514.791 17.668C514.719 17.5833 514.684 17.4857 514.684 17.375C514.684 17.1016 514.736 16.8997 514.84 16.7695C514.996 16.8216 515.139 16.8477 515.27 16.8477C515.406 16.8477 515.52 16.8314 515.611 16.7988C515.702 16.7598 515.774 16.6979 515.826 16.6133C515.917 16.457 515.963 16.151 515.963 15.6953V9.93359C515.963 8.82682 515.634 8.20833 514.977 8.07812C514.775 8.03906 514.521 8.01953 514.215 8.01953C513.915 8.01953 513.583 8.0651 513.219 8.15625C512.854 8.2474 512.512 8.36458 512.193 8.50781C511.581 8.78125 511.067 9.1263 510.65 9.54297V15.8613C510.67 16.3691 510.855 16.6816 511.207 16.7988C511.311 16.8314 511.432 16.8607 511.568 16.8867C511.712 16.9128 511.842 16.9453 511.959 16.9844C512.076 17.0169 512.167 17.056 512.232 17.1016C512.343 17.1862 512.398 17.3229 512.398 17.5117C512.398 17.7396 512.346 17.9186 512.242 18.0488ZM528.062 9.5625C528.062 8.5599 527.646 7.89583 526.812 7.57031C526.546 7.46615 526.256 7.41406 525.943 7.41406C525.637 7.41406 525.351 7.4401 525.084 7.49219C524.824 7.54427 524.592 7.62565 524.391 7.73633C523.935 7.98372 523.707 8.33854 523.707 8.80078C523.707 9.24349 523.896 9.6276 524.273 9.95312C524.69 10.2982 525.465 10.7246 526.598 11.2324C527.73 11.7337 528.603 12.2839 529.215 12.8828C529.833 13.4753 530.143 14.1589 530.143 14.9336C530.143 15.806 529.785 16.5417 529.068 17.1406C528.229 17.8372 527.066 18.1855 525.582 18.1855C523.766 18.1855 522.509 17.7982 521.812 17.0234C521.572 16.75 521.451 16.4017 521.451 15.9785C521.451 14.9564 521.702 14.3607 522.203 14.1914C522.327 14.1523 522.444 14.1328 522.555 14.1328C522.861 14.1328 523.027 14.2272 523.053 14.416C523.196 16.0436 524.107 16.8574 525.787 16.8574C526.796 16.8574 527.47 16.5742 527.809 16.0078C527.919 15.8255 527.975 15.6042 527.975 15.3438C527.975 15.0833 527.89 14.8457 527.721 14.6309C527.558 14.416 527.33 14.2174 527.037 14.0352C526.744 13.8464 526.396 13.6641 525.992 13.4883L524.693 12.9023C522.701 11.9909 521.705 10.7799 521.705 9.26953C521.705 8.29297 522.138 7.51172 523.004 6.92578C523.824 6.3724 524.882 6.0957 526.178 6.0957C527.936 6.0957 529.029 6.47656 529.459 7.23828C529.57 7.43359 529.625 7.64844 529.625 7.88281C529.625 8.11719 529.612 8.32878 529.586 8.51758C529.56 8.69987 529.527 8.86589 529.488 9.01562C529.423 9.30208 529.348 9.50391 529.264 9.62109C529.094 9.74479 528.85 9.80664 528.531 9.80664C528.219 9.80664 528.062 9.72526 528.062 9.5625ZM535.602 11.3398L535.592 13.9082C535.592 14.9824 535.647 15.6302 535.758 15.8516C535.868 16.0664 535.999 16.1966 536.148 16.2422C536.298 16.2812 536.49 16.3008 536.725 16.3008C536.959 16.3008 537.171 16.2845 537.359 16.252C537.555 16.2129 537.737 16.1641 537.906 16.1055C538.076 16.0469 538.238 15.9818 538.395 15.9102L538.873 15.7051C538.984 15.666 539.107 15.7799 539.244 16.0469C539.283 16.1185 539.303 16.2031 539.303 16.3008C539.303 16.3919 539.264 16.5124 539.186 16.6621C539.107 16.8118 538.954 16.9844 538.727 17.1797C538.505 17.3685 538.245 17.5378 537.945 17.6875C537.294 18.0195 536.708 18.1855 536.188 18.1855C535.673 18.1855 535.253 18.1562 534.928 18.0977C534.602 18.0391 534.326 17.9219 534.098 17.7461C533.629 17.3815 533.395 16.7142 533.395 15.7441V8.05859H532.428C532.226 8.05859 532.079 7.99349 531.988 7.86328C531.832 7.66146 531.754 7.49219 531.754 7.35547C531.754 7.1276 531.809 7.00065 531.92 6.97461C532.955 6.79883 533.688 6.0306 534.117 4.66992C534.241 4.25977 534.339 3.77474 534.41 3.21484C534.723 3.16276 534.957 3.13672 535.113 3.13672C535.276 3.13672 535.416 3.2181 535.533 3.38086C535.65 3.54362 535.706 3.73242 535.699 3.94727C535.699 4.16211 535.696 4.36393 535.689 4.55273C535.683 4.74154 535.676 4.94661 535.67 5.16797L535.631 6.53516H539.01C539.094 6.6849 539.137 6.8444 539.137 7.01367V7.31641C539.137 7.58984 538.99 7.81445 538.697 7.99023C538.404 8.15951 538.079 8.24414 537.721 8.24414C537.369 8.24414 537.115 8.24089 536.959 8.23438C536.809 8.22135 536.663 8.20833 536.52 8.19531L536.09 8.13672C535.94 8.1237 535.781 8.11068 535.611 8.09766V8.20508L535.602 11.3398ZM543.189 4.2793C542.968 4.2793 542.763 4.24674 542.574 4.18164C542.392 4.11003 542.232 4.00911 542.096 3.87891C541.809 3.60547 541.666 3.23763 541.666 2.77539C541.666 2.33268 541.835 1.95833 542.174 1.65234C542.499 1.34635 542.89 1.19336 543.346 1.19336C543.801 1.19336 544.166 1.33008 544.439 1.60352C544.713 1.87695 544.85 2.24805 544.85 2.7168C544.85 3.15951 544.687 3.53385 544.361 3.83984C544.042 4.13281 543.652 4.2793 543.189 4.2793ZM542.594 18C541.591 18 541.09 17.7721 541.09 17.3164C541.09 17.082 541.142 16.8997 541.246 16.7695C541.402 16.8216 541.546 16.8477 541.676 16.8477C542.281 16.8477 542.577 16.4635 542.564 15.6953V9.15234C542.564 8.69661 542.499 8.38086 542.369 8.20508C542.245 8.02279 542.021 7.93164 541.695 7.93164C541.454 7.93164 541.236 7.96094 541.041 8.01953C540.924 8.03255 540.839 7.94141 540.787 7.74609C540.742 7.57031 540.768 7.41732 540.865 7.28711C540.963 7.15039 541.113 7.01042 541.314 6.86719C541.523 6.71745 541.751 6.58724 541.998 6.47656C542.532 6.22266 542.978 6.0957 543.336 6.0957C543.694 6.0957 543.958 6.14779 544.127 6.25195C544.303 6.35612 544.436 6.49609 544.527 6.67188C544.671 6.95833 544.742 7.42057 544.742 8.05859V15.8613C544.762 16.3757 544.947 16.6882 545.299 16.7988C545.396 16.8314 545.517 16.8607 545.66 16.8867C545.803 16.9128 545.93 16.9453 546.041 16.9844C546.158 17.0169 546.249 17.056 546.314 17.1016C546.425 17.1862 546.48 17.3229 546.48 17.5117C546.48 17.7461 546.432 17.9251 546.334 18.0488C546.197 18.0163 545.989 18 545.709 18H542.594ZM551.285 11.3398L551.275 13.9082C551.275 14.9824 551.331 15.6302 551.441 15.8516C551.552 16.0664 551.682 16.1966 551.832 16.2422C551.982 16.2812 552.174 16.3008 552.408 16.3008C552.643 16.3008 552.854 16.2845 553.043 16.252C553.238 16.2129 553.421 16.1641 553.59 16.1055C553.759 16.0469 553.922 15.9818 554.078 15.9102L554.557 15.7051C554.667 15.666 554.791 15.7799 554.928 16.0469C554.967 16.1185 554.986 16.2031 554.986 16.3008C554.986 16.3919 554.947 16.5124 554.869 16.6621C554.791 16.8118 554.638 16.9844 554.41 17.1797C554.189 17.3685 553.928 17.5378 553.629 17.6875C552.978 18.0195 552.392 18.1855 551.871 18.1855C551.357 18.1855 550.937 18.1562 550.611 18.0977C550.286 18.0391 550.009 17.9219 549.781 17.7461C549.312 17.3815 549.078 16.7142 549.078 15.7441V8.05859H548.111C547.91 8.05859 547.763 7.99349 547.672 7.86328C547.516 7.66146 547.438 7.49219 547.438 7.35547C547.438 7.1276 547.493 7.00065 547.604 6.97461C548.639 6.79883 549.371 6.0306 549.801 4.66992C549.924 4.25977 550.022 3.77474 550.094 3.21484C550.406 3.16276 550.641 3.13672 550.797 3.13672C550.96 3.13672 551.1 3.2181 551.217 3.38086C551.334 3.54362 551.389 3.73242 551.383 3.94727C551.383 4.16211 551.38 4.36393 551.373 4.55273C551.367 4.74154 551.36 4.94661 551.354 5.16797L551.314 6.53516H554.693C554.778 6.6849 554.82 6.8444 554.82 7.01367V7.31641C554.82 7.58984 554.674 7.81445 554.381 7.99023C554.088 8.15951 553.762 8.24414 553.404 8.24414C553.053 8.24414 552.799 8.24089 552.643 8.23438C552.493 8.22135 552.346 8.20833 552.203 8.19531L551.773 8.13672C551.624 8.1237 551.464 8.11068 551.295 8.09766V8.20508L551.285 11.3398ZM557.428 9.30859C557.428 8.9375 557.398 8.64128 557.34 8.41992C557.288 8.19206 557.177 8.07812 557.008 8.07812C556.884 8.07812 556.786 8.09115 556.715 8.11719L556.48 8.21484C556.435 8.22786 556.38 8.20182 556.314 8.13672C556.191 8 556.129 7.8763 556.129 7.76562C556.129 7.64844 556.165 7.52799 556.236 7.4043C556.314 7.27409 556.428 7.1276 556.578 6.96484C556.734 6.80208 556.91 6.65885 557.105 6.53516C557.548 6.24219 557.949 6.0957 558.307 6.0957C558.665 6.0957 558.919 6.15755 559.068 6.28125C559.218 6.40495 559.332 6.56771 559.41 6.76953C559.54 7.09505 559.605 7.58659 559.605 8.24414V14.3574C559.605 15.4577 559.938 16.0729 560.602 16.2031C560.803 16.2422 561.041 16.2617 561.314 16.2617C561.594 16.2617 561.891 16.2259 562.203 16.1543C562.522 16.0827 562.825 15.9883 563.111 15.8711C563.665 15.6432 564.153 15.3535 564.576 15.002V9.30859C564.576 8.6901 564.465 8.30924 564.244 8.16602C564.153 8.10742 564.033 8.07812 563.883 8.07812C563.733 8.07812 563.613 8.10091 563.521 8.14648C563.437 8.19206 563.365 8.22461 563.307 8.24414C563.255 8.26367 563.209 8.26367 563.17 8.24414C563.131 8.2181 563.089 8.18229 563.043 8.13672C562.945 8.02604 562.896 7.91536 562.896 7.80469C562.896 7.69401 562.936 7.57682 563.014 7.45312C563.098 7.32292 563.232 7.17643 563.414 7.01367C563.596 6.8444 563.805 6.69141 564.039 6.55469C564.566 6.2487 565.094 6.0957 565.621 6.0957C566.259 6.0957 566.624 6.54818 566.715 7.45312C566.741 7.70703 566.754 7.9707 566.754 8.24414V14.0254C566.754 15.028 566.793 15.653 566.871 15.9004C566.949 16.1478 567.044 16.3105 567.154 16.3887C567.265 16.4603 567.402 16.4961 567.564 16.4961C567.727 16.4961 567.861 16.4701 567.965 16.418L568.258 16.291C568.342 16.2715 568.417 16.3105 568.482 16.4082C568.619 16.61 568.639 16.7923 568.541 16.9551C568.443 17.1178 568.29 17.2741 568.082 17.4238C567.88 17.5736 567.652 17.7038 567.398 17.8145C566.272 18.3092 565.471 18.2995 564.996 17.7852C564.749 17.5182 564.609 17.0951 564.576 16.5156C563.619 17.2513 562.639 17.7591 561.637 18.0391C561.272 18.1367 560.888 18.1855 560.484 18.1855C560.087 18.1855 559.697 18.1302 559.312 18.0195C558.935 17.9089 558.606 17.7298 558.326 17.4824C557.727 16.9551 557.428 16.1413 557.428 15.041V9.30859ZM573.336 11.3398L573.326 13.9082C573.326 14.9824 573.382 15.6302 573.492 15.8516C573.603 16.0664 573.733 16.1966 573.883 16.2422C574.033 16.2812 574.225 16.3008 574.459 16.3008C574.693 16.3008 574.905 16.2845 575.094 16.252C575.289 16.2129 575.471 16.1641 575.641 16.1055C575.81 16.0469 575.973 15.9818 576.129 15.9102L576.607 15.7051C576.718 15.666 576.842 15.7799 576.979 16.0469C577.018 16.1185 577.037 16.2031 577.037 16.3008C577.037 16.3919 576.998 16.5124 576.92 16.6621C576.842 16.8118 576.689 16.9844 576.461 17.1797C576.24 17.3685 575.979 17.5378 575.68 17.6875C575.029 18.0195 574.443 18.1855 573.922 18.1855C573.408 18.1855 572.988 18.1562 572.662 18.0977C572.337 18.0391 572.06 17.9219 571.832 17.7461C571.363 17.3815 571.129 16.7142 571.129 15.7441V8.05859H570.162C569.96 8.05859 569.814 7.99349 569.723 7.86328C569.566 7.66146 569.488 7.49219 569.488 7.35547C569.488 7.1276 569.544 7.00065 569.654 6.97461C570.689 6.79883 571.422 6.0306 571.852 4.66992C571.975 4.25977 572.073 3.77474 572.145 3.21484C572.457 3.16276 572.691 3.13672 572.848 3.13672C573.01 3.13672 573.15 3.2181 573.268 3.38086C573.385 3.54362 573.44 3.73242 573.434 3.94727C573.434 4.16211 573.43 4.36393 573.424 4.55273C573.417 4.74154 573.411 4.94661 573.404 5.16797L573.365 6.53516H576.744C576.829 6.6849 576.871 6.8444 576.871 7.01367V7.31641C576.871 7.58984 576.725 7.81445 576.432 7.99023C576.139 8.15951 575.813 8.24414 575.455 8.24414C575.104 8.24414 574.85 8.24089 574.693 8.23438C574.544 8.22135 574.397 8.20833 574.254 8.19531L573.824 8.13672C573.674 8.1237 573.515 8.11068 573.346 8.09766V8.20508L573.336 11.3398ZM580.924 4.2793C580.702 4.2793 580.497 4.24674 580.309 4.18164C580.126 4.11003 579.967 4.00911 579.83 3.87891C579.544 3.60547 579.4 3.23763 579.4 2.77539C579.4 2.33268 579.57 1.95833 579.908 1.65234C580.234 1.34635 580.624 1.19336 581.08 1.19336C581.536 1.19336 581.9 1.33008 582.174 1.60352C582.447 1.87695 582.584 2.24805 582.584 2.7168C582.584 3.15951 582.421 3.53385 582.096 3.83984C581.777 4.13281 581.386 4.2793 580.924 4.2793ZM580.328 18C579.326 18 578.824 17.7721 578.824 17.3164C578.824 17.082 578.876 16.8997 578.98 16.7695C579.137 16.8216 579.28 16.8477 579.41 16.8477C580.016 16.8477 580.312 16.4635 580.299 15.6953V9.15234C580.299 8.69661 580.234 8.38086 580.104 8.20508C579.98 8.02279 579.755 7.93164 579.43 7.93164C579.189 7.93164 578.971 7.96094 578.775 8.01953C578.658 8.03255 578.574 7.94141 578.521 7.74609C578.476 7.57031 578.502 7.41732 578.6 7.28711C578.697 7.15039 578.847 7.01042 579.049 6.86719C579.257 6.71745 579.485 6.58724 579.732 6.47656C580.266 6.22266 580.712 6.0957 581.07 6.0957C581.428 6.0957 581.692 6.14779 581.861 6.25195C582.037 6.35612 582.171 6.49609 582.262 6.67188C582.405 6.95833 582.477 7.42057 582.477 8.05859V15.8613C582.496 16.3757 582.682 16.6882 583.033 16.7988C583.131 16.8314 583.251 16.8607 583.395 16.8867C583.538 16.9128 583.665 16.9453 583.775 16.9844C583.893 17.0169 583.984 17.056 584.049 17.1016C584.16 17.1862 584.215 17.3229 584.215 17.5117C584.215 17.7461 584.166 17.9251 584.068 18.0488C583.932 18.0163 583.723 18 583.443 18H580.328ZM585.572 12.6094C585.572 11.8151 585.65 11.1022 585.807 10.4707C585.963 9.83919 586.178 9.28255 586.451 8.80078C586.725 8.31901 587.047 7.90885 587.418 7.57031C587.789 7.22526 588.186 6.94531 588.609 6.73047C589.436 6.30729 590.344 6.0957 591.334 6.0957C592.604 6.0957 593.681 6.55794 594.566 7.48242C595.549 8.49805 596.041 9.83919 596.041 11.5059C596.041 13.6934 595.445 15.3958 594.254 16.6133C593.219 17.6615 591.979 18.1855 590.533 18.1855C589.023 18.1855 587.812 17.6549 586.9 16.5938C586.015 15.5716 585.572 14.2435 585.572 12.6094ZM591.109 16.5938C591.546 16.5938 591.936 16.4928 592.281 16.291C592.626 16.0827 592.919 15.7995 593.16 15.4414C593.642 14.6992 593.883 13.7357 593.883 12.5508C593.883 11.2487 593.629 10.1419 593.121 9.23047C592.548 8.18229 591.725 7.6582 590.65 7.6582C589.785 7.6582 589.091 7.99023 588.57 8.6543C588.017 9.35742 587.74 10.3405 587.74 11.6035C587.74 13.1855 588.089 14.4355 588.785 15.3535C589.41 16.1803 590.185 16.5938 591.109 16.5938ZM603.316 18.0488C603.186 18.0163 602.978 18 602.691 18H599.576C598.951 18 598.551 17.8893 598.375 17.668C598.303 17.5833 598.268 17.4857 598.268 17.375C598.268 17.1016 598.32 16.8997 598.424 16.7695C598.58 16.8216 598.756 16.8477 598.951 16.8477C599.153 16.8477 599.303 16.7663 599.4 16.6035C599.505 16.4408 599.553 16.138 599.547 15.6953V9.30859C599.547 8.69661 599.433 8.31576 599.205 8.16602C599.114 8.10742 598.993 8.07812 598.844 8.07812C598.694 8.07812 598.574 8.10091 598.482 8.14648C598.398 8.19206 598.326 8.22461 598.268 8.24414C598.215 8.26367 598.17 8.26367 598.131 8.24414C598.092 8.2181 598.053 8.18229 598.014 8.13672C597.916 8.03255 597.867 7.92513 597.867 7.81445C597.867 7.69727 597.906 7.57682 597.984 7.45312C598.069 7.32292 598.202 7.17643 598.385 7.01367C598.567 6.8444 598.775 6.69141 599.01 6.55469C599.537 6.2487 600.064 6.0957 600.592 6.0957C601.197 6.0957 601.555 6.49609 601.666 7.29688C601.699 7.53125 601.718 7.77214 601.725 8.01953C602.695 7.20573 603.749 6.6263 604.889 6.28125C605.299 6.15755 605.712 6.0957 606.129 6.0957C606.552 6.0957 606.952 6.15104 607.33 6.26172C607.714 6.3724 608.046 6.55143 608.326 6.79883C608.919 7.31966 609.215 8.13346 609.215 9.24023V15.8613C609.234 16.3691 609.423 16.6816 609.781 16.7988C609.879 16.8314 609.999 16.8607 610.143 16.8867C610.286 16.9128 610.413 16.9453 610.523 16.9844C610.641 17.0169 610.732 17.056 610.797 17.1016C610.908 17.1862 610.963 17.3229 610.963 17.5117C610.963 17.7396 610.911 17.9186 610.807 18.0488C610.676 18.0163 610.468 18 610.182 18H607.066C606.441 18 606.041 17.8893 605.865 17.668C605.794 17.5833 605.758 17.4857 605.758 17.375C605.758 17.1016 605.81 16.8997 605.914 16.7695C606.07 16.8216 606.214 16.8477 606.344 16.8477C606.48 16.8477 606.594 16.8314 606.686 16.7988C606.777 16.7598 606.848 16.6979 606.9 16.6133C606.992 16.457 607.037 16.151 607.037 15.6953V9.93359C607.037 8.82682 606.708 8.20833 606.051 8.07812C605.849 8.03906 605.595 8.01953 605.289 8.01953C604.99 8.01953 604.658 8.0651 604.293 8.15625C603.928 8.2474 603.587 8.36458 603.268 8.50781C602.656 8.78125 602.141 9.1263 601.725 9.54297V15.8613C601.744 16.3691 601.93 16.6816 602.281 16.7988C602.385 16.8314 602.506 16.8607 602.643 16.8867C602.786 16.9128 602.916 16.9453 603.033 16.9844C603.15 17.0169 603.242 17.056 603.307 17.1016C603.417 17.1862 603.473 17.3229 603.473 17.5117C603.473 17.7396 603.421 17.9186 603.316 18.0488ZM619.137 9.5625C619.137 8.5599 618.72 7.89583 617.887 7.57031C617.62 7.46615 617.33 7.41406 617.018 7.41406C616.712 7.41406 616.425 7.4401 616.158 7.49219C615.898 7.54427 615.667 7.62565 615.465 7.73633C615.009 7.98372 614.781 8.33854 614.781 8.80078C614.781 9.24349 614.97 9.6276 615.348 9.95312C615.764 10.2982 616.539 10.7246 617.672 11.2324C618.805 11.7337 619.677 12.2839 620.289 12.8828C620.908 13.4753 621.217 14.1589 621.217 14.9336C621.217 15.806 620.859 16.5417 620.143 17.1406C619.303 17.8372 618.141 18.1855 616.656 18.1855C614.84 18.1855 613.583 17.7982 612.887 17.0234C612.646 16.75 612.525 16.4017 612.525 15.9785C612.525 14.9564 612.776 14.3607 613.277 14.1914C613.401 14.1523 613.518 14.1328 613.629 14.1328C613.935 14.1328 614.101 14.2272 614.127 14.416C614.27 16.0436 615.182 16.8574 616.861 16.8574C617.87 16.8574 618.544 16.5742 618.883 16.0078C618.993 15.8255 619.049 15.6042 619.049 15.3438C619.049 15.0833 618.964 14.8457 618.795 14.6309C618.632 14.416 618.404 14.2174 618.111 14.0352C617.818 13.8464 617.47 13.6641 617.066 13.4883L615.768 12.9023C613.775 11.9909 612.779 10.7799 612.779 9.26953C612.779 8.29297 613.212 7.51172 614.078 6.92578C614.898 6.3724 615.956 6.0957 617.252 6.0957C619.01 6.0957 620.104 6.47656 620.533 7.23828C620.644 7.43359 620.699 7.64844 620.699 7.88281C620.699 8.11719 620.686 8.32878 620.66 8.51758C620.634 8.69987 620.602 8.86589 620.562 9.01562C620.497 9.30208 620.423 9.50391 620.338 9.62109C620.169 9.74479 619.924 9.80664 619.605 9.80664C619.293 9.80664 619.137 9.72526 619.137 9.5625Z" fill="#333333"/>
</svg>
