<svg width="956" height="40" viewBox="0 0 956 40" fill="none" xmlns="http://www.w3.org/2000/svg">
<path d="M22.4492 14.3672C22.5065 13.9661 22.5352 13.3789 22.5352 12.6055C22.5352 11.832 22.3848 11.1302 22.084 10.5C21.7832 9.85547 21.375 9.35417 20.8594 8.99609C19.957 8.38021 18.5964 8.07227 16.7773 8.07227C14.9727 8.07227 13.3757 8.40169 11.9863 9.06055C10.6113 9.70508 9.45833 10.6146 8.52734 11.7891C6.65104 14.1523 5.71289 17.3678 5.71289 21.4355C5.71289 25.2884 6.66536 28.3607 8.57031 30.6523C10.5469 33.0443 13.2181 34.2402 16.584 34.2402C19.8926 34.2402 22.4707 33.5169 24.3184 32.0703C24.877 31.6406 25.3854 31.1751 25.8438 30.6738C26.2734 30.8027 26.6243 31.1823 26.8965 31.8125C26.9824 32.0273 27.0254 32.3138 27.0254 32.6719C27.0254 33.0156 26.7676 33.5312 26.252 34.2188C25.7507 34.8919 25.013 35.5436 24.0391 36.1738C21.7188 37.6921 18.9401 38.4512 15.7031 38.4512C11.0625 38.4512 7.36719 37.0404 4.61719 34.2188C1.89583 31.4544 0.535156 27.752 0.535156 23.1113C0.535156 20.2754 0.986328 17.7188 1.88867 15.4414C2.79102 13.1641 4.02279 11.2305 5.58398 9.64062C7.14518 8.03646 8.96419 6.80469 11.041 5.94531C13.1322 5.08594 15.1589 4.65625 17.1211 4.65625C19.0977 4.65625 20.6803 4.82096 21.8691 5.15039C23.0579 5.47982 24.0462 5.93099 24.834 6.50391C26.4095 7.67839 27.1973 9.23958 27.1973 11.1875C27.1973 12.6771 26.6458 13.7298 25.543 14.3457C25.1706 14.5605 24.7695 14.668 24.3398 14.668C23.4518 14.668 22.8216 14.5677 22.4492 14.3672ZM31.4512 26.1406C31.4512 24.3932 31.623 22.8249 31.9668 21.4355C32.3105 20.0462 32.7832 18.8216 33.3848 17.7617C33.9863 16.7018 34.6953 15.7995 35.5117 15.0547C36.3281 14.2956 37.2018 13.6797 38.1328 13.207C39.9518 12.276 41.9499 11.8105 44.127 11.8105C46.9199 11.8105 49.2904 12.8275 51.2383 14.8613C53.401 17.0957 54.4824 20.0462 54.4824 23.7129C54.4824 28.5254 53.1719 32.2708 50.5508 34.9492C48.2734 37.2552 45.5449 38.4082 42.3652 38.4082C39.0423 38.4082 36.3783 37.2409 34.373 34.9062C32.4251 32.6576 31.4512 29.7357 31.4512 26.1406ZM43.6328 34.9062C44.5924 34.9062 45.4518 34.6842 46.2109 34.2402C46.9701 33.7819 47.6146 33.1589 48.1445 32.3711C49.2044 30.7383 49.7344 28.6185 49.7344 26.0117C49.7344 23.1471 49.1758 20.7122 48.0586 18.707C46.7982 16.401 44.9863 15.248 42.623 15.248C40.7181 15.248 39.1927 15.9785 38.0469 17.4395C36.8294 18.9863 36.2207 21.1491 36.2207 23.9277C36.2207 27.4082 36.987 30.1582 38.5195 32.1777C39.8945 33.9967 41.599 34.9062 43.6328 34.9062ZM70.8105 38.1074C70.5098 38.0358 70.0514 38 69.4355 38H62.1523C60.7773 38 59.8965 37.7565 59.5098 37.2695C59.3522 37.0833 59.2734 36.8685 59.2734 36.625C59.2734 36.0234 59.388 35.5794 59.6172 35.293C59.9609 35.4076 60.276 35.4648 60.5625 35.4648C60.8633 35.4648 61.1139 35.429 61.3145 35.3574C61.515 35.2715 61.6725 35.1354 61.7871 34.9492C61.9876 34.6055 62.0879 33.9323 62.0879 32.9297V18.8789C62.0879 17.5326 61.8372 16.6947 61.3359 16.3652C61.1354 16.2363 60.8704 16.1719 60.541 16.1719C60.2116 16.1719 59.9466 16.222 59.7461 16.3223C59.5599 16.4225 59.4023 16.4941 59.2734 16.5371C59.1589 16.5801 59.0586 16.5801 58.9727 16.5371C58.8867 16.4798 58.8008 16.401 58.7148 16.3008C58.5 16.043 58.3926 15.7995 58.3926 15.5703C58.3926 15.3268 58.4785 15.069 58.6504 14.7969C58.8366 14.5104 59.1302 14.1882 59.5312 13.8301C59.9323 13.4577 60.3906 13.1211 60.9062 12.8203C62.0664 12.1471 63.2266 11.8105 64.3867 11.8105C65.7044 11.8105 66.485 12.6699 66.7285 14.3887C66.8001 14.89 66.8431 15.4128 66.8574 15.957C68.9486 14.1094 71.1042 12.8418 73.3242 12.1543C74.069 11.9251 74.7422 11.8105 75.3438 11.8105C75.9596 11.8105 76.4609 11.8965 76.8477 12.0684C77.2487 12.2402 77.5638 12.4766 77.793 12.7773C78.2227 13.3646 78.4375 14.1165 78.4375 15.0332C78.4375 15.9499 78.3945 16.6803 78.3086 17.2246C78.2227 17.7689 78.1152 18.2487 77.9863 18.6641C77.7285 19.5091 77.485 20.0462 77.2559 20.2754C76.8548 20.6908 76.3177 20.8984 75.6445 20.8984C74.957 20.8984 74.6133 20.6979 74.6133 20.2969C74.6133 18.7643 74.5488 17.7832 74.4199 17.3535C74.1764 16.5658 73.7181 16.1719 73.0449 16.1719C72.3717 16.1719 71.763 16.2507 71.2188 16.4082C70.6745 16.5514 70.1445 16.752 69.6289 17.0098C68.5833 17.5254 67.6667 18.1914 66.8789 19.0078V33.2949C66.9219 34.4264 67.416 35.1139 68.3613 35.3574C68.6335 35.429 68.9414 35.4935 69.2852 35.5508C69.6289 35.6081 69.9225 35.6797 70.166 35.7656C70.4238 35.8372 70.6243 35.9232 70.7676 36.0234C71.0111 36.2096 71.1328 36.5104 71.1328 36.9258C71.1328 37.4414 71.0254 37.8353 70.8105 38.1074ZM81.5312 26.4414C81.5312 24.7083 81.7103 23.1686 82.0684 21.8223C82.4264 20.4759 82.9062 19.2728 83.5078 18.2129C84.1237 17.1387 84.8398 16.2005 85.6562 15.3984C86.487 14.5964 87.375 13.9303 88.3203 13.4004C90.1823 12.3405 92.0156 11.8105 93.8203 11.8105C95.625 11.8105 97.0716 12.1328 98.1602 12.7773C99.2487 13.4076 100.137 14.2526 100.824 15.3125C102.099 17.332 102.736 20.0176 102.736 23.3691C102.736 24.6152 102.214 25.2526 101.168 25.2812L86.1719 25.6035C86.2578 28.7116 87.0599 31.0104 88.5781 32.5C89.8672 33.7604 91.5358 34.3906 93.584 34.3906C96.6348 34.3906 99.1126 33.7533 101.018 32.4785C101.146 32.4785 101.304 32.5859 101.49 32.8008C101.848 33.2305 102.027 33.6029 102.027 33.918C102.027 34.6055 101.168 35.4863 99.4492 36.5605C97.4727 37.7923 95.1667 38.4082 92.5312 38.4082C89.0938 38.4082 86.3939 37.3125 84.4316 35.1211C82.498 32.9727 81.5312 30.0794 81.5312 26.4414ZM86.3008 22.832C90.4258 22.6315 94.1999 22.3665 97.623 22.0371C97.7806 17.4824 96.2051 15.2051 92.8965 15.2051C91.0488 15.2051 89.5378 15.9212 88.3633 17.3535C87.2891 18.6712 86.6016 20.4974 86.3008 22.832ZM138.615 38.1719C138.286 38.0573 137.577 38 136.488 38H125.445C124.701 38 124.106 37.8854 123.662 37.6562C123.218 37.4128 122.996 36.9759 122.996 36.3457C122.996 35.8874 123.104 35.5221 123.318 35.25C123.863 35.3932 124.385 35.4648 124.887 35.4648C125.388 35.4648 125.782 35.4147 126.068 35.3145C126.355 35.1999 126.605 35.0065 126.82 34.7344C127.25 34.1615 127.465 33.209 127.465 31.877V10.3066C127.465 8.97461 126.677 8.14388 125.102 7.81445C124.113 7.61393 123.469 7.38477 123.168 7.12695C122.867 6.86914 122.717 6.58984 122.717 6.28906C122.717 5.63021 122.831 5.1862 123.061 4.95703C123.318 5.02865 123.555 5.06445 123.77 5.06445H129.098L136.746 4.84961C143.449 4.84961 147.689 6.67578 149.465 10.3281C150.109 11.6458 150.432 12.9635 150.432 14.2812C150.432 15.599 150.339 16.7233 150.152 17.6543C149.966 18.5853 149.644 19.4948 149.186 20.3828C148.742 21.2565 148.147 22.0872 147.402 22.875C146.658 23.6484 145.727 24.3288 144.609 24.916C142.189 26.1764 139.095 26.8066 135.328 26.8066H134.512C134.111 26.8066 133.91 26.5488 133.91 26.0332C133.91 24.9017 134.218 24.2643 134.834 24.1211C140.219 24.2357 143.478 22.6315 144.609 19.3086C144.953 18.263 145.125 17.1458 145.125 15.957C145.125 14.7682 144.996 13.6797 144.738 12.6914C144.48 11.6888 144.015 10.8008 143.342 10.0273C141.852 8.33724 139.389 7.49219 135.951 7.49219C134.562 7.49219 133.638 7.79297 133.18 8.39453C132.75 8.92448 132.535 9.9987 132.535 11.6172V33.0801C132.607 34.1973 133.495 34.8776 135.199 35.1211C136.732 35.3359 137.684 35.5365 138.057 35.7227C138.429 35.9089 138.673 36.0951 138.787 36.2812C138.902 36.4531 138.959 36.668 138.959 36.9258C138.959 37.4701 138.844 37.8854 138.615 38.1719ZM165.686 38.1074C165.385 38.0358 164.926 38 164.311 38H157.027C155.652 38 154.771 37.7565 154.385 37.2695C154.227 37.0833 154.148 36.8685 154.148 36.625C154.148 36.0234 154.263 35.5794 154.492 35.293C154.836 35.4076 155.151 35.4648 155.438 35.4648C155.738 35.4648 155.989 35.429 156.189 35.3574C156.39 35.2715 156.548 35.1354 156.662 34.9492C156.863 34.6055 156.963 33.9323 156.963 32.9297V18.8789C156.963 17.5326 156.712 16.6947 156.211 16.3652C156.01 16.2363 155.745 16.1719 155.416 16.1719C155.087 16.1719 154.822 16.222 154.621 16.3223C154.435 16.4225 154.277 16.4941 154.148 16.5371C154.034 16.5801 153.934 16.5801 153.848 16.5371C153.762 16.4798 153.676 16.401 153.59 16.3008C153.375 16.043 153.268 15.7995 153.268 15.5703C153.268 15.3268 153.354 15.069 153.525 14.7969C153.712 14.5104 154.005 14.1882 154.406 13.8301C154.807 13.4577 155.266 13.1211 155.781 12.8203C156.941 12.1471 158.102 11.8105 159.262 11.8105C160.579 11.8105 161.36 12.6699 161.604 14.3887C161.675 14.89 161.718 15.4128 161.732 15.957C163.824 14.1094 165.979 12.8418 168.199 12.1543C168.944 11.9251 169.617 11.8105 170.219 11.8105C170.835 11.8105 171.336 11.8965 171.723 12.0684C172.124 12.2402 172.439 12.4766 172.668 12.7773C173.098 13.3646 173.312 14.1165 173.312 15.0332C173.312 15.9499 173.27 16.6803 173.184 17.2246C173.098 17.7689 172.99 18.2487 172.861 18.6641C172.604 19.5091 172.36 20.0462 172.131 20.2754C171.73 20.6908 171.193 20.8984 170.52 20.8984C169.832 20.8984 169.488 20.6979 169.488 20.2969C169.488 18.7643 169.424 17.7832 169.295 17.3535C169.051 16.5658 168.593 16.1719 167.92 16.1719C167.247 16.1719 166.638 16.2507 166.094 16.4082C165.549 16.5514 165.02 16.752 164.504 17.0098C163.458 17.5254 162.542 18.1914 161.754 19.0078V33.2949C161.797 34.4264 162.291 35.1139 163.236 35.3574C163.508 35.429 163.816 35.4935 164.16 35.5508C164.504 35.6081 164.798 35.6797 165.041 35.7656C165.299 35.8372 165.499 35.9232 165.643 36.0234C165.886 36.2096 166.008 36.5104 166.008 36.9258C166.008 37.4414 165.9 37.8353 165.686 38.1074ZM176.213 26.1406C176.213 24.3932 176.385 22.8249 176.729 21.4355C177.072 20.0462 177.545 18.8216 178.146 17.7617C178.748 16.7018 179.457 15.7995 180.273 15.0547C181.09 14.2956 181.964 13.6797 182.895 13.207C184.714 12.276 186.712 11.8105 188.889 11.8105C191.682 11.8105 194.052 12.8275 196 14.8613C198.163 17.0957 199.244 20.0462 199.244 23.7129C199.244 28.5254 197.934 32.2708 195.312 34.9492C193.035 37.2552 190.307 38.4082 187.127 38.4082C183.804 38.4082 181.14 37.2409 179.135 34.9062C177.187 32.6576 176.213 29.7357 176.213 26.1406ZM188.395 34.9062C189.354 34.9062 190.214 34.6842 190.973 34.2402C191.732 33.7819 192.376 33.1589 192.906 32.3711C193.966 30.7383 194.496 28.6185 194.496 26.0117C194.496 23.1471 193.938 20.7122 192.82 18.707C191.56 16.401 189.748 15.248 187.385 15.248C185.48 15.248 183.954 15.9785 182.809 17.4395C181.591 18.9863 180.982 21.1491 180.982 23.9277C180.982 27.4082 181.749 30.1582 183.281 32.1777C184.656 33.9967 186.361 34.9062 188.395 34.9062ZM221.115 35.3145C218.895 37.3913 216.453 38.4297 213.789 38.4297C210.853 38.4297 208.461 37.4271 206.613 35.4219C204.608 33.2161 203.605 30.1725 203.605 26.291C203.605 21.9225 204.995 18.3704 207.773 15.6348C210.366 13.0853 213.431 11.8105 216.969 11.8105C218.387 11.8105 219.747 12.0469 221.051 12.5195V6.31055C221.051 5.30794 220.951 4.67057 220.75 4.39844C220.421 3.9401 219.883 3.71094 219.139 3.71094C218.824 3.71094 218.508 3.74674 218.193 3.81836C217.893 3.87565 217.678 3.87565 217.549 3.81836C217.434 3.74674 217.341 3.65365 217.27 3.53906C216.983 3.06641 217.341 2.46484 218.344 1.73438C219.919 0.574219 221.473 -0.00585938 223.006 -0.00585938C224.624 -0.00585938 225.548 0.875 225.777 2.63672C225.835 3.16667 225.863 3.72526 225.863 4.3125V29.2559C225.863 31.4616 225.949 32.8366 226.121 33.3809C226.293 33.9251 226.493 34.2832 226.723 34.4551C226.966 34.6126 227.267 34.6914 227.625 34.6914C227.983 34.6914 228.277 34.6341 228.506 34.5195L229.15 34.2402C229.337 34.1973 229.501 34.2832 229.645 34.498C229.945 34.9421 229.988 35.3431 229.773 35.7012C229.559 36.0592 229.236 36.403 228.807 36.7324C228.377 37.0618 227.897 37.3483 227.367 37.5918C225.047 38.6374 223.314 38.6589 222.168 37.6562C221.609 37.1693 221.258 36.3887 221.115 35.3145ZM221.051 16.8809C219.647 15.8066 218.014 15.2695 216.152 15.2695C213.918 15.2695 212.106 16.0931 210.717 17.7402C209.227 19.502 208.482 21.901 208.482 24.9375C208.482 29.7643 209.857 32.7435 212.607 33.875C213.467 34.2188 214.298 34.3906 215.1 34.3906C215.916 34.3906 216.596 34.3262 217.141 34.1973C217.685 34.0684 218.193 33.8965 218.666 33.6816C219.611 33.252 220.406 32.7292 221.051 32.1133V16.8809ZM235.123 18.8789C235.123 18.0625 235.059 17.4108 234.93 16.9238C234.815 16.4225 234.572 16.1719 234.199 16.1719C233.927 16.1719 233.712 16.2005 233.555 16.2578L233.039 16.4727C232.939 16.5013 232.817 16.444 232.674 16.3008C232.402 16 232.266 15.7279 232.266 15.4844C232.266 15.2266 232.344 14.9616 232.502 14.6895C232.674 14.403 232.924 14.0807 233.254 13.7227C233.598 13.3646 233.984 13.0495 234.414 12.7773C235.388 12.1328 236.269 11.8105 237.057 11.8105C237.844 11.8105 238.403 11.9466 238.732 12.2188C239.062 12.4909 239.312 12.849 239.484 13.293C239.771 14.0091 239.914 15.0905 239.914 16.5371V29.9863C239.914 32.4069 240.645 33.7604 242.105 34.0469C242.549 34.1328 243.072 34.1758 243.674 34.1758C244.29 34.1758 244.941 34.097 245.629 33.9395C246.331 33.7819 246.997 33.5742 247.627 33.3164C248.844 32.8151 249.919 32.1777 250.85 31.4043V18.8789C250.85 17.5182 250.606 16.6803 250.119 16.3652C249.919 16.2363 249.654 16.1719 249.324 16.1719C248.995 16.1719 248.73 16.222 248.529 16.3223C248.343 16.4225 248.186 16.4941 248.057 16.5371C247.942 16.5801 247.842 16.5801 247.756 16.5371C247.67 16.4798 247.577 16.401 247.477 16.3008C247.262 16.0573 247.154 15.8138 247.154 15.5703C247.154 15.3268 247.24 15.069 247.412 14.7969C247.598 14.5104 247.892 14.1882 248.293 13.8301C248.694 13.4577 249.152 13.1211 249.668 12.8203C250.828 12.1471 251.988 11.8105 253.148 11.8105C254.552 11.8105 255.354 12.806 255.555 14.7969C255.612 15.3555 255.641 15.9355 255.641 16.5371V29.2559C255.641 31.4616 255.727 32.8366 255.898 33.3809C256.07 33.9251 256.278 34.2832 256.521 34.4551C256.765 34.6126 257.066 34.6914 257.424 34.6914C257.782 34.6914 258.076 34.6341 258.305 34.5195L258.949 34.2402C259.135 34.1973 259.3 34.2832 259.443 34.498C259.744 34.9421 259.787 35.3431 259.572 35.7012C259.357 36.0592 259.021 36.403 258.562 36.7324C258.118 37.0618 257.617 37.3483 257.059 37.5918C254.581 38.6803 252.819 38.6589 251.773 37.5273C251.229 36.9401 250.921 36.0091 250.85 34.7344C248.744 36.3529 246.589 37.4701 244.383 38.0859C243.581 38.3008 242.736 38.4082 241.848 38.4082C240.974 38.4082 240.115 38.2865 239.27 38.043C238.439 37.7995 237.715 37.4056 237.1 36.8613C235.782 35.7012 235.123 33.9108 235.123 31.4902V18.8789ZM278.156 19.6523L278.178 18.8789C278.178 18.6068 278.113 18.1484 277.984 17.5039C277.855 16.8451 277.44 16.3079 276.738 15.8926C276.051 15.4772 275.17 15.2695 274.096 15.2695C273.036 15.2695 272.09 15.5417 271.26 16.0859C270.443 16.6159 269.777 17.332 269.262 18.2344C268.288 19.9531 267.801 22.252 267.801 25.1309C267.801 27.8522 268.46 30.0651 269.777 31.7695C271.124 33.5169 272.9 34.3906 275.105 34.3906C277.111 34.3906 279.03 33.8392 280.863 32.7363C281.307 32.4642 281.651 32.2279 281.895 32.0273C282.038 32.0273 282.202 32.1419 282.389 32.3711C282.747 32.7865 282.926 33.123 282.926 33.3809C282.926 33.6243 282.826 33.9108 282.625 34.2402C282.424 34.5553 282.131 34.8991 281.744 35.2715C281.372 35.6296 280.921 35.9948 280.391 36.3672C279.861 36.7396 279.266 37.0762 278.607 37.377C277.104 38.0645 275.564 38.4082 273.988 38.4082C272.413 38.4082 270.938 38.1432 269.562 37.6133C268.202 37.069 267.027 36.2741 266.039 35.2285C263.919 33.0085 262.859 29.9577 262.859 26.0762C262.859 21.6647 264.206 18.1198 266.898 15.4414C269.348 13.0208 272.176 11.8105 275.385 11.8105C277.49 11.8105 279.245 12.2617 280.648 13.1641C282.124 14.1094 282.861 15.3555 282.861 16.9023C282.861 17.7474 282.675 18.3848 282.303 18.8145C281.658 19.5736 280.906 19.9531 280.047 19.9531C279.202 19.9531 278.572 19.8529 278.156 19.6523ZM294.484 23.3477L294.463 28.998C294.463 31.3613 294.585 32.7865 294.828 33.2734C295.072 33.7461 295.358 34.0326 295.688 34.1328C296.017 34.2188 296.439 34.2617 296.955 34.2617C297.471 34.2617 297.936 34.2259 298.352 34.1543C298.781 34.0684 299.182 33.9609 299.555 33.832C299.927 33.7031 300.285 33.5599 300.629 33.4023L301.682 32.9512C301.925 32.8652 302.197 33.1159 302.498 33.7031C302.584 33.8607 302.627 34.0469 302.627 34.2617C302.627 34.4622 302.541 34.7272 302.369 35.0566C302.197 35.3861 301.861 35.7656 301.359 36.1953C300.872 36.6107 300.299 36.9831 299.641 37.3125C298.208 38.043 296.919 38.4082 295.773 38.4082C294.642 38.4082 293.718 38.3438 293.002 38.2148C292.286 38.0859 291.677 37.8281 291.176 37.4414C290.145 36.6393 289.629 35.1712 289.629 33.0371V16.1289H287.502C287.058 16.1289 286.736 15.9857 286.535 15.6992C286.191 15.2552 286.02 14.8828 286.02 14.582C286.02 14.0807 286.141 13.8014 286.385 13.7441C288.662 13.3574 290.273 11.6673 291.219 8.67383C291.491 7.77148 291.706 6.70443 291.863 5.47266C292.551 5.35807 293.066 5.30078 293.41 5.30078C293.768 5.30078 294.076 5.47982 294.334 5.83789C294.592 6.19596 294.714 6.61133 294.699 7.08398C294.699 7.55664 294.692 8.00065 294.678 8.41602C294.663 8.83138 294.649 9.28255 294.635 9.76953L294.549 12.7773H301.982C302.169 13.1068 302.262 13.4577 302.262 13.8301V14.4961C302.262 15.0977 301.939 15.5918 301.295 15.9785C300.65 16.3509 299.934 16.5371 299.146 16.5371C298.373 16.5371 297.814 16.5299 297.471 16.5156C297.141 16.487 296.819 16.4583 296.504 16.4297L295.559 16.3008C295.229 16.2721 294.878 16.2435 294.506 16.2148V16.4512L294.484 23.3477ZM337.26 38.1719C336.93 38.0573 336.221 38 335.133 38H324.09C323.345 38 322.751 37.8854 322.307 37.6562C321.863 37.4128 321.641 36.9759 321.641 36.3457C321.641 35.8874 321.748 35.5221 321.963 35.25C322.507 35.3932 323.03 35.4648 323.531 35.4648C324.033 35.4648 324.426 35.4147 324.713 35.3145C324.999 35.1999 325.25 35.0065 325.465 34.7344C325.895 34.1615 326.109 33.209 326.109 31.877V10.3066C326.109 8.97461 325.322 8.14388 323.746 7.81445C322.758 7.61393 322.113 7.38477 321.812 7.12695C321.512 6.86914 321.361 6.58984 321.361 6.28906C321.361 5.63021 321.476 5.1862 321.705 4.95703C321.963 5.02865 322.199 5.06445 322.414 5.06445H327.742L335.391 4.84961C342.094 4.84961 346.333 6.67578 348.109 10.3281C348.754 11.6458 349.076 12.9635 349.076 14.2812C349.076 15.599 348.983 16.7233 348.797 17.6543C348.611 18.5853 348.288 19.4948 347.83 20.3828C347.386 21.2565 346.792 22.0872 346.047 22.875C345.302 23.6484 344.371 24.3288 343.254 24.916C340.833 26.1764 337.74 26.8066 333.973 26.8066H333.156C332.755 26.8066 332.555 26.5488 332.555 26.0332C332.555 24.9017 332.863 24.2643 333.479 24.1211C338.864 24.2357 342.122 22.6315 343.254 19.3086C343.598 18.263 343.77 17.1458 343.77 15.957C343.77 14.7682 343.641 13.6797 343.383 12.6914C343.125 11.6888 342.66 10.8008 341.986 10.0273C340.497 8.33724 338.033 7.49219 334.596 7.49219C333.206 7.49219 332.283 7.79297 331.824 8.39453C331.395 8.92448 331.18 9.9987 331.18 11.6172V33.0801C331.251 34.1973 332.139 34.8776 333.844 35.1211C335.376 35.3359 336.329 35.5365 336.701 35.7227C337.074 35.9089 337.317 36.0951 337.432 36.2812C337.546 36.4531 337.604 36.668 337.604 36.9258C337.604 37.4701 337.489 37.8854 337.26 38.1719ZM364.33 38.1074C364.029 38.0358 363.571 38 362.955 38H355.672C354.297 38 353.416 37.7565 353.029 37.2695C352.872 37.0833 352.793 36.8685 352.793 36.625C352.793 36.0234 352.908 35.5794 353.137 35.293C353.48 35.4076 353.796 35.4648 354.082 35.4648C354.383 35.4648 354.633 35.429 354.834 35.3574C355.035 35.2715 355.192 35.1354 355.307 34.9492C355.507 34.6055 355.607 33.9323 355.607 32.9297V18.8789C355.607 17.5326 355.357 16.6947 354.855 16.3652C354.655 16.2363 354.39 16.1719 354.061 16.1719C353.731 16.1719 353.466 16.222 353.266 16.3223C353.079 16.4225 352.922 16.4941 352.793 16.5371C352.678 16.5801 352.578 16.5801 352.492 16.5371C352.406 16.4798 352.32 16.401 352.234 16.3008C352.02 16.043 351.912 15.7995 351.912 15.5703C351.912 15.3268 351.998 15.069 352.17 14.7969C352.356 14.5104 352.65 14.1882 353.051 13.8301C353.452 13.4577 353.91 13.1211 354.426 12.8203C355.586 12.1471 356.746 11.8105 357.906 11.8105C359.224 11.8105 360.005 12.6699 360.248 14.3887C360.32 14.89 360.363 15.4128 360.377 15.957C362.468 14.1094 364.624 12.8418 366.844 12.1543C367.589 11.9251 368.262 11.8105 368.863 11.8105C369.479 11.8105 369.98 11.8965 370.367 12.0684C370.768 12.2402 371.083 12.4766 371.312 12.7773C371.742 13.3646 371.957 14.1165 371.957 15.0332C371.957 15.9499 371.914 16.6803 371.828 17.2246C371.742 17.7689 371.635 18.2487 371.506 18.6641C371.248 19.5091 371.005 20.0462 370.775 20.2754C370.374 20.6908 369.837 20.8984 369.164 20.8984C368.477 20.8984 368.133 20.6979 368.133 20.2969C368.133 18.7643 368.068 17.7832 367.939 17.3535C367.696 16.5658 367.238 16.1719 366.564 16.1719C365.891 16.1719 365.283 16.2507 364.738 16.4082C364.194 16.5514 363.664 16.752 363.148 17.0098C362.103 17.5254 361.186 18.1914 360.398 19.0078V33.2949C360.441 34.4264 360.936 35.1139 361.881 35.3574C362.153 35.429 362.461 35.4935 362.805 35.5508C363.148 35.6081 363.442 35.6797 363.686 35.7656C363.943 35.8372 364.144 35.9232 364.287 36.0234C364.531 36.2096 364.652 36.5104 364.652 36.9258C364.652 37.4414 364.545 37.8353 364.33 38.1074ZM375.051 26.4414C375.051 24.7083 375.23 23.1686 375.588 21.8223C375.946 20.4759 376.426 19.2728 377.027 18.2129C377.643 17.1387 378.359 16.2005 379.176 15.3984C380.007 14.5964 380.895 13.9303 381.84 13.4004C383.702 12.3405 385.535 11.8105 387.34 11.8105C389.145 11.8105 390.591 12.1328 391.68 12.7773C392.768 13.4076 393.656 14.2526 394.344 15.3125C395.618 17.332 396.256 20.0176 396.256 23.3691C396.256 24.6152 395.733 25.2526 394.688 25.2812L379.691 25.6035C379.777 28.7116 380.579 31.0104 382.098 32.5C383.387 33.7604 385.055 34.3906 387.104 34.3906C390.154 34.3906 392.632 33.7533 394.537 32.4785C394.666 32.4785 394.824 32.5859 395.01 32.8008C395.368 33.2305 395.547 33.6029 395.547 33.918C395.547 34.6055 394.688 35.4863 392.969 36.5605C390.992 37.7923 388.686 38.4082 386.051 38.4082C382.613 38.4082 379.913 37.3125 377.951 35.1211C376.018 32.9727 375.051 30.0794 375.051 26.4414ZM379.82 22.832C383.945 22.6315 387.719 22.3665 391.143 22.0371C391.3 17.4824 389.725 15.2051 386.416 15.2051C384.568 15.2051 383.057 15.9212 381.883 17.3535C380.809 18.6712 380.121 20.4974 379.82 22.832ZM408.975 36.9473C404.191 24.4577 401.727 18.0124 401.584 17.6113C401.441 17.196 401.29 16.8164 401.133 16.4727C400.775 15.6706 400.452 15.2695 400.166 15.2695C399.98 15.2695 399.772 15.291 399.543 15.334C399.314 15.377 399.128 15.2982 398.984 15.0977C398.841 14.8971 398.77 14.6465 398.77 14.3457C398.77 14.0449 398.906 13.737 399.178 13.4219C399.464 13.1068 399.815 12.8346 400.23 12.6055C401.133 12.0755 401.849 11.8105 402.379 11.8105C402.909 11.8105 403.331 11.8249 403.646 11.8535C403.962 11.8822 404.255 11.9896 404.527 12.1758C405.1 12.5482 405.58 13.3503 405.967 14.582L412.262 33.3594C413.264 31.3398 414.009 29.793 414.496 28.7188L415.828 25.582C417.432 21.6289 418.234 18.8503 418.234 17.2461V16.9668C418.234 16.2507 418.07 15.6849 417.74 15.2695C417.425 14.8542 416.859 14.6035 416.043 14.5176C415.9 14.2884 415.828 14.0521 415.828 13.8086C415.828 13.5508 415.964 13.3001 416.236 13.0566C416.523 12.7988 416.881 12.5768 417.311 12.3906C418.199 12.0039 419.165 11.8105 420.211 11.8105C421.271 11.8105 422.087 11.9753 422.66 12.3047C423.247 12.6198 423.541 13.25 423.541 14.1953C423.541 16.2005 422.18 20.1895 419.459 26.1621L417.504 30.2656C416.158 32.987 415.141 34.8346 414.453 35.8086C413.221 37.5417 412.14 38.4082 411.209 38.4082C410.536 38.4082 409.934 38.1432 409.404 37.6133C409.218 37.4271 409.075 37.2051 408.975 36.9473ZM432.521 7.81445C432.035 7.81445 431.583 7.74284 431.168 7.59961C430.767 7.44206 430.416 7.22005 430.115 6.93359C429.485 6.33203 429.17 5.52279 429.17 4.50586C429.17 3.5319 429.542 2.70833 430.287 2.03516C431.003 1.36198 431.863 1.02539 432.865 1.02539C433.868 1.02539 434.67 1.32617 435.271 1.92773C435.873 2.5293 436.174 3.3457 436.174 4.37695C436.174 5.35091 435.816 6.17448 435.1 6.84766C434.398 7.49219 433.538 7.81445 432.521 7.81445ZM431.211 38C429.005 38 427.902 37.4987 427.902 36.4961C427.902 35.9805 428.017 35.5794 428.246 35.293C428.59 35.4076 428.905 35.4648 429.191 35.4648C430.523 35.4648 431.175 34.6198 431.146 32.9297V18.5352C431.146 17.5326 431.003 16.8379 430.717 16.4512C430.445 16.0501 429.951 15.8496 429.234 15.8496C428.704 15.8496 428.225 15.9141 427.795 16.043C427.537 16.0716 427.351 15.8711 427.236 15.4414C427.136 15.0547 427.193 14.7181 427.408 14.4316C427.623 14.1309 427.952 13.8229 428.396 13.5078C428.855 13.1784 429.356 12.8919 429.9 12.6484C431.075 12.0898 432.056 11.8105 432.844 11.8105C433.632 11.8105 434.212 11.9251 434.584 12.1543C434.971 12.3835 435.264 12.6914 435.465 13.0781C435.78 13.7083 435.938 14.7253 435.938 16.1289V33.2949C435.98 34.4264 436.389 35.1139 437.162 35.3574C437.377 35.429 437.642 35.4935 437.957 35.5508C438.272 35.6081 438.551 35.6797 438.795 35.7656C439.053 35.8372 439.253 35.9232 439.396 36.0234C439.64 36.2096 439.762 36.5104 439.762 36.9258C439.762 37.4414 439.654 37.8353 439.439 38.1074C439.139 38.0358 438.68 38 438.064 38H431.211ZM442.941 26.4414C442.941 24.7083 443.12 23.1686 443.479 21.8223C443.837 20.4759 444.316 19.2728 444.918 18.2129C445.534 17.1387 446.25 16.2005 447.066 15.3984C447.897 14.5964 448.785 13.9303 449.73 13.4004C451.592 12.3405 453.426 11.8105 455.23 11.8105C457.035 11.8105 458.482 12.1328 459.57 12.7773C460.659 13.4076 461.547 14.2526 462.234 15.3125C463.509 17.332 464.146 20.0176 464.146 23.3691C464.146 24.6152 463.624 25.2526 462.578 25.2812L447.582 25.6035C447.668 28.7116 448.47 31.0104 449.988 32.5C451.277 33.7604 452.946 34.3906 454.994 34.3906C458.045 34.3906 460.523 33.7533 462.428 32.4785C462.557 32.4785 462.714 32.5859 462.9 32.8008C463.258 33.2305 463.438 33.6029 463.438 33.918C463.438 34.6055 462.578 35.4863 460.859 36.5605C458.883 37.7923 456.577 38.4082 453.941 38.4082C450.504 38.4082 447.804 37.3125 445.842 35.1211C443.908 32.9727 442.941 30.0794 442.941 26.4414ZM447.711 22.832C451.836 22.6315 455.61 22.3665 459.033 22.0371C459.191 17.4824 457.615 15.2051 454.307 15.2051C452.459 15.2051 450.948 15.9212 449.773 17.3535C448.699 18.6712 448.012 20.4974 447.711 22.832ZM476.199 36.9473L469.303 17.4609C468.787 16 468.336 15.2695 467.949 15.2695C467.777 15.2695 467.577 15.291 467.348 15.334C467.118 15.377 466.932 15.2982 466.789 15.0977C466.646 14.8971 466.574 14.6465 466.574 14.3457C466.574 14.0449 466.696 13.737 466.939 13.4219C467.183 13.1068 467.491 12.8346 467.863 12.6055C468.694 12.0755 469.417 11.8105 470.033 11.8105C470.663 11.8105 471.129 11.8249 471.43 11.8535C471.73 11.8822 472.017 11.9824 472.289 12.1543C472.833 12.5124 473.292 13.3216 473.664 14.582L479.186 33.2734C480.546 29.263 481.427 26.6133 481.828 25.3242C483.246 20.5404 484.191 17.0026 484.664 14.7109C484.764 14.1953 485.237 13.7585 486.082 13.4004C486.741 13.1283 487.299 12.9922 487.758 12.9922C488.216 12.9922 488.517 13.028 488.66 13.0996C488.818 13.1569 488.932 13.2715 489.004 13.4434C489.176 13.7871 489.305 14.2025 489.391 14.6895L495.105 33.4238C496.18 30.8027 496.91 28.9622 497.297 27.9023L498.414 24.7656C499.603 21.3424 500.197 18.6712 500.197 16.752C500.197 15.3913 499.538 14.6322 498.221 14.4746C498.077 14.2454 498.006 14.0091 498.006 13.7656C498.006 13.5078 498.128 13.2572 498.371 13.0137C498.615 12.7559 498.93 12.5339 499.316 12.3477C500.09 11.9896 500.87 11.8105 501.658 11.8105C502.46 11.8105 503.076 11.8535 503.506 11.9395C503.936 12.0254 504.279 12.1758 504.537 12.3906C505.024 12.8203 505.268 13.4648 505.268 14.3242C505.268 15.1693 505.174 16.0286 504.988 16.9023C504.802 17.7617 504.551 18.707 504.236 19.7383C503.921 20.7695 503.556 21.8509 503.141 22.9824C501.579 27.1361 500.441 29.9863 499.725 31.5332L498.156 34.7988C497.841 35.429 497.598 35.8874 497.426 36.1738L496.889 37.0117C496.287 37.9427 495.578 38.4082 494.762 38.4082C493.874 38.4082 493.143 38.1719 492.57 37.6992C492.341 37.4987 492.176 37.248 492.076 36.9473L486.748 21.5645C485.316 26.0475 484.406 28.8548 484.02 29.9863C482.845 33.2806 482.136 35.1784 481.893 35.6797C481.649 36.1667 481.434 36.5677 481.248 36.8828C481.062 37.1836 480.854 37.4414 480.625 37.6562C480.109 38.1576 479.544 38.4082 478.928 38.4082C478.068 38.4082 477.331 38.1576 476.715 37.6562C476.486 37.4701 476.314 37.2337 476.199 36.9473ZM540.502 19.7598C540.688 20.1322 540.781 20.5475 540.781 21.0059C540.781 21.4499 540.753 21.8223 540.695 22.123C540.652 22.4238 540.581 22.6888 540.48 22.918C540.223 23.4622 539.893 23.7344 539.492 23.7344H525.506C525.348 23.3047 525.27 22.8822 525.27 22.4668C525.27 22.0371 525.291 21.6719 525.334 21.3711C525.391 21.0703 525.47 20.7982 525.57 20.5547C525.828 20.0247 526.129 19.7598 526.473 19.7598H540.502ZM583.707 14.3672C583.764 13.9661 583.793 13.3789 583.793 12.6055C583.793 11.832 583.643 11.1302 583.342 10.5C583.041 9.85547 582.633 9.35417 582.117 8.99609C581.215 8.38021 579.854 8.07227 578.035 8.07227C576.23 8.07227 574.633 8.40169 573.244 9.06055C571.869 9.70508 570.716 10.6146 569.785 11.7891C567.909 14.1523 566.971 17.3678 566.971 21.4355C566.971 25.2884 567.923 28.3607 569.828 30.6523C571.805 33.0443 574.476 34.2402 577.842 34.2402C581.15 34.2402 583.729 33.5169 585.576 32.0703C586.135 31.6406 586.643 31.1751 587.102 30.6738C587.531 30.8027 587.882 31.1823 588.154 31.8125C588.24 32.0273 588.283 32.3138 588.283 32.6719C588.283 33.0156 588.025 33.5312 587.51 34.2188C587.008 34.8919 586.271 35.5436 585.297 36.1738C582.977 37.6921 580.198 38.4512 576.961 38.4512C572.32 38.4512 568.625 37.0404 565.875 34.2188C563.154 31.4544 561.793 27.752 561.793 23.1113C561.793 20.2754 562.244 17.7188 563.146 15.4414C564.049 13.1641 565.281 11.2305 566.842 9.64062C568.403 8.03646 570.222 6.80469 572.299 5.94531C574.39 5.08594 576.417 4.65625 578.379 4.65625C580.355 4.65625 581.938 4.82096 583.127 5.15039C584.316 5.47982 585.304 5.93099 586.092 6.50391C587.667 7.67839 588.455 9.23958 588.455 11.1875C588.455 12.6771 587.904 13.7298 586.801 14.3457C586.428 14.5605 586.027 14.668 585.598 14.668C584.71 14.668 584.079 14.5677 583.707 14.3672ZM608.092 35.2715C606.001 37.3626 603.473 38.4082 600.508 38.4082C598.216 38.4082 596.383 37.7493 595.008 36.4316C593.618 35.0996 592.924 33.3737 592.924 31.2539C592.924 28.6185 594.098 26.6419 596.447 25.3242C598.567 24.1211 601.553 23.5195 605.406 23.5195H608.092C608.106 22.9753 608.113 22.4453 608.113 21.9297V20.3184C608.113 18.3991 607.834 17.0456 607.275 16.2578C606.645 15.3698 605.571 14.9258 604.053 14.9258C600.572 14.9258 598.782 16.1719 598.682 18.6641C598.667 19.0508 598.674 19.373 598.703 19.6309C598.417 19.86 597.93 19.9746 597.242 19.9746C596.569 19.9746 596.075 19.8958 595.76 19.7383C595.459 19.5807 595.194 19.3659 594.965 19.0938C594.478 18.5352 594.234 17.8262 594.234 16.9668C594.234 16.0931 594.485 15.334 594.986 14.6895C595.502 14.0306 596.197 13.4935 597.07 13.0781C598.775 12.2331 600.787 11.8105 603.107 11.8105C605.428 11.8105 607.168 12.0397 608.328 12.498C609.503 12.9421 610.434 13.5365 611.121 14.2812C612.339 15.599 612.947 17.3678 612.947 19.5879L612.732 29.9004C612.732 31.7767 612.818 32.9655 612.99 33.4668C613.176 33.9681 613.391 34.3047 613.635 34.4766C613.893 34.6484 614.201 34.7344 614.559 34.7344C614.931 34.7344 615.232 34.6771 615.461 34.5625L616.062 34.2832C616.263 34.2116 616.435 34.2975 616.578 34.541C616.736 34.7702 616.814 34.9779 616.814 35.1641C616.814 35.3359 616.736 35.5651 616.578 35.8516C616.435 36.138 616.156 36.446 615.74 36.7754C615.339 37.0905 614.881 37.3698 614.365 37.6133C611.515 38.9596 609.574 38.6445 608.543 36.668C608.328 36.2812 608.178 35.8158 608.092 35.2715ZM608.027 32.457C608.027 30.3945 608.042 28.3464 608.07 26.3125C605.091 26.4271 603.064 26.6204 601.99 26.8926C600.93 27.1504 600.164 27.401 599.691 27.6445C599.219 27.888 598.846 28.1745 598.574 28.5039C598.13 29.0482 597.908 29.8717 597.908 30.9746C597.908 32.0632 598.295 32.9368 599.068 33.5957C599.842 34.2402 600.952 34.5625 602.398 34.5625C604.447 34.5625 606.323 33.8607 608.027 32.457ZM631.273 38.1074C630.987 38.0358 630.529 38 629.898 38H623.045C621.67 38 620.789 37.7565 620.402 37.2695C620.245 37.0833 620.166 36.8685 620.166 36.625C620.166 36.0234 620.281 35.5794 620.51 35.293C620.854 35.4076 621.24 35.4648 621.67 35.4648C622.114 35.4648 622.443 35.2858 622.658 34.9277C622.887 34.5697 622.995 33.9036 622.98 32.9297V18.8789C622.98 17.5326 622.73 16.6947 622.229 16.3652C622.028 16.2363 621.763 16.1719 621.434 16.1719C621.104 16.1719 620.839 16.222 620.639 16.3223C620.452 16.4225 620.295 16.4941 620.166 16.5371C620.051 16.5801 619.951 16.5801 619.865 16.5371C619.779 16.4798 619.693 16.401 619.607 16.3008C619.393 16.0716 619.285 15.8353 619.285 15.5918C619.285 15.334 619.371 15.069 619.543 14.7969C619.729 14.5104 620.023 14.1882 620.424 13.8301C620.825 13.4577 621.283 13.1211 621.799 12.8203C622.959 12.1471 624.119 11.8105 625.279 11.8105C626.611 11.8105 627.399 12.6914 627.643 14.4531C627.714 14.9688 627.757 15.4987 627.771 16.043C629.906 14.2526 632.226 12.9779 634.732 12.2188C635.635 11.9466 636.544 11.8105 637.461 11.8105C638.392 11.8105 639.273 11.9323 640.104 12.1758C640.949 12.4193 641.679 12.8132 642.295 13.3574C643.598 14.5033 644.25 16.2936 644.25 18.7285V33.2949C644.293 34.4121 644.708 35.0996 645.496 35.3574C645.711 35.429 645.976 35.4935 646.291 35.5508C646.606 35.6081 646.885 35.6797 647.129 35.7656C647.387 35.8372 647.587 35.9232 647.73 36.0234C647.974 36.2096 648.096 36.5104 648.096 36.9258C648.096 37.4271 647.981 37.821 647.752 38.1074C647.465 38.0358 647.007 38 646.377 38H639.523C638.148 38 637.268 37.7565 636.881 37.2695C636.723 37.0833 636.645 36.8685 636.645 36.625C636.645 36.0234 636.759 35.5794 636.988 35.293C637.332 35.4076 637.647 35.4648 637.934 35.4648C638.234 35.4648 638.485 35.429 638.686 35.3574C638.886 35.2715 639.044 35.1354 639.158 34.9492C639.359 34.6055 639.459 33.9323 639.459 32.9297V20.2539C639.459 17.819 638.736 16.4583 637.289 16.1719C636.845 16.0859 636.286 16.043 635.613 16.043C634.954 16.043 634.224 16.1432 633.422 16.3438C632.62 16.5443 631.868 16.8021 631.166 17.1172C629.82 17.7188 628.688 18.4779 627.771 19.3945V33.2949C627.814 34.4121 628.223 35.0996 628.996 35.3574C629.225 35.429 629.49 35.4935 629.791 35.5508C630.106 35.6081 630.393 35.6797 630.65 35.7656C630.908 35.8372 631.109 35.9232 631.252 36.0234C631.495 36.2096 631.617 36.5104 631.617 36.9258C631.617 37.4271 631.503 37.821 631.273 38.1074ZM666.766 19.6523L666.787 18.8789C666.787 18.6068 666.723 18.1484 666.594 17.5039C666.465 16.8451 666.049 16.3079 665.348 15.8926C664.66 15.4772 663.779 15.2695 662.705 15.2695C661.645 15.2695 660.7 15.5417 659.869 16.0859C659.053 16.6159 658.387 17.332 657.871 18.2344C656.897 19.9531 656.41 22.252 656.41 25.1309C656.41 27.8522 657.069 30.0651 658.387 31.7695C659.733 33.5169 661.509 34.3906 663.715 34.3906C665.72 34.3906 667.639 33.8392 669.473 32.7363C669.917 32.4642 670.26 32.2279 670.504 32.0273C670.647 32.0273 670.812 32.1419 670.998 32.3711C671.356 32.7865 671.535 33.123 671.535 33.3809C671.535 33.6243 671.435 33.9108 671.234 34.2402C671.034 34.5553 670.74 34.8991 670.354 35.2715C669.981 35.6296 669.53 35.9948 669 36.3672C668.47 36.7396 667.876 37.0762 667.217 37.377C665.713 38.0645 664.173 38.4082 662.598 38.4082C661.022 38.4082 659.547 38.1432 658.172 37.6133C656.811 37.069 655.637 36.2741 654.648 35.2285C652.529 33.0085 651.469 29.9577 651.469 26.0762C651.469 21.6647 652.815 18.1198 655.508 15.4414C657.957 13.0208 660.786 11.8105 663.994 11.8105C666.1 11.8105 667.854 12.2617 669.258 13.1641C670.733 14.1094 671.471 15.3555 671.471 16.9023C671.471 17.7474 671.285 18.3848 670.912 18.8145C670.268 19.5736 669.516 19.9531 668.656 19.9531C667.811 19.9531 667.181 19.8529 666.766 19.6523ZM675.703 26.4414C675.703 24.7083 675.882 23.1686 676.24 21.8223C676.598 20.4759 677.078 19.2728 677.68 18.2129C678.296 17.1387 679.012 16.2005 679.828 15.3984C680.659 14.5964 681.547 13.9303 682.492 13.4004C684.354 12.3405 686.188 11.8105 687.992 11.8105C689.797 11.8105 691.243 12.1328 692.332 12.7773C693.421 13.4076 694.309 14.2526 694.996 15.3125C696.271 17.332 696.908 20.0176 696.908 23.3691C696.908 24.6152 696.385 25.2526 695.34 25.2812L680.344 25.6035C680.43 28.7116 681.232 31.0104 682.75 32.5C684.039 33.7604 685.708 34.3906 687.756 34.3906C690.807 34.3906 693.285 33.7533 695.189 32.4785C695.318 32.4785 695.476 32.5859 695.662 32.8008C696.02 33.2305 696.199 33.6029 696.199 33.918C696.199 34.6055 695.34 35.4863 693.621 36.5605C691.645 37.7923 689.339 38.4082 686.703 38.4082C683.266 38.4082 680.566 37.3125 678.604 35.1211C676.67 32.9727 675.703 30.0794 675.703 26.4414ZM680.473 22.832C684.598 22.6315 688.372 22.3665 691.795 22.0371C691.952 17.4824 690.377 15.2051 687.068 15.2051C685.221 15.2051 683.71 15.9212 682.535 17.3535C681.461 18.6712 680.773 20.4974 680.473 22.832ZM713.58 38.1074C713.279 38.0358 712.821 38 712.205 38H704.922C703.547 38 702.666 37.7565 702.279 37.2695C702.122 37.0833 702.043 36.8685 702.043 36.625C702.043 36.0234 702.158 35.5794 702.387 35.293C702.73 35.4076 703.046 35.4648 703.332 35.4648C703.633 35.4648 703.883 35.429 704.084 35.3574C704.285 35.2715 704.442 35.1354 704.557 34.9492C704.757 34.6055 704.857 33.9323 704.857 32.9297V18.8789C704.857 17.5326 704.607 16.6947 704.105 16.3652C703.905 16.2363 703.64 16.1719 703.311 16.1719C702.981 16.1719 702.716 16.222 702.516 16.3223C702.329 16.4225 702.172 16.4941 702.043 16.5371C701.928 16.5801 701.828 16.5801 701.742 16.5371C701.656 16.4798 701.57 16.401 701.484 16.3008C701.27 16.043 701.162 15.7995 701.162 15.5703C701.162 15.3268 701.248 15.069 701.42 14.7969C701.606 14.5104 701.9 14.1882 702.301 13.8301C702.702 13.4577 703.16 13.1211 703.676 12.8203C704.836 12.1471 705.996 11.8105 707.156 11.8105C708.474 11.8105 709.255 12.6699 709.498 14.3887C709.57 14.89 709.613 15.4128 709.627 15.957C711.718 14.1094 713.874 12.8418 716.094 12.1543C716.839 11.9251 717.512 11.8105 718.113 11.8105C718.729 11.8105 719.23 11.8965 719.617 12.0684C720.018 12.2402 720.333 12.4766 720.562 12.7773C720.992 13.3646 721.207 14.1165 721.207 15.0332C721.207 15.9499 721.164 16.6803 721.078 17.2246C720.992 17.7689 720.885 18.2487 720.756 18.6641C720.498 19.5091 720.255 20.0462 720.025 20.2754C719.624 20.6908 719.087 20.8984 718.414 20.8984C717.727 20.8984 717.383 20.6979 717.383 20.2969C717.383 18.7643 717.318 17.7832 717.189 17.3535C716.946 16.5658 716.488 16.1719 715.814 16.1719C715.141 16.1719 714.533 16.2507 713.988 16.4082C713.444 16.5514 712.914 16.752 712.398 17.0098C711.353 17.5254 710.436 18.1914 709.648 19.0078V33.2949C709.691 34.4264 710.186 35.1139 711.131 35.3574C711.403 35.429 711.711 35.4935 712.055 35.5508C712.398 35.6081 712.692 35.6797 712.936 35.7656C713.193 35.8372 713.394 35.9232 713.537 36.0234C713.781 36.2096 713.902 36.5104 713.902 36.9258C713.902 37.4414 713.795 37.8353 713.58 38.1074ZM737.857 38.2148L731.734 37.9785H726.191C725.447 37.9785 724.824 37.8568 724.322 37.6133C723.821 37.3555 723.57 37.0404 723.57 36.668C723.57 35.9805 723.678 35.5007 723.893 35.2285C724.408 35.3717 724.931 35.4434 725.461 35.4434C725.991 35.4434 726.435 35.4076 726.793 35.3359C727.165 35.2643 727.495 35.1139 727.781 34.8848C728.44 34.3691 728.77 33.474 728.77 32.1992V10.3066C728.77 8.97461 727.939 8.14388 726.277 7.81445C725.246 7.59961 724.573 7.37044 724.258 7.12695C723.957 6.86914 723.807 6.58984 723.807 6.28906C723.807 5.63021 723.921 5.1862 724.15 4.95703C724.408 5.02865 724.645 5.06445 724.859 5.06445C724.859 5.06445 727.029 5.06445 731.369 5.06445C731.699 5.06445 732.135 5.05013 732.68 5.02148C732.68 5.02148 733.288 4.98568 734.506 4.91406C736.296 4.82812 738.13 4.78516 740.006 4.78516C741.896 4.78516 743.73 5.01432 745.506 5.47266C747.282 5.91667 748.814 6.52539 750.104 7.29883C751.407 8.07227 752.488 8.97461 753.348 10.0059C754.221 11.0228 754.923 12.1042 755.453 13.25C756.398 15.3555 756.871 17.7188 756.871 20.3398C756.871 25.0951 755.639 29.0482 753.176 32.1992C751.242 34.6771 748.399 36.4245 744.646 37.4414C742.699 37.957 740.436 38.2148 737.857 38.2148ZM733.84 32.8223C733.84 33.8965 734.176 34.5911 734.85 34.9062C735.423 35.1641 736.79 35.293 738.953 35.293C741.13 35.293 743.064 34.9349 744.754 34.2188C746.444 33.5026 747.79 32.5358 748.793 31.3184C750.598 29.127 751.5 26.0404 751.5 22.0586C751.5 15.2266 749.087 10.765 744.26 8.67383C742.512 7.91471 740.357 7.53516 737.793 7.53516C736.089 7.53516 735.05 7.70703 734.678 8.05078C734.305 8.38021 734.069 8.79557 733.969 9.29688C733.883 9.78385 733.84 10.4427 733.84 11.2734V32.8223ZM781.836 35.4648C782.438 35.5651 782.889 35.6152 783.189 35.6152C783.49 35.6152 783.784 35.5866 784.07 35.5293C784.371 35.4577 784.636 35.3503 784.865 35.207C785.381 34.8919 785.639 34.3978 785.639 33.7246C785.639 33.166 785.467 32.543 785.123 31.8555L783.104 26.8496H769.504L767.098 32.9512C766.868 33.5098 766.754 33.918 766.754 34.1758C766.754 34.4193 766.79 34.6055 766.861 34.7344C766.947 34.849 767.069 34.9492 767.227 35.0352C767.398 35.1211 767.606 35.1927 767.85 35.25L768.73 35.4863C769.676 35.6439 770.285 35.7871 770.557 35.916C771.115 36.1882 771.395 36.5892 771.395 37.1191C771.395 37.5059 771.287 37.8353 771.072 38.1074C770.8 38.0358 770.549 38 770.32 38H761.576C759.671 38 758.719 37.4772 758.719 36.4316C758.719 35.9447 758.826 35.5508 759.041 35.25C759.571 35.3932 760.015 35.4648 760.373 35.4648C760.745 35.4648 761.053 35.4076 761.297 35.293C761.555 35.1784 761.798 34.985 762.027 34.7129C762.414 34.2402 762.865 33.2949 763.381 31.877L773.994 6.18164C774.295 5.49414 775.147 5.02148 776.551 4.76367C776.938 4.69206 777.346 4.65625 777.775 4.65625C778.649 4.65625 779.186 4.89258 779.387 5.36523L781.535 10.7363C785.674 20.5046 788.066 26.2051 788.711 27.8379L790.645 32.9082C791.031 34.0111 791.354 34.6914 791.611 34.9492C791.869 35.207 792.148 35.3861 792.449 35.4863C792.75 35.5866 793.058 35.6725 793.373 35.7441C793.702 35.8014 793.989 35.8802 794.232 35.9805C794.777 36.224 795.049 36.5964 795.049 37.0977C795.049 37.4844 794.941 37.8138 794.727 38.0859C794.454 38.0143 794.211 37.9785 793.996 37.9785H783.748C783.018 37.9785 782.445 37.8926 782.029 37.7207C781.628 37.5345 781.428 37.2552 781.428 36.8828C781.428 36.2383 781.564 35.7656 781.836 35.4648ZM781.857 23.7988L776.229 9.87695L770.707 23.7988H781.857ZM801.365 34.1758C800.005 32.8151 798.938 31.1751 798.164 29.2559C797.405 27.3223 797.025 25.2812 797.025 23.1328C797.025 20.9701 797.24 19.0651 797.67 17.418C798.1 15.7708 798.694 14.2812 799.453 12.9492C800.212 11.6029 801.115 10.4141 802.16 9.38281C803.206 8.35156 804.344 7.48503 805.576 6.7832C808.068 5.36523 810.768 4.65625 813.676 4.65625C818.087 4.65625 821.682 6.0599 824.461 8.86719C827.368 11.7891 828.822 15.6348 828.822 20.4043C828.822 23.9993 828.013 27.2292 826.395 30.0938C824.919 32.7005 822.885 34.7487 820.293 36.2383C817.801 37.6849 815.287 38.4082 812.752 38.4082C810.231 38.4082 808.04 38.043 806.178 37.3125C804.33 36.5677 802.726 35.5221 801.365 34.1758ZM804.975 11.7031C804.13 12.8919 803.507 14.3314 803.105 16.0215C802.704 17.7116 802.504 19.5306 802.504 21.4785C802.504 23.4121 802.69 25.1882 803.062 26.8066C803.435 28.4108 804.029 29.8216 804.846 31.0391C806.622 33.6888 809.257 35.0137 812.752 35.0137C816.275 35.0137 818.947 33.8607 820.766 31.5547C822.513 29.306 823.387 26.1048 823.387 21.9512C823.387 15.5775 821.496 11.3021 817.715 9.125C816.368 8.36589 814.771 7.98633 812.924 7.98633C811.076 7.98633 809.501 8.30859 808.197 8.95312C806.894 9.59766 805.82 10.5143 804.975 11.7031ZM864.572 38.1719C864.243 38.0573 863.534 38 862.445 38H851.402C850.658 38 850.063 37.8854 849.619 37.6562C849.175 37.4128 848.953 36.9759 848.953 36.3457C848.953 35.8874 849.061 35.5221 849.275 35.25C849.82 35.3932 850.342 35.4648 850.844 35.4648C851.345 35.4648 851.739 35.4147 852.025 35.3145C852.312 35.1999 852.562 35.0065 852.777 34.7344C853.207 34.1615 853.422 33.209 853.422 31.877V10.3066C853.422 8.97461 852.634 8.14388 851.059 7.81445C850.07 7.61393 849.426 7.38477 849.125 7.12695C848.824 6.86914 848.674 6.58984 848.674 6.28906C848.674 5.63021 848.788 5.1862 849.018 4.95703C849.275 5.02865 849.512 5.06445 849.727 5.06445H855.055L862.703 4.84961C869.406 4.84961 873.646 6.67578 875.422 10.3281C876.066 11.6458 876.389 12.9635 876.389 14.2812C876.389 15.599 876.296 16.7233 876.109 17.6543C875.923 18.5853 875.601 19.4948 875.143 20.3828C874.699 21.2565 874.104 22.0872 873.359 22.875C872.615 23.6484 871.684 24.3288 870.566 24.916C868.146 26.1764 865.052 26.8066 861.285 26.8066H860.469C860.068 26.8066 859.867 26.5488 859.867 26.0332C859.867 24.9017 860.175 24.2643 860.791 24.1211C866.176 24.2357 869.435 22.6315 870.566 19.3086C870.91 18.263 871.082 17.1458 871.082 15.957C871.082 14.7682 870.953 13.6797 870.695 12.6914C870.438 11.6888 869.972 10.8008 869.299 10.0273C867.809 8.33724 865.346 7.49219 861.908 7.49219C860.519 7.49219 859.595 7.79297 859.137 8.39453C858.707 8.92448 858.492 9.9987 858.492 11.6172V33.0801C858.564 34.1973 859.452 34.8776 861.156 35.1211C862.689 35.3359 863.641 35.5365 864.014 35.7227C864.386 35.9089 864.63 36.0951 864.744 36.2812C864.859 36.4531 864.916 36.668 864.916 36.9258C864.916 37.4701 864.801 37.8854 864.572 38.1719ZM893.189 38.1719C892.86 38.0573 892.151 38 891.062 38H882.104C881.359 38 880.764 37.8854 880.32 37.6562C879.876 37.4128 879.654 36.9759 879.654 36.3457C879.654 35.8874 879.762 35.5221 879.977 35.25C880.549 35.3932 881.072 35.4648 881.545 35.4648C882.032 35.4648 882.411 35.4147 882.684 35.3145C882.97 35.2142 883.214 35.0352 883.414 34.7773C883.858 34.2331 884.094 33.3379 884.123 32.0918V10.1348C884.123 9.00326 883.808 8.29427 883.178 8.00781C882.977 7.90755 882.705 7.82161 882.361 7.75C882.018 7.67839 881.674 7.60677 881.33 7.53516C881.001 7.44922 880.721 7.34896 880.492 7.23438C880.034 7.00521 879.805 6.61849 879.805 6.07422C879.805 5.54427 879.912 5.15039 880.127 4.89258C880.456 5.00716 881.165 5.06445 882.254 5.06445H890.998C891.743 5.06445 892.337 5.1862 892.781 5.42969C893.24 5.65885 893.469 6.08854 893.469 6.71875C893.469 7.19141 893.354 7.55664 893.125 7.81445C892.581 7.67122 891.986 7.59961 891.342 7.59961C889.952 7.59961 889.236 8.73112 889.193 10.9941V32.9297C889.193 34.0612 889.508 34.7773 890.139 35.0781C890.339 35.1641 890.611 35.2428 890.955 35.3145C891.299 35.3861 891.635 35.4648 891.965 35.5508C892.309 35.6224 892.595 35.7155 892.824 35.8301C893.297 36.0736 893.533 36.4603 893.533 36.9902C893.533 37.4915 893.419 37.8854 893.189 38.1719ZM925.051 31.3184C925.051 34.541 924.621 36.7682 923.762 38H900.322C899.191 38 898.41 37.7135 897.98 37.1406C897.837 36.9401 897.766 36.7181 897.766 36.4746C897.766 35.9303 897.88 35.515 898.109 35.2285C898.596 35.3717 899.234 35.4434 900.021 35.4434C901.783 35.4434 902.664 34.362 902.664 32.1992V10.1348C902.664 9.14648 902.249 8.48047 901.418 8.13672C901.174 8.02214 900.874 7.91471 900.516 7.81445L899.441 7.53516C898.754 7.36328 898.324 7.1556 898.152 6.91211C897.995 6.6543 897.916 6.39648 897.916 6.13867C897.916 5.5944 898.031 5.17904 898.26 4.89258C898.589 5.00716 899.298 5.06445 900.387 5.06445H909.754C910.499 5.06445 911.093 5.1862 911.537 5.42969C911.981 5.65885 912.203 6.08854 912.203 6.71875C912.203 7.20573 912.096 7.57096 911.881 7.81445C911.337 7.67122 910.814 7.59961 910.312 7.59961C909.826 7.59961 909.439 7.6569 909.152 7.77148C908.88 7.87174 908.637 8.05078 908.422 8.30859C907.992 8.85286 907.763 9.74805 907.734 10.9941V32.7148C907.763 33.7174 908.057 34.3906 908.615 34.7344C909.088 35.0352 909.954 35.1855 911.215 35.1855L912.826 35.1641L914.674 35.1426C917.796 35.1426 919.837 34.4479 920.797 33.0586C921.27 32.3711 921.585 31.5117 921.742 30.4805C921.914 29.4349 922.064 28.2246 922.193 26.8496C922.423 26.7064 922.73 26.6348 923.117 26.6348C923.848 26.6348 924.342 26.7207 924.6 26.8926C924.9 28.0671 925.051 29.5423 925.051 31.3184ZM955.859 31.3184C955.859 34.541 955.43 36.7682 954.57 38H931.131C929.999 38 929.219 37.7135 928.789 37.1406C928.646 36.9401 928.574 36.7181 928.574 36.4746C928.574 35.9303 928.689 35.515 928.918 35.2285C929.405 35.3717 930.042 35.4434 930.83 35.4434C932.592 35.4434 933.473 34.362 933.473 32.1992V10.1348C933.473 9.14648 933.057 8.48047 932.227 8.13672C931.983 8.02214 931.682 7.91471 931.324 7.81445L930.25 7.53516C929.562 7.36328 929.133 7.1556 928.961 6.91211C928.803 6.6543 928.725 6.39648 928.725 6.13867C928.725 5.5944 928.839 5.17904 929.068 4.89258C929.398 5.00716 930.107 5.06445 931.195 5.06445H940.562C941.307 5.06445 941.902 5.1862 942.346 5.42969C942.79 5.65885 943.012 6.08854 943.012 6.71875C943.012 7.20573 942.904 7.57096 942.689 7.81445C942.145 7.67122 941.622 7.59961 941.121 7.59961C940.634 7.59961 940.247 7.6569 939.961 7.77148C939.689 7.87174 939.445 8.05078 939.23 8.30859C938.801 8.85286 938.572 9.74805 938.543 10.9941V32.7148C938.572 33.7174 938.865 34.3906 939.424 34.7344C939.896 35.0352 940.763 35.1855 942.023 35.1855L943.635 35.1641L945.482 35.1426C948.605 35.1426 950.646 34.4479 951.605 33.0586C952.078 32.3711 952.393 31.5117 952.551 30.4805C952.723 29.4349 952.873 28.2246 953.002 26.8496C953.231 26.7064 953.539 26.6348 953.926 26.6348C954.656 26.6348 955.15 26.7207 955.408 26.8926C955.709 28.0671 955.859 29.5423 955.859 31.3184Z" fill="#333333"/>
</svg>
