<svg width="734" height="24" viewBox="0 0 734 24" fill="none" xmlns="http://www.w3.org/2000/svg">
<path d="M11.5137 13.6543C11.6895 13.5046 11.875 13.4297 12.0703 13.4297C12.3698 13.4297 12.5423 13.472 12.5879 13.5566C12.8418 14.0645 12.9688 14.9043 12.9688 16.0762C12.9688 16.89 12.8776 17.4792 12.6953 17.8438C12.6367 17.9479 12.5749 18 12.5098 18H1.72852C0.953776 18 0.566406 17.7689 0.566406 17.3066C0.566406 17.0592 0.61849 16.8704 0.722656 16.7402C0.94401 16.8053 1.15885 16.8379 1.36719 16.8379C1.57552 16.8379 1.75456 16.8216 1.9043 16.7891C2.05404 16.7565 2.19401 16.6882 2.32422 16.584C2.63672 16.3431 2.79297 15.9362 2.79297 15.3633V5.4707C2.79297 4.9043 2.5651 4.54297 2.10938 4.38672C1.97917 4.34115 1.84245 4.30208 1.69922 4.26953C1.5625 4.23047 1.42904 4.19466 1.29883 4.16211C1.17513 4.12305 1.06445 4.08073 0.966797 4.03516C0.745443 3.91797 0.634766 3.75846 0.634766 3.55664C0.634766 3.28971 0.686849 3.09766 0.791016 2.98047C0.908203 3.01302 1.02539 3.0293 1.14258 3.0293H11.1328C11.7318 3.0293 12.1061 3.08464 12.2559 3.19531C12.5293 3.39062 12.666 3.82031 12.666 4.48438C12.666 5.1224 12.6107 5.64323 12.5 6.04688C12.3958 6.45052 12.321 6.69141 12.2754 6.76953C12.2103 6.88672 12.0833 6.94531 11.8945 6.94531C11.6211 6.94531 11.4323 6.91276 11.3281 6.84766C11.2305 6.77604 11.1784 6.72396 11.1719 6.69141C11.0872 5.76042 10.9408 5.16797 10.7324 4.91406C10.5241 4.65365 10.2767 4.47786 9.99023 4.38672C9.71029 4.28906 9.34245 4.24023 8.88672 4.24023H6.70898C6.01888 4.24023 5.5957 4.30859 5.43945 4.44531C5.28971 4.58203 5.19531 4.74154 5.15625 4.92383C5.11719 5.09961 5.09766 5.32747 5.09766 5.60742V9.76758L5.67383 9.77734C7.11263 9.77734 8.44727 9.65039 9.67773 9.39648C9.76888 9.44206 9.85026 9.57227 9.92188 9.78711C9.99349 9.99544 10.0293 10.2038 10.0293 10.4121C10.0293 10.7637 9.9707 11.0697 9.85352 11.3301C9.42383 11.3691 8.92904 11.3887 8.36914 11.3887C7.80924 11.3887 6.71875 11.2975 5.09766 11.1152V15.5195C5.09766 16.0078 5.22786 16.3366 5.48828 16.5059C5.70964 16.6491 6.10677 16.7207 6.67969 16.7207L8.1543 16.6816C9.58008 16.6296 10.5078 16.431 10.9375 16.0859C11.1784 15.8906 11.3379 15.6335 11.416 15.3145C11.4941 14.9954 11.5332 14.6764 11.5332 14.3574C11.5332 14.0319 11.5267 13.7975 11.5137 13.6543ZM14.9121 17.082C14.9121 16.8411 15.0228 16.5417 15.2441 16.1836C15.4655 15.819 15.7617 15.4186 16.1328 14.9824C16.5104 14.5397 16.9531 14.0645 17.4609 13.5566L19.0625 11.9258L17.0605 8.99609C16.5788 8.27344 16.1296 7.91211 15.7129 7.91211C15.5371 7.91211 15.3841 7.94141 15.2539 8C15.1302 8.05208 15.0293 8.07812 14.9512 8.07812C14.8796 8.07812 14.821 8.06185 14.7754 8.0293C14.7298 7.99674 14.6908 7.95443 14.6582 7.90234C14.528 7.70703 14.5443 7.48893 14.707 7.24805C14.8763 7.00716 15.0586 6.80859 15.2539 6.65234C15.7292 6.28125 16.2565 6.0957 16.8359 6.0957C17.2201 6.0957 17.5033 6.15104 17.6855 6.26172C18.0111 6.45052 18.2975 6.76953 18.5449 7.21875L20.6152 11.0762C21.4811 10.1908 22.1354 9.36719 22.5781 8.60547C22.7279 8.3125 22.8027 8.0651 22.8027 7.86328C22.8027 7.51823 22.4707 7.30664 21.8066 7.22852C21.748 7.13086 21.7188 7.02669 21.7188 6.91602C21.7188 6.80534 21.7806 6.69792 21.9043 6.59375C22.0345 6.48307 22.194 6.39193 22.3828 6.32031C22.7604 6.17057 23.1836 6.0957 23.6523 6.0957C24.1211 6.0957 24.4922 6.20312 24.7656 6.41797C25.0456 6.6263 25.1855 6.86393 25.1855 7.13086C25.1855 7.39128 25.127 7.65169 25.0098 7.91211C24.8926 8.17253 24.7331 8.44922 24.5312 8.74219C24.3294 9.03516 24.0983 9.33789 23.8379 9.65039C23.5775 9.96289 23.304 10.2721 23.0176 10.5781C22.2428 11.3789 21.6797 11.9355 21.3281 12.248L23.4082 15.2461C23.6686 15.6107 23.903 15.9069 24.1113 16.1348C24.3262 16.3561 24.5378 16.4668 24.7461 16.4668C24.9544 16.4668 25.1237 16.4408 25.2539 16.3887C25.5404 16.2715 25.7227 16.2682 25.8008 16.3789C25.9375 16.5807 25.9342 16.8053 25.791 17.0527C25.6478 17.2936 25.4883 17.4922 25.3125 17.6484C24.8958 18.0065 24.4434 18.1855 23.9551 18.1855C22.985 18.1855 22.2949 17.7721 21.8848 16.9453L19.7559 13.1172C18.6165 14.3346 17.8971 15.3307 17.5977 16.1055C17.5391 16.2422 17.5098 16.3854 17.5098 16.5352C17.5098 16.6784 17.6042 16.8021 17.793 16.9062C17.9883 17.0039 18.2259 17.069 18.5059 17.1016C18.571 17.1667 18.6035 17.2643 18.6035 17.3945C18.6035 17.5247 18.5449 17.6387 18.4277 17.7363C18.3105 17.834 18.1608 17.9154 17.9785 17.9805C17.3926 18.1888 16.7643 18.2409 16.0938 18.1367C15.306 18.013 14.9121 17.6615 14.9121 17.082ZM32.0508 21.6523C32.1354 21.763 32.1777 21.903 32.1777 22.0723C32.1777 22.2415 32.1029 22.3848 31.9531 22.502C31.8034 22.6257 31.6211 22.7266 31.4062 22.8047C30.9961 22.9479 30.6022 23.0195 30.2246 23.0195C29.847 23.0195 29.5345 22.9935 29.2871 22.9414C29.0397 22.8893 28.8346 22.7982 28.6719 22.668C28.3594 22.4076 28.2031 21.9681 28.2031 21.3496V9.30859C28.2031 8.69661 28.0892 8.31576 27.8613 8.16602C27.7702 8.10742 27.6497 8.07812 27.5 8.07812C27.3503 8.07812 27.2298 8.10091 27.1387 8.14648C27.054 8.19206 26.9824 8.22461 26.9238 8.24414C26.8717 8.26367 26.8262 8.26367 26.7871 8.24414C26.748 8.2181 26.709 8.18229 26.6699 8.13672C26.5723 8.01953 26.5234 7.90885 26.5234 7.80469C26.5234 7.69401 26.5625 7.57682 26.6406 7.45312C26.7253 7.32292 26.8587 7.17643 27.041 7.01367C27.2233 6.8444 27.4316 6.69141 27.666 6.55469C28.1934 6.2487 28.7207 6.0957 29.248 6.0957C29.8861 6.0957 30.2539 6.57422 30.3516 7.53125C31.3737 6.57422 32.487 6.0957 33.6914 6.0957C35.0195 6.0957 36.1068 6.55469 36.9531 7.47266C37.8711 8.46224 38.3301 9.84245 38.3301 11.6133C38.3301 12.9349 38.0306 14.1165 37.4316 15.1582C36.8848 16.1087 36.1328 16.8542 35.1758 17.3945C34.2578 17.9219 33.2812 18.1855 32.2461 18.1855C31.6667 18.1855 31.0449 18.0944 30.3809 17.9121V19.2695C30.3809 20.3242 30.4395 20.972 30.5566 21.2129C30.6803 21.4603 30.804 21.6068 30.9277 21.6523C31.0579 21.6979 31.2044 21.7207 31.3672 21.7207C31.5365 21.7207 31.7643 21.6979 32.0508 21.6523ZM30.3809 9.05469V15.832C30.9993 16.3594 31.7448 16.623 32.6172 16.623C33.6328 16.623 34.4596 16.2487 35.0977 15.5C35.7747 14.6992 36.1133 13.6087 36.1133 12.2285C36.1133 10.7767 35.8138 9.67969 35.2148 8.9375C34.681 8.26693 33.9388 7.93164 32.9883 7.93164C32.0378 7.93164 31.1686 8.30599 30.3809 9.05469ZM42.1387 18C41.1426 18 40.6445 17.7721 40.6445 17.3164C40.6445 17.0755 40.6934 16.8932 40.791 16.7695C40.9473 16.8216 41.0938 16.8477 41.2305 16.8477C41.7969 16.8477 42.0898 16.5059 42.1094 15.8223V3.5957C42.1094 3.13997 42.0638 2.85026 41.9727 2.72656C41.8229 2.51823 41.582 2.41406 41.25 2.41406C41.1003 2.41406 40.9538 2.43034 40.8105 2.46289C40.6738 2.48893 40.5762 2.48893 40.5176 2.46289C40.4655 2.43034 40.4232 2.38802 40.3906 2.33594C40.2604 2.12109 40.4232 1.84766 40.8789 1.51562C41.5951 0.988281 42.3014 0.724609 42.998 0.724609C43.7402 0.724609 44.1569 1.125 44.248 1.92578C44.2741 2.16667 44.2871 2.42057 44.2871 2.6875V15.8613C44.3066 16.3691 44.4922 16.6816 44.8438 16.7988C44.9479 16.8314 45.0684 16.8607 45.2051 16.8867C45.3483 16.9128 45.4785 16.9453 45.5957 16.9844C45.7129 17.0169 45.804 17.056 45.8691 17.1016C45.9798 17.1862 46.0352 17.3229 46.0352 17.5117C46.0352 17.7396 45.9831 17.9186 45.8789 18.0488C45.7487 18.0163 45.5404 18 45.2539 18H42.1387ZM47.334 12.6094C47.334 11.8151 47.4121 11.1022 47.5684 10.4707C47.7246 9.83919 47.9395 9.28255 48.2129 8.80078C48.4863 8.31901 48.8086 7.90885 49.1797 7.57031C49.5508 7.22526 49.9479 6.94531 50.3711 6.73047C51.1979 6.30729 52.1061 6.0957 53.0957 6.0957C54.3652 6.0957 55.4427 6.55794 56.3281 7.48242C57.3112 8.49805 57.8027 9.83919 57.8027 11.5059C57.8027 13.6934 57.207 15.3958 56.0156 16.6133C54.9805 17.6615 53.7402 18.1855 52.2949 18.1855C50.7845 18.1855 49.5736 17.6549 48.6621 16.5938C47.7767 15.5716 47.334 14.2435 47.334 12.6094ZM52.8711 16.5938C53.3073 16.5938 53.6979 16.4928 54.043 16.291C54.388 16.0827 54.681 15.7995 54.9219 15.4414C55.4036 14.6992 55.6445 13.7357 55.6445 12.5508C55.6445 11.2487 55.3906 10.1419 54.8828 9.23047C54.3099 8.18229 53.4863 7.6582 52.4121 7.6582C51.5462 7.6582 50.8529 7.99023 50.332 8.6543C49.7786 9.35742 49.502 10.3405 49.502 11.6035C49.502 13.1855 49.8503 14.4355 50.5469 15.3535C51.1719 16.1803 51.9466 16.5938 52.8711 16.5938ZM65.2246 18.0488C65.0879 18.0163 64.8796 18 64.5996 18H61.2891C60.6641 18 60.2637 17.8893 60.0879 17.668C60.0163 17.5833 59.9805 17.4857 59.9805 17.375C59.9805 17.1016 60.0326 16.8997 60.1367 16.7695C60.293 16.8216 60.4362 16.8477 60.5664 16.8477C60.7031 16.8477 60.8171 16.8314 60.9082 16.7988C60.9993 16.7598 61.071 16.6979 61.123 16.6133C61.2142 16.457 61.2598 16.151 61.2598 15.6953V9.30859C61.2598 8.69661 61.1458 8.31576 60.918 8.16602C60.8268 8.10742 60.7064 8.07812 60.5566 8.07812C60.4069 8.07812 60.2865 8.10091 60.1953 8.14648C60.1107 8.19206 60.0391 8.22461 59.9805 8.24414C59.9284 8.26367 59.8828 8.26367 59.8438 8.24414C59.8047 8.2181 59.7656 8.18229 59.7266 8.13672C59.6289 8.01953 59.5801 7.90885 59.5801 7.80469C59.5801 7.69401 59.6191 7.57682 59.6973 7.45312C59.7819 7.32292 59.9154 7.17643 60.0977 7.01367C60.2799 6.8444 60.4883 6.69141 60.7227 6.55469C61.25 6.2487 61.7773 6.0957 62.3047 6.0957C62.9036 6.0957 63.2585 6.48633 63.3691 7.26758C63.4017 7.49544 63.4212 7.73307 63.4277 7.98047C64.3783 7.14062 65.3581 6.56445 66.3672 6.25195C66.7057 6.14779 67.0117 6.0957 67.2852 6.0957C67.5651 6.0957 67.793 6.13477 67.9688 6.21289C68.151 6.29102 68.2943 6.39844 68.3984 6.53516C68.5938 6.80208 68.6914 7.14388 68.6914 7.56055C68.6914 7.97721 68.6719 8.30924 68.6328 8.55664C68.5938 8.80404 68.5449 9.02214 68.4863 9.21094C68.3691 9.59505 68.2585 9.83919 68.1543 9.94336C67.972 10.1322 67.7279 10.2266 67.4219 10.2266C67.1094 10.2266 66.9531 10.1354 66.9531 9.95312C66.9531 9.25651 66.9238 8.81055 66.8652 8.61523C66.7546 8.25716 66.5462 8.07812 66.2402 8.07812C65.9342 8.07812 65.6576 8.11393 65.4102 8.18555C65.1628 8.25065 64.9219 8.3418 64.6875 8.45898C64.2122 8.69336 63.7956 8.99609 63.4375 9.36719V15.8613C63.457 16.3757 63.6816 16.6882 64.1113 16.7988C64.235 16.8314 64.375 16.8607 64.5312 16.8867C64.6875 16.9128 64.821 16.9453 64.9316 16.9844C65.0488 17.0169 65.14 17.056 65.2051 17.1016C65.3158 17.1862 65.3711 17.3229 65.3711 17.5117C65.3711 17.7461 65.3223 17.9251 65.2246 18.0488ZM70.0977 12.7461C70.0977 11.9583 70.179 11.2585 70.3418 10.6465C70.5046 10.0345 70.7227 9.48763 70.9961 9.00586C71.276 8.51758 71.6016 8.09115 71.9727 7.72656C72.3503 7.36198 72.7539 7.05924 73.1836 6.81836C74.0299 6.33659 74.8633 6.0957 75.6836 6.0957C76.5039 6.0957 77.1615 6.24219 77.6562 6.53516C78.151 6.82161 78.5547 7.20573 78.8672 7.6875C79.4466 8.60547 79.7363 9.82617 79.7363 11.3496C79.7363 11.916 79.4987 12.2057 79.0234 12.2188L72.207 12.3652C72.2461 13.778 72.6107 14.8229 73.3008 15.5C73.8867 16.0729 74.6452 16.3594 75.5762 16.3594C76.9629 16.3594 78.0892 16.0697 78.9551 15.4902C79.0137 15.4902 79.0853 15.5391 79.1699 15.6367C79.3327 15.832 79.4141 16.0013 79.4141 16.1445C79.4141 16.457 79.0234 16.8574 78.2422 17.3457C77.3438 17.9056 76.2956 18.1855 75.0977 18.1855C73.5352 18.1855 72.3079 17.6875 71.416 16.6914C70.5371 15.7148 70.0977 14.3997 70.0977 12.7461ZM72.2656 11.1055C74.1406 11.0143 75.8561 10.8939 77.4121 10.7441C77.4837 8.67383 76.7676 7.63867 75.2637 7.63867C74.4238 7.63867 73.737 7.96419 73.2031 8.61523C72.7148 9.21419 72.4023 10.0443 72.2656 11.1055ZM99.0039 7.25781C99.0299 7.07552 99.043 6.80859 99.043 6.45703C99.043 6.10547 98.9746 5.78646 98.8379 5.5C98.7012 5.20703 98.5156 4.97917 98.2812 4.81641C97.8711 4.53646 97.2526 4.39648 96.4258 4.39648C95.6055 4.39648 94.8796 4.54622 94.248 4.8457C93.623 5.13867 93.099 5.55208 92.6758 6.08594C91.8229 7.16016 91.3965 8.62174 91.3965 10.4707C91.3965 12.222 91.8294 13.6185 92.6953 14.6602C93.5938 15.7474 94.8079 16.291 96.3379 16.291C97.8418 16.291 99.0137 15.9622 99.8535 15.3047C100.107 15.1094 100.339 14.8978 100.547 14.6699C100.742 14.7285 100.902 14.901 101.025 15.1875C101.064 15.2852 101.084 15.4154 101.084 15.5781C101.084 15.7344 100.967 15.9688 100.732 16.2812C100.505 16.5872 100.169 16.8835 99.7266 17.1699C98.6719 17.86 97.4089 18.2051 95.9375 18.2051C93.8281 18.2051 92.1484 17.5638 90.8984 16.2812C89.6615 15.0247 89.043 13.3418 89.043 11.2324C89.043 9.94336 89.248 8.78125 89.6582 7.74609C90.0684 6.71094 90.6283 5.83203 91.3379 5.10938C92.0475 4.38021 92.8743 3.82031 93.8184 3.42969C94.7689 3.03906 95.6901 2.84375 96.582 2.84375C97.4805 2.84375 98.1999 2.91862 98.7402 3.06836C99.2806 3.2181 99.7298 3.42318 100.088 3.68359C100.804 4.21745 101.162 4.92708 101.162 5.8125C101.162 6.48958 100.911 6.9681 100.41 7.24805C100.241 7.3457 100.059 7.39453 99.8633 7.39453C99.4596 7.39453 99.1732 7.34896 99.0039 7.25781ZM110.088 16.7598C109.137 17.7103 107.988 18.1855 106.641 18.1855C105.599 18.1855 104.766 17.8861 104.141 17.2871C103.509 16.6816 103.193 15.8971 103.193 14.9336C103.193 13.7357 103.727 12.8372 104.795 12.2383C105.758 11.6914 107.116 11.418 108.867 11.418H110.088C110.094 11.1706 110.098 10.9297 110.098 10.6953V9.96289C110.098 9.09049 109.971 8.47526 109.717 8.11719C109.43 7.71354 108.942 7.51172 108.252 7.51172C106.67 7.51172 105.856 8.07812 105.811 9.21094C105.804 9.38672 105.807 9.5332 105.82 9.65039C105.69 9.75456 105.469 9.80664 105.156 9.80664C104.85 9.80664 104.626 9.77083 104.482 9.69922C104.346 9.6276 104.225 9.52995 104.121 9.40625C103.9 9.15234 103.789 8.83008 103.789 8.43945C103.789 8.04232 103.903 7.69727 104.131 7.4043C104.365 7.10482 104.681 6.86068 105.078 6.67188C105.853 6.28776 106.768 6.0957 107.822 6.0957C108.877 6.0957 109.668 6.19987 110.195 6.4082C110.729 6.61003 111.152 6.88021 111.465 7.21875C112.018 7.81771 112.295 8.62174 112.295 9.63086L112.197 14.3184C112.197 15.1712 112.236 15.7116 112.314 15.9395C112.399 16.1673 112.497 16.3203 112.607 16.3984C112.725 16.4766 112.865 16.5156 113.027 16.5156C113.197 16.5156 113.333 16.4896 113.438 16.4375L113.711 16.3105C113.802 16.278 113.88 16.3171 113.945 16.4277C114.017 16.5319 114.053 16.6263 114.053 16.7109C114.053 16.7891 114.017 16.8932 113.945 17.0234C113.88 17.1536 113.753 17.2936 113.564 17.4434C113.382 17.5866 113.174 17.7135 112.939 17.8242C111.644 18.4362 110.762 18.293 110.293 17.3945C110.195 17.2188 110.127 17.0072 110.088 16.7598ZM110.059 15.4805C110.059 14.543 110.065 13.612 110.078 12.6875C108.724 12.7396 107.803 12.8275 107.314 12.9512C106.833 13.0684 106.484 13.1823 106.27 13.293C106.055 13.4036 105.885 13.5339 105.762 13.6836C105.56 13.931 105.459 14.3053 105.459 14.8066C105.459 15.3014 105.635 15.6986 105.986 15.998C106.338 16.291 106.842 16.4375 107.5 16.4375C108.431 16.4375 109.284 16.1185 110.059 15.4805ZM120.625 18.0488C120.495 18.0163 120.286 18 120 18H116.885C116.26 18 115.859 17.8893 115.684 17.668C115.612 17.5833 115.576 17.4857 115.576 17.375C115.576 17.1016 115.628 16.8997 115.732 16.7695C115.889 16.8216 116.064 16.8477 116.26 16.8477C116.462 16.8477 116.611 16.7663 116.709 16.6035C116.813 16.4408 116.862 16.138 116.855 15.6953V9.30859C116.855 8.69661 116.742 8.31576 116.514 8.16602C116.423 8.10742 116.302 8.07812 116.152 8.07812C116.003 8.07812 115.882 8.10091 115.791 8.14648C115.706 8.19206 115.635 8.22461 115.576 8.24414C115.524 8.26367 115.479 8.26367 115.439 8.24414C115.4 8.2181 115.361 8.18229 115.322 8.13672C115.225 8.03255 115.176 7.92513 115.176 7.81445C115.176 7.69727 115.215 7.57682 115.293 7.45312C115.378 7.32292 115.511 7.17643 115.693 7.01367C115.876 6.8444 116.084 6.69141 116.318 6.55469C116.846 6.2487 117.373 6.0957 117.9 6.0957C118.506 6.0957 118.864 6.49609 118.975 7.29688C119.007 7.53125 119.027 7.77214 119.033 8.01953C120.003 7.20573 121.058 6.6263 122.197 6.28125C122.607 6.15755 123.021 6.0957 123.438 6.0957C123.861 6.0957 124.261 6.15104 124.639 6.26172C125.023 6.3724 125.355 6.55143 125.635 6.79883C126.227 7.31966 126.523 8.13346 126.523 9.24023V15.8613C126.543 16.3691 126.732 16.6816 127.09 16.7988C127.188 16.8314 127.308 16.8607 127.451 16.8867C127.594 16.9128 127.721 16.9453 127.832 16.9844C127.949 17.0169 128.04 17.056 128.105 17.1016C128.216 17.1862 128.271 17.3229 128.271 17.5117C128.271 17.7396 128.219 17.9186 128.115 18.0488C127.985 18.0163 127.777 18 127.49 18H124.375C123.75 18 123.35 17.8893 123.174 17.668C123.102 17.5833 123.066 17.4857 123.066 17.375C123.066 17.1016 123.118 16.8997 123.223 16.7695C123.379 16.8216 123.522 16.8477 123.652 16.8477C123.789 16.8477 123.903 16.8314 123.994 16.7988C124.085 16.7598 124.157 16.6979 124.209 16.6133C124.3 16.457 124.346 16.151 124.346 15.6953V9.93359C124.346 8.82682 124.017 8.20833 123.359 8.07812C123.158 8.03906 122.904 8.01953 122.598 8.01953C122.298 8.01953 121.966 8.0651 121.602 8.15625C121.237 8.2474 120.895 8.36458 120.576 8.50781C119.964 8.78125 119.45 9.1263 119.033 9.54297V15.8613C119.053 16.3691 119.238 16.6816 119.59 16.7988C119.694 16.8314 119.814 16.8607 119.951 16.8867C120.094 16.9128 120.225 16.9453 120.342 16.9844C120.459 17.0169 120.55 17.056 120.615 17.1016C120.726 17.1862 120.781 17.3229 120.781 17.5117C120.781 17.7396 120.729 17.9186 120.625 18.0488ZM136.758 9.66016L136.768 9.30859C136.768 9.1849 136.738 8.97656 136.68 8.68359C136.621 8.38411 136.432 8.13997 136.113 7.95117C135.801 7.76237 135.4 7.66797 134.912 7.66797C134.43 7.66797 134.001 7.79167 133.623 8.03906C133.252 8.27995 132.949 8.60547 132.715 9.01562C132.272 9.79688 132.051 10.8418 132.051 12.1504C132.051 13.3874 132.35 14.3932 132.949 15.168C133.561 15.9622 134.368 16.3594 135.371 16.3594C136.283 16.3594 137.155 16.1087 137.988 15.6074C138.19 15.4837 138.346 15.3763 138.457 15.2852C138.522 15.2852 138.597 15.3372 138.682 15.4414C138.844 15.6302 138.926 15.7832 138.926 15.9004C138.926 16.0111 138.88 16.1413 138.789 16.291C138.698 16.4342 138.564 16.5905 138.389 16.7598C138.219 16.9225 138.014 17.0885 137.773 17.2578C137.533 17.4271 137.262 17.5801 136.963 17.7168C136.279 18.0293 135.579 18.1855 134.863 18.1855C134.147 18.1855 133.477 18.0651 132.852 17.8242C132.233 17.5768 131.699 17.2155 131.25 16.7402C130.286 15.7311 129.805 14.3444 129.805 12.5801C129.805 10.5749 130.417 8.96354 131.641 7.74609C132.754 6.64583 134.04 6.0957 135.498 6.0957C136.455 6.0957 137.253 6.30078 137.891 6.71094C138.561 7.14062 138.896 7.70703 138.896 8.41016C138.896 8.79427 138.812 9.08398 138.643 9.2793C138.35 9.62435 138.008 9.79688 137.617 9.79688C137.233 9.79688 136.947 9.7513 136.758 9.66016ZM140.82 12.7461C140.82 11.9583 140.902 11.2585 141.064 10.6465C141.227 10.0345 141.445 9.48763 141.719 9.00586C141.999 8.51758 142.324 8.09115 142.695 7.72656C143.073 7.36198 143.477 7.05924 143.906 6.81836C144.753 6.33659 145.586 6.0957 146.406 6.0957C147.227 6.0957 147.884 6.24219 148.379 6.53516C148.874 6.82161 149.277 7.20573 149.59 7.6875C150.169 8.60547 150.459 9.82617 150.459 11.3496C150.459 11.916 150.221 12.2057 149.746 12.2188L142.93 12.3652C142.969 13.778 143.333 14.8229 144.023 15.5C144.609 16.0729 145.368 16.3594 146.299 16.3594C147.686 16.3594 148.812 16.0697 149.678 15.4902C149.736 15.4902 149.808 15.5391 149.893 15.6367C150.055 15.832 150.137 16.0013 150.137 16.1445C150.137 16.457 149.746 16.8574 148.965 17.3457C148.066 17.9056 147.018 18.1855 145.82 18.1855C144.258 18.1855 143.031 17.6875 142.139 16.6914C141.26 15.7148 140.82 14.3997 140.82 12.7461ZM142.988 11.1055C144.863 11.0143 146.579 10.8939 148.135 10.7441C148.206 8.67383 147.49 7.63867 145.986 7.63867C145.146 7.63867 144.46 7.96419 143.926 8.61523C143.438 9.21419 143.125 10.0443 142.988 11.1055ZM158.037 18.0488C157.9 18.0163 157.692 18 157.412 18H154.102C153.477 18 153.076 17.8893 152.9 17.668C152.829 17.5833 152.793 17.4857 152.793 17.375C152.793 17.1016 152.845 16.8997 152.949 16.7695C153.105 16.8216 153.249 16.8477 153.379 16.8477C153.516 16.8477 153.63 16.8314 153.721 16.7988C153.812 16.7598 153.883 16.6979 153.936 16.6133C154.027 16.457 154.072 16.151 154.072 15.6953V9.30859C154.072 8.69661 153.958 8.31576 153.73 8.16602C153.639 8.10742 153.519 8.07812 153.369 8.07812C153.219 8.07812 153.099 8.10091 153.008 8.14648C152.923 8.19206 152.852 8.22461 152.793 8.24414C152.741 8.26367 152.695 8.26367 152.656 8.24414C152.617 8.2181 152.578 8.18229 152.539 8.13672C152.441 8.01953 152.393 7.90885 152.393 7.80469C152.393 7.69401 152.432 7.57682 152.51 7.45312C152.594 7.32292 152.728 7.17643 152.91 7.01367C153.092 6.8444 153.301 6.69141 153.535 6.55469C154.062 6.2487 154.59 6.0957 155.117 6.0957C155.716 6.0957 156.071 6.48633 156.182 7.26758C156.214 7.49544 156.234 7.73307 156.24 7.98047C157.191 7.14062 158.171 6.56445 159.18 6.25195C159.518 6.14779 159.824 6.0957 160.098 6.0957C160.378 6.0957 160.605 6.13477 160.781 6.21289C160.964 6.29102 161.107 6.39844 161.211 6.53516C161.406 6.80208 161.504 7.14388 161.504 7.56055C161.504 7.97721 161.484 8.30924 161.445 8.55664C161.406 8.80404 161.357 9.02214 161.299 9.21094C161.182 9.59505 161.071 9.83919 160.967 9.94336C160.785 10.1322 160.54 10.2266 160.234 10.2266C159.922 10.2266 159.766 10.1354 159.766 9.95312C159.766 9.25651 159.736 8.81055 159.678 8.61523C159.567 8.25716 159.359 8.07812 159.053 8.07812C158.747 8.07812 158.47 8.11393 158.223 8.18555C157.975 8.25065 157.734 8.3418 157.5 8.45898C157.025 8.69336 156.608 8.99609 156.25 9.36719V15.8613C156.27 16.3757 156.494 16.6882 156.924 16.7988C157.048 16.8314 157.188 16.8607 157.344 16.8867C157.5 16.9128 157.633 16.9453 157.744 16.9844C157.861 17.0169 157.952 17.056 158.018 17.1016C158.128 17.1862 158.184 17.3229 158.184 17.5117C158.184 17.7461 158.135 17.9251 158.037 18.0488ZM169.072 18.0977L166.289 17.9902H163.77C163.431 17.9902 163.148 17.9349 162.92 17.8242C162.692 17.707 162.578 17.5638 162.578 17.3945C162.578 17.082 162.627 16.8639 162.725 16.7402C162.959 16.8053 163.197 16.8379 163.438 16.8379C163.678 16.8379 163.88 16.8216 164.043 16.7891C164.212 16.7565 164.362 16.6882 164.492 16.584C164.792 16.3496 164.941 15.9427 164.941 15.3633V5.41211C164.941 4.80664 164.564 4.42904 163.809 4.2793C163.34 4.18164 163.034 4.07747 162.891 3.9668C162.754 3.84961 162.686 3.72266 162.686 3.58594C162.686 3.28646 162.738 3.08464 162.842 2.98047C162.959 3.01302 163.066 3.0293 163.164 3.0293C163.164 3.0293 164.15 3.0293 166.123 3.0293C166.273 3.0293 166.471 3.02279 166.719 3.00977C166.719 3.00977 166.995 2.99349 167.549 2.96094C168.363 2.92188 169.196 2.90234 170.049 2.90234C170.908 2.90234 171.742 3.00651 172.549 3.21484C173.356 3.41667 174.053 3.69336 174.639 4.04492C175.231 4.39648 175.723 4.80664 176.113 5.27539C176.51 5.73763 176.829 6.22917 177.07 6.75C177.5 7.70703 177.715 8.78125 177.715 9.97266C177.715 12.1341 177.155 13.931 176.035 15.3633C175.156 16.4896 173.864 17.2839 172.158 17.7461C171.273 17.9805 170.244 18.0977 169.072 18.0977ZM167.246 15.6465C167.246 16.1348 167.399 16.4505 167.705 16.5938C167.965 16.7109 168.587 16.7695 169.57 16.7695C170.56 16.7695 171.439 16.6068 172.207 16.2812C172.975 15.9557 173.587 15.5163 174.043 14.9629C174.863 13.9668 175.273 12.5638 175.273 10.7539C175.273 7.64844 174.176 5.62044 171.982 4.66992C171.188 4.32487 170.208 4.15234 169.043 4.15234C168.268 4.15234 167.796 4.23047 167.627 4.38672C167.458 4.53646 167.35 4.72526 167.305 4.95312C167.266 5.17448 167.246 5.47396 167.246 5.85156V15.6465ZM189.062 16.8477C189.336 16.8932 189.541 16.916 189.678 16.916C189.814 16.916 189.948 16.903 190.078 16.877C190.215 16.8444 190.335 16.7956 190.439 16.7305C190.674 16.5872 190.791 16.3626 190.791 16.0566C190.791 15.8027 190.713 15.5195 190.557 15.207L189.639 12.9316H183.457L182.363 15.7051C182.259 15.959 182.207 16.1445 182.207 16.2617C182.207 16.3724 182.223 16.457 182.256 16.5156C182.295 16.5677 182.35 16.6133 182.422 16.6523C182.5 16.6914 182.594 16.724 182.705 16.75L183.105 16.8574C183.535 16.929 183.812 16.9941 183.936 17.0527C184.189 17.1764 184.316 17.3587 184.316 17.5996C184.316 17.7754 184.268 17.9251 184.17 18.0488C184.046 18.0163 183.932 18 183.828 18H179.854C178.988 18 178.555 17.7624 178.555 17.2871C178.555 17.0658 178.604 16.8867 178.701 16.75C178.942 16.8151 179.144 16.8477 179.307 16.8477C179.476 16.8477 179.616 16.8216 179.727 16.7695C179.844 16.7174 179.954 16.6296 180.059 16.5059C180.234 16.291 180.439 15.8613 180.674 15.2168L185.498 3.53711C185.635 3.22461 186.022 3.00977 186.66 2.89258C186.836 2.86003 187.021 2.84375 187.217 2.84375C187.614 2.84375 187.858 2.95117 187.949 3.16602L188.926 5.60742C190.807 10.0475 191.895 12.6387 192.188 13.3809L193.066 15.6855C193.242 16.1868 193.389 16.4961 193.506 16.6133C193.623 16.7305 193.75 16.8118 193.887 16.8574C194.023 16.903 194.163 16.9421 194.307 16.9746C194.456 17.0007 194.587 17.0365 194.697 17.082C194.945 17.1927 195.068 17.362 195.068 17.5898C195.068 17.7656 195.02 17.9154 194.922 18.0391C194.798 18.0065 194.688 17.9902 194.59 17.9902H189.932C189.6 17.9902 189.339 17.9512 189.15 17.873C188.968 17.7884 188.877 17.6615 188.877 17.4922C188.877 17.1992 188.939 16.9844 189.062 16.8477ZM189.072 11.5449L186.514 5.2168L184.004 11.5449H189.072ZM197.939 16.2617C197.321 15.6432 196.836 14.8978 196.484 14.0254C196.139 13.1465 195.967 12.2188 195.967 11.2422C195.967 10.2591 196.064 9.39323 196.26 8.64453C196.455 7.89583 196.725 7.21875 197.07 6.61328C197.415 6.0013 197.826 5.46094 198.301 4.99219C198.776 4.52344 199.294 4.12956 199.854 3.81055C200.986 3.16602 202.214 2.84375 203.535 2.84375C205.54 2.84375 207.174 3.48177 208.438 4.75781C209.759 6.08594 210.42 7.83398 210.42 10.002C210.42 11.6361 210.052 13.1042 209.316 14.4062C208.646 15.5911 207.721 16.5221 206.543 17.1992C205.41 17.8568 204.268 18.1855 203.115 18.1855C201.969 18.1855 200.973 18.0195 200.127 17.6875C199.287 17.349 198.558 16.8737 197.939 16.2617ZM199.58 6.04688C199.196 6.58724 198.913 7.24154 198.73 8.00977C198.548 8.77799 198.457 9.60482 198.457 10.4902C198.457 11.3691 198.542 12.1764 198.711 12.9121C198.88 13.6413 199.15 14.2826 199.521 14.8359C200.329 16.0404 201.527 16.6426 203.115 16.6426C204.717 16.6426 205.931 16.1185 206.758 15.0703C207.552 14.0482 207.949 12.5931 207.949 10.7051C207.949 7.80794 207.09 5.86458 205.371 4.875C204.759 4.52995 204.033 4.35742 203.193 4.35742C202.354 4.35742 201.637 4.50391 201.045 4.79688C200.452 5.08984 199.964 5.50651 199.58 6.04688ZM226.67 18.0781C226.52 18.026 226.198 18 225.703 18H220.684C220.345 18 220.075 17.9479 219.873 17.8438C219.671 17.7331 219.57 17.5345 219.57 17.248C219.57 17.0397 219.619 16.8737 219.717 16.75C219.964 16.8151 220.202 16.8477 220.43 16.8477C220.658 16.8477 220.837 16.8249 220.967 16.7793C221.097 16.7272 221.211 16.6393 221.309 16.5156C221.504 16.2552 221.602 15.8223 221.602 15.2168V5.41211C221.602 4.80664 221.243 4.42904 220.527 4.2793C220.078 4.18815 219.785 4.08398 219.648 3.9668C219.512 3.84961 219.443 3.72266 219.443 3.58594C219.443 3.28646 219.495 3.08464 219.6 2.98047C219.717 3.01302 219.824 3.0293 219.922 3.0293H222.344L225.82 2.93164C228.867 2.93164 230.794 3.76172 231.602 5.42188C231.895 6.02083 232.041 6.61979 232.041 7.21875C232.041 7.81771 231.999 8.32878 231.914 8.75195C231.829 9.17513 231.683 9.58854 231.475 9.99219C231.273 10.3893 231.003 10.7669 230.664 11.125C230.326 11.4766 229.902 11.7858 229.395 12.0527C228.294 12.6257 226.888 12.9121 225.176 12.9121H224.805C224.622 12.9121 224.531 12.7949 224.531 12.5605C224.531 12.0462 224.671 11.7565 224.951 11.6914C227.399 11.7435 228.88 11.0143 229.395 9.50391C229.551 9.02865 229.629 8.52083 229.629 7.98047C229.629 7.4401 229.57 6.94531 229.453 6.49609C229.336 6.04036 229.124 5.63672 228.818 5.28516C228.141 4.51693 227.021 4.13281 225.459 4.13281C224.827 4.13281 224.408 4.26953 224.199 4.54297C224.004 4.78385 223.906 5.27214 223.906 6.00781V15.7637C223.939 16.2715 224.342 16.5807 225.117 16.6914C225.814 16.7891 226.247 16.8802 226.416 16.9648C226.585 17.0495 226.696 17.1341 226.748 17.2188C226.8 17.2969 226.826 17.3945 226.826 17.5117C226.826 17.7591 226.774 17.9479 226.67 18.0781ZM239.678 18.0781C239.528 18.026 239.206 18 238.711 18H234.639C234.3 18 234.03 17.9479 233.828 17.8438C233.626 17.7331 233.525 17.5345 233.525 17.248C233.525 17.0397 233.574 16.8737 233.672 16.75C233.932 16.8151 234.17 16.8477 234.385 16.8477C234.606 16.8477 234.779 16.8249 234.902 16.7793C235.033 16.7337 235.143 16.6523 235.234 16.5352C235.436 16.2878 235.544 15.8809 235.557 15.3145V5.33398C235.557 4.81966 235.413 4.4974 235.127 4.36719C235.036 4.32161 234.912 4.28255 234.756 4.25C234.6 4.21745 234.443 4.1849 234.287 4.15234C234.137 4.11328 234.01 4.06771 233.906 4.01562C233.698 3.91146 233.594 3.73568 233.594 3.48828C233.594 3.2474 233.643 3.06836 233.74 2.95117C233.89 3.00326 234.212 3.0293 234.707 3.0293H238.682C239.02 3.0293 239.29 3.08464 239.492 3.19531C239.701 3.29948 239.805 3.49479 239.805 3.78125C239.805 3.99609 239.753 4.16211 239.648 4.2793C239.401 4.21419 239.131 4.18164 238.838 4.18164C238.206 4.18164 237.881 4.69596 237.861 5.72461V15.6953C237.861 16.2096 238.005 16.5352 238.291 16.6719C238.382 16.7109 238.506 16.7467 238.662 16.7793C238.818 16.8118 238.971 16.8477 239.121 16.8867C239.277 16.9193 239.408 16.9616 239.512 17.0137C239.727 17.1243 239.834 17.3001 239.834 17.541C239.834 17.7689 239.782 17.9479 239.678 18.0781ZM254.16 14.9629C254.16 16.4277 253.965 17.4401 253.574 18H242.92C242.406 18 242.051 17.8698 241.855 17.6094C241.79 17.5182 241.758 17.4173 241.758 17.3066C241.758 17.0592 241.81 16.8704 241.914 16.7402C242.135 16.8053 242.425 16.8379 242.783 16.8379C243.584 16.8379 243.984 16.3464 243.984 15.3633V5.33398C243.984 4.88477 243.796 4.58203 243.418 4.42578C243.307 4.3737 243.171 4.32487 243.008 4.2793L242.52 4.15234C242.207 4.07422 242.012 3.97982 241.934 3.86914C241.862 3.75195 241.826 3.63477 241.826 3.51758C241.826 3.27018 241.878 3.08138 241.982 2.95117C242.132 3.00326 242.454 3.0293 242.949 3.0293H247.207C247.546 3.0293 247.816 3.08464 248.018 3.19531C248.219 3.29948 248.32 3.49479 248.32 3.78125C248.32 4.0026 248.271 4.16862 248.174 4.2793C247.926 4.21419 247.689 4.18164 247.461 4.18164C247.24 4.18164 247.064 4.20768 246.934 4.25977C246.81 4.30534 246.699 4.38672 246.602 4.50391C246.406 4.7513 246.302 5.1582 246.289 5.72461V15.5977C246.302 16.0534 246.436 16.3594 246.689 16.5156C246.904 16.6523 247.298 16.7207 247.871 16.7207L248.604 16.7109L249.443 16.7012C250.863 16.7012 251.79 16.3854 252.227 15.7539C252.441 15.4414 252.585 15.0508 252.656 14.582C252.734 14.1068 252.803 13.5566 252.861 12.9316C252.965 12.8665 253.105 12.834 253.281 12.834C253.613 12.834 253.838 12.873 253.955 12.9512C254.092 13.485 254.16 14.1556 254.16 14.9629ZM268.164 14.9629C268.164 16.4277 267.969 17.4401 267.578 18H256.924C256.41 18 256.055 17.8698 255.859 17.6094C255.794 17.5182 255.762 17.4173 255.762 17.3066C255.762 17.0592 255.814 16.8704 255.918 16.7402C256.139 16.8053 256.429 16.8379 256.787 16.8379C257.588 16.8379 257.988 16.3464 257.988 15.3633V5.33398C257.988 4.88477 257.799 4.58203 257.422 4.42578C257.311 4.3737 257.174 4.32487 257.012 4.2793L256.523 4.15234C256.211 4.07422 256.016 3.97982 255.938 3.86914C255.866 3.75195 255.83 3.63477 255.83 3.51758C255.83 3.27018 255.882 3.08138 255.986 2.95117C256.136 3.00326 256.458 3.0293 256.953 3.0293H261.211C261.549 3.0293 261.82 3.08464 262.021 3.19531C262.223 3.29948 262.324 3.49479 262.324 3.78125C262.324 4.0026 262.275 4.16862 262.178 4.2793C261.93 4.21419 261.693 4.18164 261.465 4.18164C261.243 4.18164 261.068 4.20768 260.938 4.25977C260.814 4.30534 260.703 4.38672 260.605 4.50391C260.41 4.7513 260.306 5.1582 260.293 5.72461V15.5977C260.306 16.0534 260.439 16.3594 260.693 16.5156C260.908 16.6523 261.302 16.7207 261.875 16.7207L262.607 16.7109L263.447 16.7012C264.867 16.7012 265.794 16.3854 266.23 15.7539C266.445 15.4414 266.589 15.0508 266.66 14.582C266.738 14.1068 266.807 13.5566 266.865 12.9316C266.969 12.8665 267.109 12.834 267.285 12.834C267.617 12.834 267.842 12.873 267.959 12.9512C268.096 13.485 268.164 14.1556 268.164 14.9629ZM271.992 14.8848C273.197 14.8848 273.799 15.5716 273.799 16.9453C273.799 18.5404 273.268 19.9076 272.207 21.0469C271.921 21.3594 271.67 21.5677 271.455 21.6719C271.214 21.6719 270.996 21.5514 270.801 21.3105C270.742 21.2389 270.713 21.1641 270.713 21.0859C270.752 21.0273 270.824 20.9264 270.928 20.7832C271.038 20.64 271.152 20.4609 271.27 20.2461C271.556 19.6862 271.699 19.1068 271.699 18.5078C271.699 17.7005 271.305 17.2676 270.518 17.209C270.426 16.9941 270.381 16.7728 270.381 16.5449C270.381 16.3105 270.417 16.099 270.488 15.9102C270.566 15.7148 270.677 15.5423 270.82 15.3926C271.133 15.054 271.523 14.8848 271.992 14.8848ZM283.008 7.66797L282.803 7.70703C282.66 7.70703 282.559 7.60938 282.5 7.41406C282.48 7.36198 282.471 7.28711 282.471 7.18945C282.471 7.0918 282.526 6.97135 282.637 6.82812C282.747 6.6849 282.891 6.5612 283.066 6.45703C283.457 6.21615 283.87 6.0957 284.307 6.0957C284.652 6.0957 284.899 6.14453 285.049 6.24219C285.342 6.42448 285.57 6.79557 285.732 7.35547L288.711 15.998C289.323 14.6374 289.743 13.6738 289.971 13.1074L290.566 11.5938C291.12 10.1094 291.396 9.14258 291.396 8.69336C291.396 8.23763 291.318 7.9056 291.162 7.69727C291.006 7.48893 290.736 7.36523 290.352 7.32617C290.28 7.24805 290.244 7.14388 290.244 7.01367C290.244 6.87695 290.303 6.75326 290.42 6.64258C290.544 6.52539 290.703 6.42448 290.898 6.33984C291.296 6.17708 291.702 6.0957 292.119 6.0957C292.542 6.0957 292.842 6.11849 293.018 6.16406C293.193 6.20312 293.333 6.27148 293.438 6.36914C293.639 6.55143 293.74 6.88997 293.74 7.38477C293.74 7.82747 293.392 8.99609 292.695 10.8906C292.044 12.5833 291.556 13.8105 291.23 14.5723C290.033 17.2415 289.131 19.11 288.525 20.1777C287.92 21.2454 287.347 21.9844 286.807 22.3945C286.266 22.8112 285.697 23.0195 285.098 23.0195C284.499 23.0195 284.046 22.8893 283.74 22.6289C283.434 22.375 283.281 22.0234 283.281 21.5742C283.281 21.2357 283.366 20.9818 283.535 20.8125C283.854 20.4935 284.193 20.3698 284.551 20.4414C284.609 20.9297 284.902 21.1738 285.43 21.1738C285.905 21.1738 286.331 20.8646 286.709 20.2461C286.885 19.9531 287.057 19.6113 287.227 19.2207L287.793 17.9609L287.988 17.5605C287.611 17.5085 287.292 17.3229 287.031 17.0039C286.927 16.8802 286.842 16.724 286.777 16.5352L284.043 9.35742L283.809 8.78125C283.509 8.03906 283.242 7.66797 283.008 7.66797ZM295.146 12.6094C295.146 11.8151 295.225 11.1022 295.381 10.4707C295.537 9.83919 295.752 9.28255 296.025 8.80078C296.299 8.31901 296.621 7.90885 296.992 7.57031C297.363 7.22526 297.76 6.94531 298.184 6.73047C299.01 6.30729 299.919 6.0957 300.908 6.0957C302.178 6.0957 303.255 6.55794 304.141 7.48242C305.124 8.49805 305.615 9.83919 305.615 11.5059C305.615 13.6934 305.02 15.3958 303.828 16.6133C302.793 17.6615 301.553 18.1855 300.107 18.1855C298.597 18.1855 297.386 17.6549 296.475 16.5938C295.589 15.5716 295.146 14.2435 295.146 12.6094ZM300.684 16.5938C301.12 16.5938 301.51 16.4928 301.855 16.291C302.201 16.0827 302.493 15.7995 302.734 15.4414C303.216 14.6992 303.457 13.7357 303.457 12.5508C303.457 11.2487 303.203 10.1419 302.695 9.23047C302.122 8.18229 301.299 7.6582 300.225 7.6582C299.359 7.6582 298.665 7.99023 298.145 8.6543C297.591 9.35742 297.314 10.3405 297.314 11.6035C297.314 13.1855 297.663 14.4355 298.359 15.3535C298.984 16.1803 299.759 16.5938 300.684 16.5938ZM308.467 9.30859C308.467 8.9375 308.438 8.64128 308.379 8.41992C308.327 8.19206 308.216 8.07812 308.047 8.07812C307.923 8.07812 307.826 8.09115 307.754 8.11719L307.52 8.21484C307.474 8.22786 307.419 8.20182 307.354 8.13672C307.23 8 307.168 7.8763 307.168 7.76562C307.168 7.64844 307.204 7.52799 307.275 7.4043C307.354 7.27409 307.467 7.1276 307.617 6.96484C307.773 6.80208 307.949 6.65885 308.145 6.53516C308.587 6.24219 308.988 6.0957 309.346 6.0957C309.704 6.0957 309.958 6.15755 310.107 6.28125C310.257 6.40495 310.371 6.56771 310.449 6.76953C310.579 7.09505 310.645 7.58659 310.645 8.24414V14.3574C310.645 15.4577 310.977 16.0729 311.641 16.2031C311.842 16.2422 312.08 16.2617 312.354 16.2617C312.633 16.2617 312.93 16.2259 313.242 16.1543C313.561 16.0827 313.864 15.9883 314.15 15.8711C314.704 15.6432 315.192 15.3535 315.615 15.002V9.30859C315.615 8.6901 315.505 8.30924 315.283 8.16602C315.192 8.10742 315.072 8.07812 314.922 8.07812C314.772 8.07812 314.652 8.10091 314.561 8.14648C314.476 8.19206 314.404 8.22461 314.346 8.24414C314.294 8.26367 314.248 8.26367 314.209 8.24414C314.17 8.2181 314.128 8.18229 314.082 8.13672C313.984 8.02604 313.936 7.91536 313.936 7.80469C313.936 7.69401 313.975 7.57682 314.053 7.45312C314.137 7.32292 314.271 7.17643 314.453 7.01367C314.635 6.8444 314.844 6.69141 315.078 6.55469C315.605 6.2487 316.133 6.0957 316.66 6.0957C317.298 6.0957 317.663 6.54818 317.754 7.45312C317.78 7.70703 317.793 7.9707 317.793 8.24414V14.0254C317.793 15.028 317.832 15.653 317.91 15.9004C317.988 16.1478 318.083 16.3105 318.193 16.3887C318.304 16.4603 318.441 16.4961 318.604 16.4961C318.766 16.4961 318.9 16.4701 319.004 16.418L319.297 16.291C319.382 16.2715 319.456 16.3105 319.521 16.4082C319.658 16.61 319.678 16.7923 319.58 16.9551C319.482 17.1178 319.329 17.2741 319.121 17.4238C318.919 17.5736 318.691 17.7038 318.438 17.8145C317.311 18.3092 316.51 18.2995 316.035 17.7852C315.788 17.5182 315.648 17.0951 315.615 16.5156C314.658 17.2513 313.678 17.7591 312.676 18.0391C312.311 18.1367 311.927 18.1855 311.523 18.1855C311.126 18.1855 310.736 18.1302 310.352 18.0195C309.974 17.9089 309.645 17.7298 309.365 17.4824C308.766 16.9551 308.467 16.1413 308.467 15.041V9.30859ZM326.416 18.0488C326.279 18.0163 326.071 18 325.791 18H322.48C321.855 18 321.455 17.8893 321.279 17.668C321.208 17.5833 321.172 17.4857 321.172 17.375C321.172 17.1016 321.224 16.8997 321.328 16.7695C321.484 16.8216 321.628 16.8477 321.758 16.8477C321.895 16.8477 322.008 16.8314 322.1 16.7988C322.191 16.7598 322.262 16.6979 322.314 16.6133C322.406 16.457 322.451 16.151 322.451 15.6953V9.30859C322.451 8.69661 322.337 8.31576 322.109 8.16602C322.018 8.10742 321.898 8.07812 321.748 8.07812C321.598 8.07812 321.478 8.10091 321.387 8.14648C321.302 8.19206 321.23 8.22461 321.172 8.24414C321.12 8.26367 321.074 8.26367 321.035 8.24414C320.996 8.2181 320.957 8.18229 320.918 8.13672C320.82 8.01953 320.771 7.90885 320.771 7.80469C320.771 7.69401 320.811 7.57682 320.889 7.45312C320.973 7.32292 321.107 7.17643 321.289 7.01367C321.471 6.8444 321.68 6.69141 321.914 6.55469C322.441 6.2487 322.969 6.0957 323.496 6.0957C324.095 6.0957 324.45 6.48633 324.561 7.26758C324.593 7.49544 324.613 7.73307 324.619 7.98047C325.57 7.14062 326.549 6.56445 327.559 6.25195C327.897 6.14779 328.203 6.0957 328.477 6.0957C328.757 6.0957 328.984 6.13477 329.16 6.21289C329.342 6.29102 329.486 6.39844 329.59 6.53516C329.785 6.80208 329.883 7.14388 329.883 7.56055C329.883 7.97721 329.863 8.30924 329.824 8.55664C329.785 8.80404 329.736 9.02214 329.678 9.21094C329.561 9.59505 329.45 9.83919 329.346 9.94336C329.163 10.1322 328.919 10.2266 328.613 10.2266C328.301 10.2266 328.145 10.1354 328.145 9.95312C328.145 9.25651 328.115 8.81055 328.057 8.61523C327.946 8.25716 327.738 8.07812 327.432 8.07812C327.126 8.07812 326.849 8.11393 326.602 8.18555C326.354 8.25065 326.113 8.3418 325.879 8.45898C325.404 8.69336 324.987 8.99609 324.629 9.36719V15.8613C324.648 16.3757 324.873 16.6882 325.303 16.7988C325.426 16.8314 325.566 16.8607 325.723 16.8867C325.879 16.9128 326.012 16.9453 326.123 16.9844C326.24 17.0169 326.331 17.056 326.396 17.1016C326.507 17.1862 326.562 17.3229 326.562 17.5117C326.562 17.7461 326.514 17.9251 326.416 18.0488ZM343.32 21.6523C343.405 21.763 343.447 21.903 343.447 22.0723C343.447 22.2415 343.372 22.3848 343.223 22.502C343.073 22.6257 342.891 22.7266 342.676 22.8047C342.266 22.9479 341.872 23.0195 341.494 23.0195C341.117 23.0195 340.804 22.9935 340.557 22.9414C340.309 22.8893 340.104 22.7982 339.941 22.668C339.629 22.4076 339.473 21.9681 339.473 21.3496V9.30859C339.473 8.69661 339.359 8.31576 339.131 8.16602C339.04 8.10742 338.919 8.07812 338.77 8.07812C338.62 8.07812 338.499 8.10091 338.408 8.14648C338.324 8.19206 338.252 8.22461 338.193 8.24414C338.141 8.26367 338.096 8.26367 338.057 8.24414C338.018 8.2181 337.979 8.18229 337.939 8.13672C337.842 8.01953 337.793 7.90885 337.793 7.80469C337.793 7.69401 337.832 7.57682 337.91 7.45312C337.995 7.32292 338.128 7.17643 338.311 7.01367C338.493 6.8444 338.701 6.69141 338.936 6.55469C339.463 6.2487 339.99 6.0957 340.518 6.0957C341.156 6.0957 341.523 6.57422 341.621 7.53125C342.643 6.57422 343.757 6.0957 344.961 6.0957C346.289 6.0957 347.376 6.55469 348.223 7.47266C349.141 8.46224 349.6 9.84245 349.6 11.6133C349.6 12.9349 349.3 14.1165 348.701 15.1582C348.154 16.1087 347.402 16.8542 346.445 17.3945C345.527 17.9219 344.551 18.1855 343.516 18.1855C342.936 18.1855 342.314 18.0944 341.65 17.9121V19.2695C341.65 20.3242 341.709 20.972 341.826 21.2129C341.95 21.4603 342.074 21.6068 342.197 21.6523C342.327 21.6979 342.474 21.7207 342.637 21.7207C342.806 21.7207 343.034 21.6979 343.32 21.6523ZM341.65 9.05469V15.832C342.269 16.3594 343.014 16.623 343.887 16.623C344.902 16.623 345.729 16.2487 346.367 15.5C347.044 14.6992 347.383 13.6087 347.383 12.2285C347.383 10.7767 347.083 9.67969 346.484 8.9375C345.951 8.26693 345.208 7.93164 344.258 7.93164C343.307 7.93164 342.438 8.30599 341.65 9.05469ZM351.699 12.7461C351.699 11.9583 351.781 11.2585 351.943 10.6465C352.106 10.0345 352.324 9.48763 352.598 9.00586C352.878 8.51758 353.203 8.09115 353.574 7.72656C353.952 7.36198 354.355 7.05924 354.785 6.81836C355.632 6.33659 356.465 6.0957 357.285 6.0957C358.105 6.0957 358.763 6.24219 359.258 6.53516C359.753 6.82161 360.156 7.20573 360.469 7.6875C361.048 8.60547 361.338 9.82617 361.338 11.3496C361.338 11.916 361.1 12.2057 360.625 12.2188L353.809 12.3652C353.848 13.778 354.212 14.8229 354.902 15.5C355.488 16.0729 356.247 16.3594 357.178 16.3594C358.564 16.3594 359.691 16.0697 360.557 15.4902C360.615 15.4902 360.687 15.5391 360.771 15.6367C360.934 15.832 361.016 16.0013 361.016 16.1445C361.016 16.457 360.625 16.8574 359.844 17.3457C358.945 17.9056 357.897 18.1855 356.699 18.1855C355.137 18.1855 353.91 17.6875 353.018 16.6914C352.139 15.7148 351.699 14.3997 351.699 12.7461ZM353.867 11.1055C355.742 11.0143 357.458 10.8939 359.014 10.7441C359.085 8.67383 358.369 7.63867 356.865 7.63867C356.025 7.63867 355.339 7.96419 354.805 8.61523C354.316 9.21419 354.004 10.0443 353.867 11.1055ZM368.916 18.0488C368.779 18.0163 368.571 18 368.291 18H364.98C364.355 18 363.955 17.8893 363.779 17.668C363.708 17.5833 363.672 17.4857 363.672 17.375C363.672 17.1016 363.724 16.8997 363.828 16.7695C363.984 16.8216 364.128 16.8477 364.258 16.8477C364.395 16.8477 364.508 16.8314 364.6 16.7988C364.691 16.7598 364.762 16.6979 364.814 16.6133C364.906 16.457 364.951 16.151 364.951 15.6953V9.30859C364.951 8.69661 364.837 8.31576 364.609 8.16602C364.518 8.10742 364.398 8.07812 364.248 8.07812C364.098 8.07812 363.978 8.10091 363.887 8.14648C363.802 8.19206 363.73 8.22461 363.672 8.24414C363.62 8.26367 363.574 8.26367 363.535 8.24414C363.496 8.2181 363.457 8.18229 363.418 8.13672C363.32 8.01953 363.271 7.90885 363.271 7.80469C363.271 7.69401 363.311 7.57682 363.389 7.45312C363.473 7.32292 363.607 7.17643 363.789 7.01367C363.971 6.8444 364.18 6.69141 364.414 6.55469C364.941 6.2487 365.469 6.0957 365.996 6.0957C366.595 6.0957 366.95 6.48633 367.061 7.26758C367.093 7.49544 367.113 7.73307 367.119 7.98047C368.07 7.14062 369.049 6.56445 370.059 6.25195C370.397 6.14779 370.703 6.0957 370.977 6.0957C371.257 6.0957 371.484 6.13477 371.66 6.21289C371.842 6.29102 371.986 6.39844 372.09 6.53516C372.285 6.80208 372.383 7.14388 372.383 7.56055C372.383 7.97721 372.363 8.30924 372.324 8.55664C372.285 8.80404 372.236 9.02214 372.178 9.21094C372.061 9.59505 371.95 9.83919 371.846 9.94336C371.663 10.1322 371.419 10.2266 371.113 10.2266C370.801 10.2266 370.645 10.1354 370.645 9.95312C370.645 9.25651 370.615 8.81055 370.557 8.61523C370.446 8.25716 370.238 8.07812 369.932 8.07812C369.626 8.07812 369.349 8.11393 369.102 8.18555C368.854 8.25065 368.613 8.3418 368.379 8.45898C367.904 8.69336 367.487 8.99609 367.129 9.36719V15.8613C367.148 16.3757 367.373 16.6882 367.803 16.7988C367.926 16.8314 368.066 16.8607 368.223 16.8867C368.379 16.9128 368.512 16.9453 368.623 16.9844C368.74 17.0169 368.831 17.056 368.896 17.1016C369.007 17.1862 369.062 17.3229 369.062 17.5117C369.062 17.7461 369.014 17.9251 368.916 18.0488ZM380.488 9.5625C380.488 8.5599 380.072 7.89583 379.238 7.57031C378.971 7.46615 378.682 7.41406 378.369 7.41406C378.063 7.41406 377.777 7.4401 377.51 7.49219C377.249 7.54427 377.018 7.62565 376.816 7.73633C376.361 7.98372 376.133 8.33854 376.133 8.80078C376.133 9.24349 376.322 9.6276 376.699 9.95312C377.116 10.2982 377.891 10.7246 379.023 11.2324C380.156 11.7337 381.029 12.2839 381.641 12.8828C382.259 13.4753 382.568 14.1589 382.568 14.9336C382.568 15.806 382.21 16.5417 381.494 17.1406C380.654 17.8372 379.492 18.1855 378.008 18.1855C376.191 18.1855 374.935 17.7982 374.238 17.0234C373.997 16.75 373.877 16.4017 373.877 15.9785C373.877 14.9564 374.128 14.3607 374.629 14.1914C374.753 14.1523 374.87 14.1328 374.98 14.1328C375.286 14.1328 375.452 14.2272 375.479 14.416C375.622 16.0436 376.533 16.8574 378.213 16.8574C379.222 16.8574 379.896 16.5742 380.234 16.0078C380.345 15.8255 380.4 15.6042 380.4 15.3438C380.4 15.0833 380.316 14.8457 380.146 14.6309C379.984 14.416 379.756 14.2174 379.463 14.0352C379.17 13.8464 378.822 13.6641 378.418 13.4883L377.119 12.9023C375.127 11.9909 374.131 10.7799 374.131 9.26953C374.131 8.29297 374.564 7.51172 375.43 6.92578C376.25 6.3724 377.308 6.0957 378.604 6.0957C380.361 6.0957 381.455 6.47656 381.885 7.23828C381.995 7.43359 382.051 7.64844 382.051 7.88281C382.051 8.11719 382.038 8.32878 382.012 8.51758C381.986 8.69987 381.953 8.86589 381.914 9.01562C381.849 9.30208 381.774 9.50391 381.689 9.62109C381.52 9.74479 381.276 9.80664 380.957 9.80664C380.645 9.80664 380.488 9.72526 380.488 9.5625ZM384.58 12.6094C384.58 11.8151 384.658 11.1022 384.814 10.4707C384.971 9.83919 385.186 9.28255 385.459 8.80078C385.732 8.31901 386.055 7.90885 386.426 7.57031C386.797 7.22526 387.194 6.94531 387.617 6.73047C388.444 6.30729 389.352 6.0957 390.342 6.0957C391.611 6.0957 392.689 6.55794 393.574 7.48242C394.557 8.49805 395.049 9.83919 395.049 11.5059C395.049 13.6934 394.453 15.3958 393.262 16.6133C392.227 17.6615 390.986 18.1855 389.541 18.1855C388.031 18.1855 386.82 17.6549 385.908 16.5938C385.023 15.5716 384.58 14.2435 384.58 12.6094ZM390.117 16.5938C390.553 16.5938 390.944 16.4928 391.289 16.291C391.634 16.0827 391.927 15.7995 392.168 15.4414C392.65 14.6992 392.891 13.7357 392.891 12.5508C392.891 11.2487 392.637 10.1419 392.129 9.23047C391.556 8.18229 390.732 7.6582 389.658 7.6582C388.792 7.6582 388.099 7.99023 387.578 8.6543C387.025 9.35742 386.748 10.3405 386.748 11.6035C386.748 13.1855 387.096 14.4355 387.793 15.3535C388.418 16.1803 389.193 16.5938 390.117 16.5938ZM402.324 18.0488C402.194 18.0163 401.986 18 401.699 18H398.584C397.959 18 397.559 17.8893 397.383 17.668C397.311 17.5833 397.275 17.4857 397.275 17.375C397.275 17.1016 397.327 16.8997 397.432 16.7695C397.588 16.8216 397.764 16.8477 397.959 16.8477C398.161 16.8477 398.311 16.7663 398.408 16.6035C398.512 16.4408 398.561 16.138 398.555 15.6953V9.30859C398.555 8.69661 398.441 8.31576 398.213 8.16602C398.122 8.10742 398.001 8.07812 397.852 8.07812C397.702 8.07812 397.581 8.10091 397.49 8.14648C397.406 8.19206 397.334 8.22461 397.275 8.24414C397.223 8.26367 397.178 8.26367 397.139 8.24414C397.1 8.2181 397.061 8.18229 397.021 8.13672C396.924 8.03255 396.875 7.92513 396.875 7.81445C396.875 7.69727 396.914 7.57682 396.992 7.45312C397.077 7.32292 397.21 7.17643 397.393 7.01367C397.575 6.8444 397.783 6.69141 398.018 6.55469C398.545 6.2487 399.072 6.0957 399.6 6.0957C400.205 6.0957 400.563 6.49609 400.674 7.29688C400.706 7.53125 400.726 7.77214 400.732 8.01953C401.702 7.20573 402.757 6.6263 403.896 6.28125C404.307 6.15755 404.72 6.0957 405.137 6.0957C405.56 6.0957 405.96 6.15104 406.338 6.26172C406.722 6.3724 407.054 6.55143 407.334 6.79883C407.926 7.31966 408.223 8.13346 408.223 9.24023V15.8613C408.242 16.3691 408.431 16.6816 408.789 16.7988C408.887 16.8314 409.007 16.8607 409.15 16.8867C409.294 16.9128 409.421 16.9453 409.531 16.9844C409.648 17.0169 409.74 17.056 409.805 17.1016C409.915 17.1862 409.971 17.3229 409.971 17.5117C409.971 17.7396 409.919 17.9186 409.814 18.0488C409.684 18.0163 409.476 18 409.189 18H406.074C405.449 18 405.049 17.8893 404.873 17.668C404.801 17.5833 404.766 17.4857 404.766 17.375C404.766 17.1016 404.818 16.8997 404.922 16.7695C405.078 16.8216 405.221 16.8477 405.352 16.8477C405.488 16.8477 405.602 16.8314 405.693 16.7988C405.785 16.7598 405.856 16.6979 405.908 16.6133C405.999 16.457 406.045 16.151 406.045 15.6953V9.93359C406.045 8.82682 405.716 8.20833 405.059 8.07812C404.857 8.03906 404.603 8.01953 404.297 8.01953C403.997 8.01953 403.665 8.0651 403.301 8.15625C402.936 8.2474 402.594 8.36458 402.275 8.50781C401.663 8.78125 401.149 9.1263 400.732 9.54297V15.8613C400.752 16.3691 400.938 16.6816 401.289 16.7988C401.393 16.8314 401.514 16.8607 401.65 16.8867C401.794 16.9128 401.924 16.9453 402.041 16.9844C402.158 17.0169 402.249 17.056 402.314 17.1016C402.425 17.1862 402.48 17.3229 402.48 17.5117C402.48 17.7396 402.428 17.9186 402.324 18.0488ZM418.35 16.7598C417.399 17.7103 416.25 18.1855 414.902 18.1855C413.861 18.1855 413.027 17.8861 412.402 17.2871C411.771 16.6816 411.455 15.8971 411.455 14.9336C411.455 13.7357 411.989 12.8372 413.057 12.2383C414.02 11.6914 415.378 11.418 417.129 11.418H418.35C418.356 11.1706 418.359 10.9297 418.359 10.6953V9.96289C418.359 9.09049 418.232 8.47526 417.979 8.11719C417.692 7.71354 417.204 7.51172 416.514 7.51172C414.932 7.51172 414.118 8.07812 414.072 9.21094C414.066 9.38672 414.069 9.5332 414.082 9.65039C413.952 9.75456 413.73 9.80664 413.418 9.80664C413.112 9.80664 412.887 9.77083 412.744 9.69922C412.607 9.6276 412.487 9.52995 412.383 9.40625C412.161 9.15234 412.051 8.83008 412.051 8.43945C412.051 8.04232 412.165 7.69727 412.393 7.4043C412.627 7.10482 412.943 6.86068 413.34 6.67188C414.115 6.28776 415.029 6.0957 416.084 6.0957C417.139 6.0957 417.93 6.19987 418.457 6.4082C418.991 6.61003 419.414 6.88021 419.727 7.21875C420.28 7.81771 420.557 8.62174 420.557 9.63086L420.459 14.3184C420.459 15.1712 420.498 15.7116 420.576 15.9395C420.661 16.1673 420.758 16.3203 420.869 16.3984C420.986 16.4766 421.126 16.5156 421.289 16.5156C421.458 16.5156 421.595 16.4896 421.699 16.4375L421.973 16.3105C422.064 16.278 422.142 16.3171 422.207 16.4277C422.279 16.5319 422.314 16.6263 422.314 16.7109C422.314 16.7891 422.279 16.8932 422.207 17.0234C422.142 17.1536 422.015 17.2936 421.826 17.4434C421.644 17.5866 421.436 17.7135 421.201 17.8242C419.906 18.4362 419.023 18.293 418.555 17.3945C418.457 17.2188 418.389 17.0072 418.35 16.7598ZM418.32 15.4805C418.32 14.543 418.327 13.612 418.34 12.6875C416.986 12.7396 416.064 12.8275 415.576 12.9512C415.094 13.0684 414.746 13.1823 414.531 13.293C414.316 13.4036 414.147 13.5339 414.023 13.6836C413.822 13.931 413.721 14.3053 413.721 14.8066C413.721 15.3014 413.896 15.6986 414.248 15.998C414.6 16.291 415.104 16.4375 415.762 16.4375C416.693 16.4375 417.546 16.1185 418.32 15.4805ZM425.342 18C424.346 18 423.848 17.7721 423.848 17.3164C423.848 17.0755 423.896 16.8932 423.994 16.7695C424.15 16.8216 424.297 16.8477 424.434 16.8477C425 16.8477 425.293 16.5059 425.312 15.8223V3.5957C425.312 3.13997 425.267 2.85026 425.176 2.72656C425.026 2.51823 424.785 2.41406 424.453 2.41406C424.303 2.41406 424.157 2.43034 424.014 2.46289C423.877 2.48893 423.779 2.48893 423.721 2.46289C423.669 2.43034 423.626 2.38802 423.594 2.33594C423.464 2.12109 423.626 1.84766 424.082 1.51562C424.798 0.988281 425.505 0.724609 426.201 0.724609C426.943 0.724609 427.36 1.125 427.451 1.92578C427.477 2.16667 427.49 2.42057 427.49 2.6875V15.8613C427.51 16.3691 427.695 16.6816 428.047 16.7988C428.151 16.8314 428.271 16.8607 428.408 16.8867C428.551 16.9128 428.682 16.9453 428.799 16.9844C428.916 17.0169 429.007 17.056 429.072 17.1016C429.183 17.1862 429.238 17.3229 429.238 17.5117C429.238 17.7396 429.186 17.9186 429.082 18.0488C428.952 18.0163 428.743 18 428.457 18H425.342ZM432.9 4.2793C432.679 4.2793 432.474 4.24674 432.285 4.18164C432.103 4.11003 431.943 4.00911 431.807 3.87891C431.52 3.60547 431.377 3.23763 431.377 2.77539C431.377 2.33268 431.546 1.95833 431.885 1.65234C432.21 1.34635 432.601 1.19336 433.057 1.19336C433.512 1.19336 433.877 1.33008 434.15 1.60352C434.424 1.87695 434.561 2.24805 434.561 2.7168C434.561 3.15951 434.398 3.53385 434.072 3.83984C433.753 4.13281 433.363 4.2793 432.9 4.2793ZM432.305 18C431.302 18 430.801 17.7721 430.801 17.3164C430.801 17.082 430.853 16.8997 430.957 16.7695C431.113 16.8216 431.257 16.8477 431.387 16.8477C431.992 16.8477 432.288 16.4635 432.275 15.6953V9.15234C432.275 8.69661 432.21 8.38086 432.08 8.20508C431.956 8.02279 431.732 7.93164 431.406 7.93164C431.165 7.93164 430.947 7.96094 430.752 8.01953C430.635 8.03255 430.55 7.94141 430.498 7.74609C430.452 7.57031 430.479 7.41732 430.576 7.28711C430.674 7.15039 430.824 7.01042 431.025 6.86719C431.234 6.71745 431.462 6.58724 431.709 6.47656C432.243 6.22266 432.689 6.0957 433.047 6.0957C433.405 6.0957 433.669 6.14779 433.838 6.25195C434.014 6.35612 434.147 6.49609 434.238 6.67188C434.382 6.95833 434.453 7.42057 434.453 8.05859V15.8613C434.473 16.3757 434.658 16.6882 435.01 16.7988C435.107 16.8314 435.228 16.8607 435.371 16.8867C435.514 16.9128 435.641 16.9453 435.752 16.9844C435.869 17.0169 435.96 17.056 436.025 17.1016C436.136 17.1862 436.191 17.3229 436.191 17.5117C436.191 17.7461 436.143 17.9251 436.045 18.0488C435.908 18.0163 435.7 18 435.42 18H432.305ZM445.752 14.6309C445.765 14.4876 445.96 14.416 446.338 14.416C446.514 14.416 446.628 14.4518 446.68 14.5234C446.732 14.5885 446.79 14.6992 446.855 14.8555C446.921 15.0052 446.979 15.181 447.031 15.3828C447.148 15.8385 447.207 16.2878 447.207 16.7305C447.207 17.1732 447.093 17.4954 446.865 17.6973C446.637 17.8991 446.266 18 445.752 18H438.965C438.548 18 438.226 17.8275 437.998 17.4824C437.783 17.2676 437.676 16.9779 437.676 16.6133C437.676 16.4115 437.718 16.2682 437.803 16.1836C440.342 13.0716 441.865 11.1803 442.373 10.5098C442.881 9.83919 443.268 9.30208 443.535 8.89844C443.802 8.49479 443.997 8.21484 444.121 8.05859L444.502 7.57031L441.328 7.67773C440.749 7.70378 440.316 7.83724 440.029 8.07812C439.743 8.31901 439.603 8.7194 439.609 9.2793C439.596 9.41602 439.421 9.48438 439.082 9.48438C438.906 9.48438 438.792 9.45182 438.74 9.38672C438.688 9.3151 438.623 9.22396 438.545 9.11328C438.473 8.99609 438.405 8.85938 438.34 8.70312C438.19 8.35156 438.115 7.96094 438.115 7.53125C438.115 7.10156 438.219 6.78581 438.428 6.58398C438.643 6.38216 439.007 6.28125 439.521 6.28125H446.211C446.51 6.28125 446.732 6.59375 446.875 7.21875C446.914 7.375 446.934 7.50846 446.934 7.61914C446.934 7.72982 446.908 7.82096 446.855 7.89258L445.322 9.93359L442.148 13.9961C441.628 14.6667 441.23 15.1973 440.957 15.5879C440.69 15.9785 440.508 16.2357 440.41 16.3594L440.127 16.7207L444.033 16.5742C444.619 16.5417 445.052 16.3496 445.332 15.998C445.618 15.64 445.758 15.1842 445.752 14.6309ZM449.102 12.7461C449.102 11.9583 449.183 11.2585 449.346 10.6465C449.508 10.0345 449.727 9.48763 450 9.00586C450.28 8.51758 450.605 8.09115 450.977 7.72656C451.354 7.36198 451.758 7.05924 452.188 6.81836C453.034 6.33659 453.867 6.0957 454.688 6.0957C455.508 6.0957 456.165 6.24219 456.66 6.53516C457.155 6.82161 457.559 7.20573 457.871 7.6875C458.451 8.60547 458.74 9.82617 458.74 11.3496C458.74 11.916 458.503 12.2057 458.027 12.2188L451.211 12.3652C451.25 13.778 451.615 14.8229 452.305 15.5C452.891 16.0729 453.649 16.3594 454.58 16.3594C455.967 16.3594 457.093 16.0697 457.959 15.4902C458.018 15.4902 458.089 15.5391 458.174 15.6367C458.337 15.832 458.418 16.0013 458.418 16.1445C458.418 16.457 458.027 16.8574 457.246 17.3457C456.348 17.9056 455.299 18.1855 454.102 18.1855C452.539 18.1855 451.312 17.6875 450.42 16.6914C449.541 15.7148 449.102 14.3997 449.102 12.7461ZM451.27 11.1055C453.145 11.0143 454.86 10.8939 456.416 10.7441C456.488 8.67383 455.771 7.63867 454.268 7.63867C453.428 7.63867 452.741 7.96419 452.207 8.61523C451.719 9.21419 451.406 10.0443 451.27 11.1055ZM468.838 16.7793C467.829 17.7233 466.719 18.1953 465.508 18.1953C464.173 18.1953 463.086 17.7396 462.246 16.8281C461.335 15.8255 460.879 14.4421 460.879 12.6777C460.879 10.6921 461.51 9.07747 462.773 7.83398C463.952 6.67513 465.345 6.0957 466.953 6.0957C467.598 6.0957 468.216 6.20312 468.809 6.41797V3.5957C468.809 3.13997 468.763 2.85026 468.672 2.72656C468.522 2.51823 468.278 2.41406 467.939 2.41406C467.796 2.41406 467.653 2.43034 467.51 2.46289C467.373 2.48893 467.275 2.48893 467.217 2.46289C467.165 2.43034 467.122 2.38802 467.09 2.33594C466.96 2.12109 467.122 1.84766 467.578 1.51562C468.294 0.988281 469.001 0.724609 469.697 0.724609C470.433 0.724609 470.853 1.125 470.957 1.92578C470.983 2.16667 470.996 2.42057 470.996 2.6875V14.0254C470.996 15.028 471.035 15.653 471.113 15.9004C471.191 16.1478 471.283 16.3105 471.387 16.3887C471.497 16.4603 471.634 16.4961 471.797 16.4961C471.96 16.4961 472.093 16.4701 472.197 16.418L472.49 16.291C472.575 16.2715 472.65 16.3105 472.715 16.4082C472.852 16.61 472.871 16.7923 472.773 16.9551C472.676 17.1178 472.529 17.2741 472.334 17.4238C472.139 17.5736 471.921 17.7038 471.68 17.8145C470.625 18.2897 469.837 18.2995 469.316 17.8438C469.062 17.6224 468.903 17.2676 468.838 16.7793ZM468.809 8.40039C468.171 7.91211 467.428 7.66797 466.582 7.66797C465.566 7.66797 464.743 8.04232 464.111 8.79102C463.434 9.5918 463.096 10.6823 463.096 12.0625C463.096 14.2565 463.721 15.6107 464.971 16.125C465.361 16.2812 465.739 16.3594 466.104 16.3594C466.475 16.3594 466.784 16.3301 467.031 16.2715C467.279 16.2129 467.51 16.1348 467.725 16.0371C468.154 15.8418 468.516 15.6042 468.809 15.3242V8.40039ZM488.311 16.7598C487.36 17.7103 486.211 18.1855 484.863 18.1855C483.822 18.1855 482.988 17.8861 482.363 17.2871C481.732 16.6816 481.416 15.8971 481.416 14.9336C481.416 13.7357 481.95 12.8372 483.018 12.2383C483.981 11.6914 485.339 11.418 487.09 11.418H488.311C488.317 11.1706 488.32 10.9297 488.32 10.6953V9.96289C488.32 9.09049 488.193 8.47526 487.939 8.11719C487.653 7.71354 487.165 7.51172 486.475 7.51172C484.893 7.51172 484.079 8.07812 484.033 9.21094C484.027 9.38672 484.03 9.5332 484.043 9.65039C483.913 9.75456 483.691 9.80664 483.379 9.80664C483.073 9.80664 482.848 9.77083 482.705 9.69922C482.568 9.6276 482.448 9.52995 482.344 9.40625C482.122 9.15234 482.012 8.83008 482.012 8.43945C482.012 8.04232 482.126 7.69727 482.354 7.4043C482.588 7.10482 482.904 6.86068 483.301 6.67188C484.076 6.28776 484.99 6.0957 486.045 6.0957C487.1 6.0957 487.891 6.19987 488.418 6.4082C488.952 6.61003 489.375 6.88021 489.688 7.21875C490.241 7.81771 490.518 8.62174 490.518 9.63086L490.42 14.3184C490.42 15.1712 490.459 15.7116 490.537 15.9395C490.622 16.1673 490.719 16.3203 490.83 16.3984C490.947 16.4766 491.087 16.5156 491.25 16.5156C491.419 16.5156 491.556 16.4896 491.66 16.4375L491.934 16.3105C492.025 16.278 492.103 16.3171 492.168 16.4277C492.24 16.5319 492.275 16.6263 492.275 16.7109C492.275 16.7891 492.24 16.8932 492.168 17.0234C492.103 17.1536 491.976 17.2936 491.787 17.4434C491.605 17.5866 491.396 17.7135 491.162 17.8242C489.867 18.4362 488.984 18.293 488.516 17.3945C488.418 17.2188 488.35 17.0072 488.311 16.7598ZM488.281 15.4805C488.281 14.543 488.288 13.612 488.301 12.6875C486.947 12.7396 486.025 12.8275 485.537 12.9512C485.055 13.0684 484.707 13.1823 484.492 13.293C484.277 13.4036 484.108 13.5339 483.984 13.6836C483.783 13.931 483.682 14.3053 483.682 14.8066C483.682 15.3014 483.857 15.6986 484.209 15.998C484.561 16.291 485.065 16.4375 485.723 16.4375C486.654 16.4375 487.507 16.1185 488.281 15.4805ZM498.848 18.0488C498.717 18.0163 498.509 18 498.223 18H495.107C494.482 18 494.082 17.8893 493.906 17.668C493.835 17.5833 493.799 17.4857 493.799 17.375C493.799 17.1016 493.851 16.8997 493.955 16.7695C494.111 16.8216 494.287 16.8477 494.482 16.8477C494.684 16.8477 494.834 16.7663 494.932 16.6035C495.036 16.4408 495.085 16.138 495.078 15.6953V9.30859C495.078 8.69661 494.964 8.31576 494.736 8.16602C494.645 8.10742 494.525 8.07812 494.375 8.07812C494.225 8.07812 494.105 8.10091 494.014 8.14648C493.929 8.19206 493.857 8.22461 493.799 8.24414C493.747 8.26367 493.701 8.26367 493.662 8.24414C493.623 8.2181 493.584 8.18229 493.545 8.13672C493.447 8.03255 493.398 7.92513 493.398 7.81445C493.398 7.69727 493.438 7.57682 493.516 7.45312C493.6 7.32292 493.734 7.17643 493.916 7.01367C494.098 6.8444 494.307 6.69141 494.541 6.55469C495.068 6.2487 495.596 6.0957 496.123 6.0957C496.729 6.0957 497.087 6.49609 497.197 7.29688C497.23 7.53125 497.249 7.77214 497.256 8.01953C498.226 7.20573 499.281 6.6263 500.42 6.28125C500.83 6.15755 501.243 6.0957 501.66 6.0957C502.083 6.0957 502.484 6.15104 502.861 6.26172C503.245 6.3724 503.577 6.55143 503.857 6.79883C504.45 7.31966 504.746 8.13346 504.746 9.24023V15.8613C504.766 16.3691 504.954 16.6816 505.312 16.7988C505.41 16.8314 505.531 16.8607 505.674 16.8867C505.817 16.9128 505.944 16.9453 506.055 16.9844C506.172 17.0169 506.263 17.056 506.328 17.1016C506.439 17.1862 506.494 17.3229 506.494 17.5117C506.494 17.7396 506.442 17.9186 506.338 18.0488C506.208 18.0163 505.999 18 505.713 18H502.598C501.973 18 501.572 17.8893 501.396 17.668C501.325 17.5833 501.289 17.4857 501.289 17.375C501.289 17.1016 501.341 16.8997 501.445 16.7695C501.602 16.8216 501.745 16.8477 501.875 16.8477C502.012 16.8477 502.126 16.8314 502.217 16.7988C502.308 16.7598 502.38 16.6979 502.432 16.6133C502.523 16.457 502.568 16.151 502.568 15.6953V9.93359C502.568 8.82682 502.24 8.20833 501.582 8.07812C501.38 8.03906 501.126 8.01953 500.82 8.01953C500.521 8.01953 500.189 8.0651 499.824 8.15625C499.46 8.2474 499.118 8.36458 498.799 8.50781C498.187 8.78125 497.673 9.1263 497.256 9.54297V15.8613C497.275 16.3691 497.461 16.6816 497.812 16.7988C497.917 16.8314 498.037 16.8607 498.174 16.8867C498.317 16.9128 498.447 16.9453 498.564 16.9844C498.682 17.0169 498.773 17.056 498.838 17.1016C498.949 17.1862 499.004 17.3229 499.004 17.5117C499.004 17.7396 498.952 17.9186 498.848 18.0488ZM511.328 11.3398L511.318 13.9082C511.318 14.9824 511.374 15.6302 511.484 15.8516C511.595 16.0664 511.725 16.1966 511.875 16.2422C512.025 16.2812 512.217 16.3008 512.451 16.3008C512.686 16.3008 512.897 16.2845 513.086 16.252C513.281 16.2129 513.464 16.1641 513.633 16.1055C513.802 16.0469 513.965 15.9818 514.121 15.9102L514.6 15.7051C514.71 15.666 514.834 15.7799 514.971 16.0469C515.01 16.1185 515.029 16.2031 515.029 16.3008C515.029 16.3919 514.99 16.5124 514.912 16.6621C514.834 16.8118 514.681 16.9844 514.453 17.1797C514.232 17.3685 513.971 17.5378 513.672 17.6875C513.021 18.0195 512.435 18.1855 511.914 18.1855C511.4 18.1855 510.98 18.1562 510.654 18.0977C510.329 18.0391 510.052 17.9219 509.824 17.7461C509.355 17.3815 509.121 16.7142 509.121 15.7441V8.05859H508.154C507.952 8.05859 507.806 7.99349 507.715 7.86328C507.559 7.66146 507.48 7.49219 507.48 7.35547C507.48 7.1276 507.536 7.00065 507.646 6.97461C508.682 6.79883 509.414 6.0306 509.844 4.66992C509.967 4.25977 510.065 3.77474 510.137 3.21484C510.449 3.16276 510.684 3.13672 510.84 3.13672C511.003 3.13672 511.143 3.2181 511.26 3.38086C511.377 3.54362 511.432 3.73242 511.426 3.94727C511.426 4.16211 511.423 4.36393 511.416 4.55273C511.41 4.74154 511.403 4.94661 511.396 5.16797L511.357 6.53516H514.736C514.821 6.6849 514.863 6.8444 514.863 7.01367V7.31641C514.863 7.58984 514.717 7.81445 514.424 7.99023C514.131 8.15951 513.805 8.24414 513.447 8.24414C513.096 8.24414 512.842 8.24089 512.686 8.23438C512.536 8.22135 512.389 8.20833 512.246 8.19531L511.816 8.13672C511.667 8.1237 511.507 8.11068 511.338 8.09766V8.20508L511.328 11.3398ZM518.916 4.2793C518.695 4.2793 518.49 4.24674 518.301 4.18164C518.118 4.11003 517.959 4.00911 517.822 3.87891C517.536 3.60547 517.393 3.23763 517.393 2.77539C517.393 2.33268 517.562 1.95833 517.9 1.65234C518.226 1.34635 518.617 1.19336 519.072 1.19336C519.528 1.19336 519.893 1.33008 520.166 1.60352C520.439 1.87695 520.576 2.24805 520.576 2.7168C520.576 3.15951 520.413 3.53385 520.088 3.83984C519.769 4.13281 519.378 4.2793 518.916 4.2793ZM518.32 18C517.318 18 516.816 17.7721 516.816 17.3164C516.816 17.082 516.868 16.8997 516.973 16.7695C517.129 16.8216 517.272 16.8477 517.402 16.8477C518.008 16.8477 518.304 16.4635 518.291 15.6953V9.15234C518.291 8.69661 518.226 8.38086 518.096 8.20508C517.972 8.02279 517.747 7.93164 517.422 7.93164C517.181 7.93164 516.963 7.96094 516.768 8.01953C516.65 8.03255 516.566 7.94141 516.514 7.74609C516.468 7.57031 516.494 7.41732 516.592 7.28711C516.689 7.15039 516.839 7.01042 517.041 6.86719C517.249 6.71745 517.477 6.58724 517.725 6.47656C518.258 6.22266 518.704 6.0957 519.062 6.0957C519.421 6.0957 519.684 6.14779 519.854 6.25195C520.029 6.35612 520.163 6.49609 520.254 6.67188C520.397 6.95833 520.469 7.42057 520.469 8.05859V15.8613C520.488 16.3757 520.674 16.6882 521.025 16.7988C521.123 16.8314 521.243 16.8607 521.387 16.8867C521.53 16.9128 521.657 16.9453 521.768 16.9844C521.885 17.0169 521.976 17.056 522.041 17.1016C522.152 17.1862 522.207 17.3229 522.207 17.5117C522.207 17.7461 522.158 17.9251 522.061 18.0488C521.924 18.0163 521.715 18 521.436 18H518.32ZM530.889 9.70898C530.973 9.87826 531.016 10.0671 531.016 10.2754C531.016 10.4772 531.003 10.6465 530.977 10.7832C530.957 10.9199 530.924 11.0404 530.879 11.1445C530.762 11.3919 530.612 11.5156 530.43 11.5156H524.072C524.001 11.3203 523.965 11.1283 523.965 10.9395C523.965 10.7441 523.975 10.5781 523.994 10.4414C524.02 10.3047 524.056 10.181 524.102 10.0703C524.219 9.82943 524.355 9.70898 524.512 9.70898H530.889ZM540.449 9.66016L540.459 9.30859C540.459 9.1849 540.43 8.97656 540.371 8.68359C540.312 8.38411 540.124 8.13997 539.805 7.95117C539.492 7.76237 539.092 7.66797 538.604 7.66797C538.122 7.66797 537.692 7.79167 537.314 8.03906C536.943 8.27995 536.641 8.60547 536.406 9.01562C535.964 9.79688 535.742 10.8418 535.742 12.1504C535.742 13.3874 536.042 14.3932 536.641 15.168C537.253 15.9622 538.06 16.3594 539.062 16.3594C539.974 16.3594 540.846 16.1087 541.68 15.6074C541.882 15.4837 542.038 15.3763 542.148 15.2852C542.214 15.2852 542.288 15.3372 542.373 15.4414C542.536 15.6302 542.617 15.7832 542.617 15.9004C542.617 16.0111 542.572 16.1413 542.48 16.291C542.389 16.4342 542.256 16.5905 542.08 16.7598C541.911 16.9225 541.706 17.0885 541.465 17.2578C541.224 17.4271 540.954 17.5801 540.654 17.7168C539.971 18.0293 539.271 18.1855 538.555 18.1855C537.839 18.1855 537.168 18.0651 536.543 17.8242C535.924 17.5768 535.391 17.2155 534.941 16.7402C533.978 15.7311 533.496 14.3444 533.496 12.5801C533.496 10.5749 534.108 8.96354 535.332 7.74609C536.445 6.64583 537.731 6.0957 539.189 6.0957C540.146 6.0957 540.944 6.30078 541.582 6.71094C542.253 7.14062 542.588 7.70703 542.588 8.41016C542.588 8.79427 542.503 9.08398 542.334 9.2793C542.041 9.62435 541.699 9.79688 541.309 9.79688C540.924 9.79688 540.638 9.7513 540.449 9.66016ZM551.416 16.7598C550.465 17.7103 549.316 18.1855 547.969 18.1855C546.927 18.1855 546.094 17.8861 545.469 17.2871C544.837 16.6816 544.521 15.8971 544.521 14.9336C544.521 13.7357 545.055 12.8372 546.123 12.2383C547.087 11.6914 548.444 11.418 550.195 11.418H551.416C551.423 11.1706 551.426 10.9297 551.426 10.6953V9.96289C551.426 9.09049 551.299 8.47526 551.045 8.11719C550.758 7.71354 550.27 7.51172 549.58 7.51172C547.998 7.51172 547.184 8.07812 547.139 9.21094C547.132 9.38672 547.135 9.5332 547.148 9.65039C547.018 9.75456 546.797 9.80664 546.484 9.80664C546.178 9.80664 545.954 9.77083 545.811 9.69922C545.674 9.6276 545.553 9.52995 545.449 9.40625C545.228 9.15234 545.117 8.83008 545.117 8.43945C545.117 8.04232 545.231 7.69727 545.459 7.4043C545.693 7.10482 546.009 6.86068 546.406 6.67188C547.181 6.28776 548.096 6.0957 549.15 6.0957C550.205 6.0957 550.996 6.19987 551.523 6.4082C552.057 6.61003 552.48 6.88021 552.793 7.21875C553.346 7.81771 553.623 8.62174 553.623 9.63086L553.525 14.3184C553.525 15.1712 553.564 15.7116 553.643 15.9395C553.727 16.1673 553.825 16.3203 553.936 16.3984C554.053 16.4766 554.193 16.5156 554.355 16.5156C554.525 16.5156 554.661 16.4896 554.766 16.4375L555.039 16.3105C555.13 16.278 555.208 16.3171 555.273 16.4277C555.345 16.5319 555.381 16.6263 555.381 16.7109C555.381 16.7891 555.345 16.8932 555.273 17.0234C555.208 17.1536 555.081 17.2936 554.893 17.4434C554.71 17.5866 554.502 17.7135 554.268 17.8242C552.972 18.4362 552.09 18.293 551.621 17.3945C551.523 17.2188 551.455 17.0072 551.416 16.7598ZM551.387 15.4805C551.387 14.543 551.393 13.612 551.406 12.6875C550.052 12.7396 549.131 12.8275 548.643 12.9512C548.161 13.0684 547.812 13.1823 547.598 13.293C547.383 13.4036 547.214 13.5339 547.09 13.6836C546.888 13.931 546.787 14.3053 546.787 14.8066C546.787 15.3014 546.963 15.6986 547.314 15.998C547.666 16.291 548.171 16.4375 548.828 16.4375C549.759 16.4375 550.612 16.1185 551.387 15.4805ZM561.953 18.0488C561.823 18.0163 561.615 18 561.328 18H558.213C557.588 18 557.188 17.8893 557.012 17.668C556.94 17.5833 556.904 17.4857 556.904 17.375C556.904 17.1016 556.956 16.8997 557.061 16.7695C557.217 16.8216 557.393 16.8477 557.588 16.8477C557.79 16.8477 557.939 16.7663 558.037 16.6035C558.141 16.4408 558.19 16.138 558.184 15.6953V9.30859C558.184 8.69661 558.07 8.31576 557.842 8.16602C557.751 8.10742 557.63 8.07812 557.48 8.07812C557.331 8.07812 557.21 8.10091 557.119 8.14648C557.035 8.19206 556.963 8.22461 556.904 8.24414C556.852 8.26367 556.807 8.26367 556.768 8.24414C556.729 8.2181 556.689 8.18229 556.65 8.13672C556.553 8.03255 556.504 7.92513 556.504 7.81445C556.504 7.69727 556.543 7.57682 556.621 7.45312C556.706 7.32292 556.839 7.17643 557.021 7.01367C557.204 6.8444 557.412 6.69141 557.646 6.55469C558.174 6.2487 558.701 6.0957 559.229 6.0957C559.834 6.0957 560.192 6.49609 560.303 7.29688C560.335 7.53125 560.355 7.77214 560.361 8.01953C561.331 7.20573 562.386 6.6263 563.525 6.28125C563.936 6.15755 564.349 6.0957 564.766 6.0957C565.189 6.0957 565.589 6.15104 565.967 6.26172C566.351 6.3724 566.683 6.55143 566.963 6.79883C567.555 7.31966 567.852 8.13346 567.852 9.24023V15.8613C567.871 16.3691 568.06 16.6816 568.418 16.7988C568.516 16.8314 568.636 16.8607 568.779 16.8867C568.923 16.9128 569.049 16.9453 569.16 16.9844C569.277 17.0169 569.368 17.056 569.434 17.1016C569.544 17.1862 569.6 17.3229 569.6 17.5117C569.6 17.7396 569.548 17.9186 569.443 18.0488C569.313 18.0163 569.105 18 568.818 18H565.703C565.078 18 564.678 17.8893 564.502 17.668C564.43 17.5833 564.395 17.4857 564.395 17.375C564.395 17.1016 564.447 16.8997 564.551 16.7695C564.707 16.8216 564.85 16.8477 564.98 16.8477C565.117 16.8477 565.231 16.8314 565.322 16.7988C565.413 16.7598 565.485 16.6979 565.537 16.6133C565.628 16.457 565.674 16.151 565.674 15.6953V9.93359C565.674 8.82682 565.345 8.20833 564.688 8.07812C564.486 8.03906 564.232 8.01953 563.926 8.01953C563.626 8.01953 563.294 8.0651 562.93 8.15625C562.565 8.2474 562.223 8.36458 561.904 8.50781C561.292 8.78125 560.778 9.1263 560.361 9.54297V15.8613C560.381 16.3691 560.566 16.6816 560.918 16.7988C561.022 16.8314 561.143 16.8607 561.279 16.8867C561.423 16.9128 561.553 16.9453 561.67 16.9844C561.787 17.0169 561.878 17.056 561.943 17.1016C562.054 17.1862 562.109 17.3229 562.109 17.5117C562.109 17.7396 562.057 17.9186 561.953 18.0488ZM578.086 9.66016L578.096 9.30859C578.096 9.1849 578.066 8.97656 578.008 8.68359C577.949 8.38411 577.76 8.13997 577.441 7.95117C577.129 7.76237 576.729 7.66797 576.24 7.66797C575.758 7.66797 575.329 7.79167 574.951 8.03906C574.58 8.27995 574.277 8.60547 574.043 9.01562C573.6 9.79688 573.379 10.8418 573.379 12.1504C573.379 13.3874 573.678 14.3932 574.277 15.168C574.889 15.9622 575.697 16.3594 576.699 16.3594C577.611 16.3594 578.483 16.1087 579.316 15.6074C579.518 15.4837 579.674 15.3763 579.785 15.2852C579.85 15.2852 579.925 15.3372 580.01 15.4414C580.173 15.6302 580.254 15.7832 580.254 15.9004C580.254 16.0111 580.208 16.1413 580.117 16.291C580.026 16.4342 579.893 16.5905 579.717 16.7598C579.548 16.9225 579.342 17.0885 579.102 17.2578C578.861 17.4271 578.59 17.5801 578.291 17.7168C577.607 18.0293 576.908 18.1855 576.191 18.1855C575.475 18.1855 574.805 18.0651 574.18 17.8242C573.561 17.5768 573.027 17.2155 572.578 16.7402C571.615 15.7311 571.133 14.3444 571.133 12.5801C571.133 10.5749 571.745 8.96354 572.969 7.74609C574.082 6.64583 575.368 6.0957 576.826 6.0957C577.783 6.0957 578.581 6.30078 579.219 6.71094C579.889 7.14062 580.225 7.70703 580.225 8.41016C580.225 8.79427 580.14 9.08398 579.971 9.2793C579.678 9.62435 579.336 9.79688 578.945 9.79688C578.561 9.79688 578.275 9.7513 578.086 9.66016ZM582.148 12.7461C582.148 11.9583 582.23 11.2585 582.393 10.6465C582.555 10.0345 582.773 9.48763 583.047 9.00586C583.327 8.51758 583.652 8.09115 584.023 7.72656C584.401 7.36198 584.805 7.05924 585.234 6.81836C586.081 6.33659 586.914 6.0957 587.734 6.0957C588.555 6.0957 589.212 6.24219 589.707 6.53516C590.202 6.82161 590.605 7.20573 590.918 7.6875C591.497 8.60547 591.787 9.82617 591.787 11.3496C591.787 11.916 591.549 12.2057 591.074 12.2188L584.258 12.3652C584.297 13.778 584.661 14.8229 585.352 15.5C585.938 16.0729 586.696 16.3594 587.627 16.3594C589.014 16.3594 590.14 16.0697 591.006 15.4902C591.064 15.4902 591.136 15.5391 591.221 15.6367C591.383 15.832 591.465 16.0013 591.465 16.1445C591.465 16.457 591.074 16.8574 590.293 17.3457C589.395 17.9056 588.346 18.1855 587.148 18.1855C585.586 18.1855 584.359 17.6875 583.467 16.6914C582.588 15.7148 582.148 14.3997 582.148 12.7461ZM584.316 11.1055C586.191 11.0143 587.907 10.8939 589.463 10.7441C589.535 8.67383 588.818 7.63867 587.314 7.63867C586.475 7.63867 585.788 7.96419 585.254 8.61523C584.766 9.21419 584.453 10.0443 584.316 11.1055ZM599.365 18.0488C599.229 18.0163 599.02 18 598.74 18H595.43C594.805 18 594.404 17.8893 594.229 17.668C594.157 17.5833 594.121 17.4857 594.121 17.375C594.121 17.1016 594.173 16.8997 594.277 16.7695C594.434 16.8216 594.577 16.8477 594.707 16.8477C594.844 16.8477 594.958 16.8314 595.049 16.7988C595.14 16.7598 595.212 16.6979 595.264 16.6133C595.355 16.457 595.4 16.151 595.4 15.6953V9.30859C595.4 8.69661 595.286 8.31576 595.059 8.16602C594.967 8.10742 594.847 8.07812 594.697 8.07812C594.548 8.07812 594.427 8.10091 594.336 8.14648C594.251 8.19206 594.18 8.22461 594.121 8.24414C594.069 8.26367 594.023 8.26367 593.984 8.24414C593.945 8.2181 593.906 8.18229 593.867 8.13672C593.77 8.01953 593.721 7.90885 593.721 7.80469C593.721 7.69401 593.76 7.57682 593.838 7.45312C593.923 7.32292 594.056 7.17643 594.238 7.01367C594.421 6.8444 594.629 6.69141 594.863 6.55469C595.391 6.2487 595.918 6.0957 596.445 6.0957C597.044 6.0957 597.399 6.48633 597.51 7.26758C597.542 7.49544 597.562 7.73307 597.568 7.98047C598.519 7.14062 599.499 6.56445 600.508 6.25195C600.846 6.14779 601.152 6.0957 601.426 6.0957C601.706 6.0957 601.934 6.13477 602.109 6.21289C602.292 6.29102 602.435 6.39844 602.539 6.53516C602.734 6.80208 602.832 7.14388 602.832 7.56055C602.832 7.97721 602.812 8.30924 602.773 8.55664C602.734 8.80404 602.686 9.02214 602.627 9.21094C602.51 9.59505 602.399 9.83919 602.295 9.94336C602.113 10.1322 601.868 10.2266 601.562 10.2266C601.25 10.2266 601.094 10.1354 601.094 9.95312C601.094 9.25651 601.064 8.81055 601.006 8.61523C600.895 8.25716 600.687 8.07812 600.381 8.07812C600.075 8.07812 599.798 8.11393 599.551 8.18555C599.303 8.25065 599.062 8.3418 598.828 8.45898C598.353 8.69336 597.936 8.99609 597.578 9.36719V15.8613C597.598 16.3757 597.822 16.6882 598.252 16.7988C598.376 16.8314 598.516 16.8607 598.672 16.8867C598.828 16.9128 598.962 16.9453 599.072 16.9844C599.189 17.0169 599.281 17.056 599.346 17.1016C599.456 17.1862 599.512 17.3229 599.512 17.5117C599.512 17.7461 599.463 17.9251 599.365 18.0488ZM618.281 9.66016L618.291 9.30859C618.291 9.1849 618.262 8.97656 618.203 8.68359C618.145 8.38411 617.956 8.13997 617.637 7.95117C617.324 7.76237 616.924 7.66797 616.436 7.66797C615.954 7.66797 615.524 7.79167 615.146 8.03906C614.775 8.27995 614.473 8.60547 614.238 9.01562C613.796 9.79688 613.574 10.8418 613.574 12.1504C613.574 13.3874 613.874 14.3932 614.473 15.168C615.085 15.9622 615.892 16.3594 616.895 16.3594C617.806 16.3594 618.678 16.1087 619.512 15.6074C619.714 15.4837 619.87 15.3763 619.98 15.2852C620.046 15.2852 620.12 15.3372 620.205 15.4414C620.368 15.6302 620.449 15.7832 620.449 15.9004C620.449 16.0111 620.404 16.1413 620.312 16.291C620.221 16.4342 620.088 16.5905 619.912 16.7598C619.743 16.9225 619.538 17.0885 619.297 17.2578C619.056 17.4271 618.786 17.5801 618.486 17.7168C617.803 18.0293 617.103 18.1855 616.387 18.1855C615.671 18.1855 615 18.0651 614.375 17.8242C613.757 17.5768 613.223 17.2155 612.773 16.7402C611.81 15.7311 611.328 14.3444 611.328 12.5801C611.328 10.5749 611.94 8.96354 613.164 7.74609C614.277 6.64583 615.563 6.0957 617.021 6.0957C617.979 6.0957 618.776 6.30078 619.414 6.71094C620.085 7.14062 620.42 7.70703 620.42 8.41016C620.42 8.79427 620.335 9.08398 620.166 9.2793C619.873 9.62435 619.531 9.79688 619.141 9.79688C618.757 9.79688 618.47 9.7513 618.281 9.66016ZM622.256 12.6094C622.256 11.8151 622.334 11.1022 622.49 10.4707C622.646 9.83919 622.861 9.28255 623.135 8.80078C623.408 8.31901 623.73 7.90885 624.102 7.57031C624.473 7.22526 624.87 6.94531 625.293 6.73047C626.12 6.30729 627.028 6.0957 628.018 6.0957C629.287 6.0957 630.365 6.55794 631.25 7.48242C632.233 8.49805 632.725 9.83919 632.725 11.5059C632.725 13.6934 632.129 15.3958 630.938 16.6133C629.902 17.6615 628.662 18.1855 627.217 18.1855C625.706 18.1855 624.495 17.6549 623.584 16.5938C622.699 15.5716 622.256 14.2435 622.256 12.6094ZM627.793 16.5938C628.229 16.5938 628.62 16.4928 628.965 16.291C629.31 16.0827 629.603 15.7995 629.844 15.4414C630.326 14.6992 630.566 13.7357 630.566 12.5508C630.566 11.2487 630.312 10.1419 629.805 9.23047C629.232 8.18229 628.408 7.6582 627.334 7.6582C626.468 7.6582 625.775 7.99023 625.254 8.6543C624.701 9.35742 624.424 10.3405 624.424 11.6035C624.424 13.1855 624.772 14.4355 625.469 15.3535C626.094 16.1803 626.868 16.5938 627.793 16.5938ZM640 18.0488C639.87 18.0163 639.661 18 639.375 18H636.26C635.635 18 635.234 17.8893 635.059 17.668C634.987 17.5833 634.951 17.4857 634.951 17.375C634.951 17.1016 635.003 16.8997 635.107 16.7695C635.264 16.8216 635.439 16.8477 635.635 16.8477C635.837 16.8477 635.986 16.7663 636.084 16.6035C636.188 16.4408 636.237 16.138 636.23 15.6953V9.30859C636.23 8.69661 636.117 8.31576 635.889 8.16602C635.798 8.10742 635.677 8.07812 635.527 8.07812C635.378 8.07812 635.257 8.10091 635.166 8.14648C635.081 8.19206 635.01 8.22461 634.951 8.24414C634.899 8.26367 634.854 8.26367 634.814 8.24414C634.775 8.2181 634.736 8.18229 634.697 8.13672C634.6 8.03255 634.551 7.92513 634.551 7.81445C634.551 7.69727 634.59 7.57682 634.668 7.45312C634.753 7.32292 634.886 7.17643 635.068 7.01367C635.251 6.8444 635.459 6.69141 635.693 6.55469C636.221 6.2487 636.748 6.0957 637.275 6.0957C637.855 6.0957 638.203 6.46354 638.32 7.19922C638.359 7.42057 638.385 7.64844 638.398 7.88281C639.375 7.10807 640.397 6.56771 641.465 6.26172C641.855 6.15104 642.233 6.0957 642.598 6.0957C644.147 6.0957 645.127 6.70768 645.537 7.93164C646.553 7.12435 647.585 6.56771 648.633 6.26172C649.03 6.15104 649.434 6.0957 649.844 6.0957C650.254 6.0957 650.648 6.15104 651.025 6.26172C651.41 6.3724 651.738 6.55143 652.012 6.79883C652.611 7.33268 652.91 8.14648 652.91 9.24023V15.793C652.91 16.3268 653.092 16.6589 653.457 16.7891C653.561 16.8281 653.685 16.8607 653.828 16.8867C653.971 16.9128 654.102 16.9453 654.219 16.9844C654.336 17.0169 654.427 17.056 654.492 17.1016C654.603 17.1862 654.658 17.3229 654.658 17.5117C654.658 17.7396 654.606 17.9186 654.502 18.0488C654.372 18.0163 654.163 18 653.877 18H650.762C650.137 18 649.736 17.8893 649.561 17.668C649.489 17.5833 649.453 17.4857 649.453 17.375C649.453 17.1016 649.505 16.8997 649.609 16.7695C649.766 16.8216 649.938 16.8477 650.127 16.8477C650.316 16.8477 650.459 16.7858 650.557 16.6621C650.661 16.5319 650.719 16.2943 650.732 15.9492V9.93359C650.732 8.82682 650.404 8.20833 649.746 8.07812C649.544 8.03906 649.303 8.01953 649.023 8.01953C648.75 8.01953 648.451 8.05534 648.125 8.12695C647.806 8.19206 647.5 8.2832 647.207 8.40039C646.641 8.62826 646.146 8.91797 645.723 9.26953V15.793C645.723 16.3333 645.905 16.6654 646.27 16.7891C646.374 16.8281 646.497 16.8607 646.641 16.8867C646.784 16.9128 646.911 16.9453 647.021 16.9844C647.139 17.0169 647.23 17.056 647.295 17.1016C647.406 17.1862 647.461 17.3229 647.461 17.5117C647.461 17.7461 647.412 17.9251 647.314 18.0488C647.184 18.0163 646.976 18 646.689 18H643.574C642.949 18 642.549 17.8893 642.373 17.668C642.301 17.5833 642.266 17.4857 642.266 17.375C642.266 17.0951 642.314 16.8932 642.412 16.7695C642.575 16.8216 642.751 16.8477 642.939 16.8477C643.128 16.8477 643.271 16.7793 643.369 16.6426C643.473 16.5059 643.532 16.2552 643.545 15.8906V9.93359C643.545 8.82682 643.216 8.20833 642.559 8.07812C642.357 8.03906 642.113 8.01953 641.826 8.01953C641.54 8.01953 641.227 8.05859 640.889 8.13672C640.55 8.21484 640.228 8.31901 639.922 8.44922C639.336 8.6901 638.831 8.99609 638.408 9.36719V15.793C638.408 16.3268 638.594 16.6589 638.965 16.7891C639.062 16.8281 639.183 16.8607 639.326 16.8867C639.469 16.9128 639.6 16.9453 639.717 16.9844C639.834 17.0169 639.925 17.056 639.99 17.1016C640.101 17.1862 640.156 17.3229 640.156 17.5117C640.156 17.7396 640.104 17.9186 640 18.0488ZM661.133 21.6523C661.217 21.763 661.26 21.903 661.26 22.0723C661.26 22.2415 661.185 22.3848 661.035 22.502C660.885 22.6257 660.703 22.7266 660.488 22.8047C660.078 22.9479 659.684 23.0195 659.307 23.0195C658.929 23.0195 658.617 22.9935 658.369 22.9414C658.122 22.8893 657.917 22.7982 657.754 22.668C657.441 22.4076 657.285 21.9681 657.285 21.3496V9.30859C657.285 8.69661 657.171 8.31576 656.943 8.16602C656.852 8.10742 656.732 8.07812 656.582 8.07812C656.432 8.07812 656.312 8.10091 656.221 8.14648C656.136 8.19206 656.064 8.22461 656.006 8.24414C655.954 8.26367 655.908 8.26367 655.869 8.24414C655.83 8.2181 655.791 8.18229 655.752 8.13672C655.654 8.01953 655.605 7.90885 655.605 7.80469C655.605 7.69401 655.645 7.57682 655.723 7.45312C655.807 7.32292 655.941 7.17643 656.123 7.01367C656.305 6.8444 656.514 6.69141 656.748 6.55469C657.275 6.2487 657.803 6.0957 658.33 6.0957C658.968 6.0957 659.336 6.57422 659.434 7.53125C660.456 6.57422 661.569 6.0957 662.773 6.0957C664.102 6.0957 665.189 6.55469 666.035 7.47266C666.953 8.46224 667.412 9.84245 667.412 11.6133C667.412 12.9349 667.113 14.1165 666.514 15.1582C665.967 16.1087 665.215 16.8542 664.258 17.3945C663.34 17.9219 662.363 18.1855 661.328 18.1855C660.749 18.1855 660.127 18.0944 659.463 17.9121V19.2695C659.463 20.3242 659.521 20.972 659.639 21.2129C659.762 21.4603 659.886 21.6068 660.01 21.6523C660.14 21.6979 660.286 21.7207 660.449 21.7207C660.618 21.7207 660.846 21.6979 661.133 21.6523ZM659.463 9.05469V15.832C660.081 16.3594 660.827 16.623 661.699 16.623C662.715 16.623 663.542 16.2487 664.18 15.5C664.857 14.6992 665.195 13.6087 665.195 12.2285C665.195 10.7767 664.896 9.67969 664.297 8.9375C663.763 8.26693 663.021 7.93164 662.07 7.93164C661.12 7.93164 660.251 8.30599 659.463 9.05469ZM676.416 16.7598C675.465 17.7103 674.316 18.1855 672.969 18.1855C671.927 18.1855 671.094 17.8861 670.469 17.2871C669.837 16.6816 669.521 15.8971 669.521 14.9336C669.521 13.7357 670.055 12.8372 671.123 12.2383C672.087 11.6914 673.444 11.418 675.195 11.418H676.416C676.423 11.1706 676.426 10.9297 676.426 10.6953V9.96289C676.426 9.09049 676.299 8.47526 676.045 8.11719C675.758 7.71354 675.27 7.51172 674.58 7.51172C672.998 7.51172 672.184 8.07812 672.139 9.21094C672.132 9.38672 672.135 9.5332 672.148 9.65039C672.018 9.75456 671.797 9.80664 671.484 9.80664C671.178 9.80664 670.954 9.77083 670.811 9.69922C670.674 9.6276 670.553 9.52995 670.449 9.40625C670.228 9.15234 670.117 8.83008 670.117 8.43945C670.117 8.04232 670.231 7.69727 670.459 7.4043C670.693 7.10482 671.009 6.86068 671.406 6.67188C672.181 6.28776 673.096 6.0957 674.15 6.0957C675.205 6.0957 675.996 6.19987 676.523 6.4082C677.057 6.61003 677.48 6.88021 677.793 7.21875C678.346 7.81771 678.623 8.62174 678.623 9.63086L678.525 14.3184C678.525 15.1712 678.564 15.7116 678.643 15.9395C678.727 16.1673 678.825 16.3203 678.936 16.3984C679.053 16.4766 679.193 16.5156 679.355 16.5156C679.525 16.5156 679.661 16.4896 679.766 16.4375L680.039 16.3105C680.13 16.278 680.208 16.3171 680.273 16.4277C680.345 16.5319 680.381 16.6263 680.381 16.7109C680.381 16.7891 680.345 16.8932 680.273 17.0234C680.208 17.1536 680.081 17.2936 679.893 17.4434C679.71 17.5866 679.502 17.7135 679.268 17.8242C677.972 18.4362 677.09 18.293 676.621 17.3945C676.523 17.2188 676.455 17.0072 676.416 16.7598ZM676.387 15.4805C676.387 14.543 676.393 13.612 676.406 12.6875C675.052 12.7396 674.131 12.8275 673.643 12.9512C673.161 13.0684 672.812 13.1823 672.598 13.293C672.383 13.4036 672.214 13.5339 672.09 13.6836C671.888 13.931 671.787 14.3053 671.787 14.8066C671.787 15.3014 671.963 15.6986 672.314 15.998C672.666 16.291 673.171 16.4375 673.828 16.4375C674.759 16.4375 675.612 16.1185 676.387 15.4805ZM686.953 18.0488C686.823 18.0163 686.615 18 686.328 18H683.213C682.588 18 682.188 17.8893 682.012 17.668C681.94 17.5833 681.904 17.4857 681.904 17.375C681.904 17.1016 681.956 16.8997 682.061 16.7695C682.217 16.8216 682.393 16.8477 682.588 16.8477C682.79 16.8477 682.939 16.7663 683.037 16.6035C683.141 16.4408 683.19 16.138 683.184 15.6953V9.30859C683.184 8.69661 683.07 8.31576 682.842 8.16602C682.751 8.10742 682.63 8.07812 682.48 8.07812C682.331 8.07812 682.21 8.10091 682.119 8.14648C682.035 8.19206 681.963 8.22461 681.904 8.24414C681.852 8.26367 681.807 8.26367 681.768 8.24414C681.729 8.2181 681.689 8.18229 681.65 8.13672C681.553 8.03255 681.504 7.92513 681.504 7.81445C681.504 7.69727 681.543 7.57682 681.621 7.45312C681.706 7.32292 681.839 7.17643 682.021 7.01367C682.204 6.8444 682.412 6.69141 682.646 6.55469C683.174 6.2487 683.701 6.0957 684.229 6.0957C684.834 6.0957 685.192 6.49609 685.303 7.29688C685.335 7.53125 685.355 7.77214 685.361 8.01953C686.331 7.20573 687.386 6.6263 688.525 6.28125C688.936 6.15755 689.349 6.0957 689.766 6.0957C690.189 6.0957 690.589 6.15104 690.967 6.26172C691.351 6.3724 691.683 6.55143 691.963 6.79883C692.555 7.31966 692.852 8.13346 692.852 9.24023V15.8613C692.871 16.3691 693.06 16.6816 693.418 16.7988C693.516 16.8314 693.636 16.8607 693.779 16.8867C693.923 16.9128 694.049 16.9453 694.16 16.9844C694.277 17.0169 694.368 17.056 694.434 17.1016C694.544 17.1862 694.6 17.3229 694.6 17.5117C694.6 17.7396 694.548 17.9186 694.443 18.0488C694.313 18.0163 694.105 18 693.818 18H690.703C690.078 18 689.678 17.8893 689.502 17.668C689.43 17.5833 689.395 17.4857 689.395 17.375C689.395 17.1016 689.447 16.8997 689.551 16.7695C689.707 16.8216 689.85 16.8477 689.98 16.8477C690.117 16.8477 690.231 16.8314 690.322 16.7988C690.413 16.7598 690.485 16.6979 690.537 16.6133C690.628 16.457 690.674 16.151 690.674 15.6953V9.93359C690.674 8.82682 690.345 8.20833 689.688 8.07812C689.486 8.03906 689.232 8.01953 688.926 8.01953C688.626 8.01953 688.294 8.0651 687.93 8.15625C687.565 8.2474 687.223 8.36458 686.904 8.50781C686.292 8.78125 685.778 9.1263 685.361 9.54297V15.8613C685.381 16.3691 685.566 16.6816 685.918 16.7988C686.022 16.8314 686.143 16.8607 686.279 16.8867C686.423 16.9128 686.553 16.9453 686.67 16.9844C686.787 17.0169 686.878 17.056 686.943 17.1016C687.054 17.1862 687.109 17.3229 687.109 17.5117C687.109 17.7396 687.057 17.9186 686.953 18.0488ZM698.35 4.2793C698.128 4.2793 697.923 4.24674 697.734 4.18164C697.552 4.11003 697.393 4.00911 697.256 3.87891C696.969 3.60547 696.826 3.23763 696.826 2.77539C696.826 2.33268 696.995 1.95833 697.334 1.65234C697.66 1.34635 698.05 1.19336 698.506 1.19336C698.962 1.19336 699.326 1.33008 699.6 1.60352C699.873 1.87695 700.01 2.24805 700.01 2.7168C700.01 3.15951 699.847 3.53385 699.521 3.83984C699.202 4.13281 698.812 4.2793 698.35 4.2793ZM697.754 18C696.751 18 696.25 17.7721 696.25 17.3164C696.25 17.082 696.302 16.8997 696.406 16.7695C696.562 16.8216 696.706 16.8477 696.836 16.8477C697.441 16.8477 697.738 16.4635 697.725 15.6953V9.15234C697.725 8.69661 697.66 8.38086 697.529 8.20508C697.406 8.02279 697.181 7.93164 696.855 7.93164C696.615 7.93164 696.396 7.96094 696.201 8.01953C696.084 8.03255 695.999 7.94141 695.947 7.74609C695.902 7.57031 695.928 7.41732 696.025 7.28711C696.123 7.15039 696.273 7.01042 696.475 6.86719C696.683 6.71745 696.911 6.58724 697.158 6.47656C697.692 6.22266 698.138 6.0957 698.496 6.0957C698.854 6.0957 699.118 6.14779 699.287 6.25195C699.463 6.35612 699.596 6.49609 699.688 6.67188C699.831 6.95833 699.902 7.42057 699.902 8.05859V15.8613C699.922 16.3757 700.107 16.6882 700.459 16.7988C700.557 16.8314 700.677 16.8607 700.82 16.8867C700.964 16.9128 701.09 16.9453 701.201 16.9844C701.318 17.0169 701.41 17.056 701.475 17.1016C701.585 17.1862 701.641 17.3229 701.641 17.5117C701.641 17.7461 701.592 17.9251 701.494 18.0488C701.357 18.0163 701.149 18 700.869 18H697.754ZM702.998 12.6094C702.998 11.8151 703.076 11.1022 703.232 10.4707C703.389 9.83919 703.604 9.28255 703.877 8.80078C704.15 8.31901 704.473 7.90885 704.844 7.57031C705.215 7.22526 705.612 6.94531 706.035 6.73047C706.862 6.30729 707.77 6.0957 708.76 6.0957C710.029 6.0957 711.107 6.55794 711.992 7.48242C712.975 8.49805 713.467 9.83919 713.467 11.5059C713.467 13.6934 712.871 15.3958 711.68 16.6133C710.645 17.6615 709.404 18.1855 707.959 18.1855C706.449 18.1855 705.238 17.6549 704.326 16.5938C703.441 15.5716 702.998 14.2435 702.998 12.6094ZM708.535 16.5938C708.971 16.5938 709.362 16.4928 709.707 16.291C710.052 16.0827 710.345 15.7995 710.586 15.4414C711.068 14.6992 711.309 13.7357 711.309 12.5508C711.309 11.2487 711.055 10.1419 710.547 9.23047C709.974 8.18229 709.15 7.6582 708.076 7.6582C707.21 7.6582 706.517 7.99023 705.996 8.6543C705.443 9.35742 705.166 10.3405 705.166 11.6035C705.166 13.1855 705.514 14.4355 706.211 15.3535C706.836 16.1803 707.611 16.5938 708.535 16.5938ZM720.742 18.0488C720.612 18.0163 720.404 18 720.117 18H717.002C716.377 18 715.977 17.8893 715.801 17.668C715.729 17.5833 715.693 17.4857 715.693 17.375C715.693 17.1016 715.745 16.8997 715.85 16.7695C716.006 16.8216 716.182 16.8477 716.377 16.8477C716.579 16.8477 716.729 16.7663 716.826 16.6035C716.93 16.4408 716.979 16.138 716.973 15.6953V9.30859C716.973 8.69661 716.859 8.31576 716.631 8.16602C716.54 8.10742 716.419 8.07812 716.27 8.07812C716.12 8.07812 715.999 8.10091 715.908 8.14648C715.824 8.19206 715.752 8.22461 715.693 8.24414C715.641 8.26367 715.596 8.26367 715.557 8.24414C715.518 8.2181 715.479 8.18229 715.439 8.13672C715.342 8.03255 715.293 7.92513 715.293 7.81445C715.293 7.69727 715.332 7.57682 715.41 7.45312C715.495 7.32292 715.628 7.17643 715.811 7.01367C715.993 6.8444 716.201 6.69141 716.436 6.55469C716.963 6.2487 717.49 6.0957 718.018 6.0957C718.623 6.0957 718.981 6.49609 719.092 7.29688C719.124 7.53125 719.144 7.77214 719.15 8.01953C720.12 7.20573 721.175 6.6263 722.314 6.28125C722.725 6.15755 723.138 6.0957 723.555 6.0957C723.978 6.0957 724.378 6.15104 724.756 6.26172C725.14 6.3724 725.472 6.55143 725.752 6.79883C726.344 7.31966 726.641 8.13346 726.641 9.24023V15.8613C726.66 16.3691 726.849 16.6816 727.207 16.7988C727.305 16.8314 727.425 16.8607 727.568 16.8867C727.712 16.9128 727.839 16.9453 727.949 16.9844C728.066 17.0169 728.158 17.056 728.223 17.1016C728.333 17.1862 728.389 17.3229 728.389 17.5117C728.389 17.7396 728.337 17.9186 728.232 18.0488C728.102 18.0163 727.894 18 727.607 18H724.492C723.867 18 723.467 17.8893 723.291 17.668C723.219 17.5833 723.184 17.4857 723.184 17.375C723.184 17.1016 723.236 16.8997 723.34 16.7695C723.496 16.8216 723.639 16.8477 723.77 16.8477C723.906 16.8477 724.02 16.8314 724.111 16.7988C724.202 16.7598 724.274 16.6979 724.326 16.6133C724.417 16.457 724.463 16.151 724.463 15.6953V9.93359C724.463 8.82682 724.134 8.20833 723.477 8.07812C723.275 8.03906 723.021 8.01953 722.715 8.01953C722.415 8.01953 722.083 8.0651 721.719 8.15625C721.354 8.2474 721.012 8.36458 720.693 8.50781C720.081 8.78125 719.567 9.1263 719.15 9.54297V15.8613C719.17 16.3691 719.355 16.6816 719.707 16.7988C719.811 16.8314 719.932 16.8607 720.068 16.8867C720.212 16.9128 720.342 16.9453 720.459 16.9844C720.576 17.0169 720.667 17.056 720.732 17.1016C720.843 17.1862 720.898 17.3229 720.898 17.5117C720.898 17.7396 720.846 17.9186 720.742 18.0488ZM730.42 16.5645C730.42 16.0957 730.573 15.7083 730.879 15.4023C731.191 15.0898 731.576 14.9336 732.031 14.9336C732.773 14.9336 733.285 15.2591 733.564 15.9102C733.649 16.112 733.691 16.3301 733.691 16.5645C733.691 17.0202 733.535 17.4076 733.223 17.7266C732.91 18.0326 732.513 18.1855 732.031 18.1855C731.576 18.1855 731.191 18.0326 730.879 17.7266C730.573 17.4141 730.42 17.0267 730.42 16.5645Z" fill="#333333"/>
</svg>
