<svg width="245" height="90" viewBox="0 0 245 90" fill="none" xmlns="http://www.w3.org/2000/svg">
<g filter="url(#filter0_d_467_9555)">
<rect x="25" y="9" width="194.857" height="44" rx="22" fill="url(#paint0_linear_467_9555)"/>
<rect x="24.5" y="8.5" width="195.857" height="45" rx="22.5" stroke="url(#paint1_linear_467_9555)"/>
<path d="M68.759 26.4456C68.3088 26.4456 68.0838 26.8327 68.0838 27.607V33.029C68.0838 34.5055 67.5053 35.4643 66.3484 35.9055C65.9523 36.054 65.5044 36.1283 65.0047 36.1283C64.5051 36.1283 64.0797 36.0743 63.7286 35.9662C63.3775 35.8582 63.0804 35.7142 62.8373 35.5341C62.3466 35.165 62.1013 34.7171 62.1013 34.1904C62.1013 33.7943 62.1936 33.4814 62.3781 33.2518C62.5627 33.0178 62.817 32.9007 63.1411 32.9007C63.4112 32.9007 63.5913 32.9637 63.6813 33.0898C63.6273 33.3059 63.6003 33.5152 63.6003 33.7177C63.6003 34.6406 64.0774 35.102 65.0318 35.102C65.4999 35.102 65.86 34.9669 66.1121 34.6968C66.3642 34.4222 66.4902 34.0351 66.4902 33.5354V27.2356C66.4812 26.997 66.4362 26.8395 66.3552 26.7629C66.2291 26.6504 66.0806 26.5784 65.9095 26.5469C65.7385 26.5109 65.5944 26.4794 65.4774 26.4523C65.3649 26.4253 65.2681 26.3916 65.1871 26.3511C65.034 26.27 64.9575 26.1417 64.9575 25.9662C64.9575 25.7996 64.9935 25.6758 65.0655 25.5948C65.169 25.6308 65.3919 25.6488 65.734 25.6488H68.6577C69.1709 25.6488 69.4275 25.8221 69.4275 26.1687C69.4275 26.3173 69.3914 26.4321 69.3194 26.5131C69.1574 26.4681 68.9706 26.4456 68.759 26.4456ZM70.366 32.2728C70.366 31.7236 70.42 31.2307 70.5281 30.794C70.6361 30.3574 70.7847 29.9725 70.9737 29.6394C71.1628 29.3063 71.3856 29.0227 71.6422 28.7886C71.8988 28.55 72.1734 28.3565 72.466 28.2079C73.0376 27.9153 73.6656 27.769 74.3498 27.769C75.2276 27.769 75.9726 28.0886 76.5848 28.7278C77.2645 29.4301 77.6044 30.3574 77.6044 31.5098C77.6044 33.0223 77.1925 34.1994 76.3688 35.0412C75.653 35.7659 74.7955 36.1283 73.7962 36.1283C72.7518 36.1283 71.9145 35.7614 71.2843 35.0277C70.6721 34.3209 70.366 33.4026 70.366 32.2728ZM74.1945 35.0277C74.4961 35.0277 74.7662 34.9579 75.0048 34.8184C75.2434 34.6743 75.4459 34.4785 75.6125 34.2309C75.9456 33.7177 76.1122 33.0515 76.1122 32.2323C76.1122 31.332 75.9366 30.5667 75.5855 29.9365C75.1894 29.2118 74.6199 28.8494 73.8772 28.8494C73.2785 28.8494 72.7991 29.079 72.439 29.5381C72.0563 30.0243 71.865 30.704 71.865 31.5773C71.865 32.6711 72.1058 33.5354 72.5875 34.1701C73.0196 34.7418 73.5553 35.0277 74.1945 35.0277ZM80.5754 26.5131C80.4223 26.5131 80.2805 26.4906 80.15 26.4456C80.024 26.3961 79.9137 26.3263 79.8191 26.2363C79.6211 26.0472 79.522 25.7929 79.522 25.4733C79.522 25.1672 79.6391 24.9083 79.8732 24.6968C80.0982 24.4852 80.3683 24.3794 80.6834 24.3794C80.9985 24.3794 81.2506 24.4739 81.4397 24.663C81.6287 24.8521 81.7233 25.1086 81.7233 25.4328C81.7233 25.7389 81.6107 25.9977 81.3857 26.2093C81.1651 26.4118 80.895 26.5131 80.5754 26.5131ZM80.1635 36C79.4703 36 79.1237 35.8424 79.1237 35.5273C79.1237 35.3653 79.1597 35.2392 79.2317 35.1492C79.3397 35.1852 79.4388 35.2032 79.5288 35.2032C79.9474 35.2032 80.1523 34.9376 80.1432 34.4065V29.8825C80.1432 29.5674 80.0982 29.3491 80.0082 29.2275C79.9227 29.1015 79.7674 29.0384 79.5423 29.0384C79.3757 29.0384 79.2249 29.0587 79.0899 29.0992C79.0089 29.1082 78.9504 29.0452 78.9143 28.9102C78.8828 28.7886 78.9008 28.6828 78.9684 28.5928C79.0359 28.4983 79.1394 28.4015 79.279 28.3025C79.423 28.1989 79.5806 28.1089 79.7516 28.0324C80.1207 27.8568 80.4291 27.769 80.6767 27.769C80.9243 27.769 81.1066 27.805 81.2236 27.8771C81.3451 27.9491 81.4374 28.0459 81.5004 28.1674C81.5995 28.3655 81.649 28.6851 81.649 29.1262V34.5213C81.6625 34.8769 81.7908 35.093 82.0339 35.1695C82.1014 35.192 82.1847 35.2122 82.2837 35.2302C82.3827 35.2483 82.4705 35.2708 82.547 35.2978C82.6281 35.3203 82.6911 35.3473 82.7361 35.3788C82.8126 35.4373 82.8509 35.5318 82.8509 35.6624C82.8509 35.8244 82.8171 35.9482 82.7496 36.0338C82.6551 36.0113 82.511 36 82.3175 36H80.1635ZM87.4829 36.0338C87.3929 36.0113 87.2488 36 87.0508 36H84.8968C84.4647 36 84.1878 35.9235 84.0663 35.7704C84.0168 35.7119 83.992 35.6444 83.992 35.5679C83.992 35.3788 84.028 35.2392 84.1001 35.1492C84.2081 35.1852 84.3296 35.2032 84.4647 35.2032C84.6042 35.2032 84.7078 35.147 84.7753 35.0344C84.8473 34.9219 84.8811 34.7126 84.8766 34.4065V29.9905C84.8766 29.5674 84.7978 29.304 84.6402 29.2005C84.5772 29.16 84.4939 29.1397 84.3904 29.1397C84.2869 29.1397 84.2036 29.1555 84.1406 29.187C84.0821 29.2185 84.0325 29.241 83.992 29.2545C83.956 29.268 83.9245 29.268 83.8975 29.2545C83.8705 29.2365 83.8435 29.2118 83.8165 29.1802C83.7489 29.1082 83.7152 29.0339 83.7152 28.9574C83.7152 28.8764 83.7422 28.7931 83.7962 28.7076C83.8547 28.6176 83.947 28.5163 84.073 28.4037C84.1991 28.2867 84.3431 28.1809 84.5052 28.0864C84.8698 27.8748 85.2344 27.769 85.5991 27.769C86.0177 27.769 86.2653 28.0459 86.3418 28.5996C86.3643 28.7616 86.3778 28.9282 86.3823 29.0992C87.053 28.5365 87.7823 28.1359 88.57 27.8973C88.8536 27.8118 89.1395 27.769 89.4276 27.769C89.7202 27.769 89.997 27.8073 90.2581 27.8838C90.5237 27.9603 90.7533 28.0841 90.9468 28.2552C91.3565 28.6153 91.5613 29.178 91.5613 29.9432V34.5213C91.5748 34.8724 91.7053 35.0884 91.9529 35.1695C92.0204 35.192 92.1037 35.2122 92.2027 35.2302C92.3018 35.2483 92.3895 35.2708 92.4661 35.2978C92.5471 35.3203 92.6101 35.3473 92.6551 35.3788C92.7317 35.4373 92.7699 35.5318 92.7699 35.6624C92.7699 35.8199 92.7339 35.9437 92.6619 36.0338C92.5719 36.0113 92.4278 36 92.2297 36H90.0758C89.6436 36 89.3668 35.9235 89.2453 35.7704C89.1957 35.7119 89.171 35.6444 89.171 35.5679C89.171 35.3788 89.207 35.2392 89.279 35.1492C89.3871 35.1852 89.4861 35.2032 89.5761 35.2032C89.6706 35.2032 89.7494 35.192 89.8124 35.1695C89.8755 35.1425 89.925 35.0997 89.961 35.0412C90.024 34.9331 90.0555 34.7216 90.0555 34.4065V30.4227C90.0555 29.6574 89.8282 29.2298 89.3736 29.1397C89.234 29.1127 89.0584 29.0992 88.8469 29.0992C88.6398 29.0992 88.4102 29.1307 88.1581 29.1937C87.9061 29.2568 87.6697 29.3378 87.4492 29.4368C87.026 29.6259 86.6704 29.8645 86.3823 30.1526V34.5213C86.3958 34.8724 86.5241 35.0884 86.7672 35.1695C86.8392 35.192 86.9225 35.2122 87.017 35.2302C87.1161 35.2483 87.2061 35.2708 87.2871 35.2978C87.3681 35.3203 87.4312 35.3473 87.4762 35.3788C87.5527 35.4373 87.591 35.5318 87.591 35.6624C87.591 35.8199 87.5549 35.9437 87.4829 36.0338ZM110.468 28.5725C110.486 28.4465 110.495 28.2619 110.495 28.0189C110.495 27.7758 110.447 27.5552 110.353 27.3571C110.258 27.1546 110.13 26.997 109.968 26.8845C109.684 26.6909 109.257 26.5941 108.685 26.5941C108.118 26.5941 107.616 26.6977 107.179 26.9047C106.747 27.1073 106.385 27.3932 106.092 27.7623C105.502 28.505 105.208 29.5156 105.208 30.794C105.208 32.0049 105.507 32.9705 106.106 33.6907C106.727 34.4425 107.566 34.8184 108.624 34.8184C109.664 34.8184 110.474 34.591 111.055 34.1364C111.231 34.0013 111.39 33.855 111.534 33.6975C111.669 33.738 111.78 33.8573 111.865 34.0554C111.892 34.1229 111.906 34.2129 111.906 34.3254C111.906 34.4335 111.825 34.5955 111.663 34.8116C111.505 35.0232 111.273 35.228 110.967 35.4261C110.238 35.9032 109.365 36.1418 108.347 36.1418C106.889 36.1418 105.727 35.6984 104.863 34.8116C104.008 33.9428 103.58 32.7792 103.58 31.3207C103.58 30.4294 103.722 29.6259 104.006 28.9102C104.289 28.1944 104.676 27.5867 105.167 27.0871C105.658 26.5829 106.229 26.1958 106.882 25.9257C107.539 25.6556 108.176 25.5205 108.793 25.5205C109.414 25.5205 109.912 25.5723 110.285 25.6758C110.659 25.7794 110.969 25.9212 111.217 26.1012C111.712 26.4703 111.96 26.961 111.96 27.5732C111.96 28.0414 111.786 28.3722 111.44 28.5658C111.323 28.6333 111.197 28.6671 111.062 28.6671C110.783 28.6671 110.585 28.6356 110.468 28.5725ZM113.297 32.2728C113.297 31.7236 113.351 31.2307 113.459 30.794C113.567 30.3574 113.715 29.9725 113.904 29.6394C114.093 29.3063 114.316 29.0227 114.573 28.7886C114.829 28.55 115.104 28.3565 115.397 28.2079C115.968 27.9153 116.596 27.769 117.281 27.769C118.158 27.769 118.903 28.0886 119.516 28.7278C120.195 29.4301 120.535 30.3574 120.535 31.5098C120.535 33.0223 120.123 34.1994 119.299 35.0412C118.584 35.7659 117.726 36.1283 116.727 36.1283C115.682 36.1283 114.845 35.7614 114.215 35.0277C113.603 34.3209 113.297 33.4026 113.297 32.2728ZM117.125 35.0277C117.427 35.0277 117.697 34.9579 117.935 34.8184C118.174 34.6743 118.377 34.4785 118.543 34.2309C118.876 33.7177 119.043 33.0515 119.043 32.2323C119.043 31.332 118.867 30.5667 118.516 29.9365C118.12 29.2118 117.551 28.8494 116.808 28.8494C116.209 28.8494 115.73 29.079 115.37 29.5381C114.987 30.0243 114.796 30.704 114.796 31.5773C114.796 32.6711 115.037 33.5354 115.518 34.1701C115.95 34.7418 116.486 35.0277 117.125 35.0277ZM125.566 36.0338C125.475 36.0113 125.331 36 125.133 36H122.979C122.547 36 122.27 35.9235 122.149 35.7704C122.099 35.7119 122.075 35.6444 122.075 35.5679C122.075 35.3788 122.111 35.2392 122.183 35.1492C122.291 35.1852 122.412 35.2032 122.547 35.2032C122.687 35.2032 122.79 35.147 122.858 35.0344C122.93 34.9219 122.964 34.7126 122.959 34.4065V29.9905C122.959 29.5674 122.88 29.304 122.723 29.2005C122.66 29.16 122.577 29.1397 122.473 29.1397C122.369 29.1397 122.286 29.1555 122.223 29.187C122.165 29.2185 122.115 29.241 122.075 29.2545C122.039 29.268 122.007 29.268 121.98 29.2545C121.953 29.2365 121.926 29.2118 121.899 29.1802C121.832 29.1082 121.798 29.0339 121.798 28.9574C121.798 28.8764 121.825 28.7931 121.879 28.7076C121.937 28.6176 122.03 28.5163 122.156 28.4037C122.282 28.2867 122.426 28.1809 122.588 28.0864C122.952 27.8748 123.317 27.769 123.682 27.769C124.082 27.769 124.323 28.0234 124.404 28.532C124.431 28.6851 124.449 28.8426 124.458 29.0047C125.133 28.469 125.84 28.0954 126.578 27.8838C126.848 27.8073 127.11 27.769 127.362 27.769C128.433 27.769 129.11 28.1922 129.394 29.0384C130.096 28.4803 130.81 28.0954 131.534 27.8838C131.809 27.8073 132.088 27.769 132.372 27.769C132.655 27.769 132.928 27.8073 133.189 27.8838C133.454 27.9603 133.682 28.0841 133.871 28.2552C134.285 28.6243 134.492 29.187 134.492 29.9432V34.474C134.492 34.8431 134.618 35.0727 134.87 35.1627C134.942 35.1897 135.028 35.2122 135.127 35.2302C135.226 35.2483 135.316 35.2708 135.397 35.2978C135.478 35.3203 135.541 35.3473 135.586 35.3788C135.662 35.4373 135.701 35.5318 135.701 35.6624C135.701 35.8199 135.665 35.9437 135.593 36.0338C135.503 36.0113 135.359 36 135.16 36H133.006C132.574 36 132.297 35.9235 132.176 35.7704C132.126 35.7119 132.102 35.6444 132.102 35.5679C132.102 35.3788 132.138 35.2392 132.21 35.1492C132.318 35.1852 132.437 35.2032 132.568 35.2032C132.698 35.2032 132.797 35.1605 132.865 35.0749C132.937 34.9849 132.977 34.8206 132.986 34.582V30.4227C132.986 29.6574 132.759 29.2298 132.304 29.1397C132.165 29.1127 131.998 29.0992 131.805 29.0992C131.616 29.0992 131.408 29.124 131.183 29.1735C130.963 29.2185 130.751 29.2815 130.549 29.3626C130.157 29.5201 129.815 29.7204 129.522 29.9635V34.474C129.522 34.8476 129.648 35.0772 129.9 35.1627C129.972 35.1897 130.058 35.2122 130.157 35.2302C130.256 35.2483 130.344 35.2708 130.42 35.2978C130.501 35.3203 130.564 35.3473 130.609 35.3788C130.686 35.4373 130.724 35.5318 130.724 35.6624C130.724 35.8244 130.69 35.9482 130.623 36.0338C130.533 36.0113 130.389 36 130.191 36H128.037C127.605 36 127.328 35.9235 127.206 35.7704C127.157 35.7119 127.132 35.6444 127.132 35.5679C127.132 35.3743 127.166 35.2347 127.233 35.1492C127.346 35.1852 127.467 35.2032 127.598 35.2032C127.728 35.2032 127.828 35.156 127.895 35.0614C127.967 34.9669 128.008 34.7936 128.017 34.5415V30.4227C128.017 29.6574 127.789 29.2298 127.335 29.1397C127.195 29.1127 127.026 29.0992 126.828 29.0992C126.63 29.0992 126.414 29.1262 126.18 29.1802C125.946 29.2343 125.723 29.3063 125.511 29.3963C125.106 29.5629 124.758 29.7744 124.465 30.031V34.474C124.465 34.8431 124.593 35.0727 124.85 35.1627C124.917 35.1897 125.001 35.2122 125.1 35.2302C125.199 35.2483 125.289 35.2708 125.37 35.2978C125.451 35.3203 125.514 35.3473 125.559 35.3788C125.635 35.4373 125.674 35.5318 125.674 35.6624C125.674 35.8199 125.638 35.9437 125.566 36.0338ZM140.353 36.0338C140.263 36.0113 140.119 36 139.921 36H137.767C137.335 36 137.058 35.9235 136.936 35.7704C136.887 35.7119 136.862 35.6444 136.862 35.5679C136.862 35.3788 136.898 35.2392 136.97 35.1492C137.078 35.1852 137.2 35.2032 137.335 35.2032C137.474 35.2032 137.578 35.147 137.645 35.0344C137.717 34.9219 137.751 34.7126 137.747 34.4065V29.9905C137.747 29.5674 137.668 29.304 137.51 29.2005C137.447 29.16 137.364 29.1397 137.26 29.1397C137.157 29.1397 137.074 29.1555 137.011 29.187C136.952 29.2185 136.903 29.241 136.862 29.2545C136.826 29.268 136.794 29.268 136.767 29.2545C136.74 29.2365 136.713 29.2118 136.686 29.1802C136.619 29.1082 136.585 29.0339 136.585 28.9574C136.585 28.8764 136.612 28.7931 136.666 28.7076C136.725 28.6176 136.817 28.5163 136.943 28.4037C137.069 28.2867 137.213 28.1809 137.375 28.0864C137.74 27.8748 138.104 27.769 138.469 27.769C138.87 27.769 139.11 28.0234 139.192 28.532C139.219 28.6851 139.237 28.8426 139.246 29.0047C139.921 28.469 140.627 28.0954 141.366 27.8838C141.636 27.8073 141.897 27.769 142.149 27.769C143.22 27.769 143.898 28.1922 144.181 29.0384C144.884 28.4803 145.597 28.0954 146.322 27.8838C146.596 27.8073 146.876 27.769 147.159 27.769C147.443 27.769 147.715 27.8073 147.976 27.8838C148.242 27.9603 148.469 28.0841 148.658 28.2552C149.072 28.6243 149.279 29.187 149.279 29.9432V34.474C149.279 34.8431 149.405 35.0727 149.657 35.1627C149.73 35.1897 149.815 35.2122 149.914 35.2302C150.013 35.2483 150.103 35.2708 150.184 35.2978C150.265 35.3203 150.328 35.3473 150.373 35.3788C150.45 35.4373 150.488 35.5318 150.488 35.6624C150.488 35.8199 150.452 35.9437 150.38 36.0338C150.29 36.0113 150.146 36 149.948 36H147.794C147.362 36 147.085 35.9235 146.963 35.7704C146.914 35.7119 146.889 35.6444 146.889 35.5679C146.889 35.3788 146.925 35.2392 146.997 35.1492C147.105 35.1852 147.224 35.2032 147.355 35.2032C147.486 35.2032 147.585 35.1605 147.652 35.0749C147.724 34.9849 147.765 34.8206 147.774 34.582V30.4227C147.774 29.6574 147.546 29.2298 147.092 29.1397C146.952 29.1127 146.786 29.0992 146.592 29.0992C146.403 29.0992 146.196 29.124 145.971 29.1735C145.75 29.2185 145.539 29.2815 145.336 29.3626C144.944 29.5201 144.602 29.7204 144.31 29.9635V34.474C144.31 34.8476 144.436 35.0772 144.688 35.1627C144.76 35.1897 144.845 35.2122 144.944 35.2302C145.043 35.2483 145.131 35.2708 145.208 35.2978C145.289 35.3203 145.352 35.3473 145.397 35.3788C145.473 35.4373 145.512 35.5318 145.512 35.6624C145.512 35.8244 145.478 35.9482 145.41 36.0338C145.32 36.0113 145.176 36 144.978 36H142.824C142.392 36 142.115 35.9235 141.994 35.7704C141.944 35.7119 141.919 35.6444 141.919 35.5679C141.919 35.3743 141.953 35.2347 142.021 35.1492C142.133 35.1852 142.255 35.2032 142.385 35.2032C142.516 35.2032 142.615 35.156 142.682 35.0614C142.754 34.9669 142.795 34.7936 142.804 34.5415V30.4227C142.804 29.6574 142.577 29.2298 142.122 29.1397C141.982 29.1127 141.814 29.0992 141.616 29.0992C141.418 29.0992 141.201 29.1262 140.967 29.1802C140.733 29.2343 140.51 29.3063 140.299 29.3963C139.894 29.5629 139.545 29.7744 139.252 30.031V34.474C139.252 34.8431 139.381 35.0727 139.637 35.1627C139.705 35.1897 139.788 35.2122 139.887 35.2302C139.986 35.2483 140.076 35.2708 140.157 35.2978C140.238 35.3203 140.301 35.3473 140.346 35.3788C140.423 35.4373 140.461 35.5318 140.461 35.6624C140.461 35.8199 140.425 35.9437 140.353 36.0338ZM152.082 29.9905C152.082 29.7339 152.061 29.5291 152.021 29.3761C151.985 29.2185 151.908 29.1397 151.791 29.1397C151.706 29.1397 151.638 29.1487 151.589 29.1667L151.427 29.2343C151.395 29.2433 151.357 29.2253 151.312 29.1802C151.226 29.0857 151.183 29.0002 151.183 28.9237C151.183 28.8426 151.208 28.7594 151.258 28.6738C151.312 28.5838 151.391 28.4825 151.494 28.37C151.602 28.2574 151.724 28.1584 151.859 28.0729C152.165 27.8703 152.442 27.769 152.689 27.769C152.937 27.769 153.112 27.8118 153.216 27.8973C153.319 27.9828 153.398 28.0954 153.452 28.2349C153.542 28.46 153.587 28.7999 153.587 29.2545V33.4814C153.587 34.2422 153.817 34.6676 154.276 34.7576C154.416 34.7846 154.58 34.7981 154.769 34.7981C154.962 34.7981 155.167 34.7733 155.383 34.7238C155.604 34.6743 155.813 34.609 156.011 34.528C156.394 34.3705 156.732 34.1701 157.024 33.9271V29.9905C157.024 29.5629 156.948 29.2995 156.795 29.2005C156.732 29.16 156.648 29.1397 156.545 29.1397C156.441 29.1397 156.358 29.1555 156.295 29.187C156.236 29.2185 156.187 29.241 156.146 29.2545C156.11 29.268 156.079 29.268 156.052 29.2545C156.025 29.2365 155.996 29.2118 155.964 29.1802C155.897 29.1037 155.863 29.0272 155.863 28.9507C155.863 28.8741 155.89 28.7931 155.944 28.7076C156.002 28.6176 156.095 28.5163 156.221 28.4037C156.347 28.2867 156.491 28.1809 156.653 28.0864C157.017 27.8748 157.382 27.769 157.747 27.769C158.188 27.769 158.44 28.0819 158.503 28.7076C158.521 28.8831 158.53 29.0655 158.53 29.2545V33.2518C158.53 33.9451 158.557 34.3772 158.611 34.5483C158.665 34.7193 158.73 34.8319 158.807 34.8859C158.883 34.9354 158.978 34.9602 159.09 34.9602C159.203 34.9602 159.295 34.9422 159.367 34.9061L159.57 34.8184C159.628 34.8049 159.68 34.8319 159.725 34.8994C159.82 35.0389 159.833 35.165 159.766 35.2775C159.698 35.39 159.592 35.4981 159.448 35.6016C159.309 35.7052 159.151 35.7952 158.976 35.8717C158.197 36.2138 157.643 36.2071 157.315 35.8515C157.143 35.6669 157.047 35.3743 157.024 34.9737C156.362 35.4823 155.685 35.8334 154.992 36.027C154.74 36.0945 154.474 36.1283 154.195 36.1283C153.92 36.1283 153.65 36.09 153.385 36.0135C153.124 35.937 152.896 35.8132 152.703 35.6421C152.289 35.2775 152.082 34.7148 152.082 33.9541V29.9905ZM164.391 36.0338C164.301 36.0113 164.157 36 163.959 36H161.805C161.373 36 161.096 35.9235 160.974 35.7704C160.925 35.7119 160.9 35.6444 160.9 35.5679C160.9 35.3788 160.936 35.2392 161.008 35.1492C161.116 35.1852 161.238 35.2032 161.373 35.2032C161.512 35.2032 161.616 35.147 161.683 35.0344C161.755 34.9219 161.789 34.7126 161.784 34.4065V29.9905C161.784 29.5674 161.706 29.304 161.548 29.2005C161.485 29.16 161.402 29.1397 161.298 29.1397C161.195 29.1397 161.112 29.1555 161.049 29.187C160.99 29.2185 160.94 29.241 160.9 29.2545C160.864 29.268 160.832 29.268 160.805 29.2545C160.778 29.2365 160.751 29.2118 160.724 29.1802C160.657 29.1082 160.623 29.0339 160.623 28.9574C160.623 28.8764 160.65 28.7931 160.704 28.7076C160.763 28.6176 160.855 28.5163 160.981 28.4037C161.107 28.2867 161.251 28.1809 161.413 28.0864C161.778 27.8748 162.142 27.769 162.507 27.769C162.926 27.769 163.173 28.0459 163.25 28.5996C163.272 28.7616 163.286 28.9282 163.29 29.0992C163.961 28.5365 164.69 28.1359 165.478 27.8973C165.762 27.8118 166.047 27.769 166.336 27.769C166.628 27.769 166.905 27.8073 167.166 27.8838C167.432 27.9603 167.661 28.0841 167.855 28.2552C168.264 28.6153 168.469 29.178 168.469 29.9432V34.5213C168.483 34.8724 168.613 35.0884 168.861 35.1695C168.928 35.192 169.012 35.2122 169.111 35.2302C169.21 35.2483 169.297 35.2708 169.374 35.2978C169.455 35.3203 169.518 35.3473 169.563 35.3788C169.64 35.4373 169.678 35.5318 169.678 35.6624C169.678 35.8199 169.642 35.9437 169.57 36.0338C169.48 36.0113 169.336 36 169.138 36H166.984C166.552 36 166.275 35.9235 166.153 35.7704C166.104 35.7119 166.079 35.6444 166.079 35.5679C166.079 35.3788 166.115 35.2392 166.187 35.1492C166.295 35.1852 166.394 35.2032 166.484 35.2032C166.579 35.2032 166.657 35.192 166.72 35.1695C166.783 35.1425 166.833 35.0997 166.869 35.0412C166.932 34.9331 166.963 34.7216 166.963 34.4065V30.4227C166.963 29.6574 166.736 29.2298 166.281 29.1397C166.142 29.1127 165.966 29.0992 165.755 29.0992C165.548 29.0992 165.318 29.1307 165.066 29.1937C164.814 29.2568 164.578 29.3378 164.357 29.4368C163.934 29.6259 163.578 29.8645 163.29 30.1526V34.5213C163.304 34.8724 163.432 35.0884 163.675 35.1695C163.747 35.192 163.83 35.2122 163.925 35.2302C164.024 35.2483 164.114 35.2708 164.195 35.2978C164.276 35.3203 164.339 35.3473 164.384 35.3788C164.461 35.4373 164.499 35.5318 164.499 35.6624C164.499 35.8199 164.463 35.9437 164.391 36.0338ZM172.271 26.5131C172.118 26.5131 171.976 26.4906 171.845 26.4456C171.719 26.3961 171.609 26.3263 171.514 26.2363C171.316 26.0472 171.217 25.7929 171.217 25.4733C171.217 25.1672 171.334 24.9083 171.568 24.6968C171.794 24.4852 172.064 24.3794 172.379 24.3794C172.694 24.3794 172.946 24.4739 173.135 24.663C173.324 24.8521 173.419 25.1086 173.419 25.4328C173.419 25.7389 173.306 25.9977 173.081 26.2093C172.86 26.4118 172.59 26.5131 172.271 26.5131ZM171.859 36C171.166 36 170.819 35.8424 170.819 35.5273C170.819 35.3653 170.855 35.2392 170.927 35.1492C171.035 35.1852 171.134 35.2032 171.224 35.2032C171.643 35.2032 171.848 34.9376 171.839 34.4065V29.8825C171.839 29.5674 171.794 29.3491 171.704 29.2275C171.618 29.1015 171.463 29.0384 171.238 29.0384C171.071 29.0384 170.92 29.0587 170.785 29.0992C170.704 29.1082 170.646 29.0452 170.61 28.9102C170.578 28.7886 170.596 28.6828 170.664 28.5928C170.731 28.4983 170.835 28.4015 170.974 28.3025C171.118 28.1989 171.276 28.1089 171.447 28.0324C171.816 27.8568 172.124 27.769 172.372 27.769C172.62 27.769 172.802 27.805 172.919 27.8771C173.04 27.9491 173.133 28.0459 173.196 28.1674C173.295 28.3655 173.344 28.6851 173.344 29.1262V34.5213C173.358 34.8769 173.486 35.093 173.729 35.1695C173.797 35.192 173.88 35.2122 173.979 35.2302C174.078 35.2483 174.166 35.2708 174.242 35.2978C174.323 35.3203 174.386 35.3473 174.431 35.3788C174.508 35.4373 174.546 35.5318 174.546 35.6624C174.546 35.8244 174.512 35.9482 174.445 36.0338C174.35 36.0113 174.206 36 174.013 36H171.859ZM177.868 31.395L177.862 33.1708C177.862 33.9136 177.9 34.3615 177.976 34.5145C178.053 34.6631 178.143 34.7531 178.246 34.7846C178.35 34.8116 178.483 34.8251 178.645 34.8251C178.807 34.8251 178.953 34.8139 179.084 34.7914C179.219 34.7643 179.345 34.7306 179.462 34.6901C179.579 34.6496 179.691 34.6045 179.799 34.555L180.13 34.4132C180.207 34.3862 180.292 34.465 180.387 34.6496C180.414 34.6991 180.427 34.7576 180.427 34.8251C180.427 34.8881 180.4 34.9714 180.346 35.0749C180.292 35.1785 180.187 35.2978 180.029 35.4328C179.876 35.5634 179.696 35.6804 179.489 35.7839C179.039 36.0135 178.634 36.1283 178.273 36.1283C177.918 36.1283 177.627 36.108 177.402 36.0675C177.177 36.027 176.986 35.946 176.828 35.8244C176.504 35.5724 176.342 35.111 176.342 34.4402V29.1262H175.674C175.534 29.1262 175.433 29.0812 175.37 28.9912C175.262 28.8516 175.208 28.7346 175.208 28.6401C175.208 28.4825 175.246 28.3947 175.323 28.3767C176.038 28.2552 176.545 27.724 176.842 26.7832C176.927 26.4996 176.995 26.1642 177.045 25.7771C177.261 25.7411 177.423 25.7231 177.531 25.7231C177.643 25.7231 177.74 25.7794 177.821 25.8919C177.902 26.0044 177.94 26.135 177.936 26.2835C177.936 26.4321 177.934 26.5716 177.929 26.7022C177.925 26.8327 177.92 26.9745 177.916 27.1276L177.889 28.0729H180.225C180.283 28.1764 180.313 28.2867 180.313 28.4037V28.6131C180.313 28.8021 180.211 28.9574 180.009 29.079C179.806 29.196 179.581 29.2545 179.334 29.2545C179.09 29.2545 178.915 29.2523 178.807 29.2478C178.703 29.2388 178.602 29.2298 178.503 29.2208L178.206 29.1802C178.102 29.1712 177.992 29.1622 177.875 29.1532V29.2275L177.868 31.395ZM181.217 28.8561L181.076 28.8831C180.977 28.8831 180.907 28.8156 180.866 28.6806C180.853 28.6446 180.846 28.5928 180.846 28.5253C180.846 28.4578 180.884 28.3745 180.961 28.2754C181.037 28.1764 181.136 28.0909 181.258 28.0189C181.528 27.8523 181.814 27.769 182.115 27.769C182.354 27.769 182.525 27.8028 182.629 27.8703C182.831 27.9964 182.989 28.2529 183.101 28.6401L185.161 34.6158C185.584 33.675 185.874 33.0088 186.032 32.6171L186.444 31.5705C186.826 30.5442 187.018 29.8757 187.018 29.5651C187.018 29.25 186.964 29.0204 186.856 28.8764C186.747 28.7323 186.561 28.6468 186.295 28.6198C186.246 28.5658 186.221 28.4938 186.221 28.4037C186.221 28.3092 186.261 28.2237 186.342 28.1472C186.428 28.0661 186.538 27.9964 186.673 27.9378C186.948 27.8253 187.229 27.769 187.517 27.769C187.81 27.769 188.017 27.7848 188.138 27.8163C188.26 27.8433 188.357 27.8906 188.429 27.9581C188.568 28.0841 188.638 28.3182 188.638 28.6603C188.638 28.9664 188.397 29.7744 187.916 31.0844C187.465 32.2548 187.128 33.1033 186.903 33.63C186.075 35.4756 185.451 36.7675 185.032 37.5057C184.614 38.244 184.218 38.7549 183.844 39.0385C183.47 39.3266 183.077 39.4706 182.662 39.4706C182.248 39.4706 181.935 39.3806 181.724 39.2006C181.512 39.025 181.406 38.7819 181.406 38.4713C181.406 38.2372 181.465 38.0617 181.582 37.9446C181.803 37.7241 182.037 37.6385 182.284 37.6881C182.325 38.0257 182.527 38.1945 182.892 38.1945C183.221 38.1945 183.515 37.9807 183.777 37.553C183.898 37.3504 184.017 37.1141 184.134 36.844L184.526 35.973L184.661 35.6961C184.4 35.6601 184.179 35.5318 183.999 35.3113C183.927 35.2257 183.869 35.1177 183.824 34.9872L181.933 30.0243L181.771 29.6259C181.564 29.1127 181.379 28.8561 181.217 28.8561Z" fill="#333333"/>
</g>
<defs>
<filter id="filter0_d_467_9555" x="0" y="-4" width="244.857" height="94" filterUnits="userSpaceOnUse" color-interpolation-filters="sRGB">
<feFlood flood-opacity="0" result="BackgroundImageFix"/>
<feColorMatrix in="SourceAlpha" type="matrix" values="0 0 0 0 0 0 0 0 0 0 0 0 0 0 0 0 0 0 127 0" result="hardAlpha"/>
<feOffset dy="12"/>
<feGaussianBlur stdDeviation="12"/>
<feComposite in2="hardAlpha" operator="out"/>
<feColorMatrix type="matrix" values="0 0 0 0 0 0 0 0 0 0 0 0 0 0 0 0 0 0 0.08 0"/>
<feBlend mode="normal" in2="BackgroundImageFix" result="effect1_dropShadow_467_9555"/>
<feBlend mode="normal" in="SourceGraphic" in2="effect1_dropShadow_467_9555" result="shape"/>
</filter>
<linearGradient id="paint0_linear_467_9555" x1="219.857" y1="31" x2="25" y2="31" gradientUnits="userSpaceOnUse">
<stop stop-color="#EEB7F9"/>
<stop offset="0.971575" stop-color="#F597A9"/>
</linearGradient>
<linearGradient id="paint1_linear_467_9555" x1="122.429" y1="53" x2="122.429" y2="9" gradientUnits="userSpaceOnUse">
<stop stop-color="white"/>
<stop offset="0.3" stop-color="#AAAAAA"/>
<stop offset="0.7" stop-color="#AAAAAA"/>
<stop offset="1" stop-color="white"/>
</linearGradient>
</defs>
</svg>
