<svg width="116" height="44" viewBox="0 0 116 44" fill="none" xmlns="http://www.w3.org/2000/svg">
<path d="M12.5017 5.67126C12.0503 5.05278 11.6504 4.61101 11.2847 4.35147C10.9247 4.09192 10.5362 3.90417 10.1191 3.79373C9.70198 3.68328 9.26773 3.62806 8.81063 3.62806C8.13641 3.62806 7.51361 3.77164 6.93651 4.06431C6.35942 4.35699 5.86233 4.74906 5.43951 5.25158C5.01669 5.74857 4.68529 6.33392 4.44531 6.99658C4.20533 7.65924 4.08534 8.36056 4.08534 9.10605C4.08534 9.85154 4.20534 10.5639 4.4396 11.2266C4.67387 11.8892 5.00526 12.469 5.42237 12.966C5.83947 13.463 6.33657 13.8551 6.91366 14.1478C7.49075 14.4405 8.12498 14.584 8.81063 14.584C9.29059 14.584 9.74197 14.5067 10.1591 14.3576C10.5762 14.2085 10.9533 14.0097 11.2961 13.7612C11.6389 13.5127 11.9361 13.2311 12.1932 12.9053C12.4503 12.585 12.6503 12.2482 12.7931 11.9003L16.6671 12.944C16.4157 13.706 16.0557 14.4073 15.5757 15.0534C15.0958 15.6995 14.513 16.2628 13.8387 16.7322C13.1588 17.2071 12.3989 17.577 11.5532 17.8476C10.7076 18.1182 9.7934 18.2563 8.81635 18.2563C7.98785 18.2563 7.19935 18.1458 6.44513 17.9305C5.69091 17.7151 4.98812 17.4059 4.33675 17.0138C3.68538 16.6162 3.09115 16.1413 2.55977 15.5835C2.02839 15.0258 1.57128 14.4073 1.19418 13.7281C0.817067 13.0489 0.525668 12.3199 0.314259 11.5413C0.108563 10.7627 0 9.95094 0 9.10605C0 7.84147 0.228549 6.65973 0.68565 5.5553C1.14275 4.45087 1.76555 3.48449 2.55977 2.66168C3.35398 1.83888 4.28532 1.18727 5.3538 0.71236C6.42227 0.237454 7.57646 0 8.81063 0C9.79911 0 10.6276 0.115965 11.3018 0.353418C11.9761 0.590871 12.7188 1.05473 13.5245 1.75053H16.2157V5.67678H12.5017V5.67126Z" fill="#141313"/>
<path d="M29.8541 14.7448H31.6711L30.854 12.2102H25.2488L24.4317 14.7448H26.3573V17.9311H19.4436V14.7448H20.8035L25.7688 0.31543H30.5912L35.4479 14.7448H36.7678V17.9311H29.8541V14.7448ZM26.1973 9.23925H29.877L28.0257 3.51276L26.1973 9.23925Z" fill="#141313"/>
<path d="M51.1494 0.315093H58.0745V3.51243H56.5946V17.9308H52.6007L45.0128 6.54409V14.75H46.5384V17.9363H39.6248V14.75H41.1275V3.51243H39.6476V0.315093H45.1557L52.6921 11.8509V3.5069H51.1437V0.30957L51.1494 0.315093Z" fill="#141313"/>
<path d="M73.2158 5.67126C72.7645 5.05278 72.3645 4.61101 71.9988 4.35147C71.6388 4.09192 71.2503 3.90417 70.8332 3.79373C70.4161 3.68328 69.9818 3.62806 69.5247 3.62806C68.8505 3.62806 68.2277 3.77164 67.6506 4.06431C67.0735 4.35699 66.5764 4.74906 66.1536 5.25158C65.7308 5.74857 65.3994 6.33392 65.1594 6.99658C64.9194 7.65924 64.7995 8.36056 64.7995 9.10605C64.7995 9.85154 64.9194 10.5639 65.1537 11.2266C65.388 11.8892 65.7194 12.469 66.1365 12.966C66.5536 13.463 67.0507 13.8551 67.6278 14.1478C68.2049 14.4405 68.8391 14.584 69.5247 14.584C70.0047 14.584 70.4561 14.5067 70.8732 14.3576C71.2903 14.2085 71.6674 14.0097 72.0102 13.7612C72.3531 13.5127 72.6502 13.2311 72.9073 12.9053C73.1644 12.585 73.3644 12.2482 73.5072 11.9003L77.3812 12.944C77.1298 13.706 76.7698 14.4073 76.2898 15.0534C75.8099 15.6995 75.2271 16.2628 74.5529 16.7322C73.8729 17.2071 73.113 17.577 72.2674 17.8476C71.4217 18.1182 70.5075 18.2563 69.5305 18.2563C68.702 18.2563 67.9135 18.1458 67.1592 17.9305C66.405 17.7151 65.7022 17.4059 65.0509 17.0138C64.3995 16.6162 63.8052 16.1413 63.2739 15.5835C62.7425 15.0258 62.2854 14.4073 61.9083 13.7281C61.5312 13.0489 61.2398 12.3199 61.0284 11.5413C60.8227 10.7627 60.7141 9.95094 60.7141 9.10605C60.7141 7.84147 60.9427 6.65973 61.3998 5.5553C61.8569 4.45087 62.4797 3.48449 63.2739 2.66168C64.0681 1.83888 64.9994 1.18727 66.0679 0.71236C67.1364 0.237454 68.2906 0 69.5247 0C70.5132 0 71.3417 0.115965 72.0159 0.353418C72.6902 0.590871 73.433 1.05473 74.2386 1.75053H76.9298V5.67678H73.2158V5.67126Z" fill="#141313"/>
<path d="M81.1926 0.31543H95.6942V6.32354H91.7745V3.82753H87.0949V7.30097H90.7118V10.6695H87.0949V14.7504H91.7745V11.6248H95.6942V17.9367H81.1926V14.7504H83.1067V3.82753H81.1926V0.320952V0.31543Z" fill="#141313"/>
<path d="M99.0134 0.31543H108.658C109.595 0.31543 110.435 0.453485 111.172 0.724071C111.909 0.994657 112.532 1.35912 113.035 1.81194C113.538 2.26475 113.926 2.78936 114.195 3.39127C114.463 3.99319 114.601 4.6172 114.601 5.26881C114.601 5.86521 114.532 6.38981 114.401 6.83711C114.269 7.2844 114.075 7.68752 113.824 8.03541C113.572 8.38331 113.258 8.69255 112.892 8.95762C112.521 9.22268 112.104 9.46566 111.629 9.68654C112.041 9.89086 112.401 10.1946 112.709 10.6087C113.024 11.0229 113.258 11.5586 113.418 12.2157L114.029 14.5074H115.532L115.555 17.9367H110.264L109.544 13.7564C109.47 13.2594 109.361 12.8342 109.213 12.4697C109.064 12.1108 108.864 11.8181 108.618 11.5862C108.367 11.3598 108.07 11.1886 107.71 11.0781C107.356 10.9677 106.933 10.918 106.441 10.918H104.893V14.7504H106.561V17.9367H99.0134V14.7504H100.899V3.51276H99.0134V0.31543ZM104.893 3.50724V7.77035H107.287C107.744 7.77035 108.155 7.7317 108.521 7.64886C108.887 7.56603 109.201 7.43902 109.458 7.26783C109.721 7.09113 109.921 6.87576 110.058 6.6107C110.201 6.34563 110.27 6.03639 110.27 5.67193C110.27 4.9927 110.018 4.45705 109.51 4.08155C109.007 3.70052 108.264 3.51276 107.287 3.51276H104.893V3.50724Z" fill="#141313"/>
<path d="M0.925537 25.3193H7.70779C8.542 25.3193 9.33621 25.4243 10.0904 25.6341C10.8446 25.8439 11.5474 26.1366 12.1931 26.5176C12.8445 26.8987 13.433 27.3515 13.9587 27.8816C14.4843 28.4117 14.9414 29.0026 15.3128 29.6542C15.6842 30.3058 15.9699 31.0016 16.1699 31.7527C16.3699 32.4982 16.4727 33.2768 16.4727 34.083C16.4727 34.8892 16.3699 35.69 16.1699 36.441C15.9699 37.192 15.6842 37.8988 15.3128 38.556C14.9414 39.2131 14.49 39.815 13.9587 40.3507C13.4273 40.8918 12.8387 41.3502 12.1931 41.7312C11.5417 42.1122 10.8446 42.4104 10.0904 42.6203C9.33621 42.8301 8.542 42.935 7.70779 42.935H0.925537V40.936H2.65681V27.3294H0.925537V25.3193ZM5.01089 27.3294V40.936H7.85063C8.69056 40.936 9.48476 40.7593 10.2276 40.4004C10.9703 40.047 11.616 39.5555 12.1702 38.9425C12.7245 38.324 13.1587 37.6006 13.4787 36.7668C13.7987 35.9329 13.9587 35.0383 13.9587 34.0775C13.9587 33.1166 13.7987 32.2497 13.4787 31.4269C13.1587 30.6041 12.7188 29.8917 12.1702 29.2843C11.616 28.6768 10.9703 28.1964 10.2276 27.8485C9.48476 27.5006 8.69627 27.3239 7.85063 27.3239H5.01089V27.3294Z" fill="#141313"/>
<path d="M31.0543 40.936H32.5685L31.1286 36.938H24.1178L22.7122 40.936H24.5864V42.935H18.6726V40.936H20.261L25.9348 25.3193H29.4831L35.1454 40.936H36.9738V42.935H31.0601V40.936H31.0543ZM24.8035 35.0107H30.4315L27.5918 27.1306L24.8035 35.0107Z" fill="#141313"/>
<path d="M47.9269 43.2825C46.6699 43.2825 45.5157 43.0561 44.4758 42.6033C43.4359 42.1505 42.5045 41.5044 41.6874 40.6706C40.8704 39.8367 40.2476 38.8427 39.8248 37.6941C39.4019 36.5455 39.1848 35.3582 39.1848 34.1268C39.1848 32.8953 39.4019 31.6639 39.8305 30.5484C40.259 29.4329 40.8589 28.461 41.636 27.6382C42.4074 26.8154 43.333 26.1638 44.4015 25.6889C45.47 25.214 46.647 24.9766 47.9326 24.9766C49.2182 24.9766 50.4067 25.214 51.4808 25.6889C52.555 26.1638 53.475 26.8154 54.2463 27.6382C55.0177 28.461 55.6119 29.4329 56.0404 30.5484C56.4632 31.6639 56.6804 32.8567 56.6804 34.1268C56.6804 35.3969 56.4633 36.5897 56.0347 37.6996C55.6062 38.8096 55.0062 39.7815 54.2292 40.6098C53.4578 41.4381 52.5322 42.0897 51.4637 42.5702C50.3952 43.0451 49.2182 43.2825 47.9326 43.2825H47.9269ZM47.9269 41.1234C48.8811 41.1234 49.7439 40.9356 50.5152 40.5546C51.2866 40.1736 51.9494 39.6655 52.4922 39.0249C53.035 38.3844 53.4578 37.6444 53.7549 36.7995C54.052 35.9546 54.2006 35.0656 54.2006 34.1268C54.2006 33.188 54.0406 32.2382 53.7149 31.3436C53.3893 30.449 52.9379 29.6925 52.3551 29.074C51.7723 28.4555 51.098 27.9751 50.3267 27.6382C49.5553 27.3014 48.7554 27.1302 47.9212 27.1302C46.967 27.1302 46.1042 27.318 45.3271 27.699C44.55 28.08 43.8872 28.5881 43.3444 29.2286C42.8016 29.8692 42.3788 30.6092 42.0817 31.4596C41.7846 32.31 41.636 33.1991 41.636 34.1268C41.636 35.2091 41.8017 36.1755 42.1274 37.0259C42.4531 37.8763 42.893 38.5776 43.4301 39.1409C43.9729 39.7042 44.6186 40.1736 45.3671 40.5546C46.1156 40.9356 46.967 41.1234 47.9212 41.1234H47.9269Z" fill="#141313"/>
</svg>
