<svg width="228" height="112" viewBox="0 0 228 112" fill="none" xmlns="http://www.w3.org/2000/svg">
<g filter="url(#filter0_d_467_9675)">
<rect x="26" y="14" width="176" height="60" rx="30" fill="url(#paint0_linear_467_9675)"/>
<rect x="25" y="13" width="178" height="62" rx="31" stroke="url(#paint1_linear_467_9675)" stroke-width="2"/>
<path d="M74.4932 53.0859C74.3285 53.0286 73.974 53 73.4297 53H67.2852C66.9128 53 66.612 52.9427 66.3828 52.8281C66.1608 52.7064 66.0498 52.488 66.0498 52.1729C66.0498 51.9508 66.1071 51.7682 66.2217 51.625C66.4938 51.6966 66.7516 51.7324 66.9951 51.7324C67.2386 51.7324 67.4678 51.7074 67.6826 51.6572C67.8975 51.6071 68.1016 51.5176 68.2949 51.3887C68.7533 51.0951 68.9967 50.6475 69.0254 50.0459V38.1006H67.6289C66.5905 38.1006 65.9102 38.1507 65.5879 38.251C65.2728 38.3441 65.0329 38.4658 64.8682 38.6162C64.7106 38.7666 64.5817 38.9707 64.4814 39.2285C64.3024 39.6725 64.1628 40.4388 64.0625 41.5273C63.9049 41.5632 63.7617 41.5811 63.6328 41.5811C63.3464 41.5811 63.1637 41.5059 63.085 41.3555C63.0062 41.2051 62.9525 41.0511 62.9238 40.8936C62.8952 40.7288 62.8737 40.5498 62.8594 40.3564C62.8307 39.9697 62.8164 39.5579 62.8164 39.1211C62.8164 37.9251 62.9095 37.166 63.0957 36.8438C63.2819 36.5 63.6543 36.3281 64.2129 36.3281C64.3203 36.3281 64.4779 36.3389 64.6855 36.3604C64.8932 36.3818 65.194 36.4069 65.5879 36.4355C66.6549 36.5 67.9333 36.5322 69.4229 36.5322H71.2383C73.3151 36.5322 74.7044 36.5 75.4062 36.4355C76.1081 36.3639 76.5449 36.3281 76.7168 36.3281C76.8887 36.3281 77.0462 36.3532 77.1895 36.4033C77.3327 36.4535 77.4473 36.5251 77.5332 36.6182C77.6693 36.7757 77.7373 36.9727 77.7373 37.209C77.7373 37.5671 77.7266 37.8535 77.7051 38.0684C77.6836 38.2832 77.6585 38.5374 77.6299 38.8311C77.6084 39.1247 77.5762 39.429 77.5332 39.7441C77.4329 40.4889 77.3076 41.001 77.1572 41.2803C77.014 41.4808 76.8385 41.5811 76.6309 41.5811C76.4303 41.5811 76.2513 41.5632 76.0938 41.5273L76.1045 40.8506C76.1045 40.2132 76.0687 39.7119 75.9971 39.3467C75.9255 38.9743 75.7751 38.6986 75.5459 38.5195C75.3167 38.3333 74.9873 38.2188 74.5576 38.1758C74.1279 38.1257 73.555 38.1006 72.8389 38.1006H71.5498V50.4648C71.5498 50.9805 71.9616 51.3385 72.7852 51.5391C72.9857 51.582 73.1755 51.6214 73.3545 51.6572C73.5407 51.693 73.7197 51.7324 73.8916 51.7754C74.0635 51.8112 74.2067 51.8577 74.3213 51.915C74.5505 52.0296 74.665 52.223 74.665 52.4951C74.665 52.7458 74.6077 52.9427 74.4932 53.0859ZM85.4717 53.0537C85.3213 53.0179 85.0921 53 84.7842 53H81.1426C80.4551 53 80.0146 52.8783 79.8213 52.6348C79.7425 52.5417 79.7031 52.4342 79.7031 52.3125C79.7031 52.0117 79.7604 51.7897 79.875 51.6465C80.0469 51.7038 80.2044 51.7324 80.3477 51.7324C80.498 51.7324 80.6234 51.7145 80.7236 51.6787C80.8239 51.6357 80.9027 51.5677 80.96 51.4746C81.0602 51.3027 81.1104 50.9661 81.1104 50.4648V43.4395C81.1104 42.7663 80.985 42.3473 80.7344 42.1826C80.6341 42.1182 80.5016 42.0859 80.3369 42.0859C80.1722 42.0859 80.0397 42.111 79.9395 42.1611C79.8464 42.2113 79.7676 42.2471 79.7031 42.2686C79.6458 42.29 79.5957 42.29 79.5527 42.2686C79.5098 42.2399 79.4668 42.2005 79.4238 42.1504C79.3164 42.0215 79.2627 41.8997 79.2627 41.7852C79.2627 41.6634 79.3057 41.5345 79.3916 41.3984C79.4847 41.2552 79.6315 41.0941 79.832 40.915C80.0326 40.7288 80.2617 40.5605 80.5195 40.4102C81.0996 40.0736 81.6797 39.9053 82.2598 39.9053C82.9186 39.9053 83.3089 40.335 83.4307 41.1943C83.4665 41.445 83.488 41.7064 83.4951 41.9785C84.5407 41.0547 85.6185 40.4209 86.7285 40.0771C87.1009 39.9626 87.4375 39.9053 87.7383 39.9053C88.0462 39.9053 88.2969 39.9482 88.4902 40.0342C88.6908 40.1201 88.8483 40.2383 88.9629 40.3887C89.1777 40.6823 89.2852 41.0583 89.2852 41.5166C89.2852 41.9749 89.2637 42.3402 89.2207 42.6123C89.1777 42.8844 89.124 43.1243 89.0596 43.332C88.9307 43.7546 88.8089 44.0231 88.6943 44.1377C88.4938 44.3454 88.2253 44.4492 87.8887 44.4492C87.5449 44.4492 87.373 44.349 87.373 44.1484C87.373 43.3822 87.3408 42.8916 87.2764 42.6768C87.1546 42.2829 86.9255 42.0859 86.5889 42.0859C86.2523 42.0859 85.9479 42.1253 85.6758 42.2041C85.4036 42.2757 85.1387 42.376 84.8809 42.5049C84.3581 42.7627 83.8997 43.0957 83.5059 43.5039V50.6475C83.5273 51.2132 83.7744 51.557 84.2471 51.6787C84.3831 51.7145 84.5371 51.7467 84.709 51.7754C84.8809 51.804 85.0277 51.8398 85.1494 51.8828C85.2783 51.9186 85.3786 51.9616 85.4502 52.0117C85.5719 52.1048 85.6328 52.2552 85.6328 52.4629C85.6328 52.7207 85.5791 52.9176 85.4717 53.0537ZM90.3164 41.6348L90.0908 41.6777C89.9333 41.6777 89.8223 41.5703 89.7578 41.3555C89.7363 41.2982 89.7256 41.2158 89.7256 41.1084C89.7256 41.001 89.7865 40.8685 89.9082 40.7109C90.0299 40.5534 90.1875 40.4173 90.3809 40.3027C90.8105 40.0378 91.2653 39.9053 91.7451 39.9053C92.1247 39.9053 92.3968 39.959 92.5615 40.0664C92.8838 40.2669 93.1344 40.6751 93.3135 41.291L96.5898 50.7979C97.263 49.3011 97.7249 48.2412 97.9756 47.6182L98.6309 45.9531C99.2396 44.3203 99.5439 43.2568 99.5439 42.7627C99.5439 42.2614 99.458 41.8962 99.2861 41.667C99.1143 41.4378 98.8171 41.3018 98.3945 41.2588C98.3158 41.1729 98.2764 41.0583 98.2764 40.915C98.2764 40.7646 98.3408 40.6286 98.4697 40.5068C98.6058 40.3779 98.7812 40.2669 98.9961 40.1738C99.4329 39.9948 99.8805 39.9053 100.339 39.9053C100.804 39.9053 101.134 39.9303 101.327 39.9805C101.521 40.0234 101.674 40.0986 101.789 40.2061C102.011 40.4066 102.122 40.779 102.122 41.3232C102.122 41.8102 101.739 43.0957 100.973 45.1797C100.257 47.0417 99.7194 48.3916 99.3613 49.2295C98.0436 52.1657 97.0518 54.221 96.3857 55.3955C95.7197 56.57 95.0895 57.3828 94.4951 57.834C93.9007 58.2923 93.2741 58.5215 92.6152 58.5215C91.9564 58.5215 91.4587 58.3783 91.1221 58.0918C90.7855 57.8125 90.6172 57.4258 90.6172 56.9316C90.6172 56.5592 90.7103 56.2799 90.8965 56.0938C91.2474 55.7428 91.6198 55.6068 92.0137 55.6855C92.0781 56.2227 92.4004 56.4912 92.9805 56.4912C93.5033 56.4912 93.9723 56.151 94.3877 55.4707C94.5811 55.1484 94.7708 54.7725 94.957 54.3428L95.5801 52.957L95.7949 52.5166C95.3796 52.4593 95.0286 52.2552 94.7422 51.9043C94.6276 51.7682 94.5345 51.5964 94.4629 51.3887L91.4551 43.4932L91.1973 42.8594C90.8678 42.043 90.5742 41.6348 90.3164 41.6348ZM112.649 53C111.69 53 111.21 52.7243 111.21 52.1729C111.21 51.9222 111.267 51.7467 111.382 51.6465C111.59 51.7038 111.804 51.7324 112.026 51.7324C112.256 51.7324 112.452 51.7038 112.617 51.6465C112.789 51.5892 112.939 51.5068 113.068 51.3994C113.326 51.1774 113.455 50.8659 113.455 50.4648V38.7666C113.441 38.4801 113.38 38.2653 113.272 38.1221C113.165 37.9788 113.004 37.8786 112.789 37.8213C112.574 37.7568 112.395 37.7103 112.252 37.6816C112.116 37.653 111.991 37.6172 111.876 37.5742C111.625 37.4668 111.5 37.3343 111.5 37.1768C111.5 36.8473 111.554 36.6146 111.661 36.4785C111.812 36.5143 112.041 36.5322 112.349 36.5322H114.443C115.074 36.5322 115.639 36.8509 116.141 37.4883L125.175 48.9395V38.917C125.168 38.6305 125.107 38.3906 124.992 38.1973C124.885 38.0039 124.699 37.875 124.434 37.8105C124.176 37.7461 123.947 37.6995 123.746 37.6709C123.546 37.6351 123.367 37.5885 123.209 37.5312C122.872 37.4167 122.704 37.2305 122.704 36.9727C122.704 36.7578 122.761 36.5931 122.876 36.4785C123.026 36.5143 123.256 36.5322 123.563 36.5322H127.893C128.852 36.5322 129.332 36.7363 129.332 37.1445C129.332 37.4883 129.278 37.721 129.171 37.8428C128.992 37.7926 128.784 37.7676 128.548 37.7676C128.319 37.7676 128.118 37.7747 127.946 37.7891C127.774 37.7962 127.62 37.8392 127.484 37.918C127.184 38.0827 127.026 38.4193 127.012 38.9277V52.6992C127.012 52.9069 126.954 53.0322 126.84 53.0752C126.725 53.1253 126.518 53.1504 126.217 53.1504C125.708 53.1504 125.164 52.7744 124.584 52.0225L115.292 40.335V50.6152C115.328 51.2311 115.618 51.6107 116.162 51.7539C116.37 51.7969 116.574 51.8327 116.774 51.8613C116.982 51.89 117.165 51.9258 117.322 51.9688C117.688 52.0618 117.87 52.2266 117.87 52.4629C117.87 52.7207 117.816 52.9176 117.709 53.0537C117.559 53.0179 117.329 53 117.021 53H112.649ZM130.696 47.0703C130.696 46.1966 130.782 45.4124 130.954 44.7178C131.126 44.0231 131.362 43.4108 131.663 42.8809C131.964 42.3509 132.318 41.8997 132.727 41.5273C133.135 41.1478 133.572 40.8398 134.037 40.6035C134.947 40.138 135.946 39.9053 137.034 39.9053C138.431 39.9053 139.616 40.4137 140.59 41.4307C141.671 42.5479 142.212 44.0231 142.212 45.8564C142.212 48.2627 141.557 50.1354 140.246 51.4746C139.107 52.6276 137.743 53.2041 136.153 53.2041C134.492 53.2041 133.16 52.6204 132.157 51.4531C131.183 50.3288 130.696 48.8678 130.696 47.0703ZM136.787 51.4531C137.267 51.4531 137.697 51.3421 138.076 51.1201C138.456 50.891 138.778 50.5794 139.043 50.1855C139.573 49.3691 139.838 48.3092 139.838 47.0059C139.838 45.5736 139.559 44.3561 139 43.3535C138.37 42.2005 137.464 41.624 136.282 41.624C135.33 41.624 134.567 41.9893 133.994 42.7197C133.385 43.4932 133.081 44.5745 133.081 45.9639C133.081 47.7041 133.464 49.0791 134.23 50.0889C134.918 50.9984 135.77 51.4531 136.787 51.4531ZM148.066 52.4736L144.618 42.7305C144.36 42 144.135 41.6348 143.941 41.6348C143.855 41.6348 143.755 41.6455 143.641 41.667C143.526 41.6885 143.433 41.6491 143.361 41.5488C143.29 41.4486 143.254 41.3232 143.254 41.1729C143.254 41.0225 143.315 40.8685 143.437 40.7109C143.558 40.5534 143.712 40.4173 143.898 40.3027C144.314 40.0378 144.675 39.9053 144.983 39.9053C145.299 39.9053 145.531 39.9124 145.682 39.9268C145.832 39.9411 145.975 39.9912 146.111 40.0771C146.383 40.2562 146.613 40.6608 146.799 41.291L149.56 50.6367C150.24 48.6315 150.68 47.3066 150.881 46.6621C151.59 44.2702 152.062 42.5013 152.299 41.3555C152.349 41.0977 152.585 40.8792 153.008 40.7002C153.337 40.5641 153.617 40.4961 153.846 40.4961C154.075 40.4961 154.225 40.514 154.297 40.5498C154.376 40.5785 154.433 40.6357 154.469 40.7217C154.555 40.8936 154.619 41.1012 154.662 41.3447L157.52 50.7119C158.057 49.4014 158.422 48.4811 158.615 47.9512L159.174 46.3828C159.768 44.6712 160.065 43.3356 160.065 42.376C160.065 41.6956 159.736 41.3161 159.077 41.2373C159.006 41.1227 158.97 41.0046 158.97 40.8828C158.97 40.7539 159.031 40.6286 159.152 40.5068C159.274 40.3779 159.432 40.2669 159.625 40.1738C160.012 39.9948 160.402 39.9053 160.796 39.9053C161.197 39.9053 161.505 39.9268 161.72 39.9697C161.935 40.0127 162.106 40.0879 162.235 40.1953C162.479 40.4102 162.601 40.7324 162.601 41.1621C162.601 41.5846 162.554 42.0143 162.461 42.4512C162.368 42.8809 162.243 43.3535 162.085 43.8691C161.927 44.3848 161.745 44.9255 161.537 45.4912C160.757 47.568 160.187 48.9932 159.829 49.7666L159.045 51.3994C158.887 51.7145 158.766 51.9437 158.68 52.0869L158.411 52.5059C158.11 52.9714 157.756 53.2041 157.348 53.2041C156.904 53.2041 156.538 53.0859 156.252 52.8496C156.137 52.7493 156.055 52.624 156.005 52.4736L153.341 44.7822C152.625 47.0238 152.17 48.4274 151.977 48.9932C151.389 50.6403 151.035 51.5892 150.913 51.8398C150.791 52.0833 150.684 52.2839 150.591 52.4414C150.498 52.5918 150.394 52.7207 150.279 52.8281C150.021 53.0788 149.739 53.2041 149.431 53.2041C149.001 53.2041 148.632 53.0788 148.324 52.8281C148.21 52.735 148.124 52.6169 148.066 52.4736Z" fill="#333333"/>
</g>
<defs>
<filter id="filter0_d_467_9675" x="0" y="0" width="228" height="112" filterUnits="userSpaceOnUse" color-interpolation-filters="sRGB">
<feFlood flood-opacity="0" result="BackgroundImageFix"/>
<feColorMatrix in="SourceAlpha" type="matrix" values="0 0 0 0 0 0 0 0 0 0 0 0 0 0 0 0 0 0 127 0" result="hardAlpha"/>
<feOffset dy="12"/>
<feGaussianBlur stdDeviation="12"/>
<feComposite in2="hardAlpha" operator="out"/>
<feColorMatrix type="matrix" values="0 0 0 0 0 0 0 0 0 0 0 0 0 0 0 0 0 0 0.08 0"/>
<feBlend mode="normal" in2="BackgroundImageFix" result="effect1_dropShadow_467_9675"/>
<feBlend mode="normal" in="SourceGraphic" in2="effect1_dropShadow_467_9675" result="shape"/>
</filter>
<linearGradient id="paint0_linear_467_9675" x1="202" y1="44" x2="26" y2="44" gradientUnits="userSpaceOnUse">
<stop stop-color="#F597A9"/>
<stop offset="1" stop-color="#EEB7F8"/>
</linearGradient>
<linearGradient id="paint1_linear_467_9675" x1="114" y1="74" x2="114" y2="14" gradientUnits="userSpaceOnUse">
<stop stop-color="white"/>
<stop offset="0.3" stop-color="#AAAAAA"/>
<stop offset="0.7" stop-color="#AAAAAA"/>
<stop offset="1" stop-color="white"/>
</linearGradient>
</defs>
</svg>
