<svg width="104" height="44" viewBox="0 0 104 44" fill="none" xmlns="http://www.w3.org/2000/svg">
<path d="M23.25 10.5948C17.0355 10.5948 12 15.7801 12 22.1794C12 28.5788 17.0355 33.764 23.25 33.764C29.4645 33.764 34.5 28.5788 34.5 22.1794C34.5 15.7801 29.4645 10.5948 23.25 10.5948ZM32.946 21.4071H29.9745C29.8455 18.063 28.8975 15.1082 27.4635 13.1357C30.519 14.6479 32.6715 17.7541 32.946 21.4071ZM28.4625 21.4071H24V12.2537C26.4105 12.9148 28.2735 16.7084 28.4625 21.4071ZM22.5 12.2537V21.4071H18.0375C18.2265 16.7084 20.0895 12.9148 22.5 12.2537ZM19.038 13.1357C17.6025 15.1082 16.656 18.063 16.527 21.4071H13.554C13.8285 17.7541 15.981 14.6479 19.038 13.1357ZM13.554 22.9517H16.5255C16.6545 26.2958 17.6025 29.2507 19.0365 31.2231C15.981 29.711 13.8285 26.6047 13.554 22.9517ZM18.0375 22.9517H22.5V32.1051C20.0895 31.444 18.2265 27.6504 18.0375 22.9517ZM24 32.1051V22.9517H28.4625C28.2735 27.6504 26.4105 31.444 24 32.1051ZM27.462 31.2231C28.8975 29.2507 29.844 26.2958 29.973 22.9517H32.9445C32.6715 26.6047 30.519 29.711 27.462 31.2231Z" fill="#333333" stroke="white" stroke-width="0.5" stroke-linejoin="round"/>
<rect x="0.5" y="0.5" width="103" height="43" rx="21.5" stroke="#5D5D5D"/>
<path d="M48.2646 23.958C48.3877 23.8532 48.5176 23.8008 48.6543 23.8008C48.8639 23.8008 48.9847 23.8304 49.0166 23.8896C49.1943 24.2451 49.2832 24.833 49.2832 25.6533C49.2832 26.223 49.2194 26.6354 49.0918 26.8906C49.0508 26.9635 49.0075 27 48.9619 27H41.415C40.8727 27 40.6016 26.8382 40.6016 26.5146C40.6016 26.3415 40.638 26.2093 40.7109 26.1182C40.8659 26.1637 41.0163 26.1865 41.1621 26.1865C41.3079 26.1865 41.4333 26.1751 41.5381 26.1523C41.6429 26.1296 41.7409 26.0817 41.832 26.0088C42.0508 25.8402 42.1602 25.5553 42.1602 25.1543V18.2295C42.1602 17.833 42.0007 17.5801 41.6816 17.4707C41.5905 17.4388 41.4948 17.4115 41.3945 17.3887C41.2988 17.3613 41.2054 17.3363 41.1143 17.3135C41.0277 17.2861 40.9502 17.2565 40.8818 17.2246C40.7269 17.1426 40.6494 17.0309 40.6494 16.8896C40.6494 16.7028 40.6859 16.5684 40.7588 16.4863C40.8408 16.5091 40.9229 16.5205 41.0049 16.5205H47.998C48.4173 16.5205 48.6794 16.5592 48.7842 16.6367C48.9756 16.7734 49.0713 17.0742 49.0713 17.5391C49.0713 17.9857 49.0326 18.3503 48.9551 18.6328C48.8822 18.9154 48.8298 19.084 48.7979 19.1387C48.7523 19.2207 48.6634 19.2617 48.5312 19.2617C48.3398 19.2617 48.2077 19.2389 48.1348 19.1934C48.0664 19.1432 48.0299 19.1068 48.0254 19.084C47.9661 18.4323 47.8636 18.0176 47.7178 17.8398C47.5719 17.6576 47.3988 17.5345 47.1982 17.4707C47.0023 17.4023 46.7448 17.3682 46.4258 17.3682H44.9014C44.4183 17.3682 44.1221 17.416 44.0127 17.5117C43.9079 17.6074 43.8418 17.7191 43.8145 17.8467C43.7871 17.9697 43.7734 18.1292 43.7734 18.3252V21.2373L44.1768 21.2441C45.1839 21.2441 46.1182 21.1553 46.9795 20.9775C47.0433 21.0094 47.1003 21.1006 47.1504 21.251C47.2005 21.3968 47.2256 21.5426 47.2256 21.6885C47.2256 21.9346 47.1846 22.1488 47.1025 22.3311C46.8018 22.3584 46.4554 22.3721 46.0635 22.3721C45.6715 22.3721 44.9082 22.3083 43.7734 22.1807V25.2637C43.7734 25.6055 43.8646 25.8356 44.0469 25.9541C44.2018 26.0544 44.4798 26.1045 44.8809 26.1045L45.9131 26.0771C46.9111 26.0407 47.5605 25.9017 47.8613 25.6602C48.0299 25.5234 48.1416 25.3434 48.1963 25.1201C48.251 24.8968 48.2783 24.6735 48.2783 24.4502C48.2783 24.2223 48.2738 24.0583 48.2646 23.958ZM51.3408 27C50.7301 27 50.4248 26.8245 50.4248 26.4736C50.4248 26.3141 50.4613 26.2025 50.5342 26.1387C50.6663 26.1751 50.8031 26.1934 50.9443 26.1934C51.0902 26.1934 51.2155 26.1751 51.3203 26.1387C51.4297 26.1022 51.5254 26.0498 51.6074 25.9814C51.7715 25.8402 51.8535 25.6419 51.8535 25.3867V17.9424C51.8444 17.7601 51.8057 17.6234 51.7373 17.5322C51.6689 17.4411 51.5664 17.3773 51.4297 17.3408C51.293 17.2998 51.179 17.2702 51.0879 17.252C51.0013 17.2337 50.9215 17.2109 50.8486 17.1836C50.6891 17.1152 50.6094 17.0309 50.6094 16.9307C50.6094 16.721 50.6436 16.5729 50.7119 16.4863C50.8076 16.5091 50.9535 16.5205 51.1494 16.5205H52.4824C52.8835 16.5205 53.2435 16.7233 53.5625 17.1289L59.3115 24.416V18.0381C59.307 17.8558 59.2682 17.7031 59.1953 17.5801C59.127 17.457 59.0085 17.375 58.8398 17.334C58.6758 17.293 58.5299 17.2633 58.4023 17.2451C58.2747 17.2223 58.1608 17.1927 58.0605 17.1562C57.8464 17.0833 57.7393 16.9648 57.7393 16.8008C57.7393 16.6641 57.7757 16.5592 57.8486 16.4863C57.9443 16.5091 58.0902 16.5205 58.2861 16.5205H61.041C61.6517 16.5205 61.957 16.6504 61.957 16.9102C61.957 17.1289 61.9229 17.277 61.8545 17.3545C61.7406 17.3226 61.6084 17.3066 61.458 17.3066C61.3122 17.3066 61.1846 17.3112 61.0752 17.3203C60.9658 17.3249 60.8678 17.3522 60.7812 17.4023C60.5898 17.5072 60.4896 17.7214 60.4805 18.0449V26.8086C60.4805 26.9408 60.444 27.0205 60.3711 27.0479C60.2982 27.0798 60.166 27.0957 59.9746 27.0957C59.651 27.0957 59.3047 26.8564 58.9355 26.3779L53.0225 18.9404V25.4824C53.0452 25.8743 53.2298 26.1159 53.5762 26.207C53.7083 26.2344 53.8382 26.2572 53.9658 26.2754C54.098 26.2936 54.2142 26.3164 54.3145 26.3438C54.5469 26.403 54.6631 26.5078 54.6631 26.6582C54.6631 26.8223 54.6289 26.9476 54.5605 27.0342C54.4648 27.0114 54.319 27 54.123 27H51.3408Z" fill="#333333"/>
<rect x="78" y="15" width="14" height="14" rx="7" fill="#5D5D5D"/>
<path fill-rule="evenodd" clip-rule="evenodd" d="M84.7 24.6C84.85 24.8 85.15 24.8 85.3 24.6L87.55 21.6C87.7354 21.3528 87.559 21 87.25 21H82.75C82.441 21 82.2646 21.3528 82.45 21.6L84.7 24.6Z" fill="white"/>
</svg>
