<svg width="96" height="44" viewBox="0 0 96 44" fill="none" xmlns="http://www.w3.org/2000/svg">
<rect x="0.5" y="0.5" width="95" height="43" rx="21.5" stroke="#5D5D5D"/>
<path d="M27.9346 26C27.2373 26 26.8887 25.8405 26.8887 25.5215C26.8887 25.3529 26.9229 25.2253 26.9912 25.1387C27.1006 25.1751 27.2031 25.1934 27.2988 25.1934C27.6953 25.1934 27.9004 24.9541 27.9141 24.4756V15.917C27.9141 15.598 27.8822 15.3952 27.8184 15.3086C27.7135 15.1628 27.5449 15.0898 27.3125 15.0898C27.2077 15.0898 27.1051 15.1012 27.0049 15.124C26.9092 15.1423 26.8408 15.1423 26.7998 15.124C26.7633 15.1012 26.7337 15.0716 26.7109 15.0352C26.6198 14.8848 26.7337 14.6934 27.0527 14.4609C27.554 14.0918 28.0485 13.9072 28.5361 13.9072C29.0557 13.9072 29.3473 14.1875 29.4111 14.748C29.4294 14.9167 29.4385 15.0944 29.4385 15.2812V24.5029C29.4521 24.8584 29.582 25.0771 29.8281 25.1592C29.901 25.182 29.9854 25.2025 30.0811 25.2207C30.1813 25.2389 30.2725 25.2617 30.3545 25.2891C30.4365 25.3118 30.5003 25.3392 30.5459 25.3711C30.6234 25.4303 30.6621 25.526 30.6621 25.6582C30.6621 25.8177 30.6257 25.943 30.5527 26.0342C30.4616 26.0114 30.3158 26 30.1152 26H27.9346ZM31.5713 22.2266C31.5713 21.6706 31.626 21.1715 31.7354 20.7295C31.8447 20.2874 31.9951 19.8978 32.1865 19.5605C32.3779 19.2233 32.6035 18.9362 32.8633 18.6992C33.123 18.4577 33.401 18.2617 33.6973 18.1113C34.276 17.8151 34.9118 17.667 35.6045 17.667C36.4932 17.667 37.2474 17.9906 37.8672 18.6377C38.5553 19.3486 38.8994 20.2874 38.8994 21.4541C38.8994 22.9854 38.4824 24.1771 37.6484 25.0293C36.9238 25.763 36.0557 26.1299 35.0439 26.1299C33.9867 26.1299 33.139 25.7585 32.501 25.0156C31.8812 24.3001 31.5713 23.3704 31.5713 22.2266ZM35.4473 25.0156C35.7526 25.0156 36.026 24.945 36.2676 24.8037C36.5091 24.6579 36.7142 24.4596 36.8828 24.209C37.2201 23.6895 37.3887 23.015 37.3887 22.1855C37.3887 21.2741 37.2109 20.4993 36.8555 19.8613C36.4544 19.1276 35.8779 18.7607 35.126 18.7607C34.5199 18.7607 34.0345 18.9932 33.6699 19.458C33.2826 19.9502 33.0889 20.6383 33.0889 21.5225C33.0889 22.6299 33.3327 23.5049 33.8203 24.1475C34.2578 24.7262 34.8001 25.0156 35.4473 25.0156ZM42.9463 23.2725C42.7731 23.4456 42.6865 23.6143 42.6865 23.7783C42.6865 23.9424 42.7344 24.0677 42.8301 24.1543C42.9258 24.2363 43.0511 24.3001 43.2061 24.3457C43.443 24.4095 43.7051 24.4414 43.9922 24.4414H44.5801C46.0658 24.4414 47.0433 24.7969 47.5127 25.5078C47.6859 25.7721 47.7725 26.0934 47.7725 26.4717C47.7725 26.8545 47.7087 27.1895 47.5811 27.4766C47.4535 27.7637 47.2826 28.0166 47.0684 28.2354C46.8542 28.4587 46.6058 28.6501 46.3232 28.8096C46.0407 28.9691 45.7422 29.099 45.4277 29.1992C44.8125 29.4043 44.2383 29.5068 43.7051 29.5068C43.1719 29.5068 42.7048 29.4635 42.3037 29.377C41.9072 29.2949 41.554 29.165 41.2441 28.9873C40.5742 28.5999 40.2393 28.0439 40.2393 27.3193C40.2393 26.7041 40.5469 26.1527 41.1621 25.665C41.349 25.5192 41.5472 25.3893 41.7568 25.2754C41.5107 25.0703 41.3877 24.7946 41.3877 24.4482C41.3877 23.9059 41.6566 23.4502 42.1943 23.0811C41.4059 22.7803 40.8887 22.2425 40.6426 21.4678C40.5651 21.2126 40.5264 20.9277 40.5264 20.6133C40.5264 20.2988 40.5742 20.0026 40.6699 19.7246C40.7702 19.4466 40.9046 19.1982 41.0732 18.9795C41.2464 18.7607 41.4469 18.5693 41.6748 18.4053C41.9027 18.2412 42.1465 18.1045 42.4062 17.9951C42.9167 17.7764 43.4521 17.667 44.0127 17.667C44.9378 17.667 45.6761 17.8994 46.2275 18.3643C46.2868 18.1364 46.3164 17.9017 46.3164 17.6602C46.3164 17.4186 46.264 17.2227 46.1592 17.0723C46.3369 16.8626 46.6012 16.7578 46.9521 16.7578C47.1527 16.7578 47.3122 16.8125 47.4307 16.9219C47.6585 17.1178 47.7725 17.3138 47.7725 17.5098C47.7725 17.7012 47.7428 17.8698 47.6836 18.0156C47.6243 18.1569 47.5469 18.2913 47.4512 18.4189C47.2826 18.6559 47.0638 18.8701 46.7949 19.0615C46.9772 19.4033 47.0684 19.7998 47.0684 20.251C47.0684 20.6976 46.9681 21.1146 46.7676 21.502C46.5716 21.8848 46.3073 22.2106 45.9746 22.4795C45.291 23.0309 44.4479 23.3066 43.4453 23.3066C43.3086 23.3066 43.1423 23.2952 42.9463 23.2725ZM42.6113 21.8164C42.7754 21.9759 42.9622 22.0944 43.1719 22.1719C43.3815 22.2493 43.6048 22.2881 43.8418 22.2881C44.0833 22.2881 44.3089 22.2539 44.5186 22.1855C44.7327 22.1172 44.9173 22.0169 45.0723 21.8848C45.4049 21.6022 45.5713 21.2012 45.5713 20.6816C45.5713 20.1074 45.4232 19.6289 45.127 19.2461C44.7897 18.8223 44.3158 18.6104 43.7051 18.6104C42.9349 18.6104 42.4359 18.9248 42.208 19.5537C42.1305 19.7679 42.0918 20.0322 42.0918 20.3467C42.0918 20.6611 42.1374 20.9437 42.2285 21.1943C42.3242 21.445 42.4518 21.6523 42.6113 21.8164ZM42.6182 25.6787C42.0212 26.0843 41.7227 26.5446 41.7227 27.0596C41.7227 27.5062 41.9824 27.8457 42.502 28.0781C42.9167 28.2695 43.4271 28.3652 44.0332 28.3652C44.5846 28.3652 45.0951 28.2741 45.5645 28.0918C46.1797 27.8503 46.4873 27.4561 46.4873 26.9092C46.4873 26.1755 45.8926 25.8086 44.7031 25.8086L44.0947 25.8154C43.4749 25.8154 42.9827 25.7699 42.6182 25.6787ZM55.374 16.3955C55.2191 16.3955 55.0755 16.3727 54.9434 16.3271C54.8158 16.277 54.7041 16.2064 54.6084 16.1152C54.4079 15.9238 54.3076 15.6663 54.3076 15.3428C54.3076 15.0329 54.4261 14.7708 54.6631 14.5566C54.891 14.3424 55.1644 14.2354 55.4834 14.2354C55.8024 14.2354 56.0576 14.3311 56.249 14.5225C56.4404 14.7139 56.5361 14.9736 56.5361 15.3018C56.5361 15.6117 56.4222 15.8737 56.1943 16.0879C55.971 16.293 55.6976 16.3955 55.374 16.3955ZM54.957 26C54.2552 26 53.9043 25.8405 53.9043 25.5215C53.9043 25.3574 53.9408 25.2298 54.0137 25.1387C54.123 25.1751 54.2233 25.1934 54.3145 25.1934C54.7383 25.1934 54.9456 24.9245 54.9365 24.3867V19.8066C54.9365 19.4876 54.891 19.2666 54.7998 19.1436C54.7132 19.016 54.556 18.9521 54.3281 18.9521C54.1595 18.9521 54.0068 18.9727 53.8701 19.0137C53.7881 19.0228 53.7288 18.959 53.6924 18.8223C53.6605 18.6992 53.6787 18.5921 53.7471 18.501C53.8154 18.4053 53.9202 18.3073 54.0615 18.207C54.2074 18.1022 54.3669 18.0111 54.54 17.9336C54.9137 17.7559 55.2259 17.667 55.4766 17.667C55.7272 17.667 55.9118 17.7035 56.0303 17.7764C56.1533 17.8493 56.2467 17.9473 56.3105 18.0703C56.4108 18.2708 56.4609 18.5944 56.4609 19.041V24.5029C56.4746 24.863 56.6045 25.0817 56.8506 25.1592C56.9189 25.182 57.0033 25.2025 57.1035 25.2207C57.2038 25.2389 57.2926 25.2617 57.3701 25.2891C57.4521 25.3118 57.516 25.3392 57.5615 25.3711C57.639 25.4303 57.6777 25.526 57.6777 25.6582C57.6777 25.8223 57.6436 25.9476 57.5752 26.0342C57.4795 26.0114 57.3337 26 57.1377 26H54.957ZM62.3672 26.0342C62.276 26.0114 62.1302 26 61.9297 26H59.749C59.3115 26 59.0312 25.9225 58.9082 25.7676C58.8581 25.7083 58.833 25.64 58.833 25.5625C58.833 25.3711 58.8695 25.2298 58.9424 25.1387C59.0518 25.1751 59.1748 25.1934 59.3115 25.1934C59.4528 25.1934 59.5576 25.1364 59.626 25.0225C59.6989 24.9085 59.7331 24.6966 59.7285 24.3867V19.916C59.7285 19.4876 59.6488 19.221 59.4893 19.1162C59.4255 19.0752 59.3411 19.0547 59.2363 19.0547C59.1315 19.0547 59.0472 19.0706 58.9834 19.1025C58.9242 19.1344 58.874 19.1572 58.833 19.1709C58.7965 19.1846 58.7646 19.1846 58.7373 19.1709C58.71 19.1527 58.6826 19.1276 58.6553 19.0957C58.5869 19.0228 58.5527 18.9476 58.5527 18.8701C58.5527 18.7881 58.5801 18.7038 58.6348 18.6172C58.694 18.526 58.7874 18.4235 58.915 18.3096C59.0426 18.1911 59.1885 18.084 59.3525 17.9883C59.7217 17.7741 60.0908 17.667 60.46 17.667C60.8838 17.667 61.1344 17.9473 61.2119 18.5078C61.2347 18.6719 61.2484 18.8405 61.2529 19.0137C61.932 18.444 62.6702 18.0384 63.4678 17.7969C63.7549 17.7103 64.0443 17.667 64.3359 17.667C64.6322 17.667 64.9124 17.7057 65.1768 17.7832C65.4456 17.8607 65.6781 17.986 65.874 18.1592C66.2887 18.5238 66.4961 19.0934 66.4961 19.8682V24.5029C66.5098 24.8584 66.6419 25.0771 66.8926 25.1592C66.9609 25.182 67.0452 25.2025 67.1455 25.2207C67.2458 25.2389 67.3346 25.2617 67.4121 25.2891C67.4941 25.3118 67.5579 25.3392 67.6035 25.3711C67.681 25.4303 67.7197 25.526 67.7197 25.6582C67.7197 25.8177 67.6833 25.943 67.6104 26.0342C67.5192 26.0114 67.3734 26 67.1729 26H64.9922C64.5547 26 64.2744 25.9225 64.1514 25.7676C64.1012 25.7083 64.0762 25.64 64.0762 25.5625C64.0762 25.3711 64.1126 25.2298 64.1855 25.1387C64.2949 25.1751 64.3952 25.1934 64.4863 25.1934C64.582 25.1934 64.6618 25.182 64.7256 25.1592C64.7894 25.1318 64.8395 25.0885 64.876 25.0293C64.9398 24.9199 64.9717 24.7057 64.9717 24.3867V20.3535C64.9717 19.5788 64.7415 19.1458 64.2812 19.0547C64.14 19.0273 63.9622 19.0137 63.748 19.0137C63.5384 19.0137 63.306 19.0456 63.0508 19.1094C62.7956 19.1732 62.5563 19.2552 62.333 19.3555C61.9046 19.5469 61.5446 19.7884 61.2529 20.0801V24.5029C61.2666 24.8584 61.3965 25.0771 61.6426 25.1592C61.7155 25.182 61.7998 25.2025 61.8955 25.2207C61.9958 25.2389 62.0869 25.2617 62.1689 25.2891C62.251 25.3118 62.3148 25.3392 62.3604 25.3711C62.4378 25.4303 62.4766 25.526 62.4766 25.6582C62.4766 25.8177 62.4401 25.943 62.3672 26.0342Z" fill="#333333"/>
</svg>
