<svg width="106" height="39" viewBox="0 0 106 39" fill="none" xmlns="http://www.w3.org/2000/svg">
<path d="M33.3226 20.9842C30.1801 20.9842 27.3689 19.4159 25.7976 16.7846C24.2263 14.156 24.2263 11.0167 25.7976 8.38812L30.38 0.717836L33.3484 2.37449L28.7659 10.0448C27.8146 11.6379 27.8146 13.5375 28.7659 15.1279C29.7173 16.7211 31.42 17.6709 33.3226 17.6709H42.4875V20.9842H33.3226Z" fill="#EDBAFF"/>
<path d="M12.1075 37.9373L9.13917 36.2807L13.7216 28.6104C14.673 27.0173 14.673 25.1176 13.7216 23.5272C12.7703 21.9369 11.0676 20.9843 9.16489 20.9843H0V17.671H9.16489C12.3075 17.671 15.1186 19.2393 16.6899 21.8706C18.2612 24.4991 18.2612 27.6385 16.6899 30.267L12.1075 37.9373Z" fill="#EDBAFF"/>
<path d="M21.2437 14.2444C18.1011 14.2444 15.29 12.6733 13.7187 10.0448L9.13623 2.37449L12.1045 0.717836L16.687 8.38812C17.6383 9.98127 19.341 10.9311 21.2437 10.9311C23.1464 10.9311 24.8491 9.98127 25.8004 8.38812L30.3829 0.717836L33.3512 2.37449L28.7687 10.0448C27.1975 12.6733 24.3863 14.2444 21.2437 14.2444Z" fill="#FAD100"/>
<path d="M30.3829 37.9372L25.8004 30.2669C24.8491 28.6737 23.1464 27.7239 21.2437 27.7239C19.341 27.7239 17.6383 28.6737 16.687 30.2669L12.1045 37.9372L9.13623 36.2805L13.7187 28.6102C15.29 25.9817 18.1011 24.4106 21.2437 24.4106C24.3863 24.4106 27.1975 25.9817 28.7687 28.6102L33.3512 36.2805L30.3829 37.9372Z" fill="#FAD100"/>
<path d="M9.16489 20.9842H0V17.6709H9.16489C11.0676 17.6709 12.7703 16.7211 13.7216 15.1279C14.673 13.5375 14.673 11.6352 13.7216 10.0448L9.13917 2.37449L12.1075 0.717836L16.6899 8.38812C18.2612 11.0167 18.2612 14.156 16.6899 16.7846C15.1186 19.4131 12.3075 20.9842 9.16489 20.9842Z" fill="#FC593D"/>
<path d="M30.38 37.9372L25.7976 30.2669C24.2263 27.6384 24.2263 24.499 25.7976 21.8705C27.3689 19.2419 30.1801 17.6708 33.3226 17.6708H42.4875V20.9841H33.3226C31.42 20.9841 29.7173 21.934 28.7659 23.5271C27.8146 25.1202 27.8146 27.0199 28.7659 28.6103L33.3484 36.2805L30.38 37.9372Z" fill="#FC593D"/>
<path d="M23.6436 2.31931C23.6436 3.60045 22.5694 4.63862 21.2438 4.63862C19.9182 4.63862 18.844 3.60045 18.844 2.31931C18.844 1.03817 19.9182 0 21.2438 0C22.5694 0 23.6436 1.03817 23.6436 2.31931Z" fill="#FAD100"/>
<path d="M18.844 36.3359C18.844 35.0548 19.9182 34.0166 21.2438 34.0166C22.5694 34.0166 23.6436 35.0548 23.6436 36.3359C23.6436 37.617 22.5694 38.6552 21.2438 38.6552C19.9182 38.6552 18.844 37.617 18.844 36.3359Z" fill="#FAD100"/>
<path d="M4.80257 25.8244C5.95104 25.1838 7.41662 25.5649 8.07942 26.6721C8.74221 27.782 8.34796 29.1985 7.20235 29.839C6.05389 30.4796 4.58545 30.0986 3.92265 28.9914C3.25985 27.8814 3.6541 26.465 4.79971 25.8244" fill="#EDBAFF"/>
<path d="M4.80257 12.8306C5.95104 13.4712 7.41662 13.0901 8.07942 11.983C8.74221 10.873 8.34796 9.45656 7.20235 8.81599C6.05389 8.17542 4.58545 8.55645 3.92265 9.66364C3.25985 10.7736 3.6541 12.19 4.79971 12.8306" fill="#FC593D"/>
<path d="M37.6851 12.8306C36.5366 13.4712 35.071 13.0901 34.4082 11.983C33.7454 10.873 34.1397 9.45656 35.2853 8.81599C36.4338 8.17542 37.9022 8.55645 38.565 9.66364C39.2278 10.7736 38.8336 12.19 37.6879 12.8306" fill="#EDBAFF"/>
<path d="M37.6851 25.8244C36.5366 25.1838 35.071 25.5649 34.4082 26.6721C33.7454 27.782 34.1397 29.1985 35.2853 29.839C36.4338 30.4796 37.9022 30.0986 38.565 28.9914C39.2278 27.8814 38.8336 26.465 37.6879 25.8244" fill="#FC593D"/>
<path d="M53.5409 11.3454C53.3152 11.0361 53.1152 10.8152 52.9324 10.6855C52.7524 10.5557 52.5581 10.4618 52.3496 10.4066C52.141 10.3514 51.9239 10.3238 51.6954 10.3238C51.3582 10.3238 51.0468 10.3956 50.7583 10.5419C50.4698 10.6882 50.2212 10.8843 50.0098 11.1355C49.7984 11.384 49.6327 11.6767 49.5127 12.008C49.3927 12.3394 49.3327 12.69 49.3327 13.0628C49.3327 13.4355 49.3927 13.7917 49.5098 14.123C49.627 14.4543 49.7927 14.7443 50.0012 14.9928C50.2098 15.2413 50.4583 15.4373 50.7469 15.5836C51.0354 15.73 51.3525 15.8018 51.6954 15.8018C51.9353 15.8018 52.161 15.7631 52.3696 15.6885C52.5781 15.614 52.7667 15.5146 52.9381 15.3904C53.1095 15.2661 53.2581 15.1253 53.3866 14.9624C53.5152 14.8022 53.6152 14.6338 53.6866 14.4599L55.6236 14.9817C55.4979 15.3627 55.3179 15.7134 55.0779 16.0364C54.8379 16.3595 54.5465 16.6411 54.2094 16.8758C53.8694 17.1133 53.4895 17.2983 53.0667 17.4336C52.6438 17.5688 52.1867 17.6379 51.6982 17.6379C51.284 17.6379 50.8897 17.5827 50.5126 17.475C50.1355 17.3673 49.7841 17.2127 49.4584 17.0166C49.1327 16.8178 48.8356 16.5804 48.5699 16.3015C48.3042 16.0226 48.0757 15.7134 47.8871 15.3738C47.6986 15.0342 47.5529 14.6697 47.4472 14.2804C47.3443 13.8911 47.29 13.4852 47.29 13.0628C47.29 12.4305 47.4043 11.8396 47.6329 11.2874C47.8614 10.7352 48.1728 10.252 48.5699 9.84058C48.967 9.42918 49.4327 9.10337 49.9669 8.86591C50.5012 8.62846 51.0783 8.50974 51.6954 8.50974C52.1896 8.50974 52.6038 8.56772 52.941 8.68644C53.2781 8.80517 53.6495 9.0371 54.0523 9.385H55.3979V11.3481H53.5409V11.3454Z" fill="black"/>
<path d="M62.2172 15.8818H63.1257L62.7172 14.6145H59.9146L59.506 15.8818H60.4688V17.475H57.012V15.8818H57.6919L60.1745 8.6671H62.5857L65.0141 15.8818H65.674V17.475H62.2172V15.8818ZM60.3888 13.129H62.2286L61.303 10.2658L60.3888 13.129Z" fill="black"/>
<path d="M72.8649 8.66714H76.3274V10.2658H75.5875V17.475H73.5905L69.7966 11.7816V15.8846H70.5594V17.4778H67.1025V15.8846H67.8539V10.2658H67.114V8.66714H69.868L73.6362 14.435V10.263H72.862V8.66438L72.8649 8.66714Z" fill="black"/>
<path d="M83.8981 11.3454C83.6724 11.0361 83.4724 10.8152 83.2896 10.6855C83.1096 10.5557 82.9153 10.4618 82.7068 10.4066C82.4982 10.3514 82.2811 10.3238 82.0525 10.3238C81.7154 10.3238 81.404 10.3956 81.1155 10.5419C80.8269 10.6882 80.5784 10.8843 80.367 11.1355C80.1556 11.384 79.9899 11.6767 79.8699 12.008C79.7499 12.3394 79.6899 12.69 79.6899 13.0628C79.6899 13.4355 79.7499 13.7917 79.867 14.123C79.9841 14.4543 80.1498 14.7443 80.3584 14.9928C80.567 15.2413 80.8155 15.4373 81.104 15.5836C81.3926 15.73 81.7097 15.8018 82.0525 15.8018C82.2925 15.8018 82.5182 15.7631 82.7268 15.6885C82.9353 15.614 83.1239 15.5146 83.2953 15.3904C83.4667 15.2661 83.6152 15.1253 83.7438 14.9624C83.8724 14.8022 83.9724 14.6338 84.0438 14.4599L85.9807 14.9817C85.855 15.3627 85.6751 15.7134 85.4351 16.0364C85.1951 16.3595 84.9037 16.6411 84.5666 16.8758C84.2266 17.1133 83.8467 17.2983 83.4238 17.4336C83.001 17.5688 82.5439 17.6379 82.0554 17.6379C81.6411 17.6379 81.2469 17.5827 80.8698 17.475C80.4927 17.3673 80.1413 17.2127 79.8156 17.0166C79.4899 16.8178 79.1928 16.5804 78.9271 16.3015C78.6614 16.0226 78.4329 15.7134 78.2443 15.3738C78.0558 15.0342 77.91 14.6697 77.8043 14.2804C77.7015 13.8911 77.6472 13.4852 77.6472 13.0628C77.6472 12.4305 77.7615 11.8396 77.99 11.2874C78.2186 10.7352 78.53 10.252 78.9271 9.84058C79.3242 9.42918 79.7899 9.10337 80.3241 8.86591C80.8584 8.62846 81.4354 8.50974 82.0525 8.50974C82.5468 8.50974 82.961 8.56772 83.2981 8.68644C83.6352 8.80517 84.0066 9.0371 84.4095 9.385H85.7551V11.3481H83.8981V11.3454Z" fill="black"/>
<path d="M87.8865 8.6671H95.1372V11.6712H93.1774V10.4231H90.8376V12.1599H92.646V13.8441H90.8376V15.8846H93.1774V14.3218H95.1372V17.4777H87.8865V15.8846H88.8435V10.4231H87.8865V8.66986V8.6671Z" fill="black"/>
<path d="M96.7969 8.6671H101.619C102.088 8.6671 102.508 8.73613 102.876 8.87142C103.245 9.00671 103.556 9.18894 103.808 9.41535C104.059 9.64176 104.253 9.90406 104.388 10.205C104.522 10.506 104.59 10.818 104.59 11.1438C104.59 11.442 104.556 11.7043 104.49 11.9279C104.425 12.1516 104.328 12.3531 104.202 12.5271C104.076 12.701 103.919 12.8557 103.736 12.9882C103.551 13.1207 103.342 13.2422 103.105 13.3527C103.311 13.4548 103.491 13.6067 103.645 13.8138C103.802 14.0208 103.919 14.2887 103.999 14.6172L104.305 15.7631H105.056L105.068 17.4777H102.422L102.062 15.3876C102.025 15.1391 101.971 14.9265 101.896 14.7442C101.822 14.5648 101.722 14.4184 101.599 14.3025C101.474 14.1893 101.325 14.1037 101.145 14.0484C100.968 13.9932 100.757 13.9684 100.511 13.9684H99.7366V15.8846H100.571V17.4777H96.7969V15.8846H97.7396V10.2658H96.7969V8.6671ZM99.7366 10.263V12.3946H100.934C101.162 12.3946 101.368 12.3752 101.551 12.3338C101.734 12.2924 101.891 12.2289 102.019 12.1433C102.151 12.0549 102.251 11.9473 102.319 11.8147C102.391 11.6822 102.425 11.5276 102.425 11.3453C102.425 11.0057 102.299 10.7379 102.045 10.5502C101.794 10.3596 101.422 10.2658 100.934 10.2658H99.7366V10.263Z" fill="black"/>
<path d="M47.7529 21.1692H51.1441C51.5612 21.1692 51.9583 21.2216 52.3354 21.3266C52.7125 21.4315 53.0639 21.5778 53.3867 21.7683C53.7124 21.9588 54.0067 22.1853 54.2695 22.4503C54.5323 22.7154 54.7609 23.0108 54.9466 23.3366C55.1323 23.6624 55.2751 24.0103 55.3751 24.3858C55.4751 24.7586 55.5265 25.1479 55.5265 25.551C55.5265 25.9541 55.4751 26.3545 55.3751 26.73C55.2751 27.1055 55.1323 27.4589 54.9466 27.7875C54.7609 28.1161 54.5352 28.417 54.2695 28.6848C54.0038 28.9554 53.7095 29.1846 53.3867 29.3751C53.061 29.5656 52.7125 29.7147 52.3354 29.8196C51.9583 29.9246 51.5612 29.977 51.1441 29.977H47.7529V28.9775H48.6186V22.1742H47.7529V21.1692ZM49.7956 22.1742V28.9775H51.2155C51.6354 28.9775 52.0325 28.8892 52.4039 28.7097C52.7753 28.533 53.0982 28.2872 53.3753 27.9808C53.6524 27.6715 53.8695 27.3098 54.0295 26.8929C54.1895 26.476 54.2695 26.0287 54.2695 25.5483C54.2695 25.0678 54.1895 24.6343 54.0295 24.2229C53.8695 23.8115 53.6495 23.4554 53.3753 23.1516C53.0982 22.8479 52.7753 22.6077 52.4039 22.4338C52.0325 22.2598 51.6383 22.1715 51.2155 22.1715H49.7956V22.1742Z" fill="black"/>
<path d="M62.8173 28.9775H63.5744L62.8545 26.9785H59.3491L58.6463 28.9775H59.5833V29.977H56.6265V28.9775H57.4207L60.2576 21.1692H62.0317L64.8629 28.9775H65.7771V29.977H62.8202V28.9775H62.8173ZM59.6919 26.0149H62.5059L61.0861 22.0748L59.6919 26.0149Z" fill="black"/>
<path d="M71.2536 30.151C70.6251 30.151 70.048 30.0378 69.528 29.8114C69.0081 29.585 68.5424 29.2619 68.1339 28.845C67.7254 28.4281 67.4139 27.9311 67.2025 27.3568C66.9911 26.7825 66.8826 26.1889 66.8826 25.5731C66.8826 24.9574 66.9911 24.3417 67.2054 23.784C67.4197 23.2262 67.7196 22.7403 68.1082 22.3289C68.4938 21.9175 68.9567 21.5917 69.4909 21.3542C70.0251 21.1167 70.6137 20.998 71.2565 20.998C71.8993 20.998 72.4935 21.1167 73.0306 21.3542C73.5677 21.5917 74.0276 21.9175 74.4133 22.3289C74.799 22.7403 75.0961 23.2262 75.3104 23.784C75.5218 24.3417 75.6304 24.9381 75.6304 25.5731C75.6304 26.2082 75.5218 26.8046 75.3075 27.3596C75.0933 27.9145 74.7933 28.4005 74.4047 28.8146C74.0191 29.2288 73.5563 29.5546 73.022 29.7948C72.4878 30.0323 71.8993 30.151 71.2565 30.151H71.2536ZM71.2536 29.0714C71.7307 29.0714 72.1621 28.9776 72.5478 28.787C72.9335 28.5965 73.2648 28.3425 73.5363 28.0222C73.8077 27.7019 74.0191 27.3319 74.1676 26.9095C74.3162 26.4871 74.3905 26.0425 74.3905 25.5731C74.3905 25.1038 74.3105 24.6288 74.1476 24.1816C73.9848 23.7343 73.7591 23.356 73.4677 23.0467C73.1763 22.7375 72.8392 22.4973 72.4535 22.3289C72.0678 22.1604 71.6678 22.0748 71.2507 22.0748C70.7736 22.0748 70.3423 22.1687 69.9537 22.3592C69.5652 22.5498 69.2338 22.8038 68.9624 23.1241C68.691 23.4443 68.4796 23.8143 68.331 24.2395C68.1824 24.6647 68.1082 25.1093 68.1082 25.5731C68.1082 26.1143 68.191 26.5975 68.3539 27.0227C68.5167 27.4479 68.7367 27.7986 69.0052 28.0802C69.2766 28.3618 69.5995 28.5965 69.9737 28.787C70.348 28.9776 70.7736 29.0714 71.2507 29.0714H71.2536Z" fill="black"/>
</svg>
