<svg width="431" height="50" viewBox="0 0 431 50" fill="none" xmlns="http://www.w3.org/2000/svg">
<path d="M4.68164 34.1758C3.32096 32.8151 2.25391 31.1751 1.48047 29.2559C0.721354 27.3223 0.341797 25.2812 0.341797 23.1328C0.341797 20.9701 0.556641 19.0651 0.986328 17.418C1.41602 15.7708 2.01042 14.2812 2.76953 12.9492C3.52865 11.6029 4.43099 10.4141 5.47656 9.38281C6.52214 8.35156 7.66081 7.48503 8.89258 6.7832C11.3848 5.36523 14.0846 4.65625 16.9922 4.65625C21.4036 4.65625 24.9987 6.0599 27.7773 8.86719C30.6849 11.7891 32.1387 15.6348 32.1387 20.4043C32.1387 23.9993 31.3294 27.2292 29.7109 30.0938C28.2357 32.7005 26.2018 34.7487 23.6094 36.2383C21.1172 37.6849 18.6035 38.4082 16.0684 38.4082C13.5475 38.4082 11.3561 38.043 9.49414 37.3125C7.64648 36.5677 6.04232 35.5221 4.68164 34.1758ZM8.29102 11.7031C7.44596 12.8919 6.82292 14.3314 6.42188 16.0215C6.02083 17.7116 5.82031 19.5306 5.82031 21.4785C5.82031 23.4121 6.00651 25.1882 6.37891 26.8066C6.7513 28.4108 7.3457 29.8216 8.16211 31.0391C9.93815 33.6888 12.5736 35.0137 16.0684 35.0137C19.5918 35.0137 22.263 33.8607 24.082 31.5547C25.8294 29.306 26.7031 26.1048 26.7031 21.9512C26.7031 15.5775 24.8125 11.3021 21.0312 9.125C19.6849 8.36589 18.0879 7.98633 16.2402 7.98633C14.3926 7.98633 12.8171 8.30859 11.5137 8.95312C10.2103 9.59766 9.13607 10.5143 8.29102 11.7031ZM38.627 18.8789C38.627 18.0625 38.5625 17.4108 38.4336 16.9238C38.319 16.4225 38.0755 16.1719 37.7031 16.1719C37.431 16.1719 37.2161 16.2005 37.0586 16.2578L36.543 16.4727C36.4427 16.5013 36.321 16.444 36.1777 16.3008C35.9056 16 35.7695 15.7279 35.7695 15.4844C35.7695 15.2266 35.8483 14.9616 36.0059 14.6895C36.1777 14.403 36.4284 14.0807 36.7578 13.7227C37.1016 13.3646 37.4883 13.0495 37.918 12.7773C38.8919 12.1328 39.7728 11.8105 40.5605 11.8105C41.3483 11.8105 41.9069 11.9466 42.2363 12.2188C42.5658 12.4909 42.8164 12.849 42.9883 13.293C43.2747 14.0091 43.418 15.0905 43.418 16.5371V29.9863C43.418 32.4069 44.1484 33.7604 45.6094 34.0469C46.0534 34.1328 46.5762 34.1758 47.1777 34.1758C47.7936 34.1758 48.4453 34.097 49.1328 33.9395C49.8346 33.7819 50.5007 33.5742 51.1309 33.3164C52.3483 32.8151 53.4225 32.1777 54.3535 31.4043V18.8789C54.3535 17.5182 54.11 16.6803 53.623 16.3652C53.4225 16.2363 53.1576 16.1719 52.8281 16.1719C52.4987 16.1719 52.2337 16.222 52.0332 16.3223C51.847 16.4225 51.6895 16.4941 51.5605 16.5371C51.446 16.5801 51.3457 16.5801 51.2598 16.5371C51.1738 16.4798 51.0807 16.401 50.9805 16.3008C50.7656 16.0573 50.6582 15.8138 50.6582 15.5703C50.6582 15.3268 50.7441 15.069 50.916 14.7969C51.1022 14.5104 51.3958 14.1882 51.7969 13.8301C52.1979 13.4577 52.6562 13.1211 53.1719 12.8203C54.332 12.1471 55.4922 11.8105 56.6523 11.8105C58.056 11.8105 58.8581 12.806 59.0586 14.7969C59.1159 15.3555 59.1445 15.9355 59.1445 16.5371V29.2559C59.1445 31.4616 59.2305 32.8366 59.4023 33.3809C59.5742 33.9251 59.7819 34.2832 60.0254 34.4551C60.2689 34.6126 60.5697 34.6914 60.9277 34.6914C61.2858 34.6914 61.5794 34.6341 61.8086 34.5195L62.4531 34.2402C62.6393 34.1973 62.804 34.2832 62.9473 34.498C63.248 34.9421 63.291 35.3431 63.0762 35.7012C62.8613 36.0592 62.5247 36.403 62.0664 36.7324C61.6224 37.0618 61.1211 37.3483 60.5625 37.5918C58.0846 38.6803 56.3229 38.6589 55.2773 37.5273C54.7331 36.9401 54.4251 36.0091 54.3535 34.7344C52.248 36.3529 50.0924 37.4701 47.8867 38.0859C47.0846 38.3008 46.2396 38.4082 45.3516 38.4082C44.4779 38.4082 43.6185 38.2865 42.7734 38.043C41.9427 37.7995 41.2194 37.4056 40.6035 36.8613C39.2858 35.7012 38.627 33.9108 38.627 31.4902V18.8789ZM78.1152 38.1074C77.8145 38.0358 77.3561 38 76.7402 38H69.457C68.082 38 67.2012 37.7565 66.8145 37.2695C66.6569 37.0833 66.5781 36.8685 66.5781 36.625C66.5781 36.0234 66.6927 35.5794 66.9219 35.293C67.2656 35.4076 67.5807 35.4648 67.8672 35.4648C68.168 35.4648 68.4186 35.429 68.6191 35.3574C68.8197 35.2715 68.9772 35.1354 69.0918 34.9492C69.2923 34.6055 69.3926 33.9323 69.3926 32.9297V18.8789C69.3926 17.5326 69.1419 16.6947 68.6406 16.3652C68.4401 16.2363 68.1751 16.1719 67.8457 16.1719C67.5163 16.1719 67.2513 16.222 67.0508 16.3223C66.8646 16.4225 66.707 16.4941 66.5781 16.5371C66.4635 16.5801 66.3633 16.5801 66.2773 16.5371C66.1914 16.4798 66.1055 16.401 66.0195 16.3008C65.8047 16.043 65.6973 15.7995 65.6973 15.5703C65.6973 15.3268 65.7832 15.069 65.9551 14.7969C66.1413 14.5104 66.4349 14.1882 66.8359 13.8301C67.237 13.4577 67.6953 13.1211 68.2109 12.8203C69.3711 12.1471 70.5312 11.8105 71.6914 11.8105C73.0091 11.8105 73.7897 12.6699 74.0332 14.3887C74.1048 14.89 74.1478 15.4128 74.1621 15.957C76.2533 14.1094 78.4089 12.8418 80.6289 12.1543C81.3737 11.9251 82.0469 11.8105 82.6484 11.8105C83.2643 11.8105 83.7656 11.8965 84.1523 12.0684C84.5534 12.2402 84.8685 12.4766 85.0977 12.7773C85.5273 13.3646 85.7422 14.1165 85.7422 15.0332C85.7422 15.9499 85.6992 16.6803 85.6133 17.2246C85.5273 17.7689 85.4199 18.2487 85.291 18.6641C85.0332 19.5091 84.7897 20.0462 84.5605 20.2754C84.1595 20.6908 83.6224 20.8984 82.9492 20.8984C82.2617 20.8984 81.918 20.6979 81.918 20.2969C81.918 18.7643 81.8535 17.7832 81.7246 17.3535C81.4811 16.5658 81.0228 16.1719 80.3496 16.1719C79.6764 16.1719 79.0677 16.2507 78.5234 16.4082C77.9792 16.5514 77.4492 16.752 76.9336 17.0098C75.888 17.5254 74.9714 18.1914 74.1836 19.0078V33.2949C74.2266 34.4264 74.7207 35.1139 75.666 35.3574C75.9382 35.429 76.2461 35.4935 76.5898 35.5508C76.9336 35.6081 77.2272 35.6797 77.4707 35.7656C77.7285 35.8372 77.929 35.9232 78.0723 36.0234C78.3158 36.2096 78.4375 36.5104 78.4375 36.9258C78.4375 37.4414 78.3301 37.8353 78.1152 38.1074ZM135.672 22.3594C135.844 22.8464 135.93 23.2689 135.93 23.627C135.93 23.985 135.872 24.2357 135.758 24.3789C135.658 24.5221 135.521 24.6296 135.35 24.7012C135.178 24.7728 134.977 24.8301 134.748 24.873C134.519 24.916 134.24 25.0306 133.91 25.2168C133.28 25.5749 132.965 26.5202 132.965 28.0527V33.0586C132.779 33.4453 132.385 33.9466 131.783 34.5625C131.182 35.1784 130.365 35.7728 129.334 36.3457C126.813 37.7493 124.042 38.4512 121.02 38.4512C118.012 38.4512 115.52 38.0573 113.543 37.2695C111.566 36.4818 109.912 35.3861 108.58 33.9824C105.902 31.1608 104.562 27.401 104.562 22.7031C104.562 19.8099 105.021 17.2389 105.938 14.9902C106.868 12.7415 108.122 10.8581 109.697 9.33984C112.92 6.21745 116.959 4.65625 121.814 4.65625C125.696 4.65625 128.596 5.35807 130.516 6.76172C132.034 7.87891 132.793 9.28971 132.793 10.9941C132.793 12.054 132.485 12.9062 131.869 13.5508C131.282 14.1667 130.516 14.4746 129.57 14.4746C128.74 14.4746 128.152 14.3672 127.809 14.1523C127.88 13.694 127.916 13.1283 127.916 12.4551C127.916 11.7819 127.766 11.1302 127.465 10.5C127.178 9.85547 126.749 9.34701 126.176 8.97461C125.188 8.31576 123.698 7.98633 121.707 7.98633C119.716 7.98633 118.012 8.24414 116.594 8.75977C115.19 9.27539 114.001 10.0703 113.027 11.1445C111.008 13.3503 109.998 16.6016 109.998 20.8984C109.998 30.3372 114.023 35.0566 122.072 35.0566C123.977 35.0566 125.617 34.763 126.992 34.1758C127.436 33.9896 127.78 33.7819 128.023 33.5527L128.002 27.4082C128.002 26.377 127.329 25.668 125.982 25.2812C125.653 25.1953 125.316 25.1165 124.973 25.0449C124.629 24.9733 124.285 24.9017 123.941 24.8301C123.612 24.7441 123.333 24.6367 123.104 24.5078C122.645 24.2786 122.416 23.8991 122.416 23.3691C122.416 22.8249 122.523 22.431 122.738 22.1875C123.068 22.3021 123.777 22.3594 124.865 22.3594H135.672ZM143.385 38C141.193 38 140.098 37.4987 140.098 36.4961C140.098 35.9661 140.205 35.5651 140.42 35.293C140.764 35.4076 141.086 35.4648 141.387 35.4648C142.633 35.4648 143.277 34.7129 143.32 33.209V6.31055C143.32 5.30794 143.22 4.67057 143.02 4.39844C142.69 3.9401 142.16 3.71094 141.43 3.71094C141.1 3.71094 140.778 3.74674 140.463 3.81836C140.162 3.87565 139.947 3.87565 139.818 3.81836C139.704 3.74674 139.611 3.65365 139.539 3.53906C139.253 3.06641 139.611 2.46484 140.613 1.73438C142.189 0.574219 143.743 -0.00585938 145.275 -0.00585938C146.908 -0.00585938 147.825 0.875 148.025 2.63672C148.083 3.16667 148.111 3.72526 148.111 4.3125V33.2949C148.154 34.4121 148.562 35.0996 149.336 35.3574C149.565 35.429 149.83 35.4935 150.131 35.5508C150.446 35.6081 150.732 35.6797 150.99 35.7656C151.248 35.8372 151.449 35.9232 151.592 36.0234C151.835 36.2096 151.957 36.5104 151.957 36.9258C151.957 37.4271 151.842 37.821 151.613 38.1074C151.327 38.0358 150.868 38 150.238 38H143.385ZM154.814 26.1406C154.814 24.3932 154.986 22.8249 155.33 21.4355C155.674 20.0462 156.146 18.8216 156.748 17.7617C157.35 16.7018 158.059 15.7995 158.875 15.0547C159.691 14.2956 160.565 13.6797 161.496 13.207C163.315 12.276 165.313 11.8105 167.49 11.8105C170.283 11.8105 172.654 12.8275 174.602 14.8613C176.764 17.0957 177.846 20.0462 177.846 23.7129C177.846 28.5254 176.535 32.2708 173.914 34.9492C171.637 37.2552 168.908 38.4082 165.729 38.4082C162.406 38.4082 159.742 37.2409 157.736 34.9062C155.788 32.6576 154.814 29.7357 154.814 26.1406ZM166.996 34.9062C167.956 34.9062 168.815 34.6842 169.574 34.2402C170.333 33.7819 170.978 33.1589 171.508 32.3711C172.568 30.7383 173.098 28.6185 173.098 26.0117C173.098 23.1471 172.539 20.7122 171.422 18.707C170.161 16.401 168.35 15.248 165.986 15.248C164.081 15.248 162.556 15.9785 161.41 17.4395C160.193 18.9863 159.584 21.1491 159.584 23.9277C159.584 27.4082 160.35 30.1582 161.883 32.1777C163.258 33.9967 164.962 34.9062 166.996 34.9062ZM189.34 14.8184C191.488 12.8132 193.887 11.8105 196.537 11.8105C199.459 11.8105 201.837 12.8203 203.67 14.8398C205.675 17.0169 206.678 20.0534 206.678 23.9492C206.678 28.332 205.303 31.8841 202.553 34.6055C199.96 37.1406 196.895 38.4082 193.357 38.4082C191.051 38.4082 188.753 37.8854 186.461 36.8398C185.716 36.5104 185.079 36.1309 184.549 35.7012V6.31055C184.549 5.32227 184.449 4.6849 184.248 4.39844C183.947 3.9401 183.417 3.71094 182.658 3.71094C182.314 3.71094 181.992 3.74674 181.691 3.81836C181.391 3.87565 181.183 3.87565 181.068 3.81836C180.954 3.74674 180.854 3.65365 180.768 3.53906C180.467 3.08073 180.825 2.47917 181.842 1.73438C183.417 0.574219 184.971 -0.00585938 186.504 -0.00585938C188.137 -0.00585938 189.053 0.875 189.254 2.63672C189.311 3.16667 189.34 3.72526 189.34 4.3125V14.8184ZM189.34 18.2344V33.2949C190.686 34.4121 192.298 34.9707 194.174 34.9707C196.394 34.9707 198.199 34.1471 199.588 32.5C201.063 30.7526 201.801 28.3535 201.801 25.3027C201.801 22.0944 201.149 19.681 199.846 18.0625C198.686 16.5872 197.06 15.8496 194.969 15.8496C192.892 15.8496 191.016 16.6445 189.34 18.2344ZM226.014 35.2715C223.923 37.3626 221.395 38.4082 218.43 38.4082C216.138 38.4082 214.305 37.7493 212.93 36.4316C211.54 35.0996 210.846 33.3737 210.846 31.2539C210.846 28.6185 212.02 26.6419 214.369 25.3242C216.489 24.1211 219.475 23.5195 223.328 23.5195H226.014C226.028 22.9753 226.035 22.4453 226.035 21.9297V20.3184C226.035 18.3991 225.756 17.0456 225.197 16.2578C224.567 15.3698 223.493 14.9258 221.975 14.9258C218.494 14.9258 216.704 16.1719 216.604 18.6641C216.589 19.0508 216.596 19.373 216.625 19.6309C216.339 19.86 215.852 19.9746 215.164 19.9746C214.491 19.9746 213.997 19.8958 213.682 19.7383C213.381 19.5807 213.116 19.3659 212.887 19.0938C212.4 18.5352 212.156 17.8262 212.156 16.9668C212.156 16.0931 212.407 15.334 212.908 14.6895C213.424 14.0306 214.118 13.4935 214.992 13.0781C216.697 12.2331 218.709 11.8105 221.029 11.8105C223.35 11.8105 225.09 12.0397 226.25 12.498C227.424 12.9421 228.355 13.5365 229.043 14.2812C230.26 15.599 230.869 17.3678 230.869 19.5879L230.654 29.9004C230.654 31.7767 230.74 32.9655 230.912 33.4668C231.098 33.9681 231.313 34.3047 231.557 34.4766C231.814 34.6484 232.122 34.7344 232.48 34.7344C232.853 34.7344 233.154 34.6771 233.383 34.5625L233.984 34.2832C234.185 34.2116 234.357 34.2975 234.5 34.541C234.658 34.7702 234.736 34.9779 234.736 35.1641C234.736 35.3359 234.658 35.5651 234.5 35.8516C234.357 36.138 234.077 36.446 233.662 36.7754C233.261 37.0905 232.803 37.3698 232.287 37.6133C229.437 38.9596 227.496 38.6445 226.465 36.668C226.25 36.2812 226.1 35.8158 226.014 35.2715ZM225.949 32.457C225.949 30.3945 225.964 28.3464 225.992 26.3125C223.013 26.4271 220.986 26.6204 219.912 26.8926C218.852 27.1504 218.086 27.401 217.613 27.6445C217.141 27.888 216.768 28.1745 216.496 28.5039C216.052 29.0482 215.83 29.8717 215.83 30.9746C215.83 32.0632 216.217 32.9368 216.99 33.5957C217.764 34.2402 218.874 34.5625 220.32 34.5625C222.368 34.5625 224.245 33.8607 225.949 32.457ZM241.396 38C239.205 38 238.109 37.4987 238.109 36.4961C238.109 35.9661 238.217 35.5651 238.432 35.293C238.775 35.4076 239.098 35.4648 239.398 35.4648C240.645 35.4648 241.289 34.7129 241.332 33.209V6.31055C241.332 5.30794 241.232 4.67057 241.031 4.39844C240.702 3.9401 240.172 3.71094 239.441 3.71094C239.112 3.71094 238.79 3.74674 238.475 3.81836C238.174 3.87565 237.959 3.87565 237.83 3.81836C237.715 3.74674 237.622 3.65365 237.551 3.53906C237.264 3.06641 237.622 2.46484 238.625 1.73438C240.201 0.574219 241.755 -0.00585938 243.287 -0.00585938C244.92 -0.00585938 245.837 0.875 246.037 2.63672C246.094 3.16667 246.123 3.72526 246.123 4.3125V33.2949C246.166 34.4121 246.574 35.0996 247.348 35.3574C247.577 35.429 247.842 35.4935 248.143 35.5508C248.458 35.6081 248.744 35.6797 249.002 35.7656C249.26 35.8372 249.46 35.9232 249.604 36.0234C249.847 36.2096 249.969 36.5104 249.969 36.9258C249.969 37.4271 249.854 37.821 249.625 38.1074C249.339 38.0358 248.88 38 248.25 38H241.396ZM281.916 38.1719C281.587 38.0573 280.878 38 279.789 38H270.83C270.085 38 269.491 37.8854 269.047 37.6562C268.603 37.4128 268.381 36.9759 268.381 36.3457C268.381 35.8874 268.488 35.5221 268.703 35.25C269.276 35.3932 269.799 35.4648 270.271 35.4648C270.758 35.4648 271.138 35.4147 271.41 35.3145C271.697 35.2142 271.94 35.0352 272.141 34.7773C272.585 34.2331 272.821 33.3379 272.85 32.0918V10.1348C272.85 9.00326 272.535 8.29427 271.904 8.00781C271.704 7.90755 271.432 7.82161 271.088 7.75C270.744 7.67839 270.4 7.60677 270.057 7.53516C269.727 7.44922 269.448 7.34896 269.219 7.23438C268.76 7.00521 268.531 6.61849 268.531 6.07422C268.531 5.54427 268.639 5.15039 268.854 4.89258C269.183 5.00716 269.892 5.06445 270.98 5.06445H279.725C280.469 5.06445 281.064 5.1862 281.508 5.42969C281.966 5.65885 282.195 6.08854 282.195 6.71875C282.195 7.19141 282.081 7.55664 281.852 7.81445C281.307 7.67122 280.713 7.59961 280.068 7.59961C278.679 7.59961 277.963 8.73112 277.92 10.9941V32.9297C277.92 34.0612 278.235 34.7773 278.865 35.0781C279.066 35.1641 279.338 35.2428 279.682 35.3145C280.025 35.3861 280.362 35.4648 280.691 35.5508C281.035 35.6224 281.322 35.7155 281.551 35.8301C282.023 36.0736 282.26 36.4603 282.26 36.9902C282.26 37.4915 282.145 37.8854 281.916 38.1719ZM298.48 38.1074C298.194 38.0358 297.736 38 297.105 38H290.252C288.877 38 287.996 37.7565 287.609 37.2695C287.452 37.0833 287.373 36.8685 287.373 36.625C287.373 36.0234 287.488 35.5794 287.717 35.293C288.061 35.4076 288.447 35.4648 288.877 35.4648C289.321 35.4648 289.65 35.2858 289.865 34.9277C290.094 34.5697 290.202 33.9036 290.188 32.9297V18.8789C290.188 17.5326 289.937 16.6947 289.436 16.3652C289.235 16.2363 288.97 16.1719 288.641 16.1719C288.311 16.1719 288.046 16.222 287.846 16.3223C287.66 16.4225 287.502 16.4941 287.373 16.5371C287.258 16.5801 287.158 16.5801 287.072 16.5371C286.986 16.4798 286.9 16.401 286.814 16.3008C286.6 16.0716 286.492 15.8353 286.492 15.5918C286.492 15.334 286.578 15.069 286.75 14.7969C286.936 14.5104 287.23 14.1882 287.631 13.8301C288.032 13.4577 288.49 13.1211 289.006 12.8203C290.166 12.1471 291.326 11.8105 292.486 11.8105C293.761 11.8105 294.527 12.6198 294.785 14.2383C294.871 14.7253 294.928 15.2266 294.957 15.7422C297.105 14.0378 299.354 12.849 301.703 12.1758C302.562 11.9323 303.393 11.8105 304.195 11.8105C307.604 11.8105 309.76 13.1569 310.662 15.8496C312.896 14.0736 315.167 12.849 317.473 12.1758C318.346 11.9323 319.234 11.8105 320.137 11.8105C321.039 11.8105 321.906 11.9323 322.736 12.1758C323.581 12.4193 324.305 12.8132 324.906 13.3574C326.224 14.5319 326.883 16.3223 326.883 18.7285V33.1445C326.883 34.319 327.284 35.0495 328.086 35.3359C328.315 35.4219 328.587 35.4935 328.902 35.5508C329.217 35.6081 329.504 35.6797 329.762 35.7656C330.02 35.8372 330.22 35.9232 330.363 36.0234C330.607 36.2096 330.729 36.5104 330.729 36.9258C330.729 37.4271 330.614 37.821 330.385 38.1074C330.098 38.0358 329.64 38 329.01 38H322.156C320.781 38 319.9 37.7565 319.514 37.2695C319.356 37.0833 319.277 36.8685 319.277 36.625C319.277 36.0234 319.392 35.5794 319.621 35.293C319.965 35.4076 320.344 35.4648 320.76 35.4648C321.175 35.4648 321.49 35.3288 321.705 35.0566C321.934 34.7702 322.063 34.2474 322.092 33.4883V20.2539C322.092 17.819 321.368 16.4583 319.922 16.1719C319.478 16.0859 318.948 16.043 318.332 16.043C317.73 16.043 317.072 16.1217 316.355 16.2793C315.654 16.4225 314.98 16.623 314.336 16.8809C313.09 17.3822 312.001 18.0195 311.07 18.793V33.1445C311.07 34.3333 311.471 35.0638 312.273 35.3359C312.503 35.4219 312.775 35.4935 313.09 35.5508C313.405 35.6081 313.684 35.6797 313.928 35.7656C314.186 35.8372 314.386 35.9232 314.529 36.0234C314.773 36.2096 314.895 36.5104 314.895 36.9258C314.895 37.4414 314.787 37.8353 314.572 38.1074C314.286 38.0358 313.827 38 313.197 38H306.344C304.969 38 304.088 37.7565 303.701 37.2695C303.544 37.0833 303.465 36.8685 303.465 36.625C303.465 36.0091 303.572 35.5651 303.787 35.293C304.145 35.4076 304.532 35.4648 304.947 35.4648C305.363 35.4648 305.678 35.3145 305.893 35.0137C306.122 34.7129 306.251 34.1615 306.279 33.3594V20.2539C306.279 17.819 305.556 16.4583 304.109 16.1719C303.665 16.0859 303.128 16.043 302.498 16.043C301.868 16.043 301.18 16.1289 300.436 16.3008C299.691 16.4727 298.982 16.7018 298.309 16.9883C297.02 17.5182 295.91 18.1914 294.979 19.0078V33.1445C294.979 34.319 295.387 35.0495 296.203 35.3359C296.418 35.4219 296.683 35.4935 296.998 35.5508C297.313 35.6081 297.6 35.6797 297.857 35.7656C298.115 35.8372 298.316 35.9232 298.459 36.0234C298.702 36.2096 298.824 36.5104 298.824 36.9258C298.824 37.4271 298.71 37.821 298.48 38.1074ZM344.973 46.0352C345.159 46.2786 345.252 46.5866 345.252 46.959C345.252 47.3314 345.087 47.6465 344.758 47.9043C344.428 48.1764 344.027 48.3984 343.555 48.5703C342.652 48.8854 341.786 49.043 340.955 49.043C340.124 49.043 339.437 48.9857 338.893 48.8711C338.348 48.7565 337.897 48.556 337.539 48.2695C336.852 47.6966 336.508 46.7298 336.508 45.3691V18.8789C336.508 17.5326 336.257 16.6947 335.756 16.3652C335.555 16.2363 335.29 16.1719 334.961 16.1719C334.632 16.1719 334.367 16.222 334.166 16.3223C333.98 16.4225 333.822 16.4941 333.693 16.5371C333.579 16.5801 333.479 16.5801 333.393 16.5371C333.307 16.4798 333.221 16.401 333.135 16.3008C332.92 16.043 332.812 15.7995 332.812 15.5703C332.812 15.3268 332.898 15.069 333.07 14.7969C333.257 14.5104 333.55 14.1882 333.951 13.8301C334.352 13.4577 334.811 13.1211 335.326 12.8203C336.486 12.1471 337.646 11.8105 338.807 11.8105C340.21 11.8105 341.02 12.8633 341.234 14.9688C343.483 12.8633 345.932 11.8105 348.582 11.8105C351.504 11.8105 353.896 12.8203 355.758 14.8398C357.777 17.0169 358.787 20.0534 358.787 23.9492C358.787 26.8568 358.128 29.4564 356.811 31.748C355.607 33.8392 353.953 35.4792 351.848 36.668C349.828 37.8281 347.68 38.4082 345.402 38.4082C344.128 38.4082 342.76 38.2077 341.299 37.8066V40.793C341.299 43.1133 341.428 44.5384 341.686 45.0684C341.958 45.6126 342.23 45.9349 342.502 46.0352C342.788 46.1354 343.111 46.1855 343.469 46.1855C343.841 46.1855 344.342 46.1354 344.973 46.0352ZM341.299 18.3203V33.2305C342.66 34.3906 344.299 34.9707 346.219 34.9707C348.453 34.9707 350.272 34.1471 351.676 32.5C353.165 30.7383 353.91 28.3392 353.91 25.3027C353.91 22.1087 353.251 19.6953 351.934 18.0625C350.759 16.5872 349.126 15.8496 347.035 15.8496C344.944 15.8496 343.032 16.6732 341.299 18.3203ZM378.596 35.2715C376.505 37.3626 373.977 38.4082 371.012 38.4082C368.72 38.4082 366.887 37.7493 365.512 36.4316C364.122 35.0996 363.428 33.3737 363.428 31.2539C363.428 28.6185 364.602 26.6419 366.951 25.3242C369.071 24.1211 372.057 23.5195 375.91 23.5195H378.596C378.61 22.9753 378.617 22.4453 378.617 21.9297V20.3184C378.617 18.3991 378.338 17.0456 377.779 16.2578C377.149 15.3698 376.075 14.9258 374.557 14.9258C371.076 14.9258 369.286 16.1719 369.186 18.6641C369.171 19.0508 369.178 19.373 369.207 19.6309C368.921 19.86 368.434 19.9746 367.746 19.9746C367.073 19.9746 366.579 19.8958 366.264 19.7383C365.963 19.5807 365.698 19.3659 365.469 19.0938C364.982 18.5352 364.738 17.8262 364.738 16.9668C364.738 16.0931 364.989 15.334 365.49 14.6895C366.006 14.0306 366.701 13.4935 367.574 13.0781C369.279 12.2331 371.291 11.8105 373.611 11.8105C375.932 11.8105 377.672 12.0397 378.832 12.498C380.007 12.9421 380.938 13.5365 381.625 14.2812C382.842 15.599 383.451 17.3678 383.451 19.5879L383.236 29.9004C383.236 31.7767 383.322 32.9655 383.494 33.4668C383.68 33.9681 383.895 34.3047 384.139 34.4766C384.396 34.6484 384.704 34.7344 385.062 34.7344C385.435 34.7344 385.736 34.6771 385.965 34.5625L386.566 34.2832C386.767 34.2116 386.939 34.2975 387.082 34.541C387.24 34.7702 387.318 34.9779 387.318 35.1641C387.318 35.3359 387.24 35.5651 387.082 35.8516C386.939 36.138 386.66 36.446 386.244 36.7754C385.843 37.0905 385.385 37.3698 384.869 37.6133C382.019 38.9596 380.078 38.6445 379.047 36.668C378.832 36.2812 378.682 35.8158 378.596 35.2715ZM378.531 32.457C378.531 30.3945 378.546 28.3464 378.574 26.3125C375.595 26.4271 373.568 26.6204 372.494 26.8926C371.434 27.1504 370.668 27.401 370.195 27.6445C369.723 27.888 369.35 28.1745 369.078 28.5039C368.634 29.0482 368.412 29.8717 368.412 30.9746C368.412 32.0632 368.799 32.9368 369.572 33.5957C370.346 34.2402 371.456 34.5625 372.902 34.5625C374.951 34.5625 376.827 33.8607 378.531 32.457ZM405.645 19.6523L405.666 18.8789C405.666 18.6068 405.602 18.1484 405.473 17.5039C405.344 16.8451 404.928 16.3079 404.227 15.8926C403.539 15.4772 402.658 15.2695 401.584 15.2695C400.524 15.2695 399.579 15.5417 398.748 16.0859C397.932 16.6159 397.266 17.332 396.75 18.2344C395.776 19.9531 395.289 22.252 395.289 25.1309C395.289 27.8522 395.948 30.0651 397.266 31.7695C398.612 33.5169 400.388 34.3906 402.594 34.3906C404.599 34.3906 406.518 33.8392 408.352 32.7363C408.796 32.4642 409.139 32.2279 409.383 32.0273C409.526 32.0273 409.691 32.1419 409.877 32.3711C410.235 32.7865 410.414 33.123 410.414 33.3809C410.414 33.6243 410.314 33.9108 410.113 34.2402C409.913 34.5553 409.619 34.8991 409.232 35.2715C408.86 35.6296 408.409 35.9948 407.879 36.3672C407.349 36.7396 406.755 37.0762 406.096 37.377C404.592 38.0645 403.052 38.4082 401.477 38.4082C399.901 38.4082 398.426 38.1432 397.051 37.6133C395.69 37.069 394.516 36.2741 393.527 35.2285C391.408 33.0085 390.348 29.9577 390.348 26.0762C390.348 21.6647 391.694 18.1198 394.387 15.4414C396.836 13.0208 399.665 11.8105 402.873 11.8105C404.979 11.8105 406.733 12.2617 408.137 13.1641C409.612 14.1094 410.35 15.3555 410.35 16.9023C410.35 17.7474 410.163 18.3848 409.791 18.8145C409.146 19.5736 408.395 19.9531 407.535 19.9531C406.69 19.9531 406.06 19.8529 405.645 19.6523ZM421.973 23.3477L421.951 28.998C421.951 31.3613 422.073 32.7865 422.316 33.2734C422.56 33.7461 422.846 34.0326 423.176 34.1328C423.505 34.2188 423.928 34.2617 424.443 34.2617C424.959 34.2617 425.424 34.2259 425.84 34.1543C426.27 34.0684 426.671 33.9609 427.043 33.832C427.415 33.7031 427.773 33.5599 428.117 33.4023L429.17 32.9512C429.413 32.8652 429.686 33.1159 429.986 33.7031C430.072 33.8607 430.115 34.0469 430.115 34.2617C430.115 34.4622 430.029 34.7272 429.857 35.0566C429.686 35.3861 429.349 35.7656 428.848 36.1953C428.361 36.6107 427.788 36.9831 427.129 37.3125C425.697 38.043 424.408 38.4082 423.262 38.4082C422.13 38.4082 421.206 38.3438 420.49 38.2148C419.774 38.0859 419.165 37.8281 418.664 37.4414C417.633 36.6393 417.117 35.1712 417.117 33.0371V16.1289H414.99C414.546 16.1289 414.224 15.9857 414.023 15.6992C413.68 15.2552 413.508 14.8828 413.508 14.582C413.508 14.0807 413.63 13.8014 413.873 13.7441C416.15 13.3574 417.762 11.6673 418.707 8.67383C418.979 7.77148 419.194 6.70443 419.352 5.47266C420.039 5.35807 420.555 5.30078 420.898 5.30078C421.257 5.30078 421.564 5.47982 421.822 5.83789C422.08 6.19596 422.202 6.61133 422.188 7.08398C422.188 7.55664 422.18 8.00065 422.166 8.41602C422.152 8.83138 422.137 9.28255 422.123 9.76953L422.037 12.7773H429.471C429.657 13.1068 429.75 13.4577 429.75 13.8301V14.4961C429.75 15.0977 429.428 15.5918 428.783 15.9785C428.139 16.3509 427.423 16.5371 426.635 16.5371C425.861 16.5371 425.303 16.5299 424.959 16.5156C424.63 16.487 424.307 16.4583 423.992 16.4297L423.047 16.3008C422.717 16.2721 422.367 16.2435 421.994 16.2148V16.4512L421.973 23.3477Z" fill="#333333"/>
</svg>
