<svg width="234" height="36" viewBox="0 0 234 36" fill="none" xmlns="http://www.w3.org/2000/svg">
<path d="M4.68164 30.1758C3.32096 28.8151 2.25391 27.1751 1.48047 25.2559C0.721354 23.3223 0.341797 21.2812 0.341797 19.1328C0.341797 16.9701 0.556641 15.0651 0.986328 13.418C1.41602 11.7708 2.01042 10.2812 2.76953 8.94922C3.52865 7.60286 4.43099 6.41406 5.47656 5.38281C6.52214 4.35156 7.66081 3.48503 8.89258 2.7832C11.3848 1.36523 14.0846 0.65625 16.9922 0.65625C21.4036 0.65625 24.9987 2.0599 27.7773 4.86719C30.6849 7.78906 32.1387 11.6348 32.1387 16.4043C32.1387 19.9993 31.3294 23.2292 29.7109 26.0938C28.2357 28.7005 26.2018 30.7487 23.6094 32.2383C21.1172 33.6849 18.6035 34.4082 16.0684 34.4082C13.5475 34.4082 11.3561 34.043 9.49414 33.3125C7.64648 32.5677 6.04232 31.5221 4.68164 30.1758ZM8.29102 7.70312C7.44596 8.89193 6.82292 10.3314 6.42188 12.0215C6.02083 13.7116 5.82031 15.5306 5.82031 17.4785C5.82031 19.4121 6.00651 21.1882 6.37891 22.8066C6.7513 24.4108 7.3457 25.8216 8.16211 27.0391C9.93815 29.6888 12.5736 31.0137 16.0684 31.0137C19.5918 31.0137 22.263 29.8607 24.082 27.5547C25.8294 25.306 26.7031 22.1048 26.7031 17.9512C26.7031 11.5775 24.8125 7.30208 21.0312 5.125C19.6849 4.36589 18.0879 3.98633 16.2402 3.98633C14.3926 3.98633 12.8171 4.30859 11.5137 4.95312C10.2103 5.59766 9.13607 6.51432 8.29102 7.70312ZM38.627 14.8789C38.627 14.0625 38.5625 13.4108 38.4336 12.9238C38.319 12.4225 38.0755 12.1719 37.7031 12.1719C37.431 12.1719 37.2161 12.2005 37.0586 12.2578L36.543 12.4727C36.4427 12.5013 36.321 12.444 36.1777 12.3008C35.9056 12 35.7695 11.7279 35.7695 11.4844C35.7695 11.2266 35.8483 10.9616 36.0059 10.6895C36.1777 10.403 36.4284 10.0807 36.7578 9.72266C37.1016 9.36458 37.4883 9.04948 37.918 8.77734C38.8919 8.13281 39.7728 7.81055 40.5605 7.81055C41.3483 7.81055 41.9069 7.94661 42.2363 8.21875C42.5658 8.49089 42.8164 8.84896 42.9883 9.29297C43.2747 10.0091 43.418 11.0905 43.418 12.5371V25.9863C43.418 28.4069 44.1484 29.7604 45.6094 30.0469C46.0534 30.1328 46.5762 30.1758 47.1777 30.1758C47.7936 30.1758 48.4453 30.097 49.1328 29.9395C49.8346 29.7819 50.5007 29.5742 51.1309 29.3164C52.3483 28.8151 53.4225 28.1777 54.3535 27.4043V14.8789C54.3535 13.5182 54.11 12.6803 53.623 12.3652C53.4225 12.2363 53.1576 12.1719 52.8281 12.1719C52.4987 12.1719 52.2337 12.222 52.0332 12.3223C51.847 12.4225 51.6895 12.4941 51.5605 12.5371C51.446 12.5801 51.3457 12.5801 51.2598 12.5371C51.1738 12.4798 51.0807 12.401 50.9805 12.3008C50.7656 12.0573 50.6582 11.8138 50.6582 11.5703C50.6582 11.3268 50.7441 11.069 50.916 10.7969C51.1022 10.5104 51.3958 10.1882 51.7969 9.83008C52.1979 9.45768 52.6562 9.12109 53.1719 8.82031C54.332 8.14714 55.4922 7.81055 56.6523 7.81055C58.056 7.81055 58.8581 8.80599 59.0586 10.7969C59.1159 11.3555 59.1445 11.9355 59.1445 12.5371V25.2559C59.1445 27.4616 59.2305 28.8366 59.4023 29.3809C59.5742 29.9251 59.7819 30.2832 60.0254 30.4551C60.2689 30.6126 60.5697 30.6914 60.9277 30.6914C61.2858 30.6914 61.5794 30.6341 61.8086 30.5195L62.4531 30.2402C62.6393 30.1973 62.804 30.2832 62.9473 30.498C63.248 30.9421 63.291 31.3431 63.0762 31.7012C62.8613 32.0592 62.5247 32.403 62.0664 32.7324C61.6224 33.0618 61.1211 33.3483 60.5625 33.5918C58.0846 34.6803 56.3229 34.6589 55.2773 33.5273C54.7331 32.9401 54.4251 32.0091 54.3535 30.7344C52.248 32.3529 50.0924 33.4701 47.8867 34.0859C47.0846 34.3008 46.2396 34.4082 45.3516 34.4082C44.4779 34.4082 43.6185 34.2865 42.7734 34.043C41.9427 33.7995 41.2194 33.4056 40.6035 32.8613C39.2858 31.7012 38.627 29.9108 38.627 27.4902V14.8789ZM78.1152 34.1074C77.8145 34.0358 77.3561 34 76.7402 34H69.457C68.082 34 67.2012 33.7565 66.8145 33.2695C66.6569 33.0833 66.5781 32.8685 66.5781 32.625C66.5781 32.0234 66.6927 31.5794 66.9219 31.293C67.2656 31.4076 67.5807 31.4648 67.8672 31.4648C68.168 31.4648 68.4186 31.429 68.6191 31.3574C68.8197 31.2715 68.9772 31.1354 69.0918 30.9492C69.2923 30.6055 69.3926 29.9323 69.3926 28.9297V14.8789C69.3926 13.5326 69.1419 12.6947 68.6406 12.3652C68.4401 12.2363 68.1751 12.1719 67.8457 12.1719C67.5163 12.1719 67.2513 12.222 67.0508 12.3223C66.8646 12.4225 66.707 12.4941 66.5781 12.5371C66.4635 12.5801 66.3633 12.5801 66.2773 12.5371C66.1914 12.4798 66.1055 12.401 66.0195 12.3008C65.8047 12.043 65.6973 11.7995 65.6973 11.5703C65.6973 11.3268 65.7832 11.069 65.9551 10.7969C66.1413 10.5104 66.4349 10.1882 66.8359 9.83008C67.237 9.45768 67.6953 9.12109 68.2109 8.82031C69.3711 8.14714 70.5312 7.81055 71.6914 7.81055C73.0091 7.81055 73.7897 8.66992 74.0332 10.3887C74.1048 10.89 74.1478 11.4128 74.1621 11.957C76.2533 10.1094 78.4089 8.8418 80.6289 8.1543C81.3737 7.92513 82.0469 7.81055 82.6484 7.81055C83.2643 7.81055 83.7656 7.89648 84.1523 8.06836C84.5534 8.24023 84.8685 8.47656 85.0977 8.77734C85.5273 9.36458 85.7422 10.1165 85.7422 11.0332C85.7422 11.9499 85.6992 12.6803 85.6133 13.2246C85.5273 13.7689 85.4199 14.2487 85.291 14.6641C85.0332 15.5091 84.7897 16.0462 84.5605 16.2754C84.1595 16.6908 83.6224 16.8984 82.9492 16.8984C82.2617 16.8984 81.918 16.6979 81.918 16.2969C81.918 14.7643 81.8535 13.7832 81.7246 13.3535C81.4811 12.5658 81.0228 12.1719 80.3496 12.1719C79.6764 12.1719 79.0677 12.2507 78.5234 12.4082C77.9792 12.5514 77.4492 12.752 76.9336 13.0098C75.888 13.5254 74.9714 14.1914 74.1836 15.0078V29.2949C74.2266 30.4264 74.7207 31.1139 75.666 31.3574C75.9382 31.429 76.2461 31.4935 76.5898 31.5508C76.9336 31.6081 77.2272 31.6797 77.4707 31.7656C77.7285 31.8372 77.929 31.9232 78.0723 32.0234C78.3158 32.2096 78.4375 32.5104 78.4375 32.9258C78.4375 33.4414 78.3301 33.8353 78.1152 34.1074ZM126.971 34.1719C126.641 34.0573 125.932 34 124.844 34H112.555C111.81 34 111.208 33.8854 110.75 33.6562C110.306 33.4128 110.084 32.9759 110.084 32.3457C110.084 31.9017 110.199 31.5365 110.428 31.25C110.972 31.3932 111.488 31.4648 111.975 31.4648C112.462 31.4648 112.92 31.4147 113.35 31.3145C113.779 31.2142 114.188 31.0352 114.574 30.7773C115.491 30.1901 115.978 29.2949 116.035 28.0918V4.20117H113.242C111.165 4.20117 109.805 4.30143 109.16 4.50195C108.53 4.68815 108.05 4.93164 107.721 5.23242C107.406 5.5332 107.148 5.94141 106.947 6.45703C106.589 7.34505 106.31 8.8776 106.109 11.0547C105.794 11.1263 105.508 11.1621 105.25 11.1621C104.677 11.1621 104.312 11.0117 104.154 10.7109C103.997 10.4102 103.889 10.1022 103.832 9.78711C103.775 9.45768 103.732 9.09961 103.703 8.71289C103.646 7.93945 103.617 7.11589 103.617 6.24219C103.617 3.85026 103.803 2.33203 104.176 1.6875C104.548 1 105.293 0.65625 106.41 0.65625C106.625 0.65625 106.94 0.677734 107.355 0.720703C107.771 0.763672 108.372 0.813802 109.16 0.871094C111.294 1 113.851 1.06445 116.83 1.06445H120.461C124.615 1.06445 127.393 1 128.797 0.871094C130.201 0.727865 131.074 0.65625 131.418 0.65625C131.762 0.65625 132.077 0.70638 132.363 0.806641C132.65 0.906901 132.879 1.05013 133.051 1.23633C133.323 1.55143 133.459 1.94531 133.459 2.41797C133.459 3.13411 133.438 3.70703 133.395 4.13672C133.352 4.56641 133.301 5.07487 133.244 5.66211C133.201 6.24935 133.137 6.85807 133.051 7.48828C132.85 8.97786 132.6 10.002 132.299 10.5605C132.012 10.9616 131.661 11.1621 131.246 11.1621C130.845 11.1621 130.487 11.1263 130.172 11.0547L130.193 9.70117C130.193 8.42643 130.122 7.42383 129.979 6.69336C129.835 5.94857 129.535 5.39714 129.076 5.03906C128.618 4.66667 127.959 4.4375 127.1 4.35156C126.24 4.2513 125.094 4.20117 123.662 4.20117H121.084V28.9297C121.084 29.9609 121.908 30.6771 123.555 31.0781C123.956 31.1641 124.335 31.2428 124.693 31.3145C125.066 31.3861 125.424 31.4648 125.768 31.5508C126.111 31.6224 126.398 31.7155 126.627 31.8301C127.085 32.0592 127.314 32.446 127.314 32.9902C127.314 33.4915 127.2 33.8854 126.971 34.1719ZM137.047 22.4414C137.047 20.7083 137.226 19.1686 137.584 17.8223C137.942 16.4759 138.422 15.2728 139.023 14.2129C139.639 13.1387 140.355 12.2005 141.172 11.3984C142.003 10.5964 142.891 9.93034 143.836 9.40039C145.698 8.34049 147.531 7.81055 149.336 7.81055C151.141 7.81055 152.587 8.13281 153.676 8.77734C154.764 9.40755 155.652 10.2526 156.34 11.3125C157.615 13.332 158.252 16.0176 158.252 19.3691C158.252 20.6152 157.729 21.2526 156.684 21.2812L141.688 21.6035C141.773 24.7116 142.576 27.0104 144.094 28.5C145.383 29.7604 147.051 30.3906 149.1 30.3906C152.15 30.3906 154.628 29.7533 156.533 28.4785C156.662 28.4785 156.82 28.5859 157.006 28.8008C157.364 29.2305 157.543 29.6029 157.543 29.918C157.543 30.6055 156.684 31.4863 154.965 32.5605C152.988 33.7923 150.682 34.4082 148.047 34.4082C144.609 34.4082 141.91 33.3125 139.947 31.1211C138.014 28.9727 137.047 26.0794 137.047 22.4414ZM141.816 18.832C145.941 18.6315 149.715 18.3665 153.139 18.0371C153.296 13.4824 151.721 11.2051 148.412 11.2051C146.564 11.2051 145.053 11.9212 143.879 13.3535C142.805 14.6712 142.117 16.4974 141.816 18.832ZM178.232 31.2715C176.141 33.3626 173.613 34.4082 170.648 34.4082C168.357 34.4082 166.523 33.7493 165.148 32.4316C163.759 31.0996 163.064 29.3737 163.064 27.2539C163.064 24.6185 164.239 22.6419 166.588 21.3242C168.708 20.1211 171.694 19.5195 175.547 19.5195H178.232C178.247 18.9753 178.254 18.4453 178.254 17.9297V16.3184C178.254 14.3991 177.975 13.0456 177.416 12.2578C176.786 11.3698 175.712 10.9258 174.193 10.9258C170.713 10.9258 168.923 12.1719 168.822 14.6641C168.808 15.0508 168.815 15.373 168.844 15.6309C168.557 15.86 168.07 15.9746 167.383 15.9746C166.71 15.9746 166.215 15.8958 165.9 15.7383C165.6 15.5807 165.335 15.3659 165.105 15.0938C164.618 14.5352 164.375 13.8262 164.375 12.9668C164.375 12.0931 164.626 11.334 165.127 10.6895C165.643 10.0306 166.337 9.49349 167.211 9.07812C168.915 8.23307 170.928 7.81055 173.248 7.81055C175.568 7.81055 177.309 8.03971 178.469 8.49805C179.643 8.94206 180.574 9.53646 181.262 10.2812C182.479 11.599 183.088 13.3678 183.088 15.5879L182.873 25.9004C182.873 27.7767 182.959 28.9655 183.131 29.4668C183.317 29.9681 183.532 30.3047 183.775 30.4766C184.033 30.6484 184.341 30.7344 184.699 30.7344C185.072 30.7344 185.372 30.6771 185.602 30.5625L186.203 30.2832C186.404 30.2116 186.576 30.2975 186.719 30.541C186.876 30.7702 186.955 30.9779 186.955 31.1641C186.955 31.3359 186.876 31.5651 186.719 31.8516C186.576 32.138 186.296 32.446 185.881 32.7754C185.48 33.0905 185.021 33.3698 184.506 33.6133C181.656 34.9596 179.715 34.6445 178.684 32.668C178.469 32.2812 178.318 31.8158 178.232 31.2715ZM178.168 28.457C178.168 26.3945 178.182 24.3464 178.211 22.3125C175.232 22.4271 173.205 22.6204 172.131 22.8926C171.071 23.1504 170.305 23.401 169.832 23.6445C169.359 23.888 168.987 24.1745 168.715 24.5039C168.271 25.0482 168.049 25.8717 168.049 26.9746C168.049 28.0632 168.436 28.9368 169.209 29.5957C169.982 30.2402 171.092 30.5625 172.539 30.5625C174.587 30.5625 176.464 29.8607 178.168 28.457ZM201.414 34.1074C201.128 34.0358 200.669 34 200.039 34H193.186C191.811 34 190.93 33.7565 190.543 33.2695C190.385 33.0833 190.307 32.8685 190.307 32.625C190.307 32.0234 190.421 31.5794 190.65 31.293C190.994 31.4076 191.381 31.4648 191.811 31.4648C192.255 31.4648 192.584 31.2858 192.799 30.9277C193.028 30.5697 193.135 29.9036 193.121 28.9297V14.8789C193.121 13.5326 192.87 12.6947 192.369 12.3652C192.169 12.2363 191.904 12.1719 191.574 12.1719C191.245 12.1719 190.98 12.222 190.779 12.3223C190.593 12.4225 190.436 12.4941 190.307 12.5371C190.192 12.5801 190.092 12.5801 190.006 12.5371C189.92 12.4798 189.834 12.401 189.748 12.3008C189.533 12.0716 189.426 11.8353 189.426 11.5918C189.426 11.334 189.512 11.069 189.684 10.7969C189.87 10.5104 190.163 10.1882 190.564 9.83008C190.965 9.45768 191.424 9.12109 191.939 8.82031C193.1 8.14714 194.26 7.81055 195.42 7.81055C196.695 7.81055 197.461 8.61979 197.719 10.2383C197.805 10.7253 197.862 11.2266 197.891 11.7422C200.039 10.0378 202.288 8.84896 204.637 8.17578C205.496 7.93229 206.327 7.81055 207.129 7.81055C210.538 7.81055 212.693 9.1569 213.596 11.8496C215.83 10.0736 218.1 8.84896 220.406 8.17578C221.28 7.93229 222.168 7.81055 223.07 7.81055C223.973 7.81055 224.839 7.93229 225.67 8.17578C226.515 8.41927 227.238 8.81315 227.84 9.35742C229.158 10.5319 229.816 12.3223 229.816 14.7285V29.1445C229.816 30.319 230.217 31.0495 231.02 31.3359C231.249 31.4219 231.521 31.4935 231.836 31.5508C232.151 31.6081 232.438 31.6797 232.695 31.7656C232.953 31.8372 233.154 31.9232 233.297 32.0234C233.54 32.2096 233.662 32.5104 233.662 32.9258C233.662 33.4271 233.548 33.821 233.318 34.1074C233.032 34.0358 232.574 34 231.943 34H225.09C223.715 34 222.834 33.7565 222.447 33.2695C222.29 33.0833 222.211 32.8685 222.211 32.625C222.211 32.0234 222.326 31.5794 222.555 31.293C222.898 31.4076 223.278 31.4648 223.693 31.4648C224.109 31.4648 224.424 31.3288 224.639 31.0566C224.868 30.7702 224.997 30.2474 225.025 29.4883V16.2539C225.025 13.819 224.302 12.4583 222.855 12.1719C222.411 12.0859 221.882 12.043 221.266 12.043C220.664 12.043 220.005 12.1217 219.289 12.2793C218.587 12.4225 217.914 12.623 217.27 12.8809C216.023 13.3822 214.935 14.0195 214.004 14.793V29.1445C214.004 30.3333 214.405 31.0638 215.207 31.3359C215.436 31.4219 215.708 31.4935 216.023 31.5508C216.339 31.6081 216.618 31.6797 216.861 31.7656C217.119 31.8372 217.32 31.9232 217.463 32.0234C217.706 32.2096 217.828 32.5104 217.828 32.9258C217.828 33.4414 217.721 33.8353 217.506 34.1074C217.219 34.0358 216.761 34 216.131 34H209.277C207.902 34 207.021 33.7565 206.635 33.2695C206.477 33.0833 206.398 32.8685 206.398 32.625C206.398 32.0091 206.506 31.5651 206.721 31.293C207.079 31.4076 207.465 31.4648 207.881 31.4648C208.296 31.4648 208.611 31.3145 208.826 31.0137C209.055 30.7129 209.184 30.1615 209.213 29.3594V16.2539C209.213 13.819 208.49 12.4583 207.043 12.1719C206.599 12.0859 206.062 12.043 205.432 12.043C204.801 12.043 204.114 12.1289 203.369 12.3008C202.624 12.4727 201.915 12.7018 201.242 12.9883C199.953 13.5182 198.843 14.1914 197.912 15.0078V29.1445C197.912 30.319 198.32 31.0495 199.137 31.3359C199.352 31.4219 199.617 31.4935 199.932 31.5508C200.247 31.6081 200.533 31.6797 200.791 31.7656C201.049 31.8372 201.249 31.9232 201.393 32.0234C201.636 32.2096 201.758 32.5104 201.758 32.9258C201.758 33.4271 201.643 33.821 201.414 34.1074Z" fill="#333333"/>
</svg>
