<svg width="569" height="50" viewBox="0 0 569 50" fill="none" xmlns="http://www.w3.org/2000/svg">
<path d="M23.9863 38.1719C23.6569 38.0573 22.9479 38 21.8594 38H9.57031C8.82552 38 8.22396 37.8854 7.76562 37.6562C7.32161 37.4128 7.09961 36.9759 7.09961 36.3457C7.09961 35.9017 7.21419 35.5365 7.44336 35.25C7.98763 35.3932 8.50326 35.4648 8.99023 35.4648C9.47721 35.4648 9.93555 35.4147 10.3652 35.3145C10.7949 35.2142 11.2031 35.0352 11.5898 34.7773C12.5065 34.1901 12.9935 33.2949 13.0508 32.0918V8.20117H10.2578C8.18099 8.20117 6.82031 8.30143 6.17578 8.50195C5.54557 8.68815 5.06576 8.93164 4.73633 9.23242C4.42122 9.5332 4.16341 9.94141 3.96289 10.457C3.60482 11.3451 3.32552 12.8776 3.125 15.0547C2.8099 15.1263 2.52344 15.1621 2.26562 15.1621C1.69271 15.1621 1.32747 15.0117 1.16992 14.7109C1.01237 14.4102 0.904948 14.1022 0.847656 13.7871C0.790365 13.4577 0.747396 13.0996 0.71875 12.7129C0.661458 11.9395 0.632812 11.1159 0.632812 10.2422C0.632812 7.85026 0.81901 6.33203 1.19141 5.6875C1.5638 5 2.30859 4.65625 3.42578 4.65625C3.64062 4.65625 3.95573 4.67773 4.37109 4.7207C4.78646 4.76367 5.38802 4.8138 6.17578 4.87109C8.3099 5 10.8665 5.06445 13.8457 5.06445H17.4766C21.6302 5.06445 24.4089 5 25.8125 4.87109C27.2161 4.72786 28.0898 4.65625 28.4336 4.65625C28.7773 4.65625 29.0924 4.70638 29.3789 4.80664C29.6654 4.9069 29.8945 5.05013 30.0664 5.23633C30.3385 5.55143 30.4746 5.94531 30.4746 6.41797C30.4746 7.13411 30.4531 7.70703 30.4102 8.13672C30.3672 8.56641 30.3171 9.07487 30.2598 9.66211C30.2168 10.2493 30.1523 10.8581 30.0664 11.4883C29.8659 12.9779 29.6152 14.002 29.3145 14.5605C29.028 14.9616 28.6771 15.1621 28.2617 15.1621C27.8607 15.1621 27.5026 15.1263 27.1875 15.0547L27.209 13.7012C27.209 12.4264 27.1374 11.4238 26.9941 10.6934C26.8509 9.94857 26.5501 9.39714 26.0918 9.03906C25.6335 8.66667 24.9746 8.4375 24.1152 8.35156C23.2559 8.2513 22.11 8.20117 20.6777 8.20117H18.0996V32.9297C18.0996 33.9609 18.9232 34.6771 20.5703 35.0781C20.9714 35.1641 21.3509 35.2428 21.709 35.3145C22.0814 35.3861 22.4395 35.4648 22.7832 35.5508C23.127 35.6224 23.4134 35.7155 23.6426 35.8301C24.1009 36.0592 24.3301 36.446 24.3301 36.9902C24.3301 37.4915 24.2155 37.8854 23.9863 38.1719ZM45.7285 38.1074C45.4421 38.0358 44.9837 38 44.3535 38H37.5C36.125 38 35.2441 37.7565 34.8574 37.2695C34.6999 37.0833 34.6211 36.8685 34.6211 36.625C34.6211 36.0234 34.7357 35.5794 34.9648 35.293C35.3086 35.4076 35.7025 35.4648 36.1465 35.4648C36.5905 35.4648 36.9199 35.2858 37.1348 34.9277C37.3496 34.5697 37.4499 33.9036 37.4355 32.9297V6.31055C37.4355 5.32227 37.3353 4.6849 37.1348 4.39844C36.834 3.9401 36.304 3.71094 35.5449 3.71094H35.1152C34.9863 3.71094 34.8359 3.73242 34.6641 3.77539C34.5065 3.80404 34.3704 3.78971 34.2559 3.73242C34.1413 3.66081 34.041 3.56771 33.9551 3.45312C33.6543 3.00911 33.998 2.40755 34.9863 1.64844C36.4329 0.545573 37.9082 -0.00585938 39.4121 -0.00585938C41.0449 -0.00585938 41.9616 0.875 42.1621 2.63672C42.2194 3.16667 42.248 3.72526 42.248 4.3125V16.0215C44.4108 14.2025 46.724 12.9349 49.1875 12.2188C50.0898 11.9466 50.9993 11.8105 51.916 11.8105C52.847 11.8105 53.7279 11.9323 54.5586 12.1758C55.4036 12.4193 56.127 12.8132 56.7285 13.3574C58.0462 14.5319 58.7051 16.3223 58.7051 18.7285V33.1445C58.7051 34.3333 59.1061 35.0638 59.9082 35.3359C60.1374 35.4219 60.4095 35.4935 60.7246 35.5508C61.0397 35.6081 61.319 35.6797 61.5625 35.7656C61.8203 35.8372 62.0208 35.9232 62.1641 36.0234C62.4076 36.2096 62.5293 36.5104 62.5293 36.9258C62.5293 37.4414 62.4219 37.8353 62.207 38.1074C61.9062 38.0358 61.4479 38 60.832 38H53.9785C52.6035 38 51.7227 37.7565 51.3359 37.2695C51.1784 37.0833 51.0996 36.8685 51.0996 36.625C51.0996 36.0091 51.207 35.5651 51.4219 35.293C51.7799 35.4076 52.1667 35.4648 52.582 35.4648C52.9974 35.4648 53.3125 35.3145 53.5273 35.0137C53.7565 34.7129 53.8854 34.1615 53.9141 33.3594V20.2539C53.9141 17.819 53.1908 16.4583 51.7441 16.1719C51.3001 16.0859 50.7415 16.043 50.0684 16.043C49.4095 16.043 48.679 16.1432 47.877 16.3438C47.0892 16.5443 46.3444 16.8021 45.6426 17.1172C44.2533 17.7474 43.1217 18.4993 42.248 19.373V33.1445C42.248 34.3333 42.6491 35.0638 43.4512 35.3359C43.6803 35.4219 43.9525 35.4935 44.2676 35.5508C44.5827 35.6081 44.862 35.6797 45.1055 35.7656C45.3633 35.8372 45.5638 35.9232 45.707 36.0234C45.9505 36.2096 46.0723 36.5104 46.0723 36.9258C46.0723 37.4271 45.9577 37.821 45.7285 38.1074ZM65.4727 26.4414C65.4727 24.7083 65.6517 23.1686 66.0098 21.8223C66.3678 20.4759 66.8477 19.2728 67.4492 18.2129C68.0651 17.1387 68.7812 16.2005 69.5977 15.3984C70.4284 14.5964 71.3164 13.9303 72.2617 13.4004C74.1237 12.3405 75.957 11.8105 77.7617 11.8105C79.5664 11.8105 81.013 12.1328 82.1016 12.7773C83.1901 13.4076 84.0781 14.2526 84.7656 15.3125C86.0404 17.332 86.6777 20.0176 86.6777 23.3691C86.6777 24.6152 86.1549 25.2526 85.1094 25.2812L70.1133 25.6035C70.1992 28.7116 71.0013 31.0104 72.5195 32.5C73.8086 33.7604 75.4772 34.3906 77.5254 34.3906C80.5762 34.3906 83.054 33.7533 84.959 32.4785C85.0879 32.4785 85.2454 32.5859 85.4316 32.8008C85.7897 33.2305 85.9688 33.6029 85.9688 33.918C85.9688 34.6055 85.1094 35.4863 83.3906 36.5605C81.4141 37.7923 79.1081 38.4082 76.4727 38.4082C73.0352 38.4082 70.3353 37.3125 68.373 35.1211C66.4395 32.9727 65.4727 30.0794 65.4727 26.4414ZM70.2422 22.832C74.3672 22.6315 78.1413 22.3665 81.5645 22.0371C81.722 17.4824 80.1465 15.2051 76.8379 15.2051C74.9902 15.2051 73.4792 15.9212 72.3047 17.3535C71.2305 18.6712 70.543 20.4974 70.2422 22.832ZM129.066 14.3672C129.124 13.9661 129.152 13.3789 129.152 12.6055C129.152 11.832 129.002 11.1302 128.701 10.5C128.4 9.85547 127.992 9.35417 127.477 8.99609C126.574 8.38021 125.214 8.07227 123.395 8.07227C121.59 8.07227 119.993 8.40169 118.604 9.06055C117.229 9.70508 116.076 10.6146 115.145 11.7891C113.268 14.1523 112.33 17.3678 112.33 21.4355C112.33 25.2884 113.283 28.3607 115.188 30.6523C117.164 33.0443 119.835 34.2402 123.201 34.2402C126.51 34.2402 129.088 33.5169 130.936 32.0703C131.494 31.6406 132.003 31.1751 132.461 30.6738C132.891 30.8027 133.242 31.1823 133.514 31.8125C133.6 32.0273 133.643 32.3138 133.643 32.6719C133.643 33.0156 133.385 33.5312 132.869 34.2188C132.368 34.8919 131.63 35.5436 130.656 36.1738C128.336 37.6921 125.557 38.4512 122.32 38.4512C117.68 38.4512 113.984 37.0404 111.234 34.2188C108.513 31.4544 107.152 27.752 107.152 23.1113C107.152 20.2754 107.604 17.7188 108.506 15.4414C109.408 13.1641 110.64 11.2305 112.201 9.64062C113.762 8.03646 115.581 6.80469 117.658 5.94531C119.749 5.08594 121.776 4.65625 123.738 4.65625C125.715 4.65625 127.298 4.82096 128.486 5.15039C129.675 5.47982 130.663 5.93099 131.451 6.50391C133.027 7.67839 133.814 9.23958 133.814 11.1875C133.814 12.6771 133.263 13.7298 132.16 14.3457C131.788 14.5605 131.387 14.668 130.957 14.668C130.069 14.668 129.439 14.5677 129.066 14.3672ZM149.928 38.1074C149.641 38.0358 149.183 38 148.553 38H141.699C140.324 38 139.443 37.7565 139.057 37.2695C138.899 37.0833 138.82 36.8685 138.82 36.625C138.82 36.0234 138.935 35.5794 139.164 35.293C139.508 35.4076 139.902 35.4648 140.346 35.4648C140.79 35.4648 141.119 35.2858 141.334 34.9277C141.549 34.5697 141.649 33.9036 141.635 32.9297V6.31055C141.635 5.32227 141.535 4.6849 141.334 4.39844C141.033 3.9401 140.503 3.71094 139.744 3.71094H139.314C139.186 3.71094 139.035 3.73242 138.863 3.77539C138.706 3.80404 138.57 3.78971 138.455 3.73242C138.34 3.66081 138.24 3.56771 138.154 3.45312C137.854 3.00911 138.197 2.40755 139.186 1.64844C140.632 0.545573 142.107 -0.00585938 143.611 -0.00585938C145.244 -0.00585938 146.161 0.875 146.361 2.63672C146.419 3.16667 146.447 3.72526 146.447 4.3125V16.0215C148.61 14.2025 150.923 12.9349 153.387 12.2188C154.289 11.9466 155.199 11.8105 156.115 11.8105C157.046 11.8105 157.927 11.9323 158.758 12.1758C159.603 12.4193 160.326 12.8132 160.928 13.3574C162.245 14.5319 162.904 16.3223 162.904 18.7285V33.1445C162.904 34.3333 163.305 35.0638 164.107 35.3359C164.337 35.4219 164.609 35.4935 164.924 35.5508C165.239 35.6081 165.518 35.6797 165.762 35.7656C166.02 35.8372 166.22 35.9232 166.363 36.0234C166.607 36.2096 166.729 36.5104 166.729 36.9258C166.729 37.4414 166.621 37.8353 166.406 38.1074C166.105 38.0358 165.647 38 165.031 38H158.178C156.803 38 155.922 37.7565 155.535 37.2695C155.378 37.0833 155.299 36.8685 155.299 36.625C155.299 36.0091 155.406 35.5651 155.621 35.293C155.979 35.4076 156.366 35.4648 156.781 35.4648C157.197 35.4648 157.512 35.3145 157.727 35.0137C157.956 34.7129 158.085 34.1615 158.113 33.3594V20.2539C158.113 17.819 157.39 16.4583 155.943 16.1719C155.499 16.0859 154.941 16.043 154.268 16.043C153.609 16.043 152.878 16.1432 152.076 16.3438C151.288 16.5443 150.544 16.8021 149.842 17.1172C148.452 17.7474 147.321 18.4993 146.447 19.373V33.1445C146.447 34.3333 146.848 35.0638 147.65 35.3359C147.88 35.4219 148.152 35.4935 148.467 35.5508C148.782 35.6081 149.061 35.6797 149.305 35.7656C149.562 35.8372 149.763 35.9232 149.906 36.0234C150.15 36.2096 150.271 36.5104 150.271 36.9258C150.271 37.4271 150.157 37.821 149.928 38.1074ZM184.861 35.2715C182.77 37.3626 180.242 38.4082 177.277 38.4082C174.986 38.4082 173.152 37.7493 171.777 36.4316C170.388 35.0996 169.693 33.3737 169.693 31.2539C169.693 28.6185 170.868 26.6419 173.217 25.3242C175.337 24.1211 178.323 23.5195 182.176 23.5195H184.861C184.876 22.9753 184.883 22.4453 184.883 21.9297V20.3184C184.883 18.3991 184.604 17.0456 184.045 16.2578C183.415 15.3698 182.34 14.9258 180.822 14.9258C177.342 14.9258 175.551 16.1719 175.451 18.6641C175.437 19.0508 175.444 19.373 175.473 19.6309C175.186 19.86 174.699 19.9746 174.012 19.9746C173.339 19.9746 172.844 19.8958 172.529 19.7383C172.229 19.5807 171.964 19.3659 171.734 19.0938C171.247 18.5352 171.004 17.8262 171.004 16.9668C171.004 16.0931 171.255 15.334 171.756 14.6895C172.271 14.0306 172.966 13.4935 173.84 13.0781C175.544 12.2331 177.557 11.8105 179.877 11.8105C182.197 11.8105 183.938 12.0397 185.098 12.498C186.272 12.9421 187.203 13.5365 187.891 14.2812C189.108 15.599 189.717 17.3678 189.717 19.5879L189.502 29.9004C189.502 31.7767 189.588 32.9655 189.76 33.4668C189.946 33.9681 190.161 34.3047 190.404 34.4766C190.662 34.6484 190.97 34.7344 191.328 34.7344C191.701 34.7344 192.001 34.6771 192.23 34.5625L192.832 34.2832C193.033 34.2116 193.204 34.2975 193.348 34.541C193.505 34.7702 193.584 34.9779 193.584 35.1641C193.584 35.3359 193.505 35.5651 193.348 35.8516C193.204 36.138 192.925 36.446 192.51 36.7754C192.109 37.0905 191.65 37.3698 191.135 37.6133C188.285 38.9596 186.344 38.6445 185.312 36.668C185.098 36.2812 184.947 35.8158 184.861 35.2715ZM184.797 32.457C184.797 30.3945 184.811 28.3464 184.84 26.3125C181.861 26.4271 179.834 26.6204 178.76 26.8926C177.7 27.1504 176.934 27.401 176.461 27.6445C175.988 27.888 175.616 28.1745 175.344 28.5039C174.9 29.0482 174.678 29.8717 174.678 30.9746C174.678 32.0632 175.064 32.9368 175.838 33.5957C176.611 34.2402 177.721 34.5625 179.168 34.5625C181.216 34.5625 183.092 33.8607 184.797 32.457ZM200.244 38C198.053 38 196.957 37.4987 196.957 36.4961C196.957 35.9661 197.064 35.5651 197.279 35.293C197.623 35.4076 197.945 35.4648 198.246 35.4648C199.492 35.4648 200.137 34.7129 200.18 33.209V6.31055C200.18 5.30794 200.079 4.67057 199.879 4.39844C199.549 3.9401 199.02 3.71094 198.289 3.71094C197.96 3.71094 197.637 3.74674 197.322 3.81836C197.021 3.87565 196.807 3.87565 196.678 3.81836C196.563 3.74674 196.47 3.65365 196.398 3.53906C196.112 3.06641 196.47 2.46484 197.473 1.73438C199.048 0.574219 200.602 -0.00585938 202.135 -0.00585938C203.768 -0.00585938 204.684 0.875 204.885 2.63672C204.942 3.16667 204.971 3.72526 204.971 4.3125V33.2949C205.014 34.4121 205.422 35.0996 206.195 35.3574C206.424 35.429 206.689 35.4935 206.99 35.5508C207.305 35.6081 207.592 35.6797 207.85 35.7656C208.107 35.8372 208.308 35.9232 208.451 36.0234C208.695 36.2096 208.816 36.5104 208.816 36.9258C208.816 37.4271 208.702 37.821 208.473 38.1074C208.186 38.0358 207.728 38 207.098 38H200.244ZM215.627 38C213.436 38 212.34 37.4987 212.34 36.4961C212.34 35.9661 212.447 35.5651 212.662 35.293C213.006 35.4076 213.328 35.4648 213.629 35.4648C214.875 35.4648 215.52 34.7129 215.562 33.209V6.31055C215.562 5.30794 215.462 4.67057 215.262 4.39844C214.932 3.9401 214.402 3.71094 213.672 3.71094C213.342 3.71094 213.02 3.74674 212.705 3.81836C212.404 3.87565 212.189 3.87565 212.061 3.81836C211.946 3.74674 211.853 3.65365 211.781 3.53906C211.495 3.06641 211.853 2.46484 212.855 1.73438C214.431 0.574219 215.985 -0.00585938 217.518 -0.00585938C219.15 -0.00585938 220.067 0.875 220.268 2.63672C220.325 3.16667 220.354 3.72526 220.354 4.3125V33.2949C220.396 34.4121 220.805 35.0996 221.578 35.3574C221.807 35.429 222.072 35.4935 222.373 35.5508C222.688 35.6081 222.975 35.6797 223.232 35.7656C223.49 35.8372 223.691 35.9232 223.834 36.0234C224.077 36.2096 224.199 36.5104 224.199 36.9258C224.199 37.4271 224.085 37.821 223.855 38.1074C223.569 38.0358 223.111 38 222.48 38H215.627ZM227.25 26.4414C227.25 24.7083 227.429 23.1686 227.787 21.8223C228.145 20.4759 228.625 19.2728 229.227 18.2129C229.842 17.1387 230.559 16.2005 231.375 15.3984C232.206 14.5964 233.094 13.9303 234.039 13.4004C235.901 12.3405 237.734 11.8105 239.539 11.8105C241.344 11.8105 242.79 12.1328 243.879 12.7773C244.967 13.4076 245.855 14.2526 246.543 15.3125C247.818 17.332 248.455 20.0176 248.455 23.3691C248.455 24.6152 247.932 25.2526 246.887 25.2812L231.891 25.6035C231.977 28.7116 232.779 31.0104 234.297 32.5C235.586 33.7604 237.255 34.3906 239.303 34.3906C242.354 34.3906 244.831 33.7533 246.736 32.4785C246.865 32.4785 247.023 32.5859 247.209 32.8008C247.567 33.2305 247.746 33.6029 247.746 33.918C247.746 34.6055 246.887 35.4863 245.168 36.5605C243.191 37.7923 240.885 38.4082 238.25 38.4082C234.812 38.4082 232.113 37.3125 230.15 35.1211C228.217 32.9727 227.25 30.0794 227.25 26.4414ZM232.02 22.832C236.145 22.6315 239.919 22.3665 243.342 22.0371C243.499 17.4824 241.924 15.2051 238.615 15.2051C236.768 15.2051 235.257 15.9212 234.082 17.3535C233.008 18.6712 232.32 20.4974 232.02 22.832ZM264.805 38.1074C264.518 38.0358 264.06 38 263.43 38H256.576C255.201 38 254.32 37.7565 253.934 37.2695C253.776 37.0833 253.697 36.8685 253.697 36.625C253.697 36.0234 253.812 35.5794 254.041 35.293C254.385 35.4076 254.771 35.4648 255.201 35.4648C255.645 35.4648 255.975 35.2858 256.189 34.9277C256.419 34.5697 256.526 33.9036 256.512 32.9297V18.8789C256.512 17.5326 256.261 16.6947 255.76 16.3652C255.559 16.2363 255.294 16.1719 254.965 16.1719C254.635 16.1719 254.37 16.222 254.17 16.3223C253.984 16.4225 253.826 16.4941 253.697 16.5371C253.583 16.5801 253.482 16.5801 253.396 16.5371C253.311 16.4798 253.225 16.401 253.139 16.3008C252.924 16.0716 252.816 15.8353 252.816 15.5918C252.816 15.334 252.902 15.069 253.074 14.7969C253.26 14.5104 253.554 14.1882 253.955 13.8301C254.356 13.4577 254.814 13.1211 255.33 12.8203C256.49 12.1471 257.65 11.8105 258.811 11.8105C260.143 11.8105 260.93 12.6914 261.174 14.4531C261.245 14.9688 261.288 15.4987 261.303 16.043C263.437 14.2526 265.757 12.9779 268.264 12.2188C269.166 11.9466 270.076 11.8105 270.992 11.8105C271.923 11.8105 272.804 11.9323 273.635 12.1758C274.48 12.4193 275.21 12.8132 275.826 13.3574C277.13 14.5033 277.781 16.2936 277.781 18.7285V33.2949C277.824 34.4121 278.24 35.0996 279.027 35.3574C279.242 35.429 279.507 35.4935 279.822 35.5508C280.137 35.6081 280.417 35.6797 280.66 35.7656C280.918 35.8372 281.118 35.9232 281.262 36.0234C281.505 36.2096 281.627 36.5104 281.627 36.9258C281.627 37.4271 281.512 37.821 281.283 38.1074C280.997 38.0358 280.538 38 279.908 38H273.055C271.68 38 270.799 37.7565 270.412 37.2695C270.255 37.0833 270.176 36.8685 270.176 36.625C270.176 36.0234 270.29 35.5794 270.52 35.293C270.863 35.4076 271.178 35.4648 271.465 35.4648C271.766 35.4648 272.016 35.429 272.217 35.3574C272.417 35.2715 272.575 35.1354 272.689 34.9492C272.89 34.6055 272.99 33.9323 272.99 32.9297V20.2539C272.99 17.819 272.267 16.4583 270.82 16.1719C270.376 16.0859 269.818 16.043 269.145 16.043C268.486 16.043 267.755 16.1432 266.953 16.3438C266.151 16.5443 265.399 16.8021 264.697 17.1172C263.351 17.7188 262.219 18.4779 261.303 19.3945V33.2949C261.346 34.4121 261.754 35.0996 262.527 35.3574C262.757 35.429 263.021 35.4935 263.322 35.5508C263.637 35.6081 263.924 35.6797 264.182 35.7656C264.439 35.8372 264.64 35.9232 264.783 36.0234C265.027 36.2096 265.148 36.5104 265.148 36.9258C265.148 37.4271 265.034 37.821 264.805 38.1074ZM293.143 29.4277C292.598 29.972 292.326 30.502 292.326 31.0176C292.326 31.5332 292.477 31.9271 292.777 32.1992C293.078 32.457 293.472 32.6576 293.959 32.8008C294.704 33.0013 295.527 33.1016 296.43 33.1016H298.277C302.947 33.1016 306.019 34.2188 307.494 36.4531C308.038 37.2839 308.311 38.2936 308.311 39.4824C308.311 40.6855 308.11 41.7383 307.709 42.6406C307.308 43.543 306.771 44.3379 306.098 45.0254C305.424 45.7272 304.644 46.3288 303.756 46.8301C302.868 47.3314 301.93 47.7396 300.941 48.0547C299.008 48.6992 297.203 49.0215 295.527 49.0215C293.852 49.0215 292.383 48.8854 291.123 48.6133C289.877 48.3555 288.767 47.9473 287.793 47.3887C285.688 46.1712 284.635 44.4238 284.635 42.1465C284.635 40.2129 285.602 38.4798 287.535 36.9473C288.122 36.4889 288.745 36.0807 289.404 35.7227C288.631 35.0781 288.244 34.2116 288.244 33.123C288.244 31.4186 289.089 29.9863 290.779 28.8262C288.301 27.8809 286.676 26.1908 285.902 23.7559C285.659 22.9538 285.537 22.0586 285.537 21.0703C285.537 20.082 285.688 19.151 285.988 18.2773C286.303 17.4036 286.726 16.623 287.256 15.9355C287.8 15.248 288.43 14.6465 289.146 14.1309C289.863 13.6152 290.629 13.1855 291.445 12.8418C293.049 12.1543 294.732 11.8105 296.494 11.8105C299.402 11.8105 301.722 12.541 303.455 14.002C303.641 13.2858 303.734 12.5482 303.734 11.7891C303.734 11.0299 303.57 10.4141 303.24 9.94141C303.799 9.28255 304.63 8.95312 305.732 8.95312C306.363 8.95312 306.864 9.125 307.236 9.46875C307.952 10.0846 308.311 10.7005 308.311 11.3164C308.311 11.918 308.217 12.4479 308.031 12.9062C307.845 13.3503 307.602 13.7728 307.301 14.1738C306.771 14.9186 306.083 15.5918 305.238 16.1934C305.811 17.2676 306.098 18.5137 306.098 19.9316C306.098 21.3353 305.783 22.6458 305.152 23.8633C304.536 25.0664 303.706 26.0905 302.66 26.9355C300.512 28.6686 297.862 29.5352 294.711 29.5352C294.281 29.5352 293.758 29.4993 293.143 29.4277ZM292.09 24.8516C292.605 25.3529 293.193 25.7253 293.852 25.9688C294.51 26.2122 295.212 26.334 295.957 26.334C296.716 26.334 297.425 26.2266 298.084 26.0117C298.757 25.7969 299.337 25.4818 299.824 25.0664C300.87 24.1784 301.393 22.918 301.393 21.2852C301.393 19.4805 300.927 17.9766 299.996 16.7734C298.936 15.4414 297.447 14.7754 295.527 14.7754C293.107 14.7754 291.538 15.7637 290.822 17.7402C290.579 18.4134 290.457 19.2441 290.457 20.2324C290.457 21.2207 290.6 22.1087 290.887 22.8965C291.188 23.6842 291.589 24.3359 292.09 24.8516ZM292.111 36.9902C290.235 38.265 289.297 39.7116 289.297 41.3301C289.297 42.7337 290.113 43.8008 291.746 44.5312C293.049 45.1328 294.654 45.4336 296.559 45.4336C298.292 45.4336 299.896 45.1471 301.371 44.5742C303.305 43.8151 304.271 42.5762 304.271 40.8574C304.271 38.5514 302.402 37.3984 298.664 37.3984L296.752 37.4199C294.804 37.4199 293.257 37.2767 292.111 36.9902ZM311.727 26.4414C311.727 24.7083 311.906 23.1686 312.264 21.8223C312.622 20.4759 313.102 19.2728 313.703 18.2129C314.319 17.1387 315.035 16.2005 315.852 15.3984C316.682 14.5964 317.57 13.9303 318.516 13.4004C320.378 12.3405 322.211 11.8105 324.016 11.8105C325.82 11.8105 327.267 12.1328 328.355 12.7773C329.444 13.4076 330.332 14.2526 331.02 15.3125C332.294 17.332 332.932 20.0176 332.932 23.3691C332.932 24.6152 332.409 25.2526 331.363 25.2812L316.367 25.6035C316.453 28.7116 317.255 31.0104 318.773 32.5C320.062 33.7604 321.731 34.3906 323.779 34.3906C326.83 34.3906 329.308 33.7533 331.213 32.4785C331.342 32.4785 331.499 32.5859 331.686 32.8008C332.044 33.2305 332.223 33.6029 332.223 33.918C332.223 34.6055 331.363 35.4863 329.645 36.5605C327.668 37.7923 325.362 38.4082 322.727 38.4082C319.289 38.4082 316.589 37.3125 314.627 35.1211C312.693 32.9727 311.727 30.0794 311.727 26.4414ZM316.496 22.832C320.621 22.6315 324.395 22.3665 327.818 22.0371C327.976 17.4824 326.4 15.2051 323.092 15.2051C321.244 15.2051 319.733 15.9212 318.559 17.3535C317.484 18.6712 316.797 20.4974 316.496 22.832ZM352.461 19.4375C352.461 17.2318 351.544 15.7708 349.711 15.0547C349.124 14.8255 348.486 14.7109 347.799 14.7109C347.126 14.7109 346.495 14.7682 345.908 14.8828C345.335 14.9974 344.827 15.1764 344.383 15.4199C343.38 15.9642 342.879 16.7448 342.879 17.7617C342.879 18.7357 343.294 19.5807 344.125 20.2969C345.042 21.056 346.746 21.9941 349.238 23.1113C351.73 24.2142 353.65 25.4245 354.996 26.7422C356.357 28.0456 357.037 29.5495 357.037 31.2539C357.037 33.1732 356.249 34.7917 354.674 36.1094C352.826 37.6419 350.27 38.4082 347.004 38.4082C343.008 38.4082 340.243 37.556 338.711 35.8516C338.181 35.25 337.916 34.4837 337.916 33.5527C337.916 31.304 338.467 29.9935 339.57 29.6211C339.842 29.5352 340.1 29.4922 340.344 29.4922C341.017 29.4922 341.382 29.6999 341.439 30.1152C341.755 33.696 343.76 35.4863 347.455 35.4863C349.675 35.4863 351.158 34.8633 351.902 33.6172C352.146 33.2161 352.268 32.7292 352.268 32.1562C352.268 31.5833 352.081 31.0605 351.709 30.5879C351.351 30.1152 350.85 29.6784 350.205 29.2773C349.561 28.862 348.794 28.4609 347.906 28.0742L345.049 26.7852C340.666 24.7799 338.475 22.1159 338.475 18.793C338.475 16.6445 339.427 14.9258 341.332 13.6367C343.137 12.4193 345.464 11.8105 348.314 11.8105C352.182 11.8105 354.588 12.6484 355.533 14.3242C355.777 14.7539 355.898 15.2266 355.898 15.7422C355.898 16.2578 355.87 16.7233 355.812 17.1387C355.755 17.5397 355.684 17.9049 355.598 18.2344C355.454 18.8646 355.29 19.3086 355.104 19.5664C354.731 19.8385 354.194 19.9746 353.492 19.9746C352.805 19.9746 352.461 19.7956 352.461 19.4375ZM425.164 7.81445C424.62 7.67122 424.147 7.59961 423.746 7.59961C423.359 7.59961 423.023 7.74284 422.736 8.0293C422.464 8.30143 422.199 8.65234 421.941 9.08203C421.54 9.79818 421.146 10.8151 420.76 12.1328L418.16 20.4258L413.52 34.3906C413.09 35.651 412.345 36.6608 411.285 37.4199C410.34 38.0788 409.473 38.4082 408.686 38.4082C408.084 38.4082 407.654 38.3652 407.396 38.2793L400.521 20.5117L399.855 18.3633C396.06 28.1602 393.997 33.4525 393.668 34.2402C393.353 35.0137 392.995 35.651 392.594 36.1523C392.193 36.6536 391.763 37.069 391.305 37.3984C390.388 38.0716 389.536 38.4082 388.748 38.4082C388.046 38.4082 387.617 38.3652 387.459 38.2793L378.715 10.8438C378.6 10.5286 378.493 10.1992 378.393 9.85547C378.292 9.4974 378.178 9.16797 378.049 8.86719C377.748 8.15104 377.426 7.75 377.082 7.66406C376.738 7.5638 376.438 7.48503 376.18 7.42773C375.922 7.35612 375.693 7.27018 375.492 7.16992C375.048 6.95508 374.826 6.66146 374.826 6.28906C374.826 5.65885 374.934 5.19336 375.148 4.89258C375.492 5.00716 376.201 5.06445 377.275 5.06445H386.256C387.889 5.06445 388.705 5.61589 388.705 6.71875C388.705 7.19141 388.59 7.55664 388.361 7.81445C387.846 7.67122 387.251 7.59961 386.578 7.59961C384.845 7.59961 383.979 8.30143 383.979 9.70508C383.979 10.1634 384.05 10.6504 384.193 11.166L390.51 32.9941C391.641 30.1296 392.501 27.8952 393.088 26.291L398.352 11.252C398.538 10.6504 398.996 10.1706 399.727 9.8125C400.357 9.48307 401.094 9.33268 401.939 9.36133L410.275 32.9941C412.08 27.3796 413.226 23.7129 413.713 21.9941L416.033 13.7227C416.635 11.4596 416.936 10.0775 416.936 9.57617C416.936 9.07487 416.771 8.67383 416.441 8.37305C416.126 8.07227 415.74 7.87891 415.281 7.79297C414.837 7.69271 414.443 7.60677 414.1 7.53516C413.77 7.44922 413.491 7.34896 413.262 7.23438C412.803 7.00521 412.574 6.61849 412.574 6.07422C412.574 5.58724 412.682 5.19336 412.896 4.89258C413.226 5.00716 413.935 5.06445 415.023 5.06445H423.059C424.691 5.06445 425.508 5.61589 425.508 6.71875C425.508 7.19141 425.393 7.55664 425.164 7.81445ZM426.754 26.4414C426.754 24.7083 426.933 23.1686 427.291 21.8223C427.649 20.4759 428.129 19.2728 428.73 18.2129C429.346 17.1387 430.062 16.2005 430.879 15.3984C431.71 14.5964 432.598 13.9303 433.543 13.4004C435.405 12.3405 437.238 11.8105 439.043 11.8105C440.848 11.8105 442.294 12.1328 443.383 12.7773C444.471 13.4076 445.359 14.2526 446.047 15.3125C447.322 17.332 447.959 20.0176 447.959 23.3691C447.959 24.6152 447.436 25.2526 446.391 25.2812L431.395 25.6035C431.48 28.7116 432.283 31.0104 433.801 32.5C435.09 33.7604 436.758 34.3906 438.807 34.3906C441.857 34.3906 444.335 33.7533 446.24 32.4785C446.369 32.4785 446.527 32.5859 446.713 32.8008C447.071 33.2305 447.25 33.6029 447.25 33.918C447.25 34.6055 446.391 35.4863 444.672 36.5605C442.695 37.7923 440.389 38.4082 437.754 38.4082C434.316 38.4082 431.617 37.3125 429.654 35.1211C427.721 32.9727 426.754 30.0794 426.754 26.4414ZM431.523 22.832C435.648 22.6315 439.423 22.3665 442.846 22.0371C443.003 17.4824 441.428 15.2051 438.119 15.2051C436.271 15.2051 434.76 15.9212 433.586 17.3535C432.512 18.6712 431.824 20.4974 431.523 22.832ZM484.268 38.1719C483.924 38.0573 483.215 38 482.141 38H470.26C469.515 38 468.913 37.8854 468.455 37.6562C468.011 37.4128 467.789 36.9759 467.789 36.3457C467.789 35.9017 467.904 35.5365 468.133 35.25C468.648 35.3932 469.157 35.4648 469.658 35.4648C470.174 35.4648 470.596 35.4147 470.926 35.3145C471.255 35.1999 471.549 35.0065 471.807 34.7344C472.394 34.1185 472.688 33.166 472.688 31.877V10.4355C472.688 9.18945 472.186 8.39453 471.184 8.05078C470.897 7.95052 470.596 7.86458 470.281 7.79297C469.98 7.70703 469.687 7.62826 469.4 7.55664C469.128 7.4707 468.885 7.3776 468.67 7.27734C468.183 7.01953 467.939 6.66862 467.939 6.22461C467.939 5.63737 468.054 5.21484 468.283 4.95703C468.527 5.02865 468.777 5.06445 469.035 5.06445H490.777C492.066 5.06445 492.861 5.1862 493.162 5.42969C493.692 5.83073 493.957 6.77604 493.957 8.26562C493.957 9.69792 493.842 10.8438 493.613 11.7031C493.384 12.5482 493.212 13.0638 493.098 13.25C492.911 13.5651 492.639 13.7227 492.281 13.7227C491.694 13.7227 491.271 13.6224 491.014 13.4219C490.77 13.2214 490.648 13.0781 490.648 12.9922C490.505 10.9583 490.133 9.59049 489.531 8.88867C488.887 8.11523 487.59 7.72852 485.643 7.72852H481.518C479.985 7.72852 479.025 7.86458 478.639 8.13672C478.266 8.39453 478.03 8.70247 477.93 9.06055C477.829 9.4043 477.772 9.84831 477.758 10.3926V20.2969H478.768C482.219 20.2969 485.242 20.0247 487.834 19.4805C488.35 19.6953 488.607 20.4688 488.607 21.8008C488.607 22.4883 488.479 23.1328 488.221 23.7344C487.29 23.8203 486.287 23.8633 485.213 23.8633C484.139 23.8633 482.979 23.7988 481.732 23.6699L477.758 23.2402V32.9297C477.758 34.1615 478.725 34.8919 480.658 35.1211C482.262 35.3216 483.258 35.5221 483.645 35.7227C484.046 35.9089 484.303 36.0951 484.418 36.2812C484.533 36.4531 484.59 36.668 484.59 36.9258C484.59 37.4557 484.482 37.8711 484.268 38.1719ZM511.639 35.2715C509.548 37.3626 507.02 38.4082 504.055 38.4082C501.763 38.4082 499.93 37.7493 498.555 36.4316C497.165 35.0996 496.471 33.3737 496.471 31.2539C496.471 28.6185 497.645 26.6419 499.994 25.3242C502.114 24.1211 505.1 23.5195 508.953 23.5195H511.639C511.653 22.9753 511.66 22.4453 511.66 21.9297V20.3184C511.66 18.3991 511.381 17.0456 510.822 16.2578C510.192 15.3698 509.118 14.9258 507.6 14.9258C504.119 14.9258 502.329 16.1719 502.229 18.6641C502.214 19.0508 502.221 19.373 502.25 19.6309C501.964 19.86 501.477 19.9746 500.789 19.9746C500.116 19.9746 499.622 19.8958 499.307 19.7383C499.006 19.5807 498.741 19.3659 498.512 19.0938C498.025 18.5352 497.781 17.8262 497.781 16.9668C497.781 16.0931 498.032 15.334 498.533 14.6895C499.049 14.0306 499.743 13.4935 500.617 13.0781C502.322 12.2331 504.334 11.8105 506.654 11.8105C508.975 11.8105 510.715 12.0397 511.875 12.498C513.049 12.9421 513.98 13.5365 514.668 14.2812C515.885 15.599 516.494 17.3678 516.494 19.5879L516.279 29.9004C516.279 31.7767 516.365 32.9655 516.537 33.4668C516.723 33.9681 516.938 34.3047 517.182 34.4766C517.439 34.6484 517.747 34.7344 518.105 34.7344C518.478 34.7344 518.779 34.6771 519.008 34.5625L519.609 34.2832C519.81 34.2116 519.982 34.2975 520.125 34.541C520.283 34.7702 520.361 34.9779 520.361 35.1641C520.361 35.3359 520.283 35.5651 520.125 35.8516C519.982 36.138 519.702 36.446 519.287 36.7754C518.886 37.0905 518.428 37.3698 517.912 37.6133C515.062 38.9596 513.121 38.6445 512.09 36.668C511.875 36.2812 511.725 35.8158 511.639 35.2715ZM511.574 32.457C511.574 30.3945 511.589 28.3464 511.617 26.3125C508.638 26.4271 506.611 26.6204 505.537 26.8926C504.477 27.1504 503.711 27.401 503.238 27.6445C502.766 27.888 502.393 28.1745 502.121 28.5039C501.677 29.0482 501.455 29.8717 501.455 30.9746C501.455 32.0632 501.842 32.9368 502.615 33.5957C503.389 34.2402 504.499 34.5625 505.945 34.5625C507.993 34.5625 509.87 33.8607 511.574 32.457ZM538.688 19.6523L538.709 18.8789C538.709 18.6068 538.645 18.1484 538.516 17.5039C538.387 16.8451 537.971 16.3079 537.27 15.8926C536.582 15.4772 535.701 15.2695 534.627 15.2695C533.567 15.2695 532.622 15.5417 531.791 16.0859C530.975 16.6159 530.309 17.332 529.793 18.2344C528.819 19.9531 528.332 22.252 528.332 25.1309C528.332 27.8522 528.991 30.0651 530.309 31.7695C531.655 33.5169 533.431 34.3906 535.637 34.3906C537.642 34.3906 539.561 33.8392 541.395 32.7363C541.839 32.4642 542.182 32.2279 542.426 32.0273C542.569 32.0273 542.734 32.1419 542.92 32.3711C543.278 32.7865 543.457 33.123 543.457 33.3809C543.457 33.6243 543.357 33.9108 543.156 34.2402C542.956 34.5553 542.662 34.8991 542.275 35.2715C541.903 35.6296 541.452 35.9948 540.922 36.3672C540.392 36.7396 539.798 37.0762 539.139 37.377C537.635 38.0645 536.095 38.4082 534.52 38.4082C532.944 38.4082 531.469 38.1432 530.094 37.6133C528.733 37.069 527.559 36.2741 526.57 35.2285C524.451 33.0085 523.391 29.9577 523.391 26.0762C523.391 21.6647 524.737 18.1198 527.43 15.4414C529.879 13.0208 532.708 11.8105 535.916 11.8105C538.021 11.8105 539.776 12.2617 541.18 13.1641C542.655 14.1094 543.393 15.3555 543.393 16.9023C543.393 17.7474 543.206 18.3848 542.834 18.8145C542.189 19.5736 541.438 19.9531 540.578 19.9531C539.733 19.9531 539.103 19.8529 538.688 19.6523ZM547.625 26.4414C547.625 24.7083 547.804 23.1686 548.162 21.8223C548.52 20.4759 549 19.2728 549.602 18.2129C550.217 17.1387 550.934 16.2005 551.75 15.3984C552.581 14.5964 553.469 13.9303 554.414 13.4004C556.276 12.3405 558.109 11.8105 559.914 11.8105C561.719 11.8105 563.165 12.1328 564.254 12.7773C565.342 13.4076 566.23 14.2526 566.918 15.3125C568.193 17.332 568.83 20.0176 568.83 23.3691C568.83 24.6152 568.307 25.2526 567.262 25.2812L552.266 25.6035C552.352 28.7116 553.154 31.0104 554.672 32.5C555.961 33.7604 557.63 34.3906 559.678 34.3906C562.729 34.3906 565.206 33.7533 567.111 32.4785C567.24 32.4785 567.398 32.5859 567.584 32.8008C567.942 33.2305 568.121 33.6029 568.121 33.918C568.121 34.6055 567.262 35.4863 565.543 36.5605C563.566 37.7923 561.26 38.4082 558.625 38.4082C555.188 38.4082 552.488 37.3125 550.525 35.1211C548.592 32.9727 547.625 30.0794 547.625 26.4414ZM552.395 22.832C556.52 22.6315 560.294 22.3665 563.717 22.0371C563.874 17.4824 562.299 15.2051 558.99 15.2051C557.143 15.2051 555.632 15.9212 554.457 17.3535C553.383 18.6712 552.695 20.4974 552.395 22.832Z" fill="#333333"/>
</svg>
