<svg width="474" height="27" viewBox="0 0 474 27" fill="none" xmlns="http://www.w3.org/2000/svg">
<path d="M8.02734 25C6.98828 25 6.46875 24.6582 6.46875 23.9746C6.46875 23.6647 6.53711 23.4232 6.67383 23.25C7.02018 23.3411 7.36198 23.3867 7.69922 23.3867C8.04557 23.3867 8.32812 23.3639 8.54688 23.3184C8.77474 23.2728 8.97526 23.1771 9.14844 23.0312C9.50391 22.7031 9.69076 22.1107 9.70898 21.2539V17.8086L3.11914 6.87109C2.75456 6.27865 2.44922 5.92318 2.20312 5.80469C1.95703 5.67708 1.76107 5.59049 1.61523 5.54492C1.47852 5.49935 1.35547 5.4401 1.24609 5.36719C0.990885 5.22135 0.863281 5.02083 0.863281 4.76562C0.863281 4.39193 0.936198 4.11393 1.08203 3.93164C1.29167 4.00456 1.74284 4.04102 2.43555 4.04102H7.37109C8.26432 4.04102 8.82943 4.18685 9.06641 4.47852C9.1849 4.61523 9.24414 4.82487 9.24414 5.10742C9.24414 5.38086 9.15755 5.61328 8.98438 5.80469C8.67448 5.71354 8.32812 5.66797 7.94531 5.66797C7.1888 5.66797 6.81055 5.95964 6.81055 6.54297C6.81055 6.96224 6.9974 7.47266 7.37109 8.07422L11.7598 15.6484C12.8809 13.7799 13.6966 12.3809 14.207 11.4512L15.4922 9.04492C16.0846 7.89648 16.4036 7.22656 16.4492 7.03516C16.4948 6.83464 16.5176 6.67513 16.5176 6.55664C16.5176 6.43815 16.4811 6.33333 16.4082 6.24219C16.3444 6.15104 16.2578 6.07812 16.1484 6.02344C16.0391 5.95964 15.916 5.91406 15.7793 5.88672C15.6426 5.85026 15.4785 5.80924 15.2871 5.76367C15.0957 5.7181 14.8906 5.67253 14.6719 5.62695C14.4531 5.58138 14.2617 5.52214 14.0977 5.44922C13.7331 5.29427 13.5508 5.03906 13.5508 4.68359C13.5508 4.31901 13.6191 4.06836 13.7559 3.93164C13.9655 4.00456 14.4167 4.04102 15.1094 4.04102H19.8398C20.6693 4.04102 21.1979 4.19141 21.4258 4.49219C21.526 4.62891 21.5762 4.79297 21.5762 4.98438C21.5762 5.34896 21.4941 5.6224 21.3301 5.80469C21.0202 5.71354 20.7559 5.66797 20.5371 5.66797C20.3184 5.66797 20.1224 5.73633 19.9492 5.87305C19.776 6.00977 19.6074 6.19661 19.4434 6.43359C19.2884 6.67057 19.1289 6.94401 18.9648 7.25391C18.4544 8.25651 18.0534 9.01758 17.7617 9.53711C14.8633 14.459 13.3685 17.0065 13.2773 17.1797L12.9355 17.7539V21.7734C12.9355 22.5573 13.3685 23.0221 14.2344 23.168C15.2734 23.332 15.8887 23.4733 16.0801 23.5918C16.4082 23.7741 16.5723 24.0339 16.5723 24.3711C16.5723 24.681 16.4993 24.9271 16.3535 25.1094C16.1439 25.0365 15.6927 25 15 25H8.02734ZM22.6973 17.4531C22.6973 16.3411 22.8066 15.3431 23.0254 14.459C23.2441 13.5749 23.5449 12.7956 23.9277 12.1211C24.3105 11.4466 24.7617 10.8724 25.2812 10.3984C25.8008 9.91536 26.3568 9.52344 26.9492 9.22266C28.1068 8.63021 29.3783 8.33398 30.7637 8.33398C32.541 8.33398 34.0495 8.98112 35.2891 10.2754C36.6654 11.6973 37.3535 13.5749 37.3535 15.9082C37.3535 18.9707 36.5195 21.3542 34.8516 23.0586C33.4023 24.526 31.666 25.2598 29.6426 25.2598C27.528 25.2598 25.8327 24.5169 24.5566 23.0312C23.3171 21.6003 22.6973 19.7409 22.6973 17.4531ZM30.4492 23.0312C31.0599 23.0312 31.6068 22.89 32.0898 22.6074C32.5729 22.3158 32.9831 21.9193 33.3203 21.418C33.9948 20.3789 34.332 19.0299 34.332 17.3711C34.332 15.5482 33.9766 13.9987 33.2656 12.7227C32.4635 11.2552 31.3105 10.5215 29.8066 10.5215C28.5944 10.5215 27.6237 10.9863 26.8945 11.916C26.1198 12.9004 25.7324 14.2767 25.7324 16.0449C25.7324 18.2598 26.2201 20.0098 27.1953 21.2949C28.0703 22.4525 29.1549 23.0312 30.4492 23.0312ZM41.3457 12.832C41.3457 12.3125 41.3047 11.8978 41.2227 11.5879C41.1497 11.2689 40.9948 11.1094 40.7578 11.1094C40.5846 11.1094 40.4479 11.1276 40.3477 11.1641L40.0195 11.3008C39.9557 11.319 39.8783 11.2826 39.7871 11.1914C39.6139 11 39.5273 10.8268 39.5273 10.6719C39.5273 10.5078 39.5775 10.3392 39.6777 10.166C39.7871 9.98372 39.9466 9.77865 40.1562 9.55078C40.375 9.32292 40.6211 9.1224 40.8945 8.94922C41.5143 8.53906 42.0749 8.33398 42.5762 8.33398C43.0775 8.33398 43.4329 8.42057 43.6426 8.59375C43.8522 8.76693 44.0117 8.99479 44.1211 9.27734C44.3034 9.73307 44.3945 10.4212 44.3945 11.3418V19.9004C44.3945 21.4408 44.8594 22.3021 45.7891 22.4844C46.0716 22.5391 46.4043 22.5664 46.7871 22.5664C47.179 22.5664 47.5938 22.5163 48.0312 22.416C48.4779 22.3158 48.9017 22.1836 49.3027 22.0195C50.0775 21.7005 50.7611 21.2949 51.3535 20.8027V12.832C51.3535 11.9661 51.1986 11.4329 50.8887 11.2324C50.7611 11.1504 50.5924 11.1094 50.3828 11.1094C50.1732 11.1094 50.0046 11.1413 49.877 11.2051C49.7585 11.2689 49.6582 11.3145 49.5762 11.3418C49.5033 11.3691 49.4395 11.3691 49.3848 11.3418C49.3301 11.3053 49.2708 11.2552 49.207 11.1914C49.0703 11.0365 49.002 10.8815 49.002 10.7266C49.002 10.5716 49.0566 10.4076 49.166 10.2344C49.2845 10.0521 49.4714 9.84701 49.7266 9.61914C49.9818 9.38216 50.2734 9.16797 50.6016 8.97656C51.3398 8.54818 52.0781 8.33398 52.8164 8.33398C53.7096 8.33398 54.2201 8.96745 54.3477 10.2344C54.3841 10.5898 54.4023 10.959 54.4023 11.3418V19.4355C54.4023 20.8392 54.457 21.7142 54.5664 22.0605C54.6758 22.4069 54.8079 22.6348 54.9629 22.7441C55.1178 22.8444 55.3092 22.8945 55.5371 22.8945C55.765 22.8945 55.9518 22.8581 56.0977 22.7852L56.5078 22.6074C56.6263 22.5801 56.7311 22.6348 56.8223 22.7715C57.0137 23.054 57.041 23.3092 56.9043 23.5371C56.7676 23.765 56.5534 23.9837 56.2617 24.1934C55.9792 24.403 55.6602 24.5853 55.3047 24.7402C53.7279 25.4329 52.6068 25.4193 51.9414 24.6992C51.5951 24.3255 51.3991 23.7331 51.3535 22.9219C50.0137 23.9518 48.6419 24.6628 47.2383 25.0547C46.7279 25.1914 46.1901 25.2598 45.625 25.2598C45.069 25.2598 44.5221 25.1823 43.9844 25.0273C43.4557 24.8724 42.9954 24.6217 42.6035 24.2754C41.765 23.5371 41.3457 22.3978 41.3457 20.8574V12.832ZM66.4746 25.0684C66.2832 25.0228 65.9915 25 65.5996 25H60.9648C60.0898 25 59.5293 24.8451 59.2832 24.5352C59.1829 24.4167 59.1328 24.2799 59.1328 24.125C59.1328 23.7422 59.2057 23.4596 59.3516 23.2773C59.5703 23.3503 59.7708 23.3867 59.9531 23.3867C60.1445 23.3867 60.304 23.3639 60.4316 23.3184C60.5592 23.2637 60.6595 23.1771 60.7324 23.0586C60.86 22.8398 60.9238 22.4115 60.9238 21.7734V12.832C60.9238 11.9753 60.7643 11.4421 60.4453 11.2324C60.3177 11.1504 60.1491 11.1094 59.9395 11.1094C59.7298 11.1094 59.5612 11.1413 59.4336 11.2051C59.3151 11.2689 59.2148 11.3145 59.1328 11.3418C59.0599 11.3691 58.9961 11.3691 58.9414 11.3418C58.8867 11.3053 58.832 11.2552 58.7773 11.1914C58.6406 11.0273 58.5723 10.8724 58.5723 10.7266C58.5723 10.5716 58.627 10.4076 58.7363 10.2344C58.8548 10.0521 59.0417 9.84701 59.2969 9.61914C59.5521 9.38216 59.8438 9.16797 60.1719 8.97656C60.9102 8.54818 61.6484 8.33398 62.3867 8.33398C63.2253 8.33398 63.722 8.88086 63.877 9.97461C63.9225 10.2936 63.9499 10.6263 63.959 10.9727C65.2897 9.79688 66.6615 8.99023 68.0742 8.55273C68.5482 8.4069 68.9766 8.33398 69.3594 8.33398C69.7513 8.33398 70.0703 8.38867 70.3164 8.49805C70.5716 8.60742 70.7721 8.75781 70.918 8.94922C71.1914 9.32292 71.3281 9.80143 71.3281 10.3848C71.3281 10.9681 71.3008 11.4329 71.2461 11.7793C71.1914 12.1257 71.123 12.431 71.041 12.6953C70.877 13.2331 70.722 13.5749 70.5762 13.7207C70.321 13.985 69.9792 14.1172 69.5508 14.1172C69.1133 14.1172 68.8945 13.9896 68.8945 13.7344C68.8945 12.7591 68.8535 12.1348 68.7715 11.8613C68.6165 11.36 68.3249 11.1094 67.8965 11.1094C67.4681 11.1094 67.0807 11.1595 66.7344 11.2598C66.388 11.3509 66.0508 11.4785 65.7227 11.6426C65.0573 11.9707 64.474 12.3945 63.9727 12.9141V22.0059C64 22.7259 64.3145 23.1634 64.916 23.3184C65.0892 23.3639 65.2852 23.4049 65.5039 23.4414C65.7227 23.4779 65.9095 23.5234 66.0645 23.5781C66.2285 23.6237 66.3561 23.6784 66.4473 23.7422C66.6022 23.8607 66.6797 24.0521 66.6797 24.3164C66.6797 24.6445 66.6113 24.8952 66.4746 25.0684ZM98.1934 18.916C98.4395 18.7064 98.6992 18.6016 98.9727 18.6016C99.3919 18.6016 99.6335 18.6608 99.6973 18.7793C100.053 19.4902 100.23 20.666 100.23 22.3066C100.23 23.446 100.103 24.2708 99.8477 24.7812C99.7656 24.9271 99.679 25 99.5879 25H84.4941C83.4095 25 82.8672 24.6764 82.8672 24.0293C82.8672 23.6829 82.9401 23.4186 83.0859 23.2363C83.3958 23.3275 83.6966 23.373 83.9883 23.373C84.2799 23.373 84.5306 23.3503 84.7402 23.3047C84.9499 23.2591 85.1458 23.1634 85.3281 23.0176C85.7656 22.6803 85.9844 22.1107 85.9844 21.3086V7.45898C85.9844 6.66602 85.6654 6.16016 85.0273 5.94141C84.8451 5.8776 84.6536 5.82292 84.4531 5.77734C84.2617 5.72266 84.0749 5.67253 83.8926 5.62695C83.7194 5.57227 83.5645 5.51302 83.4277 5.44922C83.1178 5.28516 82.9629 5.06185 82.9629 4.7793C82.9629 4.4056 83.0358 4.13672 83.1816 3.97266C83.3457 4.01823 83.5098 4.04102 83.6738 4.04102H97.6602C98.4987 4.04102 99.0228 4.11849 99.2324 4.27344C99.6152 4.54688 99.8066 5.14844 99.8066 6.07812C99.8066 6.97135 99.7292 7.70052 99.5742 8.26562C99.4284 8.83073 99.3236 9.16797 99.2598 9.27734C99.1686 9.44141 98.9909 9.52344 98.7266 9.52344C98.3438 9.52344 98.0794 9.47786 97.9336 9.38672C97.7969 9.28646 97.724 9.21354 97.7148 9.16797C97.5964 7.86458 97.3913 7.03516 97.0996 6.67969C96.8079 6.3151 96.4616 6.06901 96.0605 5.94141C95.6686 5.80469 95.1536 5.73633 94.5156 5.73633H91.4668C90.5007 5.73633 89.9082 5.83203 89.6895 6.02344C89.4798 6.21484 89.3477 6.43815 89.293 6.69336C89.2383 6.93945 89.2109 7.25846 89.2109 7.65039V13.4746L90.0176 13.4883C92.0319 13.4883 93.9004 13.3105 95.623 12.9551C95.7507 13.0189 95.8646 13.2012 95.9648 13.502C96.0651 13.7936 96.1152 14.0853 96.1152 14.377C96.1152 14.8691 96.0332 15.2975 95.8691 15.6621C95.2676 15.7168 94.5749 15.7441 93.791 15.7441C93.0072 15.7441 91.4805 15.6165 89.2109 15.3613V21.5273C89.2109 22.2109 89.3932 22.6712 89.7578 22.9082C90.0677 23.1087 90.6237 23.209 91.4258 23.209L93.4902 23.1543C95.4863 23.0814 96.7852 22.8034 97.3867 22.3203C97.724 22.0469 97.9473 21.6868 98.0566 21.2402C98.166 20.7936 98.2207 20.347 98.2207 19.9004C98.2207 19.4447 98.2116 19.1165 98.1934 18.916ZM102.951 23.7148C102.951 23.3776 103.106 22.9583 103.416 22.457C103.726 21.9466 104.141 21.3861 104.66 20.7754C105.189 20.1556 105.809 19.4902 106.52 18.7793L108.762 16.4961L105.959 12.3945C105.285 11.3828 104.656 10.877 104.072 10.877C103.826 10.877 103.612 10.918 103.43 11C103.257 11.0729 103.115 11.1094 103.006 11.1094C102.906 11.1094 102.824 11.0866 102.76 11.041C102.696 10.9954 102.641 10.9362 102.596 10.8633C102.413 10.5898 102.436 10.2845 102.664 9.94727C102.901 9.61003 103.156 9.33203 103.43 9.11328C104.095 8.59375 104.833 8.33398 105.645 8.33398C106.182 8.33398 106.579 8.41146 106.834 8.56641C107.29 8.83073 107.691 9.27734 108.037 9.90625L110.936 15.3066C112.148 14.0671 113.064 12.9141 113.684 11.8477C113.893 11.4375 113.998 11.0911 113.998 10.8086C113.998 10.3255 113.533 10.0293 112.604 9.91992C112.521 9.7832 112.48 9.63737 112.48 9.48242C112.48 9.32747 112.567 9.17708 112.74 9.03125C112.923 8.8763 113.146 8.7487 113.41 8.64844C113.939 8.4388 114.531 8.33398 115.188 8.33398C115.844 8.33398 116.363 8.48438 116.746 8.78516C117.138 9.07682 117.334 9.40951 117.334 9.7832C117.334 10.1478 117.252 10.5124 117.088 10.877C116.924 11.2415 116.701 11.6289 116.418 12.0391C116.135 12.4492 115.812 12.873 115.447 13.3105C115.083 13.748 114.7 14.181 114.299 14.6094C113.214 15.7305 112.426 16.5098 111.934 16.9473L114.846 21.1445C115.21 21.6549 115.538 22.0697 115.83 22.3887C116.131 22.6986 116.427 22.8535 116.719 22.8535C117.01 22.8535 117.247 22.8171 117.43 22.7441C117.831 22.5801 118.086 22.5755 118.195 22.7305C118.387 23.013 118.382 23.3275 118.182 23.6738C117.981 24.0111 117.758 24.2891 117.512 24.5078C116.928 25.0091 116.295 25.2598 115.611 25.2598C114.253 25.2598 113.287 24.681 112.713 23.5234L109.732 18.1641C108.137 19.8685 107.13 21.263 106.711 22.3477C106.629 22.5391 106.588 22.7396 106.588 22.9492C106.588 23.1497 106.72 23.3229 106.984 23.4688C107.258 23.6055 107.59 23.6966 107.982 23.7422C108.074 23.8333 108.119 23.9701 108.119 24.1523C108.119 24.3346 108.037 24.4941 107.873 24.6309C107.709 24.7676 107.499 24.8815 107.244 24.9727C106.424 25.2643 105.544 25.3372 104.605 25.1914C103.503 25.0182 102.951 24.526 102.951 23.7148ZM129.762 13.3242L129.775 12.832C129.775 12.6589 129.734 12.3672 129.652 11.957C129.57 11.5378 129.306 11.196 128.859 10.9316C128.422 10.6673 127.861 10.5352 127.178 10.5352C126.503 10.5352 125.902 10.7083 125.373 11.0547C124.854 11.3919 124.43 11.8477 124.102 12.4219C123.482 13.5156 123.172 14.9785 123.172 16.8105C123.172 18.5423 123.591 19.9505 124.43 21.0352C125.286 22.1471 126.417 22.7031 127.82 22.7031C129.096 22.7031 130.318 22.3522 131.484 21.6504C131.767 21.4772 131.986 21.3268 132.141 21.1992C132.232 21.1992 132.337 21.2721 132.455 21.418C132.683 21.6823 132.797 21.8965 132.797 22.0605C132.797 22.2155 132.733 22.3978 132.605 22.6074C132.478 22.8079 132.291 23.0267 132.045 23.2637C131.808 23.4915 131.521 23.724 131.184 23.9609C130.846 24.1979 130.468 24.4121 130.049 24.6035C129.092 25.041 128.112 25.2598 127.109 25.2598C126.107 25.2598 125.168 25.0911 124.293 24.7539C123.427 24.4076 122.68 23.9017 122.051 23.2363C120.702 21.8236 120.027 19.8822 120.027 17.4121C120.027 14.6048 120.884 12.349 122.598 10.6445C124.156 9.10417 125.956 8.33398 127.998 8.33398C129.338 8.33398 130.454 8.62109 131.348 9.19531C132.286 9.79688 132.756 10.5898 132.756 11.5742C132.756 12.112 132.637 12.5176 132.4 12.791C131.99 13.2741 131.512 13.5156 130.965 13.5156C130.427 13.5156 130.026 13.4518 129.762 13.3242ZM137.842 25C136.447 25 135.75 24.681 135.75 24.043C135.75 23.7057 135.818 23.4505 135.955 23.2773C136.174 23.3503 136.379 23.3867 136.57 23.3867C137.363 23.3867 137.773 22.9082 137.801 21.9512V4.83398C137.801 4.19596 137.737 3.79036 137.609 3.61719C137.4 3.32552 137.062 3.17969 136.598 3.17969C136.388 3.17969 136.183 3.20247 135.982 3.24805C135.791 3.28451 135.654 3.28451 135.572 3.24805C135.499 3.20247 135.44 3.14323 135.395 3.07031C135.212 2.76953 135.44 2.38672 136.078 1.92188C137.081 1.18359 138.07 0.814453 139.045 0.814453C140.084 0.814453 140.667 1.375 140.795 2.49609C140.831 2.83333 140.85 3.1888 140.85 3.5625V22.0059C140.877 22.7168 141.137 23.1543 141.629 23.3184C141.775 23.3639 141.943 23.4049 142.135 23.4414C142.335 23.4779 142.518 23.5234 142.682 23.5781C142.846 23.6237 142.973 23.6784 143.064 23.7422C143.219 23.8607 143.297 24.0521 143.297 24.3164C143.297 24.6354 143.224 24.8861 143.078 25.0684C142.896 25.0228 142.604 25 142.203 25H137.842ZM146.4 12.832C146.4 12.3125 146.359 11.8978 146.277 11.5879C146.204 11.2689 146.049 11.1094 145.812 11.1094C145.639 11.1094 145.503 11.1276 145.402 11.1641L145.074 11.3008C145.01 11.319 144.933 11.2826 144.842 11.1914C144.669 11 144.582 10.8268 144.582 10.6719C144.582 10.5078 144.632 10.3392 144.732 10.166C144.842 9.98372 145.001 9.77865 145.211 9.55078C145.43 9.32292 145.676 9.1224 145.949 8.94922C146.569 8.53906 147.13 8.33398 147.631 8.33398C148.132 8.33398 148.488 8.42057 148.697 8.59375C148.907 8.76693 149.066 8.99479 149.176 9.27734C149.358 9.73307 149.449 10.4212 149.449 11.3418V19.9004C149.449 21.4408 149.914 22.3021 150.844 22.4844C151.126 22.5391 151.459 22.5664 151.842 22.5664C152.234 22.5664 152.648 22.5163 153.086 22.416C153.533 22.3158 153.956 22.1836 154.357 22.0195C155.132 21.7005 155.816 21.2949 156.408 20.8027V12.832C156.408 11.9661 156.253 11.4329 155.943 11.2324C155.816 11.1504 155.647 11.1094 155.438 11.1094C155.228 11.1094 155.059 11.1413 154.932 11.2051C154.813 11.2689 154.713 11.3145 154.631 11.3418C154.558 11.3691 154.494 11.3691 154.439 11.3418C154.385 11.3053 154.326 11.2552 154.262 11.1914C154.125 11.0365 154.057 10.8815 154.057 10.7266C154.057 10.5716 154.111 10.4076 154.221 10.2344C154.339 10.0521 154.526 9.84701 154.781 9.61914C155.036 9.38216 155.328 9.16797 155.656 8.97656C156.395 8.54818 157.133 8.33398 157.871 8.33398C158.764 8.33398 159.275 8.96745 159.402 10.2344C159.439 10.5898 159.457 10.959 159.457 11.3418V19.4355C159.457 20.8392 159.512 21.7142 159.621 22.0605C159.73 22.4069 159.863 22.6348 160.018 22.7441C160.173 22.8444 160.364 22.8945 160.592 22.8945C160.82 22.8945 161.007 22.8581 161.152 22.7852L161.562 22.6074C161.681 22.5801 161.786 22.6348 161.877 22.7715C162.068 23.054 162.096 23.3092 161.959 23.5371C161.822 23.765 161.608 23.9837 161.316 24.1934C161.034 24.403 160.715 24.5853 160.359 24.7402C158.783 25.4329 157.661 25.4193 156.996 24.6992C156.65 24.3255 156.454 23.7331 156.408 22.9219C155.068 23.9518 153.697 24.6628 152.293 25.0547C151.783 25.1914 151.245 25.2598 150.68 25.2598C150.124 25.2598 149.577 25.1823 149.039 25.0273C148.51 24.8724 148.05 24.6217 147.658 24.2754C146.82 23.5371 146.4 22.3978 146.4 20.8574V12.832ZM173.348 13.1875C173.348 11.7839 172.764 10.8542 171.598 10.3984C171.224 10.2526 170.818 10.1797 170.381 10.1797C169.952 10.1797 169.551 10.2161 169.178 10.2891C168.813 10.362 168.49 10.4759 168.207 10.6309C167.569 10.9772 167.25 11.474 167.25 12.1211C167.25 12.7409 167.514 13.2786 168.043 13.7344C168.626 14.2174 169.711 14.8145 171.297 15.5254C172.883 16.2272 174.104 16.9974 174.961 17.8359C175.827 18.6654 176.26 19.6224 176.26 20.707C176.26 21.9284 175.758 22.9583 174.756 23.7969C173.58 24.7721 171.953 25.2598 169.875 25.2598C167.332 25.2598 165.573 24.7174 164.598 23.6328C164.26 23.25 164.092 22.7624 164.092 22.1699C164.092 20.7389 164.443 19.9049 165.145 19.668C165.318 19.6133 165.482 19.5859 165.637 19.5859C166.065 19.5859 166.298 19.7181 166.334 19.9824C166.535 22.2611 167.811 23.4004 170.162 23.4004C171.575 23.4004 172.518 23.0039 172.992 22.2109C173.147 21.9557 173.225 21.6458 173.225 21.2812C173.225 20.9167 173.106 20.584 172.869 20.2832C172.641 19.9824 172.322 19.7044 171.912 19.4492C171.502 19.1849 171.014 18.9297 170.449 18.6836L168.631 17.8633C165.842 16.5872 164.447 14.8919 164.447 12.7773C164.447 11.4102 165.053 10.3164 166.266 9.49609C167.414 8.72135 168.895 8.33398 170.709 8.33398C173.17 8.33398 174.701 8.86719 175.303 9.93359C175.458 10.207 175.535 10.5078 175.535 10.8359C175.535 11.1641 175.517 11.4603 175.48 11.7246C175.444 11.9798 175.398 12.2122 175.344 12.4219C175.253 12.8229 175.148 13.1055 175.029 13.2695C174.792 13.4427 174.451 13.5293 174.004 13.5293C173.566 13.5293 173.348 13.4154 173.348 13.1875ZM182.385 5.79102C182.075 5.79102 181.788 5.74544 181.523 5.6543C181.268 5.55404 181.045 5.41276 180.854 5.23047C180.452 4.84766 180.252 4.33268 180.252 3.68555C180.252 3.06576 180.489 2.54167 180.963 2.11328C181.419 1.6849 181.965 1.4707 182.604 1.4707C183.242 1.4707 183.752 1.66211 184.135 2.04492C184.518 2.42773 184.709 2.94727 184.709 3.60352C184.709 4.22331 184.481 4.7474 184.025 5.17578C183.579 5.58594 183.032 5.79102 182.385 5.79102ZM181.551 25C180.147 25 179.445 24.681 179.445 24.043C179.445 23.7148 179.518 23.4596 179.664 23.2773C179.883 23.3503 180.083 23.3867 180.266 23.3867C181.113 23.3867 181.528 22.849 181.51 21.7734V12.6133C181.51 11.9753 181.419 11.5332 181.236 11.2871C181.063 11.0319 180.749 10.9043 180.293 10.9043C179.956 10.9043 179.65 10.9453 179.377 11.0273C179.213 11.0456 179.094 10.918 179.021 10.6445C178.958 10.3984 178.994 10.1842 179.131 10.002C179.268 9.81055 179.477 9.61458 179.76 9.41406C180.051 9.20443 180.37 9.02214 180.717 8.86719C181.464 8.51172 182.089 8.33398 182.59 8.33398C183.091 8.33398 183.46 8.4069 183.697 8.55273C183.943 8.69857 184.13 8.89453 184.258 9.14062C184.458 9.54167 184.559 10.1888 184.559 11.082V22.0059C184.586 22.7259 184.846 23.1634 185.338 23.3184C185.475 23.3639 185.643 23.4049 185.844 23.4414C186.044 23.4779 186.222 23.5234 186.377 23.5781C186.541 23.6237 186.669 23.6784 186.76 23.7422C186.915 23.8607 186.992 24.0521 186.992 24.3164C186.992 24.6445 186.924 24.8952 186.787 25.0684C186.596 25.0228 186.304 25 185.912 25H181.551ZM194.061 24.3301C191.016 16.3822 189.449 12.2806 189.357 12.0254C189.266 11.7611 189.171 11.5195 189.07 11.3008C188.842 10.7904 188.637 10.5352 188.455 10.5352C188.337 10.5352 188.204 10.5488 188.059 10.5762C187.913 10.6035 187.794 10.5534 187.703 10.4258C187.612 10.2982 187.566 10.1387 187.566 9.94727C187.566 9.75586 187.653 9.5599 187.826 9.35938C188.008 9.15885 188.232 8.98568 188.496 8.83984C189.07 8.5026 189.526 8.33398 189.863 8.33398C190.201 8.33398 190.469 8.3431 190.67 8.36133C190.87 8.37956 191.057 8.44792 191.23 8.56641C191.595 8.80339 191.9 9.3138 192.146 10.0977L196.152 22.0469C196.79 20.7617 197.264 19.7773 197.574 19.0938L198.422 17.0977C199.443 14.582 199.953 12.8138 199.953 11.793V11.6152C199.953 11.1595 199.848 10.7995 199.639 10.5352C199.438 10.2708 199.078 10.1113 198.559 10.0566C198.467 9.91081 198.422 9.76042 198.422 9.60547C198.422 9.44141 198.508 9.2819 198.682 9.12695C198.864 8.96289 199.092 8.82161 199.365 8.70312C199.93 8.45703 200.546 8.33398 201.211 8.33398C201.885 8.33398 202.405 8.4388 202.77 8.64844C203.143 8.84896 203.33 9.25 203.33 9.85156C203.33 11.1276 202.464 13.666 200.732 17.4668L199.488 20.0781C198.632 21.8099 197.984 22.9857 197.547 23.6055C196.763 24.7083 196.075 25.2598 195.482 25.2598C195.054 25.2598 194.671 25.0911 194.334 24.7539C194.215 24.6354 194.124 24.4941 194.061 24.3301ZM205.859 17.6445C205.859 16.5417 205.973 15.5618 206.201 14.7051C206.429 13.8483 206.734 13.0827 207.117 12.4082C207.509 11.7246 207.965 11.1276 208.484 10.6172C209.013 10.1068 209.578 9.68294 210.18 9.3457C211.365 8.67122 212.531 8.33398 213.68 8.33398C214.828 8.33398 215.749 8.53906 216.441 8.94922C217.134 9.35026 217.699 9.88802 218.137 10.5625C218.948 11.8477 219.354 13.5566 219.354 15.6895C219.354 16.4824 219.021 16.888 218.355 16.9062L208.812 17.1113C208.867 19.0892 209.378 20.5521 210.344 21.5C211.164 22.3021 212.226 22.7031 213.529 22.7031C215.471 22.7031 217.048 22.2975 218.26 21.4863C218.342 21.4863 218.442 21.5547 218.561 21.6914C218.788 21.9648 218.902 22.2018 218.902 22.4023C218.902 22.8398 218.355 23.4004 217.262 24.084C216.004 24.8678 214.536 25.2598 212.859 25.2598C210.672 25.2598 208.954 24.5625 207.705 23.168C206.475 21.8008 205.859 19.9596 205.859 17.6445ZM208.895 15.3477C211.52 15.2201 213.921 15.0514 216.1 14.8418C216.2 11.9434 215.197 10.4941 213.092 10.4941C211.916 10.4941 210.954 10.9499 210.207 11.8613C209.523 12.6999 209.086 13.862 208.895 15.3477ZM240.777 25.1094C240.568 25.0365 240.117 25 239.424 25H233.723C233.249 25 232.87 24.9271 232.588 24.7812C232.305 24.6263 232.164 24.3483 232.164 23.9473C232.164 23.6556 232.232 23.4232 232.369 23.25C232.734 23.3411 233.071 23.3867 233.381 23.3867C233.691 23.3867 233.937 23.3548 234.119 23.291C234.301 23.2181 234.461 23.0951 234.598 22.9219C234.871 22.5573 235.008 21.9512 235.008 21.1035V7.11719C234.98 6.47917 234.771 6.07357 234.379 5.90039C234.26 5.8457 234.096 5.79557 233.887 5.75L233.23 5.61328C232.784 5.50391 232.51 5.37174 232.41 5.2168C232.31 5.05273 232.26 4.88867 232.26 4.72461C232.26 4.38737 232.328 4.12305 232.465 3.93164C232.674 4.00456 233.126 4.04102 233.818 4.04102H239.383C239.857 4.04102 240.235 4.11849 240.518 4.27344C240.809 4.41927 240.955 4.69271 240.955 5.09375C240.955 5.39453 240.882 5.62695 240.736 5.79102C240.39 5.69987 240.012 5.6543 239.602 5.6543C238.717 5.6543 238.262 6.37435 238.234 7.81445V13.8574H249.172V7.11719C249.145 6.47917 248.935 6.07357 248.543 5.90039C248.424 5.8457 248.26 5.79557 248.051 5.75L247.395 5.61328C246.948 5.50391 246.674 5.37174 246.574 5.2168C246.474 5.05273 246.424 4.88867 246.424 4.72461C246.424 4.36003 246.492 4.0957 246.629 3.93164C246.839 4.00456 247.29 4.04102 247.982 4.04102H253.547C254.021 4.04102 254.399 4.11849 254.682 4.27344C254.973 4.41927 255.119 4.69271 255.119 5.09375C255.119 5.39453 255.046 5.62695 254.9 5.79102C254.554 5.69987 254.176 5.6543 253.766 5.6543C252.882 5.6543 252.426 6.37435 252.398 7.81445V21.7734C252.398 22.2839 252.476 22.6211 252.631 22.7852C252.859 23.0312 253.141 23.1908 253.479 23.2637C253.816 23.3275 254.094 23.3867 254.312 23.4414C254.531 23.487 254.714 23.5462 254.859 23.6191C255.151 23.765 255.297 24.0111 255.297 24.3574C255.297 24.6764 255.224 24.9271 255.078 25.1094C254.868 25.0365 254.417 25 253.725 25H248.023C247.549 25 247.171 24.9271 246.889 24.7812C246.606 24.6263 246.465 24.3483 246.465 23.9473C246.465 23.6556 246.533 23.4232 246.67 23.25C247.016 23.3411 247.34 23.3867 247.641 23.3867C247.941 23.3867 248.174 23.3548 248.338 23.291C248.502 23.2272 248.643 23.1133 248.762 22.9492C249.017 22.612 249.154 22.0423 249.172 21.2402V15.7441H238.234V21.7734C238.234 22.4935 238.435 22.9492 238.836 23.1406C238.964 23.1953 239.137 23.2454 239.355 23.291C239.574 23.3366 239.788 23.3867 239.998 23.4414C240.217 23.487 240.399 23.5462 240.545 23.6191C240.846 23.7741 240.996 24.0202 240.996 24.3574C240.996 24.6764 240.923 24.9271 240.777 25.1094ZM258.113 17.6445C258.113 16.5417 258.227 15.5618 258.455 14.7051C258.683 13.8483 258.988 13.0827 259.371 12.4082C259.763 11.7246 260.219 11.1276 260.738 10.6172C261.267 10.1068 261.832 9.68294 262.434 9.3457C263.618 8.67122 264.785 8.33398 265.934 8.33398C267.082 8.33398 268.003 8.53906 268.695 8.94922C269.388 9.35026 269.953 9.88802 270.391 10.5625C271.202 11.8477 271.607 13.5566 271.607 15.6895C271.607 16.4824 271.275 16.888 270.609 16.9062L261.066 17.1113C261.121 19.0892 261.632 20.5521 262.598 21.5C263.418 22.3021 264.48 22.7031 265.783 22.7031C267.725 22.7031 269.301 22.2975 270.514 21.4863C270.596 21.4863 270.696 21.5547 270.814 21.6914C271.042 21.9648 271.156 22.2018 271.156 22.4023C271.156 22.8398 270.609 23.4004 269.516 24.084C268.258 24.8678 266.79 25.2598 265.113 25.2598C262.926 25.2598 261.208 24.5625 259.959 23.168C258.729 21.8008 258.113 19.9596 258.113 17.6445ZM261.148 15.3477C263.773 15.2201 266.175 15.0514 268.354 14.8418C268.454 11.9434 267.451 10.4941 265.346 10.4941C264.17 10.4941 263.208 10.9499 262.461 11.8613C261.777 12.6999 261.34 13.862 261.148 15.3477ZM284.322 23.2637C282.992 24.5944 281.383 25.2598 279.496 25.2598C278.038 25.2598 276.871 24.8405 275.996 24.002C275.112 23.1543 274.67 22.056 274.67 20.707C274.67 19.0299 275.417 17.7721 276.912 16.9336C278.261 16.168 280.161 15.7852 282.613 15.7852H284.322C284.331 15.4388 284.336 15.1016 284.336 14.7734V13.748C284.336 12.5267 284.158 11.6654 283.803 11.1641C283.402 10.599 282.718 10.3164 281.752 10.3164C279.537 10.3164 278.398 11.1094 278.334 12.6953C278.325 12.9414 278.329 13.1465 278.348 13.3105C278.165 13.4564 277.855 13.5293 277.418 13.5293C276.99 13.5293 276.675 13.4792 276.475 13.3789C276.283 13.2786 276.115 13.1419 275.969 12.9688C275.659 12.6133 275.504 12.1621 275.504 11.6152C275.504 11.0592 275.663 10.5762 275.982 10.166C276.311 9.74674 276.753 9.40495 277.309 9.14062C278.393 8.60286 279.674 8.33398 281.15 8.33398C282.627 8.33398 283.734 8.47982 284.473 8.77148C285.22 9.05404 285.812 9.43229 286.25 9.90625C287.025 10.7448 287.412 11.8704 287.412 13.2832L287.275 19.8457C287.275 21.0397 287.33 21.7962 287.439 22.1152C287.558 22.4342 287.695 22.6484 287.85 22.7578C288.014 22.8672 288.21 22.9219 288.438 22.9219C288.674 22.9219 288.866 22.8854 289.012 22.8125L289.395 22.6348C289.522 22.5892 289.632 22.6439 289.723 22.7988C289.823 22.9447 289.873 23.0768 289.873 23.1953C289.873 23.3047 289.823 23.4505 289.723 23.6328C289.632 23.8151 289.454 24.0111 289.189 24.2207C288.934 24.4212 288.643 24.599 288.314 24.7539C286.501 25.6107 285.266 25.4102 284.609 24.1523C284.473 23.9062 284.377 23.61 284.322 23.2637ZM284.281 21.4727C284.281 20.1602 284.29 18.8568 284.309 17.5625C282.413 17.6354 281.123 17.7585 280.439 17.9316C279.765 18.0957 279.277 18.2552 278.977 18.4102C278.676 18.5651 278.439 18.7474 278.266 18.957C277.983 19.3034 277.842 19.8275 277.842 20.5293C277.842 21.222 278.088 21.778 278.58 22.1973C279.072 22.6074 279.779 22.8125 280.699 22.8125C282.003 22.8125 283.197 22.3659 284.281 21.4727ZM294.111 25C292.717 25 292.02 24.681 292.02 24.043C292.02 23.7057 292.088 23.4505 292.225 23.2773C292.443 23.3503 292.648 23.3867 292.84 23.3867C293.633 23.3867 294.043 22.9082 294.07 21.9512V4.83398C294.07 4.19596 294.007 3.79036 293.879 3.61719C293.669 3.32552 293.332 3.17969 292.867 3.17969C292.658 3.17969 292.452 3.20247 292.252 3.24805C292.061 3.28451 291.924 3.28451 291.842 3.24805C291.769 3.20247 291.71 3.14323 291.664 3.07031C291.482 2.76953 291.71 2.38672 292.348 1.92188C293.35 1.18359 294.339 0.814453 295.314 0.814453C296.354 0.814453 296.937 1.375 297.064 2.49609C297.101 2.83333 297.119 3.1888 297.119 3.5625V22.0059C297.146 22.7168 297.406 23.1543 297.898 23.3184C298.044 23.3639 298.213 23.4049 298.404 23.4414C298.605 23.4779 298.787 23.5234 298.951 23.5781C299.115 23.6237 299.243 23.6784 299.334 23.7422C299.489 23.8607 299.566 24.0521 299.566 24.3164C299.566 24.6354 299.493 24.8861 299.348 25.0684C299.165 25.0228 298.874 25 298.473 25H294.111ZM306.211 15.6758L306.197 19.2715C306.197 20.7754 306.275 21.6823 306.43 21.9922C306.585 22.293 306.767 22.4753 306.977 22.5391C307.186 22.5938 307.455 22.6211 307.783 22.6211C308.111 22.6211 308.408 22.5983 308.672 22.5527C308.945 22.498 309.201 22.4297 309.438 22.3477C309.674 22.2656 309.902 22.1745 310.121 22.0742L310.791 21.7871C310.946 21.7324 311.119 21.8919 311.311 22.2656C311.365 22.3659 311.393 22.4844 311.393 22.6211C311.393 22.7487 311.338 22.9173 311.229 23.127C311.119 23.3366 310.905 23.5781 310.586 23.8516C310.276 24.1159 309.911 24.3529 309.492 24.5625C308.581 25.0273 307.76 25.2598 307.031 25.2598C306.311 25.2598 305.723 25.2188 305.268 25.1367C304.812 25.0547 304.424 24.8906 304.105 24.6445C303.449 24.1341 303.121 23.1999 303.121 21.8418V11.082H301.768C301.485 11.082 301.28 10.9909 301.152 10.8086C300.934 10.526 300.824 10.2891 300.824 10.0977C300.824 9.77865 300.902 9.60091 301.057 9.56445C302.506 9.31836 303.531 8.24284 304.133 6.33789C304.306 5.76367 304.443 5.08464 304.543 4.30078C304.98 4.22786 305.309 4.19141 305.527 4.19141C305.755 4.19141 305.951 4.30534 306.115 4.5332C306.279 4.76107 306.357 5.02539 306.348 5.32617C306.348 5.62695 306.343 5.90951 306.334 6.17383C306.325 6.43815 306.316 6.72526 306.307 7.03516L306.252 8.94922H310.982C311.101 9.15885 311.16 9.38216 311.16 9.61914V10.043C311.16 10.4258 310.955 10.7402 310.545 10.9863C310.135 11.2233 309.679 11.3418 309.178 11.3418C308.686 11.3418 308.33 11.3372 308.111 11.3281C307.902 11.3099 307.697 11.2917 307.496 11.2734L306.895 11.1914C306.685 11.1732 306.462 11.1549 306.225 11.1367V11.2871L306.211 15.6758ZM321.072 25.0684C320.89 25.0228 320.598 25 320.197 25H315.836C314.961 25 314.4 24.8451 314.154 24.5352C314.054 24.4167 314.004 24.2799 314.004 24.125C314.004 23.7422 314.077 23.4596 314.223 23.2773C314.441 23.3503 314.692 23.3867 314.975 23.3867C315.257 23.3867 315.467 23.2728 315.604 23.0449C315.74 22.8171 315.804 22.3932 315.795 21.7734V4.83398C315.795 4.20508 315.731 3.79948 315.604 3.61719C315.412 3.32552 315.075 3.17969 314.592 3.17969H314.318C314.236 3.17969 314.141 3.19336 314.031 3.2207C313.931 3.23893 313.844 3.22982 313.771 3.19336C313.699 3.14779 313.635 3.08854 313.58 3.01562C313.389 2.73307 313.607 2.35026 314.236 1.86719C315.157 1.16536 316.096 0.814453 317.053 0.814453C318.092 0.814453 318.675 1.375 318.803 2.49609C318.839 2.83333 318.857 3.1888 318.857 3.5625V11.0137C320.234 9.85612 321.706 9.04948 323.273 8.59375C323.848 8.42057 324.426 8.33398 325.01 8.33398C325.602 8.33398 326.163 8.41146 326.691 8.56641C327.229 8.72135 327.689 8.97201 328.072 9.31836C328.911 10.0658 329.33 11.2051 329.33 12.7363V21.9102C329.33 22.6667 329.585 23.1315 330.096 23.3047C330.242 23.3594 330.415 23.4049 330.615 23.4414C330.816 23.4779 330.993 23.5234 331.148 23.5781C331.312 23.6237 331.44 23.6784 331.531 23.7422C331.686 23.8607 331.764 24.0521 331.764 24.3164C331.764 24.6445 331.695 24.8952 331.559 25.0684C331.367 25.0228 331.076 25 330.684 25H326.322C325.447 25 324.887 24.8451 324.641 24.5352C324.54 24.4167 324.49 24.2799 324.49 24.125C324.49 23.7331 324.559 23.4505 324.695 23.2773C324.923 23.3503 325.169 23.3867 325.434 23.3867C325.698 23.3867 325.898 23.291 326.035 23.0996C326.181 22.9082 326.263 22.5573 326.281 22.0469V13.707C326.281 12.1576 325.821 11.2917 324.9 11.1094C324.618 11.0547 324.262 11.0273 323.834 11.0273C323.415 11.0273 322.95 11.0911 322.439 11.2188C321.938 11.3464 321.464 11.5104 321.018 11.7109C320.133 12.112 319.413 12.5905 318.857 13.1465V21.9102C318.857 22.6667 319.113 23.1315 319.623 23.3047C319.769 23.3594 319.942 23.4049 320.143 23.4414C320.343 23.4779 320.521 23.5234 320.676 23.5781C320.84 23.6237 320.967 23.6784 321.059 23.7422C321.214 23.8607 321.291 24.0521 321.291 24.3164C321.291 24.6354 321.218 24.8861 321.072 25.0684ZM357.904 25.1094C357.695 25.0365 357.243 25 356.551 25H348.73C348.257 25 347.874 24.9271 347.582 24.7812C347.299 24.6263 347.158 24.3483 347.158 23.9473C347.158 23.6647 347.231 23.4323 347.377 23.25C347.723 23.3411 348.051 23.3867 348.361 23.3867C348.671 23.3867 348.963 23.3548 349.236 23.291C349.51 23.2272 349.77 23.1133 350.016 22.9492C350.599 22.5755 350.909 22.0059 350.945 21.2402V6.03711H349.168C347.846 6.03711 346.98 6.10091 346.57 6.22852C346.169 6.34701 345.864 6.50195 345.654 6.69336C345.454 6.88477 345.29 7.14453 345.162 7.47266C344.934 8.03776 344.757 9.01302 344.629 10.3984C344.428 10.444 344.246 10.4668 344.082 10.4668C343.717 10.4668 343.485 10.3711 343.385 10.1797C343.285 9.98828 343.216 9.79232 343.18 9.5918C343.143 9.38216 343.116 9.1543 343.098 8.9082C343.061 8.41602 343.043 7.89193 343.043 7.33594C343.043 5.8138 343.161 4.84766 343.398 4.4375C343.635 4 344.109 3.78125 344.82 3.78125C344.957 3.78125 345.158 3.79492 345.422 3.82227C345.686 3.84961 346.069 3.88151 346.57 3.91797C347.928 4 349.555 4.04102 351.451 4.04102H353.762C356.405 4.04102 358.173 4 359.066 3.91797C359.96 3.82682 360.516 3.78125 360.734 3.78125C360.953 3.78125 361.154 3.81315 361.336 3.87695C361.518 3.94076 361.664 4.0319 361.773 4.15039C361.947 4.35091 362.033 4.60156 362.033 4.90234C362.033 5.35807 362.02 5.72266 361.992 5.99609C361.965 6.26953 361.933 6.5931 361.896 6.9668C361.869 7.34049 361.828 7.72786 361.773 8.12891C361.646 9.07682 361.486 9.72852 361.295 10.084C361.113 10.3392 360.889 10.4668 360.625 10.4668C360.37 10.4668 360.142 10.444 359.941 10.3984L359.955 9.53711C359.955 8.72591 359.91 8.08789 359.818 7.62305C359.727 7.14909 359.536 6.79818 359.244 6.57031C358.952 6.33333 358.533 6.1875 357.986 6.13281C357.439 6.06901 356.71 6.03711 355.799 6.03711H354.158V21.7734C354.158 22.4297 354.682 22.8854 355.73 23.1406C355.986 23.1953 356.227 23.2454 356.455 23.291C356.692 23.3366 356.92 23.3867 357.139 23.4414C357.357 23.487 357.54 23.5462 357.686 23.6191C357.977 23.765 358.123 24.0111 358.123 24.3574C358.123 24.6764 358.05 24.9271 357.904 25.1094ZM367.502 5.79102C367.192 5.79102 366.905 5.74544 366.641 5.6543C366.385 5.55404 366.162 5.41276 365.971 5.23047C365.57 4.84766 365.369 4.33268 365.369 3.68555C365.369 3.06576 365.606 2.54167 366.08 2.11328C366.536 1.6849 367.083 1.4707 367.721 1.4707C368.359 1.4707 368.869 1.66211 369.252 2.04492C369.635 2.42773 369.826 2.94727 369.826 3.60352C369.826 4.22331 369.598 4.7474 369.143 5.17578C368.696 5.58594 368.149 5.79102 367.502 5.79102ZM366.668 25C365.264 25 364.562 24.681 364.562 24.043C364.562 23.7148 364.635 23.4596 364.781 23.2773C365 23.3503 365.201 23.3867 365.383 23.3867C366.23 23.3867 366.645 22.849 366.627 21.7734V12.6133C366.627 11.9753 366.536 11.5332 366.354 11.2871C366.18 11.0319 365.866 10.9043 365.41 10.9043C365.073 10.9043 364.768 10.9453 364.494 11.0273C364.33 11.0456 364.212 10.918 364.139 10.6445C364.075 10.3984 364.111 10.1842 364.248 10.002C364.385 9.81055 364.594 9.61458 364.877 9.41406C365.169 9.20443 365.488 9.02214 365.834 8.86719C366.581 8.51172 367.206 8.33398 367.707 8.33398C368.208 8.33398 368.577 8.4069 368.814 8.55273C369.061 8.69857 369.247 8.89453 369.375 9.14062C369.576 9.54167 369.676 10.1888 369.676 11.082V22.0059C369.703 22.7259 369.963 23.1634 370.455 23.3184C370.592 23.3639 370.76 23.4049 370.961 23.4414C371.161 23.4779 371.339 23.5234 371.494 23.5781C371.658 23.6237 371.786 23.6784 371.877 23.7422C372.032 23.8607 372.109 24.0521 372.109 24.3164C372.109 24.6445 372.041 24.8952 371.904 25.0684C371.713 25.0228 371.421 25 371.029 25H366.668ZM381.488 25.0684C381.306 25.0228 381.014 25 380.613 25H376.252C375.377 25 374.816 24.8451 374.57 24.5352C374.47 24.4167 374.42 24.2799 374.42 24.125C374.42 23.7422 374.493 23.4596 374.639 23.2773C374.857 23.3503 375.104 23.3867 375.377 23.3867C375.66 23.3867 375.869 23.2728 376.006 23.0449C376.152 22.8171 376.22 22.3932 376.211 21.7734V12.832C376.211 11.9753 376.051 11.4421 375.732 11.2324C375.605 11.1504 375.436 11.1094 375.227 11.1094C375.017 11.1094 374.848 11.1413 374.721 11.2051C374.602 11.2689 374.502 11.3145 374.42 11.3418C374.347 11.3691 374.283 11.3691 374.229 11.3418C374.174 11.3053 374.119 11.2552 374.064 11.1914C373.928 11.0456 373.859 10.8952 373.859 10.7402C373.859 10.5762 373.914 10.4076 374.023 10.2344C374.142 10.0521 374.329 9.84701 374.584 9.61914C374.839 9.38216 375.131 9.16797 375.459 8.97656C376.197 8.54818 376.936 8.33398 377.674 8.33398C378.485 8.33398 378.973 8.84896 379.137 9.87891C379.191 10.1888 379.228 10.5078 379.246 10.8359C380.613 9.7513 382.044 8.99479 383.539 8.56641C384.086 8.41146 384.615 8.33398 385.125 8.33398C387.294 8.33398 388.666 9.19076 389.24 10.9043C390.662 9.77409 392.107 8.99479 393.574 8.56641C394.13 8.41146 394.695 8.33398 395.27 8.33398C395.844 8.33398 396.395 8.41146 396.924 8.56641C397.462 8.72135 397.922 8.97201 398.305 9.31836C399.143 10.0658 399.562 11.2051 399.562 12.7363V21.9102C399.562 22.6576 399.818 23.1224 400.328 23.3047C400.474 23.3594 400.647 23.4049 400.848 23.4414C401.048 23.4779 401.23 23.5234 401.395 23.5781C401.559 23.6237 401.686 23.6784 401.777 23.7422C401.932 23.8607 402.01 24.0521 402.01 24.3164C402.01 24.6354 401.937 24.8861 401.791 25.0684C401.609 25.0228 401.317 25 400.916 25H396.555C395.68 25 395.119 24.8451 394.873 24.5352C394.773 24.4167 394.723 24.2799 394.723 24.125C394.723 23.7422 394.796 23.4596 394.941 23.2773C395.16 23.3503 395.402 23.3867 395.666 23.3867C395.93 23.3867 396.131 23.3001 396.268 23.127C396.413 22.9447 396.495 22.612 396.514 22.1289V13.707C396.514 12.1576 396.053 11.2917 395.133 11.1094C394.85 11.0547 394.513 11.0273 394.121 11.0273C393.738 11.0273 393.319 11.0775 392.863 11.1777C392.417 11.2689 391.988 11.3965 391.578 11.5605C390.785 11.8796 390.092 12.2852 389.5 12.7773V21.9102C389.5 22.6667 389.755 23.1315 390.266 23.3047C390.411 23.3594 390.585 23.4049 390.785 23.4414C390.986 23.4779 391.163 23.5234 391.318 23.5781C391.482 23.6237 391.61 23.6784 391.701 23.7422C391.856 23.8607 391.934 24.0521 391.934 24.3164C391.934 24.6445 391.865 24.8952 391.729 25.0684C391.546 25.0228 391.255 25 390.854 25H386.492C385.617 25 385.057 24.8451 384.811 24.5352C384.71 24.4167 384.66 24.2799 384.66 24.125C384.66 23.7331 384.729 23.4505 384.865 23.2773C385.093 23.3503 385.339 23.3867 385.604 23.3867C385.868 23.3867 386.068 23.291 386.205 23.0996C386.351 22.9082 386.433 22.5573 386.451 22.0469V13.707C386.451 12.1576 385.991 11.2917 385.07 11.1094C384.788 11.0547 384.446 11.0273 384.045 11.0273C383.644 11.0273 383.206 11.082 382.732 11.1914C382.258 11.3008 381.807 11.4466 381.379 11.6289C380.559 11.9661 379.852 12.3945 379.26 12.9141V21.9102C379.26 22.6576 379.52 23.1224 380.039 23.3047C380.176 23.3594 380.344 23.4049 380.545 23.4414C380.745 23.4779 380.928 23.5234 381.092 23.5781C381.256 23.6237 381.383 23.6784 381.475 23.7422C381.63 23.8607 381.707 24.0521 381.707 24.3164C381.707 24.6354 381.634 24.8861 381.488 25.0684ZM404.074 17.6445C404.074 16.5417 404.188 15.5618 404.416 14.7051C404.644 13.8483 404.949 13.0827 405.332 12.4082C405.724 11.7246 406.18 11.1276 406.699 10.6172C407.228 10.1068 407.793 9.68294 408.395 9.3457C409.579 8.67122 410.746 8.33398 411.895 8.33398C413.043 8.33398 413.964 8.53906 414.656 8.94922C415.349 9.35026 415.914 9.88802 416.352 10.5625C417.163 11.8477 417.568 13.5566 417.568 15.6895C417.568 16.4824 417.236 16.888 416.57 16.9062L407.027 17.1113C407.082 19.0892 407.592 20.5521 408.559 21.5C409.379 22.3021 410.441 22.7031 411.744 22.7031C413.686 22.7031 415.262 22.2975 416.475 21.4863C416.557 21.4863 416.657 21.5547 416.775 21.6914C417.003 21.9648 417.117 22.2018 417.117 22.4023C417.117 22.8398 416.57 23.4004 415.477 24.084C414.219 24.8678 412.751 25.2598 411.074 25.2598C408.887 25.2598 407.169 24.5625 405.92 23.168C404.689 21.8008 404.074 19.9596 404.074 17.6445ZM407.109 15.3477C409.734 15.2201 412.136 15.0514 414.314 14.8418C414.415 11.9434 413.412 10.4941 411.307 10.4941C410.131 10.4941 409.169 10.9499 408.422 11.8613C407.738 12.6999 407.301 13.862 407.109 15.3477ZM423.01 25C421.615 25 420.918 24.681 420.918 24.043C420.918 23.7057 420.986 23.4505 421.123 23.2773C421.342 23.3503 421.547 23.3867 421.738 23.3867C422.531 23.3867 422.941 22.9082 422.969 21.9512V4.83398C422.969 4.19596 422.905 3.79036 422.777 3.61719C422.568 3.32552 422.23 3.17969 421.766 3.17969C421.556 3.17969 421.351 3.20247 421.15 3.24805C420.959 3.28451 420.822 3.28451 420.74 3.24805C420.667 3.20247 420.608 3.14323 420.562 3.07031C420.38 2.76953 420.608 2.38672 421.246 1.92188C422.249 1.18359 423.238 0.814453 424.213 0.814453C425.252 0.814453 425.835 1.375 425.963 2.49609C425.999 2.83333 426.018 3.1888 426.018 3.5625V22.0059C426.045 22.7168 426.305 23.1543 426.797 23.3184C426.943 23.3639 427.111 23.4049 427.303 23.4414C427.503 23.4779 427.686 23.5234 427.85 23.5781C428.014 23.6237 428.141 23.6784 428.232 23.7422C428.387 23.8607 428.465 24.0521 428.465 24.3164C428.465 24.6354 428.392 24.8861 428.246 25.0684C428.064 25.0228 427.772 25 427.371 25H423.01ZM433.592 5.79102C433.282 5.79102 432.995 5.74544 432.73 5.6543C432.475 5.55404 432.252 5.41276 432.061 5.23047C431.66 4.84766 431.459 4.33268 431.459 3.68555C431.459 3.06576 431.696 2.54167 432.17 2.11328C432.626 1.6849 433.173 1.4707 433.811 1.4707C434.449 1.4707 434.959 1.66211 435.342 2.04492C435.725 2.42773 435.916 2.94727 435.916 3.60352C435.916 4.22331 435.688 4.7474 435.232 5.17578C434.786 5.58594 434.239 5.79102 433.592 5.79102ZM432.758 25C431.354 25 430.652 24.681 430.652 24.043C430.652 23.7148 430.725 23.4596 430.871 23.2773C431.09 23.3503 431.29 23.3867 431.473 23.3867C432.32 23.3867 432.735 22.849 432.717 21.7734V12.6133C432.717 11.9753 432.626 11.5332 432.443 11.2871C432.27 11.0319 431.956 10.9043 431.5 10.9043C431.163 10.9043 430.857 10.9453 430.584 11.0273C430.42 11.0456 430.301 10.918 430.229 10.6445C430.165 10.3984 430.201 10.1842 430.338 10.002C430.475 9.81055 430.684 9.61458 430.967 9.41406C431.258 9.20443 431.577 9.02214 431.924 8.86719C432.671 8.51172 433.296 8.33398 433.797 8.33398C434.298 8.33398 434.667 8.4069 434.904 8.55273C435.15 8.69857 435.337 8.89453 435.465 9.14062C435.665 9.54167 435.766 10.1888 435.766 11.082V22.0059C435.793 22.7259 436.053 23.1634 436.545 23.3184C436.682 23.3639 436.85 23.4049 437.051 23.4414C437.251 23.4779 437.429 23.5234 437.584 23.5781C437.748 23.6237 437.876 23.6784 437.967 23.7422C438.122 23.8607 438.199 24.0521 438.199 24.3164C438.199 24.6445 438.131 24.8952 437.994 25.0684C437.803 25.0228 437.511 25 437.119 25H432.758ZM447.578 25.0684C447.396 25.0228 447.104 25 446.703 25H442.342C441.467 25 440.906 24.8451 440.66 24.5352C440.56 24.4167 440.51 24.2799 440.51 24.125C440.51 23.7422 440.583 23.4596 440.729 23.2773C440.947 23.3503 441.193 23.3867 441.467 23.3867C441.749 23.3867 441.959 23.2728 442.096 23.0449C442.242 22.8171 442.31 22.3932 442.301 21.7734V12.832C442.301 11.9753 442.141 11.4421 441.822 11.2324C441.695 11.1504 441.526 11.1094 441.316 11.1094C441.107 11.1094 440.938 11.1413 440.811 11.2051C440.692 11.2689 440.592 11.3145 440.51 11.3418C440.437 11.3691 440.373 11.3691 440.318 11.3418C440.264 11.3053 440.209 11.2552 440.154 11.1914C440.018 11.0456 439.949 10.8952 439.949 10.7402C439.949 10.5762 440.004 10.4076 440.113 10.2344C440.232 10.0521 440.419 9.84701 440.674 9.61914C440.929 9.38216 441.221 9.16797 441.549 8.97656C442.287 8.54818 443.025 8.33398 443.764 8.33398C444.611 8.33398 445.113 8.89453 445.268 10.0156C445.313 10.3438 445.34 10.681 445.35 11.0273C446.708 9.88802 448.184 9.07682 449.779 8.59375C450.354 8.42057 450.932 8.33398 451.516 8.33398C452.108 8.33398 452.669 8.41146 453.197 8.56641C453.735 8.72135 454.2 8.97201 454.592 9.31836C455.421 10.0475 455.836 11.1868 455.836 12.7363V22.0059C455.863 22.7168 456.128 23.1543 456.629 23.3184C456.766 23.3639 456.934 23.4049 457.135 23.4414C457.335 23.4779 457.513 23.5234 457.668 23.5781C457.832 23.6237 457.96 23.6784 458.051 23.7422C458.206 23.8607 458.283 24.0521 458.283 24.3164C458.283 24.6354 458.21 24.8861 458.064 25.0684C457.882 25.0228 457.59 25 457.189 25H452.828C451.953 25 451.393 24.8451 451.146 24.5352C451.046 24.4167 450.996 24.2799 450.996 24.125C450.996 23.7422 451.069 23.4596 451.215 23.2773C451.434 23.3503 451.634 23.3867 451.816 23.3867C452.008 23.3867 452.167 23.3639 452.295 23.3184C452.423 23.2637 452.523 23.1771 452.596 23.0586C452.723 22.8398 452.787 22.4115 452.787 21.7734V13.707C452.787 12.1576 452.327 11.2917 451.406 11.1094C451.124 11.0547 450.768 11.0273 450.34 11.0273C449.921 11.0273 449.456 11.0911 448.945 11.2188C448.435 11.3464 447.956 11.5104 447.51 11.7109C446.653 12.0938 445.933 12.5768 445.35 13.1602V22.0059C445.377 22.7168 445.637 23.1543 446.129 23.3184C446.275 23.3639 446.443 23.4049 446.635 23.4414C446.835 23.4779 447.018 23.5234 447.182 23.5781C447.346 23.6237 447.473 23.6784 447.564 23.7422C447.719 23.8607 447.797 24.0521 447.797 24.3164C447.797 24.6354 447.724 24.8861 447.578 25.0684ZM460.348 17.6445C460.348 16.5417 460.462 15.5618 460.689 14.7051C460.917 13.8483 461.223 13.0827 461.605 12.4082C461.997 11.7246 462.453 11.1276 462.973 10.6172C463.501 10.1068 464.066 9.68294 464.668 9.3457C465.853 8.67122 467.02 8.33398 468.168 8.33398C469.316 8.33398 470.237 8.53906 470.93 8.94922C471.622 9.35026 472.188 9.88802 472.625 10.5625C473.436 11.8477 473.842 13.5566 473.842 15.6895C473.842 16.4824 473.509 16.888 472.844 16.9062L463.301 17.1113C463.355 19.0892 463.866 20.5521 464.832 21.5C465.652 22.3021 466.714 22.7031 468.018 22.7031C469.959 22.7031 471.536 22.2975 472.748 21.4863C472.83 21.4863 472.93 21.5547 473.049 21.6914C473.277 21.9648 473.391 22.2018 473.391 22.4023C473.391 22.8398 472.844 23.4004 471.75 24.084C470.492 24.8678 469.025 25.2598 467.348 25.2598C465.16 25.2598 463.442 24.5625 462.193 23.168C460.963 21.8008 460.348 19.9596 460.348 17.6445ZM463.383 15.3477C466.008 15.2201 468.41 15.0514 470.588 14.8418C470.688 11.9434 469.686 10.4941 467.58 10.4941C466.404 10.4941 465.443 10.9499 464.695 11.8613C464.012 12.6999 463.574 13.862 463.383 15.3477Z" fill="#333333"/>
</svg>
