<svg width="362" height="122" viewBox="0 0 362 122" fill="none" xmlns="http://www.w3.org/2000/svg">
<g filter="url(#filter0_d_467_10083)">
<g clip-path="url(#clip0_467_10083)">
<rect x="26" y="14" width="310" height="70" rx="35" fill="url(#paint0_linear_467_10083)"/>
<path d="M72.7529 41.7998C72.0368 41.7998 71.6787 42.4157 71.6787 43.6475V52.2734C71.6787 54.6224 70.7585 56.1478 68.918 56.8496C68.2878 57.0859 67.5752 57.2041 66.7803 57.2041C65.9854 57.2041 65.3086 57.1182 64.75 56.9463C64.1914 56.7744 63.7188 56.5452 63.332 56.2588C62.5514 55.6715 62.1611 54.959 62.1611 54.1211C62.1611 53.4909 62.3079 52.9932 62.6016 52.6279C62.8952 52.2555 63.2998 52.0693 63.8154 52.0693C64.2451 52.0693 64.5316 52.1696 64.6748 52.3701C64.5889 52.7139 64.5459 53.0469 64.5459 53.3691C64.5459 54.8372 65.305 55.5713 66.8232 55.5713C67.568 55.5713 68.141 55.3564 68.542 54.9268C68.943 54.4899 69.1436 53.874 69.1436 53.0791V43.0566C69.1292 42.6771 69.0576 42.4264 68.9287 42.3047C68.7282 42.1257 68.4919 42.0111 68.2197 41.9609C67.9476 41.9036 67.7184 41.8535 67.5322 41.8105C67.3532 41.7676 67.1992 41.7139 67.0703 41.6494C66.8268 41.5205 66.7051 41.3164 66.7051 41.0371C66.7051 40.7721 66.7624 40.5752 66.877 40.4463C67.0417 40.5036 67.3962 40.5322 67.9404 40.5322H72.5918C73.4082 40.5322 73.8164 40.8079 73.8164 41.3594C73.8164 41.5957 73.7591 41.7783 73.6445 41.9072C73.3867 41.8356 73.0895 41.7998 72.7529 41.7998ZM75.3096 51.0703C75.3096 50.1966 75.3955 49.4124 75.5674 48.7178C75.7393 48.0231 75.9756 47.4108 76.2764 46.8809C76.5771 46.3509 76.9316 45.8997 77.3398 45.5273C77.748 45.1478 78.1849 44.8398 78.6504 44.6035C79.5599 44.138 80.5589 43.9053 81.6475 43.9053C83.0439 43.9053 84.2292 44.4137 85.2031 45.4307C86.2845 46.5479 86.8252 48.0231 86.8252 49.8564C86.8252 52.2627 86.1699 54.1354 84.8594 55.4746C83.7207 56.6276 82.3564 57.2041 80.7666 57.2041C79.1051 57.2041 77.7731 56.6204 76.7705 55.4531C75.7965 54.3288 75.3096 52.8678 75.3096 51.0703ZM81.4004 55.4531C81.8802 55.4531 82.3099 55.3421 82.6895 55.1201C83.069 54.891 83.3913 54.5794 83.6562 54.1855C84.1862 53.3691 84.4512 52.3092 84.4512 51.0059C84.4512 49.5736 84.1719 48.3561 83.6133 47.3535C82.9831 46.2005 82.0771 45.624 80.8955 45.624C79.943 45.624 79.1803 45.9893 78.6074 46.7197C77.9987 47.4932 77.6943 48.5745 77.6943 49.9639C77.6943 51.7041 78.0775 53.0791 78.8438 54.0889C79.5312 54.9984 80.3835 55.4531 81.4004 55.4531ZM91.5518 41.9072C91.3083 41.9072 91.0827 41.8714 90.875 41.7998C90.6745 41.721 90.499 41.61 90.3486 41.4668C90.0335 41.166 89.876 40.7614 89.876 40.2529C89.876 39.766 90.0622 39.3542 90.4346 39.0176C90.7926 38.681 91.2223 38.5127 91.7236 38.5127C92.2249 38.5127 92.626 38.6631 92.9268 38.9639C93.2275 39.2646 93.3779 39.6729 93.3779 40.1885C93.3779 40.6755 93.1989 41.0872 92.8408 41.4238C92.4899 41.7461 92.0602 41.9072 91.5518 41.9072ZM90.8965 57C89.7936 57 89.2422 56.7493 89.2422 56.248C89.2422 55.9902 89.2995 55.7897 89.4141 55.6465C89.5859 55.7038 89.7435 55.7324 89.8867 55.7324C90.5527 55.7324 90.8786 55.3099 90.8643 54.4648V47.2676C90.8643 46.7663 90.7926 46.4189 90.6494 46.2256C90.5133 46.0251 90.2663 45.9248 89.9082 45.9248C89.6432 45.9248 89.4033 45.957 89.1885 46.0215C89.0596 46.0358 88.9665 45.9355 88.9092 45.7207C88.859 45.5273 88.8877 45.359 88.9951 45.2158C89.1025 45.0654 89.2673 44.9115 89.4893 44.7539C89.7184 44.5892 89.9691 44.446 90.2412 44.3242C90.8285 44.0449 91.319 43.9053 91.7129 43.9053C92.1068 43.9053 92.3968 43.9626 92.583 44.0771C92.7764 44.1917 92.9232 44.3457 93.0234 44.5391C93.181 44.8542 93.2598 45.3626 93.2598 46.0645V54.6475C93.2812 55.2132 93.4854 55.557 93.8721 55.6787C93.9795 55.7145 94.112 55.7467 94.2695 55.7754C94.4271 55.804 94.5667 55.8398 94.6885 55.8828C94.8174 55.9186 94.9176 55.9616 94.9893 56.0117C95.111 56.1048 95.1719 56.2552 95.1719 56.4629C95.1719 56.7207 95.1182 56.9176 95.0107 57.0537C94.8604 57.0179 94.6312 57 94.3232 57H90.8965ZM102.541 57.0537C102.398 57.0179 102.169 57 101.854 57H98.4268C97.7393 57 97.2988 56.8783 97.1055 56.6348C97.0267 56.5417 96.9873 56.4342 96.9873 56.3125C96.9873 56.0117 97.0446 55.7897 97.1592 55.6465C97.3311 55.7038 97.5244 55.7324 97.7393 55.7324C97.9613 55.7324 98.126 55.6429 98.2334 55.4639C98.348 55.2848 98.4017 54.9518 98.3945 54.4648V47.4395C98.3945 46.7663 98.2692 46.3473 98.0186 46.1826C97.9183 46.1182 97.7858 46.0859 97.6211 46.0859C97.4564 46.0859 97.3239 46.111 97.2236 46.1611C97.1305 46.2113 97.0518 46.2471 96.9873 46.2686C96.93 46.29 96.8799 46.29 96.8369 46.2686C96.7939 46.2399 96.751 46.2005 96.708 46.1504C96.6006 46.0358 96.5469 45.9176 96.5469 45.7959C96.5469 45.667 96.5898 45.5345 96.6758 45.3984C96.7689 45.2552 96.9157 45.0941 97.1162 44.915C97.3167 44.7288 97.5459 44.5605 97.8037 44.4102C98.3838 44.0736 98.9639 43.9053 99.5439 43.9053C100.21 43.9053 100.604 44.3457 100.726 45.2266C100.761 45.4844 100.783 45.7493 100.79 46.0215C101.857 45.1263 103.017 44.4889 104.271 44.1094C104.722 43.9733 105.176 43.9053 105.635 43.9053C106.1 43.9053 106.541 43.9661 106.956 44.0879C107.379 44.2096 107.744 44.4066 108.052 44.6787C108.703 45.2516 109.029 46.1468 109.029 47.3643V54.6475C109.051 55.2061 109.258 55.5498 109.652 55.6787C109.76 55.7145 109.892 55.7467 110.05 55.7754C110.207 55.804 110.347 55.8398 110.469 55.8828C110.598 55.9186 110.698 55.9616 110.77 56.0117C110.891 56.1048 110.952 56.2552 110.952 56.4629C110.952 56.7135 110.895 56.9105 110.78 57.0537C110.637 57.0179 110.408 57 110.093 57H106.666C105.979 57 105.538 56.8783 105.345 56.6348C105.266 56.5417 105.227 56.4342 105.227 56.3125C105.227 56.0117 105.284 55.7897 105.398 55.6465C105.57 55.7038 105.728 55.7324 105.871 55.7324C106.021 55.7324 106.147 55.7145 106.247 55.6787C106.347 55.6357 106.426 55.5677 106.483 55.4746C106.584 55.3027 106.634 54.9661 106.634 54.4648V48.127C106.634 46.9095 106.272 46.2292 105.549 46.0859C105.327 46.043 105.048 46.0215 104.711 46.0215C104.382 46.0215 104.016 46.0716 103.615 46.1719C103.214 46.2721 102.838 46.401 102.487 46.5586C101.814 46.8594 101.248 47.2389 100.79 47.6973V54.6475C100.812 55.2061 101.016 55.5498 101.402 55.6787C101.517 55.7145 101.649 55.7467 101.8 55.7754C101.957 55.804 102.101 55.8398 102.229 55.8828C102.358 55.9186 102.459 55.9616 102.53 56.0117C102.652 56.1048 102.713 56.2552 102.713 56.4629C102.713 56.7135 102.656 56.9105 102.541 57.0537ZM122.489 55.0879C121.809 54.4076 121.275 53.5876 120.889 52.6279C120.509 51.6611 120.319 50.6406 120.319 49.5664C120.319 48.485 120.427 47.5326 120.642 46.709C120.856 45.8854 121.154 45.1406 121.533 44.4746C121.913 43.8014 122.364 43.207 122.887 42.6914C123.41 42.1758 123.979 41.7425 124.595 41.3916C125.841 40.6826 127.191 40.3281 128.645 40.3281C130.85 40.3281 132.648 41.0299 134.037 42.4336C135.491 43.8945 136.218 45.8174 136.218 48.2021C136.218 49.9997 135.813 51.6146 135.004 53.0469C134.266 54.3503 133.249 55.3743 131.953 56.1191C130.707 56.8424 129.45 57.2041 128.183 57.2041C126.922 57.2041 125.826 57.0215 124.896 56.6562C123.972 56.2839 123.17 55.7611 122.489 55.0879ZM124.294 43.8516C123.871 44.446 123.56 45.1657 123.359 46.0107C123.159 46.8558 123.059 47.7653 123.059 48.7393C123.059 49.7061 123.152 50.5941 123.338 51.4033C123.524 52.2054 123.821 52.9108 124.229 53.5195C125.118 54.8444 126.435 55.5068 128.183 55.5068C129.944 55.5068 131.28 54.9303 132.189 53.7773C133.063 52.653 133.5 51.0524 133.5 48.9756C133.5 45.7887 132.555 43.651 130.664 42.5625C129.991 42.1829 129.192 41.9932 128.269 41.9932C127.345 41.9932 126.557 42.1543 125.905 42.4766C125.254 42.7988 124.716 43.2572 124.294 43.8516ZM139.462 47.4395C139.462 47.0312 139.43 46.7054 139.365 46.4619C139.308 46.2113 139.186 46.0859 139 46.0859C138.864 46.0859 138.757 46.1003 138.678 46.1289L138.42 46.2363C138.37 46.2507 138.309 46.222 138.237 46.1504C138.101 46 138.033 45.8639 138.033 45.7422C138.033 45.6133 138.073 45.4808 138.151 45.3447C138.237 45.2015 138.363 45.0404 138.527 44.8613C138.699 44.6823 138.893 44.5247 139.107 44.3887C139.594 44.0664 140.035 43.9053 140.429 43.9053C140.823 43.9053 141.102 43.9733 141.267 44.1094C141.431 44.2454 141.557 44.4245 141.643 44.6465C141.786 45.0046 141.857 45.5452 141.857 46.2686V52.9932C141.857 54.2035 142.223 54.8802 142.953 55.0234C143.175 55.0664 143.437 55.0879 143.737 55.0879C144.045 55.0879 144.371 55.0485 144.715 54.9697C145.066 54.891 145.399 54.7871 145.714 54.6582C146.323 54.4076 146.86 54.0889 147.325 53.7021V47.4395C147.325 46.7591 147.203 46.3402 146.96 46.1826C146.86 46.1182 146.727 46.0859 146.562 46.0859C146.398 46.0859 146.265 46.111 146.165 46.1611C146.072 46.2113 145.993 46.2471 145.929 46.2686C145.871 46.29 145.821 46.29 145.778 46.2686C145.735 46.2399 145.689 46.2005 145.639 46.1504C145.531 46.0286 145.478 45.9069 145.478 45.7852C145.478 45.6634 145.521 45.5345 145.606 45.3984C145.7 45.2552 145.846 45.0941 146.047 44.915C146.247 44.7288 146.477 44.5605 146.734 44.4102C147.314 44.0736 147.895 43.9053 148.475 43.9053C149.176 43.9053 149.577 44.403 149.678 45.3984C149.706 45.6777 149.721 45.9678 149.721 46.2686V52.6279C149.721 53.7308 149.764 54.4183 149.85 54.6904C149.936 54.9626 150.039 55.1416 150.161 55.2275C150.283 55.3063 150.433 55.3457 150.612 55.3457C150.791 55.3457 150.938 55.3171 151.053 55.2598L151.375 55.1201C151.468 55.0986 151.55 55.1416 151.622 55.249C151.772 55.471 151.794 55.6715 151.687 55.8506C151.579 56.0296 151.411 56.2015 151.182 56.3662C150.96 56.5309 150.709 56.6742 150.43 56.7959C149.191 57.3402 148.31 57.3294 147.787 56.7637C147.515 56.4701 147.361 56.0046 147.325 55.3672C146.272 56.1764 145.195 56.735 144.092 57.043C143.691 57.1504 143.268 57.2041 142.824 57.2041C142.387 57.2041 141.958 57.1432 141.535 57.0215C141.12 56.8997 140.758 56.7028 140.45 56.4307C139.791 55.8506 139.462 54.9554 139.462 53.7451V47.4395ZM159.206 57.0537C159.056 57.0179 158.826 57 158.519 57H154.877C154.189 57 153.749 56.8783 153.556 56.6348C153.477 56.5417 153.438 56.4342 153.438 56.3125C153.438 56.0117 153.495 55.7897 153.609 55.6465C153.781 55.7038 153.939 55.7324 154.082 55.7324C154.232 55.7324 154.358 55.7145 154.458 55.6787C154.558 55.6357 154.637 55.5677 154.694 55.4746C154.795 55.3027 154.845 54.9661 154.845 54.4648V47.4395C154.845 46.7663 154.719 46.3473 154.469 46.1826C154.368 46.1182 154.236 46.0859 154.071 46.0859C153.907 46.0859 153.774 46.111 153.674 46.1611C153.581 46.2113 153.502 46.2471 153.438 46.2686C153.38 46.29 153.33 46.29 153.287 46.2686C153.244 46.2399 153.201 46.2005 153.158 46.1504C153.051 46.0215 152.997 45.8997 152.997 45.7852C152.997 45.6634 153.04 45.5345 153.126 45.3984C153.219 45.2552 153.366 45.0941 153.566 44.915C153.767 44.7288 153.996 44.5605 154.254 44.4102C154.834 44.0736 155.414 43.9053 155.994 43.9053C156.653 43.9053 157.043 44.335 157.165 45.1943C157.201 45.445 157.222 45.7064 157.229 45.9785C158.275 45.0547 159.353 44.4209 160.463 44.0771C160.835 43.9626 161.172 43.9053 161.473 43.9053C161.781 43.9053 162.031 43.9482 162.225 44.0342C162.425 44.1201 162.583 44.2383 162.697 44.3887C162.912 44.6823 163.02 45.0583 163.02 45.5166C163.02 45.9749 162.998 46.3402 162.955 46.6123C162.912 46.8844 162.858 47.1243 162.794 47.332C162.665 47.7546 162.543 48.0231 162.429 48.1377C162.228 48.3454 161.96 48.4492 161.623 48.4492C161.279 48.4492 161.107 48.349 161.107 48.1484C161.107 47.3822 161.075 46.8916 161.011 46.6768C160.889 46.2829 160.66 46.0859 160.323 46.0859C159.987 46.0859 159.682 46.1253 159.41 46.2041C159.138 46.2757 158.873 46.376 158.615 46.5049C158.092 46.7627 157.634 47.0957 157.24 47.5039V54.6475C157.262 55.2132 157.509 55.557 157.981 55.6787C158.118 55.7145 158.271 55.7467 158.443 55.7754C158.615 55.804 158.762 55.8398 158.884 55.8828C159.013 55.9186 159.113 55.9616 159.185 56.0117C159.306 56.1048 159.367 56.2552 159.367 56.4629C159.367 56.7207 159.313 56.9176 159.206 57.0537ZM183.365 45.1836C183.394 44.9831 183.408 44.6895 183.408 44.3027C183.408 43.916 183.333 43.5651 183.183 43.25C183.032 42.9277 182.828 42.6771 182.57 42.498C182.119 42.1901 181.439 42.0361 180.529 42.0361C179.627 42.0361 178.828 42.2008 178.134 42.5303C177.446 42.8525 176.87 43.3073 176.404 43.8945C175.466 45.0762 174.997 46.6839 174.997 48.7178C174.997 50.6442 175.473 52.1803 176.426 53.3262C177.414 54.5221 178.75 55.1201 180.433 55.1201C182.087 55.1201 183.376 54.7585 184.3 54.0352C184.579 53.8203 184.833 53.5876 185.062 53.3369C185.277 53.4014 185.453 53.5911 185.589 53.9062C185.632 54.0137 185.653 54.1569 185.653 54.3359C185.653 54.5078 185.524 54.7656 185.267 55.1094C185.016 55.446 184.647 55.7718 184.16 56.0869C183 56.846 181.611 57.2256 179.992 57.2256C177.672 57.2256 175.824 56.5202 174.449 55.1094C173.089 53.7272 172.408 51.876 172.408 49.5557C172.408 48.1377 172.634 46.8594 173.085 45.7207C173.536 44.582 174.152 43.6152 174.933 42.8203C175.713 42.0182 176.623 41.4023 177.661 40.9727C178.707 40.543 179.72 40.3281 180.701 40.3281C181.689 40.3281 182.481 40.4105 183.075 40.5752C183.67 40.7399 184.164 40.9655 184.558 41.252C185.345 41.8392 185.739 42.6198 185.739 43.5938C185.739 44.3385 185.464 44.8649 184.912 45.1729C184.726 45.2803 184.525 45.334 184.311 45.334C183.867 45.334 183.551 45.2839 183.365 45.1836ZM187.866 51.0703C187.866 50.1966 187.952 49.4124 188.124 48.7178C188.296 48.0231 188.532 47.4108 188.833 46.8809C189.134 46.3509 189.488 45.8997 189.896 45.5273C190.305 45.1478 190.742 44.8398 191.207 44.6035C192.117 44.138 193.116 43.9053 194.204 43.9053C195.601 43.9053 196.786 44.4137 197.76 45.4307C198.841 46.5479 199.382 48.0231 199.382 49.8564C199.382 52.2627 198.727 54.1354 197.416 55.4746C196.277 56.6276 194.913 57.2041 193.323 57.2041C191.662 57.2041 190.33 56.6204 189.327 55.4531C188.353 54.3288 187.866 52.8678 187.866 51.0703ZM193.957 55.4531C194.437 55.4531 194.867 55.3421 195.246 55.1201C195.626 54.891 195.948 54.5794 196.213 54.1855C196.743 53.3691 197.008 52.3092 197.008 51.0059C197.008 49.5736 196.729 48.3561 196.17 47.3535C195.54 46.2005 194.634 45.624 193.452 45.624C192.5 45.624 191.737 45.9893 191.164 46.7197C190.555 47.4932 190.251 48.5745 190.251 49.9639C190.251 51.7041 190.634 53.0791 191.4 54.0889C192.088 54.9984 192.94 55.4531 193.957 55.4531ZM207.385 57.0537C207.242 57.0179 207.012 57 206.697 57H203.271C202.583 57 202.143 56.8783 201.949 56.6348C201.87 56.5417 201.831 56.4342 201.831 56.3125C201.831 56.0117 201.888 55.7897 202.003 55.6465C202.175 55.7038 202.368 55.7324 202.583 55.7324C202.805 55.7324 202.97 55.6429 203.077 55.4639C203.192 55.2848 203.245 54.9518 203.238 54.4648V47.4395C203.238 46.7663 203.113 46.3473 202.862 46.1826C202.762 46.1182 202.63 46.0859 202.465 46.0859C202.3 46.0859 202.168 46.111 202.067 46.1611C201.974 46.2113 201.896 46.2471 201.831 46.2686C201.774 46.29 201.724 46.29 201.681 46.2686C201.638 46.2399 201.595 46.2005 201.552 46.1504C201.444 46.0358 201.391 45.9176 201.391 45.7959C201.391 45.667 201.434 45.5345 201.52 45.3984C201.613 45.2552 201.759 45.0941 201.96 44.915C202.16 44.7288 202.39 44.5605 202.647 44.4102C203.228 44.0736 203.808 43.9053 204.388 43.9053C205.025 43.9053 205.408 44.3099 205.537 45.1191C205.58 45.3626 205.609 45.6133 205.623 45.8711C206.697 45.0189 207.822 44.4245 208.996 44.0879C209.426 43.9661 209.841 43.9053 210.242 43.9053C211.947 43.9053 213.024 44.5785 213.476 45.9248C214.593 45.0368 215.728 44.4245 216.881 44.0879C217.318 43.9661 217.762 43.9053 218.213 43.9053C218.664 43.9053 219.097 43.9661 219.513 44.0879C219.935 44.2096 220.297 44.4066 220.598 44.6787C221.257 45.266 221.586 46.1611 221.586 47.3643V54.5723C221.586 55.1595 221.786 55.5247 222.188 55.668C222.302 55.7109 222.438 55.7467 222.596 55.7754C222.753 55.804 222.896 55.8398 223.025 55.8828C223.154 55.9186 223.255 55.9616 223.326 56.0117C223.448 56.1048 223.509 56.2552 223.509 56.4629C223.509 56.7135 223.451 56.9105 223.337 57.0537C223.194 57.0179 222.965 57 222.649 57H219.223C218.535 57 218.095 56.8783 217.901 56.6348C217.823 56.5417 217.783 56.4342 217.783 56.3125C217.783 56.0117 217.84 55.7897 217.955 55.6465C218.127 55.7038 218.317 55.7324 218.524 55.7324C218.732 55.7324 218.89 55.6644 218.997 55.5283C219.112 55.3851 219.176 55.1237 219.19 54.7441V48.127C219.19 46.9095 218.829 46.2292 218.105 46.0859C217.883 46.043 217.618 46.0215 217.311 46.0215C217.01 46.0215 216.68 46.0609 216.322 46.1396C215.971 46.2113 215.635 46.3115 215.312 46.4404C214.689 46.6911 214.145 47.0098 213.68 47.3965V54.5723C213.68 55.1667 213.88 55.5319 214.281 55.668C214.396 55.7109 214.532 55.7467 214.689 55.7754C214.847 55.804 214.987 55.8398 215.108 55.8828C215.237 55.9186 215.338 55.9616 215.409 56.0117C215.531 56.1048 215.592 56.2552 215.592 56.4629C215.592 56.7207 215.538 56.9176 215.431 57.0537C215.287 57.0179 215.058 57 214.743 57H211.316C210.629 57 210.188 56.8783 209.995 56.6348C209.916 56.5417 209.877 56.4342 209.877 56.3125C209.877 56.0046 209.931 55.7826 210.038 55.6465C210.217 55.7038 210.41 55.7324 210.618 55.7324C210.826 55.7324 210.983 55.6572 211.091 55.5068C211.205 55.3564 211.27 55.0807 211.284 54.6797V48.127C211.284 46.9095 210.923 46.2292 210.199 46.0859C209.977 46.043 209.709 46.0215 209.394 46.0215C209.078 46.0215 208.735 46.0645 208.362 46.1504C207.99 46.2363 207.635 46.3509 207.299 46.4941C206.654 46.7591 206.099 47.0957 205.634 47.5039V54.5723C205.634 55.1595 205.838 55.5247 206.246 55.668C206.354 55.7109 206.486 55.7467 206.644 55.7754C206.801 55.804 206.944 55.8398 207.073 55.8828C207.202 55.9186 207.302 55.9616 207.374 56.0117C207.496 56.1048 207.557 56.2552 207.557 56.4629C207.557 56.7135 207.499 56.9105 207.385 57.0537ZM230.91 57.0537C230.767 57.0179 230.538 57 230.223 57H226.796C226.108 57 225.668 56.8783 225.475 56.6348C225.396 56.5417 225.356 56.4342 225.356 56.3125C225.356 56.0117 225.414 55.7897 225.528 55.6465C225.7 55.7038 225.894 55.7324 226.108 55.7324C226.33 55.7324 226.495 55.6429 226.603 55.4639C226.717 55.2848 226.771 54.9518 226.764 54.4648V47.4395C226.764 46.7663 226.638 46.3473 226.388 46.1826C226.287 46.1182 226.155 46.0859 225.99 46.0859C225.826 46.0859 225.693 46.111 225.593 46.1611C225.5 46.2113 225.421 46.2471 225.356 46.2686C225.299 46.29 225.249 46.29 225.206 46.2686C225.163 46.2399 225.12 46.2005 225.077 46.1504C224.97 46.0358 224.916 45.9176 224.916 45.7959C224.916 45.667 224.959 45.5345 225.045 45.3984C225.138 45.2552 225.285 45.0941 225.485 44.915C225.686 44.7288 225.915 44.5605 226.173 44.4102C226.753 44.0736 227.333 43.9053 227.913 43.9053C228.55 43.9053 228.934 44.3099 229.062 45.1191C229.105 45.3626 229.134 45.6133 229.148 45.8711C230.223 45.0189 231.347 44.4245 232.521 44.0879C232.951 43.9661 233.367 43.9053 233.768 43.9053C235.472 43.9053 236.55 44.5785 237.001 45.9248C238.118 45.0368 239.253 44.4245 240.406 44.0879C240.843 43.9661 241.287 43.9053 241.738 43.9053C242.189 43.9053 242.623 43.9661 243.038 44.0879C243.461 44.2096 243.822 44.4066 244.123 44.6787C244.782 45.266 245.111 46.1611 245.111 47.3643V54.5723C245.111 55.1595 245.312 55.5247 245.713 55.668C245.827 55.7109 245.964 55.7467 246.121 55.7754C246.279 55.804 246.422 55.8398 246.551 55.8828C246.68 55.9186 246.78 55.9616 246.852 56.0117C246.973 56.1048 247.034 56.2552 247.034 56.4629C247.034 56.7135 246.977 56.9105 246.862 57.0537C246.719 57.0179 246.49 57 246.175 57H242.748C242.061 57 241.62 56.8783 241.427 56.6348C241.348 56.5417 241.309 56.4342 241.309 56.3125C241.309 56.0117 241.366 55.7897 241.48 55.6465C241.652 55.7038 241.842 55.7324 242.05 55.7324C242.257 55.7324 242.415 55.6644 242.522 55.5283C242.637 55.3851 242.701 55.1237 242.716 54.7441V48.127C242.716 46.9095 242.354 46.2292 241.631 46.0859C241.409 46.043 241.144 46.0215 240.836 46.0215C240.535 46.0215 240.206 46.0609 239.848 46.1396C239.497 46.2113 239.16 46.3115 238.838 46.4404C238.215 46.6911 237.671 47.0098 237.205 47.3965V54.5723C237.205 55.1667 237.406 55.5319 237.807 55.668C237.921 55.7109 238.057 55.7467 238.215 55.7754C238.372 55.804 238.512 55.8398 238.634 55.8828C238.763 55.9186 238.863 55.9616 238.935 56.0117C239.056 56.1048 239.117 56.2552 239.117 56.4629C239.117 56.7207 239.063 56.9176 238.956 57.0537C238.813 57.0179 238.584 57 238.269 57H234.842C234.154 57 233.714 56.8783 233.521 56.6348C233.442 56.5417 233.402 56.4342 233.402 56.3125C233.402 56.0046 233.456 55.7826 233.563 55.6465C233.743 55.7038 233.936 55.7324 234.144 55.7324C234.351 55.7324 234.509 55.6572 234.616 55.5068C234.731 55.3564 234.795 55.0807 234.81 54.6797V48.127C234.81 46.9095 234.448 46.2292 233.725 46.0859C233.503 46.043 233.234 46.0215 232.919 46.0215C232.604 46.0215 232.26 46.0645 231.888 46.1504C231.515 46.2363 231.161 46.3509 230.824 46.4941C230.18 46.7591 229.625 47.0957 229.159 47.5039V54.5723C229.159 55.1595 229.363 55.5247 229.771 55.668C229.879 55.7109 230.011 55.7467 230.169 55.7754C230.326 55.804 230.47 55.8398 230.599 55.8828C230.728 55.9186 230.828 55.9616 230.899 56.0117C231.021 56.1048 231.082 56.2552 231.082 56.4629C231.082 56.7135 231.025 56.9105 230.91 57.0537ZM249.569 47.4395C249.569 47.0312 249.537 46.7054 249.473 46.4619C249.415 46.2113 249.294 46.0859 249.107 46.0859C248.971 46.0859 248.864 46.1003 248.785 46.1289L248.527 46.2363C248.477 46.2507 248.416 46.222 248.345 46.1504C248.209 46 248.141 45.8639 248.141 45.7422C248.141 45.6133 248.18 45.4808 248.259 45.3447C248.345 45.2015 248.47 45.0404 248.635 44.8613C248.807 44.6823 249 44.5247 249.215 44.3887C249.702 44.0664 250.142 43.9053 250.536 43.9053C250.93 43.9053 251.209 43.9733 251.374 44.1094C251.539 44.2454 251.664 44.4245 251.75 44.6465C251.893 45.0046 251.965 45.5452 251.965 46.2686V52.9932C251.965 54.2035 252.33 54.8802 253.061 55.0234C253.283 55.0664 253.544 55.0879 253.845 55.0879C254.153 55.0879 254.479 55.0485 254.822 54.9697C255.173 54.891 255.506 54.7871 255.821 54.6582C256.43 54.4076 256.967 54.0889 257.433 53.7021V47.4395C257.433 46.7591 257.311 46.3402 257.067 46.1826C256.967 46.1182 256.835 46.0859 256.67 46.0859C256.505 46.0859 256.373 46.111 256.272 46.1611C256.179 46.2113 256.101 46.2471 256.036 46.2686C255.979 46.29 255.929 46.29 255.886 46.2686C255.843 46.2399 255.796 46.2005 255.746 46.1504C255.639 46.0286 255.585 45.9069 255.585 45.7852C255.585 45.6634 255.628 45.5345 255.714 45.3984C255.807 45.2552 255.954 45.0941 256.154 44.915C256.355 44.7288 256.584 44.5605 256.842 44.4102C257.422 44.0736 258.002 43.9053 258.582 43.9053C259.284 43.9053 259.685 44.403 259.785 45.3984C259.814 45.6777 259.828 45.9678 259.828 46.2686V52.6279C259.828 53.7308 259.871 54.4183 259.957 54.6904C260.043 54.9626 260.147 55.1416 260.269 55.2275C260.39 55.3063 260.541 55.3457 260.72 55.3457C260.899 55.3457 261.046 55.3171 261.16 55.2598L261.482 55.1201C261.576 55.0986 261.658 55.1416 261.729 55.249C261.88 55.471 261.901 55.6715 261.794 55.8506C261.687 56.0296 261.518 56.2015 261.289 56.3662C261.067 56.5309 260.816 56.6742 260.537 56.7959C259.298 57.3402 258.417 57.3294 257.895 56.7637C257.622 56.4701 257.468 56.0046 257.433 55.3672C256.38 56.1764 255.302 56.735 254.199 57.043C253.798 57.1504 253.376 57.2041 252.932 57.2041C252.495 57.2041 252.065 57.1432 251.643 57.0215C251.227 56.8997 250.866 56.7028 250.558 56.4307C249.899 55.8506 249.569 54.9554 249.569 53.7451V47.4395ZM269.152 57.0537C269.009 57.0179 268.78 57 268.465 57H265.038C264.351 57 263.91 56.8783 263.717 56.6348C263.638 56.5417 263.599 56.4342 263.599 56.3125C263.599 56.0117 263.656 55.7897 263.771 55.6465C263.942 55.7038 264.136 55.7324 264.351 55.7324C264.573 55.7324 264.737 55.6429 264.845 55.4639C264.959 55.2848 265.013 54.9518 265.006 54.4648V47.4395C265.006 46.7663 264.881 46.3473 264.63 46.1826C264.53 46.1182 264.397 46.0859 264.232 46.0859C264.068 46.0859 263.935 46.111 263.835 46.1611C263.742 46.2113 263.663 46.2471 263.599 46.2686C263.541 46.29 263.491 46.29 263.448 46.2686C263.405 46.2399 263.362 46.2005 263.319 46.1504C263.212 46.0358 263.158 45.9176 263.158 45.7959C263.158 45.667 263.201 45.5345 263.287 45.3984C263.38 45.2552 263.527 45.0941 263.728 44.915C263.928 44.7288 264.157 44.5605 264.415 44.4102C264.995 44.0736 265.575 43.9053 266.155 43.9053C266.821 43.9053 267.215 44.3457 267.337 45.2266C267.373 45.4844 267.394 45.7493 267.401 46.0215C268.468 45.1263 269.629 44.4889 270.882 44.1094C271.333 43.9733 271.788 43.9053 272.246 43.9053C272.712 43.9053 273.152 43.9661 273.567 44.0879C273.99 44.2096 274.355 44.4066 274.663 44.6787C275.315 45.2516 275.641 46.1468 275.641 47.3643V54.6475C275.662 55.2061 275.87 55.5498 276.264 55.6787C276.371 55.7145 276.504 55.7467 276.661 55.7754C276.819 55.804 276.958 55.8398 277.08 55.8828C277.209 55.9186 277.309 55.9616 277.381 56.0117C277.503 56.1048 277.563 56.2552 277.563 56.4629C277.563 56.7135 277.506 56.9105 277.392 57.0537C277.248 57.0179 277.019 57 276.704 57H273.277C272.59 57 272.149 56.8783 271.956 56.6348C271.877 56.5417 271.838 56.4342 271.838 56.3125C271.838 56.0117 271.895 55.7897 272.01 55.6465C272.182 55.7038 272.339 55.7324 272.482 55.7324C272.633 55.7324 272.758 55.7145 272.858 55.6787C272.959 55.6357 273.037 55.5677 273.095 55.4746C273.195 55.3027 273.245 54.9661 273.245 54.4648V48.127C273.245 46.9095 272.883 46.2292 272.16 46.0859C271.938 46.043 271.659 46.0215 271.322 46.0215C270.993 46.0215 270.628 46.0716 270.227 46.1719C269.826 46.2721 269.45 46.401 269.099 46.5586C268.425 46.8594 267.86 47.2389 267.401 47.6973V54.6475C267.423 55.2061 267.627 55.5498 268.014 55.6787C268.128 55.7145 268.261 55.7467 268.411 55.7754C268.569 55.804 268.712 55.8398 268.841 55.8828C268.97 55.9186 269.07 55.9616 269.142 56.0117C269.263 56.1048 269.324 56.2552 269.324 56.4629C269.324 56.7135 269.267 56.9105 269.152 57.0537ZM281.688 41.9072C281.445 41.9072 281.219 41.8714 281.012 41.7998C280.811 41.721 280.636 41.61 280.485 41.4668C280.17 41.166 280.013 40.7614 280.013 40.2529C280.013 39.766 280.199 39.3542 280.571 39.0176C280.929 38.681 281.359 38.5127 281.86 38.5127C282.362 38.5127 282.763 38.6631 283.063 38.9639C283.364 39.2646 283.515 39.6729 283.515 40.1885C283.515 40.6755 283.336 41.0872 282.978 41.4238C282.627 41.7461 282.197 41.9072 281.688 41.9072ZM281.033 57C279.93 57 279.379 56.7493 279.379 56.248C279.379 55.9902 279.436 55.7897 279.551 55.6465C279.723 55.7038 279.88 55.7324 280.023 55.7324C280.689 55.7324 281.015 55.3099 281.001 54.4648V47.2676C281.001 46.7663 280.929 46.4189 280.786 46.2256C280.65 46.0251 280.403 45.9248 280.045 45.9248C279.78 45.9248 279.54 45.957 279.325 46.0215C279.196 46.0358 279.103 45.9355 279.046 45.7207C278.996 45.5273 279.024 45.359 279.132 45.2158C279.239 45.0654 279.404 44.9115 279.626 44.7539C279.855 44.5892 280.106 44.446 280.378 44.3242C280.965 44.0449 281.456 43.9053 281.85 43.9053C282.243 43.9053 282.534 43.9626 282.72 44.0771C282.913 44.1917 283.06 44.3457 283.16 44.5391C283.318 44.8542 283.396 45.3626 283.396 46.0645V54.6475C283.418 55.2132 283.622 55.557 284.009 55.6787C284.116 55.7145 284.249 55.7467 284.406 55.7754C284.564 55.804 284.703 55.8398 284.825 55.8828C284.954 55.9186 285.054 55.9616 285.126 56.0117C285.248 56.1048 285.309 56.2552 285.309 56.4629C285.309 56.7207 285.255 56.9176 285.147 57.0537C284.997 57.0179 284.768 57 284.46 57H281.033ZM290.594 49.6738L290.583 52.499C290.583 53.6807 290.644 54.3932 290.766 54.6367C290.887 54.873 291.031 55.0163 291.195 55.0664C291.36 55.1094 291.571 55.1309 291.829 55.1309C292.087 55.1309 292.32 55.113 292.527 55.0771C292.742 55.0342 292.943 54.9805 293.129 54.916C293.315 54.8516 293.494 54.7799 293.666 54.7012L294.192 54.4756C294.314 54.4326 294.45 54.5579 294.601 54.8516C294.644 54.9303 294.665 55.0234 294.665 55.1309C294.665 55.2311 294.622 55.3636 294.536 55.5283C294.45 55.693 294.282 55.8828 294.031 56.0977C293.788 56.3053 293.501 56.4915 293.172 56.6562C292.456 57.0215 291.811 57.2041 291.238 57.2041C290.673 57.2041 290.211 57.1719 289.853 57.1074C289.494 57.043 289.19 56.9141 288.939 56.7207C288.424 56.3197 288.166 55.5856 288.166 54.5186V46.0645H287.103C286.881 46.0645 286.719 45.9928 286.619 45.8496C286.447 45.6276 286.361 45.4414 286.361 45.291C286.361 45.0404 286.422 44.9007 286.544 44.8721C287.683 44.6787 288.488 43.8337 288.961 42.3369C289.097 41.8857 289.204 41.3522 289.283 40.7363C289.627 40.679 289.885 40.6504 290.057 40.6504C290.236 40.6504 290.39 40.7399 290.519 40.9189C290.647 41.098 290.708 41.3057 290.701 41.542C290.701 41.7783 290.698 42.0003 290.69 42.208C290.683 42.4157 290.676 42.6413 290.669 42.8848L290.626 44.3887H294.343C294.436 44.5534 294.482 44.7288 294.482 44.915V45.248C294.482 45.5488 294.321 45.7959 293.999 45.9893C293.677 46.1755 293.319 46.2686 292.925 46.2686C292.538 46.2686 292.259 46.265 292.087 46.2578C291.922 46.2435 291.761 46.2292 291.604 46.2148L291.131 46.1504C290.966 46.1361 290.791 46.1217 290.604 46.1074V46.2256L290.594 49.6738ZM295.922 45.6348L295.696 45.6777C295.539 45.6777 295.428 45.5703 295.363 45.3555C295.342 45.2982 295.331 45.2158 295.331 45.1084C295.331 45.001 295.392 44.8685 295.514 44.7109C295.635 44.5534 295.793 44.4173 295.986 44.3027C296.416 44.0378 296.871 43.9053 297.351 43.9053C297.73 43.9053 298.002 43.959 298.167 44.0664C298.489 44.2669 298.74 44.6751 298.919 45.291L302.195 54.7979C302.868 53.3011 303.33 52.2412 303.581 51.6182L304.236 49.9531C304.845 48.3203 305.149 47.2568 305.149 46.7627C305.149 46.2614 305.063 45.8962 304.892 45.667C304.72 45.4378 304.423 45.3018 304 45.2588C303.921 45.1729 303.882 45.0583 303.882 44.915C303.882 44.7646 303.946 44.6286 304.075 44.5068C304.211 44.3779 304.387 44.2669 304.602 44.1738C305.038 43.9948 305.486 43.9053 305.944 43.9053C306.41 43.9053 306.739 43.9303 306.933 43.9805C307.126 44.0234 307.28 44.0986 307.395 44.2061C307.617 44.4066 307.728 44.779 307.728 45.3232C307.728 45.8102 307.344 47.0957 306.578 49.1797C305.862 51.0417 305.325 52.3916 304.967 53.2295C303.649 56.1657 302.657 58.221 301.991 59.3955C301.325 60.57 300.695 61.3828 300.101 61.834C299.506 62.2923 298.88 62.5215 298.221 62.5215C297.562 62.5215 297.064 62.3783 296.728 62.0918C296.391 61.8125 296.223 61.4258 296.223 60.9316C296.223 60.5592 296.316 60.2799 296.502 60.0938C296.853 59.7428 297.225 59.6068 297.619 59.6855C297.684 60.2227 298.006 60.4912 298.586 60.4912C299.109 60.4912 299.578 60.151 299.993 59.4707C300.187 59.1484 300.376 58.7725 300.562 58.3428L301.186 56.957L301.4 56.5166C300.985 56.4593 300.634 56.2552 300.348 55.9043C300.233 55.7682 300.14 55.5964 300.068 55.3887L297.061 47.4932L296.803 46.8594C296.473 46.043 296.18 45.6348 295.922 45.6348Z" fill="#333333"/>
</g>
<rect x="25" y="13" width="312" height="72" rx="36" stroke="url(#paint1_linear_467_10083)" stroke-width="2"/>
</g>
<defs>
<filter id="filter0_d_467_10083" x="0" y="0" width="362" height="122" filterUnits="userSpaceOnUse" color-interpolation-filters="sRGB">
<feFlood flood-opacity="0" result="BackgroundImageFix"/>
<feColorMatrix in="SourceAlpha" type="matrix" values="0 0 0 0 0 0 0 0 0 0 0 0 0 0 0 0 0 0 127 0" result="hardAlpha"/>
<feOffset dy="12"/>
<feGaussianBlur stdDeviation="12"/>
<feComposite in2="hardAlpha" operator="out"/>
<feColorMatrix type="matrix" values="0 0 0 0 0 0 0 0 0 0 0 0 0 0 0 0 0 0 0.08 0"/>
<feBlend mode="normal" in2="BackgroundImageFix" result="effect1_dropShadow_467_10083"/>
<feBlend mode="normal" in="SourceGraphic" in2="effect1_dropShadow_467_10083" result="shape"/>
</filter>
<linearGradient id="paint0_linear_467_10083" x1="336" y1="49" x2="26" y2="49" gradientUnits="userSpaceOnUse">
<stop stop-color="#F597A9"/>
<stop offset="1" stop-color="#EEB7F8"/>
</linearGradient>
<linearGradient id="paint1_linear_467_10083" x1="181" y1="84" x2="72.5" y2="19" gradientUnits="userSpaceOnUse">
<stop stop-color="#AAAAAA"/>
<stop offset="0.48751" stop-color="#AAAAAA"/>
<stop offset="1" stop-color="white"/>
</linearGradient>
<clipPath id="clip0_467_10083">
<rect x="26" y="14" width="310" height="70" rx="35" fill="white"/>
</clipPath>
</defs>
</svg>
